<svg width="3069" height="3707" viewBox="0 0 3069 3707" fill="none" xmlns="http://www.w3.org/2000/svg">
<path d="M1538.86 0.00683594C2303.46 2.38736 3068.73 612.816 3068.73 1523.12C3068.73 1955.29 2922.12 2280.66 2618.42 2621.91L2617.94 2622.44L2617.43 2622.96L1558.42 3687.59L1540.04 3706.06L1521.61 3687.64L456.418 2623.01L455.946 2622.54L455.5 2622.04C290.164 2438.91 175.802 2282.04 103.098 2111.39C30.2657 1940.44 4.20419e-05 1757.47 0 1523.12C6.01069e-05 712.279 660.776 0.00069171 1534.37 0L1538.86 0.00683594ZM1533.81 683.451C982.088 683.451 686.262 1110.32 686.264 1480.38C686.265 1786.89 1046.54 1955.11 1282.97 1736.27C1403.89 1624.35 1399.68 1550.38 1416.26 1451.13L1171.05 1403.33C1073.2 1387.58 1078.82 1269.48 1171.05 1248.67L1950.55 1043.95C2009.6 1031.02 2024.78 1054.08 2009.6 1110.32L1808.26 1898.8C1784.64 1986.54 1677.78 1988.23 1661.47 1898.8L1610.85 1647.97C1557.43 1647.97 1428.07 1620.42 1325.72 1771.14C1136.19 2034.34 1236.86 2365.6 1610.85 2365.6C2009.6 2365.6 2381.35 1984.29 2381.35 1525.93C2381.35 1043.21 2009.6 683.451 1533.81 683.451Z" fill="#F46F12"/>
</svg>
