<svg width="240" height="324" viewBox="0 0 240 324" fill="none" xmlns="http://www.w3.org/2000/svg">
<path fill-rule="evenodd" clip-rule="evenodd" d="M198.116 286.283C202.199 286.086 200.557 278.941 200.263 276.317C197.031 266.734 197.791 256.278 196.519 246.233C195.727 236.855 194.71 227.507 193.854 218.137C192.172 199.117 180.099 160.397 166.321 154.17C164.586 146.552 157.417 139.44 148.347 139.44C142.161 132.115 134.716 126.959 125.166 128C121.219 128.18 117.392 132.367 113.611 133.176C111.493 133.468 92.7031 132.716 88.9392 134.952C86.3174 136.299 83.9505 138.788 84.7215 141.956C85.9515 145.795 82.129 141.641 74.1551 145.738C57.8953 155.508 67.6115 168.577 68.042 168.982C57.8953 183.105 49.0265 194.563 44.9231 211.825C42.2636 224.641 42.563 237.871 40.3348 250.753C39.548 255.22 38.341 259.534 37.035 263.871C35.6195 269.548 34.9312 283.697 34.151 283.823C32.7298 284.176 34.9724 287.095 36.4783 287.098C78.2298 294.026 120.639 287.385 162.615 286.3C174.445 285.888 186.287 285.793 198.116 286.283Z" fill="#D08B5B"/>
<path fill-rule="evenodd" clip-rule="evenodd" d="M113.663 145.612C113.663 150.057 129.092 166.575 134.417 165.485C137.966 164.759 143.33 160.021 150.507 151.272V145.612L148.957 139.451C157.737 139.76 164.625 146.723 166.321 154.17C179.961 160.335 191.931 198.346 193.8 217.561L193.854 218.138C194.71 227.508 195.727 236.856 196.519 246.233C197.791 256.278 197.031 266.734 200.263 276.317L200.283 276.48C200.62 279.224 202.117 286.09 198.116 286.283C186.287 285.793 174.445 285.888 162.615 286.3C120.639 287.385 78.2298 294.026 36.4783 287.098C34.9724 287.095 32.7298 284.176 34.151 283.823C34.9312 283.697 35.6195 269.548 37.035 263.871L37.3037 262.974C38.5055 258.938 39.6023 254.912 40.3348 250.753C42.563 237.872 42.2636 224.641 44.9231 211.825C49.0265 194.563 57.8953 183.105 68.042 168.982C67.6115 168.577 57.8953 155.508 74.1551 145.738C82.129 141.641 85.9515 145.795 84.7215 141.956C83.9505 138.788 86.3174 136.299 88.9392 134.953C92.7031 132.716 111.493 133.468 113.611 133.176C114.594 132.966 115.581 132.527 116.572 131.989L116.4 132.562C114.575 138.68 113.663 143.03 113.663 145.612Z" fill="#9FD8E5"/>
<path fill-rule="evenodd" clip-rule="evenodd" d="M134.835 170.229C134.854 170.037 135.112 170.038 135.132 170.229L135.427 173.075C135.786 176.552 136.131 180.022 136.381 183.515C136.693 187.871 136.902 192.225 137.002 196.591C137.353 211.795 137.423 227.007 137.452 242.214C139.508 242.072 141.564 241.935 143.621 241.802C145.017 241.712 146.413 241.625 147.809 241.54L151.368 241.324L152.833 241.234C153.824 241.173 154.949 240.924 155.641 241.801C155.918 242.152 156.057 242.609 155.799 243.026C155.203 243.988 154.287 243.954 153.252 243.996C152.275 244.035 151.298 244.074 150.321 244.112C148.228 244.193 146.134 244.27 144.04 244.328C141.843 244.39 139.646 244.44 137.449 244.478C137.427 250.898 137.162 257.31 136.875 263.723L136.745 266.609C136.393 274.413 136.015 282.224 135.479 290.018C135.434 290.656 134.532 290.655 134.488 290.018C133.884 281.241 133.485 272.445 133.089 263.656C132.802 257.284 132.636 250.91 132.556 244.535C132.266 244.536 131.975 244.54 131.685 244.542C123.44 244.577 115.197 244.613 106.952 244.536C106.965 244.552 106.979 244.569 106.988 244.59C107.585 245.999 107.642 247.797 107.627 249.31C107.61 251.044 107.377 252.757 106.978 254.444C105.547 260.486 101.857 265.898 97.6544 270.372L97.5172 270.517C96.5259 271.565 95.3886 272.618 94.78 273.953C94.1582 275.315 93.9425 276.909 93.6357 278.374L93.5998 278.542L92.4003 284.085C92.0191 285.846 91.911 288.413 90.5179 289.683C89.2181 290.869 87.4963 290.25 86.8847 288.724C86.407 287.533 86.8828 286.225 87.1657 285.034L89.3821 275.714C89.7463 274.194 90.1443 272.664 90.9303 271.298C91.7354 269.9 92.9157 268.886 94.1202 267.849C96.4008 265.885 98.4945 263.636 100.265 261.201C102.035 258.767 103.548 256.084 104.609 253.263C105.14 251.851 105.575 250.384 105.875 248.905C106.161 247.501 106.158 246.047 106.463 244.659C106.484 244.563 106.565 244.497 106.658 244.468C106.636 244.406 106.669 244.322 106.756 244.317L113.499 243.883C119.493 243.497 125.487 243.1 131.476 242.647L132.534 242.57C132.452 234.064 132.521 225.557 132.675 217.048C132.816 209.245 132.819 201.44 133.051 193.638C133.166 189.766 133.415 185.903 133.691 182.039C133.975 178.087 134.428 174.169 134.835 170.229ZM71.5198 215.471C71.448 215.038 71.9928 214.77 72.244 215.166C75.1154 219.694 76.4998 224.611 77.0833 229.91C77.5988 234.586 77.4469 239.329 77.1902 244.018C76.9164 249.018 76.597 254.018 76.274 259.015L75.7777 266.68L74.5323 285.893C74.4431 287.268 74.1313 288.517 72.9484 289.156C72.7986 289.281 72.6425 289.394 72.4606 289.491C71.8215 289.833 70.9739 289.66 70.6044 289.004L70.7525 289.101C70.8816 289.183 70.7367 289.069 70.3177 288.761L69.9621 288.301C69.7038 287.913 69.5388 287.531 69.4724 287.069C69.3693 286.351 69.5028 285.564 69.5497 284.843L70.3661 272.244C71.0009 262.449 71.7423 252.658 72.3011 242.858C72.5614 238.291 72.7437 233.719 72.6203 229.144C72.4974 224.594 72.2656 219.967 71.5198 215.471ZM96.3594 131.131L96.5187 131.104C102.222 130.156 108.423 130.334 113.636 133.084C113.679 133.107 113.659 133.178 113.611 133.176L111.933 133.109C106.622 132.901 101.327 132.778 96.1052 134.026L95.5706 134.155C93.69 134.614 91.7261 135.176 90.2155 136.418C88.7717 137.606 88.0528 139.438 87.3615 141.125L87.2691 141.348C86.5677 143.014 85.6799 144.594 84.1426 145.635C82.1514 146.984 79.7567 146.819 77.4735 147.002C73.4535 147.326 70.1669 150.24 68.5316 153.807C67.5414 155.966 67.1191 158.387 67.0354 160.749C66.9926 161.951 66.9864 163.201 67.1466 164.395C67.1977 164.777 67.6697 166.168 67.9103 166.135C68.445 166.061 68.9339 166.34 69.1006 166.767C70.4214 165.491 71.7803 164.251 73.1829 163.056C76.6792 160.077 80.445 157.378 84.4109 155.058C87.4378 153.287 90.6305 151.533 93.9366 150.207C93.6746 150.201 93.4162 150.253 93.1663 150.383C93.0569 150.44 92.9481 150.303 93.0345 150.212C94.0758 149.116 95.3231 148.96 96.5806 149.252C96.8489 149.167 97.1174 149.084 97.387 149.006C97.5212 148.967 97.5879 149.152 97.4785 149.223L97.1696 149.421C98.5414 149.88 99.8882 150.784 100.954 151.497C104.017 153.545 106.713 156.048 109.446 158.505L109.943 158.95C112.349 161.099 114.816 163.187 117.549 164.911C118.98 165.813 120.482 166.648 122.059 167.268C123.411 167.801 125.612 168.137 126.245 169.566C126.808 170.25 126.573 171.123 125.913 171.583C124.802 172.807 122.578 172.016 121.253 171.507C119.656 170.892 118.109 170.153 116.634 169.287C113.769 167.605 111.128 165.513 108.667 163.288C106.098 160.964 103.674 158.495 101.175 156.098C100.092 155.059 99.0338 153.996 97.9493 152.959L97.4045 152.443C96.851 151.924 96.0624 151.115 95.2192 150.625C93.6307 151.573 92.0176 152.481 90.4435 153.454C88.2461 154.811 86.1133 156.266 84.0135 157.769C79.9712 160.663 76.1404 163.904 72.5842 167.378C66.0619 173.748 60.5052 181.023 55.6509 188.726L55.2822 189.313C52.5238 193.722 49.9151 198.273 48.0655 203.144C46.0304 208.505 45.0406 214.143 44.5029 219.833C43.9693 225.483 43.7893 231.161 43.1928 236.806C42.5812 242.595 41.3762 248.256 40.0055 253.907L39.6785 255.247C38.4383 260.307 37.1581 265.368 36.5206 270.548C36.1802 273.315 35.9755 276.12 36.0218 278.909C36.0683 281.715 36.509 284.458 36.8645 287.235C37.0008 288.298 35.9546 289.186 35.0185 289.327C33.9419 289.488 33.0169 288.801 32.6823 287.801C31.639 284.682 31.4495 281.234 31.4823 277.96C31.5152 274.637 31.9393 271.335 32.5359 268.069C33.7093 261.644 35.52 255.353 37.0348 249.005C38.3698 243.41 39.2658 237.806 39.7488 232.074C40.2501 226.127 40.5503 220.161 41.4649 214.257C42.3676 208.429 44.0662 202.862 46.6278 197.548C48.9602 192.709 51.8677 188.155 54.9159 183.74C58.6175 178.38 62.6829 173.279 67.2273 168.631C66.8191 168.614 66.4 168.482 66.015 168.242C64.8374 167.507 64.289 166.069 64.1204 164.757C63.7257 161.687 63.821 158.481 64.6103 155.479C65.8836 150.637 69.1883 146.334 73.9777 144.589C75.2104 144.139 76.5209 143.975 77.8274 143.943C79.0671 143.912 80.4212 144.074 81.6174 143.681C83.5214 143.055 84.3375 140.811 85.0524 139.111L85.0853 139.033C86.002 136.866 87.1023 135.008 89.0878 133.655C91.2061 132.212 93.8602 131.555 96.3594 131.131ZM150.549 139.701C152.263 139.106 154.405 139.646 156.081 140.165C157.949 140.744 159.674 141.811 161.153 143.077C162.714 144.413 164.004 146.063 164.915 147.905L165.002 148.083C165.834 149.792 166.782 152.138 166.363 154.016C166.351 154.069 166.337 154.121 166.321 154.17C169.722 155.845 172.862 157.942 175.596 160.601C178.781 163.696 181.477 167.218 183.759 171.023C192.821 186.136 194.416 204.287 195.486 221.522L195.753 225.892C196.334 235.329 197.014 244.743 198.781 254.049L198.91 254.721C200.798 264.465 203.501 274.283 203.228 284.279C203.145 287.274 198.721 287.253 198.593 284.279C198.11 273.083 195.498 262.273 193.73 251.252C190.618 231.863 192.177 211.873 187.768 192.678C186.038 185.145 183.357 177.838 179.53 171.114C177.639 167.792 175.476 164.583 172.942 161.717C170.762 159.251 168.496 156.878 165.948 154.805C165.134 155.621 163.508 155.205 163.082 154.016C162.79 153.199 162.876 152.243 162.688 151.387C162.514 150.592 162.275 149.805 161.955 149.057C161.318 147.565 160.384 146.134 159.305 144.927C158.139 143.622 156.8 142.539 155.301 141.644C153.791 140.743 152.141 140.474 150.549 139.815C150.495 139.793 150.49 139.721 150.549 139.701ZM157.207 243.325C157.21 243.246 157.303 243.209 157.36 243.262C157.961 243.815 158.324 244.608 158.766 245.289C159.276 246.073 159.811 246.842 160.373 247.59C161.498 249.09 162.751 250.504 164.013 251.889C165.188 253.177 166.439 254.41 167.737 255.573C169.144 256.833 170.72 257.958 171.998 259.353C174.665 262.264 175.096 266.261 175.658 270.013L175.72 270.419C176.063 272.645 176.37 274.878 176.648 277.114C176.782 278.202 176.917 279.29 177.027 280.381L177.06 280.726C177.158 281.793 177.185 282.876 176.572 283.809C175.916 284.807 174.424 285.157 173.538 284.2C172.014 282.556 172.3 279.637 172.102 277.522C171.938 275.773 171.752 274.027 171.544 272.283L171.439 271.412C171.193 269.428 170.994 267.405 170.541 265.455C170.141 263.739 169.379 262.443 168.129 261.2C166.869 259.947 165.56 258.778 164.398 257.429C163.164 255.998 162.052 254.463 161.05 252.862C160.193 251.493 159.506 250.002 158.876 248.514L158.772 248.266C158.163 246.814 157.16 244.924 157.207 243.325ZM179.203 180.967C179.216 180.764 179.515 180.761 179.52 180.967C179.558 182.708 179.594 184.45 179.63 186.192C179.921 200.226 179.742 214.293 181.149 228.279C181.813 234.873 183.035 241.371 184.45 247.841C185.174 251.152 185.933 254.455 186.654 257.766C187.357 260.993 188.111 264.236 188.669 267.493C189.217 270.694 189.708 273.92 189.928 277.162L189.956 277.585C190.05 279.156 190.503 281.466 189.639 282.858C188.702 284.366 186.908 284.393 185.905 282.954C184.962 281.602 185.197 279.198 185.03 277.585C184.861 275.943 184.682 274.298 184.479 272.659C184.082 269.462 183.56 266.272 183.016 263.097C181.885 256.484 180.243 249.955 179.031 243.353C177.79 236.588 176.907 229.774 176.87 222.886C176.833 215.94 177.568 209.007 177.939 202.076C178.316 195.036 178.744 188.002 179.203 180.967ZM112.932 137.316C113.309 136.047 114.638 135.254 115.935 135.61C117.124 135.937 118.105 137.38 117.64 138.615C117.133 139.962 116.247 141.11 115.5 142.335C114.81 143.466 113.803 144.357 113.101 145.468L113.875 146.304C114.263 146.72 114.651 147.134 115.044 147.542L116.395 148.941C117.447 150.029 118.506 151.112 119.595 152.162C122.796 155.251 126.048 158.238 129.633 160.883C130.449 161.485 131.271 162.084 132.117 162.644L132.432 162.853C133.012 163.233 133.659 163.607 134.36 163.542C136.063 163.386 137.601 161.577 138.771 160.451L138.833 160.392C141.732 157.632 144.417 154.615 146.765 151.37C147.286 150.649 147.791 149.916 148.282 149.174C147.147 147.848 147.418 145.259 147.356 143.651C147.311 142.52 147.308 141.389 147.302 140.257L147.299 140.029C147.285 139.296 147.252 138.594 147.727 137.991C147.755 137.956 147.812 137.957 147.847 137.975C148.498 138.317 148.699 138.888 148.977 139.529L149.006 139.595C149.344 140.364 149.667 141.141 149.995 141.914C150.338 142.724 150.652 143.546 150.971 144.365C151.119 144.747 151.26 145.129 151.399 145.514C151.483 145.76 151.57 146.005 151.66 146.249L151.681 146.268C151.799 146.368 151.9 146.474 151.986 146.584C152.349 146.765 152.638 147.096 152.773 147.583C153.068 148.642 152.458 149.506 151.914 150.346C149.704 153.762 147.185 157.016 144.385 159.969C142.994 161.435 141.531 162.836 140.008 164.165L139.741 164.396C138.373 165.572 136.887 166.686 135.06 166.961C132.921 167.283 131.181 166.219 129.544 164.994L129.38 164.871C127.828 163.695 126.308 162.479 124.834 161.206C121.83 158.612 118.973 155.826 116.436 152.77C113.969 149.797 111.53 146.473 110.01 142.896C109.917 142.678 110.161 142.45 110.352 142.632C111.095 143.339 111.809 144.085 112.516 144.84C112.535 143.728 112.33 142.607 112.444 141.488C112.583 140.128 112.543 138.626 112.932 137.316Z" fill="black"/>
<path fill-rule="evenodd" clip-rule="evenodd" d="M166.805 109.396C165.482 99.8335 162.459 90.5493 162.025 80.8437C161.766 76.6905 161.508 72.537 161.25 68.3833C161.152 65.7892 157.791 64.914 156.507 67.2122C153.588 63.9676 148.362 64.4455 144.376 64.5439C120.905 65.3777 98.6016 81.2861 90.5448 103.467C90.351 103.996 90.4097 104.559 90.6287 105.062C86.8733 117.617 100.154 125.7 109.212 131.298C112.886 135.191 117.205 138.425 122.082 140.64C127.692 143.285 133.937 144.761 140.136 144.902C141.496 144.933 142.314 143.83 142.412 142.689C144.39 142.227 147.773 142.76 148.819 140.729C160.745 135.536 168.515 122.375 166.805 109.396Z" fill="#D08B5B"/>
<path fill-rule="evenodd" clip-rule="evenodd" d="M161.225 75.4847C161.191 75.1746 161.637 75.1651 161.729 75.4162C162.485 77.4805 163.269 79.5306 163.867 81.647C164.445 83.6868 164.86 85.7728 165.281 87.8499C165.98 91.2971 166.58 94.7696 167.077 98.2532C168.138 97.4222 169.526 97.3465 170.834 97.9933C171.447 98.2966 171.682 99.0986 171.535 99.7209C171.417 100.22 171.272 100.717 171.099 101.203C171.47 101.532 171.784 101.937 172.013 102.403C172.615 103.629 172.421 104.915 171.881 106.085C171.922 106.154 171.963 106.225 172.001 106.299C172.783 107.82 172.365 109.183 171.793 110.668C171.366 111.778 171.605 113.029 170.682 113.868C170.362 114.9 169.88 115.861 169.18 116.728C169.021 117.02 168.783 117.255 168.5 117.428C168.429 119.057 168.258 120.682 167.935 122.292C166.681 128.543 162.704 134.113 157.779 138.042C152.961 141.886 147.302 144.183 141.196 144.926C138.231 145.287 135.261 145.173 132.32 144.658L131.954 144.593C129.241 144.099 125.957 143.282 124.08 141.23C123.094 140.151 123.671 137.776 125.415 138C126.339 138.119 127.144 138.267 128.014 138.609C128.693 138.876 129.373 139.133 130.069 139.351C131.404 139.767 132.784 140.092 134.17 140.272C137.057 140.646 140.057 140.547 142.91 139.982C148.1 138.956 153.141 136.589 157.079 133.025C161.656 128.881 164.34 123.519 164.735 117.335C165.174 110.447 164.381 103.394 163.723 96.5415C163.38 92.9771 162.945 89.4199 162.421 85.8776C161.91 82.4166 161.603 78.9603 161.225 75.4847ZM120.713 53.2433L120.935 53.2091C129.748 51.8647 139.02 51.9601 147.303 55.6059C148.89 56.3052 150.444 57.1485 151.907 58.1271C152.955 58.0174 154.009 57.9284 155.044 57.9138C156.347 57.8967 157.618 58.5751 157.779 59.8961C158.999 60.0482 160.123 60.4984 160.842 61.399C161.122 61.7496 161.31 62.1554 161.405 62.5781C162.155 62.7558 162.891 63.0283 163.589 63.3876C164.436 63.8251 164.925 65.0424 164.626 65.943C164.557 66.1474 164.478 66.3466 164.39 66.5414L164.322 66.6867L164.363 66.7417C165.039 67.8323 164.569 69.2631 163.532 69.9141C162.754 70.4023 161.885 70.7912 160.991 70.9793C161.065 71.3386 161.133 71.7 161.188 72.0656C161.209 72.2138 161.019 72.3194 160.935 72.1734C160.935 72.1734 161.255 73.1731 161.738 74.2744C161.928 74.7075 161.32 75.0921 161.089 74.6546C160.473 73.488 160.091 72.2918 159.533 71.0892C159.016 71.0554 158.502 70.937 158.006 70.7109C157.682 70.5629 157.435 70.3135 157.258 70.0155C157.247 70.0282 157.241 70.043 157.23 70.0578C155.567 72.203 152.316 72.9554 149.803 73.6338C147.105 74.3632 144.343 74.8132 141.571 75.145C136.73 75.722 131.852 75.8298 126.988 76.054C126.666 76.0686 126.345 76.0849 126.023 76.1005C124.047 77.8378 121.503 78.9174 118.893 79.2456C117.571 79.4117 116.006 79.3695 114.523 79.0309C113.987 79.5804 113.308 79.9874 112.568 80.1965C112.435 82.9649 110.895 85.5861 108.567 87.114L108.608 87.2785C109.187 89.6426 109.179 92.2267 107.106 93.8698C106.825 94.0921 106.518 94.2828 106.195 94.4408L106.266 94.6041C107.337 97.1138 107.679 99.8859 105.666 101.968C104.85 102.812 103.416 102.612 102.804 101.644L102.774 101.595C102.74 101.537 102.703 101.482 102.668 101.425C102.614 101.537 102.53 101.631 102.406 101.684C101.641 102.014 101.335 101.771 100.637 101.431C99.9923 101.114 99.3113 100.877 98.6158 100.693C98.0485 100.545 97.4835 100.439 96.9143 100.378C93.3177 101.756 90.9944 105.983 91.5468 109.95C91.8461 112.11 93.029 114.249 95.0907 115.145C95.993 115.538 97.0534 115.703 98.0295 115.57C99.3514 115.39 100.368 114.556 101.736 115.033C102.275 115.221 102.613 115.646 102.642 116.227C102.691 117.14 102.368 117.825 101.824 118.332C102.784 119.135 103.557 120.251 104.39 121.141C105.432 122.255 106.488 123.369 107.613 124.396C108.676 125.37 109.806 126.275 111.004 127.078L111.129 127.161C112.63 128.141 114.52 129.01 114.592 131.058C114.615 131.675 114.242 132.241 113.736 132.556C111.845 133.731 109.787 132.188 108.305 131.058C107.708 130.603 107.129 130.132 106.57 129.644C106.197 129.673 105.79 129.612 105.366 129.424C105.094 129.306 104.829 129.166 104.567 129.018C103.718 129.232 102.916 129.044 102.257 128.598C101.306 128.832 100.298 128.86 99.442 128.672C98.6601 128.498 97.9621 128.128 97.3865 127.632C96.1848 128.016 94.8503 127.945 93.6655 127.215C92.9551 126.778 92.4006 126.154 92.0991 125.425C91.9456 125.184 91.8474 124.903 91.84 124.594L91.8398 124.476C90.8068 124.5 89.7716 124.144 88.9726 123.325C88.239 122.572 87.8808 121.634 87.8405 120.68C86.8012 120.385 85.8504 119.778 85.1272 118.842C83.9298 117.29 83.7698 115.373 84.3854 113.661C84.3451 113.571 84.3092 113.478 84.2776 113.385C83.3226 112.034 82.6922 110.405 82.7428 108.771C82.7492 108.517 82.7829 108.268 82.8335 108.021C81.8932 107.52 81.2017 106.64 81.1279 105.522C81.071 104.645 81.3851 103.787 81.9523 103.138C81.6761 102.477 81.5538 101.758 81.6381 101.04C81.7246 100.302 81.9839 99.6616 82.3636 99.1271C82.3549 98.9327 82.3655 98.7359 82.3971 98.5351C82.3591 98.3386 82.3275 98.1357 82.3109 97.9288C82.1315 95.6629 83.6915 93.6804 85.591 92.6342C86.0907 92.3595 86.6304 92.1354 87.1701 91.9452C87.5622 91.8057 88.1525 91.7592 88.4983 91.5035C88.4835 91.4929 88.6269 91.3072 88.6522 91.2076C88.6796 91.085 88.7091 90.9646 88.7241 90.8399C88.7808 90.3157 88.7386 89.7768 88.7281 89.2505C88.6817 86.8622 88.7555 84.4634 89.0064 82.0878C89.4723 77.6833 90.6215 73.3739 92.8602 69.5252C94.7386 66.3 97.3106 63.5757 100.26 61.3163C106.135 56.8182 113.466 54.3725 120.713 53.2433ZM93.4882 108.018C92.7234 106.176 96.3237 106.158 97.2756 106.245L97.3036 106.248C99.4462 106.462 102.796 107.495 103.673 109.662C104.035 110.559 102.961 111.532 102.102 111.237C101.26 110.948 100.788 110.328 100.113 109.785C99.9361 109.643 99.7515 109.51 99.5634 109.382C99.6625 109.698 99.821 109.99 100.041 110.208L100.093 110.257C101.13 111.191 99.2754 112.658 98.5873 111.422C98.2209 110.764 98.0742 110.042 98.1884 109.295C98.2224 109.074 98.2814 108.873 98.3672 108.68C98.2989 108.646 98.2316 108.609 98.1625 108.576L98.0391 108.518C97.2138 108.143 93.6926 106.669 93.7211 107.987C93.7243 108.133 93.5356 108.133 93.4882 108.018Z" fill="black"/>
<path fill-rule="evenodd" clip-rule="evenodd" d="M143.152 128.274C141.732 127.694 140.465 126.727 139.538 125.492C139.216 125.063 139.133 124.61 139.2 124.195C139.276 123.729 139.552 123.306 139.928 123.023C140.305 122.738 140.777 122.598 141.233 122.67C141.63 122.732 142.024 122.949 142.337 123.399L142.402 123.489C142.953 124.235 143.67 124.846 144.488 125.24C145.276 125.62 146.158 125.798 147.07 125.695C148.808 125.498 150.005 124.558 151.278 123.282C151.436 123.121 151.594 122.954 151.752 122.786C151.852 122.632 151.991 122.534 152.146 122.482C152.317 122.425 152.511 122.428 152.689 122.49C152.86 122.55 153.013 122.663 153.116 122.814C153.213 122.958 153.269 123.135 153.251 123.338C153.134 124.661 152.443 125.842 151.461 126.769C150.37 127.798 148.924 128.511 147.563 128.76C146.064 129.036 144.536 128.839 143.152 128.274ZM148.271 107.866C149.866 108.836 152.297 111.098 150.581 113.503C148.56 115.624 145.652 113.192 144.218 112.093C142.889 111.241 141.396 113.432 142.629 114.428C152.986 122.099 157.19 108.12 149.077 106.725C148.184 106.572 147.853 107.566 148.271 107.866ZM129.711 98.9426C129.887 96.7538 133.219 96.2568 133.551 98.4227C133.847 100.363 133.498 102.145 132.624 103.892C131.79 105.561 129.692 104.782 129.533 103.263C129.32 101.226 129.601 100.304 129.711 98.9426ZM155.076 97.9736C155.541 97.3649 156.211 96.9494 157.015 97.1842C159.526 97.9182 158.786 101.484 157.904 103.22C157.425 104.163 155.876 104.402 155.176 103.572C154.035 102.218 153.489 99.5154 154.939 98.1822C154.979 98.1133 155.022 98.0438 155.076 97.9736ZM132.589 89.3651L132.986 89.2957C134.213 89.0834 135.738 88.8794 136.606 89.8662C137.067 90.3895 137.225 91.3622 136.606 91.8631C135.518 92.7444 134.314 92.4028 133.01 92.4775C131.935 92.5392 130.902 92.7171 129.867 93.0132C127.595 93.6627 125.744 94.8484 123.804 96.1503C123.549 96.3211 123.29 95.9954 123.411 95.7572C124.531 93.5627 126.701 91.7601 128.875 90.6613C130.036 90.0748 131.305 89.5883 132.589 89.3651ZM152.787 88.3821L153.091 88.4442C156.394 89.1351 160.687 90.515 162.251 93.7613C162.311 94.2203 162.248 94.3187 162.196 94.3829L162.179 94.4043C162.137 94.4592 162.104 94.5349 161.905 94.5974C161.849 94.5842 161.794 94.5703 161.737 94.5555C161.02 94.3675 160.453 94.1085 159.904 93.8398L159.308 93.5462C158.617 93.2073 157.92 92.8807 157.181 92.6396C155.605 92.1252 153.983 91.7628 152.337 91.5693C151.98 91.5274 151.636 91.4069 151.365 91.2004C151.107 91.0044 150.911 90.733 150.821 90.3722C150.705 89.9053 150.738 89.5518 150.989 89.1306C151.177 88.8143 151.447 88.5951 151.756 88.4692C152.071 88.3408 152.43 88.3106 152.787 88.3821Z" fill="black"/>
<path fill-rule="evenodd" clip-rule="evenodd" d="M148.851 138.659C148.851 138.659 139.472 140.038 135.275 138.09C131.089 136.147 127.018 134.268 123.222 131.695C119.332 129.06 116.032 125.93 113.677 121.923C111.486 118.195 109.665 114.239 107.831 110.314C107.724 110.085 106.671 107.804 106.299 107.04C105.727 105.854 104.053 106.226 104.053 108.067C104.053 109.907 103.971 123.846 107.187 129.329C110.087 134.282 115.003 137.742 119.888 140.762C125.292 144.102 132.471 147.712 138.919 148.665C144.754 149.528 151.413 147.106 155.639 143.113C160.056 138.938 161.307 133.265 163.587 127.833C164.096 126.619 162.291 125.887 161.761 127.081C160.764 129.329 148.851 138.659 148.851 138.659Z" fill="black"/>
<path fill-rule="evenodd" clip-rule="evenodd" d="M166.075 104.71C165.478 106.336 164.568 108.029 163.457 109.398C158.958 113.209 154.587 111.099 152.367 105.934C151.524 102.284 153.763 98.3519 156.136 95.6667C159.562 92.2308 165.155 94.0341 166.73 98.1186C166.826 98.6478 166.884 99.1758 166.912 99.702C166.879 101.412 166.673 102.874 166.075 104.498M122.833 101.429C128.759 94.3771 139.847 94 139.564 104.854C138.291 118.593 116.853 115.22 122.833 101.429ZM167.939 95.5463C167.732 95.1944 167.501 94.8539 167.249 94.5282C167.157 94.4728 167.103 93.9816 166.761 93.9453C162.192 88.9027 154.165 91.7637 151.265 96.7884C150.736 97.4237 150.303 98.1674 149.985 98.9532C147.127 98.4289 143.796 98.5307 141.138 99.6105C138.503 92.7264 130.524 92.1118 125.266 95.0532C121.996 96.6622 119.876 100.032 116.695 101.883C109.219 102.421 101.195 100.745 93.853 102.621C88.063 103.826 92.9031 106.759 93.8741 104.801C100.796 102.755 108.996 104.484 116.183 104.023C116.93 105.288 118.363 106.323 119.791 106.278C121.334 119.957 141.274 117.689 141.962 105.529C142.742 104.295 143.713 103.114 145.101 102.345C145.633 102.235 146.147 102.092 146.616 101.871C147.419 101.757 148.655 102.098 149.393 102.766C151.922 117.944 166.49 116.177 169.093 102.88C169.145 102.827 169.29 102.629 169.401 102.311C170.292 101.132 172.473 100.694 172.125 98.7038C171.815 96.7136 169.302 96.7372 167.939 95.5463Z" fill="black"/>
</svg>
