<svg width="240" height="324" viewBox="0 0 240 324" fill="none" xmlns="http://www.w3.org/2000/svg">
<path fill-rule="evenodd" clip-rule="evenodd" d="M198.116 286.283C202.199 286.086 200.556 278.941 200.263 276.317C197.031 266.734 197.791 256.278 196.519 246.233C195.727 236.855 194.71 227.507 193.854 218.137C192.172 199.117 180.099 160.397 166.321 154.17C164.585 146.552 157.417 139.44 148.347 139.44C142.161 132.115 134.716 126.959 125.166 128C121.219 128.18 117.392 132.367 113.611 133.176C111.493 133.468 92.703 132.716 88.9391 134.952C86.3173 136.299 83.9504 138.788 84.7213 141.956C85.9513 145.795 82.1289 141.641 74.155 145.738C57.8952 155.508 67.6114 168.577 68.0419 168.982C57.8952 183.105 49.0264 194.563 44.923 211.825C42.2635 224.641 42.5629 237.871 40.3346 250.753C39.5479 255.22 38.3409 259.534 37.0349 263.871C35.6194 269.548 34.9311 283.697 34.1509 283.823C32.7297 284.176 34.9723 287.095 36.4782 287.098C78.2297 294.026 120.639 287.385 162.615 286.3C174.445 285.888 186.287 285.793 198.116 286.283Z" fill="#D08B5B"/>
<path fill-rule="evenodd" clip-rule="evenodd" d="M113.663 145.612C113.663 150.057 129.092 166.575 134.417 165.485C137.966 164.759 143.33 160.021 150.507 151.272V145.612L148.957 139.451C157.737 139.76 164.625 146.723 166.321 154.17C179.961 160.335 191.931 198.346 193.8 217.561L193.854 218.138C194.71 227.508 195.727 236.856 196.519 246.233C197.791 256.278 197.031 266.734 200.263 276.317L200.283 276.48C200.62 279.224 202.117 286.09 198.116 286.283C186.287 285.793 174.445 285.888 162.615 286.3C120.639 287.385 78.2297 294.026 36.4782 287.098C34.9723 287.095 32.7297 284.176 34.1509 283.823C34.9311 283.697 35.6194 269.548 37.0349 263.871L37.3036 262.974C38.5054 258.938 39.6021 254.912 40.3346 250.753C42.5629 237.872 42.2635 224.641 44.923 211.825C49.0264 194.563 57.8952 183.105 68.0419 168.982C67.6114 168.577 57.8952 155.508 74.155 145.738C82.1289 141.641 85.9513 145.795 84.7213 141.956C83.9504 138.788 86.3173 136.299 88.9391 134.953C92.703 132.716 111.493 133.468 113.611 133.176C114.594 132.966 115.581 132.527 116.572 131.989L116.4 132.562C114.575 138.68 113.663 143.03 113.663 145.612Z" fill="#9FD8E5"/>
<path fill-rule="evenodd" clip-rule="evenodd" d="M134.835 170.228C134.854 170.037 135.112 170.037 135.132 170.228L135.427 173.075C135.785 176.552 136.131 180.022 136.381 183.514C136.693 187.87 136.902 192.225 137.002 196.59C137.353 211.794 137.423 227.006 137.452 242.214C139.508 242.071 141.564 241.934 143.621 241.801C145.017 241.711 146.413 241.625 147.808 241.54L151.368 241.324L152.833 241.234C153.823 241.173 154.948 240.923 155.641 241.801C155.918 242.152 156.057 242.608 155.798 243.025C155.202 243.987 154.287 243.954 153.252 243.995C152.275 244.035 151.298 244.073 150.321 244.111C148.227 244.192 146.134 244.269 144.04 244.328C141.843 244.39 139.646 244.44 137.449 244.477C137.427 250.897 137.161 257.309 136.874 263.722L136.744 266.608C136.393 274.413 136.015 282.224 135.478 290.018C135.434 290.656 134.532 290.654 134.488 290.018C133.883 281.24 133.485 272.445 133.089 263.656C132.802 257.283 132.635 250.909 132.556 244.534C132.265 244.536 131.975 244.54 131.685 244.541C123.44 244.577 115.197 244.613 106.951 244.536C106.965 244.552 106.979 244.568 106.988 244.59C107.584 245.999 107.641 247.797 107.627 249.309C107.61 251.043 107.377 252.757 106.977 254.443C105.547 260.485 101.857 265.897 97.6541 270.371L97.5169 270.517C96.5256 271.565 95.3884 272.617 94.7797 273.952C94.158 275.315 93.9422 276.909 93.6354 278.373L93.5996 278.542L92.4 284.084C92.0189 285.845 91.9107 288.413 90.5176 289.683C89.2179 290.868 87.4961 290.249 86.8844 288.723C86.4068 287.532 86.8825 286.224 87.1654 285.034L89.3819 275.713C89.746 274.193 90.144 272.663 90.93 271.298C91.7351 269.899 92.9155 268.886 94.1199 267.848C96.4006 265.884 98.4942 263.635 100.265 261.2C102.035 258.767 103.548 256.084 104.608 253.263C105.139 251.85 105.575 250.383 105.875 248.904C106.16 247.501 106.158 246.047 106.463 244.658C106.484 244.562 106.565 244.497 106.658 244.467C106.636 244.406 106.669 244.322 106.756 244.316L113.499 243.883C119.493 243.496 125.487 243.099 131.475 242.646L132.534 242.57C132.451 234.064 132.521 225.556 132.675 217.047C132.816 209.244 132.818 201.44 133.05 193.638C133.166 189.766 133.414 185.903 133.691 182.038C133.974 178.087 134.427 174.168 134.835 170.228ZM71.52 215.471C71.4481 215.038 71.993 214.769 72.2442 215.165C75.1155 219.693 76.5 224.611 77.0835 229.909C77.599 234.585 77.4471 239.329 77.1904 244.017C76.9166 249.018 76.5971 254.017 76.2741 259.015L75.7778 266.679L74.5324 285.893C74.4433 287.267 74.1314 288.517 72.9486 289.156C72.7988 289.281 72.6426 289.393 72.4607 289.49C71.8217 289.832 70.974 289.659 70.6045 289.003L70.7527 289.101C70.8817 289.182 70.7368 289.069 70.3178 288.761L69.9623 288.301C69.7039 287.912 69.5389 287.53 69.4726 287.068C69.3695 286.351 69.503 285.564 69.5499 284.843L70.3662 272.244C71.0011 262.449 71.7424 252.657 72.3012 242.857C72.5615 238.29 72.7438 233.718 72.6205 229.143C72.4975 224.593 72.2657 219.966 71.52 215.471ZM96.3593 131.13L96.5186 131.104C102.222 130.156 108.423 130.333 113.635 133.084C113.679 133.106 113.659 133.178 113.611 133.176L111.933 133.109C106.622 132.901 101.327 132.778 96.1051 134.026L95.5705 134.155C93.6899 134.614 91.726 135.175 90.2154 136.418C88.7716 137.606 88.0527 139.438 87.3614 141.125L87.2689 141.347C86.5676 143.013 85.6798 144.593 84.1425 145.635C82.1513 146.984 79.7566 146.819 77.4734 147.002C73.4534 147.325 70.1667 150.24 68.5315 153.806C67.5413 155.966 67.119 158.387 67.0353 160.749C66.9925 161.951 66.9863 163.2 67.1465 164.395C67.1976 164.776 67.6696 166.168 67.9102 166.134C68.4449 166.06 68.9338 166.339 69.1005 166.767C70.4213 165.49 71.7802 164.25 73.1828 163.055C76.6791 160.077 80.4449 157.377 84.4108 155.057C87.4377 153.287 90.6303 151.532 93.9365 150.206C93.6745 150.201 93.4161 150.253 93.1662 150.383C93.0568 150.44 92.948 150.303 93.0344 150.212C94.0757 149.116 95.323 148.96 96.5805 149.252C96.8488 149.167 97.1173 149.084 97.3869 149.005C97.521 148.966 97.5878 149.151 97.4784 149.223L97.1695 149.42C98.5413 149.88 99.8881 150.783 100.954 151.496C104.017 153.544 106.713 156.048 109.446 158.504L109.943 158.95C112.349 161.098 114.816 163.186 117.549 164.91C118.98 165.812 120.482 166.647 122.059 167.268C123.41 167.801 125.612 168.136 126.245 169.565C126.808 170.249 126.572 171.122 125.913 171.583C124.802 172.806 122.578 172.016 121.253 171.506C119.656 170.891 118.109 170.153 116.634 169.286C113.769 167.604 111.128 165.512 108.667 163.287C106.098 160.963 103.674 158.494 101.175 156.098C100.092 155.059 99.0337 153.996 97.9492 152.959L97.4044 152.443C96.8509 151.924 96.0622 151.114 95.2191 150.624C93.6306 151.572 92.0175 152.481 90.4434 153.453C88.246 154.811 86.1132 156.266 84.0134 157.769C79.971 160.662 76.1403 163.903 72.5841 167.377C66.0618 173.748 60.5051 181.022 55.6508 188.725L55.2821 189.312C52.5236 193.721 49.915 198.272 48.0654 203.144C46.0303 208.505 45.0405 214.142 44.5028 219.833C43.9691 225.483 43.7891 231.161 43.1927 236.805C42.5811 242.595 41.376 248.256 40.0053 253.906L39.6784 255.246C38.4382 260.307 37.158 265.367 36.5205 270.548C36.1801 273.315 35.9754 276.119 36.0217 278.909C36.0681 281.714 36.5089 284.458 36.8644 287.234C37.0007 288.298 35.9545 289.185 35.0184 289.326C33.9417 289.488 33.0168 288.801 32.6822 287.8C31.6389 284.681 31.4494 281.234 31.4822 277.96C31.5151 274.637 31.9391 271.335 32.5358 268.069C33.7091 261.644 35.5199 255.352 37.0347 249.005C38.3697 243.41 39.2657 237.805 39.7486 232.074C40.25 226.127 40.5502 220.161 41.4648 214.257C42.3675 208.429 44.0661 202.862 46.6277 197.547C48.9601 192.709 51.8676 188.154 54.9158 183.74C58.6174 178.379 62.6828 173.278 67.2272 168.631C66.819 168.613 66.3998 168.481 66.0149 168.241C64.8373 167.506 64.2889 166.069 64.1203 164.756C63.7256 161.686 63.8209 158.481 64.6102 155.479C65.8835 150.636 69.1882 146.334 73.9776 144.588C75.2103 144.139 76.5208 143.975 77.8273 143.943C79.067 143.912 80.421 144.073 81.6172 143.68C83.5213 143.054 84.3374 140.811 85.0523 139.11L85.0852 139.032C86.0019 136.865 87.1022 135.008 89.0877 133.655C91.206 132.211 93.8601 131.554 96.3593 131.13ZM150.549 139.7C152.262 139.106 154.405 139.645 156.081 140.165C157.948 140.744 159.674 141.81 161.153 143.077C162.714 144.413 164.003 146.062 164.915 147.905L165.002 148.082C165.834 149.791 166.782 152.138 166.362 154.015C166.35 154.069 166.336 154.12 166.321 154.17C169.721 155.844 172.861 157.942 175.596 160.6C178.78 163.695 181.476 167.217 183.758 171.023C192.82 186.136 194.415 204.286 195.485 221.522L195.752 225.892C196.333 235.329 197.014 244.743 198.78 254.049L198.909 254.721C200.798 264.465 203.501 274.283 203.227 284.278C203.145 287.273 198.721 287.253 198.592 284.278C198.109 273.083 195.498 262.273 193.729 251.252C190.617 231.863 192.176 211.873 187.767 192.678C186.037 185.145 183.357 177.838 179.529 171.114C177.639 167.792 175.475 164.582 172.941 161.716C170.761 159.251 168.496 156.878 165.948 154.805C165.134 155.62 163.507 155.205 163.082 154.015C162.79 153.198 162.875 152.243 162.688 151.386C162.514 150.592 162.274 149.804 161.955 149.056C161.318 147.565 160.383 146.133 159.304 144.926C158.139 143.622 156.799 142.538 155.3 141.643C153.791 140.742 152.14 140.473 150.549 139.815C150.495 139.793 150.49 139.721 150.549 139.7ZM157.207 243.324C157.21 243.246 157.302 243.208 157.359 243.261C157.96 243.814 158.323 244.608 158.766 245.288C159.276 246.073 159.811 246.841 160.373 247.59C161.498 249.09 162.751 250.503 164.013 251.888C165.187 253.176 166.439 254.41 167.737 255.573C169.144 256.833 170.72 257.957 171.998 259.352C174.665 262.264 175.095 266.26 175.658 270.012L175.72 270.418C176.063 272.645 176.37 274.878 176.647 277.114C176.782 278.201 176.916 279.29 177.026 280.38L177.06 280.726C177.158 281.793 177.184 282.876 176.571 283.809C175.915 284.806 174.424 285.156 173.537 284.199C172.014 282.556 172.3 279.636 172.101 277.522C171.938 275.773 171.752 274.027 171.544 272.283L171.438 271.411C171.193 269.428 170.994 267.404 170.541 265.455C170.141 263.738 169.379 262.443 168.128 261.199C166.869 259.947 165.56 258.777 164.397 257.428C163.164 255.997 162.052 254.463 161.05 252.862C160.192 251.492 159.505 250.002 158.876 248.513L158.771 248.265C158.163 246.813 157.16 244.924 157.207 243.324ZM179.203 180.966C179.216 180.764 179.515 180.761 179.52 180.966C179.558 182.708 179.594 184.45 179.63 186.191C179.921 200.225 179.742 214.293 181.149 228.278C181.813 234.873 183.035 241.37 184.45 247.84C185.174 251.151 185.933 254.454 186.654 257.765C187.357 260.993 188.111 264.235 188.669 267.492C189.217 270.694 189.708 273.919 189.928 277.162L189.956 277.585C190.05 279.155 190.503 281.465 189.639 282.858C188.702 284.366 186.908 284.393 185.905 282.953C184.962 281.602 185.197 279.197 185.03 277.585C184.861 275.942 184.682 274.298 184.479 272.659C184.082 269.462 183.56 266.272 183.016 263.097C181.885 256.484 180.243 249.954 179.031 243.352C177.789 236.587 176.907 229.774 176.87 222.886C176.833 215.939 177.568 209.006 177.939 202.075C178.316 195.035 178.744 188.001 179.203 180.966ZM112.933 137.315C113.309 136.047 114.639 135.253 115.935 135.61C117.124 135.937 118.105 137.379 117.64 138.614C117.133 139.961 116.247 141.11 115.5 142.334C114.81 143.465 113.804 144.356 113.101 145.468L113.875 146.303C114.263 146.72 114.652 147.134 115.044 147.541L116.395 148.941C117.448 150.029 118.506 151.111 119.595 152.161C122.796 155.25 126.048 158.238 129.633 160.883C130.449 161.485 131.272 162.083 132.117 162.644L132.432 162.853C133.012 163.233 133.66 163.606 134.36 163.542C136.063 163.385 137.601 161.576 138.772 160.451L138.833 160.392C141.732 157.632 144.417 154.614 146.765 151.37C147.286 150.649 147.791 149.915 148.282 149.174C147.147 147.847 147.418 145.259 147.356 143.65C147.312 142.519 147.308 141.388 147.302 140.256L147.299 140.028C147.285 139.296 147.252 138.593 147.727 137.99C147.755 137.955 147.812 137.956 147.848 137.975C148.498 138.316 148.699 138.887 148.977 139.528L149.006 139.595C149.344 140.364 149.667 141.14 149.995 141.914C150.338 142.723 150.652 143.545 150.971 144.365C151.119 144.746 151.261 145.129 151.399 145.514C151.483 145.759 151.571 146.004 151.66 146.248L151.681 146.267C151.8 146.367 151.9 146.473 151.986 146.583C152.349 146.765 152.638 147.096 152.773 147.582C153.068 148.641 152.458 149.505 151.914 150.346C149.704 153.761 147.185 157.016 144.385 159.968C142.994 161.435 141.531 162.836 140.008 164.164L139.742 164.395C138.373 165.571 136.888 166.686 135.06 166.961C132.922 167.283 131.181 166.219 129.544 164.993L129.381 164.87C127.829 163.695 126.308 162.478 124.835 161.206C121.831 158.611 118.973 155.825 116.437 152.769C113.969 149.796 111.531 146.472 110.01 142.895C109.917 142.677 110.161 142.449 110.352 142.631C111.095 143.338 111.81 144.084 112.516 144.84C112.535 143.728 112.33 142.606 112.444 141.487C112.584 140.127 112.544 138.625 112.933 137.315Z" fill="black"/>
<path fill-rule="evenodd" clip-rule="evenodd" d="M166.805 109.396C165.482 99.8335 162.459 90.5493 162.025 80.8437C161.766 76.6905 161.508 72.537 161.25 68.3833C161.152 65.7892 157.791 64.914 156.507 67.2122C153.588 63.9676 148.362 64.4455 144.376 64.5439C120.905 65.3777 98.6016 81.2861 90.5448 103.467C90.351 103.996 90.4097 104.559 90.6287 105.062C86.8733 117.617 100.154 125.7 109.212 131.298C112.886 135.191 117.205 138.425 122.082 140.64C127.692 143.285 133.937 144.761 140.136 144.902C141.496 144.933 142.314 143.83 142.412 142.689C144.39 142.227 147.773 142.76 148.819 140.729C160.745 135.536 168.515 122.375 166.805 109.396Z" fill="#D08B5B"/>
<path fill-rule="evenodd" clip-rule="evenodd" d="M161.224 75.4846C161.19 75.1746 161.637 75.1651 161.729 75.4162C162.485 77.4804 163.268 79.5305 163.867 81.647C164.444 83.6867 164.86 85.7728 165.281 87.8499C165.979 91.297 166.58 94.7695 167.076 98.2532C168.138 97.4222 169.526 97.3465 170.833 97.9932C171.447 98.2965 171.682 99.0986 171.535 99.7208C171.417 100.22 171.272 100.717 171.099 101.203C171.469 101.532 171.784 101.937 172.013 102.403C172.614 103.628 172.42 104.915 171.881 106.085C171.922 106.154 171.962 106.224 172.001 106.299C172.782 107.82 172.364 109.183 171.793 110.667C171.366 111.778 171.604 113.029 170.682 113.868C170.361 114.9 169.88 115.861 169.18 116.728C169.021 117.02 168.783 117.255 168.5 117.428C168.429 119.057 168.257 120.681 167.934 122.292C166.681 128.543 162.703 134.113 157.779 138.042C152.961 141.886 147.301 144.183 141.195 144.926C138.23 145.287 135.261 145.173 132.32 144.658L131.954 144.593C129.24 144.099 125.956 143.282 124.08 141.23C123.093 140.151 123.67 137.776 125.415 138C126.339 138.119 127.144 138.267 128.014 138.609C128.692 138.876 129.372 139.133 130.069 139.351C131.404 139.767 132.784 140.092 134.169 140.272C137.056 140.646 140.056 140.547 142.91 139.982C148.099 138.956 153.141 136.589 157.079 133.025C161.656 128.881 164.339 123.519 164.734 117.335C165.174 110.447 164.381 103.394 163.722 96.5415C163.38 92.9771 162.945 89.4198 162.421 85.8776C161.909 82.4165 161.603 78.9603 161.224 75.4846ZM120.713 53.2433L120.935 53.2091C129.748 51.8647 139.02 51.9601 147.303 55.6059C148.89 56.3052 150.444 57.1485 151.907 58.1271C152.955 58.0174 154.009 57.9284 155.044 57.9138C156.347 57.8967 157.618 58.5751 157.779 59.8961C158.999 60.0482 160.123 60.4984 160.842 61.399C161.122 61.7496 161.31 62.1554 161.405 62.5781C162.155 62.7558 162.891 63.0283 163.589 63.3876C164.436 63.8251 164.925 65.0424 164.626 65.943C164.557 66.1474 164.478 66.3466 164.39 66.5414L164.322 66.6867L164.363 66.7417C165.039 67.8323 164.569 69.2631 163.532 69.9141C162.754 70.4023 161.885 70.7912 160.991 70.9793C161.065 71.3386 161.133 71.7 161.188 72.0656C161.209 72.2138 161.019 72.3194 160.935 72.1734C160.935 72.1734 161.255 73.1731 161.738 74.2744C161.928 74.7075 161.32 75.0921 161.089 74.6546C160.473 73.488 160.091 72.2917 159.533 71.0892C159.016 71.0553 158.502 70.937 158.006 70.7108C157.682 70.5629 157.435 70.3135 157.258 70.0155C157.247 70.0282 157.241 70.043 157.23 70.0578C155.567 72.203 152.316 72.9554 149.803 73.6338C147.105 74.3632 144.343 74.8132 141.571 75.145C136.73 75.722 131.852 75.8297 126.988 76.054C126.666 76.0686 126.345 76.0848 126.023 76.1005C124.047 77.8378 121.503 78.9174 118.893 79.2456C117.571 79.4117 116.006 79.3694 114.523 79.0309C113.987 79.5804 113.308 79.9874 112.568 80.1965C112.435 82.9649 110.895 85.5861 108.567 87.1139L108.608 87.2785C109.187 89.6426 109.179 92.2267 107.106 93.8698C106.825 94.0921 106.518 94.2827 106.195 94.4408L106.266 94.6041C107.337 97.1137 107.679 99.8859 105.666 101.968C104.85 102.812 103.416 102.612 102.804 101.644L102.774 101.595C102.74 101.537 102.703 101.482 102.668 101.425C102.614 101.537 102.53 101.631 102.406 101.684C101.641 102.014 101.335 101.771 100.637 101.431C99.9923 101.114 99.3113 100.877 98.6158 100.693C98.0485 100.545 97.4835 100.439 96.9143 100.378C93.3177 101.756 90.9944 105.983 91.5468 109.95C91.8461 112.11 93.029 114.249 95.0907 115.145C95.993 115.538 97.0534 115.703 98.0295 115.57C99.3514 115.39 100.368 114.556 101.736 115.033C102.275 115.221 102.613 115.646 102.642 116.227C102.691 117.14 102.368 117.825 101.824 118.332C102.784 119.135 103.557 120.251 104.39 121.141C105.432 122.255 106.488 123.369 107.613 124.396C108.676 125.37 109.806 126.275 111.004 127.078L111.129 127.161C112.63 128.141 114.52 129.01 114.592 131.058C114.615 131.675 114.242 132.241 113.736 132.556C111.845 133.731 109.787 132.188 108.305 131.058C107.708 130.603 107.129 130.132 106.57 129.644C106.197 129.673 105.79 129.612 105.366 129.424C105.094 129.306 104.829 129.166 104.567 129.018C103.718 129.232 102.916 129.044 102.257 128.598C101.306 128.832 100.298 128.86 99.442 128.672C98.6601 128.498 97.9621 128.128 97.3865 127.632C96.1848 128.016 94.8503 127.944 93.6655 127.215C92.955 126.778 92.4006 126.154 92.0991 125.425C91.9456 125.184 91.8474 124.903 91.84 124.594L91.8398 124.476C90.8068 124.499 89.7716 124.144 88.9726 123.325C88.239 122.572 87.8808 121.634 87.8405 120.68C86.8012 120.385 85.8504 119.778 85.1272 118.842C83.9298 117.29 83.7698 115.373 84.3853 113.661C84.3451 113.571 84.3092 113.478 84.2776 113.385C83.3226 112.034 82.6922 110.405 82.7428 108.771C82.7492 108.517 82.7829 108.268 82.8335 108.021C81.8932 107.52 81.2017 106.64 81.1279 105.522C81.071 104.645 81.3851 103.787 81.9523 103.138C81.6761 102.477 81.5538 101.758 81.6381 101.04C81.7246 100.302 81.9839 99.6616 82.3636 99.1271C82.3549 98.9327 82.3655 98.7359 82.3971 98.5351C82.3591 98.3385 82.3275 98.1357 82.3109 97.9287C82.1315 95.6629 83.6915 93.6804 85.591 92.6342C86.0907 92.3595 86.6304 92.1354 87.1701 91.9452C87.5622 91.8057 88.1525 91.7592 88.4983 91.5035C88.4835 91.4929 88.6269 91.3071 88.6522 91.2076C88.6796 91.085 88.7091 90.9645 88.7241 90.8398C88.7808 90.3157 88.7386 89.7768 88.7281 89.2505C88.6817 86.8622 88.7555 84.4634 89.0064 82.0878C89.4723 77.6833 90.6215 73.3739 92.8602 69.5252C94.7386 66.3 97.3106 63.5757 100.26 61.3163C106.135 56.8182 113.466 54.3725 120.713 53.2433ZM93.4882 108.019C92.7235 106.176 96.3237 106.158 97.2756 106.245L97.3037 106.248C99.4463 106.462 102.796 107.495 103.673 109.662C104.035 110.559 102.961 111.532 102.102 111.237C101.26 110.948 100.789 110.328 100.113 109.785C99.9362 109.643 99.7515 109.51 99.5635 109.382C99.6625 109.698 99.821 109.99 100.041 110.208L100.093 110.257C101.13 111.191 99.2755 112.658 98.5874 111.422C98.221 110.764 98.0742 110.042 98.1885 109.295C98.2224 109.074 98.2815 108.873 98.3673 108.68C98.299 108.646 98.2317 108.609 98.1626 108.576L98.0391 108.518C97.2139 108.143 93.6926 106.669 93.7212 107.987C93.7243 108.133 93.5356 108.133 93.4882 108.019Z" fill="black"/>
<path fill-rule="evenodd" clip-rule="evenodd" d="M143.152 128.274C141.732 127.694 140.465 126.727 139.538 125.492C139.216 125.063 139.133 124.61 139.2 124.195C139.276 123.729 139.552 123.306 139.928 123.023C140.305 122.738 140.777 122.598 141.233 122.67C141.63 122.732 142.024 122.949 142.337 123.399L142.402 123.489C142.953 124.235 143.67 124.846 144.488 125.24C145.276 125.62 146.158 125.798 147.07 125.695C148.807 125.498 150.005 124.558 151.278 123.282C151.436 123.121 151.593 122.954 151.752 122.786C151.852 122.632 151.991 122.534 152.146 122.482C152.317 122.425 152.511 122.428 152.689 122.49C152.86 122.55 153.013 122.663 153.116 122.814C153.213 122.958 153.268 123.135 153.251 123.338C153.134 124.661 152.443 125.842 151.461 126.769C150.37 127.798 148.924 128.511 147.563 128.76C146.064 129.036 144.536 128.839 143.152 128.274ZM148.271 107.866C149.866 108.836 152.297 111.098 150.58 113.503C148.56 115.624 145.652 113.192 144.218 112.093C142.889 111.241 141.396 113.432 142.629 114.427C152.986 122.098 157.189 108.12 149.077 106.725C148.184 106.572 147.853 107.566 148.271 107.866ZM129.711 98.9426C129.887 96.7538 133.219 96.2568 133.551 98.4227C133.847 100.363 133.498 102.145 132.624 103.892C131.79 105.561 129.692 104.782 129.533 103.263C129.32 101.226 129.601 100.304 129.711 98.9426ZM155.076 97.9736C155.541 97.3649 156.212 96.9494 157.015 97.1842C159.526 97.9182 158.786 101.484 157.904 103.22C157.425 104.163 155.876 104.402 155.176 103.572C154.035 102.218 153.489 99.5154 154.939 98.1822C154.979 98.1133 155.023 98.0438 155.076 97.9736ZM132.589 89.3651L132.986 89.2957C134.213 89.0834 135.738 88.8794 136.606 89.8662C137.067 90.3895 137.225 91.3622 136.606 91.8631C135.518 92.7444 134.314 92.4029 133.01 92.4775C131.935 92.5392 130.902 92.7171 129.867 93.0132C127.595 93.6627 125.744 94.8484 123.804 96.1503C123.55 96.3211 123.29 95.9954 123.411 95.7572C124.531 93.5627 126.701 91.7601 128.875 90.6613C130.036 90.0748 131.305 89.5883 132.589 89.3651ZM152.787 88.3821L153.091 88.4442C156.394 89.1351 160.687 90.515 162.251 93.7613C162.311 94.2203 162.248 94.3187 162.196 94.3829L162.179 94.4043C162.137 94.4592 162.103 94.5349 161.905 94.5974C161.849 94.5842 161.794 94.5703 161.737 94.5555C161.02 94.3675 160.453 94.1085 159.904 93.8398L159.308 93.5462C158.617 93.2073 157.92 92.8807 157.181 92.6396C155.605 92.1252 153.983 91.7628 152.336 91.5693C151.98 91.5274 151.636 91.4069 151.365 91.2004C151.107 91.0044 150.911 90.733 150.821 90.3722C150.705 89.9053 150.738 89.5518 150.989 89.1306C151.177 88.8143 151.446 88.5951 151.756 88.4692C152.071 88.3408 152.43 88.3106 152.787 88.3821Z" fill="black"/>
<path fill-rule="evenodd" clip-rule="evenodd" d="M148.85 138.659C148.85 138.659 139.472 140.038 135.274 138.09C131.089 136.147 127.018 134.268 123.222 131.695C119.332 129.06 116.032 125.93 113.676 121.923C111.486 118.195 109.664 114.239 107.831 110.314C107.723 110.085 106.671 107.804 106.299 107.04C105.726 105.854 104.053 106.226 104.053 108.067C104.053 109.907 103.971 123.846 107.186 129.329C110.087 134.282 115.003 137.742 119.888 140.762C125.292 144.102 132.471 147.712 138.919 148.665C144.754 149.528 151.413 147.106 155.638 143.113C160.056 138.938 161.307 133.265 163.586 127.833C164.095 126.619 162.29 125.887 161.761 127.081C160.764 129.329 148.85 138.659 148.85 138.659Z" fill="black"/>
<path fill-rule="evenodd" clip-rule="evenodd" d="M166.075 104.71C165.478 106.336 164.568 108.03 163.456 109.399C158.958 113.21 154.586 111.099 152.367 105.934C151.523 102.284 153.763 98.3521 156.135 95.6669C159.562 92.2309 165.155 94.0342 166.73 98.1187C166.826 98.648 166.884 99.1759 166.912 99.7022C166.879 101.412 166.673 102.874 166.075 104.498M122.833 101.429C128.759 94.3772 139.846 94.0001 139.563 104.854C138.29 118.593 116.853 115.221 122.833 101.429ZM167.939 95.5463C167.731 95.1944 167.501 94.8539 167.249 94.5282C167.156 94.4728 167.103 93.9816 166.761 93.9453C162.192 88.9027 154.165 91.7637 151.265 96.7884C150.735 97.4237 150.303 98.1674 149.985 98.9532C147.127 98.4289 143.796 98.5307 141.138 99.6105C138.502 92.7264 130.524 92.1118 125.266 95.0532C121.996 96.6622 119.875 100.032 116.695 101.883C109.218 102.421 101.194 100.745 93.8527 102.621C88.0627 103.826 92.9029 106.759 93.8739 104.801C100.796 102.755 108.996 104.484 116.183 104.023C116.93 105.288 118.363 106.323 119.791 106.278C121.334 119.957 141.274 117.689 141.962 105.529C142.742 104.295 143.712 103.114 145.101 102.345C145.633 102.235 146.147 102.092 146.616 101.871C147.418 101.757 148.655 102.098 149.393 102.766C151.922 117.944 166.49 116.177 169.093 102.88C169.145 102.827 169.289 102.629 169.401 102.311C170.292 101.132 172.473 100.694 172.125 98.7038C171.814 96.7136 169.302 96.7372 167.939 95.5463Z" fill="black"/>
</svg>
