<svg width="240" height="324" viewBox="0 0 240 324" fill="none" xmlns="http://www.w3.org/2000/svg">
<path fill-rule="evenodd" clip-rule="evenodd" d="M170.479 181.122C168.644 180.468 166.876 179.712 165.265 178.6C160.62 175.142 157.592 169.937 154.731 165.006C150.7 157.835 147.829 150.193 145.844 142.221C144.991 138.795 144.701 134.824 142.764 131.787C138.371 125.429 125.49 126.253 118.65 127.369C114.07 128.18 113.123 133.308 112.083 137.102C111.217 140.255 110.65 143.443 110.174 146.674C109.042 147.419 107.763 148.024 106.545 148.551C93.2645 152.625 90.9305 160.177 85.8581 171.843C77.291 188.799 54.0442 195.439 50.5327 215.506C48.2702 228.755 54.704 241.219 61.3371 252.232C67.5146 264.263 76.1388 270.037 89.8731 267.195C102.755 264.304 115.135 259.468 127.791 255.731C133.92 254.223 140.04 250.302 146.488 251.669C159.773 254.654 173.423 256.057 187.039 255.67C206.155 256.443 206.152 238.089 204.19 223.875C202.816 201.755 191.663 187.551 170.479 181.122Z" fill="#D08B5B"/>
<path fill-rule="evenodd" clip-rule="evenodd" d="M171.757 213.13C173.354 214.187 174.698 215.789 175.776 217.475C171.274 217.007 166.779 216.466 162.294 215.851C162.881 215.476 163.474 215.109 164.08 214.762C166.291 213.516 169.288 211.497 171.757 213.13ZM96.9502 226.445C96.1252 226.121 95.806 224.863 95.4844 224.142C94.4763 221.88 93.5562 219.579 92.5989 217.295C96.2336 216.259 99.7681 215.109 103.533 214.556C107.582 213.963 111.69 213.819 115.776 213.952C124.052 214.222 132.252 215.576 140.388 217.026C148.516 218.476 156.642 219.868 164.826 220.961C172.845 222.031 180.888 222.815 188.947 223.502C190.513 223.636 193.123 224.199 194.382 222.967C195.379 221.991 195.412 220.19 194.164 219.397C193.387 218.902 192.261 218.895 191.374 218.78C190.255 218.637 189.133 218.541 188.008 218.466C187.55 218.436 187.092 218.408 186.633 218.38C190.313 216.992 194.156 216.235 198.145 216.446C198.371 217.817 199.387 219.228 199.944 220.359C200.915 222.333 201.672 224.331 202.169 226.477C203.208 230.964 203.254 235.62 202.96 240.196C202.69 244.011 202.111 248.231 199.12 250.934C196.855 252.979 193.659 253.737 190.694 253.975C187.249 254.252 183.75 253.956 180.333 253.494C175.54 252.846 170.726 251.989 166.028 250.84C156.928 248.615 148.206 245.074 140.159 240.274C136.235 237.933 132.49 235.3 128.512 233.048C124.459 230.753 120.145 228.973 115.616 227.868C110.548 226.631 105.249 226.103 100.04 226.408C99.1356 226.461 97.8295 226.789 96.9502 226.445ZM91.0765 224.148C91.6091 225.877 92.0167 227.851 93.1535 229.304C94.2796 230.744 95.9784 231.252 97.7382 231.38C99.8602 231.534 102.007 231.435 104.134 231.514C108.495 231.676 112.797 232.385 116.967 233.685C120.852 234.897 124.459 236.786 127.934 238.883C131.147 240.822 134.266 242.904 137.48 244.837C136.624 245.229 135.778 245.653 134.928 246.023C133.145 246.797 131.35 247.545 129.548 248.274C125.993 249.711 122.423 251.113 118.817 252.416C111.546 255.043 104.155 257.338 96.6749 259.293C93.1075 260.226 89.4893 261.315 85.783 261.47C82.4965 261.607 79.4524 260.678 76.8018 258.723C71.3042 254.669 66.9303 248.816 63.3946 243.044C61.2939 239.614 59.4608 236.011 57.9445 232.285C57.1776 230.4 56.4821 228.487 55.8561 226.552C55.5625 225.643 55.284 224.729 55.0203 223.811C54.9044 223.407 54.7932 223.002 54.6832 222.597C60.3048 220.881 65.9932 219.332 71.8151 218.472C74.9234 218.012 78.0732 217.78 81.2156 217.814C82.7754 217.83 84.3344 217.915 85.8859 218.076C86.721 218.162 87.5528 218.274 88.381 218.412C88.7232 218.469 89.075 218.553 89.4278 218.615C89.9667 220.463 90.5101 222.309 91.0765 224.148ZM207.283 216.802C207.586 216.189 207.713 215.586 207.822 214.919C207.905 214.41 208.124 213.693 207.932 213.032C207.717 212.291 207.129 211.629 206.708 210.998C206.243 210.3 205.778 209.602 205.313 208.903C204.384 207.506 203.457 206.107 202.532 204.707C198.753 198.992 195 193.261 191.241 187.533C187.905 182.45 184.625 177.321 181.188 172.306C178.248 168.017 175.044 163.8 171.021 160.465C165.934 156.248 159.876 154.262 153.549 152.712C152.858 151.994 151.935 151.602 150.949 151.682C149.555 150.1 148.447 148.995 147.944 146.984C147.704 146.021 147.779 143.314 146.841 142.744C145.727 142.067 145.146 142.963 144.838 143.973C143.811 147.353 144.99 151.896 147.705 155.282C146.561 159.236 145.045 164.856 142.34 168.024C139.443 171.417 135.436 172.473 131.114 172.542C122.871 172.675 114.636 169.61 108.349 164.299C106.437 162.684 104.663 160.881 103.057 158.964C101.852 157.525 100.427 155.305 99.4852 153.627C99.4852 152.973 98.7134 152.289 106.571 151.76C114.429 151.232 115.025 140.469 115.199 139.004C115.341 137.814 115.945 135.968 115.107 134.998C114.752 134.586 114.022 134.52 113.571 134.8C112.721 135.328 112.442 136.678 112.175 137.595C111.8 138.88 110.576 146.854 108.257 147.777C107.172 148.209 105.926 148.217 104.778 148.297C103.36 148.396 101.938 148.469 100.526 148.634C100.005 148.695 99.4366 148.863 98.9226 148.868C98.5882 148.871 98.2432 148.709 97.9199 148.595C96.8289 148.209 95.7388 148.498 94.6148 148.649C84.6777 149.985 74.4458 153.034 65.9697 158.521C58.4989 163.357 53.2356 170.311 49.7625 178.442C46.2189 186.74 44.1878 195.713 42.4856 204.547C41.9154 207.507 41.4175 210.48 40.9896 213.464C40.5762 216.347 40.059 219.294 39.9352 222.207C39.8862 223.359 40.1615 224.429 40.5851 225.482C41.0621 226.667 42.1896 227.134 43.2711 227.687C45.6451 228.902 48.1495 229.844 50.7297 230.511C52.306 233.38 53.6325 236.36 54.6986 239.454C54.3031 240.238 54.2948 241.408 54.2188 242.17C54.0301 244.068 53.9494 245.975 53.9325 247.881C53.8985 251.701 54.1282 255.517 54.3082 259.332C54.4907 263.2 55.0975 278.464 55.1963 280.328C55.2732 281.776 55.1697 283.801 55.9322 285.086C57.1039 287.062 59.9957 286.996 61.3351 285.394C94.6148 292.551 157.171 290.395 182.366 286.794C185.644 286.326 184.615 286.845 185.448 286.017C186.074 285.394 186.606 284.329 186.779 283.473C187.01 282.33 186.637 281.296 185.983 280.371C185.296 279.398 185.17 277.824 184.915 276.668C184.311 273.935 184.011 261.932 183.728 260.602C183.64 260.188 183.555 259.75 183.453 259.311C188.074 259.749 192.89 259.749 197.286 258.203C199.779 257.326 202.105 255.949 203.894 253.982C206.062 251.601 207.267 248.603 207.887 245.474C208.688 241.439 208.857 237.26 208.7 233.158C208.482 228.31 207.678 223.395 205.683 218.944C206.34 218.334 206.89 217.598 207.283 216.802Z" fill="black"/>
<path fill-rule="evenodd" clip-rule="evenodd" d="M92.9217 59.6854C94.0151 58.5092 95.4134 57.633 96.9421 57.353C95.5448 58.0527 94.1789 58.7821 92.9217 59.6854ZM90.7802 69.8268C90.5869 68.9305 90.457 68.0255 90.4161 67.1207C90.6605 67.4931 91.0507 67.7419 91.489 67.8704C91.2059 68.5059 90.9651 69.1607 90.7802 69.8268ZM163.94 83.8802C162.678 78.614 156.79 68.4846 155.398 66.535C153.887 61.7075 162.129 57.8361 157.647 54.0612C155.617 52.3579 152.935 51.7551 150.419 51.1511C132.999 46.9571 114.283 49.0722 98.1261 56.7846C95.6685 56.2662 93.1081 57.2794 91.321 59.059C82.925 67.5189 94.3671 82.783 96.8692 92.3204C101.162 102.955 92.3192 104.744 93.2675 113.742C94.0043 118.39 98.7008 119.619 102.664 120.321C103.299 120.47 104.148 120.493 104.353 121.166C104.996 125.095 107.197 128.839 110.152 131.381C109.894 132.148 110.091 133.08 111.003 133.754C119.26 139.906 129.672 142.985 139.971 142.431C152.245 141.772 158.592 134.719 160.124 132.903C168.592 121.438 167.58 106.311 165.853 92.6476C164.649 83.1293 166.175 93.2093 163.94 83.8802Z" fill="#D08B5B"/>
<path fill-rule="evenodd" clip-rule="evenodd" d="M126.094 40.0596C126.48 38.8506 127.572 38.1236 128.822 38.2737C129.929 38.4047 131.114 39.5058 130.979 40.7211C130.954 40.9557 130.92 41.1755 130.88 41.3826L130.885 41.3845L130.89 41.3847L130.863 41.465C130.781 41.8518 130.667 42.1984 130.498 42.526C130.283 43.1537 130.077 43.7836 129.872 44.4155C130.167 44.4028 130.469 44.4197 130.775 44.4768C131.091 43.6652 131.409 42.8557 131.725 42.042C132.065 41.1734 132.303 40.0575 132.973 39.3854C133.831 38.5273 135.32 38.3497 136.366 38.9627C137.47 39.6094 137.864 40.7591 137.624 41.9913C137.502 42.6198 137.083 43.0572 136.565 43.332L136.509 43.3609L136.11 44.3077C136.233 44.2549 136.359 44.2063 136.496 44.1661C136.711 44.1027 136.922 44.0625 137.129 44.0456C137.698 43.0121 138.324 42.0082 138.971 41.0233C139.715 39.8905 141.17 39.4086 142.391 40.1251C143.483 40.7655 144.069 42.4478 143.287 43.5532C142.692 44.3923 142.129 45.2482 141.575 46.1126C141.67 46.1295 141.765 46.1507 141.855 46.1782C141.897 46.1211 141.942 46.064 141.988 46.007C142.593 45.2546 143.297 44.6903 144.02 44.0647C144.697 43.4771 145.009 42.5535 145.899 42.1076C147.018 41.5475 148.368 41.8159 149.034 42.9318C150.463 45.3222 148.064 47.0679 146.529 48.5157C147.864 47.6809 149.253 46.9179 150.678 46.2585C151.479 45.8886 152.293 45.5314 153.12 45.2229C154.344 44.7663 155.335 44.9124 156.341 45.7618C156.79 46.1422 157.013 46.973 156.807 47.5266C156.406 48.5876 155.774 49.2322 154.665 49.5386C153.885 49.7542 153.086 49.9 152.306 50.1262C150.999 50.5024 149.73 50.961 148.498 51.5338C148.587 51.5887 148.671 51.6479 148.749 51.7155C149.668 51.4175 150.604 51.1597 151.545 50.9399C153.104 50.5733 154.691 50.3256 156.285 50.1707L156.815 50.1213C158.726 49.9374 161.025 49.5981 162.198 51.4323C162.583 52.0368 162.625 53.0344 162.198 53.6325C161.38 54.7822 160.566 55.0105 159.212 55.0316C160.545 55.1732 161.875 55.3486 163.199 55.5537C164.111 55.6932 165.024 55.8513 165.933 56.0267L166.387 56.1159C167.493 56.3378 168.729 56.4667 169.68 57.1092C171.754 58.5126 170.78 61.2453 168.482 61.537C167.371 61.6765 166.138 61.2052 165.048 60.9854C163.99 60.7719 162.927 60.5838 161.86 60.4189C161.308 60.3323 160.756 60.2562 160.201 60.1865C161.329 60.3492 162.448 60.5796 163.538 60.9051L163.841 60.9966C165.948 61.6404 168.792 62.6658 169.45 64.9228C169.848 66.2945 168.758 67.4907 167.439 67.571C166.212 67.645 165.189 66.9116 164.148 66.3706C163.389 65.9775 162.617 65.6837 161.799 65.4322C160.954 65.1722 160.091 64.9566 159.223 64.7812C159.957 65.1866 160.672 65.6322 161.358 66.1307L161.673 66.3643C163.497 67.7267 166.279 69.836 165.636 72.3898C165.434 73.1951 164.538 73.9644 163.677 73.882C161.439 73.6727 160.203 71.2823 158.514 70.0016C158.074 69.6676 157.591 69.3379 157.085 69.0167C159.644 72.077 161.681 75.615 163.231 79.2693C166.636 87.3086 167.681 94.7536 167.706 103.398L167.706 103.665C167.711 108.434 167.603 113.288 167.139 118.035C166.709 122.421 165.921 126.749 163.937 130.721C160.612 137.38 154.134 142.567 146.989 144.541C139.039 146.739 130.153 145.02 123.64 139.948C121.979 138.654 124.182 135.846 125.879 137.04C132.657 141.806 141.423 143.315 149.202 140.09C155.373 137.532 160.342 132.031 162.448 125.697C163.789 121.667 164.179 117.37 164.657 113.171L164.689 112.891C165.195 108.499 165.488 104.078 165.484 99.6561C165.478 91.4452 164.302 84.6862 160.699 77.2382C159.004 73.7298 156.805 70.4858 154.178 67.6387C153.381 67.8014 152.533 67.5731 151.728 67.4865C151.317 67.4421 150.906 67.3998 150.495 67.3618C150.915 67.634 151.327 67.9171 151.731 68.2067L152.262 68.5906C153.924 69.7835 156.032 71.1423 155.605 73.4487C155.489 74.0722 154.869 74.6449 154.269 74.7865C152.091 75.3065 150.594 73.1845 149.122 71.9249C147.843 70.8301 146.504 69.8494 145.14 68.8666C144.83 68.6447 144.518 68.4228 144.204 68.203C144.499 68.5479 144.786 68.8982 145.066 69.2518L145.48 69.7779C146.733 71.3493 148.539 73.3919 147.423 75.429C147.107 76.0039 146.432 76.3865 145.779 76.3738C143.531 76.3273 142.637 73.7699 141.583 72.1552C140.677 70.7709 139.692 69.4669 138.674 68.1628C138.394 67.8056 138.111 67.4485 137.824 67.0913C133.104 67.3364 128.401 67.962 123.779 68.9617C120.604 69.6486 117.482 70.5386 114.383 71.5127L114.126 71.5949C112.448 72.1362 110.72 72.8291 109.511 74.0172C109.338 74.8358 109.471 75.6992 109.636 76.5167L109.765 77.1424C110.295 79.7591 110.656 82.3273 110.386 85.0138C110.106 87.7846 109.273 90.2764 108.257 92.8506C107.776 94.0638 107.278 93.844 107.108 95.1459C106.977 96.1376 107.058 97.1613 107.147 98.1613L107.222 99.009C107.409 101.23 107.503 103.651 106.051 105.483C105.826 105.764 105.343 105.652 105.183 105.371C105.12 105.259 105.052 105.151 104.978 105.048C104.278 104.031 103.205 103.452 101.978 103.228C101.822 103.2 101.883 102.991 102.014 102.974C103.051 102.852 104.034 103.112 104.869 103.649C104.473 102.276 101.408 102.944 100.4 103.21L100.366 103.219C99.1091 103.558 97.92 104.107 96.8722 104.885C94.764 106.449 93.5455 108.888 93.6066 111.515C93.6678 114.098 94.998 116.484 97.2833 117.72C98.386 118.316 99.6403 118.604 100.888 118.591C102.191 118.578 103.351 118.006 104.656 118.086C105.411 118.132 105.988 118.944 105.552 119.652C105.261 120.125 104.881 120.497 104.443 120.783C105.512 123.253 106.876 125.61 108.448 127.785C109.319 128.992 110.306 130.105 111.392 131.122C112.239 131.917 114.075 132.836 113.972 134.161C113.936 134.639 113.69 134.93 113.255 135.108C111.905 135.661 110.263 133.756 109.36 132.837L109.288 132.764C108.162 131.64 107.135 130.397 106.241 129.078C104.656 126.736 103.671 124.097 103.264 121.324C101.099 121.977 98.232 121.364 96.4654 120.563C90.9123 118.048 89.0971 110.551 92.4724 105.559C93.1259 104.593 93.9439 103.767 94.8758 103.099C94.6713 102.987 94.4794 102.843 94.3087 102.662C93.364 101.656 92.6961 100.343 92.0333 99.1329L91.9538 98.9883C91.3653 97.9231 90.8102 96.8411 90.2899 95.7425L90.0964 95.3298C88.9348 92.8253 87.9165 91.7305 87.088 89.0971C86.2911 86.5566 85.6628 83.9676 85.256 81.3342L85.1478 80.6371C84.9125 79.1091 84.69 77.4751 84.8617 75.9236C83.679 76.3104 82.49 76.5492 81.3199 75.968C80.5483 75.5854 80.1224 74.4695 80.386 73.6685C80.5778 73.0788 80.8983 72.616 81.3052 72.2524C81.0627 72.1299 80.835 71.9735 80.6347 71.8002L80.4598 71.6482C79.7514 71.0308 79.7008 69.8578 80.1309 69.0843C80.173 69.0103 80.2152 68.9342 80.2553 68.8603C80.6643 68.1269 81.5097 67.6471 82.3445 67.6598C82.4794 67.6619 82.6144 67.6619 82.7514 67.6598C82.3614 67.5732 81.9798 67.44 81.6172 67.216C79.9812 66.2078 80.1878 63.4751 82.1674 62.9932C82.9981 62.7924 83.9151 62.8748 84.8301 63.0904C84.7964 63.0714 84.7626 63.0524 84.7289 63.0312C84.0374 62.6064 83.4577 61.7758 83.523 60.9241C83.5947 59.9814 83.8983 59.3094 84.7289 58.8148C85.4499 58.3879 86.4703 58.3477 87.1871 58.8148C87.809 59.2227 88.4183 59.6729 89.0044 60.1569C88.4162 59.4319 87.906 58.6436 87.6994 57.8067C87.4443 56.7647 87.8702 55.6297 88.8062 55.0802C89.5525 54.6427 90.341 54.6914 91.0451 55.0295C91.0072 54.4821 91.14 53.9241 91.5026 53.4296C92.2447 52.4153 93.594 51.8318 94.7682 52.5715C94.9221 52.6687 95.1288 52.8357 95.329 53.0407C94.939 51.7959 95.2911 50.4897 96.6214 49.9275C97.433 49.583 98.5314 49.7563 99.2356 50.3502C98.7886 47.926 102.358 46.1443 103.745 48.6488C104.06 49.2162 104.371 49.8136 104.65 50.4248L104.753 50.6546L104.763 50.6503L104.692 50.4823L104.62 50.3143C104.234 49.416 103.743 48.4819 103.608 47.5076C103.41 46.0661 104.051 44.6987 105.615 44.4874C106.422 44.3775 107.321 44.7452 107.862 45.3879C107.569 43.1516 110.061 41.5263 111.855 43.196C112.705 43.9865 113.158 45.1425 113.698 46.157C114.004 46.7298 114.316 47.3004 114.621 47.8753C114.699 47.7823 114.784 47.6893 114.872 47.5984C114.419 46.2373 114.067 44.8424 113.77 43.4391C113.487 42.116 114.147 40.7422 115.509 40.3684C116.746 40.0258 118.296 40.7911 118.572 42.112C118.766 43.0417 118.996 43.9613 119.249 44.8762C119.422 44.834 119.593 44.8044 119.761 44.7832C119.775 44.6114 119.791 44.4385 119.809 44.2666L119.875 43.6552C120.023 42.2583 120.171 40.6637 120.9 39.4762C122.141 37.4473 125.325 38.2885 125.359 40.6873C125.377 41.9279 124.874 43.158 124.699 44.3859C124.623 44.9206 124.578 45.4617 124.553 46.0027C124.893 44.2063 125.359 42.433 125.898 40.6873C125.961 40.478 126.029 40.2688 126.094 40.0596ZM98.6284 109.336C101.422 108.903 103.975 110.465 105.63 112.652C105.931 113.052 105.733 113.616 105.461 113.952C105.265 114.199 105.002 114.229 104.704 114.267C104.363 114.311 103.931 114.034 103.781 113.736C102.716 111.606 100.817 110.26 98.6284 109.431C98.5883 109.416 98.5757 109.344 98.6284 109.336ZM102.501 71.1652L102.585 71.0742C103.151 70.4864 102.257 69.5886 101.691 70.1776C101.094 70.7977 100.698 71.551 100.317 72.3144C99.9536 73.0423 101.044 73.6852 101.409 72.9546L101.575 72.6225C101.836 72.1061 102.114 71.596 102.501 71.1652ZM94.6559 69.9589C95.457 69.8236 95.1174 68.6014 94.3196 68.7362C93.2862 68.9108 92.2567 69.1092 91.2231 69.284C90.4222 69.4193 90.7618 70.6415 91.5595 70.5069C92.593 70.3321 93.6224 70.1337 94.6559 69.9589ZM142.379 61.6146C141.605 61.3556 141.273 62.58 142.043 62.8374C143.107 63.1931 144.161 63.5577 145.17 64.0516C145.899 64.4084 146.541 63.3151 145.809 62.9566C144.701 62.4145 143.547 62.0051 142.379 61.6146ZM94.4737 59.9711C93.7179 59.668 93.3897 60.8941 94.1375 61.194L96.8697 62.2894C97.6255 62.5925 97.9538 61.3666 97.206 61.0667L94.4737 59.9711ZM151.92 56.9937L151.82 56.9306C151.135 56.4855 150.5 57.5828 151.181 58.0256C151.581 58.2854 152.068 58.4616 152.434 58.7711L152.511 58.8395C153.102 59.3996 153.998 58.5047 153.405 57.9428C152.971 57.532 152.422 57.3033 151.92 56.9937Z" fill="black"/>
<path fill-rule="evenodd" clip-rule="evenodd" d="M132.007 124.857C133.697 121.475 149.202 122.995 149.202 122.995L150.512 133.744C150.512 133.744 143.031 136.15 138.577 135.646C134.124 135.142 130.316 128.239 132.007 124.857Z" fill="white"/>
<path fill-rule="evenodd" clip-rule="evenodd" d="M133.099 130.503C132.564 129.356 143.648 126.23 147.08 128.366C150.512 130.503 149.439 133.416 149.439 133.416C149.439 133.416 135.004 136.71 133.099 130.503Z" fill="#FF8181"/>
<path fill-rule="evenodd" clip-rule="evenodd" d="M131.045 122.856C133.632 119.848 137.99 119.639 141.599 120.391C143.916 120.873 146.171 121.677 148.524 121.975C149.622 122.115 150.733 122.156 151.84 122.136C152.927 122.116 154.016 121.897 155.099 121.937C155.266 121.944 155.329 122.162 155.185 122.251C153.698 123.164 151.696 123.457 149.94 123.636C149.946 123.766 149.954 123.893 149.972 124C150.02 124.287 150.063 124.572 150.099 124.861C150.178 125.512 150.267 126.161 150.356 126.811C150.532 128.09 150.587 129.409 150.895 130.666L150.949 130.875C151.02 131.139 151.037 131.378 151.013 131.592L151.084 131.56L151.31 131.451L151.458 131.381C151.997 131.131 152.512 130.948 153.146 131.009C153.629 131.055 154.035 131.385 154.038 131.901C154.05 134.216 150.931 134.961 149.146 135.404L148.623 135.533C146.352 136.087 144.033 136.573 141.698 136.689C137.95 136.875 133.737 135.841 131.285 132.799C128.998 129.961 128.578 125.723 131.045 122.856ZM148.067 132.584C147.674 129.098 143.392 128.906 142.16 131.117C141.613 128.035 133.527 130.85 134.159 131.463C136.556 133.785 140.193 133.994 143.32 133.564C144.912 133.346 146.505 132.99 148.067 132.584ZM143.315 123.447L142.239 123.292L141.814 123.234C139.146 122.876 136.144 122.691 133.95 124.403C133.149 125.028 132.698 125.843 132.53 126.718C134.606 126.41 136.69 126.176 138.78 125.98L139.35 125.928C140.658 125.81 141.965 125.685 143.271 125.555L144.2 125.461L145.128 125.365C145.455 125.33 147.656 125.218 148.07 125.293C148.114 124.921 148.171 124.116 148.265 123.754C146.701 123.807 145.144 123.691 143.589 123.485L143.315 123.447ZM148.271 107.866C149.866 108.836 152.297 111.098 150.581 113.503C148.56 115.624 145.652 113.193 144.219 112.093C142.889 111.241 141.396 113.433 142.629 114.428C152.986 122.099 157.19 108.12 149.078 106.726C148.184 106.572 147.853 107.566 148.271 107.866ZM151.126 111.953L151.202 111.911L151.228 111.896C151.273 111.867 151.245 111.87 151.143 111.905L151.066 111.933V111.987C151.086 111.975 151.107 111.965 151.126 111.953ZM130.694 103.334L130.694 103.287C130.697 101.939 131.481 98.8616 133.421 98.8616C134.632 98.8616 135.368 100.956 135.495 103.115L135.5 103.203C135.556 104.545 135.188 107.479 133.421 107.479C131.635 107.479 130.712 104.7 130.694 103.334ZM159.248 102.911L159.248 102.864C159.245 101.516 158.46 98.4389 156.521 98.4389C155.34 98.4389 154.611 100.43 154.457 102.53L154.446 102.692C154.37 103.989 154.714 107.056 156.521 107.056C158.307 107.056 159.229 104.277 159.248 102.911ZM131.8 89.6727C133.383 89.4319 135.479 89.8893 136.217 91.4994C136.546 92.2167 136.157 93.0099 135.328 93.0496C133.325 93.1456 131.528 92.6996 129.77 94.0026C129.013 94.5634 128.377 95.34 127.843 96.1145L127.642 96.4093L127.474 96.6522C127.112 97.1853 126.768 97.7645 126.822 98.4078C126.838 98.5982 126.643 98.7789 126.458 98.7713C125.306 98.7239 125.182 97.2787 125.334 96.4107C125.616 94.7998 126.395 93.2876 127.475 92.0696C128.61 90.7905 130.107 89.9303 131.8 89.6727ZM153.601 91.6278C154.692 90.9259 156.088 90.6562 157.367 90.7595C159.888 90.9626 164.117 93.1066 163.561 96.187C163.389 97.137 162.068 97.6383 161.29 97.1112C160.453 96.5446 160.249 95.6639 159.626 94.9233C159.13 94.3318 158.5 93.9038 157.825 93.5392C157.161 93.1796 156.392 92.9617 155.637 92.8822L155.512 92.8703C155.058 92.8316 152.765 92.842 153.102 93.6981C153.168 93.8657 152.918 93.9985 152.804 93.8717C152.101 93.0939 152.897 92.0805 153.601 91.6278Z" fill="black"/>
</svg>
