<svg width="240" height="324" viewBox="0 0 240 324" fill="none" xmlns="http://www.w3.org/2000/svg">
<path fill-rule="evenodd" clip-rule="evenodd" d="M194.637 251.934C193.785 247.123 193.005 242.299 192.295 237.465C191.958 235.169 191.63 232.872 191.334 230.571C191.128 228.959 190.813 227.115 191.909 225.921C193.452 224.24 194.854 222.802 195.042 220.395C195.22 218.129 194.454 215.66 193.976 213.462C192.972 208.851 191.722 204.297 190.341 199.786C188.938 195.204 187.399 190.664 185.839 186.133C184.38 181.897 182.977 177.622 181.077 173.558C177.47 165.845 171.369 160.132 163.828 156.318C161.953 155.37 158.128 151.984 156.168 151.226C154.367 150.528 154.374 152.564 152.601 151.797C151.184 151.184 149.864 150.367 149.071 148.998C148.209 147.512 146.048 145.433 145.72 143.703C145.023 140.035 145.778 136.914 143.161 134.154C140.839 131.703 137.717 130.024 134.486 129.123C127.38 127.14 117.903 128.526 113.616 135.132C111.568 138.286 110.852 142.1 108.089 144.674C105.676 146.922 106.216 148.459 103.091 149.617C102.914 149.683 98.1167 148.654 97.9397 148.72C94.521 147.988 91.2534 150.037 88.1169 151.226C83.441 152.998 78.9891 155.304 74.8067 158.045C66.3731 163.573 59.1498 170.752 53.1948 178.874C47.1906 187.064 42.5319 196.244 39.2148 205.838C38.4093 208.168 37.6857 210.527 37.0474 212.908C36.6902 214.241 36.3084 215.624 36.7434 216.988C37.0992 218.105 37.8906 218.936 38.82 219.606C40.0798 220.514 42.6067 221.104 42.5575 222.931C42.5199 224.32 42.049 225.781 41.8191 227.153C41.5455 228.787 41.3207 230.431 41.096 232.073C40.0734 239.544 39.2776 247.057 38.9256 254.592C38.5791 262.011 38.2916 269.581 38.806 276.998C38.84 277.487 38.9858 277.936 39.221 278.315C39.0015 278.399 38.9846 278.808 39.2577 278.866C39.4491 278.907 39.6401 278.948 39.8315 278.988C40.2291 279.289 40.725 279.474 41.2956 279.492C41.6824 279.504 42.0691 279.521 42.4555 279.541C46.5331 280.394 50.6102 281.199 54.7411 281.809C59.7625 282.551 64.7987 283.155 69.8505 283.646C80.2312 284.656 90.53 284.321 100.924 283.777C111.303 283.234 121.675 283.107 132.064 283.377C142.462 283.648 152.857 284.1 163.257 284.285C174.877 284.492 186.478 284.174 198.064 283.25C199.653 283.124 200.636 281.859 200.322 280.281C198.445 270.825 196.318 261.431 194.637 251.934Z" fill="#D08B5B"/>
<path fill-rule="evenodd" clip-rule="evenodd" d="M88.117 151.225L88.344 151.138C91.411 149.939 94.6034 148.005 97.9398 148.719C98.0578 148.676 100.229 149.118 101.716 149.399L100.304 150.873L97.8135 151.352C106.406 165.54 116.569 172.633 128.302 172.633C140.035 172.633 148.939 165.54 155.012 151.352L155.841 151.123C155.943 151.147 156.052 151.18 156.169 151.225C158.128 151.983 161.953 155.37 163.828 156.318C171.369 160.132 177.47 165.844 181.077 173.558C182.914 177.487 184.286 181.612 185.693 185.709L185.839 186.133C187.399 190.664 188.938 195.203 190.341 199.786C191.662 204.101 192.863 208.455 193.843 212.86L193.976 213.461C194.455 215.66 195.22 218.129 195.042 220.394C194.975 221.252 194.754 221.987 194.427 222.653L177.432 228.771L185.529 284.017C178.112 284.335 170.688 284.417 163.257 284.285C152.857 284.1 142.462 283.647 132.064 283.377C121.99 283.115 111.931 283.226 101.868 283.729L99.3123 283.859C89.4645 284.352 79.6943 284.604 69.8506 283.646L69.1798 283.58L69.1797 275.499L72.6375 230.5L55.114 227.201L37.9122 218.842C37.3925 218.323 36.9754 217.716 36.7435 216.988C36.3406 215.724 36.6383 214.445 36.9683 213.204L37.0475 212.908C37.6857 210.526 38.4093 208.168 39.2149 205.837C42.532 196.243 47.1907 187.064 53.1949 178.874C59.1499 170.751 66.3731 163.573 74.8067 158.045C78.9892 155.304 83.441 152.997 88.117 151.225Z" fill="#EC7495"/>
<path fill-rule="evenodd" clip-rule="evenodd" d="M94.6976 148.487C95.7721 148.44 96.8677 148.614 97.9397 148.72C98.0331 148.729 98.0686 148.873 97.9634 148.895C96.0449 149.296 94.1475 149.844 92.2633 150.401L91.4566 150.64C89.3318 151.269 87.2694 151.917 85.2125 152.756C81.1131 154.427 77.2196 156.683 73.6363 159.275C59.838 169.255 49.8514 184.366 43.5493 200.01C41.8378 204.259 40.3877 208.613 39.213 213.04C38.9274 214.118 38.6587 215.199 38.4039 216.284C38.3291 216.602 38.0031 217.417 38.1818 217.742C38.3399 218.03 38.9542 218.208 39.2396 218.357L40.2033 218.857C42.0829 219.826 45.2138 221.419 45.5278 221.574L46.0175 221.816C54.0268 225.744 62.5846 229.074 71.5976 229.305L71.6682 228.535C72.07 224.278 72.5973 219.999 73.7483 215.873C73.8102 215.651 74.0923 215.726 74.118 215.923C74.7592 220.807 74.5543 225.73 74.3306 230.637C73.9344 239.328 73.4084 248.014 72.9408 256.702C72.7068 261.048 72.4042 265.391 72.1311 269.735C71.8575 274.087 71.7689 278.544 71.1442 282.861C71.005 283.823 69.8785 284.346 69.0254 284.245C68.0815 284.132 67.3554 283.3 67.3509 282.347C67.3395 279.832 67.6553 277.288 67.8309 274.78C67.9976 272.397 68.1765 270.015 68.3599 267.633C69.0301 258.94 69.801 250.257 70.514 241.568C70.7667 238.486 71.0396 235.407 71.3206 232.328C61.7728 232.02 52.8529 228.482 44.3434 224.348C44.2203 227.146 43.9228 229.939 43.6349 232.725C42.831 240.499 42.1222 248.271 41.5917 256.07C41.3238 260.009 41.1288 263.953 40.9589 267.897C40.8755 269.835 40.8075 271.774 40.7553 273.714C40.7378 274.36 40.722 275.007 40.7081 275.653L40.6791 277.135C40.6553 278.073 40.5599 278.942 39.7706 279.626C38.9688 280.32 37.8858 280.357 37.0923 279.626C36.0301 278.647 36.2179 277.314 36.2494 276C36.2756 274.891 36.307 273.783 36.3436 272.675C36.4169 270.458 36.5105 268.243 36.6244 266.028C37.0228 258.285 37.819 250.573 38.8595 242.892L39.2657 239.927C40.0242 234.415 40.8569 228.777 42.5525 223.467C41.8923 223.139 41.234 222.808 40.5782 222.476C39.415 221.887 38.2123 221.334 37.0815 220.683C36.1845 220.168 35.4108 219.46 35.1611 218.416C34.8826 217.252 35.3085 215.98 35.5914 214.845L35.616 214.745C35.8934 213.602 36.1921 212.464 36.5073 211.331C37.7855 206.736 39.366 202.232 41.2156 197.837C44.9192 189.038 49.6995 180.678 55.5387 173.12C60.7949 166.317 67.004 160.147 74.2813 155.52C77.8391 153.258 81.6305 151.4 85.6401 150.087C87.5143 149.473 89.5535 148.939 91.5157 148.719C92.5742 148.601 93.6341 148.533 94.6976 148.487ZM113.736 134.544C115.013 133.172 117.549 134.592 116.936 136.408C115.494 140.682 113.198 144.579 109.614 147.387C106.245 150.027 102.228 151.742 97.9014 151.376C97.868 151.373 97.8391 151.364 97.8135 151.352L98.1863 151.858C101.113 155.819 104.201 159.725 107.923 162.963C115.506 169.559 125.831 173.117 135.8 170.586C143.644 168.595 150.555 162.39 152.587 154.482C152.296 154.613 151.95 154.657 151.57 154.575C149.944 154.221 148.334 152.511 147.285 151.284C146.15 149.957 145.264 148.524 144.615 146.904C143.426 143.94 143.045 140.123 144.668 137.251C144.868 136.897 145.33 137.096 145.37 137.441L145.431 137.981C145.744 140.672 146.134 143.275 147.402 145.729C148.023 146.929 148.767 148.101 149.673 149.106C150.158 149.644 150.683 150.158 151.25 150.609C151.803 151.049 152.472 151.366 152.967 151.87L153.058 151.967L153.061 151.95C153.186 150.884 153.933 150.415 154.664 150.444C155.371 150.473 156.202 150.784 156.523 150.933L156.554 150.948C161.487 153.317 166.031 156.405 170.307 159.831C179.15 166.916 185.775 176.179 188.986 187.086C190.561 192.439 191.465 197.956 192.42 203.446L193.007 206.81C193.898 211.878 194.893 217.047 196.904 221.761C197.424 222.981 197.023 224.125 195.748 224.605C194.155 225.203 192.557 225.783 190.956 226.356C191.742 229.73 192.221 233.221 192.81 236.611C194.062 243.818 195.596 250.979 196.912 258.176C197.584 261.856 198.191 265.548 198.863 269.229C199.186 271.001 199.524 272.771 199.852 274.543C200.029 275.498 200.189 276.456 200.358 277.413L200.387 277.571C200.484 278.076 200.605 278.598 200.467 279.103C200.308 279.679 199.859 280.086 199.458 280.499C199.128 280.839 198.65 280.841 198.246 280.655L198.113 280.594C197.39 280.256 196.824 279.919 196.568 279.103C196.406 278.587 196.347 278.005 196.241 277.473C196.038 276.453 195.845 275.432 195.663 274.408C195.298 272.36 194.943 270.31 194.595 268.258L194.271 266.337C193.157 259.715 192.1 253.054 191.565 246.362C191.328 243.394 191.077 240.428 190.823 237.461L190.633 235.236C190.392 232.42 190.098 229.532 190.056 226.678L189.099 227.018L184.428 228.67C183.269 229.079 181.795 229.919 180.548 229.766C179.938 229.691 179.473 229.499 179.114 229.15C179.544 235.223 180.126 241.285 180.902 247.316C181.608 252.804 182.391 258.284 183.315 263.74C183.773 266.442 184.244 269.14 184.755 271.832C185.01 273.178 185.274 274.522 185.546 275.865C185.681 276.535 185.842 277.206 185.948 277.881C186.069 278.655 185.856 279.131 185.424 279.767C185.069 280.29 184.359 280.558 183.784 280.198C183.022 279.719 182.625 279.305 182.401 278.434C182.197 277.643 182.073 276.817 181.916 276.016C181.625 274.537 181.343 273.056 181.072 271.573C180.504 268.472 179.981 265.364 179.514 262.246C177.867 251.262 176.822 240.187 176.294 229.093C176.034 223.62 175.953 218.142 175.999 212.663C176.023 209.854 176.115 207.038 176.313 204.236C176.514 201.401 176.933 198.622 177.306 195.813C177.319 195.714 177.459 195.708 177.465 195.813C177.642 198.962 177.919 202.107 178.055 205.264C178.184 208.276 178.241 211.293 178.344 214.307C178.48 218.268 178.668 222.231 178.916 226.192C179.366 225.699 180.045 225.415 180.724 225.526C181.708 225.32 182.767 224.803 183.704 224.49L187.24 223.309C189.098 222.688 190.957 222.071 192.822 221.473C191.154 215.861 190.012 210.165 189.037 204.386L188.602 201.787C187.741 196.672 186.812 191.554 185.253 186.6C183.613 181.392 181.159 176.55 177.904 172.165C174.696 167.844 170.792 164.038 166.773 160.479C163.332 157.433 159.651 154.682 156.142 151.718C156.178 151.915 156.186 152.131 156.154 152.369C155.408 157.832 152.559 162.92 148.588 166.704C140.612 174.307 128.805 175.884 118.596 172.319C108.721 168.87 99.9896 160.703 96.9048 150.597C96.852 150.424 97.0836 150.356 97.1765 150.483C97.3477 150.717 97.5196 150.952 97.6918 151.186C97.6802 151.093 97.7286 150.992 97.8435 150.947C101.443 149.557 104.977 147.586 107.675 144.796C108.99 143.437 110.137 141.896 111.043 140.235C111.477 139.439 111.867 138.615 112.178 137.764L112.257 137.544C112.634 136.477 112.949 135.389 113.736 134.544Z" fill="black"/>
<path fill-rule="evenodd" clip-rule="evenodd" d="M92.9217 59.6854C94.0151 58.5092 95.4134 57.633 96.9421 57.353C95.5448 58.0527 94.1789 58.7821 92.9217 59.6854ZM90.7802 69.8268C90.5869 68.9305 90.457 68.0255 90.4161 67.1207C90.6605 67.4931 91.0507 67.7419 91.489 67.8704C91.2059 68.5059 90.9651 69.1607 90.7802 69.8268ZM163.94 83.8802C162.678 78.614 156.79 68.4846 155.398 66.535C153.887 61.7075 162.129 57.8361 157.647 54.0612C155.617 52.3579 152.935 51.7551 150.419 51.1511C132.999 46.9571 114.283 49.0722 98.1261 56.7846C95.6685 56.2662 93.1081 57.2794 91.321 59.059C82.925 67.5189 94.3671 82.783 96.8692 92.3204C101.162 102.955 92.3192 104.744 93.2675 113.742C94.0043 118.39 98.7008 119.619 102.664 120.321C103.299 120.47 104.148 120.493 104.353 121.166C104.996 125.095 107.197 128.839 110.152 131.381C109.894 132.148 110.091 133.08 111.003 133.754C119.26 139.906 129.672 142.985 139.971 142.431C152.245 141.772 158.592 134.719 160.124 132.903C168.592 121.438 167.58 106.311 165.853 92.6476C164.649 83.1293 166.175 93.2093 163.94 83.8802Z" fill="#D08B5B"/>
<path fill-rule="evenodd" clip-rule="evenodd" d="M126.094 40.0596C126.48 38.8506 127.572 38.1236 128.822 38.2737C129.929 38.4047 131.114 39.5058 130.979 40.7211C130.954 40.9557 130.92 41.1755 130.88 41.3826L130.885 41.3845L130.89 41.3847L130.863 41.465C130.781 41.8518 130.667 42.1984 130.498 42.526C130.283 43.1537 130.077 43.7836 129.872 44.4155C130.167 44.4028 130.469 44.4197 130.775 44.4768C131.091 43.6652 131.409 42.8557 131.725 42.042C132.065 41.1734 132.303 40.0575 132.973 39.3854C133.831 38.5273 135.32 38.3497 136.366 38.9627C137.47 39.6094 137.864 40.7591 137.624 41.9913C137.502 42.6198 137.083 43.0572 136.565 43.332L136.509 43.3609L136.11 44.3077C136.233 44.2549 136.359 44.2063 136.496 44.1661C136.711 44.1027 136.922 44.0625 137.129 44.0456C137.698 43.0121 138.324 42.0082 138.971 41.0233C139.716 39.8905 141.17 39.4086 142.391 40.1251C143.483 40.7655 144.069 42.4478 143.287 43.5532C142.692 44.3923 142.129 45.2482 141.575 46.1126C141.67 46.1295 141.765 46.1507 141.855 46.1782C141.898 46.1211 141.942 46.064 141.988 46.007C142.593 45.2546 143.297 44.6903 144.02 44.0647C144.697 43.4771 145.009 42.5535 145.899 42.1076C147.018 41.5475 148.368 41.8159 149.034 42.9318C150.463 45.3222 148.064 47.0679 146.529 48.5157C147.864 47.6809 149.253 46.9179 150.678 46.2585C151.479 45.8886 152.293 45.5314 153.12 45.2229C154.344 44.7663 155.335 44.9124 156.341 45.7618C156.79 46.1422 157.013 46.973 156.807 47.5266C156.406 48.5876 155.774 49.2322 154.665 49.5386C153.885 49.7542 153.086 49.9 152.306 50.1262C150.999 50.5024 149.73 50.961 148.498 51.5338C148.587 51.5887 148.671 51.6479 148.749 51.7155C149.668 51.4175 150.604 51.1597 151.545 50.9399C153.104 50.5733 154.691 50.3256 156.286 50.1707L156.815 50.1213C158.726 49.9374 161.025 49.5981 162.198 51.4323C162.583 52.0368 162.626 53.0344 162.198 53.6325C161.38 54.7822 160.566 55.0105 159.212 55.0316C160.545 55.1732 161.875 55.3486 163.199 55.5537C164.112 55.6932 165.024 55.8513 165.933 56.0267L166.387 56.1159C167.493 56.3378 168.729 56.4667 169.68 57.1092C171.754 58.5126 170.78 61.2453 168.482 61.537C167.371 61.6765 166.138 61.2052 165.048 60.9854C163.99 60.7719 162.927 60.5838 161.86 60.4189C161.308 60.3323 160.756 60.2562 160.201 60.1865C161.329 60.3492 162.448 60.5796 163.538 60.9051L163.841 60.9966C165.948 61.6404 168.793 62.6658 169.45 64.9228C169.848 66.2945 168.758 67.4907 167.439 67.571C166.212 67.645 165.189 66.9116 164.148 66.3706C163.389 65.9775 162.617 65.6837 161.799 65.4322C160.954 65.1722 160.091 64.9566 159.223 64.7812C159.957 65.1866 160.672 65.6322 161.358 66.1307L161.673 66.3643C163.497 67.7267 166.279 69.836 165.636 72.3898C165.434 73.1951 164.538 73.9644 163.678 73.882C161.439 73.6727 160.203 71.2823 158.514 70.0016C158.074 69.6676 157.591 69.3379 157.085 69.0167C159.645 72.077 161.681 75.615 163.231 79.2693C166.636 87.3086 167.681 94.7536 167.706 103.398L167.706 103.665C167.711 108.434 167.603 113.288 167.139 118.035C166.709 122.421 165.921 126.749 163.937 130.721C160.612 137.38 154.134 142.567 146.989 144.541C139.039 146.739 130.153 145.02 123.64 139.948C121.979 138.654 124.182 135.846 125.879 137.04C132.657 141.806 141.423 143.315 149.202 140.09C155.373 137.532 160.342 132.031 162.448 125.697C163.789 121.667 164.179 117.37 164.657 113.171L164.689 112.891C165.195 108.499 165.488 104.078 165.484 99.6561C165.478 91.4452 164.302 84.6862 160.699 77.2382C159.004 73.7298 156.805 70.4858 154.178 67.6387C153.381 67.8014 152.533 67.5731 151.728 67.4865C151.317 67.4421 150.906 67.3998 150.495 67.3618C150.915 67.634 151.327 67.9171 151.731 68.2067L152.262 68.5906C153.924 69.7835 156.032 71.1423 155.605 73.4487C155.489 74.0722 154.869 74.6449 154.269 74.7865C152.091 75.3065 150.594 73.1845 149.122 71.9249C147.843 70.8301 146.504 69.8494 145.14 68.8666C144.83 68.6447 144.518 68.4228 144.204 68.203C144.499 68.5479 144.786 68.8982 145.066 69.2518L145.48 69.7779C146.733 71.3493 148.539 73.3919 147.423 75.429C147.107 76.0039 146.432 76.3865 145.779 76.3738C143.531 76.3273 142.637 73.7699 141.583 72.1552C140.677 70.7709 139.692 69.4669 138.674 68.1628C138.394 67.8056 138.111 67.4485 137.824 67.0913C133.104 67.3364 128.401 67.962 123.779 68.9617C120.604 69.6486 117.482 70.5386 114.383 71.5127L114.126 71.5949C112.448 72.1362 110.72 72.8291 109.511 74.0172C109.338 74.8358 109.471 75.6992 109.636 76.5167L109.765 77.1424C110.295 79.7591 110.656 82.3273 110.386 85.0138C110.106 87.7846 109.273 90.2764 108.257 92.8506C107.776 94.0638 107.278 93.844 107.108 95.1459C106.977 96.1376 107.058 97.1613 107.147 98.1613L107.222 99.009C107.409 101.23 107.503 103.651 106.051 105.483C105.826 105.764 105.343 105.652 105.183 105.371C105.12 105.259 105.052 105.151 104.978 105.048C104.278 104.031 103.205 103.452 101.978 103.228C101.822 103.2 101.884 102.991 102.014 102.974C103.051 102.852 104.034 103.112 104.869 103.649C104.473 102.276 101.408 102.944 100.4 103.21L100.366 103.219C99.1091 103.558 97.9201 104.107 96.8723 104.885C94.7641 106.449 93.5455 108.888 93.6066 111.515C93.6678 114.098 94.9981 116.484 97.2834 117.72C98.386 118.316 99.6404 118.604 100.888 118.591C102.191 118.578 103.351 118.006 104.656 118.086C105.411 118.132 105.988 118.944 105.552 119.652C105.261 120.125 104.881 120.497 104.443 120.783C105.512 123.253 106.876 125.61 108.449 127.785C109.319 128.992 110.306 130.105 111.392 131.122C112.239 131.917 114.075 132.836 113.972 134.161C113.936 134.639 113.69 134.93 113.255 135.108C111.905 135.661 110.263 133.756 109.36 132.837L109.288 132.764C108.162 131.64 107.135 130.397 106.241 129.078C104.656 126.736 103.671 124.097 103.264 121.324C101.099 121.977 98.2321 121.364 96.4654 120.563C90.9123 118.048 89.0972 110.551 92.4724 105.559C93.126 104.593 93.944 103.767 94.8758 103.099C94.6713 102.987 94.4795 102.843 94.3087 102.662C93.364 101.656 92.6962 100.343 92.0333 99.1329L91.9538 98.9883C91.3654 97.9231 90.8103 96.8411 90.2899 95.7425L90.0965 95.3298C88.9348 92.8253 87.9166 91.7305 87.088 89.0971C86.2911 86.5566 85.6629 83.9676 85.256 81.3342L85.1479 80.6371C84.9125 79.1091 84.69 77.4751 84.8618 75.9236C83.679 76.3104 82.49 76.5492 81.3199 75.968C80.5483 75.5854 80.1225 74.4695 80.386 73.6685C80.5779 73.0788 80.8983 72.616 81.3052 72.2524C81.0627 72.1299 80.8351 71.9735 80.6348 71.8002L80.4598 71.6482C79.7514 71.0308 79.7008 69.8578 80.1309 69.0843C80.1731 69.0103 80.2152 68.9342 80.2553 68.8603C80.6643 68.1269 81.5097 67.6471 82.3445 67.6598C82.4795 67.6619 82.6144 67.6619 82.7514 67.6598C82.3614 67.5732 81.9798 67.44 81.6172 67.216C79.9812 66.2078 80.1878 63.4751 82.1675 62.9932C82.9981 62.7924 83.9152 62.8748 84.8301 63.0904C84.7964 63.0714 84.7627 63.0524 84.7289 63.0312C84.0374 62.6064 83.4577 61.7758 83.523 60.9241C83.5947 59.9814 83.8983 59.3094 84.7289 58.8148C85.4499 58.3879 86.4703 58.3477 87.1871 58.8148C87.809 59.2227 88.4183 59.6729 89.0044 60.1569C88.4162 59.4319 87.906 58.6436 87.6994 57.8067C87.4443 56.7647 87.8702 55.6297 88.8062 55.0802C89.5525 54.6427 90.341 54.6914 91.0452 55.0295C91.0072 54.4821 91.14 53.9241 91.5026 53.4296C92.2447 52.4153 93.594 51.8318 94.7683 52.5715C94.9222 52.6687 95.1288 52.8357 95.3291 53.0407C94.939 51.7959 95.2911 50.4897 96.6214 49.9275C97.4331 49.583 98.5314 49.7563 99.2356 50.3502C98.7887 47.926 102.358 46.1443 103.745 48.6488C104.06 49.2162 104.371 49.8136 104.65 50.4248L104.753 50.6546L104.763 50.6503L104.692 50.4823L104.62 50.3143C104.234 49.416 103.743 48.4819 103.608 47.5076C103.41 46.0661 104.051 44.6987 105.615 44.4874C106.423 44.3775 107.321 44.7452 107.862 45.3879C107.569 43.1516 110.061 41.5263 111.855 43.196C112.705 43.9865 113.158 45.1425 113.698 46.157C114.004 46.7298 114.316 47.3004 114.621 47.8753C114.699 47.7823 114.784 47.6893 114.872 47.5984C114.419 46.2373 114.067 44.8424 113.77 43.4391C113.487 42.116 114.147 40.7422 115.509 40.3684C116.746 40.0258 118.296 40.7911 118.572 42.112C118.766 43.0417 118.996 43.9613 119.249 44.8762C119.422 44.834 119.593 44.8044 119.761 44.7832C119.775 44.6114 119.791 44.4385 119.809 44.2666L119.875 43.6552C120.023 42.2583 120.171 40.6637 120.9 39.4762C122.141 37.4473 125.325 38.2885 125.359 40.6873C125.378 41.9279 124.874 43.158 124.699 44.3859C124.623 44.9206 124.578 45.4617 124.553 46.0027C124.893 44.2063 125.359 42.433 125.898 40.6873C125.961 40.478 126.029 40.2688 126.094 40.0596ZM98.6284 109.336C101.422 108.903 103.975 110.465 105.63 112.652C105.931 113.052 105.733 113.616 105.461 113.952C105.265 114.199 105.002 114.229 104.704 114.267C104.363 114.311 103.931 114.034 103.781 113.736C102.716 111.606 100.817 110.26 98.6284 109.431C98.5883 109.416 98.5757 109.344 98.6284 109.336ZM102.501 71.1652L102.585 71.0742C103.151 70.4864 102.257 69.5886 101.691 70.1776C101.094 70.7977 100.698 71.551 100.317 72.3144C99.9537 73.0423 101.044 73.6852 101.409 72.9546L101.575 72.6225C101.836 72.1061 102.114 71.596 102.501 71.1652ZM94.6559 69.9589C95.457 69.8236 95.1174 68.6014 94.3196 68.7362C93.2862 68.9108 92.2568 69.1092 91.2231 69.284C90.4222 69.4193 90.7618 70.6415 91.5596 70.5069C92.593 70.3321 93.6225 70.1337 94.6559 69.9589ZM142.379 61.6146C141.605 61.3556 141.273 62.58 142.043 62.8374C143.107 63.1931 144.162 63.5577 145.171 64.0516C145.899 64.4084 146.541 63.3151 145.809 62.9566C144.701 62.4145 143.547 62.0051 142.379 61.6146ZM94.4738 59.9711C93.718 59.668 93.3897 60.8941 94.1375 61.194L96.8698 62.2894C97.6255 62.5925 97.9538 61.3666 97.206 61.0667L94.4738 59.9711ZM151.92 56.9937L151.82 56.9306C151.135 56.4855 150.5 57.5828 151.181 58.0256C151.581 58.2854 152.068 58.4616 152.434 58.7711L152.511 58.8395C153.102 59.3996 153.998 58.5047 153.405 57.9428C152.971 57.532 152.422 57.3033 151.92 56.9937Z" fill="black"/>
<path fill-rule="evenodd" clip-rule="evenodd" d="M132.007 124.857C133.697 121.475 149.202 122.995 149.202 122.995L150.512 133.744C150.512 133.744 143.031 136.15 138.577 135.646C134.124 135.142 130.316 128.239 132.007 124.857Z" fill="white"/>
<path fill-rule="evenodd" clip-rule="evenodd" d="M133.099 130.503C132.564 129.356 143.648 126.23 147.08 128.366C150.512 130.503 149.439 133.416 149.439 133.416C149.439 133.416 135.004 136.71 133.099 130.503Z" fill="#FF8181"/>
<path fill-rule="evenodd" clip-rule="evenodd" d="M131.045 122.856C133.632 119.848 137.99 119.639 141.599 120.391C143.916 120.873 146.171 121.677 148.524 121.975C149.622 122.115 150.733 122.156 151.84 122.136C152.927 122.116 154.016 121.897 155.099 121.937C155.266 121.944 155.329 122.162 155.185 122.251C153.698 123.164 151.696 123.457 149.94 123.636C149.946 123.766 149.954 123.893 149.972 124C150.02 124.287 150.063 124.572 150.099 124.861C150.178 125.512 150.267 126.161 150.356 126.811C150.532 128.09 150.587 129.409 150.895 130.666L150.949 130.875C151.02 131.139 151.037 131.378 151.013 131.592L151.084 131.56L151.31 131.451L151.458 131.381C151.997 131.131 152.512 130.948 153.146 131.009C153.629 131.055 154.035 131.385 154.038 131.901C154.05 134.216 150.931 134.961 149.146 135.404L148.623 135.533C146.352 136.087 144.033 136.573 141.698 136.689C137.95 136.875 133.737 135.841 131.285 132.799C128.998 129.961 128.578 125.723 131.045 122.856ZM148.067 132.584C147.674 129.098 143.392 128.906 142.16 131.117C141.613 128.035 133.527 130.85 134.159 131.463C136.556 133.785 140.193 133.994 143.32 133.564C144.912 133.346 146.505 132.99 148.067 132.584ZM143.315 123.447L142.239 123.292L141.814 123.234C139.146 122.876 136.144 122.691 133.95 124.403C133.149 125.028 132.698 125.843 132.53 126.718C134.606 126.41 136.69 126.176 138.78 125.98L139.35 125.928C140.658 125.81 141.965 125.685 143.271 125.555L144.2 125.461L145.128 125.365C145.455 125.33 147.656 125.218 148.07 125.293C148.114 124.921 148.171 124.116 148.265 123.754C146.701 123.807 145.144 123.691 143.589 123.485L143.315 123.447ZM148.271 107.866C149.866 108.836 152.297 111.098 150.581 113.503C148.56 115.624 145.652 113.193 144.219 112.093C142.889 111.241 141.396 113.433 142.629 114.428C152.986 122.099 157.19 108.12 149.078 106.726C148.184 106.572 147.853 107.566 148.271 107.866ZM151.126 111.953L151.202 111.911L151.228 111.896C151.273 111.867 151.245 111.87 151.143 111.905L151.066 111.933V111.987C151.086 111.975 151.107 111.965 151.126 111.953ZM130.694 103.334L130.694 103.287C130.697 101.939 131.481 98.8616 133.421 98.8616C134.632 98.8616 135.368 100.956 135.495 103.115L135.5 103.203C135.556 104.545 135.188 107.479 133.421 107.479C131.635 107.479 130.712 104.7 130.694 103.334ZM159.248 102.911L159.248 102.864C159.245 101.516 158.46 98.4389 156.521 98.4389C155.34 98.4389 154.611 100.43 154.457 102.53L154.446 102.692C154.37 103.989 154.714 107.056 156.521 107.056C158.307 107.056 159.229 104.277 159.248 102.911ZM131.8 89.6727C133.383 89.4319 135.479 89.8893 136.217 91.4994C136.546 92.2167 136.157 93.0099 135.328 93.0496C133.325 93.1456 131.528 92.6996 129.77 94.0026C129.013 94.5634 128.377 95.34 127.843 96.1145L127.642 96.4093L127.474 96.6522C127.112 97.1853 126.768 97.7645 126.822 98.4078C126.838 98.5982 126.643 98.7789 126.458 98.7713C125.306 98.7239 125.182 97.2787 125.334 96.4107C125.616 94.7998 126.395 93.2876 127.475 92.0696C128.61 90.7905 130.107 89.9303 131.8 89.6727ZM153.601 91.6278C154.692 90.9259 156.088 90.6562 157.367 90.7595C159.888 90.9626 164.117 93.1066 163.561 96.187C163.389 97.137 162.068 97.6383 161.29 97.1112C160.453 96.5446 160.249 95.6639 159.626 94.9233C159.13 94.3318 158.5 93.9038 157.825 93.5392C157.161 93.1796 156.392 92.9617 155.637 92.8822L155.512 92.8703C155.058 92.8316 152.765 92.842 153.102 93.6981C153.168 93.8657 152.918 93.9985 152.804 93.8717C152.101 93.0939 152.897 92.0805 153.601 91.6278Z" fill="black"/>
</svg>
