<svg width="240" height="324" viewBox="0 0 240 324" fill="none" xmlns="http://www.w3.org/2000/svg">
<path fill-rule="evenodd" clip-rule="evenodd" d="M189.444 219.877C188.032 215.534 189.714 210.519 188.615 205.838C188.238 203.987 187.521 197.108 186.802 193.086C186.4 190.836 188.807 190.137 189.177 189.239C191.78 181.172 172.79 162.193 171.63 161.494C169.893 160.49 168.356 159.625 166.659 158.599C161.708 156.859 155.77 152.019 151.282 155.128C143.505 143.546 146.581 129.277 142.361 127.581C138.141 125.885 125.679 122.457 118.554 126.834C114.284 129.995 114.598 135.437 112.65 139.925C111.506 142.037 110.944 145.097 109.613 146.475C105.089 151.156 99.4474 151.963 93.1406 152.758C92.6602 152.818 92.1549 151.511 91.6881 151.673C81.0495 155.351 68.6705 156.425 56.6223 177.022C54.9208 179.967 50.3306 184.693 51.8654 188.097C41.7525 211.623 31.8017 264.573 59.5506 277.779C60.4376 278.346 66.455 275.303 67.4354 275.331C69.0698 275.378 65.9382 279.348 67.4354 278.64C78.4274 279.475 138.911 277.322 162.095 279.475C178.038 279.355 188.136 282.152 191.817 279.355C190.345 275.798 190.413 271.987 190.879 268.225C194.267 265.703 190.078 247.928 190.433 242.723C193.604 238.92 191.079 224.655 189.444 219.877Z" fill="#D08B5B"/>
<path fill-rule="evenodd" clip-rule="evenodd" d="M92.5189 152.723L92.4168 152.789C92.3999 152.8 92.3833 152.811 92.3674 152.823C92.2588 152.905 92.2759 153.052 92.4039 153.102C92.5742 153.168 92.7532 153.219 92.9374 153.258C93.4968 154.07 93.9339 155.074 94.2392 155.582C95.1162 157.043 102.644 166.231 103.769 167.412C105.598 169.33 114.6 176.543 114.722 176.399C116.17 177.264 117.671 178.041 119.229 178.703C128.453 182.624 140.282 182.98 148.209 176.467C148.799 176.628 154.403 168.557 155.269 165.665C155.692 165.783 156.215 162.684 155.923 162.731C156.178 160.979 153.108 154.687 152.817 154.386C152.861 154.372 152.905 154.359 152.949 154.346C152.974 154.402 153.033 154.443 153.101 154.426C153.687 154.273 154.28 154.192 154.873 154.204C155.324 154.213 158.542 155.68 158.667 155.741C158.744 155.777 158.821 155.814 158.898 155.852C184.648 168.235 188.617 188.358 189.507 188.313C189.132 188.788 178.958 203.179 178.411 204.451C178.297 201.701 180.177 275.014 180.309 276.545C180.363 277.176 180.367 278.666 180.456 279.266C179.809 279.302 157.166 277.755 115.06 278.009C101.614 278.09 68.3817 279.553 68.3817 279.553L68.3708 279.461C68.2755 278.564 68.3584 276.823 68.3452 275.928C69.6215 275.191 70.8741 274.407 72.1121 273.637C74.9309 271.883 92.3239 255.945 105.107 241.685C112.685 233.232 122.138 227.542 122.65 226.989C122.66 226.978 122.665 226.966 122.672 226.954C122.699 226.974 122.732 226.992 122.774 226.986C128.662 226.145 137.447 227.956 143.915 224.607C146.802 223.111 156.6 212.932 159.487 210.119C159.574 210.034 159.636 209.945 159.68 209.854C161.605 208.681 169.109 202.731 169.64 201.996L169.798 201.775C170.384 200.944 171.266 200.068 170.244 199.27C169.167 198.429 167.102 199.439 165.966 199.923L165.808 199.99C165.255 200.217 164.713 200.464 164.179 200.726C163.505 198.837 161.861 198.798 160.089 199.059C158.826 199.245 157.6 199.677 156.369 200.006C154.807 200.424 153.237 200.817 151.662 201.186C148.826 201.85 145.548 203.065 142.679 203.568C142.603 203.48 142.498 203.41 142.357 203.375C141.375 203.129 140.291 203.317 139.283 203.336C138.42 203.352 137.556 203.354 136.693 203.341L136.175 203.332C134.324 203.295 131.841 202.434 129.99 202.402L129.88 202.334L129.77 202.264C129.293 201.956 128.775 201.544 128.634 201.024C128.616 200.96 130.508 196.604 130.536 193.079C130.551 191.119 129.879 189.285 129.718 188.313C129.327 185.939 128.451 187.468 127.183 189.792C125.915 192.117 124.225 194.231 122.958 195.922C121.324 198.101 119.721 198.759 118.888 200.022C118.747 200.237 118.608 200.457 118.473 200.684C118.147 200.359 115.401 206.832 115.881 208.079C115.546 207.968 102.042 225.299 72.6761 237.769C72.8632 236.603 77.9577 205.855 76.6901 200.783C75.4225 195.71 58.6586 176.963 56.9154 176.547C57.0899 176.262 50.2817 180.916 62.5352 168.869C74.7887 156.822 82.954 154.782 89.0543 152.543C89.3957 152.437 89.7355 152.33 90.0737 152.221C89.9883 152.372 90.1819 152.539 90.3308 152.416C91.1741 151.719 91.9062 152.046 92.5189 152.723Z" fill="#9DDADB"/>
<path fill-rule="evenodd" clip-rule="evenodd" d="M184.39 193.84C182.869 196.053 181.472 198.331 180.208 200.701C179.557 201.923 178.949 203.17 178.403 204.442C178.289 201.692 178.264 198.909 177.943 196.186C177.92 195.989 177.592 195.894 177.557 196.134C177.203 198.603 177.144 201.136 177.01 203.631C176.855 203.584 176.685 203.557 176.497 203.557C174.671 203.557 172.873 203.706 171.055 203.854C170.24 203.92 169.387 203.97 168.556 204.1C169.225 203.361 169.848 202.58 170.423 201.766C171.01 200.935 171.68 199.636 170.658 198.838C169.529 197.957 167.314 199.11 166.222 199.558C165.669 199.785 165.127 200.032 164.593 200.295C163.919 198.405 161.852 198.155 160.081 198.416C158.818 198.602 157.592 199.034 156.361 199.363C154.798 199.781 153.229 200.174 151.654 200.543C148.818 201.207 145.962 201.788 143.093 202.291C143.017 202.202 142.912 202.133 142.771 202.098C141.789 201.852 140.705 202.04 139.697 202.059C138.661 202.078 137.625 202.077 136.589 202.055C134.738 202.018 132.889 202.002 131.038 201.97C130.512 201.651 129.845 201.193 129.682 200.593C129.478 199.844 130.115 199.014 130.41 198.376C131.545 195.927 131.942 193.186 131.497 190.519C131.418 190.043 131.254 189.523 131.018 189.036C133.045 189.253 135.047 189.4 137.085 189.467C141.156 189.599 145.226 189.738 149.298 189.769C157.441 189.829 165.583 189.83 173.726 189.77C178.33 189.736 182.923 189.694 187.521 189.459C187.147 189.934 186.782 190.42 186.426 190.912C186.353 190.89 186.257 190.93 186.268 191.021C186.272 191.053 186.275 191.085 186.279 191.117C185.63 192.024 185.005 192.945 184.39 193.84ZM175.336 278.057C173.444 277.996 171.552 277.936 169.66 277.876C165.946 277.757 162.231 277.639 158.518 277.521C151.16 277.287 143.802 277.061 136.443 276.858C129.102 276.655 121.757 276.441 114.414 276.67C107.054 276.9 99.7132 277.494 92.367 277.971C88.2829 278.236 84.196 278.465 80.1044 278.575C76.2075 278.679 72.2763 278.521 68.3855 278.799C68.2548 277.837 68.3509 276.878 68.3367 275.919C69.613 275.182 70.8656 274.398 72.1036 273.628C76.6172 270.819 80.8835 267.642 84.9077 264.169C85.5263 263.635 86.1329 263.09 86.7333 262.539C86.3154 263.452 86.6498 264.63 87.8475 265.017C89.308 265.488 90.8034 265.321 92.3203 265.285C93.8606 265.249 95.401 265.214 96.9415 265.182C99.9523 265.118 102.963 265.061 105.974 265.01C111.856 264.912 117.739 264.839 123.621 264.791C135.456 264.695 147.283 264.857 159.117 265.07C162.444 265.13 165.768 265.205 169.096 265.13C170.761 265.092 172.432 265.08 174.095 264.99C175.427 264.918 176.768 264.73 178.1 264.56C178.268 266.881 178.443 269.201 178.639 271.52C178.768 273.051 178.901 274.582 179.033 276.113C179.087 276.744 179.091 277.389 179.18 277.989C177.901 278.059 176.63 278.098 175.336 278.057ZM176.637 212.522C176.591 214.298 176.566 216.076 176.553 217.854C176.4 217.765 176.227 217.701 176.032 217.672C173.962 217.356 171.748 217.595 169.654 217.631C167.631 217.664 165.6 217.653 163.578 217.749C161.552 217.844 159.527 217.959 157.502 218.063C156.552 218.113 155.612 218.156 154.669 218.284C154.023 218.372 153.196 218.366 152.506 218.55C155.402 215.745 158.281 212.923 161.169 210.11C161.255 210.025 161.318 209.936 161.362 209.845C163.287 208.672 165.135 207.351 166.809 205.838C168.136 206.35 169.647 206.415 171.055 206.529C172.874 206.677 174.671 206.826 176.497 206.826C176.62 206.826 176.736 206.814 176.844 206.793C176.755 208.701 176.687 210.61 176.637 212.522ZM101.458 247.032C105.879 248.444 110.668 248.429 115.266 248.711C120.169 249.013 125.064 249.264 129.972 249.455C139.775 249.836 149.571 250.354 159.372 250.766C164.971 251.001 170.568 251.26 176.164 251.542C176.561 251.562 176.939 251.46 177.273 251.274C177.461 254.96 177.681 258.645 177.938 262.328C177.969 262.789 178.005 263.249 178.038 263.709C175.404 263.379 172.79 263.063 170.136 262.838C167.157 262.587 164.179 262.374 161.195 262.176C155.38 261.791 149.556 261.274 143.731 261.086C131.856 260.702 119.954 260.833 108.075 260.917C104.714 260.941 101.353 260.974 97.9917 261.014C96.3113 261.035 94.6309 261.057 92.9505 261.082C91.2616 261.106 89.4466 260.931 87.8475 261.52C87.8323 261.526 87.8194 261.534 87.8044 261.54C92.6287 256.967 96.9506 251.913 101.458 247.032ZM116.997 232.413C124.385 233.758 131.888 233.666 139.376 233.799C147.038 233.936 154.711 233.845 162.374 233.861C166.727 233.87 171.118 234.062 175.455 233.674C175.968 233.628 176.365 233.434 176.648 233.158C176.727 237.773 176.872 242.387 177.072 246.998C176.79 246.878 176.483 246.805 176.164 246.787C166.371 246.21 156.579 245.687 146.774 245.368C136.978 245.049 127.169 244.67 117.368 244.789C112.584 244.846 107.526 244.54 102.808 245.583C104.601 243.677 106.433 241.807 108.348 240.016C111.141 237.405 114.121 234.96 116.997 232.413ZM122.641 226.98C122.651 226.969 122.656 226.957 122.664 226.945C122.69 226.965 122.723 226.978 122.765 226.977C129.681 226.821 137.439 229.004 143.906 225.654C146.794 224.159 149.185 221.796 151.506 219.525C151.507 219.541 151.509 219.558 151.51 219.575C151.525 219.76 151.603 219.981 151.79 220.063C152.553 220.398 153.446 220.42 154.265 220.539C155.207 220.676 156.133 220.757 157.083 220.814C159.178 220.94 161.273 221.073 163.369 221.191C165.46 221.31 167.56 221.319 169.654 221.372C171.754 221.424 173.953 221.678 176.032 221.378C176.222 221.351 176.392 221.291 176.543 221.208C176.546 223.897 176.57 226.586 176.596 229.274C176.6 229.712 176.608 230.15 176.613 230.588C176.333 230.331 175.947 230.151 175.455 230.108C171.601 229.768 167.718 229.919 163.851 229.932C160.053 229.945 156.255 229.957 152.457 229.97C144.789 229.996 137.127 230.071 129.46 230.217C125.731 230.288 122.019 230.601 118.345 231.205C119.833 229.849 121.279 228.454 122.641 226.98ZM62.556 275.879C61.1403 276.312 59.735 276.125 58.3165 276.421C58.2293 276.439 58.1488 276.473 58.0751 276.518C53.8273 274.702 50.9959 271.059 49.0582 266.977C47.0156 262.673 45.6077 258.073 44.6646 253.41C42.7201 243.796 42.7167 233.828 43.7232 224.102C44.7122 214.547 46.6702 205.044 49.4644 195.854C51.3829 189.545 53.8279 183.17 57.2228 177.417C61.1429 180.045 64.183 183.828 67.047 187.525C70.4693 191.945 73.5534 196.621 76.314 201.48C76.0286 202.312 75.9842 203.356 75.8473 204.1C75.5834 205.535 75.3451 206.987 75.1577 208.434C74.7574 211.527 74.3733 214.621 73.9641 217.713C73.1547 223.826 72.1884 229.922 71.1208 235.995C71.0344 236.488 71.1726 236.904 71.4267 237.216C69.3094 238.332 67.2198 239.498 65.1838 240.762C60.7077 243.541 56.5244 246.778 53.24 250.929C53.1546 251.037 53.2884 251.181 53.394 251.083C60.4372 244.573 69.1875 240.485 77.7787 236.446C82.1691 234.381 86.5379 232.284 90.7501 229.87C95.1551 227.346 99.3559 224.494 103.382 221.404C107.98 217.875 112.308 214.016 116.365 209.877C116.843 209.389 116.727 208.778 116.367 208.392C116.489 208.354 116.587 208.249 116.593 208.072C116.69 205.369 117.502 203.066 119.091 200.878C120.564 198.848 122.443 197.175 124.137 195.338C124.89 194.522 125.61 193.672 126.252 192.765C126.914 191.831 127.317 190.801 127.892 189.825C128.565 188.686 129.137 189.268 129.448 190.3C129.802 191.469 129.78 192.839 129.638 194.041C129.488 195.313 129.1 196.554 128.543 197.704C128.019 198.784 127.415 199.883 127.767 201.121C128.347 203.155 130.831 204.334 132.714 204.792C134.809 205.302 137.002 205.203 139.124 204.938C141.782 204.607 144.427 204.122 147.054 203.605C150.096 203.008 153.121 202.318 156.122 201.539C157.532 201.173 158.933 200.691 160.357 200.388C160.865 200.28 161.805 200.118 162.402 200.382C154.73 204.958 146.365 208.006 137.87 210.662C136.815 210.992 137.248 212.586 138.328 212.322C147.454 210.09 156.041 205.947 164.212 201.409C164.337 201.339 164.443 201.232 164.521 201.104C165.343 200.815 166.179 200.564 167.031 200.356C167.412 200.264 169.372 199.617 169.617 199.866C169.964 200.217 168.763 201.36 168.463 201.693C166.327 204.059 163.787 205.991 161.038 207.587C158.249 209.207 155.281 210.498 152.3 211.716C148.96 213.081 145.43 214.154 142.184 215.723C140.894 216.346 141.799 218.463 143.158 218.034C144.909 217.48 146.61 216.667 148.311 215.976C149.757 215.389 151.203 214.803 152.64 214.196C153.642 213.773 154.637 213.335 155.623 212.878C154.146 214.268 152.67 215.658 151.194 217.049C148.637 219.456 146.209 222.199 143.083 223.888C139.996 225.556 136.474 225.75 133.037 225.714C131.312 225.696 129.594 225.641 127.868 225.711C126.053 225.784 124.44 226.063 122.719 226.635C122.687 226.645 122.664 226.664 122.645 226.686C122.585 226.613 122.483 226.576 122.377 226.638C117.701 229.404 113.439 232.992 109.34 236.538C105.115 240.193 101.139 244.079 97.3516 248.185C93.726 252.114 90.1294 256.058 86.1842 259.674C82.3322 263.204 78.2156 266.409 73.9172 269.376C71.5751 270.992 69.1751 272.549 66.6918 273.94C65.3648 274.684 64.0172 275.433 62.556 275.879ZM62.9492 169.486C64.6237 167.604 66.426 165.86 68.3332 164.247C69.1746 164.496 70.0579 164.566 70.948 164.575C72.3062 164.588 73.6674 164.645 75.0257 164.631C77.641 164.604 80.2552 164.522 82.8711 164.508C88.2198 164.478 93.5701 164.477 98.9188 164.523C99.6196 164.53 100.125 164.23 100.437 163.794C101.52 165.022 102.636 166.222 103.761 167.403C105.589 169.321 107.538 171.151 109.613 172.819C109.209 172.821 108.805 172.825 108.403 172.822C106.553 172.81 104.703 172.798 102.853 172.788C99.1406 172.768 95.428 172.753 91.7154 172.743C84.3346 172.723 76.9307 172.785 69.5593 173.163C67.5134 173.268 65.4515 173.31 63.4127 173.51C62.307 173.618 61.2024 173.744 60.0977 173.862C59.8717 173.886 59.6549 173.916 59.4422 173.95C60.5241 172.395 61.6894 170.902 62.9492 169.486ZM92.5104 152.714C92.4605 152.748 92.4067 152.778 92.3589 152.814C92.2503 152.896 92.2674 153.043 92.3955 153.093C92.5658 153.159 92.7447 153.21 92.9289 153.249C93.4884 154.061 93.9255 155.065 94.2308 155.573C95.1077 157.034 96.1161 158.426 97.142 159.785C97.3482 160.058 97.5584 160.328 97.7695 160.597C92.8015 160.586 87.8361 160.611 82.8711 160.799C80.2571 160.898 77.6342 160.981 75.0257 161.177C73.9531 161.258 72.8811 161.393 71.8119 161.527C77.3767 157.503 83.6348 154.43 90.118 152.149C90.1091 152.159 90.1001 152.166 90.0912 152.176C89.9484 152.335 90.1615 152.54 90.3223 152.408C91.1657 151.71 91.8977 152.037 92.5104 152.714ZM117.612 200.014C117.471 200.228 117.332 200.449 117.197 200.675C116.871 200.35 116.416 200.133 115.83 200.115C109.322 199.911 102.817 199.734 96.3052 199.729C93.0939 199.727 89.8535 199.619 86.6463 199.778C85.0358 199.858 83.4259 199.953 81.8163 200.044C80.6908 200.108 79.4953 200.188 78.3963 200.514C75.8634 196.082 73.0516 191.821 69.981 187.746C76.9478 188.601 84.0339 188.51 91.0402 188.748C98.9782 189.017 106.921 189.074 114.861 189.263C117.039 189.314 119.218 189.371 121.395 189.432C122.519 189.463 123.643 189.496 124.768 189.53C125.119 189.54 125.483 189.55 125.847 189.54C125.819 189.597 125.791 189.654 125.764 189.71C125.151 190.977 124.38 192.142 123.482 193.224C121.573 195.524 119.266 197.505 117.612 200.014ZM109.074 213.666C108.833 212.995 108.246 212.48 107.31 212.522C101.978 212.765 96.6356 212.933 91.3093 213.284C88.7148 213.455 86.1096 213.57 83.5193 213.797C82.1832 213.914 80.8495 214.132 79.5191 214.305C78.6071 214.424 77.6522 214.562 76.7773 214.887C76.947 213.013 77.0965 211.138 77.2265 209.26C77.3306 207.752 77.3623 206.229 77.3543 204.717C77.3503 203.951 77.3243 203.181 77.2873 202.416C77.3659 202.432 77.4447 202.44 77.522 202.43C77.6585 202.413 77.7859 202.397 77.9042 202.365C79.1302 202.845 80.5178 202.951 81.8162 203.044C83.3564 203.154 84.8961 203.271 86.4362 203.381C89.7132 203.615 93.021 203.599 96.3052 203.706C102.77 203.917 109.236 204.04 115.703 204.213C115.403 205.501 115.392 206.823 115.872 208.07C115.538 207.959 115.153 208.01 114.824 208.335C112.962 210.176 111.043 211.951 109.074 213.666ZM90.2644 227.358C90.1328 226.994 89.8843 226.659 89.5903 226.433C88.4596 225.561 86.3955 226.063 85.0383 226.129C83.4316 226.208 81.8247 226.286 80.218 226.365C79.7304 226.389 77.2417 226.516 75.4138 226.906C75.7915 224.052 76.1342 221.194 76.4405 218.331C76.5048 217.73 76.5644 217.128 76.6233 216.527C77.4844 216.804 78.4203 216.906 79.3085 216.948C80.6395 217.011 81.9766 217.119 83.3089 217.14C85.9706 217.182 88.6472 217.05 91.3093 217.006C96.1034 216.926 100.898 216.697 105.69 216.508C100.879 220.415 95.7952 223.979 90.4924 227.222C90.4167 227.268 90.3401 227.312 90.2644 227.358ZM75.1224 229.051C75.5274 229.105 75.9291 229.123 76.2363 229.154C77.7785 229.31 79.2967 229.451 80.8467 229.473C82.3837 229.496 83.9205 229.518 85.4574 229.541C85.7843 229.545 86.1111 229.55 86.4379 229.555C82.3909 231.767 78.2196 233.747 74.1073 235.833C74.4696 233.576 74.8079 231.315 75.1224 229.051ZM119.221 178.694C128.444 182.615 140.274 182.971 148.2 176.458C148.988 176.673 149.859 176.745 150.554 176.815C152.117 176.972 153.665 177.116 155.235 177.165C158.295 177.261 161.358 177.404 164.42 177.442C170.613 177.518 176.807 177.554 183 177.609C183.527 177.614 183.949 177.453 184.269 177.195C184.896 178.259 185.48 179.35 186.012 180.468C186.789 182.099 187.448 183.784 187.988 185.508C187.872 185.488 187.752 185.474 187.623 185.471C179.484 185.331 171.338 185.565 163.197 185.599C155.054 185.633 146.912 185.598 138.77 185.656C136.516 185.672 134.279 185.673 132.032 185.84C130.862 185.927 129.678 185.965 128.52 186.154C128.39 186.175 128.258 186.193 128.125 186.212C126.573 185.304 124.645 185.494 122.871 185.46C120.833 185.422 118.796 185.388 116.758 185.357C112.753 185.298 108.748 185.255 104.743 185.227C96.7941 185.173 88.8646 185.376 80.9207 185.653C76.9683 185.791 73.0309 186.024 69.1294 186.633C68.8674 186.294 68.608 185.953 68.3427 185.616C65.5782 182.111 62.301 177.624 57.752 176.538C57.9265 176.254 58.1036 175.971 58.2834 175.69C61.4351 176.521 64.9119 176.479 68.132 176.653C71.8438 176.854 75.5477 176.993 79.2639 177.084C86.6509 177.265 94.0364 177.379 101.425 177.492C103.475 177.523 105.526 177.556 107.577 177.59C108.683 177.608 109.789 177.63 110.895 177.647C111.513 177.656 112.065 177.654 112.654 177.449C113.199 177.259 113.731 176.974 114.258 176.738C114.442 176.656 114.592 176.534 114.714 176.39C116.162 177.255 117.662 178.032 119.221 178.694ZM155.261 165.656C156.421 165.979 157.618 166.032 158.845 166.125C160.454 166.247 162.061 166.267 163.675 166.277C166.248 166.294 168.822 166.276 171.395 166.205C172.5 166.175 173.146 165.435 173.337 164.587C173.364 164.609 173.391 164.63 173.418 164.652C176.549 167.233 179.386 170.184 181.79 173.452C176 173.47 170.21 173.474 164.42 173.513C161.359 173.533 158.295 173.659 155.235 173.738C153.734 173.776 152.255 173.901 150.76 174.043C150.73 174.046 150.699 174.048 150.669 174.051C150.827 173.868 150.984 173.683 151.138 173.492C152.925 171.277 154.394 168.548 155.261 165.656ZM192.906 281.939C193.417 280.533 193.219 279.025 193.19 277.547C193.16 276.03 193.144 274.513 193.139 272.996C193.129 270.03 193.109 267.065 193.076 264.099C193.01 258.099 192.94 252.094 192.704 246.098C192.238 234.245 191.339 222.42 189.873 210.646C189.16 204.922 188.275 199.21 187.074 193.567C187.091 193.545 187.108 193.521 187.125 193.498C188.32 191.9 189.68 190.423 190.855 188.814C190.959 188.671 191.002 188.488 191.001 188.303C191.044 188.282 191.087 188.26 191.131 188.235C192.105 187.68 191.225 186.167 190.251 186.73C190.364 186.665 188.746 182.511 188.574 182.093C187.959 180.59 187.266 179.122 186.485 177.698C186.014 176.839 185.51 175.998 184.982 175.173C184.889 174.557 184.557 173.986 183.985 173.68C182.982 172.242 181.898 170.861 180.743 169.544C176.015 164.155 170.109 159.804 163.656 156.705C162.724 156.257 161.764 155.884 160.808 155.493C159.789 155.077 158.845 154.532 157.841 154.095C156.208 153.384 154.596 153.425 152.992 154.178C152.855 154.242 152.953 154.453 153.093 154.417C154.126 154.147 155.183 154.102 156.219 154.395C157.233 154.681 158.004 155.314 158.89 155.843C160.468 156.784 162.233 157.398 163.85 158.277C165.989 159.44 168.08 160.717 170.079 162.118C168.008 162.228 165.934 162.307 163.86 162.362C162.32 162.403 160.78 162.41 159.242 162.5C158.147 162.563 157.009 162.545 155.914 162.722C156.178 160.908 156.179 159.077 155.849 157.31C155.849 157.309 155.849 157.308 155.849 157.308C155.769 156.882 155.672 156.459 155.554 156.041C155.301 155.152 154.491 155.019 153.902 155.355C153.844 155.312 153.785 155.27 153.729 155.224C153.024 154.652 152.39 153.967 151.839 153.247C150.693 151.752 149.767 150.021 149.066 148.276C148.355 146.51 147.852 144.661 147.359 142.824C147.112 141.903 146.845 140.987 146.593 140.067C146.374 139.267 146.215 138.383 145.813 137.654C145.737 137.518 145.51 137.544 145.474 137.699C145.261 138.612 145.374 139.653 145.413 140.584C145.456 141.617 145.515 142.641 145.653 143.667C145.938 145.795 146.398 147.886 147.134 149.907C147.841 151.844 148.773 153.653 150.039 155.285C150.88 156.369 152.074 157.805 153.458 158.39C153.639 160.426 153.618 162.463 153.137 164.479C152.509 167.117 151.304 169.625 149.65 171.773C146.182 176.278 140.815 178.823 135.217 179.347C129.425 179.89 123.498 178.594 118.293 176.046C112.504 173.211 107.702 168.838 103.388 164.118C100.902 161.397 98.3234 158.719 96.0189 155.841C95.6105 155.33 94.9569 154.295 94.1815 153.362C94.9706 153.354 95.7804 153.236 96.4789 153.147C97.9239 152.961 99.3363 152.674 100.748 152.315C103.389 151.643 106.173 150.708 108.48 149.23C113.361 146.101 115.267 142.133 115.918 136.665C116.124 134.937 113.136 134.517 112.858 136.251C112.431 138.916 111.784 140.213 110.934 142.773C110.116 145.234 108.931 146.15 106.667 147.507C104.541 148.78 102.126 149.52 99.7841 150.285C98.4865 150.708 97.1735 151.094 95.8649 151.484C95.0319 151.732 94.0429 151.948 93.1979 152.331C92.757 151.944 92.297 151.652 91.8339 151.541C91.8679 151.484 91.8238 151.395 91.7384 151.412C91.6024 151.439 91.4667 151.469 91.3307 151.497C91.194 151.507 91.0579 151.534 90.9221 151.583C82.7659 153.35 74.9334 157.113 68.2915 162.238C67.9567 162.378 67.6328 162.549 67.3246 162.766C67.1659 162.877 67.0607 163.054 67.0305 163.238C66.032 164.053 65.0632 164.899 64.127 165.775C56.5877 172.829 51.8108 182.213 48.4666 191.865C45.1723 201.374 42.9424 211.345 41.7162 221.329C40.4661 231.505 40.322 241.893 42.1351 252.012C43.1086 257.446 44.6847 262.785 47.011 267.797C49.1 272.298 52.5003 277.425 57.8412 277.973C57.8583 277.99 57.8744 278.008 57.8936 278.024C59.9891 279.751 63.1091 278.558 65.3 277.527C65.6473 277.363 65.9919 277.191 66.335 277.015C66.1537 277.713 66.072 278.444 66.0341 279.129C65.9553 280.552 67.9605 280.632 68.3401 279.452C71.5905 280.023 74.9469 280.031 78.2344 280.013C81.9077 279.993 85.5798 279.866 89.2489 279.693C96.5287 279.349 103.8 278.824 111.085 278.586C125.835 278.103 140.626 279.135 155.364 279.655C159.498 279.801 163.633 279.947 167.768 280.093C171.992 280.242 176.212 280.27 180.402 280.842C181.943 281.052 182.533 279.541 182.099 278.6C182.207 277.968 182.099 277.275 182.04 276.53C181.929 275.139 181.824 273.747 181.726 272.355C181.535 269.64 181.35 266.925 181.175 264.209C180.819 258.706 180.514 253.198 180.216 247.691C179.625 236.742 179.172 225.785 178.839 214.825C178.758 212.154 178.652 209.482 178.518 206.812C178.677 206.559 178.836 206.306 178.99 206.049C179.502 205.195 180.005 204.335 180.523 203.484C181.564 201.779 182.611 200.085 183.704 198.413C184.649 196.97 185.624 195.549 186.642 194.157C187.906 204.837 189.03 215.528 189.546 226.276C190.114 238.115 190.416 249.972 190.58 261.822C190.625 265.133 190.656 268.444 190.692 271.755C190.71 273.479 190.728 275.202 190.714 276.926C190.7 278.575 190.451 280.379 191.036 281.939C191.377 282.85 192.569 282.866 192.906 281.939Z" fill="black"/>
<path fill-rule="evenodd" clip-rule="evenodd" d="M150.989 69.0517C137.124 57.7538 114.904 54.0854 100.061 65.4837C88.5283 76.1808 83.7557 106.578 85.7966 121.853C86.3642 131.65 93.8304 142.755 104.79 139.656C106.652 139.473 108.459 138.757 110.337 138.608C112.584 138.348 114.847 138.344 117.09 138.661C121.976 139.354 126.307 141.955 131.049 143.171C139.849 145.427 149.667 143.909 157.241 138.828C182.272 122.33 170.934 85.0192 150.989 69.0517Z" fill="#D08B5B"/>
<path fill-rule="evenodd" clip-rule="evenodd" d="M149.143 143.442C149.4 143.353 149.657 143.26 149.912 143.165C149.929 143.225 149.957 143.281 149.988 143.337C150.024 143.425 150.06 143.512 150.1 143.598C149.78 143.601 149.459 143.543 149.143 143.442ZM148.629 33.9583C148.515 33.7028 148.384 33.4576 148.236 33.2207C148.595 33.3372 148.953 33.4978 149.278 33.7049C149.059 33.7789 148.843 33.8634 148.629 33.9583ZM93.8591 67.3857C93.8444 67.3832 93.8298 67.3811 93.8153 67.3785C94.0033 66.8766 94.3383 66.4027 94.7083 66.0605C94.7747 65.999 94.8466 65.9422 94.9162 65.8834C94.5234 66.3524 94.1671 66.8527 93.8591 67.3857ZM194.073 119.874C193.888 118.112 193.651 116.356 193.346 114.61C193.053 112.938 192.806 111.15 191.956 109.666C191.113 108.189 190.268 106.754 189.264 105.454C189.408 104.79 189.598 104.167 189.762 103.664C190.71 100.768 191.645 97.091 189.673 94.4005C189.216 93.777 188.657 93.2994 188.018 92.8682C187.746 92.6843 187.295 92.5174 187.086 92.2637C186.939 92.0841 186.99 92.1813 186.983 92.0925C186.947 91.6149 188.065 90.6068 188.326 90.2284C188.815 89.5287 189.18 88.7405 189.458 87.9353C190.559 84.7481 189.81 81.2376 189.149 78.0439C188.799 76.3512 188.413 74.654 188.286 72.9252C188.168 71.302 188.389 69.7169 188.52 68.1022C188.647 66.5084 188.613 64.8643 187.932 63.3889C187.599 62.6703 187.095 62.0362 186.481 61.5417C185.883 61.0579 185.136 60.7768 184.553 60.2949C183.971 59.8149 184.137 59.1663 184.289 58.5026C184.498 57.6023 184.761 56.7083 184.786 55.7783C184.833 54.1573 184.173 52.5783 183.142 51.3527C182.079 50.0867 180.562 49.2305 178.921 49.0382C178.171 48.9494 177.433 49.0997 176.687 49.0468C175.949 48.9961 175.789 48.6262 175.649 47.9499C175.329 46.4007 175.46 44.8706 174.699 43.4249C174.024 42.1399 172.824 41.2689 171.498 40.7556C169.068 39.8129 166.241 40.0074 163.677 40.563C162.163 36.0995 157.439 33.1723 152.79 33.1364C152.065 31.9021 150.836 30.9806 149.434 30.4393C147.115 29.5411 144.659 30.0655 142.243 30.0655H142.232C141.99 30.0505 141.747 30.0443 141.505 30.0464C141.277 30.0335 141.049 30.0145 140.822 29.9894C138.072 29.6637 135.353 28.5351 132.629 29.6406C131.415 30.1331 130.449 30.8918 129.838 31.8598C128.917 32.1111 128.008 32.3988 127.116 32.7327C123.252 32.8339 119.423 34.9115 117.469 38.2785C114.718 37.9657 111.733 38.4962 109.913 40.7492C109.439 41.3355 109.072 42.0243 108.829 42.7556C106.974 43.3571 105.257 44.4288 104.133 46.0431C103.108 47.5162 102.911 49.4209 103.605 51.0022C101.948 52.205 100.654 53.9269 100.031 55.9601C99.6519 57.1954 99.5956 58.4718 99.8393 59.6877C98.1437 60.0647 96.5218 60.7637 95.0848 61.8126C93.5789 62.9114 91.6982 64.6603 91.5991 66.6732C91.5917 66.821 91.5974 66.9687 91.6092 67.116C88.2941 66.8825 84.9137 67.4455 82.6729 70.11C80.9903 72.1092 80.259 74.6836 80.7081 77.0275C76.7636 77.8306 73.0339 79.8976 70.4324 82.9538C68.5415 85.1751 66.8613 87.9987 66.9623 91.0229C66.9939 91.934 67.207 92.8513 67.576 93.6988V93.7007C67.4178 93.9989 67.2553 94.3307 67.0993 94.6837C64.6559 96.3975 62.8807 99.084 61.8814 102.045C61.0742 104.444 60.5661 107.559 61.4282 110C61.5591 110.372 61.7256 110.723 61.9196 111.048C61.7571 111.222 61.6034 111.395 61.4537 111.571C59.807 113.5 58.1394 115.931 58.2534 118.587C58.2998 119.657 58.6959 120.733 59.3434 121.616C57.0663 123.93 55.2323 126.851 55.4134 130.112C55.5694 132.951 57.1234 135.834 59.5582 137.197C59.1515 139.384 59.6954 141.692 61.3944 143.4C62.2422 144.254 63.2412 144.816 64.2998 145.116C64.5359 147.692 66.8168 149.766 69.2391 150.362C69.6905 150.474 70.1417 150.541 70.5905 150.573C72.7704 151.645 75.3698 151.522 77.594 150.539C78.2497 151.374 79.1035 152.055 80.0986 152.543C80.5012 152.742 80.9273 152.906 81.3719 153.039C84.5132 153.971 87.7347 152.708 90.4815 151.233C90.5701 151.186 90.7324 151.127 90.8758 151.061C91.2553 151.486 91.9468 151.907 92.3073 152.114C93.5302 152.818 95.025 153.145 96.429 153.052C98.0756 152.942 99.5279 152.397 100.873 151.621C101.069 151.655 101.267 151.674 101.466 151.685C102.731 151.752 103.858 151.351 104.872 150.717C105.543 150.806 106.23 150.797 106.926 150.675C108.459 151.065 109.951 150.444 111.151 149.457C111.682 149.02 112.131 148.506 112.612 148.016C113.111 147.506 113.491 147.388 114.075 147.046C115.456 146.236 115.622 144.184 115.023 142.7C115.137 142.44 115.203 142.151 115.203 141.83C115.198 139.027 113.91 136.457 112.329 134.215C111.623 133.215 110.856 132.236 110.014 131.349C109.337 130.636 108.387 129.48 107.385 129.191C107.324 129.146 107.261 129.102 107.198 129.06C107.392 128.379 107.505 127.686 107.457 126.978C107.406 126.251 107.172 125.562 106.797 124.974C108.056 122.529 108.587 119.847 108.334 117.049C109.359 115.592 110.135 113.984 110.535 112.222C110.782 111.131 110.923 109.983 110.904 108.865C110.895 108.328 110.699 107.65 110.695 107.094C110.725 107.27 110.953 106.614 111.041 106.451C112.057 104.56 113.362 103.085 113.579 100.855C113.706 99.5509 113.398 98.1097 112.618 97.0403C113.117 95.0662 113.111 92.9462 112.325 91.0633C112.114 90.5603 111.872 90.0678 111.593 89.6007C111.722 89.2076 111.84 88.8103 111.992 88.4529C112.051 88.3113 112.11 88.1678 112.169 88.0241C112.74 87.5187 113.272 86.9673 113.719 86.426C114.709 85.2279 115.466 83.8541 115.561 82.2709C115.608 81.4783 115.422 80.7196 115.192 79.9674C115.091 79.6271 115.03 79.2488 114.909 78.917C114.842 78.7329 114.68 78.545 114.623 78.3717C114.61 78.3336 114.6 78.3019 114.591 78.2766C114.6 78.2512 114.606 78.1984 114.606 78.0988C114.608 77.3401 114.707 76.5982 114.712 75.8672C115.405 76.5689 116.24 77.0928 117.189 77.3995C119.101 78.0145 121.095 77.7355 122.788 76.7866C124.61 78.0378 126.656 79.1704 128.803 79.625C130.078 79.8953 131.356 79.7835 132.635 79.9505C133.907 80.1174 135.136 80.6733 136.333 81.1066C138.998 82.0724 141.656 83.0635 144.33 84.0042C146.488 84.7629 148.824 85.3653 151.085 84.9383C151.719 85.9188 152.544 86.7475 153.6 87.3562C154.356 87.7895 155.187 88.083 156.045 88.2291C156.804 88.358 157.694 88.3073 158.309 88.8293C158.91 89.3365 159.285 90.093 159.825 90.6638C160.426 91.3021 161.168 91.8558 161.946 92.2532C162.57 92.5723 163.207 92.8025 163.854 92.9527C163.797 94.3963 163.742 95.8377 163.725 97.2833C163.694 100.424 163.706 103.564 163.664 106.705C163.622 109.835 163.523 112.965 163.359 116.091C163.202 119.025 162.983 121.969 162.285 124.831C159.971 134.327 151.299 141.126 141.593 141.472C138.711 141.576 135.859 141.17 133.103 140.32C130.249 139.439 127.7 137.626 124.774 137.068C124.009 136.924 123.288 137.696 123.726 138.437C124.481 139.712 125.398 140.49 126.652 141.257C127.966 142.058 129.429 142.652 130.873 143.172C133.529 144.127 136.34 144.681 139.158 144.835C141.309 144.953 143.467 144.805 145.574 144.4C145.721 144.854 145.983 145.296 146.181 145.716C146.21 145.778 146.31 145.735 146.291 145.672C146.259 145.566 146.238 145.473 146.229 145.397C146.938 146.323 148.032 146.963 149.156 147.274C149.948 147.494 150.789 147.561 151.605 147.468C151.869 147.439 152.12 147.394 152.369 147.34C153.199 148.069 154.261 148.555 155.328 148.798C155.145 149.914 155.695 151.131 156.971 151.448C157.506 151.581 158.02 151.583 158.535 151.535C158.95 151.729 159.397 151.881 159.872 151.985C160.489 152.12 161.227 151.947 161.693 151.499C161.948 151.679 162.186 151.803 162.422 152.088C163.395 153.264 165.49 152.327 165.583 150.968C165.89 150.968 166.2 150.973 166.51 150.983C166.584 151.017 166.658 151.051 166.734 151.087C168.089 151.718 169.493 152.27 170.993 151.774C171.269 151.683 171.521 151.567 171.751 151.431C172.807 151.526 173.849 151.528 174.92 151.182C175.553 150.977 176.147 150.651 176.642 150.224C178.295 150.711 180.039 150.93 181.683 150.328C182.914 149.878 183.905 149.168 184.603 148.231C185.67 148.269 186.753 148.012 187.729 147.502C189.399 146.636 190.569 144.989 191.385 143.339C193.182 139.697 194.244 135.785 194.661 131.75C195.072 127.777 194.486 123.825 194.073 119.874Z" fill="black"/>
<path fill-rule="evenodd" clip-rule="evenodd" d="M149.372 128.003C148.022 128.014 146.504 127.507 145.489 127.11L145.224 127.005C144.346 126.653 143.443 126.249 142.77 125.571C142.555 125.35 142.326 125.101 142.21 124.839C142.141 124.685 142.113 124.526 142.179 124.368C142.422 124.344 142.653 124.313 142.871 124.273C142.975 124.254 143.075 124.234 143.151 124.234C143.433 124.232 143.712 124.268 143.99 124.303C144.03 124.308 144.07 124.313 144.111 124.318C144.327 124.345 144.543 124.374 144.758 124.403C145.384 124.487 146.007 124.57 146.642 124.601C147.101 124.623 147.582 124.597 148.067 124.57C149.325 124.502 150.626 124.408 151.595 125.29C151.849 125.521 151.955 125.812 151.955 126.108C151.955 126.468 151.804 126.835 151.573 127.122C151.05 127.773 150.244 127.996 149.372 128.003ZM156.736 116.649C156.148 117.531 155.17 118.098 153.828 118.036C151.163 117.914 147.982 116.908 145.749 115.453C145.168 115.075 144.791 114.469 144.723 113.82L144.603 112.666L143.953 113.627C143.885 113.727 143.817 113.827 143.749 113.927C143.561 114.202 143.373 114.477 143.195 114.759C142.514 115.842 141.89 116.935 141.323 118.082C140.921 118.894 140.628 119.802 140.334 120.718C139.837 122.265 139.357 123.787 138.295 124.874C138.135 125.038 137.888 125.097 137.662 125.068C137.463 125.043 137.268 124.945 137.173 124.75C135.904 122.17 137.61 119.061 138.994 116.9L139.14 116.674C140.424 114.721 142.519 112.136 144.919 111.784L145.194 112.223L145.593 111.956C146.247 111.52 147.109 111.54 147.864 111.881L148.619 112.222C150.025 112.853 151.411 113.436 152.932 113.755C153.043 113.778 153.154 113.799 153.264 113.82C153.369 113.839 153.474 113.856 153.579 113.873C153.556 113.769 153.532 113.666 153.508 113.563C153.482 113.454 153.456 113.345 153.428 113.236C153.4 113.124 153.369 113.012 153.338 112.901C153.216 112.457 153.079 112.017 152.916 111.586C152.302 109.968 151.321 108.454 150.367 107.01L150.255 106.84C150.118 106.633 149.968 106.417 149.814 106.194C149.07 105.122 148.245 103.959 148.186 102.792C149.174 102.854 150 103.468 150.727 104.002C151.725 104.735 152.65 105.573 153.49 106.483C155.117 108.249 156.578 110.507 157.219 112.841C157.585 114.178 157.424 115.616 156.736 116.649ZM130.694 103.334L130.694 103.286C130.696 101.938 131.481 98.8613 133.421 98.8613C134.632 98.8613 135.368 100.956 135.495 103.114L135.5 103.202C135.556 104.545 135.188 107.478 133.421 107.478C131.635 107.478 130.712 104.7 130.694 103.334ZM159.248 102.911L159.248 102.863C159.245 101.516 158.46 98.4386 156.521 98.4386C155.34 98.4386 154.611 100.429 154.457 102.53L154.446 102.692C154.37 103.989 154.714 107.056 156.521 107.056C158.307 107.056 159.229 104.277 159.248 102.911ZM137.226 94.2128C136.969 94.243 136.713 94.2824 136.457 94.3231C135.711 94.4419 134.97 94.5846 134.233 94.7509C132.834 95.0669 131.446 95.4658 130.085 95.9167C128.811 96.3388 127.556 96.8157 126.303 97.2927C126.236 97.3181 126.169 97.3436 126.102 97.369C125.659 97.5374 125.218 97.7261 124.775 97.9154C124.102 98.2035 123.425 98.4935 122.735 98.7121C124.554 96.1958 127.357 94.3313 130.054 92.9971C131.593 92.2358 133.226 91.622 134.868 91.119L135.783 90.844C137.13 90.4466 138.602 90.0794 139.867 90.8719C140.368 91.1854 140.687 91.6727 140.788 92.1995C140.886 92.7161 140.774 93.27 140.417 93.7323C140.106 94.1349 139.719 94.3643 139.307 94.4429C138.852 94.5296 138.37 94.4344 137.932 94.2C137.58 94.1738 137.476 94.1832 137.373 94.1948L137.226 94.2128ZM157.486 94.4688C156.584 94.2728 155.692 94.1941 154.767 94.2223C154.349 94.2349 153.944 94.2995 153.541 94.3646C152.914 94.4656 152.29 94.5699 151.615 94.4473C151.262 94.3833 150.962 94.1772 150.731 93.9082C150.46 93.5936 150.28 93.1916 150.223 92.8094C150.164 92.4146 150.223 92.0692 150.369 91.7643C150.541 91.4041 150.832 91.1005 151.183 90.8346C152.246 90.0296 154.07 90.2232 155.324 90.3859C156.564 90.5472 157.796 90.9317 158.892 91.5424C159.973 92.1452 160.913 92.9573 161.646 93.9499C162.265 94.7865 162.556 95.7494 162.856 96.7299C161.442 95.5428 159.277 94.858 157.486 94.4688Z" fill="black"/>
</svg>
