<svg width="259" height="324" viewBox="0 0 259 324" fill="none" xmlns="http://www.w3.org/2000/svg">
<path fill-rule="evenodd" clip-rule="evenodd" d="M245.861 194.94C248.025 193.81 250.138 192.583 252.217 191.305C253.682 190.428 252.385 188.22 250.883 189.018C250.115 189.426 249.35 189.838 248.583 190.244C249.187 189.723 249.747 189.156 250.249 188.539L250.215 188.504C252.151 186.769 249.664 183.495 247.462 184.92C245.52 186.328 243.561 187.765 241.332 188.692C236.715 190.65 231.623 190.974 226.668 191.031C224.855 190.895 223.123 191.209 221.363 191.559C222.053 188.791 223.779 186.7 224.695 184.019C225.371 181.312 221.465 179.468 220.08 182.07C219.741 182.709 219.417 183.356 219.1 184.005C216.108 186.728 211.112 186.488 208.095 189.411C206.376 190.937 205.535 193.008 205.202 195.086C204.977 196.497 205.327 197.912 204.474 199.162C200.351 204.997 193.835 214.22 190.526 220.641C188.183 205.382 181.927 186.509 175.464 172.556C173.327 168.094 170.882 163.734 167.672 159.951C168.036 158.69 166.752 156.451 165.935 157.14C163.422 154.069 158.979 153.273 155.407 151.746C150.584 149.683 146.583 145.395 144.616 140.522C142.089 131.241 135.867 130.062 127.239 130.472C118.982 130.462 112.873 133.995 111.071 142.404C107.411 148.786 98.769 147.73 92.5517 149.42C87.995 150.461 83.573 152.071 79.3705 154.115C74.6953 149.679 57.9513 168.298 56.4293 173.089C57.3253 173.263 58.2158 173.472 59.0983 173.727C59.8842 173.954 59.5542 175.142 58.7615 174.952C57.7751 174.715 56.7824 174.552 55.785 174.439C55.7545 174.534 55.7279 174.629 55.7081 174.723C55.5961 174.715 55.4843 174.705 55.3724 174.698C55.6206 174.827 55.8595 174.977 56.0924 175.171C56.6552 175.638 55.9225 176.54 55.3244 176.168C54.7609 175.746 54.023 175.813 53.3471 175.671C53.307 177.061 48.3479 175.506 47.5776 175.045C44.154 174.617 40.632 175.077 37.4359 173.425C33.1833 172.529 28.8988 171.538 24.694 170.397C23.5808 170.831 22.5346 172.385 23.4188 173.525C23.9161 174.044 23.2768 174.891 22.6506 174.522C20.5504 173.285 18.9262 171.355 17.5491 169.275C16.9009 168.621 15.7504 168.762 14.8795 168.49C14.7631 168.699 14.6945 168.933 14.6955 169.172C11.0015 169.78 13.6367 173.816 15.4937 175.074C14.5086 175.716 14.4712 176.972 14.5574 178.022C14.3486 178.395 14.2789 178.859 14.4606 179.277C15.1552 180.879 16.6576 182.227 17.7999 183.525C19.0612 184.958 20.1857 186.398 21.7204 187.56C27.57 192.021 34.629 194.515 41.8709 195.49C44.4422 195.885 48.1409 196.49 49.733 198.665C49.3424 201.246 48.6251 203.722 47.9744 206.239C47.0645 209.581 47.1264 213.079 47.1143 216.485C46.9871 216.383 46.7429 216.404 46.7066 216.599C46.4949 218.011 46.3375 219.455 45.4795 220.641C44.7274 222.848 44.2269 225.201 43.9457 227.519C42.8193 238.508 42.5503 249.822 45.0902 260.64C46.0702 264.653 47.6643 268.467 49.8361 271.979C50.4836 273.027 51.5247 273.334 52.4596 273.128C55.5885 274.754 59.5301 275.275 62.9026 274.862C74.4 271.606 70.3939 279.447 86.5143 277.046C114.34 273.5 142.46 280.468 170.227 276.377C170.91 281.661 179.863 280.145 182.972 277.911C192.296 270.977 196.926 249.023 201.605 237.886C204.822 229.108 210.208 213.56 217.262 207.669C219.377 206.014 221.933 205.143 224.491 204.44C234.038 201.979 243.621 199.652 253.186 197.259C254.809 196.859 254.517 194.092 252.782 194.269C250.481 194.505 248.171 194.718 245.861 194.94Z" fill="#D08B5B"/>
<path fill-rule="evenodd" clip-rule="evenodd" d="M33.3369 193.294C32.6905 193.214 32.0567 192.984 31.4271 192.802C30.4658 192.521 29.5236 192.193 28.5961 191.819C26.682 191.052 24.825 190.145 23.0841 189.035C20.2721 187.241 17.7876 184.942 15.9137 182.173L15.785 181.98C14.7152 180.35 12.7418 176.73 14.9545 175.492C13.5284 174.3 12.1805 172.159 12.2566 170.506C12.3643 168.169 15.2291 168.201 16.7101 169.192C17.6798 169.841 18.4066 170.749 19.1355 171.644C19.9425 172.637 20.8045 173.584 21.7003 174.495C21.9379 174.735 22.178 174.972 22.4222 175.204L22.6678 175.435C22.6298 175.344 22.596 175.251 22.5664 175.156C22.0721 173.615 22.6615 171.61 24.2017 170.904C25.1442 170.472 26.123 170.735 27.0363 171.102L27.1763 171.159C28.4059 171.669 29.6503 172.119 30.9305 172.48C36.1488 173.954 41.5953 174.199 46.9425 174.934C49.0024 175.22 51.1002 175.579 53.1495 176.107C53.9312 172.787 55.8474 169.604 57.9263 166.985C67.8812 154.458 84.2988 150.318 99.3178 147.638C100.687 147.395 101.821 149.209 102.618 148.78C104.128 147.968 105.457 146.818 106.624 145.569C109.11 142.904 110.874 139.77 112.947 136.8C113.971 135.333 116.329 136.646 115.378 138.221L114.913 138.99C112.995 142.142 110.872 145.39 108.121 147.835C106.659 149.133 105.037 150.158 103.182 150.798C101.777 151.282 99.8059 151.69 98.2679 151.22L98.0833 150.952C98.1444 151.041 98.2059 151.131 98.2679 151.221C102.282 157.039 107.319 161.964 112.626 166.611C117.982 171.3 123.761 175.498 129.575 179.603L130.059 179.945C139.53 173.034 147.531 164.02 153.144 153.721C151.968 153.579 150.804 152.825 149.798 152.263C148.588 151.582 147.449 150.77 146.562 149.688C144.628 147.332 144.88 144.295 144.531 141.435C144.51 141.258 144.745 141.213 144.852 141.302C145.9 142.173 146.268 143.599 146.705 144.832C147.187 146.186 147.732 147.302 148.837 148.255C149.866 149.143 151.121 149.796 152.34 150.377C152.968 150.676 156.089 151.442 156.445 152.077C161.836 150.811 167.088 152.998 171.083 156.688C174.943 160.254 177.776 164.889 180.278 169.464C182.946 174.347 185.133 179.436 187.017 184.667C188.927 189.976 190.391 195.401 191.196 200.989C191.875 205.701 192.292 210.486 192.562 215.25L192.595 215.845C196.583 209.583 200.671 203.386 204.844 197.244C203.895 194.71 204.945 192.123 206.722 190.166C208.691 188 211.414 186.994 214.019 185.823L214.362 185.668C215.617 185.095 216.869 184.464 217.953 183.606C218.997 182.777 219.764 181.636 220.862 180.873C222.459 179.761 225.358 179.998 225.432 182.427C225.47 183.76 224.897 185.223 224.373 186.421C223.78 187.776 222.979 189.004 222.028 190.132C221.984 190.185 221.936 190.226 221.888 190.259L221.851 190.282C223.165 190.5 224.49 190.676 225.84 190.737C228.563 190.862 231.316 190.661 233.982 190.086C236.711 189.498 239.357 188.543 241.812 187.212C243.909 186.074 245.853 184.603 248.236 184.257C248.456 184.223 248.678 184.202 248.906 184.189C249.286 184.168 249.666 184.616 249.516 184.992C249.434 185.199 249.347 185.405 249.252 185.612C248.428 187.427 247.165 189.188 245.588 190.525L245.466 190.627C246.022 190.435 246.569 190.219 247.108 189.976C250.275 188.549 253.148 186.394 256.543 185.527C256.704 185.485 256.866 185.447 257.029 185.411C258.079 185.185 258.633 186.326 258.016 187.108C257.916 187.235 257.817 187.359 257.714 187.484C256.199 189.365 254.528 191.111 252.685 192.679C252.054 193.216 251.403 193.736 250.74 194.233C250.46 194.443 250.179 194.649 249.895 194.852L249.755 194.951C250.087 194.717 250.414 194.478 250.74 194.233C252.819 193.603 254.868 192.857 256.873 192.03C257.669 191.703 258.288 192.51 258.373 193.174C258.656 195.397 256.188 197.006 254.583 198.075C252.973 199.149 251.2 199.965 249.385 200.62C245.896 201.881 242.231 202.454 238.572 202.967L236.795 203.215C229.76 204.199 222.413 205.375 217.366 210.851C214.537 213.92 212.623 217.733 210.871 221.484C209.122 225.231 207.586 229.078 206.128 232.946C204.618 236.949 203.302 241.025 201.903 245.069C200.619 248.781 199.084 252.446 197.565 256.074L197.325 256.646C194.099 264.357 190.245 271.618 184.875 278.056C183.99 279.119 182.559 277.61 183.377 276.558C188.995 269.313 192.903 260.764 196.129 252.235C197.597 248.355 198.827 244.382 200.238 240.48L201.078 238.162C202.199 235.073 203.33 231.987 204.51 228.922C206.004 225.043 207.645 221.211 209.523 217.504L209.723 217.114C211.562 213.538 213.746 210.013 216.753 207.307C222.165 202.433 229.367 201.264 236.33 200.338L238.52 200.049C241.464 199.658 244.416 199.226 247.279 198.438C248.931 197.986 250.545 197.407 252.062 196.608C252.666 196.291 253.256 195.943 253.826 195.562C252.2 196.04 250.55 196.431 248.87 196.737C248.048 196.887 247.235 196.999 246.423 197.077C244.334 197.284 242.262 197.276 240.121 197.164C239.94 197.153 239.881 196.868 240.075 196.832C241.565 196.567 243.057 196.236 244.543 195.876L244.989 195.767C244.997 195.52 245.095 195.258 245.297 195.008C246.037 194.108 247.442 193.647 248.416 193.011C249.436 192.345 250.425 191.627 251.367 190.857C252.229 190.154 253.057 189.409 253.854 188.632L254.093 188.397C254.013 188.476 253.934 188.554 253.854 188.632C251.703 189.625 249.664 190.9 247.419 191.686C245.633 192.314 243.762 192.736 241.873 192.886L241.756 192.896L241.638 192.903C239.667 193.045 237.683 192.988 235.742 193.415C235.524 193.463 235.457 193.172 235.651 193.089C237.347 192.383 239.112 192.111 240.895 191.781C240.933 191.641 241.03 191.517 241.199 191.436L241.655 191.218C243.014 190.566 244.28 189.907 245.409 188.847C246.407 187.911 247.237 186.816 247.86 185.603C245.365 186.151 243.174 188.042 240.905 189.105C238.433 190.266 235.818 191.098 233.131 191.572L232.824 191.624C227.802 192.462 221.763 192.356 217.264 189.743C217.121 189.659 217.224 189.467 217.372 189.49C218.648 189.699 219.912 189.946 221.175 190.166C220.928 189.94 220.818 189.534 221.103 189.209C222.238 187.908 223.135 186.421 223.709 184.794L223.818 184.476C224.083 183.721 224.529 182.549 224.073 181.869C223.638 181.22 222.614 181.308 222.001 181.583C220.727 182.158 219.88 183.593 218.807 184.46C217.636 185.407 216.305 186.108 214.942 186.736L214.655 186.867C212.298 187.927 209.78 188.82 207.926 190.692C206.929 191.698 206.071 192.956 205.784 194.366C205.653 195.012 205.653 195.678 205.826 196.319C205.964 196.819 206.251 197.128 206.086 197.637C205.871 198.295 205.108 199.081 204.715 199.666C204.259 200.343 203.804 201.021 203.35 201.7C202.444 203.056 201.542 204.418 200.64 205.777C198.835 208.499 197.05 211.234 195.28 213.977C194.704 214.87 194.13 215.764 193.557 216.66L192.7 218.003L192.247 218.711L191.475 219.926C191.502 220.038 191.5 220.157 191.464 220.26C191.333 220.635 191.086 220.892 190.78 221.078L190.725 221.11C186.216 228.239 181.78 235.414 177.299 242.56C177.06 244.741 176.836 246.924 176.642 249.107C176.2 254.049 175.898 259.003 175.801 263.963C175.754 266.364 175.947 268.78 176.05 271.179C176.101 272.324 176.17 273.467 176.261 274.61L176.328 275.421C176.417 276.534 176.467 277.64 176.067 278.701C175.712 279.633 174.631 279.842 173.99 279.132C165.639 278.796 157.281 278.54 148.923 278.382C133.964 278.094 118.997 278.139 104.035 278.428C96.5207 278.574 89.0038 278.779 81.4911 279.033C77.7897 279.155 74.0862 279.329 70.3826 279.379C68.3873 279.406 65.2469 278.68 65.0859 276.434L65.0819 276.365C64.8326 276.433 64.5749 276.488 64.3108 276.528C64.1932 276.546 64.0803 276.541 63.976 276.517L63.9242 276.503C60.9498 277.41 57.1874 276.116 54.3611 275.362L54.1278 275.3C51.4299 274.596 49.2623 273.59 47.494 271.354C44.3989 267.438 43.3425 262.179 42.7933 257.333C42.2778 252.772 42.2482 248.127 42.8756 243.575C42.5059 239.865 42.8672 236.038 43.2876 232.35C43.4946 230.526 43.7376 228.704 44.0291 226.89C44.1918 225.878 44.4052 224.876 44.6228 223.876C44.7097 223.477 44.782 223.047 44.8922 222.631L44.9418 222.454C44.6038 222.498 44.2341 222.425 43.877 222.228C43.0277 221.761 42.7805 220.816 42.7657 219.912C42.7193 217.185 43.0446 214.381 43.3319 211.671C43.6214 208.966 44.0186 206.25 44.5383 203.578L44.6728 202.89C45.0666 200.891 45.5172 198.828 46.3108 196.95C43.3299 196.443 40.3574 195.904 37.4651 194.987C36.0538 194.537 34.6637 193.977 33.3369 193.294ZM188.927 221.668C188.881 221.679 188.836 221.691 188.792 221.704C187.6 222.038 186.396 222.321 185.196 222.625C183.121 223.147 181.093 223.731 179.164 224.637C178.76 229.74 178.161 234.825 177.592 239.913L177.478 240.931C178.353 239.307 179.249 237.697 180.185 236.106C183.035 231.255 185.95 226.442 188.927 221.668ZM45.6686 222.173C45.6749 222.78 45.5482 223.41 45.4806 223.993C45.3707 224.94 45.282 225.891 45.17 226.838C44.9418 228.74 44.7475 230.644 44.6059 232.555C44.5151 233.774 44.4559 234.998 44.4031 236.222C45.601 231.743 47.1876 227.362 48.6961 222.974C48.4439 222.947 48.1862 222.886 47.9203 222.815L47.4727 222.695C47.2088 222.627 46.3526 222.416 45.6686 222.173ZM192.7 218.003L192.709 218.204C192.74 218.916 192.314 219.318 191.796 219.421C192.096 218.948 192.398 218.475 192.7 218.003ZM55.6298 184.246C56.8911 184.358 58.127 184.627 59.3059 185.092L59.4196 185.136C60.2916 185.473 61.5664 185.896 61.8517 186.827C61.9319 187.091 61.7164 187.309 61.4693 187.33C60.5228 187.406 59.4073 186.391 58.5305 186.049C57.5545 185.669 56.5319 185.385 55.4967 185.235C53.1707 184.895 50.7453 185.153 48.5566 186.001C48.4277 186.051 48.3474 185.846 48.4636 185.785C50.6693 184.584 53.1221 184.024 55.6298 184.246ZM28.9024 190.291C28.7566 190.162 28.6108 190.027 28.4671 189.892C27.3344 188.82 26.3314 187.569 25.5887 186.194L25.3933 185.822C24.7884 184.65 24.0456 182.981 25.4671 182.137C26.3164 181.632 27.339 181.759 28.2854 182.065C28.3467 182.084 28.408 182.105 28.4692 182.126C28.8918 182.275 29.2995 182.452 29.6629 182.621C31.2411 183.346 32.6333 184.401 34.0911 185.331C35.6706 186.339 37.2302 186.983 39.0532 187.361L39.2249 187.395C40.9361 187.734 42.7911 187.951 43.9847 189.359C44.2847 189.714 44.0101 190.38 43.4925 190.204C40.1925 189.091 36.7002 188.845 33.6707 187.017C32.4157 186.26 31.2284 185.392 29.946 184.675C29.2657 184.295 28.5634 183.962 27.8149 183.733L27.4059 183.613C27.1664 183.543 26.8805 183.474 26.6883 183.543C26.3223 183.669 26.4391 183.865 26.5523 184.207L26.5636 184.242C27.453 186.994 29.9883 189.297 32.3376 190.821C32.8763 191.172 33.4277 191.494 33.9897 191.792C37.7936 193.82 42.05 194.764 46.2304 195.885C46.2304 195.885 48.6475 196.56 49.4482 196.813C50.3397 196.739 51.3559 197.054 52.0278 197.43C52.6806 197.796 53.2066 198.286 53.6038 198.863C53.6038 198.863 53.9862 199.182 54.0559 199.677C54.2566 200.136 54.3918 200.63 54.4594 201.146C54.4975 201.448 54.4214 201.68 54.2778 201.845C54.7099 208.48 52.9184 215.078 50.8987 221.383L50.6986 222.005L50.57 222.399C48.3918 229.084 45.8925 235.721 44.7771 242.691C44.0313 247.347 44.0545 252.166 44.6017 256.843L44.6403 257.165C45.1794 261.588 46.2167 266.548 49.0278 270.107C50.4615 271.924 52.1603 272.731 54.3321 273.316L54.451 273.347C56.4158 273.865 58.444 274.599 60.47 274.821C62.3503 275.025 63.9263 274.326 65.6186 273.671L65.6207 273.669C69.1848 270.513 70.8031 265.918 71.9989 261.281C75.0982 249.281 74.7136 236.824 72.9559 224.648C72.039 218.286 70.7925 211.98 69.5503 205.675C68.9291 202.524 68.2594 199.379 67.7038 196.217L67.3738 194.356C67.1917 193.323 67.0156 192.288 66.8651 191.248C66.6622 189.851 66.601 188.478 66.5313 187.072C64.8242 184.242 62.346 181.911 59.4749 180.239C57.4193 179.041 55.2432 178.21 52.9975 177.608C46.577 175.877 39.5777 175.999 33.1172 174.668C30.9468 174.221 28.8866 173.558 26.8275 172.763L26.5467 172.654C25.6024 172.286 24.639 172.081 24.17 173.195C23.8362 173.987 24.0348 174.812 24.5355 175.477C25.7629 177.109 28.2305 177.866 30.0876 178.453C31.2052 178.808 32.346 179.089 33.4995 179.299C34.6531 179.508 35.8108 179.561 36.9179 179.969C37.3446 180.125 37.4291 180.803 36.9179 180.924C35.515 181.251 34.1038 180.97 32.7094 180.698C31.1777 180.395 29.6693 179.966 28.2031 179.423C27.9326 179.324 27.6528 179.218 27.3677 179.107L27.1531 179.022C27.3749 179.182 27.5967 179.341 27.8207 179.5C27.8798 179.542 27.8439 179.654 27.7657 179.626C24.3183 178.34 21.1815 176.018 18.7514 173.271L18.6305 173.134C17.7749 172.153 15.8249 169.185 14.1812 170.012C12.6378 170.787 15.2688 173.775 16.2687 174.996L16.3848 175.139C17.5214 175.169 18.6221 175.877 19.5433 176.447C21.1425 177.439 22.8137 178.293 24.5165 179.091C27.901 180.683 31.4947 181.805 34.8433 183.477C34.8876 183.5 34.8538 183.557 34.8116 183.551C32.6799 183.211 30.5714 182.667 28.5116 181.993L28.4197 181.965L28.3278 181.934C27.0411 181.511 25.7714 181.034 24.5228 180.524C23.1348 179.958 21.7785 179.322 20.4623 178.601C19.2707 177.95 17.9482 176.777 16.5665 176.604C16.4186 176.585 16.2876 176.583 16.1735 176.593C14.5869 176.726 15.8989 179.356 16.3426 180.142C17.0672 181.433 17.9419 182.625 18.9454 183.714C20.9799 185.924 23.4454 187.677 26.1137 189.04C27.0243 189.505 27.9559 189.915 28.9024 190.291Z" fill="black"/>
<path fill-rule="evenodd" clip-rule="evenodd" d="M129.619 53.9492C141.59 53.9492 157.042 61.4771 158.359 69.187C159.912 78.2729 168.227 113.137 166.349 124.317C164.472 135.497 154.354 143.546 138.163 143.546C121.972 143.546 109.887 134.694 107.113 131.655C104.338 128.616 99.1957 117.765 99.1957 117.765C99.1957 117.765 90.5268 116.609 90.4857 109.525C90.4446 102.44 96.1219 99.863 96.1219 99.863C96.1219 99.863 94.0977 71.9058 99.1957 64.6271C104.294 57.3483 117.649 53.9492 129.619 53.9492Z" fill="#D08B5B"/>
<path fill-rule="evenodd" clip-rule="evenodd" d="M157.627 67.9429C157.618 67.7803 157.854 67.7613 157.898 67.905C160.481 76.4584 162.073 83.1242 163.749 91.8933L164.244 94.4729C165.566 101.353 166.902 108.243 168.031 115.157L168.097 115.569C168.662 119.148 168.988 122.762 168.279 126.348C167.618 129.7 165.809 132.773 163.46 135.22C158.921 139.95 152.613 142.905 146.268 144.226C143.059 144.894 139.749 145.151 136.479 144.919C134.849 144.805 133.222 144.574 131.626 144.234L131.45 144.196C129.841 143.848 128.413 143.433 127.559 141.915C127.344 141.533 127.431 140.878 127.882 140.681C128.734 140.313 129.36 140.159 130.289 140.265C131.177 140.366 132.043 140.635 132.92 140.802C134.596 141.121 136.3 141.281 138.005 141.32C141.355 141.394 144.714 140.973 147.916 139.971C153.418 138.249 159.01 134.954 162.225 130.025C166.007 124.227 164.501 117.19 163.499 110.787L163.468 110.594C162.454 104.049 161.451 97.5041 160.477 90.9551L160.061 88.1482C158.97 80.7319 157.939 75.4376 157.627 67.9429ZM101.761 49.7902C104.507 47.9756 107.92 47.5297 111.145 47.5547L111.549 47.5598C115.68 47.6229 136.47 48.1189 143.431 48.2715L145.087 48.3065C147.279 48.348 151.699 48.3912 153.977 48.433L154.108 48.4354C155.225 48.4566 156.343 48.465 157.46 48.5009L157.624 48.5069C158.461 48.5427 159.157 48.6682 159.813 49.2597C160.146 49.5595 160.276 50.0166 160.246 50.4521L160.241 50.5088L161.9 50.6546C163.027 50.7544 163.622 51.7674 163.175 52.7925L163.152 52.8421C162.357 54.5413 161.75 59.4869 161.324 61.3151C161.101 62.2768 160.922 63.2532 160.816 64.236C160.732 65.0097 160.724 65.7852 160.294 66.4657C159.376 67.9177 156.796 67.905 156.75 65.8486C156.747 65.7831 156.75 65.7197 156.756 65.6584C150.263 65.373 141.398 65.4005 134.913 65.7894C128.856 66.1529 122.826 66.9772 116.892 68.239C115.388 68.5581 113.89 68.9068 112.401 69.2851C111.18 69.5937 109.682 69.7776 108.589 70.4391C107.367 71.1831 107.39 72.5167 107.523 73.7869C107.665 75.1332 107.903 74.4395 108.24 75.6664L108.261 75.744C108.608 77.0755 109.038 78.3922 109.608 79.6434C109.932 80.3578 110.455 81.0447 110.257 81.8668C110.145 82.3297 109.78 82.8242 109.445 83.1476C107.919 84.6165 105.339 83.6802 104.301 85.6923C103.216 87.7962 103.189 90.6463 103.097 92.9743L103.091 93.1107C103.024 94.7148 103.043 96.3232 103.148 97.9231C103.243 99.3812 103.631 100.825 103.133 102.226C102.771 103.245 101.586 103.34 100.966 102.512C100.895 102.416 100.83 102.319 100.769 102.221L100.709 102.123L100.705 102.125C100.764 102.218 100.819 102.313 100.871 102.41C100.928 102.518 100.787 102.636 100.7 102.543C99.2416 100.952 97.1102 101.269 95.4595 102.383C93.7876 103.515 93.1278 105.667 93.0413 107.597C92.9444 109.737 93.1341 112.247 94.0238 114.225C94.399 115.061 94.9343 115.831 95.8221 116.15C96.225 116.294 96.6084 116.275 97.028 116.308C97.4642 116.342 97.9893 116.562 98.4129 116.532C98.9635 116.493 99.4579 117.123 99.3015 117.651L99.2901 117.686C99.2819 117.712 99.2732 117.737 99.265 117.76C99.2859 117.779 99.307 117.803 99.3217 117.837C100.924 121.119 103.121 124.04 105.549 126.749C106.766 128.104 108.115 129.349 109.525 130.501C110.221 131.069 110.955 131.638 111.729 132.096C111.986 132.246 112.222 132.348 112.511 132.43C112.646 132.468 112.8 132.487 112.93 132.532L113.066 132.578C113.075 132.581 113.084 132.584 113.093 132.587C113.481 132.631 113.807 132.889 113.936 133.293C114.271 134.345 113.662 135.275 112.62 135.565C111.492 135.881 110.429 135.326 109.534 134.688L109.475 134.645C107.651 133.329 105.971 131.851 104.516 130.127C101.639 126.722 99.8359 122.78 99.0015 118.42C98.7947 118.866 98.5164 119.255 98.0336 119.525C97.2831 119.948 96.3871 119.948 95.5649 119.806C93.9099 119.525 92.4995 118.513 91.5571 117.143C90.5787 115.723 90.2142 113.998 89.9928 112.318C89.7736 110.636 89.6661 108.947 89.8853 107.261C90.1997 104.838 91.2135 102.444 93.1847 101.117C91.7089 97.8935 91.4496 94.2794 91.555 90.7499C91.6836 86.4045 92.4321 82.0105 93.0076 77.7053L94.6438 65.466L94.7107 64.9726C95.1056 62.0933 95.5862 59.1988 96.6611 56.4858C97.7216 53.8122 99.3323 51.3943 101.761 49.7902ZM94.8755 107.692C97.5783 106.377 100.498 107.588 101.953 110.139C103.218 112.357 99.4571 113.823 98.8296 111.537L98.8116 111.466C98.3984 109.735 96.7158 108.239 94.9599 108.007C94.8144 107.986 94.7067 107.774 94.8755 107.692Z" fill="black"/>
<path fill-rule="evenodd" clip-rule="evenodd" d="M143.152 128.274C141.732 127.695 140.465 126.728 139.538 125.493C139.216 125.063 139.133 124.61 139.2 124.195C139.276 123.729 139.552 123.306 139.928 123.023C140.305 122.739 140.777 122.598 141.233 122.67C141.63 122.732 142.024 122.949 142.337 123.399L142.402 123.489C142.953 124.235 143.67 124.846 144.488 125.241C145.276 125.621 146.158 125.798 147.07 125.695C148.808 125.499 150.005 124.559 151.278 123.282C151.436 123.121 151.594 122.955 151.752 122.786C151.852 122.633 151.991 122.534 152.146 122.483C152.317 122.425 152.511 122.429 152.689 122.491C152.86 122.55 153.013 122.664 153.116 122.815C153.213 122.958 153.269 123.135 153.251 123.339C153.134 124.661 152.443 125.842 151.461 126.769C150.37 127.799 148.924 128.511 147.563 128.761C146.064 129.036 144.536 128.839 143.152 128.274ZM148.271 107.866C149.866 108.836 152.297 111.098 150.581 113.503C148.56 115.624 145.652 113.193 144.218 112.093C142.889 111.241 141.396 113.433 142.629 114.428C152.986 122.099 157.19 108.12 149.078 106.726C148.184 106.572 147.853 107.566 148.271 107.866ZM129.711 98.9429C129.887 96.7541 133.219 96.257 133.551 98.423C133.847 100.363 133.498 102.145 132.624 103.892C131.79 105.561 129.692 104.783 129.533 103.263C129.32 101.226 129.601 100.304 129.711 98.9429ZM155.076 97.9739C155.541 97.3652 156.211 96.9497 157.015 97.1845C159.526 97.9185 158.786 101.485 157.904 103.22C157.425 104.163 155.876 104.402 155.176 103.572C154.035 102.219 153.489 99.5157 154.939 98.1825C154.979 98.1136 155.022 98.044 155.076 97.9739ZM132.589 89.3654L132.986 89.2959C134.213 89.0836 135.738 88.8796 136.606 89.8665C137.067 90.3898 137.225 91.3624 136.606 91.8633C135.518 92.7446 134.314 92.4031 133.01 92.4777C131.935 92.5394 130.902 92.7174 129.867 93.0135C127.595 93.6629 125.744 94.8486 123.804 96.1505C123.549 96.3213 123.29 95.9956 123.411 95.7574C124.531 93.563 126.701 91.7604 128.875 90.6616C130.036 90.0751 131.305 89.5885 132.589 89.3654ZM152.787 88.3823L153.091 88.4445C156.394 89.1353 160.687 90.5153 162.251 93.7615C162.311 94.2205 162.248 94.3189 162.196 94.3832L162.179 94.4046C162.137 94.4595 162.104 94.5351 161.905 94.5976C161.849 94.5845 161.794 94.5705 161.737 94.5557C161.02 94.3677 160.453 94.1087 159.904 93.84L159.308 93.5465C158.617 93.2076 157.92 92.881 157.181 92.6399C155.605 92.1255 153.983 91.7631 152.337 91.5696C151.98 91.5277 151.636 91.4072 151.365 91.2007C151.107 91.0046 150.911 90.7332 150.821 90.3724C150.705 89.9056 150.738 89.5521 150.989 89.1309C151.177 88.8146 151.447 88.5953 151.756 88.4694C152.071 88.3411 152.43 88.3108 152.787 88.3823Z" fill="black"/>
</svg>
