<svg width="240" height="324" viewBox="0 0 240 324" fill="none" xmlns="http://www.w3.org/2000/svg">
<path fill-rule="evenodd" clip-rule="evenodd" d="M198.116 286.283C202.199 286.086 200.557 278.941 200.263 276.317C197.031 266.734 197.791 256.278 196.519 246.233C195.727 236.856 194.71 227.508 193.854 218.138C192.172 199.117 180.099 160.397 166.321 154.17C164.586 146.552 157.417 139.44 148.347 139.44C142.161 132.115 134.716 126.96 125.166 128.001C121.219 128.18 117.392 132.367 113.611 133.176C111.493 133.468 92.7031 132.716 88.9392 134.953C86.3174 136.299 83.9505 138.788 84.7215 141.956C85.9515 145.795 82.129 141.642 74.1551 145.739C57.8953 155.508 67.6115 168.577 68.042 168.982C57.8953 183.105 49.0265 194.563 44.9231 211.825C42.2636 224.641 42.563 237.872 40.3348 250.753C39.548 255.22 38.341 259.534 37.035 263.872C35.6195 269.548 34.9312 283.697 34.151 283.823C32.7298 284.176 34.9724 287.096 36.4783 287.098C78.2298 294.026 120.639 287.385 162.615 286.3C174.445 285.888 186.287 285.793 198.116 286.283Z" fill="#D08B5B"/>
<path fill-rule="evenodd" clip-rule="evenodd" d="M113.663 145.612C113.663 150.057 129.092 166.575 134.417 165.485C137.966 164.759 143.33 160.021 150.507 151.272V145.612L148.957 139.451C157.737 139.76 164.625 146.723 166.321 154.17C179.961 160.335 191.931 198.346 193.8 217.561L193.854 218.138C194.71 227.508 195.727 236.856 196.519 246.233C197.791 256.278 197.031 266.734 200.263 276.317L200.283 276.48C200.62 279.224 202.117 286.09 198.116 286.283C186.287 285.793 174.445 285.888 162.615 286.3C120.639 287.385 78.2298 294.026 36.4783 287.098C34.9724 287.095 32.7298 284.176 34.151 283.823C34.9312 283.697 35.6195 269.548 37.035 263.871L37.3037 262.974C38.5055 258.938 39.6023 254.912 40.3348 250.753C42.563 237.872 42.2636 224.641 44.9231 211.825C49.0265 194.563 57.8953 183.105 68.042 168.982C67.6115 168.577 57.8953 155.508 74.1551 145.738C82.129 141.641 85.9515 145.795 84.7215 141.956C83.9505 138.788 86.3174 136.299 88.9392 134.953C92.7031 132.716 111.493 133.468 113.611 133.176C114.594 132.966 115.581 132.527 116.572 131.989L116.4 132.562C114.575 138.68 113.663 143.03 113.663 145.612Z" fill="#9FD8E5"/>
<path fill-rule="evenodd" clip-rule="evenodd" d="M134.835 170.228C134.854 170.037 135.112 170.038 135.132 170.228L135.427 173.075C135.786 176.552 136.131 180.022 136.381 183.515C136.693 187.87 136.902 192.225 137.002 196.591C137.353 211.794 137.423 227.006 137.452 242.214C139.508 242.072 141.564 241.934 143.621 241.802C145.017 241.712 146.413 241.625 147.809 241.54L151.368 241.324L152.833 241.234C153.824 241.173 154.949 240.923 155.641 241.801C155.918 242.152 156.057 242.609 155.799 243.026C155.203 243.988 154.287 243.954 153.252 243.996C152.275 244.035 151.298 244.074 150.321 244.111C148.228 244.193 146.134 244.269 144.04 244.328C141.843 244.39 139.646 244.44 137.449 244.477C137.427 250.898 137.162 257.31 136.875 263.723L136.745 266.609C136.393 274.413 136.015 282.224 135.479 290.018C135.434 290.656 134.532 290.655 134.488 290.018C133.884 281.241 133.485 272.445 133.089 263.656C132.802 257.283 132.636 250.909 132.556 244.534C132.266 244.536 131.975 244.54 131.685 244.541C123.44 244.577 115.197 244.613 106.952 244.536C106.965 244.552 106.979 244.568 106.988 244.59C107.585 245.999 107.642 247.797 107.627 249.309C107.61 251.044 107.377 252.757 106.978 254.443C105.547 260.486 101.857 265.897 97.6544 270.372L97.5172 270.517C96.5259 271.565 95.3886 272.618 94.78 273.952C94.1582 275.315 93.9425 276.909 93.6357 278.373L93.5998 278.542L92.4003 284.085C92.0191 285.845 91.911 288.413 90.5179 289.683C89.2181 290.868 87.4963 290.249 86.8847 288.723C86.407 287.532 86.8828 286.224 87.1657 285.034L89.3821 275.714C89.7463 274.194 90.1443 272.664 90.9303 271.298C91.7354 269.9 92.9157 268.886 94.1202 267.849C96.4008 265.884 98.4945 263.636 100.265 261.201C102.035 258.767 103.548 256.084 104.609 253.263C105.14 251.851 105.575 250.383 105.875 248.904C106.161 247.501 106.158 246.047 106.463 244.659C106.484 244.563 106.565 244.497 106.658 244.468C106.636 244.406 106.669 244.322 106.756 244.317L113.499 243.883C119.493 243.496 125.487 243.1 131.476 242.646L132.534 242.57C132.452 234.064 132.521 225.557 132.675 217.048C132.816 209.245 132.819 201.44 133.051 193.638C133.166 189.766 133.415 185.903 133.691 182.039C133.975 178.087 134.428 174.168 134.835 170.228ZM71.5198 215.471C71.448 215.038 71.9928 214.769 72.244 215.166C75.1154 219.693 76.4998 224.611 77.0833 229.91C77.5988 234.586 77.4469 239.329 77.1902 244.018C76.9164 249.018 76.597 254.017 76.274 259.015L75.7777 266.679L74.5323 285.893C74.4431 287.267 74.1313 288.517 72.9484 289.156C72.7986 289.281 72.6425 289.393 72.4606 289.491C71.8215 289.832 70.9739 289.66 70.6044 289.004L70.7525 289.101C70.8816 289.182 70.7367 289.069 70.3177 288.761L69.9621 288.301C69.7038 287.912 69.5388 287.53 69.4724 287.069C69.3693 286.351 69.5028 285.564 69.5497 284.843L70.3661 272.244C71.0009 262.449 71.7423 252.657 72.3011 242.858C72.5614 238.29 72.7437 233.719 72.6203 229.143C72.4974 224.593 72.2656 219.966 71.5198 215.471ZM96.3594 131.131L96.5187 131.104C102.222 130.156 108.423 130.334 113.636 133.084C113.679 133.106 113.659 133.178 113.611 133.176L111.933 133.109C106.622 132.901 101.327 132.778 96.1052 134.026L95.5706 134.155C93.69 134.614 91.7261 135.176 90.2155 136.418C88.7717 137.606 88.0528 139.438 87.3615 141.125L87.2691 141.347C86.5677 143.013 85.6799 144.593 84.1426 145.635C82.1514 146.984 79.7567 146.819 77.4735 147.002C73.4535 147.325 70.1669 150.24 68.5316 153.806C67.5414 155.966 67.1191 158.387 67.0354 160.749C66.9926 161.951 66.9864 163.2 67.1466 164.395C67.1977 164.777 67.6697 166.168 67.9103 166.135C68.445 166.06 68.9339 166.339 69.1006 166.767C70.4214 165.49 71.7803 164.251 73.1829 163.055C76.6792 160.077 80.445 157.377 84.4109 155.058C87.4378 153.287 90.6305 151.533 93.9366 150.206C93.6746 150.201 93.4162 150.253 93.1663 150.383C93.0569 150.44 92.9481 150.303 93.0345 150.212C94.0758 149.116 95.3231 148.96 96.5806 149.252C96.8489 149.167 97.1174 149.084 97.387 149.006C97.5212 148.967 97.5879 149.152 97.4785 149.223L97.1696 149.42C98.5414 149.88 99.8882 150.784 100.954 151.497C104.017 153.544 106.713 156.048 109.446 158.504L109.943 158.95C112.349 161.099 114.816 163.187 117.549 164.91C118.98 165.813 120.482 166.647 122.059 167.268C123.411 167.801 125.612 168.136 126.245 169.566C126.808 170.25 126.573 171.122 125.913 171.583C124.802 172.807 122.578 172.016 121.253 171.506C119.656 170.892 118.109 170.153 116.634 169.287C113.769 167.604 111.128 165.513 108.667 163.287C106.098 160.963 103.674 158.495 101.175 156.098C100.092 155.059 99.0338 153.996 97.9493 152.959L97.4045 152.443C96.851 151.924 96.0624 151.114 95.2192 150.624C93.6307 151.572 92.0176 152.481 90.4435 153.454C88.2461 154.811 86.1133 156.266 84.0135 157.769C79.9712 160.663 76.1404 163.904 72.5842 167.377C66.0619 173.748 60.5052 181.023 55.6509 188.725L55.2822 189.312C52.5238 193.721 49.9151 198.272 48.0655 203.144C46.0304 208.505 45.0406 214.142 44.5029 219.833C43.9693 225.483 43.7893 231.161 43.1928 236.806C42.5812 242.595 41.3762 248.256 40.0055 253.907L39.6785 255.246C38.4383 260.307 37.1581 265.368 36.5206 270.548C36.1802 273.315 35.9755 276.12 36.0218 278.909C36.0683 281.715 36.509 284.458 36.8645 287.234C37.0008 288.298 35.9546 289.185 35.0185 289.326C33.9419 289.488 33.0169 288.801 32.6823 287.801C31.639 284.682 31.4495 281.234 31.4823 277.96C31.5152 274.637 31.9393 271.335 32.5359 268.069C33.7093 261.644 35.52 255.353 37.0348 249.005C38.3698 243.41 39.2658 237.805 39.7488 232.074C40.2501 226.127 40.5503 220.161 41.4649 214.257C42.3676 208.429 44.0662 202.862 46.6278 197.548C48.9602 192.709 51.8677 188.155 54.9159 183.74C58.6175 178.38 62.6829 173.279 67.2273 168.631C66.8191 168.613 66.4 168.481 66.015 168.241C64.8374 167.506 64.289 166.069 64.1204 164.757C63.7257 161.686 63.821 158.481 64.6103 155.479C65.8836 150.637 69.1883 146.334 73.9777 144.588C75.2104 144.139 76.5209 143.975 77.8274 143.943C79.0671 143.912 80.4212 144.074 81.6174 143.681C83.5214 143.054 84.3375 140.811 85.0524 139.111L85.0853 139.033C86.002 136.866 87.1023 135.008 89.0878 133.655C91.2061 132.211 93.8602 131.555 96.3594 131.131ZM150.549 139.7C152.263 139.106 154.405 139.646 156.081 140.165C157.949 140.744 159.674 141.811 161.153 143.077C162.714 144.413 164.004 146.062 164.915 147.905L165.002 148.082C165.834 149.792 166.782 152.138 166.363 154.016C166.351 154.069 166.337 154.12 166.321 154.17C169.722 155.844 172.862 157.942 175.596 160.6C178.781 163.696 181.477 167.218 183.759 171.023C192.821 186.136 194.416 204.287 195.486 221.522L195.753 225.892C196.334 235.329 197.014 244.743 198.781 254.049L198.91 254.721C200.798 264.465 203.501 274.283 203.228 284.279C203.145 287.274 198.721 287.253 198.593 284.279C198.11 273.083 195.498 262.273 193.73 251.252C190.618 231.863 192.177 211.873 187.768 192.678C186.038 185.145 183.357 177.838 179.53 171.114C177.639 167.792 175.476 164.582 172.942 161.717C170.762 159.251 168.496 156.878 165.948 154.805C165.134 155.621 163.508 155.205 163.082 154.016C162.79 153.198 162.876 152.243 162.688 151.387C162.514 150.592 162.275 149.805 161.955 149.056C161.318 147.565 160.384 146.133 159.305 144.927C158.139 143.622 156.8 142.538 155.301 141.643C153.791 140.742 152.141 140.473 150.549 139.815C150.495 139.793 150.49 139.721 150.549 139.7ZM157.207 243.324C157.21 243.246 157.303 243.209 157.36 243.261C157.961 243.814 158.324 244.608 158.766 245.289C159.276 246.073 159.811 246.842 160.373 247.59C161.498 249.09 162.751 250.503 164.013 251.888C165.188 253.176 166.439 254.41 167.737 255.573C169.144 256.833 170.72 257.957 171.998 259.353C174.665 262.264 175.096 266.26 175.658 270.012L175.72 270.418C176.063 272.645 176.37 274.878 176.648 277.114C176.782 278.201 176.917 279.29 177.027 280.38L177.06 280.726C177.158 281.793 177.185 282.876 176.572 283.809C175.916 284.807 174.424 285.156 173.538 284.2C172.014 282.556 172.3 279.636 172.102 277.522C171.938 275.773 171.752 274.027 171.544 272.283L171.439 271.411C171.193 269.428 170.994 267.404 170.541 265.455C170.141 263.739 169.379 262.443 168.129 261.199C166.869 259.947 165.56 258.777 164.398 257.428C163.164 255.997 162.052 254.463 161.05 252.862C160.193 251.493 159.506 250.002 158.876 248.513L158.772 248.265C158.163 246.814 157.16 244.924 157.207 243.324ZM179.203 180.967C179.216 180.764 179.515 180.761 179.52 180.967C179.558 182.708 179.594 184.45 179.63 186.192C179.921 200.226 179.742 214.293 181.149 228.279C181.813 234.873 183.035 241.37 184.45 247.841C185.174 251.152 185.933 254.454 186.654 257.766C187.357 260.993 188.111 264.236 188.669 267.493C189.217 270.694 189.708 273.92 189.928 277.162L189.956 277.585C190.05 279.156 190.503 281.466 189.639 282.858C188.702 284.366 186.908 284.393 185.905 282.953C184.962 281.602 185.197 279.197 185.03 277.585C184.861 275.942 184.682 274.298 184.479 272.659C184.082 269.462 183.56 266.272 183.016 263.097C181.885 256.484 180.243 249.955 179.031 243.352C177.79 236.587 176.907 229.774 176.87 222.886C176.833 215.939 177.568 209.007 177.939 202.075C178.316 195.036 178.744 188.001 179.203 180.967ZM112.932 137.316C113.309 136.047 114.638 135.254 115.935 135.61C117.124 135.937 118.105 137.38 117.64 138.614C117.133 139.961 116.247 141.11 115.5 142.334C114.81 143.466 113.803 144.357 113.101 145.468L113.875 146.303C114.263 146.72 114.651 147.134 115.044 147.541L116.395 148.941C117.447 150.029 118.506 151.111 119.595 152.162C122.796 155.251 126.048 158.238 129.633 160.883C130.449 161.485 131.271 162.084 132.117 162.644L132.432 162.853C133.012 163.233 133.659 163.607 134.36 163.542C136.063 163.386 137.601 161.577 138.771 160.451L138.833 160.392C141.732 157.632 144.417 154.615 146.765 151.37C147.286 150.649 147.791 149.916 148.282 149.174C147.147 147.848 147.418 145.259 147.356 143.651C147.311 142.52 147.308 141.388 147.302 140.257L147.299 140.028C147.285 139.296 147.252 138.593 147.727 137.991C147.755 137.956 147.812 137.957 147.847 137.975C148.498 138.316 148.699 138.888 148.977 139.528L149.006 139.595C149.344 140.364 149.667 141.14 149.995 141.914C150.338 142.724 150.652 143.546 150.971 144.365C151.119 144.746 151.26 145.129 151.399 145.514C151.483 145.76 151.57 146.004 151.66 146.248L151.681 146.267C151.799 146.368 151.9 146.474 151.986 146.583C152.349 146.765 152.638 147.096 152.773 147.583C153.068 148.642 152.458 149.505 151.914 150.346C149.704 153.761 147.185 157.016 144.385 159.968C142.994 161.435 141.531 162.836 140.008 164.165L139.741 164.395C138.373 165.572 136.887 166.686 135.06 166.961C132.921 167.283 131.181 166.219 129.544 164.994L129.38 164.871C127.828 163.695 126.308 162.479 124.834 161.206C121.83 158.612 118.973 155.826 116.436 152.769C113.969 149.797 111.53 146.473 110.01 142.895C109.917 142.678 110.161 142.449 110.352 142.631C111.095 143.339 111.809 144.085 112.516 144.84C112.535 143.728 112.33 142.607 112.444 141.488C112.583 140.128 112.543 138.625 112.932 137.316Z" fill="black"/>
<path fill-rule="evenodd" clip-rule="evenodd" d="M162.394 89.5609C161.893 83.0632 162.669 76.2526 160.17 70.0765C155.813 59.8292 143.594 56.4125 134.122 52.5112C130.327 51.3871 117.558 51.23 113.114 49.7422C103.058 46.375 100.656 42.363 92.6649 48.7743C91.3161 49.8695 90.4722 51.0599 89.8566 52.6862L89.8819 52.6932C89.706 53.3712 89.8945 54.0477 90.2906 54.5645C86.826 58.1147 85.3762 63.4374 87.1538 68.1634C92.955 80.4616 92.6822 87.1114 90.8131 100.333C88.3722 112.675 93.9499 117.184 103.187 123.9C102.811 124.631 102.733 125.603 103.224 126.248C113.905 141.296 134.046 148.48 151.302 140.843C158.307 137.717 161.434 130.239 163.218 123.491C165.297 115.936 165.936 107.974 164.244 100.277C163.561 96.7179 162.672 93.1841 162.394 89.5609Z" fill="#D08B5B"/>
<path fill-rule="evenodd" clip-rule="evenodd" d="M85.8868 71.1282L92.2382 75.37L114.973 51.3422L107.407 45.3726C107.407 45.3726 93.6815 55.5424 90.9827 58.2264C88.2839 60.9105 85.8868 71.1282 85.8868 71.1282Z" fill="#9FD8E5"/>
<path fill-rule="evenodd" clip-rule="evenodd" d="M100.779 17.5712C102.076 17.376 103.055 18.1824 103.521 19.3191L103.545 19.3803C103.695 19.7671 103.862 20.1433 104.041 20.5132C107.285 18.9175 111.915 19.3275 113.968 22.559C115.434 24.867 114.54 27.6061 113.987 30.0535L113.625 31.6661C114.326 32.1133 114.854 32.9141 114.829 33.7433L114.826 33.8071L114.679 36.0559C115.147 35.5803 115.575 35.0625 115.956 34.5109C116.22 34.0269 116.505 33.5514 116.81 33.0906C118.609 30.379 122.646 32.7356 121.162 35.6395C120.877 36.1996 120.556 36.7301 120.213 37.2415C119.825 37.9961 119.507 38.7717 119.262 39.5685C119.964 39.875 120.504 40.5555 120.561 41.5827C120.694 43.9815 119.437 45.983 117.438 47.2405C116.85 47.6104 116.243 47.6822 115.693 47.5449C115.596 47.6759 115.499 47.8069 115.406 47.9401C116.203 48.5889 116.922 49.3287 117.54 50.1487C119.399 49.8697 121.269 49.7387 123.139 49.7345C125.424 48.6122 128.161 48.6354 130.617 49.056C132.198 49.3266 133.716 49.8528 135.272 50.2311C136.912 50.6285 138.578 50.6433 140.237 50.9138C142.328 51.2541 144.162 52.222 145.315 53.767C146.582 53.8051 147.915 54.325 149.02 55.0309C151.592 56.6752 154.149 58.3428 156.715 59.9976C157.699 60.633 158.067 61.6472 157.886 62.7785L157.874 62.8509L157.788 63.3201L157.991 63.6088C158.776 64.7204 159.63 65.8847 160.138 67.1117C161.079 68.4707 161.928 69.8952 162.681 71.364C163.695 73.3381 164.532 75.4304 165.099 77.5778C165.24 78.1209 165.381 78.6683 165.474 79.2221C165.607 80.0041 165.403 80.6106 165.291 81.3609C165.152 82.312 165.101 83.2758 164.953 84.2289C164.854 84.8609 164.319 85.1716 163.758 85.1885C163.969 86.7968 164.121 88.4158 164.266 90.022C164.471 92.3173 164.61 94.6189 164.73 96.9205C165.35 97.823 166.617 98.5374 167.532 98.7846C168.799 99.1249 170.127 98.7551 171.325 98.3218C172.077 98.0491 172.695 98.9981 172.328 99.6321C171.175 101.623 168.708 101.615 166.84 100.733C166.05 100.361 165.356 99.8224 164.842 99.1207C164.873 99.7886 164.907 100.456 164.941 101.126L164.972 101.733C165.352 108.82 166.172 116.151 164.844 123.168C162.544 135.323 152.51 144.578 140.254 145.296C133.822 145.674 128.466 143.769 125.802 142.707C123.139 141.644 124.174 139.478 126.023 140.097C129.208 141.164 135.059 142.753 140.296 142.067C152.637 140.45 163.102 134.266 162.027 107.632C161.875 103.855 161.405 100.076 161.304 96.2992C161.207 92.6069 161.243 88.9125 161.081 85.2223L161.027 83.9632C160.963 82.4921 160.895 81.0141 160.786 79.5412C160.653 78.9705 160.543 78.3914 160.381 77.8314C159.94 76.3075 159.365 74.826 158.65 73.412C158.492 73.5325 158.315 73.6192 158.123 73.653C156.666 73.915 155.3 73.8411 153.936 73.2324C153.299 72.9513 152.738 72.5772 152.216 72.1143C151.967 71.8967 151.8 71.6853 151.67 71.4655C151.01 71.4761 150.35 71.2774 149.937 70.8019C149.465 70.2598 149.387 69.7 149.572 69.1818L149.591 69.1301L149.545 69.1132C148.988 70.5567 147.879 71.8269 146.663 72.685C144.74 74.0461 142.334 74.4392 140.028 74.4751C137.481 74.5132 134.795 74.1201 132.282 73.7185C131.618 73.6128 130.958 73.4923 130.311 73.3296C130.286 73.355 130.261 73.3846 130.233 73.4099C128.077 75.479 125.043 76.0116 122.306 74.8302C120.725 74.1475 119.399 73.0485 118.227 71.7889C118.21 72.4483 118.176 73.1077 118.119 73.7608L118.096 74.0201C117.979 75.2364 117.755 76.5266 116.838 77.4044C115.356 78.8268 113.205 78.2562 111.495 77.3305C111.497 77.3749 111.497 77.4213 111.497 77.4678C111.959 79.0403 112.423 80.6148 112.887 82.1894L112.987 82.5248C113.324 83.6429 113.694 84.7623 113.795 85.9324C113.989 88.1685 112.505 90.3771 110.026 89.6268C108.725 89.2347 107.684 88.1385 106.684 87.2605L106.054 86.7144C107.684 92.0552 108.814 97.5863 108.919 103.16C108.925 103.462 108.666 103.69 108.379 103.701C107.709 103.728 106.988 103.595 106.313 103.327C106.275 103.324 106.237 103.322 106.197 103.316C105.046 103.149 103.977 102.733 103.035 102.118C103.252 102.809 103.349 103.551 103.292 104.326C103.278 104.514 102.984 104.58 102.942 104.373C102.398 101.691 99.2677 99.6639 96.5692 100.177C93.6725 100.729 91.539 103.227 91.0161 106.07C90.4553 109.124 91.5284 112.656 93.5165 115.012C94.4314 116.098 95.6352 117.005 97.0646 117.233C97.7182 117.337 98.397 117.301 99.0316 117.115C99.3014 117.035 99.5544 116.923 99.8116 116.817C100.187 116.665 100.625 116.642 100.98 116.481C101.783 116.12 102.59 116.861 102.183 117.688C101.829 118.409 101.511 118.895 100.923 119.267C101.399 119.85 101.831 120.661 101.992 120.879C102.81 121.987 103.64 123.033 104.572 124.045C105.521 125.072 106.556 126.011 107.65 126.879L108.11 127.244C109.164 128.082 110.082 128.858 110.825 130.06C111.411 131.009 110.652 132.296 109.554 132.282C106.117 132.233 103.619 129.206 101.84 126.562C101.587 126.184 101.349 125.785 101.127 125.375C101.047 125.504 100.958 125.624 100.859 125.734L101.055 126.262C101.637 127.818 99.1307 128.834 98.4033 127.382C97.8742 126.33 97.2607 125.328 96.5776 124.381C96.1749 124.324 95.7807 124.079 95.5615 123.762C95.007 122.957 94.3851 122.143 93.8601 121.285C93.5692 121.008 93.2698 120.742 92.9641 120.482C92.8756 120.56 92.7849 120.638 92.6985 120.721C92.3148 121.598 91.8405 122.399 91.2523 123.153L91.1262 123.314C89.9993 124.738 88.5316 126.195 86.7154 126.543C86.1609 126.649 85.6275 125.958 86.1187 125.516C87.39 124.371 88.8932 123.591 90.0653 122.312C90.6428 121.682 91.1731 120.988 91.629 120.261L91.7329 120.093C91.8088 119.968 91.8868 119.844 91.9669 119.717C91.4378 119.355 90.9086 118.992 90.3795 118.628C88.9227 119.876 87.0257 120.447 85.4145 121.48L85.2544 121.585C83.7976 122.562 82.2628 120.402 83.4308 119.216C84.7183 117.914 85.793 116.361 86.9336 114.914C86.3972 113.923 86.1434 112.752 86.0483 111.569C86.0108 111.234 85.9815 110.898 85.9522 110.563C85.1342 110.576 84.312 110.295 83.6163 109.811L83.3528 109.623C82.5074 109.893 81.6198 110.024 80.7702 110.001C78.7716 109.942 77.9536 107.653 79.2038 106.205C80.4793 104.726 82.7119 104.402 84.4807 105.121C84.5376 105.091 84.5966 105.06 84.6535 105.028C84.5692 104.639 84.588 104.286 84.6839 103.976L84.6561 103.788C84.2671 103.189 84.0114 102.506 83.9144 101.784C83.8377 101.213 83.8533 100.646 83.9852 100.081C84.0291 99.8936 84.1204 99.6989 84.1901 99.503C84.0464 99.1391 83.9618 98.7629 83.9357 98.3846C83.8954 98.3366 83.8554 98.2873 83.8174 98.2341C82.9398 96.9987 83.1171 95.5102 83.9523 94.5105C83.9561 94.4469 83.962 94.3833 83.9707 94.3201C83.9218 94.2097 83.8769 94.0984 83.836 93.9857C83.0199 93.1604 82.4207 92.1673 82.5325 90.9366C82.598 90.2125 82.8949 89.5607 83.3441 89.0735C83.2644 88.8372 83.2568 88.5635 83.3534 88.3351C82.6364 86.4232 82.727 84.1205 83.2431 81.9823C83.1293 81.6568 83.0703 81.3039 83.0829 80.9298C83.1419 79.3425 84.5123 77.8842 86.1356 77.9032C86.331 77.9049 86.514 77.9305 86.6899 77.9679L86.6922 77.9301C86.7544 77.4537 86.8851 77.0134 87.0759 76.6184C86.9821 76.5844 86.8952 76.5356 86.8191 76.4707C85.7789 77.027 84.6782 77.4522 83.5242 77.742C82.6756 77.955 81.8064 76.9881 82.3339 76.1896C82.5786 75.8191 82.8487 75.4864 83.1396 75.1825C82.726 75.1848 82.306 75.2129 81.8812 75.2677C81.118 75.367 80.2663 74.845 79.7709 74.1391C79.1553 74.7393 78.5376 75.3374 77.9199 75.9356C76.3556 77.4552 73.9923 76.3371 73.7456 74.3335C73.2797 74.2088 72.8454 73.9975 72.4638 73.6952C69.9972 74.7689 67.3429 75.3586 64.6297 75.4706C62.6817 75.5509 61.5432 73.2768 62.454 71.6705C63.0654 70.5926 63.8243 69.6246 64.6992 68.7835C63.3415 69.1998 61.9396 69.4999 60.5081 69.6923C59.7344 69.7958 58.6402 69.1533 58.3303 68.4411C57.1455 65.702 57.2467 62.8466 58.6107 60.1815C58.6634 60.0758 58.7224 59.9744 58.7794 59.8729C58.9206 59.52 59.0745 59.1712 59.2411 58.8289C57.5629 57.0747 57.4175 54.4666 58.3219 52.2833C57.9593 51.6937 57.8201 50.9835 58.0668 50.341C58.7688 48.4917 59.7808 46.784 61.0583 45.3172C60.9361 45.0805 60.8285 44.829 60.7379 44.5585C60.019 42.371 60.8517 39.7312 62.532 38.2074C63.5882 37.2479 64.8025 36.673 66.0991 36.3053C66.6451 35.3373 67.3472 34.4644 68.1652 33.7289C68.1968 33.6592 68.2284 33.5894 68.2642 33.5197C69.5376 31.1145 71.8566 29.8253 74.3422 29.5273C74.4392 28.5867 75.0717 27.6885 75.9909 27.3968C76.2438 26.5831 76.6212 25.8054 77.1398 25.0995C77.9557 23.9878 79.3113 23.4636 80.5889 24.1928C81.2888 24.5922 81.9592 25.0509 82.5875 25.5581C82.8697 25.4254 83.1896 25.3396 83.5505 25.3122L83.6416 25.3066L85.7203 25.2009C86.591 24.8141 87.4596 24.4084 88.3303 24.0131C88.8531 23.5799 89.4371 23.2185 90.0738 22.95C90.7948 22.6478 91.5326 22.4766 92.2726 22.4195C92.8735 22.223 93.4785 22.0497 94.0941 21.9144C95.5404 21.5974 97.0541 21.4199 98.5551 21.4347C98.5858 21.0452 98.6011 20.651 98.5982 20.2522L98.5952 20.0524C98.5615 18.7738 99.5797 17.7529 100.779 17.5712ZM99.3225 119.875C99.1159 119.92 98.9072 119.956 98.6985 119.981C98.7617 120.137 98.825 120.294 98.8861 120.45C99.0548 120.545 99.2255 120.636 99.3963 120.721C99.3457 120.433 99.3162 120.144 99.3225 119.875ZM88.4911 116.649L88.351 116.907C88.3283 116.95 88.3059 116.991 88.2839 117.033C88.5811 117.009 88.8805 117.016 89.1757 117.05L89.1748 117.018C89.1369 117.005 89.0989 116.993 89.0627 116.976C88.859 116.877 88.6697 116.768 88.4911 116.649ZM94.345 104.844C96.2102 104.953 97.7904 105.24 99.4867 106.058L99.6324 106.129C101.131 106.875 103.611 108.253 103.402 110.229C103.343 110.791 102.936 111.383 102.295 111.339C100.539 111.218 99.5354 109.443 98.3464 108.336C97.1468 107.22 95.6732 106.072 94.2206 105.305C94.0153 105.197 94.0962 104.855 94.3196 104.844L94.345 104.844ZM85.8868 78.8078C85.4399 78.8226 85.5896 79.258 85.8194 78.8945C85.8384 78.8649 85.8615 78.8353 85.8868 78.8078ZM110.012 49.7425C105.78 49.8541 101.519 52.3596 98.3485 54.8923C95.5899 57.0956 93.2078 59.7163 91.0986 62.541C90.5559 63.9478 90.09 65.3839 89.6964 66.8306C89.4371 67.7859 89.2747 68.7518 89.0576 69.7155L88.9901 70.011C88.8196 70.3305 88.6929 70.6744 88.6005 71.0297C88.9849 71.416 89.4835 71.6927 90.0324 71.8239C90.2093 71.8662 90.3563 71.9577 90.4724 72.079C90.9143 71.3397 91.3005 70.5594 91.5253 69.7322L91.5335 69.694C92.3829 68.2993 93.3055 66.9479 94.2944 65.6428C97.0225 62.0393 100.027 58.7549 103.638 56.0221C106.377 53.9509 109.438 52.3277 112.693 51.2731C111.896 50.6287 110.991 50.1189 110.012 49.7425Z" fill="black"/>
<path fill-rule="evenodd" clip-rule="evenodd" d="M143.152 128.274C141.732 127.695 140.465 126.728 139.538 125.493C139.216 125.063 139.133 124.61 139.2 124.195C139.276 123.729 139.552 123.306 139.928 123.023C140.305 122.739 140.777 122.598 141.233 122.67C141.63 122.732 142.024 122.949 142.337 123.399L142.402 123.489C142.953 124.235 143.67 124.846 144.488 125.241C145.276 125.621 146.158 125.798 147.07 125.695C148.808 125.499 150.005 124.559 151.278 123.282C151.436 123.121 151.594 122.955 151.752 122.786C151.852 122.633 151.991 122.534 152.146 122.483C152.317 122.425 152.511 122.429 152.689 122.491C152.86 122.55 153.013 122.664 153.116 122.815C153.213 122.958 153.269 123.135 153.251 123.339C153.134 124.661 152.443 125.842 151.461 126.769C150.37 127.799 148.924 128.511 147.563 128.761C146.064 129.036 144.536 128.839 143.152 128.274ZM148.271 107.866C149.866 108.836 152.297 111.098 150.581 113.503C148.56 115.624 145.652 113.193 144.219 112.093C142.889 111.241 141.396 113.433 142.629 114.428C152.986 122.099 157.19 108.12 149.078 106.726C148.184 106.572 147.853 107.566 148.271 107.866ZM129.711 98.9429C129.887 96.7541 133.219 96.257 133.551 98.423C133.847 100.363 133.498 102.145 132.624 103.892C131.79 105.561 129.692 104.783 129.533 103.263C129.32 101.226 129.601 100.304 129.711 98.9429ZM155.076 97.9739C155.541 97.3652 156.211 96.9497 157.015 97.1845C159.526 97.9185 158.786 101.485 157.904 103.22C157.425 104.163 155.876 104.402 155.176 103.572C154.035 102.219 153.489 99.5157 154.939 98.1825C154.979 98.1136 155.022 98.044 155.076 97.9739ZM132.589 89.3654L132.986 89.2959C134.213 89.0836 135.738 88.8796 136.606 89.8665C137.067 90.3898 137.225 91.3624 136.606 91.8633C135.518 92.7446 134.314 92.4031 133.01 92.4777C131.935 92.5394 130.902 92.7174 129.867 93.0135C127.595 93.6629 125.744 94.8486 123.804 96.1505C123.55 96.3213 123.29 95.9956 123.411 95.7574C124.531 93.563 126.701 91.7604 128.875 90.6616C130.036 90.0751 131.305 89.5885 132.589 89.3654ZM152.787 88.3823L153.091 88.4445C156.394 89.1353 160.687 90.5153 162.251 93.7615C162.311 94.2205 162.248 94.3189 162.197 94.3832L162.179 94.4046C162.137 94.4595 162.104 94.5351 161.905 94.5976C161.849 94.5845 161.794 94.5705 161.737 94.5557C161.02 94.3677 160.453 94.1087 159.904 93.84L159.308 93.5465C158.617 93.2076 157.92 92.881 157.181 92.6399C155.605 92.1255 153.983 91.7631 152.337 91.5696C151.98 91.5277 151.636 91.4072 151.365 91.2007C151.107 91.0046 150.911 90.7332 150.821 90.3724C150.705 89.9056 150.738 89.5521 150.989 89.1309C151.177 88.8146 151.447 88.5953 151.756 88.4694C152.071 88.3411 152.43 88.3108 152.787 88.3823Z" fill="black"/>
<path fill-rule="evenodd" clip-rule="evenodd" d="M129.449 129.599C131.159 125.59 134.893 122.644 139.191 121.566C142.347 120.778 145.66 120.803 148.877 121.116C150.563 121.279 152.371 121.412 153.96 122.039C155.317 122.574 156.422 123.585 157.253 124.772C158.243 126.179 158.916 127.789 159.389 129.439C159.456 129.674 159.519 129.91 159.578 130.148C159.372 131.393 158.936 132.453 157.783 133.236C156.658 134 155.316 134.313 153.978 134.424C153.846 134.361 153.72 134.296 153.603 134.23C151.518 133.035 150.051 130.213 147.419 130.595C145.07 130.936 143.524 133.893 142.127 135.626C137.644 136.149 133.164 134.801 129.516 132.237C129.33 131.359 129.32 130.473 129.449 129.599ZM162.625 126.558C162.266 125.551 161.815 124.576 161.279 123.657C159.509 120.619 156.791 118.198 153.565 116.814C145.934 113.546 136.06 115.85 129.897 121.211C127.792 123.044 125.663 125.737 125.019 128.634C124.827 128.672 124.646 128.772 124.496 128.913C120.043 126.108 115.458 123.41 111.87 119.523C109.264 116.698 107.452 113.355 106.342 109.682C106.251 109.38 105.764 109.424 105.779 109.759C105.783 109.837 105.787 109.915 105.792 109.993C105.745 109.849 105.526 109.923 105.509 110.063C104.912 114.525 104.165 119.256 104.853 123.742C105.264 126.418 106.479 128.377 108.104 130.493C109.845 132.761 111.815 134.87 113.83 136.893C115.109 138.177 116.444 139.658 118.01 140.6C119.831 141.694 121.896 142.525 123.839 143.369C125.816 144.231 127.823 145.026 129.867 145.716C133.954 147.1 138.178 148.056 142.476 148.475C145.917 148.809 149.85 149.173 153.148 147.878C155.675 146.886 157.715 145.092 159.334 142.934C161.095 140.583 162.488 137.905 163.258 135.082C164.058 132.149 162.794 127.03 162.625 126.558Z" fill="black"/>
</svg>
