<svg width="240" height="324" viewBox="0 0 240 324" fill="none" xmlns="http://www.w3.org/2000/svg">
<path fill-rule="evenodd" clip-rule="evenodd" d="M55.2051 285.569C57.7343 285.726 60.2632 285.849 62.792 285.944C95.8618 287.176 128.905 283.405 161.954 282.58C173.463 282.277 184.914 282.428 196.393 283.352C197.518 283.443 198.804 282.232 198.666 281.079C196.545 262.764 193.892 244.499 192.517 226.109C192.516 225.136 192.641 224.165 192.976 223.249C193.038 223.177 193.365 222.371 193.656 222.321C193.561 222.392 193.991 222.268 193.717 222.289C195.377 222.017 197.004 220.225 195.8 218.51C183.392 199.485 166.454 182.12 161.004 159.523C159.717 153.414 155.066 153.036 150.112 150.516C148.566 149.596 144.787 147.049 144.171 145.278C142.702 138.894 145.29 132.641 137.73 130.058C132.739 128.673 123.918 127.502 118.869 128.962C112.709 131.013 113.17 137.957 109.598 142.734C107.75 145.497 104.6 149.28 101.691 149.703C100.281 149.909 99.243 147.056 97.8354 147.252C75.8944 152.583 46.0013 188.949 36.5711 209.08C34.446 215.416 41.2997 213.505 40.8786 219.873C40.3595 231.954 39.2242 247.419 39.8975 259.515C40.5282 266.535 40.0615 273.891 42.2428 280.647C41.6557 281.36 42.4993 282.08 43.1876 282.39C44.0549 283.866 52.5884 285.365 55.2051 285.569Z" fill="#D08B5B"/>
<path d="M97.8354 147.252C99.1481 147.069 99.2335 150.931 100.505 151.098C106.405 159.384 115.548 162.134 126.122 162.134C137.347 162.134 146.448 158.757 153.427 152.003L154.067 152.273C157.37 153.678 160.071 155.094 161.004 159.523C166.454 182.121 183.392 199.485 195.8 218.51C197.004 220.225 195.377 222.018 193.717 222.289C193.991 222.268 193.561 222.392 193.656 222.321C193.365 222.371 193.038 223.177 192.976 223.249C192.814 223.692 192.701 224.149 192.628 224.612C192.628 224.612 178.727 227.558 174.99 227.639C137.466 228.451 68.8428 227.291 68.8428 227.291L40.1005 216.415C38.4567 213.946 34.9721 213.848 36.5711 209.081C46.0013 188.949 75.8944 152.583 97.8354 147.252Z" fill="#E86BBB"/>
<path fill-rule="evenodd" clip-rule="evenodd" d="M112.327 135.125C112.898 132.558 116.982 133.659 116.282 136.216C115.199 140.171 112.951 143.907 109.778 146.53C107.327 148.555 103.987 150.362 100.674 150.696C100.984 150.998 101.282 151.321 101.595 151.63C102.301 152.331 103.051 152.982 103.824 153.608C105.413 154.893 107.065 156.049 108.869 157.017C116.075 160.885 124.216 161.777 132.265 160.876C136.084 160.449 139.961 159.725 143.553 158.327C145.218 157.681 146.836 156.831 148.264 155.758L148.638 155.477C149.389 154.91 150.391 154.109 150.861 153.234C149.432 153.555 147.626 152.033 146.635 151.148C145.552 150.176 144.639 148.922 143.965 147.637C142.644 145.116 141.945 141.863 143.052 139.16C143.126 138.98 143.363 139.01 143.384 139.205C143.711 142.356 144.561 145.311 146.821 147.644C147.825 148.677 149.027 149.544 150.339 150.146L150.523 150.231C151.082 150.49 151.671 150.793 151.906 151.347C151.997 151.336 152.088 151.344 152.175 151.368C152.253 151.389 152.325 151.412 152.394 151.438C152.238 151.131 152.156 150.77 152.17 150.343C152.226 148.688 154.497 148.637 154.811 150.11C154.754 149.916 154.678 150.104 154.822 150.163C154.82 150.146 154.816 150.127 154.811 150.11L154.815 150.126L154.824 150.163L154.822 150.163C154.828 150.19 154.832 150.218 154.835 150.246L154.838 150.282L154.836 150.252C154.834 150.229 154.832 150.208 154.829 150.19L154.824 150.163C154.845 150.174 154.875 150.18 154.908 150.18L154.922 150.186C154.975 150.208 155.162 150.296 155.217 150.318C155.595 150.457 156.018 150.501 156.404 150.622C157.243 150.88 157.983 151.307 158.494 152.033C158.861 152.556 159.066 153.154 159.151 153.775C162.863 155.561 166.376 157.882 169.319 160.754C175.887 167.162 180.468 175.183 184.226 183.485C186.139 187.711 187.844 192.027 189.511 196.355L189.774 197.039C191.561 201.69 193.142 206.393 193.53 211.394C193.566 211.842 193.418 212.262 193.163 212.611C193.253 212.987 193.3 213.363 193.287 213.731C193.285 213.788 193.281 213.845 193.277 213.902C193.877 213.892 194.464 214.143 195.022 214.849C195.248 214.777 195.493 214.769 195.734 214.847C197.202 215.316 197.439 216.929 197.715 218.279C198.001 219.674 198.125 221.103 198.127 222.525C198.127 223.035 197.836 223.677 197.342 223.895C196.412 224.305 195.411 224.573 194.449 224.945C193.727 225.224 193.002 225.488 192.271 225.736C192.677 226.444 192.808 227.429 193.027 228.175C193.372 229.339 193.649 230.508 193.881 231.7C195.457 239.805 196.549 247.997 198.024 256.119C198.761 260.188 199.619 264.229 200.494 268.27C200.925 270.257 201.383 272.239 201.875 274.213C202.137 275.265 202.41 276.318 202.691 277.364C202.772 277.67 202.855 277.975 202.939 278.279L203.086 278.812C203.407 278.99 203.682 279.258 203.872 279.626C204.567 280.97 204.168 282.485 202.834 283.242C201.385 284.066 199.655 283.288 198.856 281.95C198.294 281.006 198.111 279.755 197.834 278.704C197.521 277.525 197.223 276.339 196.936 275.154C194.984 267.099 193.677 258.902 192.692 250.675L192.622 250.088C192.121 245.852 191.637 241.606 191.325 237.352C191.17 235.261 191.048 233.171 190.972 231.076C190.934 229.999 190.995 228.914 191.056 227.838C191.084 227.367 191.124 226.894 191.139 226.423L191.143 226.356C191.147 226.308 191.153 226.245 191.157 226.179L191.162 226.099C189.704 226.556 188.225 226.936 186.732 227.257C183.554 227.944 180.303 228.327 177.06 228.132C177.512 233.505 178.101 238.865 178.925 244.189C179.72 249.316 180.637 254.433 181.672 259.518C182.19 262.073 182.749 264.622 183.339 267.163C183.656 268.519 184.017 269.868 184.302 271.231C184.471 272.042 184.524 272.721 184.184 273.48C184.558 274.5 184.891 275.525 185.218 276.491L185.316 276.779C185.895 278.47 186.994 280.198 185.846 281.86C185.253 282.718 184.285 283.208 183.311 283.238C183.294 283.248 183.275 283.261 183.256 283.271C182.732 283.553 182.128 283.608 181.553 283.487C180.681 283.658 179.806 283.823 178.93 283.973C176.764 284.347 174.588 284.656 172.408 284.916C168.256 285.41 164.077 285.681 159.901 285.831C144.609 286.382 129.301 285.415 114.003 285.693C106.209 285.835 98.4154 286.186 90.6344 286.651C86.7513 286.884 82.8661 287.133 78.9809 287.325L77.7783 287.384C74.3038 287.55 70.8268 287.679 67.3548 287.425C67.2872 287.42 67.2344 287.393 67.1985 287.355C66.0006 287.22 64.7966 286.116 64.9168 284.842C65.4344 279.414 65.952 273.987 66.4717 268.557C67.395 258.884 68.3267 249.21 69.2689 239.539L69.4051 238.143C69.7217 234.884 70.0239 231.617 70.1774 228.346C69.4041 228.291 68.6332 228.221 67.8619 228.136C59.5051 227.221 51.4938 224.693 43.8017 221.371L43.49 221.236C42.7971 220.934 42.0386 220.631 41.2612 220.308C41.2741 221.785 41.2253 223.265 41.2189 224.727C41.2084 227.156 41.2274 229.584 41.2337 232.011C41.2485 237.011 41.4386 242.014 41.6879 247.006C42.1253 255.823 42.6386 264.628 43.4161 273.425C43.6126 275.637 43.879 277.846 44.0668 280.059C44.179 281.363 43.9105 282.449 42.717 283.134C42.1295 283.472 41.6753 283.331 41.0922 283.058C39.6682 282.39 39.6281 280.812 39.4929 279.438C39.3896 278.402 39.2943 277.367 39.2013 276.329C39.0029 274.116 38.8316 271.903 38.6922 269.686C38.141 260.877 37.9802 252.076 38.3605 243.257C38.537 239.131 38.7919 234.997 39.1302 230.879L39.2098 229.929C39.4886 226.638 39.6682 223.185 40.245 219.873C37.9189 218.841 35.614 217.529 34.545 215.348C33.1593 212.516 34.6823 210.094 36.852 208.426C36.8309 208.145 36.852 207.866 36.9112 207.612C37.5344 204.913 38.5781 202.246 39.5858 199.672C40.602 197.085 41.7239 194.538 42.9577 192.046C47.9098 182.064 54.6746 172.943 62.7386 165.258C66.7443 161.441 71.1281 157.913 75.8077 154.954C78.1274 153.49 80.5063 152.137 82.9696 150.933L83.3338 150.755C85.0487 149.923 86.972 149.037 88.879 148.574C89.0774 148.426 89.2781 148.286 89.4809 148.153C90.2309 147.654 91.2492 148.016 91.6929 148.728C91.9086 148.561 92.1577 148.413 92.4429 148.28L92.7248 148.151C94.4359 147.38 96.4904 146.66 98.3478 147.166C99.5013 147.481 100.41 148.331 100.818 149.413C101.753 148.918 102.672 148.409 103.57 147.786C105.013 146.788 106.321 145.549 107.496 144.249C109.851 141.635 111.563 138.573 112.327 135.125ZM194.065 217.552C193.904 217.599 193.735 217.616 193.56 217.594C193.877 217.632 193.242 217.819 193.068 217.909L193.055 217.916C192.738 218.097 192.419 218.273 192.096 218.442C191.341 218.839 190.571 219.196 189.787 219.533C188.242 220.19 186.647 220.695 185.01 221.065C183.408 221.426 181.729 221.637 180.087 221.671C178.989 221.692 177.685 221.642 176.548 221.318C176.68 223.311 176.825 225.302 176.988 227.291L179.233 226.776C181.478 226.261 183.72 225.733 185.935 225.091C187.598 224.609 189.237 224.045 190.858 223.436C191.707 223.117 192.55 222.779 193.382 222.415C193.797 222.234 194.185 222.019 194.569 221.801L194.897 221.614C194.821 220.725 194.682 219.852 194.479 218.973C194.373 218.508 194.194 218.03 194.065 217.552ZM40.351 208.166C40.0657 209.092 39.6284 209.956 38.6312 210.166C38.2784 210.239 37.9829 210.199 37.7376 210.079L37.6788 210.198C36.8589 211.881 36.6181 213.658 38.5045 214.955C39.3561 215.54 40.2833 216.047 41.2425 216.502C42.9577 217.318 44.7844 217.975 46.5066 218.642L46.8495 218.776C49.9298 219.985 53.0587 221.086 56.2362 222.007C59.4603 222.939 62.7411 223.688 66.0624 224.163C67.4629 224.362 68.8742 224.501 70.2878 224.592C70.3108 222.69 70.3003 220.786 70.2939 218.884C69.7911 218.82 69.2925 218.753 68.811 218.695C67.3446 218.524 65.8826 218.315 64.4291 218.055C61.3932 217.512 58.389 216.762 55.4587 215.802C50.0291 214.021 44.9777 211.474 40.351 208.166ZM99.8796 149.901C98.6458 148.595 96.286 149.066 94.7968 149.7C94.3466 149.893 93.8923 150.087 93.4613 150.322L93.3779 150.368C92.8759 150.658 92.8785 150.829 93.1235 151.406C93.4423 152.165 93.886 152.898 94.3085 153.602C96.1172 156.622 98.498 159.251 101.217 161.472C110.847 169.335 124.68 172.108 136.723 169.474C142.502 168.212 148.077 165.663 152.331 161.484L152.719 161.098C154.434 159.381 156.789 156.895 156.624 154.35C156.546 153.126 155.547 153.056 154.526 152.82C154.108 152.723 153.709 152.585 153.362 152.391C153.641 153.593 152.156 155.381 151.389 156.132C149.781 157.706 147.846 158.936 145.799 159.856C141.903 161.608 137.665 162.436 133.446 162.96C128.659 163.556 123.768 163.504 119.016 162.622C114.882 161.855 110.806 160.403 107.249 158.142C105.618 157.106 104.01 155.924 102.649 154.549L102.36 154.256C101.378 153.261 100.235 152.057 99.6473 150.751C99.4233 150.753 99.2015 150.746 98.9797 150.731C98.8233 150.723 98.739 150.501 98.8951 150.419C99.0705 150.326 99.2458 150.233 99.4212 150.142C99.3918 150.045 99.3663 149.95 99.3451 149.852C99.3282 149.77 99.4149 149.694 99.4909 149.74C99.5965 149.804 99.698 149.871 99.7973 149.943C99.8247 149.931 99.8522 149.916 99.8796 149.901Z" fill="black"/>
<path fill-rule="evenodd" clip-rule="evenodd" d="M160.713 72.2154C148.036 63.803 122.639 64.7167 108.684 69.8707C95.067 74.1998 90.2996 86.2626 88.0388 99.2951C85.2907 113.942 85.6601 135.057 105.421 134.801C108.199 136.148 111.277 136.732 114.152 137.848C118.086 139.212 121.944 140.795 125.936 141.989C133.799 144.528 142.549 144.307 150.008 140.592C154.129 138.596 155.835 135.488 158.53 132.177C166.371 122.542 170.316 108.754 169.962 96.5036C169.342 87.8773 167.919 77.8914 160.713 72.2154Z" fill="#D08B5B"/>
<path fill-rule="evenodd" clip-rule="evenodd" d="M176.755 107.724C175.454 99.6292 175.094 91.3971 173.39 83.3658C171.788 75.8081 168.792 68.6664 163.558 62.905C158.873 57.7502 152.816 53.9649 146.315 51.5661C133.648 46.8931 119.081 47.9498 106.828 53.405C95.359 58.5089 86.2114 67.952 80.8797 79.2846C77.4159 86.6481 75.6745 94.4765 74.9008 102.556C74.0428 111.532 73.95 120.602 73.6 129.609C73.5579 130.721 73.4967 131.833 73.482 132.945C73.4651 134.162 73.9563 135.229 74.3569 136.362C74.3843 136.442 74.4243 136.519 74.4728 136.59C74.1714 136.628 73.8699 136.673 73.5684 136.721C73.2311 136.774 73.2458 137.324 73.5684 137.389C76.2985 137.947 79.1046 138.025 81.8811 138.163C84.7588 138.306 87.6408 138.385 90.5227 138.482C93.333 138.577 96.1432 138.672 98.9535 138.767C100.429 138.818 101.905 138.869 103.381 138.917C104.083 138.94 104.785 138.966 105.489 138.989C105.839 139.002 106.191 139.012 106.541 139.025C106.826 139.033 107.289 139.215 107.319 139.006C107.372 139.038 107.429 139.065 107.49 139.084C107.557 139.12 107.622 139.162 107.686 139.209C108.029 139.446 108.55 139.416 108.898 139.209C108.93 139.19 108.963 139.169 108.997 139.147C109.256 138.993 109.438 138.769 109.539 138.516C110.981 140.261 113.534 138.3 112.058 136.453C111.265 135.459 103.381 111.106 106.644 92.5532L119.732 90.8159C122.125 90.5729 126.577 90.0889 126.577 90.0889C126.577 90.0889 127.667 86.5234 127.979 85.3758C128.003 85.2912 128.026 85.2046 128.051 85.12C128.363 85.6719 128.677 86.2212 128.993 86.7707L130.608 90.0614C130.608 90.0614 154.444 89.6619 160.288 89.7C160.387 89.7 160.857 96.8225 160.644 99.9589C160.214 106.257 159.757 112.551 159.12 118.833C158.714 122.855 157.734 126.799 156.275 130.506C153.97 136.362 147.278 141.928 140.753 141.928C136.692 141.928 127.514 138.63 126.177 137.964C124.84 137.298 124.044 139.116 125.262 139.843C127.729 141.316 134.531 144.44 140.753 144.44C149.79 144.44 156.611 135.844 157.448 134.612C165.677 134.16 174.093 134.369 182.31 135.187C183 135.254 183.594 134.422 183.373 133.786C180.421 125.317 178.176 116.582 176.755 107.724Z" fill="black"/>
<path fill-rule="evenodd" clip-rule="evenodd" d="M143.152 128.274C141.732 127.694 140.465 126.727 139.538 125.492C139.216 125.063 139.133 124.61 139.2 124.195C139.276 123.729 139.552 123.306 139.928 123.023C140.305 122.738 140.777 122.598 141.233 122.67C141.63 122.732 142.024 122.949 142.337 123.399L142.402 123.489C142.953 124.235 143.67 124.846 144.488 125.24C145.276 125.62 146.158 125.798 147.07 125.695C148.807 125.498 150.005 124.558 151.278 123.282C151.436 123.121 151.593 122.954 151.752 122.786C151.852 122.632 151.991 122.534 152.146 122.482C152.317 122.425 152.511 122.428 152.689 122.49C152.86 122.55 153.013 122.663 153.116 122.814C153.213 122.958 153.268 123.135 153.251 123.338C153.134 124.661 152.443 125.842 151.461 126.769C150.37 127.798 148.924 128.511 147.563 128.76C146.064 129.036 144.536 128.839 143.152 128.274ZM148.271 107.866C149.866 108.836 152.297 111.098 150.58 113.503C148.56 115.624 145.652 113.192 144.218 112.093C142.889 111.241 141.396 113.432 142.629 114.427C152.986 122.098 157.189 108.12 149.077 106.725C148.184 106.572 147.853 107.566 148.271 107.866ZM129.711 98.9426C129.887 96.7538 133.219 96.2568 133.551 98.4227C133.847 100.363 133.498 102.145 132.624 103.892C131.79 105.561 129.692 104.782 129.533 103.263C129.32 101.226 129.601 100.304 129.711 98.9426ZM155.076 97.9736C155.541 97.3649 156.212 96.9494 157.015 97.1842C159.526 97.9182 158.786 101.484 157.904 103.22C157.425 104.163 155.876 104.402 155.176 103.572C154.035 102.218 153.489 99.5154 154.939 98.1822C154.979 98.1133 155.023 98.0438 155.076 97.9736ZM132.589 89.3651L132.986 89.2957C134.213 89.0834 135.738 88.8794 136.606 89.8662C137.067 90.3895 137.225 91.3622 136.606 91.8631C135.518 92.7444 134.314 92.4029 133.01 92.4775C131.935 92.5392 130.902 92.7171 129.867 93.0132C127.595 93.6627 125.744 94.8484 123.804 96.1503C123.55 96.3211 123.29 95.9954 123.411 95.7572C124.531 93.5627 126.701 91.7601 128.875 90.6613C130.036 90.0748 131.305 89.5883 132.589 89.3651ZM152.787 88.3821L153.091 88.4442C156.394 89.1351 160.687 90.515 162.251 93.7613C162.311 94.2203 162.248 94.3187 162.196 94.3829L162.179 94.4043C162.137 94.4592 162.103 94.5349 161.905 94.5974C161.849 94.5842 161.794 94.5703 161.737 94.5555C161.02 94.3675 160.453 94.1085 159.904 93.8398L159.308 93.5462C158.617 93.2073 157.92 92.8807 157.181 92.6396C155.605 92.1252 153.983 91.7628 152.336 91.5693C151.98 91.5274 151.636 91.4069 151.365 91.2004C151.107 91.0044 150.911 90.733 150.821 90.3722C150.705 89.9053 150.738 89.5518 150.989 89.1306C151.177 88.8143 151.446 88.5951 151.756 88.4692C152.071 88.3408 152.43 88.3106 152.787 88.3821Z" fill="black"/>
<path fill-rule="evenodd" clip-rule="evenodd" d="M172.803 91.7748C172.629 91.7458 172.455 91.7185 172.281 91.693C172.145 91.6158 171.986 91.5564 171.8 91.5207C171.377 91.4131 170.956 91.3407 170.536 91.3016C164.508 89.9445 150.563 91.8714 149.988 97.0173C148.068 97.6583 146.407 97.0843 144.182 97.1414C142.489 90.0601 113.211 91.0596 111.803 95.3288C111.797 95.3274 111.792 95.3261 111.786 95.3244C110.434 94.9055 108.439 95.0065 106.89 94.9402C103.584 94.8708 100.273 95.1657 97.0383 95.8633C90.9802 96.8265 82.7122 97.954 86.9255 105.522C86.9264 105.523 86.927 105.525 86.9281 105.526L86.9287 105.525C87.6548 106.27 88.8872 105.67 88.933 104.662C87.5165 101.077 90.7159 100.647 93.1776 99.6163C99.3029 97.4149 105.539 97.1097 111.874 97.7906C112.351 98.352 113.074 98.8415 113.838 99.0976C118.074 99.801 115.842 102.944 118.519 103.401C118.027 114.358 131.325 120.339 139.029 113.136C142.106 110.128 142.839 105.67 143.552 101.653C143.929 101.568 144.169 101.362 144.309 101.089C145.216 100.183 145.786 99.3464 147.579 99.0976C149.373 98.8491 150.754 99.3481 150.94 99.5009C150.987 99.5958 151.038 99.6909 151.097 99.786C151.179 99.9278 151.29 100.041 151.417 100.13C149.646 111.041 158.113 117.941 166.661 112.282C170.375 108.787 171.159 103.436 171.315 98.6597C171.818 98.3558 172.137 97.7668 171.962 97.0262C171.722 96.0054 172.286 95.1215 173.183 94.6777C174.348 94.1013 174.142 91.9965 172.803 91.7748ZM136.075 96.951C135.014 96.7176 134.561 98.354 135.625 98.5881C136.379 98.7539 137.017 99.1341 137.449 99.7783L137.494 99.8483C138.074 100.77 139.538 99.9192 138.955 98.9913C138.299 97.9472 137.279 97.2159 136.075 96.951ZM167.149 95.9363C166.775 95.6727 166.209 95.8684 165.992 96.2408C165.753 96.651 165.91 97.1076 166.26 97.3759L166.296 97.4021C166.617 97.6287 166.93 98.0348 166.969 98.4509L166.973 98.5029C167.015 99.5918 168.707 99.5973 168.664 98.5029C168.623 97.4323 168.003 96.5377 167.149 95.9363Z" fill="black"/>
</svg>
