<svg width="240" height="324" viewBox="0 0 240 324" fill="none" xmlns="http://www.w3.org/2000/svg">
<path fill-rule="evenodd" clip-rule="evenodd" d="M41.1971 209.213L192.564 221.234L192.723 222.263C195.259 238.789 196.541 250 196.566 255.897L196.567 256.078C196.567 261.925 198.361 271.225 201.95 283.977L202.172 284.762L40.9858 285.043L39.0844 246.66L41.1971 209.213ZM130.81 126.849C136.965 127.153 143.168 129.792 143.647 131.479C144.714 135.236 146.43 151.319 152.073 153.79C157.716 156.261 169.762 154.009 173.207 159.909C176.651 165.81 187.963 189.865 187.963 195.469C187.963 199.206 151.1 200.503 77.3753 199.361C78.3165 169.264 82.2403 153.443 89.1467 151.898L89.7632 151.762C99.751 149.579 105.72 149.509 109.127 145.99C112.604 142.4 113.235 136.237 114.677 131.479C115.472 128.857 123.258 126.476 130.81 126.849Z" fill="#D08B5B"/>
<path fill-rule="evenodd" clip-rule="evenodd" d="M144.308 136.255C144.331 136.237 144.354 136.232 144.38 136.245C144.859 136.475 144.958 136.936 145.123 137.415C145.364 138.117 145.643 138.802 145.901 139.497C146.414 140.892 146.904 142.285 147.477 143.657C148.064 145.068 148.673 146.455 149.37 147.818C149.706 148.477 150.067 149.124 150.434 149.767C150.688 150.213 150.925 150.826 151.258 151.244C151.284 151.111 151.32 150.984 151.362 150.866C151.318 150.887 151.275 150.91 151.235 150.935C151.151 150.988 151.049 150.883 151.1 150.8C151.282 150.5 151.518 150.297 151.789 150.16C152.537 149.329 169.022 153.293 173.528 157.745C181.69 165.808 187.199 175.778 190.823 186.383C192.823 192.235 194.665 198.145 196.569 204.029C198.58 210.251 200.68 216.446 202.696 222.664C203.137 224.031 202.174 225.274 200.957 225.724C198.69 226.561 196.406 227.349 194.103 228.078C195.221 232.371 196.003 236.754 196.565 241.15C197.725 250.215 197.87 259.464 199.698 268.434C200.118 270.492 200.649 272.522 201.209 274.546L201.339 275.013C201.673 276.201 201.978 277.399 202.387 278.561C202.74 279.561 203.196 280.569 203.444 281.601C203.733 282.814 203.306 284.139 202.172 284.762C201.261 285.263 199.958 285.056 199.408 284.116C199.296 283.923 199.229 283.714 199.201 283.503C199.119 283.327 199.043 283.148 198.975 282.964C198.949 282.893 198.926 282.82 198.904 282.746L198.838 282.526C198.677 282.002 198.53 281.474 198.382 280.945C198.141 280.098 197.898 279.253 197.631 278.413L197.494 277.993C196.831 275.972 196.237 273.935 195.72 271.872C193.867 264.476 193.474 256.818 192.966 249.238L192.939 248.846C192.479 242.053 192.204 235.275 192.768 228.497L192.691 228.522L192.614 228.545C191.881 228.769 191.146 228.989 190.408 229.203C190.385 229.211 190.364 229.22 190.341 229.226C189.869 229.372 189.384 229.511 188.891 229.64L188.594 229.716L188.384 229.773L188.164 229.836C187.466 230.039 186.753 230.272 186.029 230.249C184.829 230.441 183.608 230.557 182.408 230.562C182.777 236.608 183.204 242.651 183.713 248.687C184.225 254.755 184.903 260.8 185.606 266.844C185.953 269.831 186.325 272.811 186.734 275.786C186.942 277.295 187.157 278.796 187.432 280.292C187.715 281.823 188.215 283.458 187.913 285.006C187.907 285.003 187.901 285.001 187.894 285.001C187.793 285.449 187.523 285.851 187.051 286.128C186.187 286.633 184.979 286.337 184.482 285.454C184.44 285.38 184.4 285.304 184.362 285.225C183.853 285.443 183.295 285.528 182.611 285.534L173.327 285.627C169.108 285.669 164.889 285.714 160.668 285.775C147.416 285.97 134.163 286.196 120.911 286.356L115.941 286.413C108.487 286.491 101.03 286.646 93.576 286.643C89.8474 286.643 86.1225 286.631 82.3936 286.54C80.5873 286.496 78.7852 286.426 76.981 286.352L76.6624 286.337C75.2221 286.266 73.6928 286.133 72.2845 286.455C71.8958 287.212 70.9028 287.368 70.3831 286.595C69.1954 284.825 68.8713 282.355 68.6519 280.192L68.5746 279.413C68.3317 276.989 68.1183 274.565 67.9598 272.136C67.3979 263.532 67.1929 254.92 67.4507 246.299C67.5817 241.905 67.9852 237.536 68.4627 233.168C68.6127 231.804 68.769 230.443 68.938 229.084L68.9409 228.601C68.9412 228.447 68.9401 228.299 68.9359 228.161L68.8938 226.849C68.8588 225.756 68.8263 224.663 68.8127 223.569L68.807 222.913L68.8007 221.691C67.757 221.592 66.6436 221.245 65.7436 221.078C64.284 220.806 62.8282 220.512 61.3767 220.201C58.4697 219.576 55.5944 218.836 52.738 218.018L52.1305 217.844C49.4949 217.084 46.823 216.274 44.3296 215.137C43.3535 214.691 42.3796 214.188 41.5239 213.529C41.4732 214.222 41.3951 214.913 41.3486 215.6C41.2558 216.959 41.1458 218.314 41.0549 219.673L40.968 220.966C40.8253 223.12 40.6968 225.273 40.6387 227.434C40.381 236.86 40.3366 246.326 40.8352 255.746C41.0824 260.461 41.4352 265.177 41.9444 269.873C42.1936 272.183 42.4577 274.499 42.7831 276.801C43.119 279.166 43.7253 281.516 43.9113 283.898C44.0887 286.195 40.5775 286.529 40.0007 284.429C39.3101 281.91 39.1341 279.192 38.7701 276.602L38.7289 276.315C38.3253 273.563 38.0021 270.801 37.7232 268.034C36.7604 258.492 36.5105 248.901 37.0155 239.322C37.2555 234.735 37.8247 230.165 38.5136 225.626L38.5936 225.103C38.9073 223.07 39.2008 221.037 39.556 219.013L39.6922 218.255C40.0113 216.515 40.2563 214.624 40.7739 212.884L40.6201 212.742C40.3324 212.474 40.0207 212.164 39.7936 211.83C39.012 211.724 38.3465 211.162 38.4289 210.141C38.6972 206.787 39.9225 203.376 41.0148 200.21C42.1113 197.027 43.3831 193.903 44.8239 190.86C49.8922 180.163 57.1915 170.452 66.1176 162.672C70.8521 158.544 76.0408 154.883 81.7746 152.278C84.6014 150.99 87.5253 149.995 90.5887 149.458C92.1056 149.192 93.6373 148.985 95.1796 148.94C96.4308 148.201 97.9163 148.512 99.1278 149.323L99.1936 149.367H99.196L99.5063 149.429C99.5824 149.443 99.5803 149.564 99.5063 149.581C99.5021 149.581 99.4958 149.583 99.4915 149.585C99.6901 149.741 99.8781 149.908 100.054 150.088C100.632 150.68 100.63 151.394 100.332 151.971C102.105 153.615 103.225 155.727 104.397 157.855C105.654 160.133 107.3 162.103 109.303 163.764C116.644 169.856 127.442 172.55 136.641 169.674C143.406 167.56 149.184 161.839 150.781 154.951C150.403 155.086 149.993 155.108 149.604 154.968C147.779 154.317 147.083 152.321 146.384 150.652L146.351 150.572C145.668 148.955 145.096 147.313 144.644 145.618C144.188 143.906 143.919 142.099 143.807 140.332C143.764 139.633 143.783 138.935 143.819 138.236L143.851 137.659C143.876 137.135 143.868 136.6 144.308 136.255ZM114.606 131.544C114.631 131.481 114.73 131.447 114.768 131.523C116.384 134.858 115.324 139.427 113.796 142.608C112.197 145.935 109.789 148.458 106.935 150.642C106.542 150.942 106.138 151.238 105.728 151.527C103.347 153.21 101.226 148.674 103.975 147.807C106.84 146.351 109.168 143.756 110.786 141.029C111.661 139.556 112.436 138.022 113.03 136.411C113.621 134.805 113.976 133.133 114.606 131.544Z" fill="black"/>
<path fill-rule="evenodd" clip-rule="evenodd" d="M169.36 105.011C170.666 95.5634 167.878 86.4456 164.265 77.8106C164.066 77.2848 163.752 76.8293 163.347 76.5055C153.151 55.9037 138.169 54.0382 117.269 55.457C116.651 55.4432 116.614 55.4542 116.146 55.2439C116.068 46.8749 106.534 42.4418 99.2782 45.2031C67.1 60.194 77.2182 102.397 83.6215 129.95C85.906 140.616 88.1911 151.281 90.4759 161.946C90.5527 162.303 90.7144 162.612 90.9294 162.872C90.5976 162.998 90.2655 163.116 89.9398 163.227C89.1965 163.481 89.4918 164.592 90.2655 164.412C91.0239 164.235 91.7546 163.999 92.4775 163.741C93.6045 163.986 94.5494 163.248 95.4343 162.659C105.795 158.552 110.145 145.053 112.803 135.108C123.607 142.751 140.872 148.474 153.226 141.602C164.802 134.614 168.971 120.036 168.148 107.169C168.993 106.779 169.334 105.93 169.356 105.044H169.361C169.361 105.033 169.36 105.022 169.36 105.011Z" fill="#D08B5B"/>
<path fill-rule="evenodd" clip-rule="evenodd" d="M93.6669 103.796C93.0668 104.821 92.5732 106.78 92.5732 110.586C92.5733 114.668 94.6483 117.062 96.7089 118.404C97.7282 119.068 98.7418 119.475 99.498 119.717C99.8774 119.838 100.196 119.919 100.422 119.969C100.439 119.973 100.456 119.977 100.473 119.98L109.35 132.475L111.184 136.712C111.15 136.788 111.11 136.878 111.065 136.981C111.043 137.032 111.019 137.087 110.993 137.145C110.787 137.614 110.493 138.289 110.141 139.113C109.435 140.761 108.494 143.008 107.553 145.401C106.612 147.792 105.667 150.338 104.956 152.582C104.6 153.706 104.294 154.78 104.079 155.733C105.205 154.239 106.206 152.606 107.101 150.895C107.665 149.28 108.305 147.583 108.948 145.95C109.854 143.647 110.761 141.479 111.455 139.855C111.849 138.565 112.208 137.297 112.542 136.075L110.696 131.808L110.665 131.736L110.619 131.673L101.523 118.869L101.34 118.61L101.027 118.561H101.026C101.025 118.561 101.021 118.561 101.016 118.56C101.01 118.559 101.003 118.558 100.994 118.556C100.986 118.555 100.976 118.553 100.965 118.551C100.918 118.542 100.844 118.528 100.75 118.507C100.561 118.464 100.287 118.394 99.955 118.288C99.2885 118.075 98.405 117.719 97.5273 117.147C95.7939 116.018 94.0733 114.054 94.0732 110.586C94.0732 106.841 94.5707 105.22 94.9609 104.553C95.1056 104.306 95.2213 104.214 95.2705 104.183L96.1484 104.358L96.0507 103.353L94.6591 89.0612C94.6617 89.0504 94.6647 89.0389 94.6679 89.0267C94.6713 89.0134 94.675 88.9992 94.6787 88.9841L94.6922 88.9282C94.7227 88.8018 94.7642 88.6301 94.8164 88.4187C94.9371 87.9297 95.1135 87.2269 95.3349 86.3737C95.778 84.6666 96.4017 82.3597 97.124 79.9577C97.847 77.5532 98.6653 75.0655 99.497 72.9929C99.9129 71.9566 100.328 71.0353 100.73 70.2849C101.14 69.5228 101.512 68.9847 101.829 68.6755C103.386 67.1558 106.576 64.6458 109.413 62.4919C110.824 61.4208 112.136 60.4466 113.095 59.74C113.574 59.3867 113.966 59.1009 114.237 58.903C114.305 58.8537 114.365 58.8097 114.417 58.7715C114.469 58.7331 114.514 58.7006 114.55 58.6745L114.631 58.6159C114.64 58.6093 114.648 58.6046 114.652 58.6013C114.654 58.6004 114.655 58.5994 114.656 58.5987C114.656 58.5982 114.657 58.5977 114.657 58.5974L114.658 58.5964L114.906 58.4167L114.958 58.1159V58.114L114.959 58.1091C114.959 58.1071 114.96 58.1047 114.96 58.1019C114.961 58.0981 114.962 58.0936 114.963 58.0886C114.966 58.0713 114.97 58.046 114.976 58.0134C114.985 57.956 114.998 57.8756 115.013 57.7752L115.02 57.7302C115.059 57.4868 115.111 57.1385 115.168 56.7195C115.281 55.8829 115.414 54.7547 115.487 53.5984C115.524 53.0165 115.547 52.4177 115.543 51.8395C114.702 49.5171 113.044 47.6602 110.972 46.3804C110.402 46.1007 109.811 45.8073 109.237 45.5202C109.106 45.4544 108.975 45.389 108.846 45.3243C105.957 44.1989 102.617 44.0424 99.6262 45.0767L105.151 45.1316C105.168 45.1401 105.186 45.1494 105.205 45.1592C105.229 45.1718 105.256 45.1854 105.284 45.1999C105.47 45.2954 105.739 45.4325 106.066 45.5993C106.721 45.933 107.615 46.3858 108.566 46.862C110.451 47.8049 112.612 48.8636 113.581 49.2508C113.59 49.2567 113.649 49.3018 113.727 49.4782C113.823 49.6939 113.904 50.0147 113.96 50.4402C114.071 51.2868 114.061 52.3855 113.99 53.5027C113.92 54.6114 113.792 55.7023 113.682 56.5183C113.626 56.9255 113.576 57.2631 113.539 57.4978C113.535 57.5206 113.532 57.5424 113.528 57.5632C113.502 57.5821 113.474 57.6026 113.445 57.6243C113.416 57.6454 113.386 57.6677 113.353 57.6911L113.289 57.7385C113.02 57.9346 112.65 58.2043 112.205 58.532C111.242 59.2415 109.924 60.2208 108.506 61.2976C105.684 63.4396 102.417 66.0058 100.781 67.6023C100.3 68.0721 99.8414 68.7698 99.4091 69.5749C98.9707 70.3917 98.5322 71.3684 98.1044 72.4343C97.2487 74.5667 96.4161 77.1029 95.6874 79.5261C94.958 81.9518 94.3289 84.278 93.8828 85.9968C93.6596 86.8565 93.4823 87.5653 93.3603 88.0593C93.2993 88.3062 93.2525 88.4997 93.2207 88.6316L93.1845 88.782C93.1822 88.7918 93.18 88.8003 93.1782 88.8074C93.1768 88.8127 93.1756 88.8173 93.1748 88.821C93.1742 88.8234 93.1738 88.8256 93.1735 88.8274C93.1732 88.8287 93.173 88.8298 93.1728 88.8308C93.1725 88.8319 93.172 88.8331 93.1718 88.8337V88.8347L93.1425 88.9558L93.1552 89.0808L94.499 102.898C94.2068 103.074 93.921 103.362 93.6669 103.796ZM94.8204 163.071C94.3298 163.18 93.8695 163.275 93.456 163.354C92.8599 163.469 92.3638 163.553 92.0175 163.608C91.8444 163.636 91.7087 163.655 91.6171 163.669C91.5715 163.675 91.5366 163.68 91.5136 163.683C91.5071 163.684 91.5015 163.685 91.4969 163.686C91.4935 163.686 91.4906 163.687 91.4882 163.687L91.4824 163.688H91.4804L91.2011 163.725L91.0146 163.938L90.6944 164.305C91.3009 164.145 91.8917 163.95 92.4775 163.741C93.3485 163.931 94.1107 163.533 94.8204 163.071Z" fill="#A55728"/>
<path fill-rule="evenodd" clip-rule="evenodd" d="M96.3092 45.9901C98.698 44.4388 101.764 43.8614 104.578 43.9744C106.08 44.0347 107.481 44.4098 108.865 44.9733C110.147 45.4957 111.278 46.2462 112.527 46.8181C112.603 46.8528 112.546 46.9595 112.474 46.945C110.995 46.6457 109.259 46.8265 107.759 47.0407L107.61 47.0623C106.136 47.2768 104.636 47.3877 103.183 47.7282C100.507 48.3553 98.0181 49.7217 96.5493 52.0983C94.6315 55.2022 94.1398 59.22 94.345 62.8011C94.4487 64.613 94.805 66.3955 95.3599 68.1229C95.693 69.1596 96.4669 70.2026 96.8284 71.2904C97.1036 70.7755 97.3875 70.2658 97.6816 69.7621C96.3419 69.1291 95.9662 67.3699 95.8968 65.7822C95.6904 65.5822 95.5576 65.2929 95.5532 65.0272C95.5414 64.3131 95.709 63.6666 95.994 63.075C96.1568 61.3994 96.5017 59.7289 97.0953 58.1588C99.4256 51.9943 105.573 46.4384 112.544 46.9872C114.46 47.1381 116.324 47.9537 117.315 49.6877C118.111 51.08 118.116 52.7596 117.567 54.2406C117.404 54.6802 117.193 55.0771 116.944 55.4391C117.697 55.2476 118.452 55.064 119.205 54.882C121.818 54.2505 124.445 53.7557 127.121 53.4805C130.765 53.106 134.484 53.6727 137.823 55.1308C138.739 55.3668 139.65 55.6205 140.556 55.8914C144.543 57.083 148.633 58.6394 151.853 61.3593C153.334 62.6107 154.394 64.0664 155.255 65.6651C158.478 68.546 161.56 71.8118 163.736 75.5476C168.219 83.2448 169.289 92.7659 169.473 101.516C169.643 109.555 168.938 117.676 167.436 125.574C166.753 129.159 165.651 132.49 163.42 135.43C160.935 138.703 157.622 141.282 153.904 143.013C146.334 146.536 136.966 147.049 129.608 142.684C127.395 141.371 129.388 137.949 131.623 139.228C138.887 143.383 148.157 142.434 155.146 138.029C158.099 136.168 160.643 133.623 162.26 130.507C163.44 128.23 163.946 125.62 164.385 123.079L164.618 121.719C165.972 113.904 166.585 105.888 166.259 97.9592C165.934 90.0505 164.683 81.4845 160.214 74.7608C157.857 71.2143 154.851 68.1075 151.694 65.2745C151.472 65.0754 151.25 64.8772 151.028 64.6796C149.794 63.9363 148.515 63.2872 147.257 62.7332L146.989 62.6172C146.265 62.3079 145.253 61.9083 144.314 61.5888C142.971 61.1321 141.607 60.7263 140.237 60.3606C139.519 60.1689 138.797 59.9931 138.074 59.8251C138.326 60.0569 138.577 60.2909 138.823 60.5308C139.99 61.6672 140.915 63.0177 142.021 64.2093C142.147 64.3437 141.989 64.5399 141.83 64.4581C140.148 63.5928 138.282 63.0327 136.526 62.3317C134.865 61.6689 133.252 60.9059 131.62 60.1746C131.212 59.9912 130.805 59.7953 130.398 59.6015C128.794 59.6179 127.19 59.6558 125.589 59.7473C127.524 61.128 129.291 62.7599 130.755 64.5494C130.876 64.6967 130.766 64.9328 130.563 64.8806C127.499 64.094 124.585 62.938 121.672 61.7266L120.279 61.1452C119.255 61.0932 118.229 61.0689 117.203 61.0841L116.706 61.0924C115.629 61.113 114.554 61.1557 113.487 61.3193C113.233 61.358 112.984 61.3948 112.737 61.4286C111.235 62.0432 109.79 62.7842 108.489 63.7608L108.828 63.7408C110.884 63.6235 112.981 63.801 114.972 64.3332C118.842 65.3677 122.144 67.8589 124.546 71.0353C124.618 71.1304 124.478 71.2627 124.384 71.198C121.361 69.1236 117.856 68.0787 114.264 67.5112C112.528 67.2367 110.74 67.1422 108.987 67.279C107.536 67.392 106.034 67.9046 104.59 67.6558C104.197 68.1472 103.819 68.6534 103.455 69.1708C103.646 69.1585 103.838 69.1473 104.032 69.1382C106.105 69.0406 108.217 69.1739 110.242 69.6524C114.286 70.6088 117.665 73.0427 120.757 75.7148C120.818 75.7676 120.739 75.8619 120.673 75.8239C117.32 73.8841 113.424 73.3044 109.626 72.9544C107.713 72.7781 105.779 72.6982 103.862 72.8512C102.984 72.9212 102.116 73.0664 101.24 73.1566C101.169 73.164 101.096 73.1659 101.023 73.1693C100.388 74.3689 99.8128 75.5901 99.2938 76.8077C100.878 76.3816 102.587 76.158 104.223 76.2683C107.545 76.4926 110.84 78.0196 113.492 79.9727C113.575 80.0337 113.528 80.1965 113.416 80.1538C110.529 79.0605 107.668 79.0516 104.655 79.4735C103.243 79.6713 101.845 79.9397 100.481 80.3607C99.7945 80.5725 99.1163 80.8035 98.4653 81.1076C98.1697 81.2454 97.8819 81.406 97.591 81.5576C97.3582 82.3497 97.1502 83.1493 96.9625 83.9537C101.886 84.232 106.525 86.5619 110.562 89.2359C110.66 89.3006 110.599 89.4807 110.478 89.435C108.068 88.5235 105.447 88.102 102.891 87.8567C100.655 87.6421 98.4621 87.7588 96.2398 87.8214C96.1207 88.6678 96.0244 89.5168 95.9546 90.3675C96.3119 90.4679 96.6625 90.5761 96.9996 90.6778C98.1083 91.0117 99.2149 91.4612 100.249 91.9824C102.351 93.0411 104.054 94.4721 105.767 96.063C105.856 96.146 105.763 96.3274 105.642 96.2781C103.653 95.4723 101.48 94.9561 99.387 94.4994C98.3036 94.2631 97.2197 94.045 96.1287 93.8449C96.0231 93.8254 95.9158 93.8091 95.8087 93.7931C95.7984 95.7325 95.9078 97.6725 96.149 99.5967L96.1958 99.9573C96.3265 100.931 96.2196 101.873 95.5764 102.546C96.466 101.953 97.4839 101.542 98.612 101.385C101.583 100.971 104.333 102.16 106.203 104.462C106.29 104.57 106.155 104.711 106.049 104.616C104.235 102.998 101.439 102.711 99.1863 103.473C97.1004 104.179 95.5323 105.862 94.9038 107.969C94.236 110.208 94.5419 112.68 95.7598 114.676C96.3665 115.671 97.2429 116.56 98.3396 116.997C98.475 117.051 98.6128 117.096 98.7522 117.135C99.4142 116.893 100.127 117.003 100.807 117.31L100.896 117.352C101.33 117.349 101.762 117.336 102.182 117.34C103 117.347 103.393 118.218 103.05 118.866C103.245 119.223 103.387 119.625 103.558 119.975C103.867 120.607 104.191 121.235 104.516 121.858C104.975 122.387 105.415 122.935 105.713 123.573C105.835 123.835 105.95 124.118 106.039 124.403C106.295 124.788 106.554 125.171 106.82 125.553C107.681 126.784 108.586 127.951 109.591 129.07C110.195 129.742 110.889 130.342 111.529 130.986C111.722 131.012 111.912 131.144 111.972 131.334L112.024 131.516C112.23 131.749 112.428 131.989 112.605 132.244C112.999 132.81 112.891 133.384 112.545 133.799C113.093 137.226 112.72 140.872 111.987 144.195C111.513 146.343 110.959 148.488 110.217 150.559C109.839 151.612 109.382 152.624 108.75 153.549C108.404 154.056 107.952 154.646 107.446 155.128C107.37 155.69 107.27 156.246 107.126 156.792C105.429 163.259 98.4813 165.227 92.6639 166.053C91.541 166.212 90.4298 165.941 89.8182 164.892C89.6769 164.65 89.5821 164.389 89.5311 164.121C89.2776 164.053 89.0339 163.934 88.8153 163.763C88.7788 164.168 88.7367 164.575 88.6833 164.986C88.5503 166.014 87.1667 166.323 86.8199 165.239C85.3564 160.665 84.5613 155.842 83.5585 151.142C82.5577 146.452 81.4401 141.786 80.406 137.103L79.0967 131.193C75.9019 116.72 72.9094 102.063 73.6439 87.178C74.0449 79.0529 75.5321 70.9489 78.715 63.4404C81.3666 57.1855 85.8415 50.1583 93.0703 48.8794C93.1201 48.8708 93.1644 48.8759 93.2057 48.8864C94.0641 47.7673 95.0898 46.7818 96.3092 45.9901ZM100.671 124.66C101.254 126.599 101.67 128.586 101.897 130.615C102.274 133.995 102.087 137.458 101.923 140.848C101.772 143.962 101.414 147.103 100.805 150.161C100.221 153.097 99.3045 155.975 97.9424 158.646C97.7221 159.078 97.4854 159.499 97.2366 159.911C97.9899 159.66 98.67 159.367 99.3783 158.96C100.27 158.449 101.086 157.79 101.532 157.094C102.248 155.978 102.489 154.739 102.594 153.409C102.863 149.989 102.988 146.559 103.159 143.133L103.198 142.387C103.475 137.034 103.84 131.545 103.296 126.187C102.53 125.985 101.839 125.589 101.202 125.092C101.026 124.955 100.849 124.81 100.671 124.66ZM94.8492 118.178C95.0101 119.806 95.164 121.435 95.3034 123.065C95.7977 128.85 96.1032 134.667 95.8222 140.471C95.6759 143.494 95.382 146.526 94.8739 149.51C94.6449 150.856 94.3681 152.2 94.0588 153.531L93.9545 153.974C93.6406 155.292 93.4405 156.939 92.4353 157.898L92.4429 158.097C93.1485 157.023 93.8012 155.816 94.2686 154.692C96.3513 149.686 96.7319 144.235 97.1082 138.897C97.3401 135.607 97.5119 132.312 97.7803 129.025L97.9106 127.443C98.0602 125.602 98.1889 123.774 98.1714 121.935C97.7702 121.335 97.4442 120.705 97.2419 120.058C97.2094 119.954 97.187 119.848 97.1714 119.743C96.3231 119.34 95.5243 118.79 94.8492 118.178ZM106.249 129.634C106.668 131.03 107.009 132.444 107.253 133.863C107.64 136.123 107.873 138.397 107.975 140.679L108.189 139.873C108.727 137.857 109.299 135.838 110.008 133.881C108.887 133.094 107.95 131.858 107.135 130.825C106.83 130.439 106.535 130.041 106.249 129.634ZM90.1911 67.5522C89.7602 68.9467 89.3835 70.3571 88.9943 71.763C88.0798 75.0655 87.4861 78.4586 87.0741 81.8579C85.4304 95.4304 86.7994 109.058 88.5899 122.542C89.3318 128.128 90.1384 133.707 90.8308 139.3C90.8491 138.752 90.8645 138.203 90.8744 137.654C91.0848 125.782 89.0915 114.076 88.2933 102.265L88.2454 101.545C87.8837 96.0225 87.6623 90.3969 88.3171 84.8946C88.654 82.0625 89.2477 79.291 90.0376 76.5543L90.5079 74.9469C90.8257 73.866 91.1636 72.7564 91.5644 71.6803C91.5109 71.5772 91.4599 71.4732 91.4124 71.369C90.8578 70.1466 90.4717 68.8616 90.1911 67.5522ZM91.5798 51.5532C87.4422 56.901 83.9702 62.5819 81.8696 69.116C77.062 84.0703 78.1353 100.061 80.9213 115.304C82.2341 122.486 83.927 129.585 85.4717 136.717C83.8182 123.909 81.6859 111.13 81.3465 98.1991C81.1612 91.1417 81.5253 84.0513 82.8221 77.103L82.8988 76.6944C83.4546 73.7579 84.1431 70.6467 85.5524 68.0077C86.3177 66.5747 87.1625 65.2375 88.1643 63.9576C88.5868 63.4178 89.0611 62.985 89.5644 62.5891C89.4168 58.9025 89.9729 54.9048 91.5798 51.5532ZM98.3303 108.533C100.389 108.614 102.445 109.189 104.066 110.53C105.334 111.579 103.526 113.352 102.268 112.333C100.9 111.224 99.6737 109.965 98.2156 108.957C98.0419 108.837 98.0896 108.523 98.3303 108.533ZM94.9154 103.034C94.4577 103.271 94.003 103.319 93.4846 103.191C93.4656 103.186 93.4474 103.181 93.4295 103.175L93.3235 103.141C93.3689 103.633 93.4165 104.125 93.4637 104.617C93.882 104.026 94.3671 103.492 94.9154 103.034ZM92.8665 73.3416C92.6843 74.8675 92.5656 76.4008 92.5024 77.9365C92.4409 79.4326 92.4153 80.9332 92.4084 82.4344L92.4065 83.0778L92.4092 83.0656C93.1169 80.0386 94.1179 77.0596 95.3963 74.2089C95.1762 74.2457 94.9528 74.2398 94.7327 74.2132C94.2292 74.1521 93.7464 73.9283 93.3145 73.6664C93.157 73.5709 93.0092 73.4595 92.8665 73.3416ZM113.863 55.6547C112.984 56.0533 112.134 56.5115 111.251 56.901C109.5 57.6737 107.787 58.572 106.167 59.5917C104.527 60.6238 102.947 61.7103 101.494 62.9974C101.324 63.1483 101.156 63.3009 100.987 63.4533C100.953 63.7862 100.929 64.1203 100.917 64.4572C100.911 64.6384 100.911 64.8277 100.913 65.0224C103.655 61.6182 106.969 58.9323 111.174 57.2428C111.902 56.9499 112.643 56.6891 113.391 56.4477C113.569 56.2 113.728 55.9371 113.863 55.6547ZM113.785 52.3891C113.296 51.7386 111.891 51.7916 111.005 51.9366C109.572 52.1712 108.31 52.6734 107.082 53.4004C105.63 54.2594 104.378 55.4231 103.399 56.7918C103.881 56.5191 104.372 56.2619 104.874 56.0231L105.217 55.8604C107.117 54.9677 109.175 54.119 111.252 53.8422C112.214 53.7141 113.248 53.5287 114.219 53.6331C114.171 53.1599 114.031 52.7161 113.785 52.3891Z" fill="black"/>
<path fill-rule="evenodd" clip-rule="evenodd" d="M150.668 123.417C149.328 122.772 147.795 122.816 146.39 123.243C144.726 123.749 143.253 124.799 141.942 125.916C141.431 126.353 140.945 126.845 140.457 127.341C139.837 127.97 139.215 128.605 138.524 129.12C138.752 127.179 140.113 125.208 141.282 123.783C142.717 122.034 144.714 120.617 146.873 119.932C149.173 119.201 151.545 119.603 153.407 120.788C155.252 121.963 156.596 123.908 156.867 126.288C156.924 126.787 156.691 127.245 156.344 127.591C155.94 127.996 155.372 128.262 154.843 128.262C154.303 128.262 153.824 128.044 153.469 127.697C153.096 127.334 152.859 126.829 152.825 126.28C152.802 125.696 152.666 125.184 152.175 124.567C151.846 124.153 151.225 123.685 150.668 123.417ZM154.075 102.992C153.519 103.194 152.873 103.682 152.685 104.217C152.644 104.335 152.621 104.455 152.619 104.577C152.438 104.209 152.369 103.775 152.392 103.347C152.467 101.984 153.766 100.995 154.873 100.418C155.266 100.212 155.67 100.076 156.072 100.004L157.498 99.7499L156.159 99.1972C154.926 98.6875 153.768 97.9864 152.736 97.1282C151.75 96.309 150.838 95.2495 150.302 94.0804C150.061 93.5524 149.871 93.0359 149.738 92.4779L149.702 92.3212C149.637 92.0206 149.566 91.8673 149.485 91.6972C149.438 91.5974 149.387 91.4899 149.332 91.3152C149.301 91.2171 149.284 91.1349 149.313 91.0709C149.341 91.009 149.408 90.9824 149.474 90.9574C149.911 90.7921 150.615 90.9047 150.914 91.0242C151.636 91.313 152.271 91.9428 152.882 92.5325C153.18 92.8203 153.472 93.1015 153.762 93.342C155.612 94.8768 157.922 95.75 160.179 95.963L160.315 95.975C160.912 96.024 161.465 96.2592 161.858 96.6516C162.208 97.0024 162.425 97.4796 162.425 98.0512C162.425 98.6078 162.174 99.1438 161.785 99.533C161.414 99.9046 160.911 100.145 160.366 100.126C159.983 100.112 159.602 100.078 159.225 100.027L157.82 99.8392L158.892 100.766C159.105 100.95 159.306 101.161 159.486 101.407C160.463 102.738 160.883 104.768 160.846 106.397C160.839 106.708 160.753 107.029 160.595 107.305C160.457 107.546 160.262 107.755 160.011 107.885C159.711 108.041 159.457 108.124 159.115 108.131C158.743 108.138 158.428 108.02 158.169 107.823C157.845 107.577 157.608 107.213 157.444 106.816C157.227 106.289 157.214 105.732 157.193 105.175C157.178 104.79 157.162 104.405 157.098 104.025C157.007 103.54 156.787 102.922 156.511 102.726C156.102 102.438 155.016 102.66 154.341 102.896L154.075 102.992ZM148.271 107.866C149.866 108.836 152.297 111.098 150.581 113.503C148.56 115.624 145.652 113.193 144.219 112.093C142.889 111.241 141.396 113.433 142.629 114.428C152.986 122.099 157.19 108.12 149.078 106.726C148.184 106.572 147.853 107.566 148.271 107.866ZM136.955 104.787C136.519 104.295 136.094 103.836 135.439 103.575C134.663 103.265 133.722 103.232 132.915 103.464C132 103.727 131.276 104.334 130.739 105.109C130.267 105.79 129.942 106.601 129.757 107.4C129.411 107.02 129.25 106.581 129.172 106.134C129.043 105.398 129.134 104.641 129.385 103.92C129.943 102.315 131.287 100.888 132.854 100.274C134.644 99.5727 136.858 99.8068 138.502 100.794C139.34 101.298 140.307 102.172 140.794 103.028C141.127 103.612 141.146 104.217 140.934 104.737C140.702 105.309 140.199 105.774 139.558 106.007C139.255 106.118 138.942 106.109 138.645 106.031C138.259 105.928 137.899 105.71 137.605 105.456C137.36 105.245 137.155 105.013 136.955 104.787ZM139.629 94.6652C139.261 95.1568 138.721 95.408 138.157 95.4344C138.099 95.4371 138.041 95.4374 137.984 95.4353C137.948 95.4771 137.907 95.5234 137.859 95.5777C137.749 95.703 137.677 95.7854 137.602 95.8652C137.331 96.1538 137.046 96.4293 136.75 96.6915C136.089 97.2756 135.377 97.788 134.607 98.218C133.258 98.9717 131.779 99.5596 130.258 99.8402C128.749 100.119 127.259 100.204 125.739 99.986L125.371 99.933C124.493 99.8044 123.342 99.6365 122.621 99.0925C122.905 99.0021 123.193 98.9976 123.473 98.9852C123.658 98.9771 123.841 98.9688 124.02 98.9524C124.871 98.8751 125.697 98.7338 126.521 98.5058C128.122 98.0626 129.572 97.4506 130.986 96.5734C132.372 95.7137 133.644 94.5436 134.658 93.2618L134.779 93.1064C134.831 93.0395 134.882 92.9729 134.933 92.9067C135.347 92.3646 135.728 91.848 136.372 91.504C136.883 91.2315 137.399 91.1579 137.896 91.2363C138.472 91.3273 139.019 91.6175 139.504 92.0237C139.863 92.324 140.029 92.7564 140.055 93.1999C140.086 93.7216 139.928 94.2651 139.629 94.6652Z" fill="black"/>
</svg>
