<svg width="240" height="324" viewBox="0 0 240 324" fill="none" xmlns="http://www.w3.org/2000/svg">
<path fill-rule="evenodd" clip-rule="evenodd" d="M186.455 183.205C183.523 169.306 173.122 158.521 159.135 153.148C156.446 151.627 153.84 145.099 150.226 143.904C149.647 143.712 150.561 145.237 150.226 145.328C149.031 145.653 147.692 145.687 146.373 144.514C144.015 142.417 143.275 136.292 141.841 133.523C134.28 118.922 115.4 124.635 112.871 140.776C111.107 141.926 108.614 142.939 106.695 143.866C104.718 144.82 102.979 147.131 100.942 147.957C99.1241 148.695 96.1292 148.172 94.2976 148.815C85.8735 151.771 78.7385 155.501 73.1448 163.059C71.9661 164.653 70.6375 166.613 69.5649 168.223C64.0351 174.591 60.1943 181.729 56.6568 189.387C46.7598 211.864 44.0678 236.752 41.6526 260.969C41.7075 265.207 38.8968 276.957 43.0539 278.988C42.8055 279.246 42.8955 279.763 43.3565 279.759C53.8973 279.652 64.4135 280.596 74.7908 282.431C79.7976 283.316 84.7776 284.53 89.8776 284.73C100.464 284.657 111.013 282.882 121.586 284.561C134.296 284.561 149.743 284.191 163.883 283.647C177.099 283.139 190.385 284.286 203.436 282.038C204.47 281.875 204.974 280.614 204.758 279.711C203.226 274.129 202.475 268.384 201.615 262.671C201.786 259.007 201.48 255.181 200.125 251.768C196.585 228.727 192.045 205.837 186.455 183.205Z" fill="#D08B5B"/>
<path fill-rule="evenodd" clip-rule="evenodd" d="M150.226 145.413C150.561 145.322 149.647 143.796 150.226 143.988C153.84 145.184 156.446 151.711 159.135 153.233C173.122 158.605 183.523 169.39 186.455 183.289C192.045 205.921 196.585 228.812 200.125 251.853C201.48 255.266 201.787 259.091 201.615 262.756L201.75 263.658C202.556 269.073 203.307 274.507 204.758 279.795C204.974 280.699 204.47 281.959 203.437 282.123C190.533 284.345 177.401 283.249 164.334 283.715L161.611 283.817C148.104 284.313 133.619 284.645 121.586 284.645C111.013 282.966 100.465 284.741 89.8777 284.814C84.7777 284.614 79.7977 283.4 74.7908 282.515C64.4136 280.68 53.8973 279.737 43.3565 279.843C42.8956 279.848 42.8056 279.33 43.054 279.072C38.8969 277.041 41.7076 265.291 41.6527 261.054L41.871 258.872C44.2359 235.345 47.0568 211.274 56.6569 189.471L56.9444 188.852C60.4032 181.428 64.1847 174.504 69.5649 168.308L69.894 167.815C70.9018 166.309 72.0841 164.578 73.1449 163.144C78.7386 155.586 85.8736 151.856 94.2977 148.899C96.1292 148.257 99.1242 148.779 100.942 148.042C102.847 147.269 104.492 145.197 106.314 144.152V151.95L132.68 177.934L147.634 154.994L149.155 145.599C149.522 145.576 149.88 145.507 150.226 145.413Z" fill="#8FA7DF"/>
<path fill-rule="evenodd" clip-rule="evenodd" d="M182.19 213.491C181.911 214.845 181.521 216.2 181.001 217.483C180.5 218.722 179.746 219.831 179.226 221.055C179.157 221.22 179.043 221.344 178.905 221.439L178.948 221.772L178.988 222.105C179.247 224.352 179.538 226.592 179.79 228.838L179.913 229.961C180.409 234.651 181.193 239.318 181.802 243.995C182.397 248.575 183.004 253.155 183.652 257.728C184.322 262.444 185.004 267.152 185.801 271.849C186.137 273.832 186.488 275.814 186.854 277.794L187.136 279.309C190.043 280.009 190.838 284.063 187.878 285.559C186.534 286.235 184.808 286.073 183.701 285.01C182.55 283.902 182.503 281.904 182.236 280.404L181.978 279.01C180.053 268.526 178.383 257.922 177.602 247.29C177.401 244.545 177.232 241.797 177.122 239.047C177.018 236.461 177.068 233.874 177.028 231.288L177.014 230.583C176.953 227.824 177.004 225.07 177.076 222.312C177.084 221.976 177.099 221.64 177.116 221.302C177.019 221.188 176.949 221.053 176.919 220.922L176.881 220.748C176.786 220.302 176.894 219.78 177.236 219.461C177.384 217.582 177.578 215.706 177.631 213.829C177.635 213.674 177.857 213.679 177.87 213.829C177.995 215.427 178.244 217.029 178.493 218.629C180.097 217.339 181.282 215.213 181.981 213.434C182.032 213.305 182.22 213.351 182.19 213.491ZM144.251 138.795C144.517 140.012 145.043 141.105 145.749 142.122C146.085 142.608 146.467 143.06 146.926 143.439C147.319 143.762 147.767 143.973 148.185 144.254C148.793 144.159 149.429 144.39 149.856 144.838L149.788 144.183C149.767 143.971 150.118 143.929 150.158 144.134C152.006 153.459 153.692 162.79 155.151 172.183L155.791 176.331L156.393 180.225C157.392 186.713 158.358 193.2 159.086 199.736C160.056 208.458 160.871 217.204 161.467 225.962C162.065 234.782 162.433 243.608 162.695 252.445C162.76 254.672 162.83 256.898 162.897 259.125L163.349 256.462C163.799 253.798 164.241 251.132 164.619 248.456C165.978 238.88 167.064 229.236 167.594 219.578C168.08 210.739 167.917 201.725 165.669 193.114C165.103 190.948 164.41 188.815 163.574 186.738C162.762 184.717 161.655 182.845 160.783 180.854C159.768 178.538 159.464 176.352 159.986 173.858C160.443 171.686 161.243 169.642 161.387 167.406C161.655 163.255 160.305 159.235 158.398 155.602C157.895 154.644 157.364 153.7 156.811 152.763C155.136 149.933 153.247 147.207 151.286 144.593C151.181 144.453 151.404 144.299 151.519 144.413C153.306 146.18 155.26 147.917 156.868 149.847C157.649 150.785 158.412 151.742 159.135 152.725C167.062 154.051 173.873 158.99 178.529 165.512C183.813 172.914 186.485 181.822 188.463 190.595C190.662 200.345 192.517 210.183 194.493 219.981C196.537 230.12 198.572 240.258 200.63 250.395C201.652 255.427 202.675 260.459 203.695 265.493C204.213 268.042 204.756 270.585 205.324 273.125C205.616 274.427 205.929 275.727 206.199 277.033C206.503 278.506 206.22 279.449 205.223 280.531C204.855 280.933 204.274 280.926 203.818 280.713L203.675 280.646L203.537 280.579C202.973 280.301 202.53 280.014 202.179 279.396C201.792 278.718 201.73 277.965 201.598 277.211C201.352 275.822 201.11 274.434 200.864 273.043C200.498 270.963 200.1 268.889 199.695 266.816L197.662 256.455C197.12 253.693 196.577 250.93 196.03 248.169C194.08 238.295 192.128 228.423 190.176 218.55C188.302 209.071 186.644 199.527 184.51 190.102L184.389 189.572L184.266 189.041C182.358 180.917 179.692 173.058 174.855 166.174C171.133 160.879 165.963 156.151 159.874 153.759C160.303 154.376 160.715 155.006 161.108 155.648C163.576 159.681 165.378 164.468 164.955 169.27C164.748 171.616 163.857 173.922 163.941 176.287C164.019 178.388 165.319 180.233 166.217 182.061C168.255 186.203 169.73 190.606 170.681 195.122C172.588 204.191 172.582 213.522 171.925 222.729C171.211 232.736 169.855 242.742 168.31 252.652C167.518 257.735 166.464 262.775 165.657 267.85C165.257 270.352 164.714 272.848 164.239 275.338L164.012 276.528C163.886 277.188 163.754 277.846 163.602 278.497L163.508 278.887V278.956C163.504 279.436 163.373 279.834 163.161 280.151C162.872 281.078 162.513 281.983 162.036 282.852C161.791 283.295 161.435 283.545 161.049 283.636C160.66 284.526 159.779 285.21 158.727 285.206L144.891 285.153C136.854 285.121 128.818 285.069 120.781 285.024C118.753 285.014 116.727 284.976 114.701 284.923C112.802 284.87 110.981 284.642 109.102 284.405C106.981 284.139 105.832 282.636 106.149 280.516C106.219 280.049 106.295 279.584 106.367 279.119C105.944 279.259 105.441 279.193 105.101 278.861L104.782 278.549C104.34 278.112 103.945 277.682 103.664 277.098C103.375 276.498 103.14 275.864 102.885 275.251C102.333 273.933 101.797 272.61 101.275 271.28C100.229 268.621 99.1835 265.952 98.2114 263.266C96.287 257.946 94.584 252.546 93.1032 247.085C90.4623 237.342 88.5523 227.41 87.3481 217.39L87.0601 215.002L86.9764 214.297C86.5198 210.413 86.1355 206.469 86.3171 202.593C86.4292 200.167 86.8051 197.722 87.7116 195.456C88.5481 193.366 89.8389 191.578 91.0664 189.71L91.2068 189.494L91.348 189.273C92.4215 187.576 93.2757 185.802 93.3185 183.741C93.3619 181.65 92.7528 179.614 92.0719 177.656L91.9021 177.174L91.7882 176.854C90.3396 172.808 88.691 168.818 89.2347 164.415C90.0377 157.931 93.9671 152.704 98.9109 148.674C94.5142 149.545 90.1623 151.265 86.3215 153.446C81.7854 156.025 77.7016 159.427 74.1797 163.268C67.5248 170.525 62.7734 179.233 58.8842 188.224C54.8128 197.633 51.7938 207.493 49.5187 217.481C47.2307 227.526 45.699 237.733 44.653 247.979C44.1314 253.079 43.7213 258.191 43.3814 263.306C43.2081 265.927 43.0771 268.552 42.8743 271.168C42.6715 273.783 42.5804 276.437 41.9424 278.982C41.6445 280.167 39.6354 280.288 39.4201 278.982C38.9423 276.065 39.0758 273.048 39.2092 270.094L39.2213 269.826C39.3525 266.884 39.5236 263.944 39.7262 261.004C40.1405 254.996 40.6938 248.995 41.4164 243.014C43.9495 222.019 48.6208 201.133 57.7835 181.968C62.0976 172.941 67.6349 164.17 75.3377 157.652C79.0051 154.551 83.1396 152.076 87.5952 150.284C91.58 148.68 95.6278 147.921 99.8616 147.923C101.985 146.296 104.264 144.878 106.542 143.667C106.679 143.593 106.823 143.77 106.709 143.885C106.65 143.942 106.592 144.001 106.533 144.056C106.791 144.073 107.057 144.193 107.296 144.445C108.133 145.322 108.838 146.419 109.47 147.558C110.431 148.758 111.348 149.999 112.307 151.187C113.843 153.089 115.415 154.963 117.006 156.823C119.678 159.949 122.437 163.016 125.314 165.959L125.795 166.448C127.286 167.96 128.797 169.768 130.561 170.965L130.655 171.027C131.399 171.512 131.927 171.6 132.561 170.876C133.138 170.217 133.619 169.452 134.112 168.725L134.226 168.558C136.747 164.895 139.083 161.097 141.198 157.187C142.162 155.408 143.079 153.602 143.949 151.777L144.209 151.229C144.682 150.223 145.195 149.236 145.586 148.2C145.677 147.957 145.766 147.714 145.852 147.473C144.521 146.6 143.491 144.711 143.117 143.232C142.728 141.695 142.924 140.118 143.617 138.713C143.748 138.449 144.187 138.514 144.251 138.795ZM78.5914 201.234C78.4072 207.076 78.2955 212.924 78.0206 218.762L77.9257 220.755C78.3544 221.232 78.6058 221.784 78.4051 222.541C78.3272 222.83 78.0967 223.092 77.8093 223.19L77.7198 225.042C77.312 233.379 76.8341 241.698 75.9607 250.014C74.8685 260.421 73.6051 270.811 72.3441 281.199C72.1645 282.67 71.1417 283.836 69.5509 283.621C67.9412 283.403 67.2884 282.002 67.4997 280.541C68.33 274.812 69.1284 269.078 69.8279 263.329L70.6243 256.78C71.623 248.593 72.6452 240.407 73.8229 232.246C74.3152 228.835 74.8265 225.426 75.3396 222.016L75.1603 221.784C74.4269 220.831 73.6685 219.899 72.9185 218.96C71.4779 217.151 70.056 215.357 68.7356 213.463C68.6699 213.368 68.8032 213.228 68.8981 213.301C70.7488 214.668 72.5004 216.13 74.2624 217.616L75.8046 218.922C76.6919 213.032 77.5708 207.139 78.3544 201.234C78.3736 201.087 78.5955 201.076 78.5914 201.234ZM105.213 145.328C104.099 146.378 102.961 147.406 101.839 148.45L101.428 148.834L101.019 149.22C99.0469 151.091 97.1577 153.038 95.5835 155.274C92.6933 159.381 90.9715 164.387 92.1734 169.401C93.1708 173.554 95.4588 177.318 96.0736 181.575C96.3819 183.707 96.2321 185.85 95.429 187.864C94.6093 189.919 93.2995 191.679 92.1227 193.533C89.5664 197.561 89.2178 201.983 89.4715 206.649C89.7377 211.523 90.2973 216.399 90.9884 221.228C92.3868 231.014 94.4952 240.698 97.2861 250.181C98.6828 254.93 100.333 259.578 101.974 264.244C102.792 266.567 103.745 268.835 104.727 271.092C105.245 272.28 105.775 273.461 106.314 274.64C106.115 272.975 106.115 271.265 106.018 269.611C105.878 267.239 105.701 264.872 105.538 262.503C105.207 257.695 104.911 252.882 104.647 248.07C103.711 230.908 103.022 213.732 103.073 196.543C103.098 187.947 103.274 179.351 103.643 170.764C103.817 166.72 104.152 162.68 104.456 158.642L104.52 157.777C104.788 154.152 105.11 150.519 105.661 146.926C105.498 146.558 105.356 146.184 105.251 145.802L105.213 145.658L105.241 145.662C105.215 145.55 105.207 145.438 105.213 145.328ZM114.843 130.559C114.866 130.46 115.007 130.468 115.033 130.559C115.66 132.672 115.438 134.997 114.898 137.123C114.606 138.275 114.192 139.393 113.691 140.471L113.516 140.848C113.087 141.766 112.604 142.712 111.769 143.284C111.42 143.523 110.797 143.538 110.448 143.284L110.27 143.149C110.241 143.127 110.212 143.103 110.184 143.079C109.859 142.807 109.698 142.204 109.848 141.807C110.235 140.782 111.112 140.03 111.718 139.116C112.255 138.305 112.73 137.449 113.125 136.559C113.976 134.634 114.359 132.59 114.843 130.559Z" fill="black"/>
<path fill-rule="evenodd" clip-rule="evenodd" d="M164.579 68.5752C164.111 67.3906 163.283 65.9017 161.899 65.8423C160.828 62.5611 158.166 59.2194 154.464 59.3082C143.596 48.167 129.915 48.6922 115.611 51.0507C108.064 52.4539 100.401 55.2014 94.7728 60.6234C88.0315 67.0066 85.4066 78.1445 90.6856 86.2162C86.1232 88.6673 86.0346 94.4836 87.9858 98.6808C85.6404 100.307 85.4979 104.253 88.1388 105.493C87.9984 106.07 88.0977 106.666 88.3655 107.178C87.056 108.271 85.3518 109.078 83.9428 109.772C83.3201 110.079 82.9608 110.579 82.8116 111.144C78.1853 114.187 66.6495 121.622 66.787 127.54C66.7191 130.628 69.0036 132.66 71.7797 133.469C70.1279 136.779 68.8741 140.646 70.4553 144.217C70.8923 145.296 74.1669 148.467 74.3317 148.525C74.6199 148.773 79.3176 146.611 81.6008 145.508C82.0435 148.395 85.123 149.907 87.7775 148.918C90.2945 148.158 91.8417 146.021 93.4292 144.078C95.5364 148.686 101.736 148.739 105.743 146.753C109.341 145.086 112.077 142.032 113.601 138.351C121.692 142.322 131.16 143.48 139.951 141.894C140.515 142.894 141.764 143.567 142.876 143.18C147.551 141.771 152.72 141.692 156.683 138.464C164.942 132.52 165.638 121.563 165.062 112.223C164.551 102.91 164.998 93.5199 163.309 84.3077C164.042 81.5955 165.261 79.1977 166.389 76.6497C167.614 73.9778 167.589 70.0059 164.579 68.5752Z" fill="#D08B5B"/>
<path fill-rule="evenodd" clip-rule="evenodd" d="M127.081 50.0898L127.402 50.0911C127.932 50.0946 128.462 50.1051 128.991 50.1226C131.784 50.2148 134.697 50.578 137.978 51.1999L138.476 51.2959C139.292 51.456 140.023 51.6167 141.189 51.8897L143.502 52.4362C144.68 52.7114 145.547 52.9017 146.347 53.0549L146.451 53.0747C146.451 53.0747 152.616 56.037 154.607 57.9858L154.806 58.1818L154.89 58.2666L155.756 58.294L155.764 58.4035L155.772 58.4046C156.631 58.5387 157.409 58.9849 158.132 59.6797L158.209 59.7551L158.283 59.8298C158.847 60.4042 159.296 61.0162 159.915 61.9864L160.055 62.208L160.307 62.6082L160.511 62.9295C160.643 63.1397 160.77 63.3476 160.892 63.5536L161.013 63.759L161.099 63.91L163.334 65.217C163.657 65.4053 163.95 65.649 164.218 65.9409L164.29 66.0217L164.361 66.1049L164.97 66.8313L164.848 66.9594L164.907 67.0377L165.013 67.1836L165.117 67.3316L165.218 67.4816L165.262 67.5474L165.327 67.6897L165.359 67.7607L165.385 67.8192L165.461 67.8585L165.616 68.1394C166.422 69.5968 166.856 71.2519 166.885 72.9527C166.906 74.1258 166.761 75.1912 166.418 76.219C166.181 76.9297 165.863 77.4881 165.314 78.257L164.88 78.854L164.791 78.9772L164.685 79.127C164.668 79.1511 164.652 79.1747 164.636 79.1982C163.93 80.2234 157.896 82.1637 154.187 82.2575L154.075 82.2598L153.932 82.2612C153.579 82.2627 153.237 82.25 152.907 82.2224C151.48 82.1028 150.146 81.8019 148.597 81.3097L148.275 81.2055L146.568 80.6306C146.514 80.6125 146.47 80.5981 146.439 80.5884L146.283 80.5395C145.908 80.4239 145.634 80.3575 145.448 80.3334L145.41 80.3288L145.406 80.3996L145.405 80.4663L145.405 80.5206C145.416 81.3083 144.939 81.8826 144.199 82.2485C143.727 82.4815 143.12 82.648 142.357 82.7729L142.236 82.7923C140.99 82.9853 139.503 83.0677 137.017 83.1242C136.923 83.1263 136.827 83.1251 136.731 83.1207C136.197 83.0962 135.778 83.005 134.998 82.7806L134.629 82.6745L134.429 82.6191C134.058 82.5187 133.852 82.4786 133.657 82.4676L133.6 82.4653L133.544 82.4643C133.309 82.464 133.14 82.5163 132.973 82.6437L132.888 82.7121L131.742 83.6747C131.593 83.7992 131.459 83.9097 131.361 83.988L131.321 84.0196C129.748 85.2561 128.248 85.9624 126.481 86.0296L126.363 86.0331L126.24 86.0345C126.15 86.0347 126.06 86.0331 125.969 86.0296C125.225 86.0012 124.453 85.7247 123.398 85.1915L123.18 85.0795L123.027 84.9994C122.949 84.9583 122.867 84.9149 122.779 84.8675L121.992 84.4455L121.59 84.2348C121.109 83.9872 120.841 83.8676 120.661 83.8184L120.632 83.8106L120.615 83.8269C120.198 84.2354 119.84 84.7494 119.454 85.4591L119.396 85.567L119.312 85.7278L118.764 86.8202L118.661 87.0233C118.255 87.8118 117.933 88.3157 117.513 88.7578C116.902 89.3994 116.163 89.7717 115.257 89.8315L115.166 89.8364L115.058 89.8391C114.631 89.8433 114.179 89.7776 113.689 89.6411L113.575 89.6084L113.464 89.5743C112.734 89.3431 111.58 89.487 110.663 89.9748C109.667 90.5046 109.119 91.3129 109.144 92.3459C109.156 92.859 109.215 93.4091 109.318 94.0053L109.347 94.169C109.483 94.9061 109.667 95.6455 109.951 96.632L110.561 98.6954L110.63 98.9361L110.699 99.1839C110.798 99.5447 110.877 99.8591 110.942 100.155C111.191 101.287 111.233 102.137 110.983 102.861C109.883 106.054 107.973 107.75 105.799 107.821L105.724 107.823L105.631 107.823C103.961 107.805 102.447 106.714 102.465 105.301C102.467 105.153 102.495 105.015 102.544 104.89L102.567 104.837L102.577 104.815L102.56 104.772C102.047 103.54 100.859 102.641 99.4654 102.465L99.3862 102.456L99.3081 102.448C99.2316 102.441 99.1552 102.437 99.0828 102.434L99.012 102.432L98.9273 102.432C97.0693 102.435 95.2309 103.675 93.7847 105.703C93.4831 106.126 93.2032 106.587 92.9517 107.075L92.8689 107.239L92.4668 108.064L92.1952 108.861C90.6987 113.253 91.4564 117.848 94.3773 120.224L94.4665 120.295C95.5189 121.123 96.7565 121.626 98.0778 121.761C98.2298 121.776 98.3828 121.786 98.53 121.79L98.6392 121.792L98.7647 121.792C99.1953 121.786 99.6071 121.732 99.9769 121.632C100.279 121.551 100.489 121.452 100.635 121.325C100.673 121.292 100.704 121.262 100.731 121.232L100.753 121.205L100.762 121.194L102.758 121.491C103.098 123.651 104.078 125.89 105.674 128.458L105.775 128.619L105.95 128.896L106.128 129.173C108.006 132.068 110.1 134.506 112.402 136.377L112.563 136.506L112.778 136.678L112.976 136.833C113.361 137.133 113.682 137.365 114.002 137.573L114.082 137.625L114.839 138.106L114.488 138.932C113.668 140.86 112.537 142.613 111.142 144.105L111.011 144.244L110.041 145.246L109.296 144.295C109.29 144.288 109.273 144.279 109.254 144.275L109.24 144.273H109.232L109.222 144.274L109.21 144.277L109.198 144.283C108.64 144.586 108.334 144.818 107.893 145.272L107.829 145.338L107.755 145.417L107.653 145.524C107.195 145.994 106.706 146.394 106.173 146.727C104.942 147.496 103.576 147.924 102.161 147.962L102.028 147.965L101.895 147.965C101.847 147.964 101.799 147.963 101.751 147.962C98.7989 147.88 96.1538 145.984 94.8537 143.206C94.8021 143.095 94.7546 143.059 94.6671 143.052L94.6422 143.051L94.611 143.05C94.3942 143.052 94.1285 143.181 93.9803 143.355L93.954 143.388L93.4563 144.058L93.2655 144.311C91.4904 146.648 90.033 147.925 88.0755 148.314C87.9214 148.344 87.7583 148.363 87.5852 148.37L87.4801 148.375H87.4188C86.5768 148.377 85.6067 148.132 84.8505 147.702C83.8503 147.132 83.2318 146.256 83.3102 145.171L83.3161 145.102L83.33 144.985C83.3953 144.406 82.9327 144.091 82.5786 144.376L82.5546 144.396L82.5253 144.423C81.0669 145.794 79.3895 146.846 77.5827 147.495L77.423 147.551L77.1856 147.632C76.0462 148.018 75.2427 148.209 74.3967 148.224C73.6645 148.237 73.0557 147.972 72.6154 147.463C72.3217 147.123 72.1422 146.746 71.9631 146.196L71.9332 146.102L71.8678 145.888L71.8272 145.749C71.3031 143.9 71.2917 141.923 71.7032 139.741C72.0106 138.112 72.5 136.538 73.323 134.331L73.4827 133.906L73.8123 133.038C73.8455 132.951 73.6475 132.647 73.525 132.613L73.5105 132.61L73.3987 132.622C73.3203 132.63 73.2413 132.635 73.1603 132.638L73.0371 132.641H72.9563C70.2832 132.614 68.2415 129.986 68.2605 127.202C68.281 124.594 69.5892 122.352 72.0869 119.69L72.3039 119.461L72.5386 119.217L72.7706 118.979C74.99 116.714 77.2589 114.737 79.6217 113.04L79.8174 112.901L80.0352 112.747C80.8308 112.187 81.6044 111.68 82.6749 111.013L83.3051 110.622L85.8593 107.601C85.9206 107.566 85.981 107.531 86.0405 107.497L86.0729 106.449L88.5338 106.499C87.9093 106.178 87.3919 105.789 86.9717 105.289C85.5749 103.629 85.7502 101.322 87.4485 100.189L87.5084 100.15L88.2244 99.7066L88.8102 100.222C89.3204 100.671 89.8617 100.968 90.4261 101.105L90.5154 101.126L90.957 101.22L91.0429 101.359L91.0927 101.287C91.0924 101.28 91.091 101.273 91.0886 101.266L91.0842 101.255L91.0749 101.241L91.0193 101.172L90.9579 101.099C90.7615 100.867 90.5409 100.642 90.1404 100.256L89.8595 99.9852L89.6408 99.7719C89.0669 99.2068 88.7613 98.8568 88.4362 98.3707C87.6276 97.1612 87.1709 95.7975 87.1519 94.4124C87.1121 91.5322 88.8991 88.8091 91.5472 87.5663C91.6399 87.5228 91.7083 87.2134 91.5971 87.0089C89.0332 82.2928 88.3217 76.6395 89.6096 71.3806C90.8114 66.4741 93.8012 62.1432 98.0816 58.8257C105.43 53.1302 115.623 50.1932 126.438 50.092L126.766 50.0898H127.081Z" fill="#ECDCBF"/>
<path fill-rule="evenodd" clip-rule="evenodd" d="M87.7854 108.105C88.2722 107.982 88.5336 108.638 88.1204 108.902C85.4969 110.574 82.7868 112.068 80.2525 113.889C77.842 115.619 75.6157 117.59 73.5396 119.709L73.3095 119.945C71.4325 121.881 69.3538 124.343 69.3328 127.199C69.3165 129.419 71.0236 131.841 73.4052 131.55C74.3025 131.44 75.1272 132.581 74.8141 133.404L74.4847 134.271C73.1596 137.781 71.8113 141.757 72.8581 145.449L72.8965 145.581C73.1497 146.426 73.4166 147.173 74.3954 147.156C75.3039 147.14 76.2492 146.833 77.0996 146.54C78.8644 145.932 80.4637 144.917 81.8212 143.641C83.0219 142.512 84.556 143.659 84.3943 145.093L84.3886 145.139C84.1675 146.749 86.7254 147.496 87.8882 147.266C90.1843 146.811 91.8213 144.504 93.1253 142.746C93.752 141.901 95.2744 141.569 95.8251 142.746C96.9163 145.078 99.1655 146.822 101.797 146.895C103.164 146.933 104.475 146.543 105.632 145.819C106.105 145.524 106.528 145.173 106.915 144.775L107.011 144.674C107.585 144.065 107.98 143.741 108.713 143.343C109.434 142.951 110.368 143.437 110.364 144.292C110.358 145.4 110.034 146.137 109.272 146.94C108.641 147.606 107.892 148.19 107.104 148.657C105.521 149.595 103.64 150.122 101.797 150.061C98.8921 149.965 96.1196 148.513 94.3223 146.256C92.4873 148.456 90.2111 150.477 87.253 150.422C85.0386 150.382 82.9748 149.226 81.9861 147.435C80.5902 148.4 79.0582 149.155 77.4193 149.647L77.2732 149.69C74.9533 150.367 72.2836 150.636 70.7904 148.328C69.3884 146.16 69.2838 143.158 69.6051 140.68C69.8921 138.467 70.5713 136.365 71.3514 134.292C69.131 133.627 67.4075 131.537 66.8155 129.283C65.92 125.875 67.6574 122.569 69.8052 120.037C72.1384 117.286 75.0749 114.959 78.0334 112.923C80.984 110.892 84.2895 108.983 87.7854 108.105ZM163.654 81.4467C163.659 81.352 163.814 81.3189 163.828 81.4228C164.847 88.8366 165.438 96.2353 165.926 103.7C166.174 107.482 166.455 111.26 166.763 115.037C167.058 118.659 167.55 122.377 167.439 126.014C167.265 131.708 164.506 136.338 159.983 139.671C155.65 142.864 150.273 144.443 144.998 145.11C141.935 145.497 138.829 145.516 135.762 145.152C134.169 144.963 132.578 144.711 131.018 144.333L130.344 144.164C129.115 143.85 127.743 143.423 127.568 141.964C127.483 141.257 127.858 140.736 128.462 140.381C129.25 139.919 130.154 140.191 130.966 140.402C132.335 140.757 133.719 141.062 135.118 141.272C138.123 141.726 141.212 141.752 144.232 141.439C149.312 140.911 154.671 139.259 158.588 135.847C160.291 134.365 161.771 132.558 162.55 130.412C163.55 127.653 163.402 124.644 163.369 121.754C163.291 115.037 163.359 108.319 163.266 101.6C163.173 94.8615 163.254 88.1757 163.654 81.4467ZM112.565 50.0518C118.501 48.5169 124.525 48.1181 130.623 48.5801C136.374 49.0155 142.925 50.3054 147.621 53.8512C147.849 54.0233 147.713 54.3489 147.431 54.3039C144.291 53.8022 141.23 52.8896 138.104 52.2857C135.097 51.705 132.035 51.2689 128.973 51.1679C118.617 50.8257 107.094 53.1783 98.7432 59.6509C94.8276 62.6857 91.8395 66.7664 90.6502 71.6218C89.4306 76.6018 90.0905 81.9874 92.5396 86.4924C92.8923 87.141 92.7468 88.1671 92.0111 88.5125C89.7785 89.5603 88.1882 91.8818 88.2228 94.3869C88.2395 95.602 88.6573 96.7672 89.3288 97.7715C90.0388 98.8335 91.1197 99.5766 91.9139 100.569C92.2265 100.959 92.2385 101.497 91.9908 101.857C92.4553 102.061 92.9562 102.17 93.4132 102.411C93.8007 102.615 93.8117 103.254 93.4132 103.455C92.4055 103.963 91.316 103.423 90.6359 102.603C90.5144 102.457 90.4094 102.304 90.3137 102.149C89.4991 101.976 88.7693 101.566 88.1319 101.005C86.9176 101.734 86.7513 103.357 87.7944 104.597C88.3271 105.23 89.084 105.621 89.849 105.902L89.9408 105.935C90.6852 106.2 91.367 106.348 91.8506 106.945C92.1696 106.278 92.5358 105.65 92.9439 105.077C94.4279 102.996 96.709 101.15 99.4158 101.384C101.536 101.568 103.373 103.089 103.807 105.189C103.839 105.344 103.606 105.465 103.536 105.303C102.519 102.925 99.3004 102.838 97.3832 104.077C95.1285 105.535 93.8962 108.281 93.4019 110.839C92.9153 113.359 93.1965 116.424 95.0777 118.34C95.8474 119.124 96.8945 119.667 97.9874 119.81C98.5217 119.88 98.9929 119.811 99.5038 119.708L99.8424 119.637C100.077 119.588 100.311 119.549 100.557 119.571L100.924 119.62L101.133 119.718C101.314 119.799 101.297 119.777 101.084 119.651C101.707 119.6 102.03 120.062 102.064 120.568C102.084 120.581 102.103 120.595 102.119 120.614C104.486 123.518 106.243 126.855 108.754 129.664L109.49 130.486C111.38 132.594 113.537 134.879 116.105 135.973L116.411 136.099C117.158 136.416 117.908 136.849 118.003 137.751C118.088 138.56 117.452 139.168 116.719 139.357C115.05 139.786 113.147 138.299 111.925 137.323C109.296 135.226 107.086 132.552 105.262 129.738L105.081 129.458C103.581 127.11 102.172 124.431 101.734 121.644L101.655 121.773C101.649 121.782 101.644 121.789 101.641 121.793C101.552 121.914 101.453 122.017 101.339 122.116C101.032 122.381 100.658 122.536 100.269 122.642C99.5385 122.839 98.738 122.878 97.9874 122.801C96.463 122.645 95.038 122.063 93.833 121.116C90.1638 118.231 89.7306 112.864 91.2146 108.509C89.9969 108.8 88.6099 107.979 87.6591 107.275C86.5687 106.467 85.6695 105.301 85.4547 103.929C85.2414 102.568 86.107 100.766 87.3909 100.24C86.0587 98.637 85.2831 96.3614 85.203 94.5393C85.0638 91.3699 86.7435 88.3742 89.3222 86.645C86.8972 81.435 86.43 75.3906 88.0628 69.8587C91.3029 58.8814 102.157 52.7427 112.565 50.0518ZM103.326 133.456L103.356 133.359C103.615 132.51 103.948 130.822 105.213 131.464C106.422 132.078 105.65 133.896 105.228 134.781C104.722 135.839 103.849 136.688 102.676 136.915C101.721 137.1 100.674 136.863 100.006 136.124C99.8115 135.908 99.7017 135.672 99.5864 135.411C99.5415 135.31 99.5212 135.24 99.5128 135.195C99.5018 135.245 99.4706 135.319 99.3909 135.406C98.8584 135.989 98.3554 136.668 97.9689 137.358C97.8774 137.521 97.589 137.407 97.662 137.228C98.1121 136.125 98.0364 134.418 99.0397 133.62C99.924 132.916 100.755 133.47 101.223 134.289L101.247 134.332C101.93 135.576 103.02 134.395 103.326 133.456ZM93.7065 129.468L93.7989 129.339C94.7444 128.044 96.3391 126.485 97.9348 127.69C98.4422 128.073 98.461 128.713 97.9348 129.093L97.7357 129.236C97.0386 129.731 96.3445 130.199 95.8324 130.909C95.2761 131.682 94.7764 132.5 94.0284 133.106C92.7055 134.177 90.5676 134.389 89.4197 132.944L89.3067 132.801C89.2107 132.677 89.1005 132.527 89.0111 132.379L88.9414 132.475C88.9346 132.485 88.9282 132.494 88.9223 132.503L88.9063 132.528C88.4345 133.283 87.8385 133.906 87.0962 134.397C85.6854 135.33 84.0956 135.46 82.4994 134.966C82.3432 134.917 82.3852 134.707 82.5363 134.693C84.4276 134.516 86.2704 133.169 87.0397 131.435L87.1266 131.24C87.4379 130.55 87.7866 129.894 88.5557 129.624C89.3043 129.36 90.0903 129.638 90.6036 130.206C91.0329 130.681 91.1433 131.624 91.9177 131.416C92.7656 131.188 93.2429 130.123 93.7065 129.468ZM88.2894 117.944C88.7083 117.625 89.3644 117.968 89.4797 118.43C90.0024 120.524 87.8317 122.991 85.7459 123.056C85.2089 123.072 84.6924 122.942 84.2168 122.693C83.8478 122.5 83.4112 122.006 83.0062 121.924C82.4832 121.819 82.0198 122.517 81.6515 122.875C81.1947 123.32 80.7427 123.733 80.2308 124.112C80.0263 124.264 79.709 124.009 79.7954 123.777L79.9686 123.314C80.5953 121.667 81.6748 119.263 83.695 119.947C84.6848 120.281 85.4299 121.41 86.4722 120.516C87.3068 119.801 87.3846 118.633 88.2894 117.944ZM97.2027 109.516C99.086 107.349 103.513 108.493 104.353 111.13C104.538 111.712 104.345 112.469 103.891 112.881C103.293 113.424 102.441 113.589 101.715 113.163C101.09 112.796 100.834 112.197 100.375 111.683C99.702 110.929 98.7864 110.511 97.843 110.211C97.6071 110.336 97.3876 110.499 97.1907 110.696C97.0899 110.797 96.8996 110.659 96.9889 110.54C97.1104 110.378 97.2588 110.226 97.4277 110.086L97.3465 110.062C97.0982 109.993 97.0444 109.698 97.2027 109.516ZM109.442 85.5879C109.865 85.5886 110.356 85.9859 110.302 86.4498L110.286 86.5786C110.164 87.4618 109.881 87.9619 109 88.3722C108.251 88.7199 107.465 88.912 106.645 88.9881C106.335 89.0169 106.006 89.0186 105.674 88.9938L105.603 89.3993C105.464 90.2101 105.335 91.0215 105.311 91.8479C105.266 93.38 105.836 94.6426 106.448 96.0104C107.622 98.638 107.754 101.261 106.476 103.885C106.289 104.268 105.759 104.581 105.332 104.542C104.778 104.492 104.511 104.331 104.189 103.885C103.918 103.51 103.98 102.979 104.167 102.587L104.189 102.544C104.833 101.293 105.036 99.8801 104.707 98.505C104.398 97.2126 103.698 96.051 103.385 94.7626C102.876 92.6639 103.418 90.5821 104.478 88.7816C103.678 88.5506 102.938 88.1389 102.444 87.511L102.447 87.5101C102.258 87.3083 102.361 86.8867 102.692 86.912L103.066 86.9423C104.136 87.032 105.121 87.1252 106.203 86.8262C106.758 86.6727 107.237 86.4169 107.713 86.1072L107.815 86.04C108.41 85.6431 108.741 85.5871 109.442 85.5879ZM112.003 70.0763C114.686 69.9235 116.976 71.6982 118.089 74.0607C119.299 76.6255 118.791 79.5685 117.724 82.0919L117.421 82.7982C116.89 84.0219 116.193 85.4771 115.106 86.1337C113.885 86.8713 112.829 86.0159 113.189 84.6563C113.404 83.8466 113.985 83.2221 114.455 82.5538C114.893 81.9297 115.302 81.2838 115.661 80.61C116.364 79.2887 116.889 77.8164 116.883 76.3025C116.873 73.5393 115.052 70.3726 112.003 70.4132C111.786 70.4158 111.789 70.0884 112.003 70.0763ZM125.57 65.6178C125.403 65.4905 125.553 65.2075 125.74 65.3269C128.85 67.3103 131.173 71.0357 131.641 74.6957C131.9 76.7263 131.702 78.8965 130.839 80.7705C130.344 81.8459 129.495 82.8724 128.308 83.1672C127.216 83.438 126.091 82.813 125.752 81.7448C125.621 81.3304 125.847 80.8969 126.188 80.6706C127.295 79.937 128.186 79.0112 128.708 77.766C129.25 76.4712 129.466 75.0972 129.473 73.7006C129.489 70.43 128.187 67.6112 125.57 65.6178ZM163.569 67.0353C163.425 66.8753 163.606 66.6395 163.797 66.7396C166.046 67.9253 167.475 70.1965 167.884 72.6839C168.285 75.119 167.745 78.4343 165.865 80.1955C164.804 81.1897 162.903 79.8674 163.785 78.5869C164.407 77.6838 165.08 76.94 165.436 75.8729C165.753 74.9208 165.866 73.9606 165.848 72.9601C165.81 70.7773 165.033 68.6627 163.569 67.0353ZM136.074 63.9859C139.916 63.8025 142.245 68.1996 142.778 71.477C143.108 73.502 142.86 75.5876 141.745 77.3439L141.679 77.4461C140.759 78.8492 139.086 80.4645 137.283 79.8002C136.52 79.5193 136.317 78.6999 136.83 78.0783C137.614 77.1268 138.826 76.739 139.563 75.723C140.391 74.5836 140.662 73.1562 140.614 71.7706L140.607 71.6175C140.479 69.0688 139.267 64.1768 136.074 64.2634C135.895 64.2681 135.897 63.9942 136.074 63.9859ZM148.092 63.2553C151.809 62.7791 154.072 67.1621 154.77 70.1815C155.206 72.069 155.301 74.1747 154.744 76.0481L154.702 76.1816C154.248 77.5798 152.909 79.9754 151.161 79.2609C150.682 79.0652 150.193 78.5319 150.422 77.9571C150.715 77.2222 151.138 77.0315 151.701 76.5613C152.135 76.1992 152.438 75.6795 152.661 75.1676C153.255 73.8034 153.387 72.2096 153.306 70.7394L153.295 70.5654C153.085 67.6939 151.532 63.4144 148.092 63.4931C147.935 63.4967 147.946 63.2739 148.092 63.2553ZM154.896 59.1348C156.965 58.3452 158.659 60.3279 159.848 61.7428C161.338 63.5159 162.689 65.4258 163.453 67.633C164.133 69.5996 164.253 71.7862 163.64 73.7881C163.337 74.7794 162.864 75.6985 162.219 76.5076L162.136 76.6096C161.465 77.4303 160.817 77.9347 159.717 77.6408C159.269 77.521 159.08 77.0774 159.158 76.6534C159.323 75.7476 159.789 75.5123 160.392 74.88C160.924 74.3222 161.319 73.6353 161.584 72.9131C162.132 71.4233 162.16 69.8092 161.792 68.2744C161.381 66.5562 160.572 64.9695 159.636 63.4827L159.434 63.1642C158.442 61.5923 157.028 59.1716 154.936 59.4267C154.757 59.4486 154.754 59.1889 154.896 59.1348Z" fill="black"/>
<path fill-rule="evenodd" clip-rule="evenodd" d="M149.69 120.752C150.415 119.473 152.578 119.681 152.909 121.173C153.579 124.198 149.973 126.992 147.234 127.062C144.513 127.131 141.459 124.813 141.853 121.886C141.95 121.162 142.917 121.25 143.247 121.704L143.374 121.878C144.27 123.081 145.451 124.326 147.112 124.033C147.801 123.912 148.426 123.481 148.842 122.928C149.344 122.259 149.289 121.461 149.69 120.752ZM132.383 98.6196C132.752 98.5179 133.125 98.5572 133.451 98.6963C134.181 98.8301 134.791 99.4388 135.005 100.134C135.022 100.194 135.041 100.253 135.061 100.312L135.094 100.4L135.007 100.177C135.047 100.396 135.225 100.627 135.29 100.847C135.369 101.118 135.388 101.425 135.361 101.723C135.593 101.726 135.825 101.734 136.057 101.754L136.28 101.774C137.532 101.89 138.906 102.104 139.647 103.185C140.064 103.793 139.673 104.887 138.908 105.004C137.729 105.185 136.714 104.533 135.54 104.402C134.43 104.278 133.269 104.349 132.173 104.55C129.911 104.963 127.832 105.881 125.628 106.456L125.328 106.532L125.328 106.531C124.951 106.622 124.522 106.097 124.895 105.789C126.661 104.338 128.922 103.162 131.15 102.446C130.825 101.929 130.725 101.249 130.947 100.695C130.981 100.58 131.024 100.468 131.069 100.357L131.162 100.128C131.172 100.02 131.192 99.9131 131.222 99.8084L131.227 99.7765L131.23 99.7784C131.396 99.2393 131.829 98.7726 132.383 98.6196ZM154.914 98.703C155.397 98.2196 156.076 98.2911 156.58 98.6715L156.647 98.724C157.122 98.9351 157.515 99.3965 157.773 99.824C158.041 100.268 158.219 100.72 158.226 101.209C159.395 101.213 160.515 101.564 161.374 102.508C161.651 102.813 161.84 103.283 161.688 103.696L161.597 103.942C161.309 104.722 160.013 105.172 159.572 104.254L159.552 104.209C159.084 103.119 157.288 103.234 156.333 103.345C155.667 103.423 155.01 103.589 154.367 103.774C154.141 103.839 153.917 103.91 153.692 103.983L153.468 104.055C153.349 104.094 152.726 104.432 153.113 104.352C153.218 104.331 153.296 104.482 153.19 104.533C152.728 104.754 152.235 104.314 152.266 103.818C152.319 102.957 153.687 102.484 154.345 102.187L154.384 102.169C154.636 102.053 154.901 101.941 155.173 101.837C155.02 101.609 154.893 101.355 154.788 101.083C154.688 100.826 154.622 100.576 154.585 100.303C154.549 100.169 154.549 100.036 154.585 99.902L154.591 99.8638C154.572 99.7754 154.563 99.6841 154.564 99.5922L154.561 99.5565H154.564C154.577 99.2346 154.705 98.9121 154.914 98.703ZM147.197 107.877C149.052 108.45 152.114 110.013 151.147 112.424C149.796 114.639 146.216 113.012 144.481 112.296C142.922 111.779 142.11 113.965 143.617 114.624C156.073 119.554 156.028 106.543 147.649 106.734C146.726 106.755 146.697 107.686 147.197 107.877ZM130.717 90.9122L131.033 90.8198C132.678 90.3432 134.357 89.5202 135.817 90.8043C136.391 91.3086 136.509 92.3565 136.099 92.9855C135.164 94.4186 133.778 94.1997 132.268 94.3218C131.119 94.4148 129.987 94.7526 128.914 95.1746C128.037 95.5198 127.224 96.0057 126.456 96.5476C125.702 97.0804 125.187 97.9133 124.413 98.3929C124.13 98.5687 123.802 98.3878 123.7 98.1027C123.339 97.0914 123.949 95.8315 124.465 94.9698C125.095 93.9186 126.052 93.0588 127.08 92.4083C128.207 91.6958 129.452 91.2844 130.717 90.9122ZM154.683 89.824C157.463 89.8231 160.138 91.37 161.693 93.6376C162.221 94.408 161.834 95.5492 161.075 95.9929C160.225 96.4908 159.315 96.1322 158.754 95.4187L158.721 95.3755C157.829 94.1875 156.68 93.2519 155.317 92.6428C154.652 92.3454 153.917 92.1042 153.198 91.9819L152.965 91.942C152.639 91.8874 152.262 91.8353 151.967 91.8863C151.809 91.907 151.664 91.9592 151.531 92.0387C151.595 92.1791 151.429 92.3481 151.276 92.264C150.585 91.8844 150.67 91.2073 151.24 90.681C152.048 89.9364 153.64 89.8242 154.683 89.824Z" fill="black"/>
<path fill-rule="evenodd" clip-rule="evenodd" d="M148.503 116.101C146.154 115.042 141.935 115.966 140.403 116.333C136.842 117.188 133.26 119.034 132.153 121.926C130.905 125.186 133.394 126.212 133.76 126.044C136.225 126.218 139.161 124.668 141.744 124.268C143.841 123.94 146.053 123.654 148.018 122.539C149.453 123.329 152.693 123.755 155.308 124.446C157.535 125.033 158.499 126.307 160.564 126.037C163.038 125.712 162.025 120.506 159.268 118.397C156.25 116.088 151.145 115.152 148.503 116.101ZM153.155 138.361C151.1 138.863 150.962 134.356 150.731 132.763C150.551 131.519 149.537 128.311 146.964 128.45C144.392 128.588 143.425 131.276 143.556 132.948C143.64 134.032 144.639 139.523 141.451 140.218C139.419 140.21 137.068 140.073 134.931 139.679C132.416 139.109 129.146 137.114 128.282 141.043C127.971 142.457 139.05 146.658 143.966 147.038C148.951 148.049 154.785 146.495 158.334 142.679C159.142 141.811 161.416 138.208 161.578 137.326C161.919 135.471 161.13 134.278 158.836 134.931C157.216 135.797 154.477 138.039 153.155 138.361Z" fill="black"/>
</svg>
