<svg width="240" height="324" viewBox="0 0 240 324" fill="none" xmlns="http://www.w3.org/2000/svg">
<path fill-rule="evenodd" clip-rule="evenodd" d="M194.637 251.934C193.785 247.123 193.005 242.299 192.295 237.465C191.958 235.169 191.63 232.872 191.334 230.571C191.128 228.959 190.813 227.115 191.909 225.921C193.452 224.24 194.854 222.802 195.042 220.395C195.22 218.129 194.454 215.66 193.976 213.462C192.972 208.851 191.722 204.297 190.341 199.786C188.938 195.204 187.399 190.664 185.839 186.133C184.38 181.897 182.977 177.622 181.077 173.558C177.47 165.845 171.369 160.132 163.828 156.318C161.953 155.37 158.128 151.984 156.168 151.226C154.367 150.528 154.374 152.564 152.601 151.797C151.184 151.184 149.864 150.367 149.071 148.998C148.209 147.512 146.048 145.433 145.72 143.703C145.023 140.035 145.778 136.914 143.161 134.154C140.839 131.703 137.717 130.024 134.486 129.123C127.38 127.14 117.903 128.526 113.616 135.132C111.568 138.286 110.852 142.1 108.089 144.674C105.676 146.922 106.216 148.459 103.091 149.617C102.914 149.683 98.1167 148.654 97.9397 148.72C94.5209 147.988 91.2534 150.037 88.1169 151.226C83.4409 152.998 78.9891 155.304 74.8066 158.045C66.373 163.573 59.1498 170.752 53.1948 178.874C47.1906 187.064 42.5319 196.244 39.2148 205.838C38.4092 208.168 37.6856 210.527 37.0474 212.908C36.6902 214.241 36.3084 215.624 36.7434 216.988C37.0992 218.105 37.8906 218.936 38.8199 219.606C40.0797 220.514 42.6067 221.104 42.5575 222.931C42.5199 224.32 42.049 225.781 41.8191 227.153C41.5455 228.787 41.3207 230.431 41.0959 232.073C40.0734 239.544 39.2775 247.057 38.9256 254.592C38.5791 262.011 38.2916 269.581 38.806 276.998C38.84 277.487 38.9858 277.936 39.2209 278.315C39.0014 278.399 38.9845 278.808 39.2577 278.866C39.4491 278.907 39.6401 278.948 39.8315 278.988C40.2291 279.289 40.7249 279.474 41.2956 279.492C41.6824 279.504 42.069 279.521 42.4554 279.541C46.5331 280.394 50.6102 281.199 54.7411 281.809C59.7625 282.551 64.7987 283.155 69.8505 283.646C80.2311 284.656 90.53 284.321 100.924 283.777C111.303 283.234 121.675 283.107 132.064 283.377C142.462 283.648 152.856 284.1 163.257 284.285C174.876 284.492 186.478 284.174 198.064 283.25C199.653 283.124 200.635 281.859 200.322 280.281C198.445 270.825 196.318 261.431 194.637 251.934Z" fill="#D08B5B"/>
<path fill-rule="evenodd" clip-rule="evenodd" d="M88.117 151.225L88.3439 151.138C91.411 149.939 94.6034 148.005 97.9397 148.719C98.0577 148.676 100.229 149.118 101.716 149.399L100.304 150.873L97.8135 151.352C106.406 165.54 116.569 172.633 128.302 172.633C140.035 172.633 148.939 165.54 155.012 151.352L155.841 151.123C155.943 151.147 156.052 151.18 156.168 151.225C158.128 151.983 161.953 155.37 163.828 156.318C171.369 160.132 177.47 165.844 181.077 173.558C182.914 177.487 184.286 181.612 185.693 185.709L185.839 186.133C187.399 190.664 188.938 195.203 190.341 199.786C191.662 204.101 192.863 208.455 193.843 212.86L193.976 213.461C194.454 215.66 195.22 218.129 195.042 220.394C194.975 221.252 194.754 221.987 194.427 222.653L177.432 228.771L185.529 284.017C178.112 284.335 170.688 284.417 163.257 284.285C152.857 284.1 142.462 283.647 132.064 283.377C121.99 283.115 111.931 283.226 101.868 283.729L99.3123 283.859C89.4645 284.352 79.6943 284.604 69.8506 283.646L69.1798 283.58L69.1797 275.499L72.6375 230.5L55.114 227.201L37.9122 218.842C37.3925 218.323 36.9754 217.716 36.7435 216.988C36.3406 215.724 36.6383 214.445 36.9683 213.204L37.0475 212.908C37.6857 210.526 38.4093 208.168 39.2149 205.837C42.532 196.243 47.1906 187.064 53.1949 178.874C59.1499 170.751 66.3731 163.573 74.8067 158.045C78.9892 155.304 83.441 152.997 88.117 151.225Z" fill="#EC7495"/>
<path fill-rule="evenodd" clip-rule="evenodd" d="M94.6976 148.487C95.7721 148.44 96.8677 148.614 97.9397 148.72C98.0331 148.729 98.0686 148.873 97.9634 148.895C96.0449 149.296 94.1475 149.844 92.2633 150.401L91.4566 150.64C89.3318 151.269 87.2694 151.917 85.2125 152.756C81.1131 154.427 77.2196 156.683 73.6363 159.275C59.838 169.255 49.8514 184.366 43.5493 200.01C41.8378 204.259 40.3877 208.613 39.213 213.04C38.9274 214.118 38.6587 215.199 38.4039 216.284C38.3291 216.602 38.0031 217.417 38.1818 217.742C38.3399 218.03 38.9542 218.208 39.2396 218.357L40.2033 218.857C42.0829 219.826 45.2138 221.419 45.5278 221.574L46.0175 221.816C54.0268 225.744 62.5846 229.074 71.5976 229.305L71.6682 228.535C72.07 224.278 72.5973 219.999 73.7483 215.873C73.8102 215.651 74.0923 215.726 74.118 215.923C74.7592 220.807 74.5543 225.73 74.3306 230.637C73.9344 239.328 73.4084 248.014 72.9408 256.702C72.7068 261.048 72.4042 265.391 72.1311 269.735C71.8575 274.087 71.7689 278.544 71.1442 282.861C71.005 283.823 69.8785 284.346 69.0254 284.245C68.0815 284.132 67.3554 283.3 67.3509 282.347C67.3395 279.832 67.6553 277.288 67.8309 274.78C67.9976 272.397 68.1765 270.015 68.3599 267.633C69.0301 258.94 69.801 250.257 70.514 241.568C70.7667 238.486 71.0396 235.407 71.3206 232.328C61.7728 232.02 52.8529 228.482 44.3434 224.348C44.2203 227.146 43.9228 229.939 43.6349 232.725C42.831 240.499 42.1222 248.271 41.5917 256.07C41.3238 260.009 41.1288 263.953 40.9589 267.897C40.8755 269.835 40.8075 271.774 40.7553 273.714C40.7378 274.36 40.722 275.007 40.7081 275.653L40.6791 277.135C40.6553 278.073 40.5599 278.942 39.7706 279.626C38.9688 280.32 37.8858 280.357 37.0923 279.626C36.0301 278.647 36.2179 277.314 36.2494 276C36.2756 274.891 36.307 273.783 36.3436 272.675C36.4169 270.458 36.5105 268.243 36.6244 266.028C37.0228 258.285 37.819 250.573 38.8595 242.892L39.2657 239.927C40.0242 234.415 40.8569 228.777 42.5525 223.467C41.8923 223.139 41.234 222.808 40.5782 222.476C39.415 221.887 38.2123 221.334 37.0815 220.683C36.1845 220.168 35.4108 219.46 35.1611 218.416C34.8826 217.252 35.3085 215.98 35.5914 214.845L35.616 214.745C35.8934 213.602 36.1921 212.464 36.5073 211.331C37.7855 206.736 39.366 202.232 41.2156 197.837C44.9192 189.038 49.6995 180.678 55.5387 173.12C60.7949 166.317 67.004 160.147 74.2813 155.52C77.8391 153.258 81.6305 151.4 85.6401 150.087C87.5143 149.473 89.5535 148.939 91.5157 148.719C92.5742 148.601 93.6341 148.533 94.6976 148.487ZM113.736 134.544C115.013 133.172 117.549 134.592 116.936 136.408C115.494 140.682 113.198 144.579 109.614 147.387C106.245 150.027 102.228 151.742 97.9014 151.376C97.868 151.373 97.8391 151.364 97.8135 151.352L98.1863 151.858C101.113 155.819 104.201 159.725 107.923 162.963C115.506 169.559 125.831 173.117 135.8 170.586C143.644 168.595 150.555 162.39 152.587 154.482C152.296 154.613 151.95 154.657 151.57 154.575C149.944 154.221 148.334 152.511 147.285 151.284C146.15 149.957 145.264 148.524 144.615 146.904C143.426 143.94 143.045 140.123 144.668 137.251C144.868 136.897 145.33 137.096 145.37 137.441L145.431 137.981C145.744 140.672 146.134 143.275 147.402 145.729C148.023 146.929 148.767 148.101 149.673 149.106C150.158 149.644 150.683 150.158 151.25 150.609C151.803 151.049 152.472 151.366 152.967 151.87L153.058 151.967L153.061 151.95C153.186 150.884 153.933 150.415 154.664 150.444C155.371 150.473 156.202 150.784 156.523 150.933L156.554 150.948C161.487 153.317 166.031 156.405 170.307 159.831C179.15 166.916 185.775 176.179 188.986 187.086C190.561 192.439 191.465 197.956 192.42 203.446L193.007 206.81C193.898 211.878 194.893 217.047 196.904 221.761C197.424 222.981 197.023 224.125 195.748 224.605C194.155 225.203 192.557 225.783 190.956 226.356C191.742 229.73 192.221 233.221 192.81 236.611C194.062 243.818 195.596 250.979 196.912 258.176C197.584 261.856 198.191 265.548 198.863 269.229C199.186 271.001 199.524 272.771 199.852 274.543C200.029 275.498 200.189 276.456 200.358 277.413L200.387 277.571C200.484 278.076 200.605 278.598 200.467 279.103C200.308 279.679 199.859 280.086 199.458 280.499C199.128 280.839 198.65 280.841 198.246 280.655L198.113 280.594C197.39 280.256 196.824 279.919 196.568 279.103C196.406 278.587 196.347 278.005 196.241 277.473C196.038 276.453 195.845 275.432 195.663 274.408C195.298 272.36 194.943 270.31 194.595 268.258L194.271 266.337C193.157 259.715 192.1 253.054 191.565 246.362C191.328 243.394 191.077 240.428 190.823 237.461L190.633 235.236C190.392 232.42 190.098 229.532 190.056 226.678L189.099 227.018L184.428 228.67C183.269 229.079 181.795 229.919 180.548 229.766C179.938 229.691 179.473 229.499 179.114 229.15C179.544 235.223 180.126 241.285 180.902 247.316C181.608 252.804 182.391 258.284 183.315 263.74C183.773 266.442 184.244 269.14 184.755 271.832C185.01 273.178 185.274 274.522 185.546 275.865C185.681 276.535 185.842 277.206 185.948 277.881C186.069 278.655 185.856 279.131 185.424 279.767C185.069 280.29 184.359 280.558 183.784 280.198C183.022 279.719 182.625 279.305 182.401 278.434C182.197 277.643 182.073 276.817 181.916 276.016C181.625 274.537 181.343 273.056 181.072 271.573C180.504 268.472 179.981 265.364 179.514 262.246C177.867 251.262 176.822 240.187 176.294 229.093C176.034 223.62 175.953 218.142 175.999 212.663C176.023 209.854 176.115 207.038 176.313 204.236C176.514 201.401 176.933 198.622 177.306 195.813C177.319 195.714 177.459 195.708 177.465 195.813C177.642 198.962 177.919 202.107 178.055 205.264C178.184 208.276 178.241 211.293 178.344 214.307C178.48 218.268 178.668 222.231 178.916 226.192C179.366 225.699 180.045 225.415 180.724 225.526C181.708 225.32 182.767 224.803 183.704 224.49L187.24 223.309C189.098 222.688 190.957 222.071 192.822 221.473C191.154 215.861 190.012 210.165 189.037 204.386L188.602 201.787C187.741 196.672 186.812 191.554 185.253 186.6C183.613 181.392 181.159 176.55 177.904 172.165C174.696 167.844 170.792 164.038 166.773 160.479C163.332 157.433 159.651 154.682 156.142 151.718C156.178 151.915 156.186 152.131 156.154 152.369C155.408 157.832 152.559 162.92 148.588 166.704C140.612 174.307 128.805 175.884 118.596 172.319C108.721 168.87 99.9896 160.703 96.9048 150.597C96.852 150.424 97.0836 150.356 97.1765 150.483C97.3477 150.717 97.5196 150.952 97.6918 151.186C97.6802 151.093 97.7286 150.992 97.8435 150.947C101.443 149.557 104.977 147.586 107.675 144.796C108.99 143.437 110.137 141.896 111.043 140.235C111.477 139.439 111.867 138.615 112.178 137.764L112.257 137.544C112.634 136.477 112.949 135.389 113.736 134.544Z" fill="black"/>
<path fill-rule="evenodd" clip-rule="evenodd" d="M132.683 46.2808C144.654 46.2808 159.647 59.9701 164.035 65.7955C167.724 70.6932 167.202 95.9244 167.202 110.892C167.202 114.022 165.791 119.946 165.278 122.941C163.401 133.913 155.22 143.115 139.029 143.115C125.846 143.115 115.701 138.929 105.89 128.222C103.652 125.779 92.7212 134.524 90.4857 131.375C84.6467 131.375 79.7642 76.6819 91.2285 60.2772C102.693 43.8726 120.713 46.2808 132.683 46.2808Z" fill="#D08B5B"/>
<path fill-rule="evenodd" clip-rule="evenodd" d="M96.7047 50.1333C103.622 43.8245 112.837 40.7895 122.134 41.0135C126.949 41.1297 131.748 42.0491 136.295 43.6237C138.57 44.4141 140.773 45.4455 142.879 46.6122C143.638 47.0316 144.338 47.5231 145.011 48.0451L145.179 48.1762H145.181C146.988 48.8271 148.601 49.9959 150.064 51.3633C152.996 51.1287 155.952 51.3929 158.788 52.2996C162.734 53.5635 166.388 55.8778 168.953 59.1643C171.942 62.9904 172.936 67.6314 172.581 72.4224L172.516 73.2363C172.165 77.4685 171.537 82.9121 168.072 85.693C167.809 85.9043 167.518 86.0649 167.216 86.1622C169.449 89.996 171.281 94.2526 172.377 98.5515C176.562 114.971 173.345 132.095 168.312 147.921C167.899 149.225 165.932 150.091 164.931 148.817C163.143 146.539 160.546 144.801 157.624 144.476C155.821 144.275 154.027 144.639 152.324 143.819C151.655 143.495 151.01 142.967 150.547 142.324C147.671 143.417 144.574 143.933 141.502 143.806C136.461 143.599 131.073 141.849 127.605 138.011C127.048 137.395 126.907 136.703 127.035 136.079C127.47 135.924 127.917 135.808 128.377 135.735C132.775 138.334 137.622 140.07 142.832 140.179C145.842 140.242 148.779 139.82 151.22 137.936C151.748 137.528 152.234 137.076 152.683 136.591C157.786 133.3 161.384 127.71 163.095 121.722C164.688 116.138 164.492 110.324 163.944 104.596L163.655 101.574C163.234 97.1376 162.842 92.6883 162.733 88.2334L162.766 88.2317C163.844 88.1619 163.851 86.4705 162.766 86.5409C159.958 86.7231 157.171 86.2613 154.372 86.4625C154.349 85.1358 154.253 83.8151 153.864 82.5356C153.642 81.8045 152.373 81.6604 152.238 82.5356C152.058 83.7065 151.992 84.8708 151.973 86.047C147.783 85.9912 143.598 85.6378 139.408 85.783C138.635 84.9566 138.389 83.4913 138.028 82.472C137.975 82.3219 137.922 82.174 137.868 82.0239C137.55 83.4805 137.1 84.9053 136.507 86.3L135.48 86.3034C129.649 86.3309 123.701 86.5056 118.007 87.7194C117.612 87.4148 117.376 86.8835 117.313 86.401C116.9 83.2612 116.31 80.2049 115.266 77.2128L115.116 76.7907C115.104 76.7556 115.091 76.7184 115.078 76.6793C114.308 77.9248 113.39 79.0857 112.388 80.1668C111.798 80.804 111.179 81.4133 110.543 82.0053C109.926 82.6922 109.289 83.3687 108.671 84.0577C108.695 84.1831 108.716 84.3103 108.733 84.4399C108.922 85.8696 108.942 87.3197 108.803 88.755C108.553 91.3497 107.822 93.85 106.648 96.163L106.611 96.3946C106.433 97.4786 106.179 98.5988 105.587 99.4151C106.326 100.245 106.895 101.237 107.226 102.339C107.519 103.32 106.166 104.17 105.464 103.367C104.906 102.729 104.286 102.202 103.606 101.781C103.563 101.839 103.485 101.868 103.398 101.819C101.503 100.764 98.2838 101.083 96.3906 102.077C94.0357 103.311 93.1165 105.845 93.3779 108.413C93.6288 110.867 94.6998 113.735 96.7764 114.992C97.7293 115.569 98.4714 115.618 99.4833 115.341C99.8069 115.253 100.208 114.983 100.38 114.849L100.55 114.712C101.213 114.187 101.831 113.827 102.614 113.813C103.415 113.563 104.22 113.91 104.526 114.752L104.545 114.806C104.689 115.235 104.95 115.774 104.893 116.43C104.834 117.131 104.514 117.77 104.035 118.283C103.953 118.372 103.864 118.461 103.774 118.543C112.017 127.49 113.075 141.43 108.848 152.606C108.665 153.097 108.469 153.581 108.264 154.061C107.558 155.705 104.838 155.196 104.492 153.566C104.389 153.078 104.275 152.592 104.151 152.11C103.922 151.219 103.66 150.337 103.365 149.468L103.253 149.142C103.002 148.424 102.768 147.699 102.515 146.98L102.49 146.898C102.48 146.866 102.47 146.828 102.458 146.786L102.03 147.722L100.729 150.548C100.121 151.867 98.1866 151.15 98.1147 149.879L98.113 149.836C98.1067 149.601 98.0982 149.369 98.0835 149.138C97.9907 147.411 97.6935 145.733 97.2212 144.091L97.0508 144.303C94.5138 147.448 91.5363 150.395 87.4517 151.121C86.4271 151.302 85.2676 150.229 85.9718 149.191C86.2627 148.762 86.5431 148.322 86.8087 147.876C86.5789 147.769 86.3618 147.657 86.1615 147.543C84.612 146.67 83.3217 145.427 82.255 144.017C79.9928 141.029 79.1833 137.267 78.9851 133.585C78.7743 129.694 79.1158 125.592 80.1763 121.838C80.6359 120.215 81.2578 118.657 81.9767 117.146C81.9261 117.011 81.8776 116.876 81.8291 116.74C81.0533 114.572 80.4166 112.355 79.8874 110.112C78.8207 105.585 78.2472 100.914 78.1777 96.2626C78.0512 87.929 79.4848 79.4623 82.5058 71.691C85.626 63.6766 90.3189 55.956 96.7047 50.1333ZM92.8193 122.994C92.2463 122.09 90.8128 122.905 91.3447 123.815L91.3646 123.848C92.2732 125.283 92.6991 126.915 93.2219 128.515C93.5571 129.544 95.1868 129.104 94.8474 128.064L94.735 127.717C94.2147 126.095 93.7401 124.446 92.8193 122.994ZM97.8094 105.731L98.19 105.546C99.3907 104.972 100.443 104.581 101.861 105.082C103.761 105.752 105.795 107.885 104.511 109.954C104.039 110.717 103.2 111.021 102.336 110.842C100.879 110.539 100.503 109.223 99.763 108.143L99.6358 107.96C99.1849 107.307 98.6148 106.404 97.8642 106.147C97.6935 106.088 97.6218 105.822 97.8094 105.731ZM98.8801 61.8L99.0027 61.6899C99.8185 60.9671 98.6211 59.7751 97.8094 60.4937C94.0947 63.7844 92.8045 68.935 90.8776 73.3247C90.4454 74.3117 91.898 75.1741 92.3344 74.1786C94.1724 69.9897 95.3925 64.9789 98.8801 61.8ZM143.52 60.3605C142.549 59.922 141.7 61.3381 142.633 61.8043L142.668 61.8209C145.948 63.3067 147.344 66.6714 148.681 69.7952C149.107 70.7928 150.559 69.9326 150.138 68.9434L149.896 68.3829C148.502 65.1638 146.875 61.8825 143.52 60.3605ZM148.662 58.3273C147.633 57.9701 147.192 59.6018 148.213 59.9589C150.993 60.929 152.901 63.0214 154.51 65.4139C155.113 66.31 156.574 65.4646 155.965 64.56C154.097 61.7829 151.879 59.4517 148.662 58.3273Z" fill="black"/>
<path fill-rule="evenodd" clip-rule="evenodd" d="M143.152 128.274C141.732 127.695 140.465 126.728 139.538 125.493C139.216 125.063 139.133 124.61 139.2 124.195C139.276 123.729 139.552 123.306 139.928 123.023C140.305 122.739 140.777 122.598 141.233 122.67C141.63 122.732 142.024 122.949 142.337 123.399L142.402 123.489C142.953 124.235 143.67 124.846 144.488 125.241C145.276 125.621 146.158 125.798 147.07 125.695C148.808 125.499 150.005 124.559 151.278 123.282C151.436 123.121 151.594 122.955 151.752 122.786C151.852 122.633 151.991 122.534 152.146 122.483C152.317 122.425 152.511 122.429 152.689 122.491C152.86 122.55 153.013 122.664 153.116 122.815C153.213 122.958 153.269 123.135 153.251 123.339C153.134 124.661 152.443 125.842 151.461 126.769C150.37 127.799 148.924 128.511 147.563 128.761C146.064 129.036 144.536 128.839 143.152 128.274ZM148.271 107.866C149.866 108.836 152.297 111.098 150.581 113.503C148.56 115.624 145.652 113.193 144.219 112.093C142.889 111.241 141.396 113.433 142.629 114.428C152.986 122.099 157.19 108.12 149.078 106.726C148.184 106.572 147.853 107.566 148.271 107.866ZM129.711 98.9429C129.887 96.7541 133.219 96.257 133.551 98.423C133.847 100.363 133.498 102.145 132.624 103.892C131.79 105.561 129.692 104.783 129.533 103.263C129.32 101.226 129.601 100.304 129.711 98.9429ZM155.076 97.9739C155.541 97.3652 156.211 96.9497 157.015 97.1845C159.526 97.9185 158.786 101.485 157.904 103.22C157.425 104.163 155.876 104.402 155.176 103.572C154.035 102.219 153.489 99.5157 154.939 98.1825C154.979 98.1136 155.022 98.044 155.076 97.9739ZM132.589 89.3654L132.986 89.2959C134.213 89.0836 135.738 88.8796 136.606 89.8665C137.067 90.3898 137.225 91.3624 136.606 91.8633C135.518 92.7446 134.314 92.4031 133.01 92.4777C131.935 92.5394 130.902 92.7174 129.867 93.0135C127.595 93.6629 125.744 94.8486 123.804 96.1505C123.55 96.3213 123.29 95.9956 123.411 95.7574C124.531 93.563 126.701 91.7604 128.875 90.6616C130.036 90.0751 131.305 89.5885 132.589 89.3654ZM152.787 88.3823L153.091 88.4445C156.394 89.1353 160.687 90.5153 162.251 93.7615C162.311 94.2205 162.248 94.3189 162.197 94.3832L162.179 94.4046C162.137 94.4595 162.104 94.5351 161.905 94.5976C161.849 94.5845 161.794 94.5705 161.737 94.5557C161.02 94.3677 160.453 94.1087 159.904 93.84L159.308 93.5465C158.617 93.2076 157.92 92.881 157.181 92.6399C155.605 92.1255 153.983 91.7631 152.337 91.5696C151.98 91.5277 151.636 91.4072 151.365 91.2007C151.107 91.0046 150.911 90.7332 150.821 90.3724C150.705 89.9056 150.738 89.5521 150.989 89.1309C151.177 88.8146 151.447 88.5953 151.756 88.4694C152.071 88.3411 152.43 88.3108 152.787 88.3823Z" fill="black"/>
</svg>
