<svg width="240" height="324" viewBox="0 0 240 324" fill="none" xmlns="http://www.w3.org/2000/svg">
<path fill-rule="evenodd" clip-rule="evenodd" d="M51.5017 284.886C64.438 285.249 76.6582 285.648 89.5696 284.886C110.231 283.608 170.864 285.912 184.192 284.886C185.198 284.809 188.657 285.912 188.729 284.886C189.315 277.741 189.695 205.452 187.954 200.478C186.213 195.503 177.621 171.593 166.674 160.443C163.621 157.431 158.976 156.264 156.41 152.783C154.197 148.987 154.369 146.76 152.184 144.763C151.236 143.896 149 143.545 147.338 142.342C145.668 140.681 147.249 137.024 146.564 134.711C145.15 128.936 139.943 125.231 134.252 124.358C126.341 122.464 117.991 124.255 114.202 130.47C112.791 132.784 113.542 135.597 111.807 139.304C111.931 142.106 108.661 142.783 106.707 143.893L102.825 147.817C90.8676 154.548 76.8007 158.183 66.3233 167.225C57.4155 176.266 48.5553 186.714 44.6029 198.945C43.7847 202.278 43.5176 205.723 43.1786 209.128C42.2105 219.08 39.515 228.739 37.1952 238.433C34.5502 250.647 32.0845 263.612 35.6495 275.942C36.6773 278.551 49.1619 284.764 51.5017 284.886Z" fill="#D08B5B"/>
<path fill-rule="evenodd" clip-rule="evenodd" d="M111.753 139.278L112.764 139.386V147.168L125.975 160.916L128.389 163.677C126.95 168.81 128.399 171.377 132.737 171.377C139.243 171.377 134.213 169.486 135.436 166.926L135.488 166.821C136.375 165.069 139.41 161.351 144.594 155.67L150.54 145.727V143.911L150.741 143.994C151.303 144.228 151.787 144.466 152.116 144.767C154.301 146.764 154.129 148.992 156.342 152.788C158.908 156.269 163.553 157.436 166.606 160.448C177.553 171.597 186.145 195.508 187.886 200.482C189.626 205.456 189.247 277.746 188.661 284.891C188.589 285.917 185.13 284.814 184.124 284.891C170.796 285.917 110.163 283.613 89.5016 284.891C76.5902 285.653 64.37 285.253 51.4336 284.891C49.0938 284.769 36.6092 278.556 35.5814 275.946C32.0165 263.617 34.4821 250.652 37.1272 238.438L37.3565 237.485C39.5834 228.269 42.0878 219.075 43.0615 209.622L43.1105 209.133C43.4496 205.727 43.7166 202.283 44.5349 198.95C48.4873 186.719 57.3474 176.27 66.2553 167.23C76.6279 158.278 90.5186 154.626 102.398 148.023L102.757 147.822L106.639 143.898L106.757 143.832C108.723 142.76 111.86 142.055 111.739 139.309L111.753 139.278Z" fill="#FDEA6B"/>
<path fill-rule="evenodd" clip-rule="evenodd" d="M113.516 131.465C113.62 131.127 114.066 131.222 114.1 131.544C114.435 134.731 114.013 138.062 113.607 141.228C113.413 142.756 113.301 144.345 113.005 145.852C112.967 146.013 112.931 146.175 112.897 146.336C112.994 146.509 113.282 146.704 113.419 146.837L114.015 147.417L115.211 148.574C117.55 150.84 119.888 153.108 122.227 155.373L125.66 158.702C126.837 159.843 128.174 160.936 129.207 162.208C129.767 162.899 129.894 163.747 129.342 164.487C129.07 164.852 128.58 165.119 128.083 165.174C128.277 165.444 128.427 165.751 128.523 166.091C128.717 166.784 128.016 167.636 127.27 167.346C126.423 167.021 125.723 166.437 124.861 166.158C123.991 165.875 123.045 165.82 122.142 165.972C121.728 166.042 121.323 166.146 120.927 166.277C125.155 168.224 129.729 169.342 134.394 169.502C135.344 169.534 136.293 169.521 137.237 169.458C138.826 169.354 140.404 169.113 141.955 168.724C143.174 168.418 144.381 168.033 145.551 167.568C146.126 167.34 146.694 167.089 147.243 166.803L147.291 166.775C147.416 166.697 149.711 165.395 149.751 165.199C149.791 165.003 149.791 164.935 149.716 164.765C149.642 164.594 149.434 164.477 149.434 164.477C148.725 164.174 147.99 163.892 147.216 163.886C145.432 163.876 143.487 165.195 142.012 166.093C140.392 167.08 138.902 168.234 137.343 169.304C137.307 169.329 137.267 169.339 137.229 169.339C137.064 169.339 136.912 169.136 137.018 168.978C138.135 167.332 139.643 165.961 141.221 164.765L141.857 164.288C143.302 163.21 144.992 162.016 146.749 161.756C148.901 161.439 151.15 162.781 153.07 163.567L156.471 164.96C157.077 165.207 157.737 165.419 158.347 165.7L156.922 161.238C156.21 159.007 155.499 156.776 154.796 154.543L154.66 154.105C153.959 151.839 153.316 149.481 152.149 147.41C151.87 146.913 151.551 146.446 151.236 145.974C150.908 145.486 150.786 144.948 150.374 144.512C149.559 143.647 148.39 143.14 147.275 142.809C147.002 142.728 147.083 142.369 147.338 142.342C148.483 142.221 149.574 142.488 150.609 142.971L151.039 143.176C152.017 143.639 152.971 144.07 153.697 144.901C155.353 146.799 156.213 149.188 157.004 151.547L157.215 152.18C157.511 152.083 159.52 152.696 159.771 152.841C167.303 156.026 173.104 161.957 177.347 168.906C181.995 176.521 184.525 185.222 186.615 193.833C187.26 196.49 187.876 199.156 188.469 201.827C185.829 202.843 183.024 203.375 180.553 204.806C179.612 205.351 180.462 206.813 181.406 206.266C183.72 204.926 186.356 204.43 188.834 203.489C190.177 209.674 191.371 215.892 192.372 222.137C195.446 241.302 197.387 260.78 197.265 280.207C197.263 280.637 197.136 281.116 196.901 281.528C197.039 281.461 197.147 281.38 197.208 281.283C197.987 280.059 199.942 281.194 199.158 282.425L199.043 282.603C198.455 283.51 197.906 284.203 196.872 284.715C195.83 285.231 194.702 285.318 193.553 285.348C189.647 285.45 185.738 285.517 181.827 285.566C181.291 281.381 181.073 277.157 180.334 272.997C180.144 271.928 178.515 272.381 178.705 273.447C179.418 277.464 179.646 281.542 180.144 285.586C171.784 285.676 163.42 285.677 155.066 285.7C143.746 285.734 132.426 285.71 121.106 285.704L116.254 285.702C103.177 285.702 90.0993 285.66 77.0221 285.573L73.912 285.551C72.6748 278.255 71.8327 270.897 71.8171 263.483C71.8147 262.395 70.1246 262.393 70.1269 263.483C70.1426 270.889 70.9754 278.248 72.2011 285.542C69.1048 285.528 66.0099 285.54 62.9134 285.65L61.3373 285.706C58.184 285.814 55.0242 285.88 51.8768 285.629C48.3824 285.348 44.8481 284.705 41.715 283.059C40.304 282.316 39.0615 281.366 37.9997 280.25C39.079 279.621 40.1738 279.019 41.2194 278.334C42.1259 277.741 41.2802 276.277 40.3663 276.875C39.2396 277.612 38.0552 278.255 36.8952 278.937C36.0552 277.815 35.3658 276.571 34.8423 275.228C34.0162 273.108 33.6972 270.828 33.4204 268.583C33.0932 265.939 32.9578 263.274 32.9578 260.611C32.9578 255.01 33.5472 249.426 34.3692 243.893C35.1553 238.592 36.1945 233.334 37.2928 228.093L37.443 227.378C38.5268 222.225 39.5599 217.058 40.8021 211.941C41.9508 207.21 43.2782 202.5 44.8602 197.882C46.2683 198.753 47.7418 199.515 49.128 200.422C50.0409 201.02 50.8887 199.557 49.9811 198.963C48.5022 197.994 46.9249 197.19 45.4325 196.244C47.2014 191.299 49.2778 186.469 51.7671 181.843C56.7528 172.579 63.4714 164.292 72.0763 158.176C76.3838 155.115 81.1099 152.611 86.0728 150.789C91.1326 148.929 96.3761 147.91 101.738 147.492C101.891 147.48 101.977 147.622 101.971 147.753L101.969 147.777L102.18 147.811C102.258 147.281 102.419 146.767 102.725 146.296C103.422 145.222 104.744 144.533 105.801 143.874L106.051 143.718C107.308 142.939 108.634 142.171 110.096 141.898C110.147 141.889 110.178 141.942 110.144 141.982C109.18 143.088 107.948 143.933 106.818 144.868L106.559 145.084C105.622 145.855 104.316 146.73 104.282 148.018C104.242 149.536 104.552 151.115 104.664 152.628C104.776 154.137 104.854 155.644 104.894 157.157C105.04 162.578 104.865 168.002 104.385 173.402L106.506 171.981C109.807 169.771 113.119 167.566 116.499 165.497C118.545 164.244 120.843 163.172 123.294 163.221C123.98 163.233 124.756 163.333 125.5 163.544C124.699 162.785 123.932 161.978 123.148 161.215C121.857 159.957 120.566 158.7 119.276 157.445L115.554 153.818L111.83 150.191C110.677 149.064 109.325 148.027 109.447 146.252C109.547 144.835 110.267 143.426 110.759 142.06C110.829 141.864 110.892 141.669 110.951 141.477C111.945 138.176 112.508 134.754 113.516 131.465ZM161.62 273.111C160.85 272.341 159.655 273.536 160.425 274.307L160.832 274.712C161.513 275.391 162.187 276.091 162.658 276.93L162.727 277.057C163.234 278.02 164.693 277.167 164.186 276.204C163.559 275.014 162.561 274.053 161.62 273.111ZM128.634 272.894C126.183 272.426 123.821 272.426 121.37 272.894C120.303 273.098 120.755 274.728 121.82 274.524C123.963 274.115 126.041 274.115 128.185 274.524C129.248 274.727 129.703 273.098 128.634 272.894ZM95.5346 255.85C94.4799 255.583 94.0299 257.213 95.0854 257.481L95.6051 257.611C97.3716 258.048 99.054 258.373 100.889 257.968C101.937 257.736 101.513 256.145 100.481 256.329L100.44 256.337C98.7416 256.713 97.1774 256.267 95.5346 255.85ZM154.319 244.868C153.538 244.109 152.342 245.303 153.124 246.063C154.099 247.012 155.249 247.734 156.642 247.772C157.713 247.802 157.729 246.161 156.69 246.084L156.642 246.081C155.708 246.055 154.964 245.496 154.319 244.868ZM54.8487 240.352C55.8218 239.866 54.9668 238.407 53.9958 238.893L48.1547 241.814C47.1816 242.301 48.0366 243.76 49.0076 243.274L54.8487 240.352ZM170.271 240.725C169.183 240.694 169.184 242.385 170.271 242.416C171.293 242.444 172.341 242.832 173.252 243.274C174.226 243.747 175.084 242.29 174.105 241.814C172.914 241.236 171.607 240.762 170.271 240.725ZM115.694 232.561C116.588 231.953 115.744 230.487 114.841 231.101C113.609 231.939 112.492 232.928 111.28 233.791L110.947 234.023C110.052 234.631 110.897 236.097 111.8 235.483C113.144 234.569 114.35 233.475 115.694 232.561ZM178.546 220.273C177.458 220.272 177.457 221.963 178.546 221.964L178.752 221.963C179.65 221.958 180.596 221.933 181.431 222.292L181.527 222.335C182.505 222.796 183.364 221.339 182.38 220.875C181.156 220.299 179.876 220.273 178.546 220.273ZM84.6839 219.065L84.8259 219.012C85.8421 218.647 85.4039 217.012 84.3765 217.381C82.8283 217.938 81.6239 218.989 80.2809 219.901C79.3859 220.509 80.2306 221.975 81.1338 221.361C82.2909 220.575 83.3676 219.58 84.6839 219.065ZM148.079 214.666L148.306 214.544C149.274 214.046 148.42 212.587 147.454 213.084C146.687 213.479 146 214.004 145.247 214.423L145.02 214.545C144.052 215.043 144.906 216.502 145.873 216.005C146.64 215.61 147.326 215.085 148.079 214.666ZM122.367 198.289L122.193 198.121C121.415 197.359 120.219 198.554 120.997 199.317C122.942 201.221 125.242 202.667 127.561 204.064L127.983 204.318C128.918 204.879 129.769 203.418 128.836 202.858L128.217 202.486C126.155 201.242 124.117 199.957 122.367 198.289ZM75.5958 196.711C76.2512 195.859 74.8259 195.026 74.1598 195.828L74.1364 195.857C73.4541 196.743 72.6447 197.545 71.7986 198.277L71.6396 198.414C71.1359 198.842 70.2192 199.761 69.5117 199.821C68.4359 199.913 68.4262 201.604 69.5117 201.512C70.6065 201.419 71.5485 200.648 72.3756 199.987C73.5795 199.026 74.6563 197.93 75.5958 196.711ZM165.514 190.551C166.299 189.813 165.139 188.638 164.347 189.331L164.319 189.356C162.851 190.735 160.74 191.105 158.851 191.573C157.796 191.835 158.243 193.465 159.3 193.203L160.161 192.991C162.092 192.509 164.029 191.947 165.514 190.551ZM132.042 179.886C130.987 179.618 130.537 181.248 131.592 181.517C133.385 181.972 135.083 182.561 136.745 183.379C137.717 183.858 138.575 182.4 137.598 181.919C135.81 181.039 133.972 180.377 132.042 179.886ZM149.307 144.244C149.282 144.168 149.362 144.081 149.44 144.108C151.337 144.816 150.329 147.301 149.739 148.788L149.632 149.06C148.709 151.444 147.419 153.765 146.011 155.9C144.539 158.134 142.904 160.272 141.133 162.28C140.365 163.152 139.569 163.999 138.745 164.82L138.435 165.127C137.603 165.945 136.53 167.382 135.239 167.224C133.849 167.057 133.073 165.571 134.087 164.442C134.804 163.644 135.797 163.007 136.597 162.28C137.392 161.562 138.161 160.82 138.911 160.057C140.445 158.491 141.898 156.836 143.227 155.092C144.512 153.406 145.742 151.673 146.86 149.872L147.083 149.511C147.934 148.109 149.899 146.049 149.307 144.244ZM82.1073 161.954C81.2068 161.339 80.3605 162.803 81.2542 163.414C82.8974 164.538 84.3431 165.899 86.1218 166.823C87.0741 167.318 87.921 165.9 87.0086 165.381L86.9749 165.363C85.1975 164.439 83.7497 163.077 82.1073 161.954Z" fill="black"/>
<path fill-rule="evenodd" clip-rule="evenodd" d="M160.713 72.2152C148.036 63.8028 122.639 64.7164 108.684 69.8704C95.0671 74.1995 90.2998 86.2623 88.0389 99.2948C85.2908 113.942 85.6602 135.057 105.421 134.801C108.2 136.148 111.277 136.732 114.152 137.848C118.086 139.211 121.944 140.794 125.936 141.989C133.799 144.527 142.549 144.307 150.009 140.592C154.13 138.596 155.835 135.488 158.53 132.176C166.371 122.542 170.316 108.754 169.963 96.5033C169.343 87.8771 167.919 77.8912 160.713 72.2152Z" fill="#D08B5B"/>
<path fill-rule="evenodd" clip-rule="evenodd" d="M176.755 107.724C175.454 99.6295 175.094 91.3974 173.391 83.3661C171.788 75.8084 168.793 68.6667 163.558 62.9052C158.873 57.7504 152.816 53.9651 146.315 51.5663C133.648 46.8933 119.081 47.9501 106.828 53.4053C95.359 58.5092 86.2115 67.9523 80.8798 79.2849C77.416 86.6483 75.6746 94.4767 74.9009 102.557C74.0428 111.533 73.9501 120.602 73.6001 129.61C73.5579 130.721 73.4968 131.833 73.482 132.945C73.4652 134.162 73.9564 135.229 74.3569 136.362C74.3843 136.442 74.4244 136.519 74.4729 136.591C74.1714 136.628 73.8699 136.673 73.5685 136.721C73.2312 136.774 73.2459 137.324 73.5685 137.389C76.2986 137.947 79.1047 138.025 81.8812 138.163C84.7589 138.307 87.6408 138.385 90.5228 138.482C93.333 138.577 96.1433 138.672 98.9535 138.767C100.429 138.818 101.905 138.869 103.381 138.917C104.083 138.941 104.785 138.966 105.489 138.989C105.839 139.002 106.191 139.012 106.541 139.025C106.826 139.034 107.289 139.215 107.319 139.006C107.372 139.038 107.429 139.065 107.49 139.084C107.557 139.12 107.623 139.163 107.686 139.209C108.029 139.446 108.55 139.416 108.898 139.209C108.93 139.19 108.963 139.169 108.997 139.148C109.256 138.993 109.438 138.769 109.539 138.516C110.981 140.262 113.534 138.3 112.058 136.453C111.266 135.46 103.381 111.106 106.644 92.5535L119.732 90.8162C122.125 90.5731 126.578 90.0891 126.578 90.0891C126.578 90.0891 127.667 86.5236 127.979 85.376C128.003 85.2915 128.026 85.2048 128.051 85.1203C128.363 85.6721 128.677 86.2214 128.994 86.7709L130.608 90.0616C130.608 90.0616 154.444 89.6622 160.288 89.7002C160.387 89.7002 160.857 96.8227 160.644 99.9592C160.214 106.257 159.757 112.551 159.12 118.833C158.714 122.855 157.734 126.799 156.275 130.506C153.97 136.362 147.278 141.928 140.753 141.928C136.692 141.928 127.514 138.63 126.177 137.964C124.84 137.298 124.044 139.116 125.262 139.843C127.729 141.316 134.531 144.44 140.753 144.44C149.79 144.44 156.611 135.844 157.448 134.612C165.677 134.16 174.093 134.369 182.31 135.187C183 135.255 183.594 134.422 183.373 133.786C180.421 125.317 178.176 116.582 176.755 107.724Z" fill="black"/>
<path fill-rule="evenodd" clip-rule="evenodd" d="M153.707 116.647C154.02 116.239 154.78 118.017 154.935 118.234L154.943 118.244C155.62 119.064 156.172 120.318 156.251 121.37C156.253 121.402 156.253 121.432 156.253 121.463C157.338 121.314 158.423 121.162 159.508 120.996C159.928 120.68 160.515 120.778 161.083 121.065C162.35 121.705 161.733 123.737 160.368 123.705C156.677 123.617 152.908 124.091 149.248 124.518C147.365 124.737 145.486 124.97 143.613 125.268C141.864 125.546 140.075 125.939 138.305 126.015C138.208 126.019 138.168 125.875 138.255 125.83C139.816 125.028 141.599 124.543 143.284 124.073C145.108 123.564 146.946 123.087 148.796 122.684C150.456 122.323 152.125 122.052 153.798 121.809C153.785 121.776 153.773 121.742 153.762 121.707C153.55 120.995 153.555 120.178 153.51 119.428L153.484 119.03C153.443 118.343 153.401 117.047 153.707 116.647ZM148.271 107.866C149.866 108.836 152.297 111.099 150.581 113.504C148.56 115.624 145.652 113.193 144.219 112.093C142.889 111.241 141.396 113.433 142.629 114.428C152.986 122.099 157.19 108.12 149.078 106.726C148.184 106.572 147.853 107.566 148.271 107.866ZM122.62 99.3277C125.275 98.9226 127.994 98.8761 130.676 99.0101C132.071 99.0796 133.464 99.1831 134.853 99.3209C135.579 99.393 136.304 99.4738 137.027 99.5644C137.546 99.6295 138.347 99.9267 138.84 99.7914C140.347 99.3786 141.777 100.805 141.362 102.314C140.95 103.812 139.183 104.207 138.047 103.307C137.508 103.117 136.966 102.937 136.421 102.769C136.38 102.941 136.319 103.111 136.232 103.275C136.136 103.459 136.043 103.644 135.954 103.832C135.973 103.802 135.827 104.152 135.823 104.162L135.707 104.467C135.503 104.993 135.275 105.492 134.723 105.764C133.963 106.139 132.772 105.932 132.465 105.039C131.985 104.099 132.303 102.786 132.577 101.813L132.599 101.738C129.286 100.95 125.918 100.359 122.62 99.557C122.512 99.5308 122.501 99.3459 122.62 99.3277ZM162.02 95.7926C162.192 95.4474 162.583 95.4459 162.816 95.7702C163.333 96.4899 162.175 97.5208 161.692 97.9997L161.643 98.0481C160.557 99.1505 159.233 100.039 157.919 100.842C157.644 101.011 157.364 101.171 157.083 101.33C157.135 101.434 157.183 101.541 157.221 101.65C157.42 102.212 157.424 102.883 157.245 103.45C156.872 104.634 155.879 105.58 154.592 105.579C153.913 105.578 153.109 104.936 153.201 104.187C153.233 103.921 153.26 103.637 153.301 103.354C152.395 103.655 151.284 103.302 150.708 102.555C149.907 101.517 150.127 99.816 151.353 99.1714C152.255 98.6976 153.25 98.5779 154.227 98.3275C155.196 98.0794 156.159 97.7943 157.108 97.4758C158.043 97.1617 158.974 96.8252 159.904 96.4928C160.364 96.3281 160.819 96.1764 161.287 96.0369C161.497 95.9747 161.798 95.8114 162.02 95.7926Z" fill="black"/>
</svg>
