<svg width="240" height="324" viewBox="0 0 240 324" fill="none" xmlns="http://www.w3.org/2000/svg">
<path fill-rule="evenodd" clip-rule="evenodd" d="M154.008 150.111C150.095 147.262 148.155 142.597 146.695 141.803C145.62 141.219 145.64 137.188 143.487 135.761C140.598 133.846 131.39 132.422 128.04 132.156C124.825 131.901 119.232 132.437 116.216 133.615C111.185 135.579 109.178 139.326 106.963 144.153C106.963 144.153 156.697 152.069 154.008 150.111Z" fill="#D08B5B"/>
<path fill-rule="evenodd" clip-rule="evenodd" d="M81.0305 153.44H160.544L188.066 177.934L200.282 280.885L182.907 286.297L75.5501 288.092L42.0216 278.609L39.9296 206.947L81.0305 153.44Z" fill="#78E185"/>
<path fill-rule="evenodd" clip-rule="evenodd" d="M189.101 262.182C188.548 261.905 187.97 261.589 187.338 261.567C186.251 261.529 186.25 259.838 187.338 259.876C188.286 259.909 189.12 260.305 189.955 260.722C190.929 261.208 190.072 262.666 189.101 262.182ZM187.338 214.59C188.079 214.59 188.826 214.684 189.396 215.203C189.734 215.511 189.707 216.086 189.396 216.398C189.062 216.731 188.538 216.705 188.2 216.398C188.31 216.498 188.201 216.399 188.161 216.377C188.152 216.372 188.147 216.368 188.144 216.366C188.136 216.364 188.127 216.362 188.113 216.358C188.025 216.336 187.938 216.314 187.848 216.298C187.847 216.303 187.66 216.286 187.616 216.284C187.523 216.281 187.43 216.28 187.338 216.28C186.879 216.28 186.493 215.894 186.493 215.435C186.493 214.979 186.881 214.589 187.338 214.59ZM179.391 233.555C179.149 234.617 177.52 234.165 177.761 233.106C178.112 231.566 178.048 229.988 177.761 228.442C177.563 227.377 179.192 226.924 179.391 227.993C179.735 229.847 179.812 231.707 179.391 233.555ZM177.256 172.79C175.997 172.491 174.752 172.455 173.465 172.455C172.376 172.455 172.377 170.764 173.465 170.764C174.901 170.765 176.303 170.826 177.705 171.16C178.765 171.411 178.313 173.041 177.256 172.79ZM173.038 213.974C172.308 213.609 171.578 213.243 170.848 212.878C169.874 212.391 170.731 210.933 171.701 211.418L173.891 212.514C174.865 213.001 174.009 214.459 173.038 213.974ZM172.734 247.27C171.808 248.606 170.506 249.435 168.944 249.85C167.89 250.129 167.444 248.498 168.494 248.219C169.612 247.923 170.605 247.384 171.275 246.417C171.891 245.528 173.356 246.374 172.734 247.27ZM166.894 187.74C166.644 187.272 166.267 187.074 165.798 187.064C164.711 187.039 164.711 185.348 165.798 185.373C166.865 185.397 167.844 185.933 168.354 186.887C168.867 187.847 167.407 188.7 166.894 187.74ZM156.174 199.233C155.871 199.563 155.284 199.555 154.979 199.233C154.792 199.036 154.636 198.816 154.512 198.575C154.465 198.483 154.421 198.39 154.37 198.301C154.347 198.262 154.321 198.222 154.295 198.184C154.286 198.177 154.268 198.158 154.249 198.137C153.924 197.794 153.932 197.287 154.249 196.942C154.552 196.612 155.139 196.62 155.444 196.942C155.63 197.139 155.787 197.359 155.91 197.6C155.957 197.692 156.002 197.785 156.053 197.874C156.076 197.913 156.102 197.953 156.128 197.991C156.137 197.998 156.155 198.017 156.174 198.038C156.499 198.381 156.491 198.888 156.174 199.233ZM155.273 224.2C154.172 224.704 152.965 224.704 151.864 224.2C151.447 224.009 151.349 223.407 151.561 223.043C151.808 222.622 152.303 222.55 152.717 222.74C153.217 222.968 153.921 222.968 154.42 222.74C154.837 222.549 155.327 222.617 155.576 223.043C155.79 223.409 155.688 224.01 155.273 224.2ZM152.271 241.872C152.081 242.32 151.673 242.558 151.196 242.576C150.723 242.594 150.37 242.174 150.351 241.73C150.338 241.444 150.493 241.199 150.715 241.047C150.715 241.031 150.716 241.016 150.716 241C150.716 240.526 151.103 240.175 151.561 240.155C152.017 240.134 152.406 240.558 152.406 241C152.406 241.298 152.387 241.594 152.271 241.872ZM147.91 269.967C146.561 269.989 145.243 270.31 143.894 270.332C142.804 270.35 142.808 268.659 143.894 268.641C145.243 268.619 146.561 268.298 147.91 268.276C149 268.258 148.997 269.949 147.91 269.967ZM142.301 161.616C141.512 162.369 140.537 162.739 139.575 163.209C138.6 163.685 137.745 162.227 138.722 161.749C139.536 161.351 140.438 161.057 141.106 160.421C141.894 159.67 143.091 160.864 142.301 161.616ZM140.182 181.105C139.628 180.828 139.051 180.512 138.418 180.49C137.332 180.452 137.33 178.761 138.418 178.799C139.367 178.832 140.2 179.228 141.035 179.645C142.01 180.131 141.153 181.589 140.182 181.105ZM130.022 259.322C129.772 258.854 129.395 258.656 128.927 258.645C127.839 258.62 127.838 256.93 128.927 256.954C129.993 256.979 130.972 257.515 131.482 258.469C131.995 259.429 130.535 260.282 130.022 259.322ZM126.503 222.607C126.167 222.298 126.191 221.724 126.503 221.411C126.869 221.046 127.234 220.681 127.599 220.316C127.933 219.981 128.456 220.006 128.794 220.316C129.13 220.624 129.107 221.198 128.794 221.511C128.429 221.876 128.064 222.241 127.699 222.607C127.364 222.941 126.841 222.916 126.503 222.607ZM122.355 279.828C121.136 279.799 119.993 279.449 118.845 279.067C117.816 278.725 118.26 277.092 119.294 277.437C120.292 277.769 121.294 278.112 122.355 278.137C123.443 278.162 123.443 279.853 122.355 279.828ZM116.879 243.671C115.777 243.641 114.864 243.08 114.091 242.328C113.31 241.568 114.506 240.374 115.286 241.133C115.728 241.563 116.239 241.963 116.879 241.981C117.966 242.011 117.967 243.702 116.879 243.671ZM120.28 197.174C120.293 197.625 120.483 198.107 120.762 198.403C121.509 199.194 120.315 200.391 119.567 199.598C118.95 198.944 118.615 198.069 118.589 197.174C118.558 196.084 120.249 196.089 120.28 197.174ZM107.388 160.35C107.034 159.657 106.571 158.844 105.866 158.462C104.908 157.942 105.762 156.482 106.719 157.002C107.677 157.522 108.363 158.547 108.847 159.496C109.342 160.464 107.883 161.319 107.388 160.35ZM105.197 177.933C104.805 177.922 104.416 177.855 104.038 177.752C103.876 177.708 103.716 177.658 103.554 177.614C103.485 177.595 103.191 177.558 103.372 177.568C102.914 177.543 102.527 177.201 102.527 176.723C102.527 176.283 102.915 175.853 103.372 175.877C103.999 175.911 104.569 176.225 105.197 176.242C106.284 176.273 106.285 177.964 105.197 177.933ZM99.7209 204.959H97.8955C96.8063 204.959 96.8082 203.268 97.8955 203.268H99.7209C100.81 203.268 100.808 204.959 99.7209 204.959ZM97.5917 279.712C97.0382 279.989 96.3858 280.252 95.9375 280.675C95.147 281.423 93.9503 280.229 94.7424 279.48C95.3134 278.94 96.0436 278.6 96.7389 278.252C97.1485 278.047 97.6522 278.14 97.8951 278.555C98.1146 278.931 97.9999 279.508 97.5917 279.712ZM93.5132 258.349C93.4424 258.329 93.3677 258.315 93.296 258.306C93.0087 258.267 92.7081 258.28 92.4195 258.28C91.3302 258.279 91.3319 256.589 92.4195 256.589C93.2766 256.59 94.1686 256.602 94.8425 257.202C95.1846 257.507 95.1514 258.088 94.8425 258.397C94.5066 258.734 93.9879 258.701 93.6474 258.397C93.6833 258.43 93.5601 258.362 93.5132 258.349ZM92.4199 229.617C92.6654 229.11 92.6692 228.78 92.6696 228.217C92.6705 227.128 94.3606 227.129 94.3598 228.217C94.3593 229.035 94.2379 229.73 93.8793 230.47C93.6793 230.883 93.0936 230.99 92.7233 230.774C92.3079 230.531 92.2211 230.027 92.4199 229.617ZM87.5331 189.955C86.5528 190.289 85.6777 190.761 84.8145 191.331C83.9033 191.932 83.0576 190.467 83.9614 189.871C84.9465 189.22 85.9655 188.705 87.0837 188.324C88.1177 187.973 88.5573 189.607 87.5331 189.955ZM81.8324 161.499C81.1042 161.519 80.3525 161.798 79.7035 162.114C78.7281 162.588 77.8722 161.129 78.8506 160.654C79.7777 160.203 80.792 159.837 81.8324 159.808C82.9224 159.777 82.9177 161.468 81.8324 161.499ZM79.277 237.463C78.9905 237.476 78.7456 237.321 78.5939 237.098C78.5781 237.098 78.5624 237.098 78.5468 237.098C78.0732 237.097 77.7224 236.71 77.7017 236.252C77.6812 235.796 78.1048 235.407 78.5468 235.407C78.8451 235.407 79.1411 235.425 79.4183 235.542C79.866 235.731 80.1039 236.14 80.122 236.617C80.14 237.091 79.7204 237.443 79.277 237.463ZM75.1207 178.999C74.0827 179.338 73.642 177.705 74.6713 177.368C75.8796 176.973 77.1142 176.667 78.3222 176.272C79.3602 175.933 79.8009 177.567 78.7714 177.903C77.5636 178.298 76.3287 178.604 75.1207 178.999ZM71.3303 210.912C71.0084 211.95 69.3776 211.504 69.7004 210.463C70.0122 209.457 70.0346 208.445 70.0353 207.4C70.0359 206.311 71.726 206.313 71.7254 207.4C71.7248 208.589 71.6848 209.768 71.3303 210.912ZM60.0303 249.136C59.9688 249.557 59.635 249.86 59.1981 249.88C58.7534 249.9 58.337 249.477 58.353 249.035C58.3841 248.184 59.0777 247.49 59.9282 247.459C60.4015 247.441 60.7534 247.86 60.7733 248.304C60.7927 248.736 60.4323 249.073 60.0303 249.136ZM54.3117 200.546C53.4186 200.844 52.4643 201.128 51.7642 201.79C50.973 202.537 49.7764 201.343 50.5691 200.594C51.4923 199.722 52.6798 199.311 53.8625 198.916C54.8981 198.57 55.3382 200.203 54.3117 200.546ZM50.436 233.392C50.1905 233.812 49.6934 233.888 49.2799 233.695C48.7255 233.437 48.1135 233.446 47.5158 233.445C46.4267 233.445 46.4284 231.754 47.5158 231.755C48.4378 231.755 49.2884 231.842 50.133 232.235C50.5486 232.429 50.6498 233.026 50.436 233.392ZM48.246 273.254C47.7727 273.271 47.4208 272.852 47.4009 272.408C47.3815 271.977 47.7417 271.639 48.1441 271.576C48.2054 271.155 48.5394 270.852 48.9761 270.832C49.421 270.812 49.8374 271.235 49.8212 271.678C49.7901 272.529 49.097 273.222 48.246 273.254ZM202.223 279.647C201.936 278.613 201.279 277.778 200.783 276.848C200.616 276.535 200.558 276.34 200.468 276.111C200.346 276.356 200.108 276.54 199.75 276.541C199.064 276.541 198.261 276.497 197.621 276.79C197.204 276.981 196.714 276.913 196.465 276.487C196.251 276.121 196.353 275.521 196.768 275.33C197.712 274.898 198.726 274.85 199.75 274.85C200.003 274.85 200.194 274.943 200.329 275.083C200.721 269.723 200.711 264.359 200.341 258.996C199.946 253.264 199.037 247.646 198.087 241.988C197.626 239.245 197.028 236.474 197.145 233.68C197.261 230.905 198.45 228.318 197.607 225.535C197.269 224.419 196.69 223.396 196.314 222.292C195.911 221.105 195.947 219.932 196.131 218.702C196.509 216.197 197.136 213.722 196.132 211.277C195.689 210.193 194.97 209.225 194.624 208.105C194.193 206.712 194.252 205.171 194.181 203.727C194.035 200.815 193.997 197.884 193.756 194.978C193.648 193.676 193.414 192.441 192.879 191.247C192.366 190.097 191.603 189.051 191.263 187.832C190.925 186.631 190.895 185.365 190.714 184.137C190.524 182.84 190.226 181.561 189.824 180.314C188.273 175.487 185.432 171.15 182.075 167.39C178.507 163.393 174.241 160.384 169.714 157.579C167.333 156.104 164.952 154.63 162.573 153.155C162.523 153.431 162.346 153.686 162.007 153.799C161.114 154.097 160.16 154.381 159.46 155.042C158.669 155.789 157.472 154.595 158.265 153.847C159.092 153.066 160.131 152.655 161.188 152.293C160.104 151.61 159.009 150.902 157.785 150.507C156.714 150.161 155.134 150.463 154.266 149.677C153.583 149.057 153.368 147.91 153.106 147.069C152.778 146.025 152.495 144.923 152.079 143.909C151.796 143.216 151.384 142.55 150.864 142.013C150.636 141.134 150.218 140.331 149.478 139.843C147.543 138.562 145.166 139.834 144.315 141.66C143.612 141.658 142.87 141.812 142.185 141.855C140.778 141.943 139.369 141.984 137.96 141.979C135.203 141.971 132.444 141.791 129.71 141.426C124.821 140.77 120.078 139.45 115.272 138.42C115.245 138.357 115.213 138.293 115.175 138.23C114.14 136.493 111.56 136.786 109.935 137.444C109.238 137.725 108.528 138.08 108.129 138.739C107.707 139.025 107.341 139.371 107.098 139.737C106.595 140.491 106.207 142.013 105.186 142.14C104.514 142.222 103.832 142.094 103.15 142.191C102.296 142.309 101.531 142.609 100.743 142.952C94.7432 145.558 88.5404 148.455 82.0289 149.465C80.5017 149.702 78.9467 149.947 77.62 150.803C76.5425 151.499 75.7099 152.454 74.8207 153.361C73.9545 154.244 73.2404 154.635 72.0045 154.794C70.5045 154.986 69.2052 155.4 68.1087 156.491C67.1982 157.397 66.6045 158.556 65.8904 159.608C65.1634 160.682 64.0967 161.286 62.9897 161.91C60.3721 163.385 57.9341 165.167 55.8108 167.303C51.3383 171.809 48.6298 177.6 45.9003 183.243C42.9489 189.347 40.1897 195.525 38.2756 202.043C36.3996 208.443 35.2841 215.026 34.7686 221.671C34.2256 228.644 34.1496 235.643 33.6974 242.62C33.4714 246.105 33.3003 249.595 33.127 253.082C32.958 256.527 32.7108 259.978 32.7508 263.428C32.827 270.096 34.1599 276.785 36.4904 283.028C37.0714 284.582 37.7155 286.114 38.4022 287.623C39.0045 288.948 41.0643 288.8 41.7108 287.623C41.8587 287.352 41.9749 287.073 42.0721 286.79C43.7622 286.805 45.4693 286.674 47.1489 286.83C50.1151 287.107 53.0874 287.262 56.062 287.445C61.9482 287.811 67.8446 288.054 73.7327 288.39C74.3039 288.423 74.8752 288.455 75.4463 288.49C71.2503 275.497 71.7945 261.451 71.1305 247.939C71.077 246.85 72.7676 246.856 72.8206 247.939C73.4874 261.509 72.9197 275.591 77.264 288.604C78.9495 288.719 80.6327 288.858 82.3101 289.062C83.6662 289.225 85.0291 289.417 86.3982 289.35C87.951 289.276 89.4679 288.921 90.9827 288.612C93.7355 288.052 96.3869 288.306 99.1503 288.65C102.106 289.02 105.072 289.225 108.047 289.354C119.958 289.876 131.95 290.352 143.857 289.555C146.738 289.362 149.614 289.092 152.476 288.724C155.426 288.346 158.343 287.71 161.29 287.348C164.195 286.993 166.866 287.967 169.737 288.147C172.665 288.331 175.671 287.72 178.572 287.369C179.518 287.255 180.466 287.143 181.413 287.032C180.193 278.668 179.5 270.241 178.826 261.817C178.739 260.731 180.43 260.74 180.516 261.817C181.184 270.175 181.863 278.54 183.081 286.838C188.103 286.253 193.131 285.662 198.102 284.751C199.517 284.493 200.924 284.072 201.771 282.808C202.399 281.872 202.526 280.725 202.223 279.647Z" fill="black"/>
<path fill-rule="evenodd" clip-rule="evenodd" d="M176.386 92.0542C174.457 81.5081 169.7 71.4734 162.394 63.6219C161.551 62.6896 160.793 61.2191 159.507 60.984C158.216 58.3462 155.754 56.4814 153.787 54.3512C149.492 50.0585 145.383 45.2615 139.844 42.5507C114.151 31.9574 89.4266 62.1627 84.1799 84.8789C78.9686 103.147 84.6603 128.348 107.244 129.088C110.439 133.324 114.848 136.256 119.376 138.875C125.561 142.845 132.307 144.456 139.462 142.247C146.588 144.114 153.974 138.124 158.256 132.87C161.641 128.801 163.961 123.835 167.057 119.623C170.712 119.531 173.87 116.429 174.36 112.792C177.774 106.503 177.618 98.9666 176.386 92.0542Z" fill="#D08B5B"/>
<path fill-rule="evenodd" clip-rule="evenodd" d="M84.1799 84.8789C89.4266 62.1627 114.151 31.9574 139.844 42.5507C145.383 45.2615 149.492 50.0585 153.787 54.3512C155.754 56.4814 158.216 58.3462 159.507 60.984C160.793 61.2191 161.551 62.6896 162.394 63.6219C169.7 71.4734 174.457 81.5081 176.386 92.0542C177.618 98.9666 177.774 106.503 174.36 112.792C173.87 116.429 170.712 119.531 167.057 119.623C166.387 120.534 165.753 121.481 165.138 122.446L164.992 122.496L164.974 121.427C164.666 104.105 163.671 93.648 161.989 90.0573C160.29 86.4299 152.978 79.7881 140.053 70.132L139.66 69.8385L136.625 67.3266L134.271 69.9916C125.413 80.0087 118.479 87.7384 113.469 93.1808C108.078 99.0372 103.517 107.947 99.7863 119.909L99.6735 120.273L106.266 129.04C84.4965 127.614 79.0446 102.881 84.1799 84.8789Z" fill="#9DDADB"/>
<path fill-rule="evenodd" clip-rule="evenodd" d="M120.422 38.9614C125.097 37.8664 129.999 38.0934 134.63 39.2968C143.808 41.6823 151.36 47.8857 157.622 54.8021C163.729 61.5484 168.766 69.2822 172.445 77.6134L172.631 78.0372C175.233 83.976 177.494 90.1489 177.591 96.6882C177.675 102.316 177.108 108.179 175.294 113.533C173.678 118.301 170.706 123.107 165.593 124.25C162.645 131.763 156.877 138.269 149.611 141.75C145.104 143.91 140.155 144.874 135.173 144.394C130.089 143.906 125.341 141.457 121.368 138.334C121.259 138.249 121.399 138.083 121.512 138.147C126.295 140.911 131.952 141.899 137.431 141.717C146.435 141.419 154.689 136.547 159.432 128.889C160.612 126.983 161.664 124.973 162.503 122.881C162.454 122.709 162.425 122.535 162.425 122.365C162.425 121.644 162.766 121.094 163.275 120.738C163.511 119.999 163.72 119.251 163.894 118.495C164.289 116.783 164.51 115.046 164.643 113.295C164.751 111.872 164.691 110.363 164.834 108.904C164.782 107.735 164.71 106.567 164.604 105.402C164.264 101.647 163.576 97.9007 162.252 94.3614C160.91 90.7765 158.791 87.6151 156.117 84.894C150.382 79.0578 143.242 74.7965 137.666 68.8011L137.374 68.4839L137.354 68.4776C136.662 69.1887 135.97 69.8999 135.277 70.6097L132.109 73.849C125.643 80.4677 119.23 87.1506 113.605 94.5157C110.366 98.7569 107.456 103.203 104.949 107.917C103.761 110.15 102.685 112.438 101.712 114.773L101.329 115.702C100.873 116.814 100.381 118.059 100.107 119.315C100.921 120.125 101.516 121.314 102.174 122.232C102.921 123.274 103.782 124.266 104.668 125.191C105.564 126.128 106.548 127.026 107.592 127.796L107.717 127.886C108.915 128.739 110.29 129.327 110.47 130.95C110.548 131.654 109.92 132.221 109.338 132.44C107.746 133.04 106.096 131.317 105.035 130.326C104.373 129.708 103.765 129.042 103.2 128.339C102.651 128.418 102.098 128.457 101.551 128.392C100.704 128.291 99.8642 128.143 99.0384 127.925C92.1892 126.122 87.1196 120.422 84.3844 114.074C80.7123 105.551 80.7976 95.7263 82.3242 86.7135C85.1136 70.243 94.1414 54.8613 107.773 45.1233C111.591 42.3961 115.825 40.038 120.422 38.9614ZM127.801 41.1648C118.995 40.6996 110.966 45.2521 104.524 50.919C92.7953 61.2371 85.5709 76.3444 84.1175 91.8582C83.3452 100.101 83.9231 108.985 88.2104 116.268C89.8737 119.093 92.0161 121.555 94.5449 123.631C96.9278 125.588 99.6441 126.715 102.548 127.483C102.416 127.3 102.285 127.116 102.158 126.929C101.483 125.938 100.946 124.884 100.497 123.78C100.457 123.82 100.383 123.828 100.339 123.767C98.5056 121.246 99.0793 118.238 99.9529 115.465C100.869 112.557 102.03 109.728 103.355 106.983C108.185 96.98 115.368 88.2659 122.825 80.1342C126.633 75.9813 130.568 71.9488 134.488 67.9025C136.446 65.882 138.398 63.8555 140.326 61.8059C141.285 60.7855 142.239 59.7598 143.184 58.7258C144.118 57.7035 144.959 56.6208 146.122 55.8551C147.049 55.2449 147.975 56.4111 147.542 57.2785C146.875 58.6126 145.729 59.6703 144.714 60.7551L144.61 60.8675C143.621 61.9377 142.622 62.9993 141.618 64.0553C140.463 65.2697 139.299 66.4758 138.132 67.6789C139.128 67.5632 140.135 67.4967 141.125 67.346C142.469 67.1414 143.795 66.84 145.115 66.5122C146.505 66.1671 147.877 65.7264 149.202 65.1786C150.446 64.6642 151.623 63.8399 152.992 63.7592C154.151 63.6907 154.513 65.1293 153.871 65.8864C152.986 66.9296 151.395 67.3402 150.101 67.7276L149.918 67.7828C148.487 68.2208 147.022 68.5494 145.542 68.769C143.594 69.0581 141.343 69.1904 139.259 68.8945C143.42 71.3407 147.25 74.3723 151.069 77.3288L151.742 77.8497C155.473 80.7274 159.115 83.8296 161.775 87.7669C164.258 91.4425 165.757 95.7217 166.599 100.058C167.014 102.197 167.288 104.358 167.471 106.529C168.156 108.454 168.046 110.742 167.874 112.859L167.812 113.589L167.817 113.804C167.843 115.127 168.373 118.075 167.124 119.075C167.102 119.181 167.082 119.288 167.06 119.395C167.216 119.299 167.369 119.2 167.522 119.098C167.584 119.056 167.645 119.009 167.706 118.964L167.879 118.822C167.886 118.816 167.891 118.811 167.896 118.807C168.284 118.466 168.654 118.11 168.999 117.724C169.636 117.012 170.242 116.107 170.816 115.065C172.077 112.774 172.882 110.283 173.505 107.708C174.644 103.001 175.114 97.944 174.595 93.1159C174.522 92.4419 174.373 91.5969 174.142 90.73C173.594 88.6714 172.964 86.6347 172.258 84.6253C170.845 80.6057 169.114 76.7061 167.095 72.9558C162.996 65.3388 157.721 58.2966 151.401 52.387C145.001 46.4022 136.7 41.6348 127.801 41.1648ZM115.382 65.5017C115.7 65.3073 116.026 65.6849 115.869 65.9897C115.106 67.4647 113.824 68.71 112.759 69.9739C111.656 71.2825 110.561 72.5984 109.469 73.9162C107.246 76.5993 105.075 79.3316 102.99 82.1248L102.44 82.8637C100.607 85.3303 98.7965 87.8359 97.1943 90.4567C96.356 91.8277 95.6173 93.2456 94.9465 94.7059C94.3079 96.0959 94.0134 97.7738 93.246 99.0795C93.1977 99.162 93.048 99.1552 93.0295 99.051C92.779 97.6451 93.3978 95.9518 93.8399 94.6353C94.3654 93.0696 95.1134 91.5783 95.9141 90.138C97.5843 87.1334 99.5854 84.3172 101.596 81.5349C103.638 78.7098 105.757 75.9424 107.981 73.2587C109.026 71.9981 110.094 70.7627 111.194 69.5517L111.608 69.0987C112.76 67.8458 113.921 66.3957 115.382 65.5017ZM110.043 61.1338C110.565 60.746 111.011 61.5386 110.678 61.9587C108.688 64.4683 106.424 66.7232 104.246 69.0637C102.155 71.3114 100.156 73.6432 98.2693 76.0668C94.4233 81.0088 91.3446 86.4316 88.7372 92.115C88.6881 92.2222 88.5333 92.1423 88.5565 92.0387C89.9376 85.8912 93.1665 80.3078 96.843 75.2631L96.9829 75.0717C100.702 69.9987 104.976 64.899 110.043 61.1338Z" fill="black"/>
<path fill-rule="evenodd" clip-rule="evenodd" d="M149.372 128.003C148.022 128.014 146.504 127.507 145.489 127.11L145.224 127.005C144.346 126.653 143.443 126.249 142.77 125.571C142.555 125.35 142.326 125.101 142.21 124.839C142.141 124.685 142.113 124.526 142.179 124.368C142.422 124.344 142.653 124.313 142.871 124.273C142.975 124.254 143.075 124.234 143.151 124.234C143.433 124.232 143.712 124.268 143.99 124.303C144.03 124.308 144.07 124.313 144.111 124.318C144.327 124.345 144.543 124.374 144.758 124.403C145.384 124.487 146.007 124.57 146.642 124.601C147.101 124.623 147.582 124.597 148.067 124.57C149.325 124.502 150.626 124.408 151.595 125.29C151.849 125.521 151.955 125.812 151.955 126.108C151.955 126.468 151.804 126.835 151.573 127.122C151.05 127.773 150.244 127.996 149.372 128.003ZM156.736 116.649C156.148 117.531 155.17 118.098 153.828 118.036C151.163 117.914 147.982 116.908 145.749 115.453C145.168 115.075 144.791 114.469 144.723 113.82L144.603 112.666L143.953 113.627C143.885 113.727 143.817 113.827 143.749 113.927C143.561 114.202 143.373 114.477 143.195 114.759C142.514 115.842 141.89 116.935 141.323 118.082C140.921 118.894 140.628 119.802 140.334 120.718C139.837 122.265 139.357 123.787 138.296 124.874C138.135 125.038 137.888 125.097 137.662 125.068C137.463 125.043 137.268 124.945 137.173 124.75C135.905 122.17 137.61 119.061 138.994 116.9L139.141 116.674C140.424 114.721 142.519 112.136 144.919 111.784L145.194 112.223L145.593 111.956C146.247 111.52 147.109 111.54 147.864 111.881L148.619 112.222C150.025 112.853 151.411 113.436 152.932 113.755C153.043 113.778 153.154 113.799 153.264 113.82C153.369 113.839 153.474 113.856 153.579 113.873C153.557 113.769 153.532 113.666 153.508 113.563C153.482 113.454 153.456 113.345 153.428 113.236C153.4 113.124 153.369 113.012 153.338 112.901C153.216 112.457 153.079 112.017 152.916 111.586C152.302 109.968 151.321 108.454 150.367 107.01L150.255 106.84C150.118 106.633 149.969 106.417 149.814 106.194C149.07 105.122 148.245 103.959 148.186 102.792C149.174 102.854 150 103.468 150.727 104.002C151.725 104.735 152.65 105.573 153.49 106.483C155.117 108.249 156.578 110.507 157.219 112.841C157.585 114.178 157.424 115.616 156.736 116.649ZM130.694 103.334L130.694 103.286C130.697 101.938 131.481 98.8613 133.421 98.8613C134.632 98.8613 135.368 100.956 135.495 103.114L135.5 103.202C135.556 104.545 135.188 107.478 133.421 107.478C131.635 107.478 130.712 104.7 130.694 103.334ZM159.248 102.911L159.248 102.863C159.245 101.516 158.46 98.4386 156.521 98.4386C155.34 98.4386 154.611 100.429 154.457 102.53L154.446 102.692C154.37 103.989 154.714 107.056 156.521 107.056C158.307 107.056 159.229 104.277 159.248 102.911ZM137.226 94.2128C136.969 94.243 136.713 94.2824 136.457 94.3231C135.711 94.4419 134.97 94.5846 134.233 94.7509C132.834 95.0669 131.446 95.4658 130.085 95.9167C128.811 96.3388 127.556 96.8157 126.303 97.2927C126.236 97.3181 126.169 97.3436 126.102 97.369C125.659 97.5374 125.218 97.7261 124.775 97.9154C124.102 98.2035 123.425 98.4935 122.735 98.7121C124.554 96.1958 127.357 94.3313 130.054 92.9971C131.593 92.2358 133.226 91.622 134.868 91.119L135.783 90.844C137.13 90.4466 138.602 90.0794 139.867 90.8719C140.368 91.1854 140.687 91.6727 140.788 92.1995C140.886 92.7161 140.774 93.27 140.417 93.7323C140.106 94.1349 139.719 94.3643 139.307 94.4429C138.852 94.5296 138.37 94.4344 137.932 94.2C137.58 94.1738 137.477 94.1832 137.373 94.1948L137.226 94.2128ZM157.486 94.4688C156.584 94.2728 155.692 94.1941 154.767 94.2223C154.349 94.2349 153.944 94.2995 153.541 94.3646C152.914 94.4656 152.29 94.5699 151.615 94.4473C151.262 94.3833 150.962 94.1772 150.731 93.9082C150.46 93.5936 150.281 93.1916 150.223 92.8094C150.164 92.4146 150.223 92.0692 150.369 91.7643C150.541 91.4041 150.832 91.1005 151.183 90.8346C152.246 90.0296 154.07 90.2232 155.324 90.3859C156.564 90.5472 157.796 90.9317 158.892 91.5424C159.973 92.1452 160.913 92.9573 161.646 93.9499C162.265 94.7865 162.556 95.7494 162.856 96.7299C161.442 95.5428 159.277 94.858 157.486 94.4688Z" fill="black"/>
<path fill-rule="evenodd" clip-rule="evenodd" d="M129.449 129.599C131.159 125.59 134.893 122.644 139.191 121.566C142.347 120.778 145.66 120.803 148.877 121.116C150.563 121.279 152.371 121.412 153.96 122.039C155.317 122.574 156.422 123.585 157.253 124.772C158.243 126.179 158.916 127.789 159.389 129.439C159.456 129.674 159.519 129.91 159.578 130.148C159.372 131.393 158.936 132.453 157.783 133.236C156.658 134 155.316 134.313 153.978 134.424C153.846 134.361 153.72 134.296 153.603 134.23C151.518 133.035 150.051 130.213 147.419 130.595C145.07 130.936 143.524 133.893 142.127 135.626C137.644 136.149 133.164 134.801 129.516 132.237C129.33 131.359 129.32 130.473 129.449 129.599ZM162.625 126.558C162.266 125.551 161.815 124.576 161.279 123.657C159.509 120.619 156.791 118.198 153.565 116.814C145.934 113.546 136.06 115.85 129.897 121.211C127.792 123.044 125.663 125.737 125.019 128.634C124.827 128.672 124.646 128.772 124.496 128.913C120.043 126.108 115.458 123.41 111.87 119.523C109.264 116.698 107.452 113.355 106.342 109.682C106.251 109.38 105.764 109.424 105.779 109.759C105.783 109.837 105.787 109.915 105.792 109.993C105.745 109.849 105.526 109.923 105.509 110.063C104.912 114.525 104.165 119.256 104.853 123.742C105.264 126.418 106.479 128.377 108.104 130.493C109.845 132.761 111.815 134.87 113.83 136.893C115.109 138.177 116.444 139.658 118.01 140.6C119.831 141.694 121.896 142.525 123.839 143.369C125.816 144.231 127.823 145.026 129.867 145.716C133.954 147.1 138.178 148.056 142.476 148.475C145.917 148.809 149.85 149.173 153.148 147.878C155.675 146.886 157.715 145.092 159.334 142.934C161.095 140.583 162.488 137.905 163.258 135.082C164.058 132.149 162.794 127.03 162.625 126.558Z" fill="black"/>
<path fill-rule="evenodd" clip-rule="evenodd" d="M159.889 92.1489C164.848 92.1489 167.678 93.2157 168.715 93.2988L168.746 93.3011C169.177 93.3287 169.564 93.3647 169.97 93.5218C171.463 94.0969 171.706 95.6631 170.835 96.6502C170.774 98.6926 171.042 101.079 170.582 103.128C170.013 111.766 165.953 113.224 163.644 113.756C162.486 114.023 161.112 114.129 159.881 113.847C157.781 113.769 155.705 113.111 153.929 111.966C151.455 110.37 149.618 107.917 149.021 105.005C148.739 103.618 148.607 102.173 148.761 100.762L148.783 100.568C147.979 100.183 147.048 100.11 146.087 100.076C145.628 100.06 145.176 100.046 144.737 100.065C144.307 100.113 143.883 100.177 143.457 100.264C142.992 100.404 142.554 100.636 142.148 101.002L142.12 101.538C142.044 102.875 141.869 104.216 141.598 105.527C141.198 107.463 140.556 109.311 139.188 110.684C138.725 111.376 138.152 111.994 137.456 112.528C134.929 114.475 131.496 115.189 128.345 114.92C121.949 114.374 118.252 109.294 117.4 107.123L117.349 106.992C116.733 105.377 116.243 103.283 114.298 102.936L113.884 102.862C112.996 102.695 112.177 102.463 111.657 101.597C111.429 101.219 111.312 100.796 111.283 100.364C110.979 100.388 110.676 100.41 110.374 100.432C107.964 100.942 93.5071 101.374 92.3532 101.374C92.3532 101.374 90.1351 102.308 89.1986 101.584C88.5495 101.081 88.3359 100.411 88.6933 99.6508C89.2324 98.5077 91.7198 97.8201 92.8243 97.6023C92.8243 97.6023 110.648 97.7504 111.931 97.5071C112.724 96.6884 114.144 96.8004 115.33 96.671C116.313 95.9704 117.686 95.5012 118.772 95.1871C118.993 95.1033 119.212 95.0222 119.425 94.9458C121.414 94.237 123.482 93.8616 125.582 93.6599C127.747 93.4541 129.919 93.5473 132.071 93.8422C132.978 93.9653 133.877 94.1245 134.769 94.3327C136.366 94.5434 137.955 94.8904 139.553 95.3021L139.873 95.3853C141.556 95.8267 143.285 96.2085 145.028 95.9093C146.446 95.6673 147.81 95.1212 149.118 94.5307L149.288 94.4534C152.163 93.14 156.654 92.1489 159.889 92.1489ZM134.596 96.9513C133.535 96.7179 133.082 98.3543 134.146 98.5884C134.9 98.7542 135.539 99.1344 135.97 99.7785L136.016 99.8486C136.595 100.77 138.059 99.9194 137.476 98.9916C136.82 97.9475 135.8 97.2162 134.596 96.9513ZM165.67 95.9367C165.296 95.6731 164.73 95.8688 164.513 96.2412C164.274 96.6513 164.431 97.108 164.781 97.3763L164.817 97.4025C165.138 97.629 165.451 98.0351 165.49 98.4512L165.494 98.5033C165.536 99.5922 167.228 99.5977 167.185 98.5033C167.144 97.4326 166.524 96.5381 165.67 95.9367Z" fill="black"/>
</svg>
