<svg width="240" height="324" viewBox="0 0 240 324" fill="none" xmlns="http://www.w3.org/2000/svg">
<path fill-rule="evenodd" clip-rule="evenodd" d="M192.796 271.458C192.283 266.696 191.967 261.9 191.786 257.114C191.605 252.334 191.842 247.495 191.946 242.713C192.158 232.984 192.502 223.233 191.728 213.52C190.996 204.34 189.316 195.224 186.666 186.403C185.375 182.108 184.015 177.639 181.891 173.67C179.757 169.679 176.375 167.022 172.661 164.584C168.706 161.99 164.783 159.346 160.844 156.727C157.537 154.529 151.586 151.97 148.873 149.032C146.018 145.939 145.481 138.274 143.58 134.611C141.729 131.043 136.488 128.716 132.452 128.716C125.772 128.716 120.711 128.374 115.219 134.555C112.478 137.64 114.659 140.758 111.786 143.718C109.145 146.439 102.392 149.236 98.988 150.815C94.9114 152.707 90.7319 154.377 86.4917 155.864C82.1664 157.382 77.7321 158.513 73.3826 159.945C69.2134 161.317 63.7694 166.975 60.5328 169.969C57.5237 172.753 56.7769 172.441 54.4893 175.822C49.4688 183.243 44.4427 190.749 40.4447 198.783C38.4533 202.786 36.525 206.996 35.8025 211.44C35.0318 216.181 35.7959 220.762 37.0458 225.352C38.3181 230.023 42.3581 234.47 43.6743 239.129C44.2809 241.277 42.1988 243.62 43.1565 245.643C43.6348 246.654 44.2371 247.553 44.9229 248.434C45.4513 249.112 47.5119 248.962 47.7785 249.792C48.0478 250.631 46.5571 252.371 46.5349 253.239C46.5034 254.481 46.454 255.724 46.4132 256.966L46.1723 264.309C46.0141 269.135 45.8559 273.96 45.6976 278.786C45.6459 280.361 45.5704 281.9 45.948 283.395C45.8117 283.268 45.6822 283.131 45.5639 282.976C45.2176 282.524 44.4833 282.907 44.7771 283.436C45.2677 284.319 45.9731 284.941 46.8019 285.387C47.7651 286.808 193.629 289.98 194.347 285.827C194.75 283.497 194.017 281.003 193.724 278.687C193.419 276.276 193.056 273.875 192.796 271.458Z" fill="#D08B5B"/>
<path fill-rule="evenodd" clip-rule="evenodd" d="M40.787 202.146L191.441 210.386C191.549 211.43 191.645 212.474 191.728 213.52C192.502 223.233 192.158 232.985 191.946 242.713C191.918 244.002 191.88 245.296 191.844 246.591L176.982 249.046L71.3288 251.586L44.9229 248.434L43.8269 246.533L43.0676 243.225C43.3935 241.866 44.0502 240.46 43.6743 239.13C43.5647 238.742 43.4363 238.355 43.2921 237.97L43.4284 235.315L40.787 202.146Z" fill="#FDEA6B"/>
<path fill-rule="evenodd" clip-rule="evenodd" d="M44.6257 211.449C44.9826 210.426 46.6148 210.869 46.2555 211.898C44.4081 217.191 45.7186 222.952 47.7157 228.005C48.1165 229.019 46.4813 229.454 46.086 228.454C43.9852 223.139 42.6855 217.008 44.6257 211.449ZM57.0122 241.685C62.222 242.418 67.4361 242.87 72.6819 243.236C72.9164 243.253 73.1192 243.217 73.2946 243.141C73.1382 245.544 73.0115 247.949 72.9122 250.354C71.4819 250.314 70.022 250.409 68.6044 250.371C66.7516 250.32 64.9009 250.227 63.0523 250.086C59.4734 249.815 55.9009 249.384 52.3622 248.788C51.0396 248.566 49.36 248.431 47.8537 247.991C46.4298 247.575 45.1622 246.886 44.4967 245.588C43.9305 244.489 43.8269 243.143 43.8269 241.928C43.8269 241.091 43.9706 240.241 44.0572 239.398C44.165 239.322 44.2622 239.231 44.3403 239.13C45.9122 239.626 47.5431 239.975 49.1403 240.313C51.741 240.867 54.3798 241.315 57.0122 241.685ZM54.0738 222.143C54.1026 223.758 54.5494 225.225 55.4188 226.585C56.0069 227.506 54.5435 228.353 53.9593 227.439C52.936 225.837 52.4175 224.04 52.3837 222.143C52.3643 221.052 54.0544 221.056 54.0738 222.143ZM187.622 239.765C188.327 239.805 189.037 239.829 189.745 239.867C190.369 240.401 191.233 240.674 192.022 240.504C192.049 240.573 192.074 240.649 192.097 240.738C192.236 241.281 192.306 241.864 192.386 242.418C192.466 242.963 192.528 243.513 192.57 244.062C192.591 244.339 192.724 244.965 192.555 245.206C192.403 245.423 192.067 245.404 191.835 245.432C191.209 245.499 190.576 245.531 189.946 245.584C188.757 245.687 187.567 245.791 186.38 245.895C185.216 245.996 183.938 245.965 182.799 246.271C182.604 243.986 182.427 241.702 182.262 239.415C184.026 239.675 185.871 239.668 187.622 239.765ZM39.7093 235.976C40.4192 237.348 41.0741 238.696 42.4326 239.52C42.61 239.626 42.8086 239.683 43.0115 239.698C42.8593 240.351 42.7643 241.019 42.6798 241.636C42.4938 242.995 42.4537 244.4 42.7938 245.74C43.1255 247.044 43.6748 248.209 44.7523 249.044C45.253 249.433 45.8002 249.729 46.3748 249.963C46.2777 250.236 46.2206 250.507 46.2502 250.805C46.1129 251.495 46.022 252.199 45.9227 252.873C45.7051 254.37 45.4875 255.868 45.3164 257.373C44.9741 260.366 44.7058 263.358 44.4798 266.362C44.2537 269.357 44.091 272.356 43.9558 275.357C43.8861 276.891 43.8248 278.426 43.7678 279.962C43.7107 281.541 43.4551 283.156 44.1523 284.621C44.7143 285.804 46.6136 285.736 47.1967 284.621C47.9361 283.202 47.7185 281.518 47.7375 279.962C47.7565 278.498 47.7819 277.031 47.8136 275.566C47.8769 272.567 47.9699 269.57 48.0438 266.571C48.1157 263.644 48.2044 260.719 48.2636 257.792C48.2931 256.259 48.2953 254.727 48.3037 253.195C48.3079 252.345 48.3438 251.439 48.2805 250.553C48.8086 250.677 49.341 250.783 49.8671 250.891C53.8833 251.715 57.9417 252.315 62.0255 252.687C64.0769 252.873 66.1347 253.004 68.1924 253.079C69.7051 253.133 71.2727 253.239 72.8086 253.182C72.6882 256.851 72.6333 260.522 72.6396 264.194C72.6438 266.842 72.6798 269.49 72.7453 272.138C72.7812 273.531 72.8107 274.924 72.853 276.316C72.872 276.942 72.872 277.574 72.9143 278.197C72.9269 278.392 72.9544 278.58 72.9903 278.766C72.8509 279.161 72.7347 279.552 72.6396 279.918C72.1748 281.693 72.1748 283.399 72.3819 285.208C72.5593 286.742 73.8502 288.165 75.5551 287.626C75.8319 287.539 76.1086 287.448 76.3833 287.355C78.8931 287.641 81.4178 287.706 83.9636 287.755C87.684 287.827 91.4065 287.85 95.1291 287.869C102.43 287.907 109.734 287.926 117.038 287.947C131.714 287.989 146.391 288.029 161.068 288.072C165.141 288.085 169.214 288.095 173.287 288.108C175.396 288.114 177.5 288.116 179.607 288.197C180.589 288.235 181.573 288.287 182.556 288.302C183.695 288.321 184.702 287.993 185.79 287.696C186.405 287.524 186.648 286.907 186.517 286.385C187.502 286.62 188.695 286.121 189.031 285.012C189.276 284.206 189.185 283.333 188.82 282.587V282.585C188.114 278.128 187.218 273.691 186.515 269.232C185.744 264.348 185.002 259.453 184.349 254.55C183.859 250.847 183.456 253.472 183.107 249.752C184.626 249.87 186.344 249.407 187.848 249.211C188.928 249.071 190.016 248.959 191.097 248.811C191.017 249.902 191.04 251.014 191.011 252.06C190.954 254.137 190.979 256.206 191.032 258.284C191.133 262.293 191.359 259.96 191.721 263.952C192.086 267.974 192.534 271.982 193.077 275.985C193.356 278.045 193.654 280.104 193.968 282.16C194.114 283.12 194.264 284.077 194.418 285.037C194.602 286.167 194.661 287.239 195.509 288.089C196.153 288.733 197.469 288.678 197.896 287.78C198.437 286.645 198.192 285.673 197.991 284.481C197.828 283.523 197.672 282.566 197.518 281.609C197.188 279.556 196.876 277.502 196.582 275.446C196.016 271.483 195.481 267.514 195.004 263.54C194.522 259.535 194.023 261.875 193.55 257.87C193.311 255.849 193.073 253.833 192.794 251.819C192.652 250.783 192.564 249.68 192.378 248.613C192.437 248.604 192.496 248.594 192.555 248.583C193.84 248.348 194.936 247.623 195.259 246.3C195.568 245.034 195.2 243.578 194.94 242.336C194.718 241.277 194.518 239.926 193.837 239.019C196.237 235.961 197.798 232.113 198.794 228.413C199.878 224.382 200.332 220.175 200.428 216.01C200.54 211.184 200.176 206.386 199.35 201.668C199.33 200.668 199.284 199.669 199.21 198.671C198.483 188.873 195.433 177.276 185.761 172.698C185.723 172.679 185.683 172.662 185.642 172.645C184.884 171.738 183.938 170.922 183.173 170.16C181.818 168.807 180.403 167.513 178.903 166.321C175.933 163.961 172.675 162.075 169.288 160.378C165.864 158.66 162.388 157.047 159.042 155.172C156.126 153.537 153.502 151.567 151.011 149.343C148.212 146.843 146.22 143.472 145.438 139.793C145.398 139.6 145.113 139.653 145.109 139.837C144.904 146.581 149.454 152.541 154.692 156.312C160.954 160.816 168.515 162.948 174.866 167.315C176.444 168.399 177.921 169.623 179.326 170.922C177.173 170.703 174.982 170.842 172.964 171.438C172.17 171.389 171.371 171.375 170.575 171.337C168.754 171.246 166.93 171.161 165.107 171.081C161.391 170.916 157.673 170.766 153.954 170.635C146.659 170.377 139.362 170.183 132.065 170.054C117.401 169.794 102.718 169.743 88.0558 170.168C84.0798 170.282 63.1727 169.49 61.2375 169.713C64.0833 167.249 67.2058 165.237 70.6389 163.582C74.934 161.517 79.3727 160.139 83.9593 158.88C93.4051 156.286 103.214 153.786 110.773 147.198C112.652 145.56 114.321 143.677 115.688 141.591C116.993 139.6 118.445 137.051 118.48 134.623C118.506 132.899 116.106 132.271 115.252 133.748C114.722 134.663 114.46 135.667 114.027 136.627C113.596 137.578 113.085 138.495 112.516 139.372C111.399 141.097 110.013 142.635 108.504 144.024C105.289 146.987 101.393 149.157 97.3622 150.8C88.21 154.526 78.2002 156.098 69.5276 161.01C65.7333 163.159 62.1016 166.125 59.822 169.908C59.4544 169.965 59.0889 170.033 58.7234 170.109C58.996 169.764 59.2706 169.42 59.5474 169.077C59.7291 168.853 59.4481 168.558 59.2262 168.756C54.9143 172.594 50.9424 176.739 47.3424 181.257C43.8988 185.582 40.6875 190.113 38.4143 195.177C34.3284 204.274 33.4284 214.678 35.5389 224.405C36.1136 227.055 36.9248 229.65 37.9579 232.159C38.4903 233.455 39.0671 234.731 39.7093 235.976Z" fill="black"/>
<path fill-rule="evenodd" clip-rule="evenodd" d="M132.683 46.2808C144.654 46.2808 159.647 59.9701 164.035 65.7955C167.724 70.6932 167.202 95.9244 167.202 110.892C167.202 114.022 165.791 119.946 165.278 122.941C163.401 133.913 155.22 143.115 139.029 143.115C125.846 143.115 115.701 138.929 105.89 128.222C103.652 125.779 92.7212 134.524 90.4857 131.375C84.6467 131.375 79.7642 76.6819 91.2285 60.2772C102.693 43.8726 120.713 46.2808 132.683 46.2808Z" fill="#D08B5B"/>
<path fill-rule="evenodd" clip-rule="evenodd" d="M96.7047 50.1333C103.622 43.8245 112.837 40.7895 122.134 41.0135C126.949 41.1297 131.748 42.0491 136.295 43.6237C138.57 44.4141 140.773 45.4455 142.879 46.6122C143.638 47.0316 144.338 47.5231 145.011 48.0451L145.179 48.1762H145.181C146.988 48.8271 148.601 49.9959 150.064 51.3633C152.996 51.1287 155.952 51.3929 158.788 52.2996C162.734 53.5635 166.388 55.8778 168.953 59.1643C171.942 62.9904 172.936 67.6314 172.581 72.4224L172.516 73.2363C172.165 77.4685 171.537 82.9121 168.072 85.693C167.809 85.9043 167.518 86.0649 167.216 86.1622C169.449 89.996 171.281 94.2526 172.377 98.5515C176.562 114.971 173.345 132.095 168.312 147.921C167.899 149.225 165.932 150.091 164.931 148.817C163.143 146.539 160.546 144.801 157.624 144.476C155.821 144.275 154.027 144.639 152.324 143.819C151.655 143.495 151.01 142.967 150.547 142.324C147.671 143.417 144.574 143.933 141.502 143.806C136.461 143.599 131.073 141.849 127.605 138.011C127.048 137.395 126.907 136.703 127.035 136.079C127.47 135.924 127.917 135.808 128.377 135.735C132.775 138.334 137.622 140.07 142.832 140.179C145.842 140.242 148.779 139.82 151.22 137.936C151.748 137.528 152.234 137.076 152.683 136.591C157.786 133.3 161.384 127.71 163.095 121.722C164.688 116.138 164.492 110.324 163.944 104.596L163.655 101.574C163.234 97.1376 162.842 92.6883 162.733 88.2334L162.766 88.2317C163.844 88.1619 163.851 86.4705 162.766 86.5409C159.958 86.7231 157.171 86.2613 154.372 86.4625C154.349 85.1358 154.253 83.8151 153.864 82.5356C153.642 81.8045 152.373 81.6604 152.238 82.5356C152.058 83.7065 151.992 84.8708 151.973 86.047C147.783 85.9912 143.598 85.6378 139.408 85.783C138.635 84.9566 138.389 83.4913 138.028 82.472C137.975 82.3219 137.922 82.174 137.868 82.0239C137.55 83.4805 137.1 84.9053 136.507 86.3L135.48 86.3034C129.649 86.3309 123.701 86.5056 118.007 87.7194C117.612 87.4148 117.376 86.8835 117.313 86.401C116.9 83.2612 116.31 80.2049 115.266 77.2128L115.116 76.7907C115.104 76.7556 115.091 76.7184 115.078 76.6793C114.308 77.9248 113.39 79.0857 112.388 80.1668C111.798 80.804 111.179 81.4133 110.543 82.0053C109.926 82.6922 109.289 83.3687 108.671 84.0577C108.695 84.1831 108.716 84.3103 108.733 84.4399C108.922 85.8696 108.942 87.3197 108.803 88.755C108.553 91.3497 107.822 93.85 106.648 96.163L106.611 96.3946C106.433 97.4786 106.179 98.5988 105.587 99.4151C106.326 100.245 106.895 101.237 107.226 102.339C107.519 103.32 106.166 104.17 105.464 103.367C104.906 102.729 104.286 102.202 103.606 101.781C103.563 101.839 103.485 101.868 103.398 101.819C101.503 100.764 98.2838 101.083 96.3906 102.077C94.0357 103.311 93.1165 105.845 93.3779 108.413C93.6288 110.867 94.6998 113.735 96.7764 114.992C97.7293 115.569 98.4714 115.618 99.4833 115.341C99.8069 115.253 100.208 114.983 100.38 114.849L100.55 114.712C101.213 114.187 101.831 113.827 102.614 113.813C103.415 113.563 104.22 113.91 104.526 114.752L104.545 114.806C104.689 115.235 104.95 115.774 104.893 116.43C104.834 117.131 104.514 117.77 104.035 118.283C103.953 118.372 103.864 118.461 103.774 118.543C112.017 127.49 113.075 141.43 108.848 152.606C108.665 153.097 108.469 153.581 108.264 154.061C107.558 155.705 104.838 155.196 104.492 153.566C104.389 153.078 104.275 152.592 104.151 152.11C103.922 151.219 103.66 150.337 103.365 149.468L103.253 149.142C103.002 148.424 102.768 147.699 102.515 146.98L102.49 146.898C102.48 146.866 102.47 146.828 102.458 146.786L102.03 147.722L100.729 150.548C100.121 151.867 98.1866 151.15 98.1147 149.879L98.113 149.836C98.1067 149.601 98.0982 149.369 98.0835 149.138C97.9907 147.411 97.6935 145.733 97.2212 144.091L97.0508 144.303C94.5138 147.448 91.5363 150.395 87.4517 151.121C86.4271 151.302 85.2676 150.229 85.9718 149.191C86.2627 148.762 86.5431 148.322 86.8087 147.876C86.5789 147.769 86.3618 147.657 86.1615 147.543C84.612 146.67 83.3217 145.427 82.255 144.017C79.9928 141.029 79.1833 137.267 78.9851 133.585C78.7743 129.694 79.1158 125.592 80.1763 121.838C80.6359 120.215 81.2578 118.657 81.9767 117.146C81.9261 117.011 81.8776 116.876 81.8291 116.74C81.0533 114.572 80.4166 112.355 79.8874 110.112C78.8207 105.585 78.2472 100.914 78.1777 96.2626C78.0512 87.929 79.4848 79.4623 82.5058 71.691C85.626 63.6766 90.3189 55.956 96.7047 50.1333ZM92.8193 122.994C92.2463 122.09 90.8128 122.905 91.3447 123.815L91.3646 123.848C92.2732 125.283 92.6991 126.915 93.2219 128.515C93.5571 129.544 95.1868 129.104 94.8474 128.064L94.735 127.717C94.2147 126.095 93.7401 124.446 92.8193 122.994ZM97.8094 105.731L98.19 105.546C99.3907 104.972 100.443 104.581 101.861 105.082C103.761 105.752 105.795 107.885 104.511 109.954C104.039 110.717 103.2 111.021 102.336 110.842C100.879 110.539 100.503 109.223 99.763 108.143L99.6358 107.96C99.1849 107.307 98.6148 106.404 97.8642 106.147C97.6935 106.088 97.6218 105.822 97.8094 105.731ZM98.8801 61.8L99.0027 61.6899C99.8185 60.9671 98.6211 59.7751 97.8094 60.4937C94.0947 63.7844 92.8045 68.935 90.8776 73.3247C90.4454 74.3117 91.898 75.1741 92.3344 74.1786C94.1724 69.9897 95.3925 64.9789 98.8801 61.8ZM143.52 60.3605C142.549 59.922 141.7 61.3381 142.633 61.8043L142.668 61.8209C145.948 63.3067 147.344 66.6714 148.681 69.7952C149.107 70.7928 150.559 69.9326 150.138 68.9434L149.896 68.3829C148.502 65.1638 146.875 61.8825 143.52 60.3605ZM148.662 58.3273C147.633 57.9701 147.192 59.6018 148.213 59.9589C150.993 60.929 152.901 63.0214 154.51 65.4139C155.113 66.31 156.574 65.4646 155.965 64.56C154.097 61.7829 151.879 59.4517 148.662 58.3273Z" fill="black"/>
<path fill-rule="evenodd" clip-rule="evenodd" d="M143.152 128.274C141.732 127.695 140.465 126.728 139.538 125.493C139.216 125.063 139.133 124.61 139.2 124.195C139.276 123.729 139.552 123.306 139.928 123.023C140.305 122.739 140.777 122.598 141.233 122.67C141.63 122.732 142.024 122.949 142.337 123.399L142.402 123.489C142.953 124.235 143.67 124.846 144.488 125.241C145.276 125.621 146.158 125.798 147.07 125.695C148.808 125.499 150.005 124.559 151.278 123.282C151.436 123.121 151.594 122.955 151.752 122.786C151.852 122.633 151.991 122.534 152.146 122.483C152.317 122.425 152.511 122.429 152.689 122.491C152.86 122.55 153.013 122.664 153.116 122.815C153.213 122.958 153.269 123.135 153.251 123.339C153.134 124.661 152.443 125.842 151.461 126.769C150.37 127.799 148.924 128.511 147.563 128.761C146.064 129.036 144.536 128.839 143.152 128.274ZM148.271 107.866C149.866 108.836 152.297 111.098 150.581 113.503C148.56 115.624 145.652 113.193 144.219 112.093C142.889 111.241 141.396 113.433 142.629 114.428C152.986 122.099 157.19 108.12 149.078 106.726C148.184 106.572 147.853 107.566 148.271 107.866ZM129.711 98.9429C129.887 96.7541 133.219 96.257 133.551 98.423C133.847 100.363 133.498 102.145 132.624 103.892C131.79 105.561 129.692 104.783 129.533 103.263C129.32 101.226 129.601 100.304 129.711 98.9429ZM155.076 97.9739C155.541 97.3652 156.211 96.9497 157.015 97.1845C159.526 97.9185 158.786 101.485 157.904 103.22C157.425 104.163 155.876 104.402 155.176 103.572C154.035 102.219 153.489 99.5157 154.939 98.1825C154.979 98.1136 155.022 98.044 155.076 97.9739ZM132.589 89.3654L132.986 89.2959C134.213 89.0836 135.738 88.8796 136.606 89.8665C137.067 90.3898 137.225 91.3624 136.606 91.8633C135.518 92.7446 134.314 92.4031 133.01 92.4777C131.935 92.5394 130.902 92.7174 129.867 93.0135C127.595 93.6629 125.744 94.8486 123.804 96.1505C123.55 96.3213 123.29 95.9956 123.411 95.7574C124.531 93.563 126.701 91.7604 128.875 90.6616C130.036 90.0751 131.305 89.5885 132.589 89.3654ZM152.787 88.3823L153.091 88.4445C156.394 89.1353 160.687 90.5153 162.251 93.7615C162.311 94.2205 162.248 94.3189 162.197 94.3832L162.179 94.4046C162.137 94.4595 162.104 94.5351 161.905 94.5976C161.849 94.5845 161.794 94.5705 161.737 94.5557C161.02 94.3677 160.453 94.1087 159.904 93.84L159.308 93.5465C158.617 93.2076 157.92 92.881 157.181 92.6399C155.605 92.1255 153.983 91.7631 152.337 91.5696C151.98 91.5277 151.636 91.4072 151.365 91.2007C151.107 91.0046 150.911 90.7332 150.821 90.3724C150.705 89.9056 150.738 89.5521 150.989 89.1309C151.177 88.8146 151.447 88.5953 151.756 88.4694C152.071 88.3411 152.43 88.3108 152.787 88.3823Z" fill="black"/>
<path fill-rule="evenodd" clip-rule="evenodd" d="M166.085 109.758C164.662 111.67 162.025 112.279 159.593 112.068C154.347 111.563 152.696 105.603 152.524 100.97C156.042 101.96 152.226 94.9491 164.251 94.1781C168.49 93.8247 167.322 96.3858 169.195 98.2571C169.156 102.184 168.503 106.452 166.085 109.758ZM141.098 105.245C138.001 119.755 121.04 116.304 119.259 103.224C120.904 102.063 120.471 99.1945 122.514 98.1553C125.754 96.0849 129.803 96.1734 133.481 96.222C138.183 96.5452 139.523 98.4936 141.938 100.619C141.822 102.039 141.487 103.722 141.098 105.245ZM172.803 91.775C172.629 91.7461 172.455 91.7188 172.281 91.6932C172.145 91.6161 171.986 91.5567 171.8 91.521C171.377 91.4134 170.956 91.3409 170.536 91.3018C164.508 89.9447 150.563 91.8716 149.987 97.0176C148.068 97.6586 146.407 97.0845 144.182 97.1416C142.489 90.0603 113.21 91.0598 111.802 95.3291C111.797 95.3276 111.792 95.3263 111.786 95.3246C110.433 94.9057 108.439 95.0068 106.89 94.9404C103.584 94.8711 100.273 95.1659 97.0381 95.8636C90.98 96.8267 82.712 97.9543 86.9254 105.522C86.9262 105.524 86.9268 105.525 86.9279 105.526L86.9285 105.526C87.6546 106.27 88.887 105.671 88.9328 104.663C87.5163 101.077 90.7157 100.647 93.1774 99.6165C99.3027 97.4151 105.539 97.1099 111.874 97.7909C112.351 98.3522 113.074 98.8417 113.838 99.0979C118.074 99.8012 115.842 102.944 118.519 103.402C118.027 114.358 131.325 120.339 139.029 113.137C142.105 110.128 142.839 105.671 143.552 101.653C143.929 101.568 144.169 101.362 144.309 101.089C145.216 100.183 145.786 99.3466 147.579 99.0979C149.373 98.8493 150.753 99.3483 150.94 99.5011C150.987 99.596 151.038 99.6911 151.096 99.7862C151.178 99.9281 151.29 100.041 151.417 100.13C149.646 111.041 158.113 117.941 166.66 112.282C170.374 108.787 171.159 103.436 171.314 98.66C171.818 98.356 172.137 97.767 171.962 97.0264C171.722 96.0056 172.285 95.1217 173.182 94.6779C174.348 94.1016 174.142 91.9967 172.803 91.775Z" fill="black"/>
</svg>
