<svg width="240" height="324" viewBox="0 0 240 324" fill="none" xmlns="http://www.w3.org/2000/svg">
<path fill-rule="evenodd" clip-rule="evenodd" d="M194.637 251.934C193.785 247.123 193.005 242.299 192.295 237.465C191.958 235.169 191.63 232.872 191.334 230.571C191.128 228.959 190.813 227.115 191.909 225.921C193.452 224.24 194.854 222.802 195.042 220.395C195.22 218.129 194.454 215.66 193.976 213.462C192.972 208.851 191.722 204.297 190.341 199.786C188.938 195.204 187.399 190.664 185.839 186.133C184.38 181.897 182.977 177.622 181.077 173.558C177.47 165.845 171.369 160.132 163.828 156.318C161.953 155.37 158.128 151.984 156.168 151.226C154.367 150.528 154.374 152.564 152.601 151.797C151.184 151.184 149.864 150.367 149.071 148.998C148.209 147.512 146.048 145.433 145.72 143.703C145.023 140.035 145.778 136.914 143.161 134.154C140.839 131.703 137.717 130.024 134.486 129.123C127.38 127.14 117.903 128.526 113.616 135.132C111.568 138.286 110.852 142.1 108.089 144.674C105.676 146.922 106.216 148.459 103.091 149.617C102.914 149.683 98.1167 148.654 97.9397 148.72C94.5209 147.988 91.2534 150.037 88.1169 151.226C83.4409 152.998 78.9891 155.304 74.8066 158.045C66.373 163.573 59.1498 170.752 53.1948 178.874C47.1906 187.064 42.5319 196.244 39.2148 205.838C38.4092 208.168 37.6856 210.527 37.0474 212.908C36.6902 214.241 36.3084 215.624 36.7434 216.988C37.0992 218.105 37.8906 218.936 38.8199 219.606C40.0797 220.514 42.6067 221.104 42.5575 222.931C42.5199 224.32 42.049 225.781 41.8191 227.153C41.5455 228.787 41.3207 230.431 41.0959 232.073C40.0734 239.544 39.2775 247.057 38.9256 254.592C38.5791 262.011 38.2916 269.581 38.806 276.998C38.84 277.487 38.9858 277.936 39.2209 278.315C39.0014 278.399 38.9845 278.808 39.2577 278.866C39.4491 278.907 39.6401 278.948 39.8315 278.988C40.2291 279.289 40.7249 279.474 41.2956 279.492C41.6824 279.504 42.069 279.521 42.4554 279.541C46.5331 280.394 50.6102 281.199 54.7411 281.809C59.7625 282.551 64.7987 283.155 69.8505 283.646C80.2311 284.656 90.53 284.321 100.924 283.777C111.303 283.234 121.675 283.107 132.064 283.377C142.462 283.648 152.856 284.1 163.257 284.285C174.876 284.492 186.478 284.174 198.064 283.25C199.653 283.124 200.635 281.859 200.322 280.281C198.445 270.825 196.318 261.431 194.637 251.934Z" fill="#D08B5B"/>
<path fill-rule="evenodd" clip-rule="evenodd" d="M88.117 151.225L88.3439 151.138C91.411 149.939 94.6034 148.005 97.9397 148.719C98.0577 148.676 100.229 149.118 101.716 149.399L100.304 150.873L97.8135 151.352C106.406 165.54 116.569 172.633 128.302 172.633C140.035 172.633 148.939 165.54 155.012 151.352L155.841 151.123C155.943 151.147 156.052 151.18 156.168 151.225C158.128 151.983 161.953 155.37 163.828 156.318C171.369 160.132 177.47 165.844 181.077 173.558C182.914 177.487 184.286 181.612 185.693 185.709L185.839 186.133C187.399 190.664 188.938 195.203 190.341 199.786C191.662 204.101 192.863 208.455 193.843 212.86L193.976 213.461C194.454 215.66 195.22 218.129 195.042 220.394C194.975 221.252 194.754 221.987 194.427 222.653L177.432 228.771L185.529 284.017C178.112 284.335 170.688 284.417 163.257 284.285C152.857 284.1 142.462 283.647 132.064 283.377C121.99 283.115 111.931 283.226 101.868 283.729L99.3123 283.859C89.4645 284.352 79.6943 284.604 69.8506 283.646L69.1798 283.58L69.1797 275.499L72.6375 230.5L55.114 227.201L37.9122 218.842C37.3925 218.323 36.9754 217.716 36.7435 216.988C36.3406 215.724 36.6383 214.445 36.9683 213.204L37.0475 212.908C37.6857 210.526 38.4093 208.168 39.2149 205.837C42.532 196.243 47.1906 187.064 53.1949 178.874C59.1499 170.751 66.3731 163.573 74.8067 158.045C78.9892 155.304 83.441 152.997 88.117 151.225Z" fill="#EC7495"/>
<path fill-rule="evenodd" clip-rule="evenodd" d="M94.6976 148.487C95.7721 148.44 96.8677 148.614 97.9397 148.72C98.0331 148.729 98.0686 148.873 97.9634 148.895C96.0449 149.296 94.1475 149.844 92.2633 150.401L91.4566 150.64C89.3318 151.269 87.2694 151.917 85.2125 152.756C81.1131 154.427 77.2196 156.683 73.6363 159.275C59.838 169.255 49.8514 184.366 43.5493 200.01C41.8378 204.259 40.3877 208.613 39.213 213.04C38.9274 214.118 38.6587 215.199 38.4039 216.284C38.3291 216.602 38.0031 217.417 38.1818 217.742C38.3399 218.03 38.9542 218.208 39.2396 218.357L40.2033 218.857C42.0829 219.826 45.2138 221.419 45.5278 221.574L46.0175 221.816C54.0268 225.744 62.5846 229.074 71.5976 229.305L71.6682 228.535C72.07 224.278 72.5973 219.999 73.7483 215.873C73.8102 215.651 74.0923 215.726 74.118 215.923C74.7592 220.807 74.5543 225.73 74.3306 230.637C73.9344 239.328 73.4084 248.014 72.9408 256.702C72.7068 261.048 72.4042 265.391 72.1311 269.735C71.8575 274.087 71.7689 278.544 71.1442 282.861C71.005 283.823 69.8785 284.346 69.0254 284.245C68.0815 284.132 67.3554 283.3 67.3509 282.347C67.3395 279.832 67.6553 277.288 67.8309 274.78C67.9976 272.397 68.1765 270.015 68.3599 267.633C69.0301 258.94 69.801 250.257 70.514 241.568C70.7667 238.486 71.0396 235.407 71.3206 232.328C61.7728 232.02 52.8529 228.482 44.3434 224.348C44.2203 227.146 43.9228 229.939 43.6349 232.725C42.831 240.499 42.1222 248.271 41.5917 256.07C41.3238 260.009 41.1288 263.953 40.9589 267.897C40.8755 269.835 40.8075 271.774 40.7553 273.714C40.7378 274.36 40.722 275.007 40.7081 275.653L40.6791 277.135C40.6553 278.073 40.5599 278.942 39.7706 279.626C38.9688 280.32 37.8858 280.357 37.0923 279.626C36.0301 278.647 36.2179 277.314 36.2494 276C36.2756 274.891 36.307 273.783 36.3436 272.675C36.4169 270.458 36.5105 268.243 36.6244 266.028C37.0228 258.285 37.819 250.573 38.8595 242.892L39.2657 239.927C40.0242 234.415 40.8569 228.777 42.5525 223.467C41.8923 223.139 41.234 222.808 40.5782 222.476C39.415 221.887 38.2123 221.334 37.0815 220.683C36.1845 220.168 35.4108 219.46 35.1611 218.416C34.8826 217.252 35.3085 215.98 35.5914 214.845L35.616 214.745C35.8934 213.602 36.1921 212.464 36.5073 211.331C37.7855 206.736 39.366 202.232 41.2156 197.837C44.9192 189.038 49.6995 180.678 55.5387 173.12C60.7949 166.317 67.004 160.147 74.2813 155.52C77.8391 153.258 81.6305 151.4 85.6401 150.087C87.5143 149.473 89.5535 148.939 91.5157 148.719C92.5742 148.601 93.6341 148.533 94.6976 148.487ZM113.736 134.544C115.013 133.172 117.549 134.592 116.936 136.408C115.494 140.682 113.198 144.579 109.614 147.387C106.245 150.027 102.228 151.742 97.9014 151.376C97.868 151.373 97.8391 151.364 97.8135 151.352L98.1863 151.858C101.113 155.819 104.201 159.725 107.923 162.963C115.506 169.559 125.831 173.117 135.8 170.586C143.644 168.595 150.555 162.39 152.587 154.482C152.296 154.613 151.95 154.657 151.57 154.575C149.944 154.221 148.334 152.511 147.285 151.284C146.15 149.957 145.264 148.524 144.615 146.904C143.426 143.94 143.045 140.123 144.668 137.251C144.868 136.897 145.33 137.096 145.37 137.441L145.431 137.981C145.744 140.672 146.134 143.275 147.402 145.729C148.023 146.929 148.767 148.101 149.673 149.106C150.158 149.644 150.683 150.158 151.25 150.609C151.803 151.049 152.472 151.366 152.967 151.87L153.058 151.967L153.061 151.95C153.186 150.884 153.933 150.415 154.664 150.444C155.371 150.473 156.202 150.784 156.523 150.933L156.554 150.948C161.487 153.317 166.031 156.405 170.307 159.831C179.15 166.916 185.775 176.179 188.986 187.086C190.561 192.439 191.465 197.956 192.42 203.446L193.007 206.81C193.898 211.878 194.893 217.047 196.904 221.761C197.424 222.981 197.023 224.125 195.748 224.605C194.155 225.203 192.557 225.783 190.956 226.356C191.742 229.73 192.221 233.221 192.81 236.611C194.062 243.818 195.596 250.979 196.912 258.176C197.584 261.856 198.191 265.548 198.863 269.229C199.186 271.001 199.524 272.771 199.852 274.543C200.029 275.498 200.189 276.456 200.358 277.413L200.387 277.571C200.484 278.076 200.605 278.598 200.467 279.103C200.308 279.679 199.859 280.086 199.458 280.499C199.128 280.839 198.65 280.841 198.246 280.655L198.113 280.594C197.39 280.256 196.824 279.919 196.568 279.103C196.406 278.587 196.347 278.005 196.241 277.473C196.038 276.453 195.845 275.432 195.663 274.408C195.298 272.36 194.943 270.31 194.595 268.258L194.271 266.337C193.157 259.715 192.1 253.054 191.565 246.362C191.328 243.394 191.077 240.428 190.823 237.461L190.633 235.236C190.392 232.42 190.098 229.532 190.056 226.678L189.099 227.018L184.428 228.67C183.269 229.079 181.795 229.919 180.548 229.766C179.938 229.691 179.473 229.499 179.114 229.15C179.544 235.223 180.126 241.285 180.902 247.316C181.608 252.804 182.391 258.284 183.315 263.74C183.773 266.442 184.244 269.14 184.755 271.832C185.01 273.178 185.274 274.522 185.546 275.865C185.681 276.535 185.842 277.206 185.948 277.881C186.069 278.655 185.856 279.131 185.424 279.767C185.069 280.29 184.359 280.558 183.784 280.198C183.022 279.719 182.625 279.305 182.401 278.434C182.197 277.643 182.073 276.817 181.916 276.016C181.625 274.537 181.343 273.056 181.072 271.573C180.504 268.472 179.981 265.364 179.514 262.246C177.867 251.262 176.822 240.187 176.294 229.093C176.034 223.62 175.953 218.142 175.999 212.663C176.023 209.854 176.115 207.038 176.313 204.236C176.514 201.401 176.933 198.622 177.306 195.813C177.319 195.714 177.459 195.708 177.465 195.813C177.642 198.962 177.919 202.107 178.055 205.264C178.184 208.276 178.241 211.293 178.344 214.307C178.48 218.268 178.668 222.231 178.916 226.192C179.366 225.699 180.045 225.415 180.724 225.526C181.708 225.32 182.767 224.803 183.704 224.49L187.24 223.309C189.098 222.688 190.957 222.071 192.822 221.473C191.154 215.861 190.012 210.165 189.037 204.386L188.602 201.787C187.741 196.672 186.812 191.554 185.253 186.6C183.613 181.392 181.159 176.55 177.904 172.165C174.696 167.844 170.792 164.038 166.773 160.479C163.332 157.433 159.651 154.682 156.142 151.718C156.178 151.915 156.186 152.131 156.154 152.369C155.408 157.832 152.559 162.92 148.588 166.704C140.612 174.307 128.805 175.884 118.596 172.319C108.721 168.87 99.9896 160.703 96.9048 150.597C96.852 150.424 97.0836 150.356 97.1765 150.483C97.3477 150.717 97.5196 150.952 97.6918 151.186C97.6802 151.093 97.7286 150.992 97.8435 150.947C101.443 149.557 104.977 147.586 107.675 144.796C108.99 143.437 110.137 141.896 111.043 140.235C111.477 139.439 111.867 138.615 112.178 137.764L112.257 137.544C112.634 136.477 112.949 135.389 113.736 134.544Z" fill="black"/>
<path fill-rule="evenodd" clip-rule="evenodd" d="M164.622 91.3169C163.84 85.0565 161.382 78.4097 158.796 72.5733C152.983 60.2334 139.675 58.5344 127.744 55.9902C115.971 54.2719 103.504 52.7204 91.9082 56.1487C85.3894 57.7497 82.8433 65.5328 83.8721 71.6749C84.4593 75.5022 86.1971 79.1246 87.6789 82.6717C90.6243 89.9561 92.4931 97.7547 92.4962 105.641C92.294 110.795 91.5684 116.678 97.4765 118.861C103.098 121.664 103.573 129.262 110.613 133.572C113.46 139.352 121.213 139.861 126.794 141.202C130.321 141.879 133.888 142.377 137.465 142.699C147.822 144.029 156.107 141.02 161.529 131.771C165.157 126.142 167.859 119.643 167.191 112.821C166.526 105.637 165.419 98.491 164.622 91.3169Z" fill="#D08B5B"/>
<path fill-rule="evenodd" clip-rule="evenodd" d="M127.833 40.9933C128.424 40.3216 129.335 40.552 129.888 41.0831C130.248 41.1894 130.597 41.3475 130.926 41.5568C131.67 41.461 132.45 41.461 133.18 41.4879C133.357 41.3883 133.547 41.2998 133.754 41.2237C135.229 40.6828 136.536 40.9576 137.614 41.6817C138.133 41.1892 138.788 40.8802 139.626 40.9269C140.373 40.9688 140.906 41.3213 141.362 41.7857C141.817 41.1277 142.553 40.6583 143.47 40.593C144.751 40.5017 145.983 41.0168 147.003 41.8142C147.598 41.1303 148.409 40.7371 149.313 40.7333C149.907 40.6251 150.534 40.6678 151.101 40.8394C151.924 41.0886 152.647 41.5555 153.223 42.1614C154.133 41.2873 155.248 40.6583 156.533 40.75C158.196 40.8705 159.575 42.0966 160.216 43.6056C161.342 44.0577 162.381 44.7025 163.25 45.6219C163.296 45.6703 163.34 45.721 163.387 45.7719C163.855 45.945 164.295 46.1904 164.683 46.5136C165.912 47.5388 166.186 49.0225 165.78 50.4764C165.837 50.7091 165.885 50.9458 165.929 51.1823C167.08 51.3577 168.126 52.0237 168.721 53.1079C169.534 54.5958 169.374 56.5569 168.493 57.9774C168.114 58.5884 167.633 59.1033 167.093 59.5535C167.704 60.9441 167.411 62.6037 166.426 63.7285C166.186 64.1163 165.892 64.4663 165.56 64.7831C165.926 66.2209 165.275 67.7044 163.977 68.4726L163.866 68.7514C163.847 68.7977 163.828 68.8438 163.808 68.8894C163.794 68.9486 163.776 69.0059 163.759 69.0636C163.728 69.5738 163.56 70.0745 163.228 70.5462C162.547 71.513 161.702 72.1434 161.255 73.272L161.21 73.3906C161.017 73.9246 160.396 74.3015 159.866 74.1366C162.807 80.1899 164.348 86.9254 165.406 93.5263C165.934 96.8194 166.341 100.124 166.672 103.441L166.996 106.744C167.281 109.68 167.534 112.626 167.536 115.572C167.54 122.236 165.638 128.646 161.557 133.949C157.697 138.962 152.234 142.596 146.064 144.026C139.692 145.502 132.219 144.92 126.506 141.543C124.821 140.55 126.297 138.161 128.011 138.961C131.255 140.474 134.553 141.598 138.149 141.85C141.655 142.097 145.17 141.657 148.494 140.507C153.995 138.603 158.675 134.615 161.683 129.648C163.165 127.201 164.238 124.544 164.81 121.737C165.521 118.239 165.414 114.623 165.153 111.08L165.134 110.838C164.618 104.011 163.937 97.1425 162.837 90.3838C161.864 84.407 160.368 78.5513 158.426 72.8252C157.665 72.1539 156.815 71.5985 155.904 71.1767C149.236 70.8975 142.557 70.979 135.898 71.4402C130.219 71.8361 124.567 72.5058 118.958 73.482L118.357 73.5877C117.116 73.8095 115.737 73.9363 114.567 74.4374C113.563 74.8685 113.156 75.697 112.903 76.7155C112.267 79.2919 112.17 82.1115 112.062 84.7534C111.957 87.3359 112.195 89.9399 111.988 92.514C111.813 94.6676 111.263 96.872 109.671 98.4299C108.839 99.2455 107.814 99.6914 106.853 100.311C106.231 100.71 105.967 101.122 106.047 101.862C106.22 103.481 107.521 105.52 106.06 106.907C105.803 107.15 105.358 107.182 105.105 106.907C104.502 106.25 103.669 105.749 102.955 105.218C102.655 104.999 102.904 104.572 103.243 104.724C103.69 104.925 104.146 105.161 104.612 105.368C103.583 104.519 102.12 104.102 100.901 103.855C100.288 103.732 99.6427 103.696 99.0039 103.754C98.5316 103.98 98.0488 104.189 97.5661 104.394C96.9526 104.652 96.3328 104.886 95.7087 105.109C93.5436 106.877 92.5106 109.754 92.9617 112.567C93.2084 114.12 93.9231 115.809 95.2702 116.716C96.8661 117.79 99.0039 117.329 100.728 118.126C102.343 118.871 103.326 120.379 104.061 121.938L104.368 122.588C105.051 124.026 105.753 125.425 106.686 126.734C107.766 128.249 109.087 129.61 110.53 130.779C111.229 131.345 111.975 131.854 112.745 132.317L112.956 132.442C113.736 132.901 114.295 133.338 114.347 134.308C114.364 134.647 114.151 134.955 113.877 135.131C112.697 135.881 111.522 134.943 110.54 134.287C109.48 133.581 108.466 132.787 107.527 131.92C105.744 130.276 104.201 128.323 103.014 126.203C102.109 124.589 101.595 122.317 100.165 121.065C99.2927 120.302 98.0594 120.296 96.9694 120.156C95.9554 120.026 94.9961 119.814 94.0938 119.313C90.4234 117.27 89.3862 112.322 90.2569 108.499C90.4044 107.854 90.611 107.226 90.8661 106.622C89.5 106.85 87.9652 105.434 88.5197 104.005C88.5619 103.897 88.6104 103.796 88.6567 103.692C87.7565 103.098 87.0461 102.198 86.7087 101.021C86.5359 100.412 86.5106 99.7971 86.6012 99.2032C86.1648 98.9096 85.8043 98.5057 85.5724 98.0091C84.8472 97.673 84.2042 97.1702 83.8205 96.4516C83.2892 95.4602 83.3567 94.5471 83.7614 93.725C83.7045 93.6216 83.6497 93.516 83.597 93.408C82.1107 92.4634 81.0735 90.8358 81.1915 89.0309C81.2295 88.4328 81.3771 87.8938 81.6047 87.4079C81.5858 87.3466 81.5668 87.283 81.5499 87.2217C80.3061 86.5877 79.2773 85.5459 78.9104 84.1553C78.5436 82.7559 78.9758 81.361 79.8402 80.2873C78.5752 79.3597 77.8142 78.0641 78.2759 76.1047C78.4635 75.3081 78.8409 74.583 79.3511 73.9722C79.3489 73.9534 79.3447 73.9344 79.3405 73.9151L79.2222 73.8231C77.6606 72.5878 76.7629 71.0135 77.7214 69.0773C78.1515 68.2068 78.765 67.6 79.486 67.2005L79.5218 67.0864C79.0053 65.9768 78.8303 64.7446 79.1866 63.4491C79.4775 62.382 80.1669 61.5321 81.0482 60.968C80.9891 60.4902 80.9976 59.981 81.0924 59.4292C81.2506 58.4973 81.7123 57.6836 82.3869 57.1067C82.4122 56.9839 82.4438 56.8636 82.4796 56.7429C82.7073 56.0055 83.1332 55.2045 83.6265 54.6104C84.0334 54.1179 84.4888 53.9383 85.0454 53.9193C85.0116 53.4651 85.0348 53.0041 85.1276 52.537C85.4122 51.0958 86.3271 49.7409 87.6827 49.1259C88.2393 48.8743 88.8254 48.8006 89.3904 48.8617C89.8711 47.8472 90.8092 47.1119 91.9624 46.9534C92.4115 46.89 92.8289 46.894 93.2126 46.9513C93.4297 46.8496 93.6553 46.7589 93.8914 46.6763C94.0474 46.6214 94.2056 46.5706 94.3637 46.5201C94.8971 45.8565 95.5991 45.3258 96.4192 45.0068C97.3658 44.637 98.3292 44.6748 99.1831 44.9855L99.455 44.9284C99.8809 44.1887 100.56 43.6159 101.603 43.356C102.788 43.0622 104.005 43.4722 104.936 44.2185C104.941 44.2185 104.945 44.2185 104.951 44.2162C105.438 43.1235 106.271 42.3626 107.669 42.4155C108.539 42.4493 109.326 42.8828 109.933 43.4999C110.27 43.4574 110.608 43.4194 110.947 43.3816C111.305 42.9608 111.704 42.5679 112.144 42.2149C112.865 41.6356 113.804 41.6823 114.335 42.4979C114.451 42.6754 114.558 42.8551 114.666 43.0347L115.153 43.0009C115.726 42.2253 116.508 41.7011 117.579 41.6591C118.562 41.6187 119.262 42.1008 119.795 42.7748C120.229 42.7642 120.666 42.756 121.102 42.7494C121.61 42.1597 122.209 41.6398 122.892 41.2087C123.415 40.879 124.187 40.9912 124.61 41.4308C124.897 41.7296 125.163 42.0416 125.411 42.3645C126.049 41.6468 126.912 41.174 127.833 40.9933ZM96.805 108.107C97.7895 107.545 99.1135 108.154 100.066 108.632C101.228 109.213 102.381 110.09 103.092 111.189C104.059 112.685 101.785 113.894 100.766 112.552C100.14 111.726 99.6406 110.893 98.8816 110.17C98.188 109.507 97.1824 109.063 96.7839 108.188C96.7692 108.158 96.7734 108.124 96.805 108.107ZM97.4966 71.7868L97.515 71.734C97.795 70.9662 96.5731 70.6352 96.2954 71.3967C95.8746 72.5509 96.3597 73.8056 97.4969 74.304C97.8121 74.4422 98.1722 74.3943 98.3621 74.0766C98.5217 73.8092 98.4477 73.346 98.1353 73.2092C97.4954 72.9287 97.2811 72.4336 97.4966 71.7868ZM86.9699 69.6397C87.5815 69.0987 86.6841 68.2044 86.0754 68.7432C85.5075 69.2458 85.0863 69.9284 85.1957 70.7136C85.3072 71.5138 85.9091 72.0787 86.5679 72.4779C87.2661 72.9013 87.9026 71.8052 87.2063 71.3829L87.1281 71.335C86.8358 71.153 86.4936 70.9028 86.4442 70.5447C86.3917 70.1643 86.7127 69.8673 86.9699 69.6397ZM90.4416 60.0926L90.485 60.0607C91.1419 59.5906 90.5109 58.4904 89.8464 58.9657C89.2371 59.4017 88.7484 59.9681 88.697 60.7493C88.647 61.5084 89.0324 62.1666 89.5363 62.7007C90.0969 63.2948 90.9903 62.397 90.4308 61.8041C89.8856 61.2263 89.7791 60.5958 90.4416 60.0926Z" fill="black"/>
<path fill-rule="evenodd" clip-rule="evenodd" d="M143.152 128.274C141.732 127.695 140.465 126.728 139.538 125.493C139.216 125.063 139.133 124.61 139.2 124.195C139.276 123.729 139.552 123.306 139.928 123.023C140.305 122.739 140.777 122.598 141.233 122.67C141.63 122.732 142.024 122.949 142.337 123.399L142.402 123.489C142.953 124.235 143.67 124.846 144.488 125.241C145.276 125.621 146.158 125.798 147.07 125.695C148.808 125.499 150.005 124.559 151.278 123.282C151.436 123.121 151.594 122.955 151.752 122.786C151.852 122.633 151.991 122.534 152.146 122.483C152.317 122.425 152.511 122.429 152.689 122.491C152.86 122.55 153.013 122.664 153.116 122.815C153.213 122.958 153.269 123.135 153.251 123.339C153.134 124.661 152.443 125.842 151.461 126.769C150.37 127.799 148.924 128.511 147.563 128.761C146.064 129.036 144.536 128.839 143.152 128.274ZM148.271 107.866C149.866 108.836 152.297 111.098 150.581 113.503C148.56 115.624 145.652 113.193 144.219 112.093C142.889 111.241 141.396 113.433 142.629 114.428C152.986 122.099 157.19 108.12 149.078 106.726C148.184 106.572 147.853 107.566 148.271 107.866ZM129.711 98.9429C129.887 96.7541 133.219 96.257 133.551 98.423C133.847 100.363 133.498 102.145 132.624 103.892C131.79 105.561 129.692 104.783 129.533 103.263C129.32 101.226 129.601 100.304 129.711 98.9429ZM155.076 97.9739C155.541 97.3652 156.211 96.9497 157.015 97.1845C159.526 97.9185 158.786 101.485 157.904 103.22C157.425 104.163 155.876 104.402 155.176 103.572C154.035 102.219 153.489 99.5157 154.939 98.1825C154.979 98.1136 155.022 98.044 155.076 97.9739ZM132.589 89.3654L132.986 89.2959C134.213 89.0836 135.738 88.8796 136.606 89.8665C137.067 90.3898 137.225 91.3624 136.606 91.8633C135.518 92.7446 134.314 92.4031 133.01 92.4777C131.935 92.5394 130.902 92.7174 129.867 93.0135C127.595 93.6629 125.744 94.8486 123.804 96.1505C123.55 96.3213 123.29 95.9956 123.411 95.7574C124.531 93.563 126.701 91.7604 128.875 90.6616C130.036 90.0751 131.305 89.5885 132.589 89.3654ZM152.787 88.3823L153.091 88.4445C156.394 89.1353 160.687 90.5153 162.251 93.7615C162.311 94.2205 162.248 94.3189 162.197 94.3832L162.179 94.4046C162.137 94.4595 162.104 94.5351 161.905 94.5976C161.849 94.5845 161.794 94.5705 161.737 94.5557C161.02 94.3677 160.453 94.1087 159.904 93.84L159.308 93.5465C158.617 93.2076 157.92 92.881 157.181 92.6399C155.605 92.1255 153.983 91.7631 152.337 91.5696C151.98 91.5277 151.636 91.4072 151.365 91.2007C151.107 91.0046 150.911 90.7332 150.821 90.3724C150.705 89.9056 150.738 89.5521 150.989 89.1309C151.177 88.8146 151.447 88.5953 151.756 88.4694C152.071 88.3411 152.43 88.3108 152.787 88.3823Z" fill="black"/>
<path fill-rule="evenodd" clip-rule="evenodd" d="M166.773 116.395C166.491 115.554 165.042 115.627 165.131 116.618C165.233 117.75 164.846 119.012 163.762 119.561C162.627 120.137 161.351 119.619 160.658 118.632C160.056 117.775 159.641 116.841 158.884 116.093C158.18 115.397 157.323 114.861 156.386 114.542C155.656 114.294 154.9 114.228 154.165 114.31C152.336 113.896 150.216 114.837 149.076 116.264C149.002 116.356 148.934 116.45 148.868 116.546C148.755 116.392 148.637 116.239 148.511 116.089C148.188 115.702 147.787 115.619 147.425 115.724C145.363 114.19 142.473 113.987 140.131 115.371C138.255 116.481 136.702 118.116 134.395 118.243C132.567 118.344 130.576 117.301 130.448 115.291C130.38 114.242 128.951 113.368 128.149 114.339C126.464 116.382 126.127 119.095 127.059 121.564C128.043 124.17 130.048 126.006 132.587 127.085C135.328 128.251 138.541 128.656 141.506 128.564C144.463 128.472 147.151 127.335 148.933 124.915C149.146 124.627 149.333 124.333 149.497 124.036C151.227 126.24 153.939 127.167 156.702 127.233C159.592 127.303 163.008 126.795 165.052 124.55C167.021 122.386 167.701 119.167 166.773 116.395Z" fill="black"/>
</svg>
