<svg width="240" height="324" viewBox="0 0 240 324" fill="none" xmlns="http://www.w3.org/2000/svg">
<path fill-rule="evenodd" clip-rule="evenodd" d="M47.4645 285.957C75.0656 290.151 103.167 290.362 130.998 288.839C142.012 288.014 153.06 287.865 164.065 288.92C170.568 289.404 199.081 291.584 201.411 285.757C199.944 254.73 196.975 223.438 187.865 193.598C184.119 183.002 180.901 174.208 173.589 165.44C171.284 163.046 166.315 158.025 163.467 156.387C161 154.969 159.969 155.475 158.552 153.079C157.144 150.433 156.106 146.012 154.107 144.145C152.072 142.243 149.056 142.924 145.317 143.536C146.004 134.251 141.72 131.887 135.818 130.121C125.444 126.16 115.198 128.15 112.587 140.784C107.746 140.784 105.026 142.868 102.086 144.871C100.884 145.689 101.72 147.775 100.285 148.419C97.6289 149.365 92.9354 149.133 90.3781 150.297C78.7492 155.591 68.3917 163.269 61.5897 174.481C46.3403 198.42 35.8652 248.847 37.6779 277.22C36.8837 278.466 37.9819 280.253 38.2611 281.593C38.6135 282.758 39.7545 283.533 40.9454 283.401C42.6072 285.189 45.1775 285.587 47.4645 285.957Z" fill="#D08B5B"/>
<path fill-rule="evenodd" clip-rule="evenodd" d="M104.887 142.681C106.588 140.906 109.254 139.847 111.78 139.906L111.898 139.91L112.755 139.948L112.182 142.76L112.153 142.893L112.037 143.381L111.881 144.02L111.826 144.255L111.767 144.515C111.758 144.557 111.749 144.599 111.74 144.641L111.715 144.764L111.47 145.958L111.516 146.064L111.503 146.336C111.465 147.317 111.676 147.856 112.142 148.029L112.179 148.042L112.445 148.127L112.661 148.598C113.16 149.674 113.625 150.613 114.103 151.498C115.496 154.08 117.158 156.66 119.074 159.253C120.895 161.717 122.791 164.069 124.763 166.302C125.65 167.306 126.586 168.315 127.583 169.341L128.441 170.22L128.714 170.496L128.898 170.68L129.127 170.904L129.456 171.218L129.696 171.454L129.773 171.528C129.871 171.618 129.946 171.68 130.014 171.723L130.039 171.739L130.115 171.784L134.093 175.969L135.498 176.742L136.165 177.112L136.3 176.843L136.328 176.756L137.806 173.508L138.709 171.519C140.562 167.426 142.004 164.17 143.322 161.069L143.486 160.683L143.973 159.529L144.23 158.914C145.408 156.089 146.279 153.908 147.058 151.79L147.169 151.488L147.333 151.035L147.576 150.353L147.621 150.236C147.832 149.694 147.312 147.725 146.8 146.646L146.772 146.585L146.638 146.318L146.494 146.036C146.156 145.375 145.911 144.641 145.704 143.753C145.671 143.61 145.64 143.465 145.61 143.319L145.567 143.099L145.54 142.955L145.502 142.753L145.448 142.463L146.593 142.272L147.222 142.169L147.496 142.126C147.851 142.071 148.167 142.026 148.465 141.988L148.576 141.974L148.775 141.951L148.782 141.99L149.191 142.031L149.494 142.062C150.989 142.22 152.143 142.394 152.961 142.588L153.042 142.607L153.189 142.644L153.255 142.662C154 142.862 154.574 143.296 155.028 143.935C155.34 144.373 155.542 144.793 155.862 145.589L155.977 145.876L156.358 146.818C156.402 146.933 156.471 147.116 156.564 147.368L156.888 148.248L158.507 152.723L160.165 153.595C160.936 153.999 161.499 154.289 161.777 154.427L161.876 154.475L161.947 154.507L162.518 154.734L162.457 154.912L162.526 154.952C169.35 158.879 174.613 164.92 178.71 172.941L178.834 173.184L178.961 173.437C182.226 179.97 184.566 187.261 186.85 196.994L186.992 197.599L187.103 198.081L187.698 200.678C189.936 210.485 191.474 217.799 192.746 224.974L192.829 225.442L193.041 226.661C194.639 235.949 195.977 245.153 197.048 254.267L197.226 255.801C197.672 259.717 198.076 263.765 198.514 268.626L198.573 269.279L198.765 271.462C198.971 273.815 199.158 276.163 199.328 278.506L199.412 279.677L199.583 282.223L199.684 283.674L199.696 283.871L199.737 284.627L199.748 284.804C199.763 285.032 199.781 285.223 199.803 285.401L199.82 285.531L199.839 285.658C199.896 286.005 200.008 286.315 200.192 286.662L200.24 286.749L200.557 287.316L199.982 287.619C196.985 289.199 191.083 289.894 182.986 289.93L182.74 289.931H182.234C178.3 289.929 174.13 289.777 169.78 289.518L168.796 289.458L167.975 289.405C167.621 289.382 167.277 289.359 166.92 289.334L166.372 289.296L164.084 289.128C153.794 288.142 143.002 288.159 131.112 289.049C100.111 290.745 73.3535 290.03 48.2039 286.275L47.4422 286.16L46.881 286.068L46.5463 286.012C43.8786 285.557 42.2036 284.973 40.8965 283.747L40.8281 283.682L40.771 283.627L40.7463 283.627C39.4303 283.621 38.2255 282.76 37.7785 281.49L37.7552 281.422L37.7258 281.327L37.7054 281.232C37.6846 281.141 37.6586 281.043 37.627 280.935L37.6022 280.852L37.3944 280.171L38.0944 280.043C38.1547 280.032 38.2174 279.99 38.2782 279.902L38.3365 279.819L38.4374 279.679L38.6812 279.344C38.9409 278.98 39.0687 278.751 39.132 278.522C39.188 278.318 39.209 278.058 39.2029 277.695L39.1982 277.518L39.1706 276.875C39.1688 276.824 39.1676 276.779 39.1668 276.735L39.166 276.671L39.1655 275.766L39.1677 274.772C39.1694 274.339 39.1718 273.916 39.1751 273.5L39.1808 272.883L39.1864 272.385C39.2201 269.632 39.3009 266.881 39.4287 264.134C39.6787 258.772 40.1074 253.417 40.7139 248.083C41.9661 237.07 43.8843 226.39 46.4936 216.068L46.7557 215.037C49.5771 204.007 52.2972 195.503 55.7547 187.639C60.1521 177.637 65.5138 169.405 72.2648 162.825C75.9764 159.206 80.087 156.152 84.4553 153.81C86.4642 152.733 88.5994 151.777 90.8891 150.917L91.2172 150.794L91.7469 150.601L92.1532 150.451L93.4626 149.961C93.7378 149.858 94.0373 149.743 94.3915 149.603L94.6108 149.517L96.9555 148.581L97.3448 148.428L97.7777 148.26L98.0959 148.137C98.6162 147.939 99.0874 147.766 99.5248 147.613L99.7832 147.524L100.018 147.445L101.019 147.098L100.999 148.009C100.986 148.614 101.142 149.072 101.488 149.401L101.5 149.411L101.512 149.421L101.523 149.428L101.583 149.426L101.82 149.425C101.844 149.411 101.867 149.396 101.888 149.378C102.225 149.092 102.381 148.708 102.533 147.829L102.573 147.584L102.644 147.126L102.672 146.953C102.773 146.342 102.861 146.005 103.032 145.62C103.28 145.063 103.608 144.52 103.993 144.022L104.083 143.907L104.443 143.474L104.498 143.406C104.625 143.244 104.689 143.13 104.716 143.025L104.723 142.997L104.759 142.815L104.887 142.681Z" fill="#FFCF77"/>
<path fill-rule="evenodd" clip-rule="evenodd" d="M161.709 155.686C161.54 155.591 161.689 155.349 161.859 155.429C170.045 159.271 176.324 166.01 180.743 173.798C185.318 181.861 187.926 191.016 190.174 199.964L190.255 200.287C192.652 209.859 194.691 219.53 196.526 229.225C198.384 239.042 199.876 248.92 201.076 258.84C201.67 263.744 202.199 268.657 202.612 273.58C202.818 276.04 203.005 278.502 203.174 280.965C203.241 281.95 203.304 282.935 203.359 283.921L203.398 284.661C203.431 285.332 203.511 286.004 203.345 286.666C203.202 287.236 202.9 287.753 202.635 288.277C202.109 289.312 200.67 289.141 200.104 288.277L199.939 288.025C199.564 287.444 199.252 286.905 199.134 286.183C199.021 285.484 199.016 284.751 198.965 284.045C198.871 282.745 198.791 281.444 198.7 280.144C198.508 277.407 198.293 274.673 198.055 271.94C197.583 266.545 197.078 261.155 196.457 255.775C195.354 246.213 193.969 236.677 192.337 227.192C190.742 217.926 188.727 208.754 186.624 199.593L186.406 198.645C182.724 182.652 177.048 164.233 161.709 155.686ZM74.5219 218.314C74.5821 218.154 74.8411 218.117 74.8849 218.314C75.4363 220.797 75.4908 223.355 75.5751 225.898C75.6581 228.406 75.6547 230.926 75.6182 233.436C75.4834 242.66 75.2303 251.876 75.0114 261.098C74.902 265.711 74.7993 270.325 74.7205 274.939C74.6907 276.669 74.6657 278.4 74.6449 280.13L74.6194 282.413C74.6068 283.422 74.5803 284.419 74.4573 285.427C74.3761 286.09 74.2033 286.722 73.8374 287.29C73.5777 287.694 73.2076 287.898 72.8469 288.173L72.7794 288.225C72.3192 288.589 71.8346 288.591 71.3789 288.225L71.2466 288.12C70.8113 287.78 70.435 287.514 70.1571 286.975C69.7705 286.226 69.7086 285.413 69.6429 284.588C69.5432 283.336 69.6093 282.067 69.6222 280.812C69.648 278.295 69.6828 275.778 69.727 273.261C69.889 264.031 70.2093 254.8 70.793 245.586C71.068 241.246 71.4409 236.893 71.9411 232.57L72.0364 231.76C72.188 230.489 72.3264 229.194 72.4823 227.896C70.1548 226.258 68.1089 224.271 66.3642 222.017C66.2358 221.851 66.4473 221.618 66.6023 221.779C68.385 223.625 70.429 225.097 72.6919 226.255C73.0627 223.537 73.5725 220.833 74.5219 218.314ZM113.406 136.038C113.438 136.013 113.488 136.002 113.518 136.038C114.019 136.621 113.917 137.513 113.933 138.253L113.935 138.322C113.971 139.403 113.978 140.48 113.974 141.562L113.963 145.005C113.962 145.479 113.923 145.972 113.948 146.448L113.96 146.632C114.223 146.901 114.345 147.29 114.256 147.681C114.24 148.183 113.978 148.601 113.596 148.864L114.415 150.026L115.235 151.188C116.925 153.586 118.633 155.962 120.414 158.294C122.229 160.672 124.166 162.959 126.193 165.159C127.183 166.234 128.191 167.294 129.221 168.33C129.64 168.751 130.069 169.162 130.494 169.578L130.916 169.995C131.165 170.245 131.479 170.491 131.645 170.808C131.742 170.994 131.765 171.454 131.799 171.53C132.112 172.218 131.579 173.314 130.692 172.971L130.732 172.944C130.894 172.832 130.79 172.83 130.422 172.94C130.19 172.939 129.972 172.885 129.768 172.779L129.707 172.746C129.421 172.6 129.165 172.318 128.932 172.093L128.874 172.038C128.342 171.538 127.834 171.009 127.324 170.487C126.258 169.398 125.217 168.287 124.209 167.145C122.197 164.867 120.291 162.497 118.485 160.053C116.646 157.564 114.936 154.947 113.466 152.222C112.908 151.189 112.396 150.135 111.906 149.069C110.952 148.762 110.73 147.747 110.796 146.603C110.444 145.782 110.127 144.945 109.939 144.089C109.914 143.972 110.064 143.861 110.155 143.964C110.46 144.311 110.743 144.68 111.014 145.059C111.178 144.257 111.386 143.519 111.483 143.048L111.906 140.971C109.522 140.847 106.909 141.827 105.265 143.543C105.177 143.99 104.833 144.309 104.498 144.727C104.115 145.204 103.781 145.74 103.532 146.3C102.98 147.542 103.291 149.372 102.219 150.284C102.107 150.378 101.983 150.444 101.854 150.485C102.362 152.981 102.132 155.731 102.121 158.262L102.12 158.485C102.123 161.319 102.028 164.155 101.919 166.986L101.807 169.788C101.663 173.525 101.569 177.264 101.932 180.98C103.59 179.512 105.304 178.111 107.076 176.775C108.242 175.897 109.431 175.051 110.641 174.235L111.625 173.578C112.804 172.787 114.011 171.974 115.302 171.407C116.99 170.667 118.595 170.921 120.225 171.681C121.848 172.437 123.422 173.316 125.014 174.136C126.633 174.969 128.256 175.796 129.877 176.625C130.951 177.174 132.525 177.669 133.313 178.68C133.363 178.456 133.422 178.233 133.49 178.011C133.412 177.672 133.442 177.306 133.632 176.957C136.28 172.092 138.729 167.109 141.161 162.133C142.392 159.615 143.562 157.067 144.796 154.55L145.995 152.099C146.195 151.691 146.396 151.283 146.598 150.875C146.901 150.265 147.216 149.661 147.522 149.053C147.651 148.796 147.813 148.54 147.939 148.281L147.998 148.151C148.001 148.144 148.292 147.23 148.067 147.317L148.048 147.327C147.934 147.391 147.842 147.247 147.916 147.155C148.233 146.763 148.675 147.111 148.856 147.474C149.355 148.474 148.441 150.043 148.089 151.001L148.07 151.054C146.979 154.144 145.744 157.176 144.478 160.197C142.05 165.989 139.443 171.693 136.841 177.406L136.81 177.505C137.365 177.079 137.957 176.693 138.465 176.317C139.744 175.369 141.061 174.467 142.376 173.569C144.788 171.921 147.265 170.381 149.782 168.902L150.286 168.607C151.544 167.874 152.79 167.28 154.283 167.5C155.67 167.705 156.959 168.45 158.212 169.055L158.341 169.117L162.213 170.959C161.799 169.308 161.351 167.665 160.883 166.028C159.972 162.835 158.968 159.669 157.88 156.531C156.864 153.599 155.765 150.7 154.604 147.823L154.254 146.96C153.78 145.775 153.309 144.484 151.955 144.119C150.602 143.755 149.049 144.295 147.813 143.524C147.7 143.454 147.714 143.268 147.85 143.234L148.614 143.042C150.046 142.685 151.726 142.326 153.081 142.673C154.556 143.051 155.776 144.289 156.491 145.576C157.286 147.007 157.847 148.609 158.451 150.136L158.546 150.376C159.239 152.104 159.905 153.842 160.543 155.591C161.818 159.086 162.978 162.624 164.029 166.194C164.535 167.914 165.015 169.643 165.477 171.376C165.609 171.874 165.828 172.478 166.008 173.109C166.214 173.31 166.408 173.534 166.591 173.789C166.894 174.213 166.677 174.71 166.3 174.964C166.285 175.398 166.189 175.806 165.959 176.155C165.06 177.52 162.683 177.169 162.78 175.333C162.794 175.053 162.904 174.784 163.069 174.558L163.065 174.521L163.046 174.454C162.633 174.256 162.219 174.036 161.782 173.82L157.719 171.811C156.542 171.229 155.238 170.331 153.929 170.109C152.71 169.902 151.422 170.811 150.374 171.36L150.306 171.395C147.772 172.695 145.257 174.037 142.751 175.391C141.528 176.052 140.321 176.74 139.103 177.409C138.084 177.968 136.984 178.771 135.839 179.086C135.35 179.467 134.769 179.416 134.302 179.128C134.516 180.45 134.503 181.807 134.568 183.158C134.656 184.965 134.67 186.777 134.699 188.586L134.71 189.265C134.787 193.265 134.829 197.266 134.844 201.267C134.898 215.513 134.74 229.764 134.704 244.011C134.685 251.169 134.543 258.333 134.357 265.488C134.279 268.52 134.114 271.549 133.936 274.576L133.838 276.227C133.631 279.712 133.508 283.234 132.864 286.671C132.779 287.12 132.021 287.131 131.947 286.671C131.353 282.988 131.32 279.224 131.206 275.498L131.182 274.753C131.045 270.753 130.98 266.754 130.994 262.751C131.045 248.499 131.415 234.255 131.718 220.007C131.87 212.848 131.973 205.686 132.209 198.53C132.328 194.949 132.462 191.37 132.62 187.791C132.691 186.192 132.76 184.596 132.866 183L132.914 182.316C132.947 181.87 132.973 181.429 133.006 180.993C131.564 181.519 130.246 180.544 128.949 179.877C127.454 179.108 125.961 178.338 124.465 177.57L122.969 176.804L119.975 175.275C118.626 174.587 117.587 173.902 116.149 174.709C110.968 177.617 106.208 181.486 101.893 185.546C101.066 186.324 99.3175 186.115 99.1079 184.81C98.2127 179.236 98.7571 173.581 99.2142 167.989L99.3827 165.913C99.5868 163.434 99.8092 160.954 100.105 158.485C100.238 157.381 100.37 156.277 100.516 155.174L100.628 154.348C100.811 153.041 100.93 151.742 101.319 150.489C101.196 150.449 101.078 150.384 100.973 150.284C99.8027 149.173 100.367 147.246 100.901 145.925C101.428 144.621 102.232 143.484 103.238 142.504C103.458 142.29 103.767 142.153 104.078 142.146C106.519 140.528 109.197 139.72 111.984 140.603C112.062 140.229 112.142 139.855 112.226 139.482L112.311 139.11C112.528 138.185 112.609 136.657 113.406 136.038ZM138.422 282.127C139.179 281.919 140.008 282.138 140.563 282.694C141.118 283.249 141.338 284.078 141.129 284.836C141.025 285.209 140.836 285.533 140.563 285.808C140.308 286.061 140.011 286.242 139.671 286.35L139.592 286.374L139.468 286.425C139.088 286.527 138.708 286.527 138.329 286.425C137.966 286.324 137.651 286.14 137.384 285.874C137.118 285.607 136.934 285.292 136.833 284.928C136.731 284.549 136.731 284.169 136.833 283.789L136.884 283.665C136.989 283.292 137.177 282.968 137.45 282.694C137.725 282.421 138.049 282.232 138.422 282.127ZM183.394 206.625C183.518 206.482 183.72 206.665 183.643 206.817C182.463 209.13 181.148 211.428 179.856 213.683C179.959 214.307 180.062 214.927 180.18 215.532C180.684 218.107 181.3 220.636 181.702 223.236C183.147 232.582 183.898 242.029 184.541 251.459C185.187 260.922 185.27 270.39 185.367 279.872C185.375 280.693 184.743 281.649 183.896 281.803C183.509 281.874 183.219 281.861 182.832 281.803C181.951 281.674 181.399 280.664 181.362 279.872C181.109 274.572 180.769 269.28 180.375 263.989C179.677 254.608 179.251 245.203 178.687 235.813L178.488 232.531C178.275 228.974 178.08 225.416 178.017 221.854C177.974 219.495 178.1 217.136 178.023 214.779C177.951 212.603 177.731 210.238 178.21 208.1C178.228 208.02 178.355 207.999 178.391 208.076C178.89 209.126 179.206 210.267 179.449 211.432C180.734 209.807 182.042 208.177 183.394 206.625ZM99.2256 149.149C99.4061 149.135 99.3989 149.407 99.2256 149.427C96.704 149.719 94.2679 150.746 91.8869 151.618L91.683 151.693C89.2775 152.566 86.9322 153.581 84.6752 154.791C80.2625 157.158 76.2104 160.209 72.6277 163.702C58.3238 177.645 51.8051 197.751 47.0286 216.646C44.3747 227.144 42.4874 237.82 41.2642 248.577C40.6593 253.897 40.2317 259.238 39.9824 264.586C39.8548 267.328 39.7743 270.071 39.7407 272.815C39.7234 274.221 39.7183 275.627 39.72 277.032C39.7208 277.676 39.8358 278.487 39.6636 279.113C39.5039 279.692 39.0535 280.202 38.7203 280.685C38.3254 281.258 37.6158 281.228 37.2154 280.685L37.0678 280.488C36.6408 279.921 36.223 279.379 36.162 278.639C36.0968 277.845 36.1428 277.027 36.1399 276.229C36.1331 274.623 36.153 273.016 36.1851 271.41C36.247 268.331 36.3682 265.254 36.5485 262.18C36.9144 255.942 37.5167 249.717 38.3791 243.528C39.912 232.527 42.2098 221.631 45.2195 210.94C48.0589 200.855 51.4228 190.799 56.2147 181.457C60.664 172.783 66.5009 164.714 74.2029 158.652C77.7845 155.833 81.6834 153.484 85.887 151.715C88.0071 150.822 90.2335 150.094 92.4976 149.679C94.7366 149.268 96.9659 149.325 99.2256 149.149ZM138.856 264.301C139.256 264.298 139.702 264.386 140.045 264.607L140.503 264.961C140.627 265.121 140.751 265.281 140.874 265.442C141.161 265.815 141.199 266.42 141.139 266.865C141.125 267.163 141.037 267.439 140.874 267.695L140.525 268.148C140.19 268.421 139.91 268.617 139.504 268.748C139.291 268.817 139.087 268.831 138.883 268.821L138.815 268.816L138.856 268.822L138.784 268.814C138.718 268.808 138.651 268.801 138.585 268.792C138.539 268.786 138.493 268.783 138.448 268.777C138.404 268.773 138.362 268.771 138.318 268.775C137.802 268.824 137.283 268.531 136.916 268.194C136.586 267.891 136.289 267.248 136.335 266.792L136.355 266.602C136.39 266.28 136.418 266.154 136.554 265.831C136.687 265.517 136.872 265.24 137.123 265.006C137.605 264.557 138.195 264.305 138.856 264.301ZM137.257 240.781C137.943 240.034 139.12 239.979 139.97 240.431C140.177 240.541 140.367 240.718 140.549 240.865C141.009 241.237 141.19 241.908 141.215 242.474C141.24 243.033 140.946 243.697 140.549 244.083L140.453 244.176C140.216 244.406 139.877 244.606 139.546 244.667C139.011 244.766 138.563 244.763 138.065 244.553C137.638 244.372 137.269 244.082 137.019 243.689L136.978 243.622C136.961 243.594 136.945 243.566 136.929 243.538L136.907 243.494C136.431 242.578 136.559 241.541 137.257 240.781ZM137.612 217.137C137.921 217.04 138.23 217.026 138.539 217.096C138.749 217.096 138.945 217.149 139.126 217.254C139.323 217.309 139.494 217.409 139.639 217.554C139.813 217.657 139.953 217.796 140.056 217.971C140.262 218.195 140.4 218.459 140.472 218.761L140.555 219.38L140.472 219.998L140.238 220.554C140.173 220.638 140.108 220.722 140.043 220.806C139.939 220.981 139.8 221.12 139.625 221.224C139.511 221.337 139.38 221.422 139.234 221.481C138.717 221.852 138.027 221.973 137.414 221.804C137.05 221.702 136.733 221.518 136.465 221.251C136.199 220.983 136.014 220.666 135.913 220.302L135.871 220.011C135.817 219.621 135.808 219.405 135.918 218.909C135.967 218.691 136.107 218.384 136.181 218.254C136.495 217.701 137.009 217.322 137.612 217.137ZM164.45 200.127C165.338 200.121 166.225 200.123 167.113 200.133L167.778 200.141C168.892 200.159 169.847 200.044 170.723 200.818C171.359 201.379 171.079 202.321 170.475 202.744C169.561 203.384 168.414 203.062 167.362 202.991C166.254 202.917 165.144 202.855 164.034 202.805C161.885 202.709 159.735 202.648 157.583 202.638C155.437 202.629 153.287 202.65 151.14 202.684C148.956 202.72 146.682 202.923 144.51 202.697C144.212 202.666 144.145 202.274 144.439 202.171C146.486 201.463 148.788 201.234 150.933 200.963C153.145 200.683 155.357 200.485 157.583 200.357C159.87 200.226 162.16 200.143 164.45 200.127ZM137.608 193.171L137.681 193.172C138.072 193.173 138.438 193.265 138.779 193.448L138.851 193.489L139.32 193.851C139.607 194.141 139.806 194.481 139.916 194.874L139.999 195.49C140.011 195.81 139.944 196.107 139.799 196.384C139.706 196.671 139.546 196.92 139.32 197.13C139.11 197.356 138.862 197.515 138.574 197.609C138.319 197.743 138.046 197.81 137.755 197.81L137.681 197.809C137.263 197.807 136.873 197.702 136.512 197.492L136.043 197.13C135.756 196.84 135.557 196.499 135.447 196.107L135.364 195.49C135.352 195.171 135.419 194.873 135.564 194.597C135.657 194.31 135.817 194.061 136.043 193.851C136.253 193.625 136.501 193.465 136.789 193.372C137.044 193.238 137.317 193.171 137.608 193.171ZM144.478 138.712C144.978 137.989 145.882 138.632 145.753 139.214C145.787 140.847 145.871 142.433 146.242 144.033C146.412 144.765 146.635 145.499 146.979 146.17L147.123 146.452C147.568 147.332 147.914 148.161 147.314 149.126C147.032 149.58 146.522 149.922 145.968 149.898C143.514 149.792 143.177 146.375 143.028 144.468C142.874 142.503 143.353 140.344 144.478 138.712Z" fill="black"/>
<path fill-rule="evenodd" clip-rule="evenodd" d="M92.9217 59.6854C94.0151 58.5092 95.4134 57.633 96.9421 57.353C95.5448 58.0527 94.1789 58.7821 92.9217 59.6854ZM90.7802 69.8268C90.5869 68.9305 90.457 68.0255 90.4161 67.1207C90.6605 67.4931 91.0507 67.7419 91.489 67.8704C91.2059 68.5059 90.9651 69.1607 90.7802 69.8268ZM163.94 83.8802C162.678 78.614 156.79 68.4846 155.398 66.535C153.887 61.7075 162.129 57.8361 157.647 54.0612C155.617 52.3579 152.935 51.7551 150.419 51.1511C132.999 46.9571 114.283 49.0722 98.1261 56.7846C95.6685 56.2662 93.1081 57.2794 91.321 59.059C82.925 67.5189 94.3671 82.783 96.8692 92.3204C101.162 102.955 92.3192 104.744 93.2675 113.742C94.0043 118.39 98.7008 119.619 102.664 120.321C103.299 120.47 104.148 120.493 104.353 121.166C104.996 125.095 107.197 128.839 110.152 131.381C109.894 132.148 110.091 133.08 111.003 133.754C119.26 139.906 129.672 142.985 139.971 142.431C152.245 141.772 158.592 134.719 160.124 132.903C168.592 121.438 167.58 106.311 165.853 92.6476C164.649 83.1293 166.175 93.2093 163.94 83.8802Z" fill="#D08B5B"/>
<path fill-rule="evenodd" clip-rule="evenodd" d="M126.094 40.0593C126.48 38.8504 127.572 38.1234 128.822 38.2734C129.929 38.4045 131.114 39.5056 130.979 40.7209C130.954 40.9555 130.92 41.1753 130.88 41.3824L130.885 41.3842L130.89 41.3845L130.863 41.4648C130.781 41.8516 130.667 42.1982 130.498 42.5258C130.283 43.1535 130.077 43.7833 129.872 44.4153C130.167 44.4026 130.469 44.4195 130.775 44.4765C131.091 43.665 131.409 42.8555 131.725 42.0418C132.065 41.1731 132.303 40.0572 132.973 39.3851C133.831 38.527 135.32 38.3495 136.366 38.9624C137.47 39.6091 137.864 40.7589 137.624 41.9911C137.502 42.6196 137.083 43.057 136.565 43.3318L136.509 43.3606L136.11 44.3075C136.233 44.2546 136.359 44.206 136.496 44.1659C136.711 44.1025 136.922 44.0623 137.129 44.0454C137.698 43.0119 138.324 42.008 138.971 41.0231C139.715 39.8902 141.17 39.4084 142.391 40.1248C143.483 40.7652 144.069 42.4476 143.287 43.5529C142.692 44.392 142.129 45.248 141.575 46.1124C141.67 46.1293 141.765 46.1504 141.855 46.1779C141.897 46.1209 141.942 46.0638 141.988 46.0067C142.593 45.2543 143.297 44.69 144.02 44.0644C144.697 43.4769 145.009 42.5533 145.899 42.1073C147.018 41.5472 148.368 41.8156 149.034 42.9316C150.463 45.3219 148.064 47.0677 146.529 48.5155C147.864 47.6806 149.253 46.9176 150.678 46.2582C151.479 45.8884 152.293 45.5312 153.12 45.2226C154.344 44.7661 155.335 44.9121 156.341 45.7616C156.79 46.142 157.013 46.9728 156.807 47.5263C156.406 48.5873 155.774 49.2319 154.665 49.5384C153.885 49.754 153.086 49.8998 152.306 50.1259C150.999 50.5021 149.73 50.9608 148.498 51.5335C148.587 51.5885 148.671 51.6477 148.749 51.7153C149.668 51.4173 150.604 51.1594 151.545 50.9396C153.104 50.5731 154.691 50.3254 156.285 50.1705L156.815 50.1211C158.726 49.9372 161.025 49.5979 162.198 51.4321C162.583 52.0365 162.625 53.0341 162.198 53.6322C161.38 54.782 160.566 55.0102 159.212 55.0314C160.545 55.173 161.875 55.3484 163.199 55.5534C164.111 55.6929 165.024 55.851 165.933 56.0265L166.387 56.1156C167.493 56.3375 168.729 56.4664 169.68 57.109C171.754 58.5123 170.78 61.2451 168.482 61.5367C167.371 61.6762 166.138 61.2049 165.048 60.9851C163.99 60.7717 162.927 60.5836 161.86 60.4187C161.308 60.332 160.756 60.256 160.201 60.1862C161.329 60.349 162.448 60.5793 163.538 60.9048L163.841 60.9964C165.948 61.6402 168.792 62.6655 169.45 64.9226C169.848 66.2942 168.758 67.4905 167.439 67.5708C166.212 67.6448 165.189 66.9114 164.148 66.3703C163.389 65.9772 162.617 65.6834 161.799 65.4319C160.954 65.172 160.091 64.9564 159.223 64.781C159.957 65.1864 160.672 65.632 161.358 66.1304L161.673 66.364C163.497 67.7264 166.279 69.8358 165.636 72.3896C165.434 73.1948 164.538 73.9641 163.677 73.8817C161.439 73.6725 160.203 71.2821 158.514 70.0013C158.074 69.6674 157.591 69.3377 157.085 69.0164C159.644 72.0768 161.681 75.6148 163.231 79.269C166.636 87.3083 167.681 94.7534 167.706 103.397L167.706 103.665C167.711 108.433 167.603 113.288 167.139 118.035C166.709 122.42 165.921 126.749 163.937 130.72C160.612 137.38 154.134 142.566 146.989 144.54C139.039 146.738 130.153 145.02 123.64 139.948C121.979 138.654 124.182 135.846 125.879 137.04C132.657 141.805 141.423 143.315 149.202 140.089C155.373 137.532 160.342 132.031 162.448 125.696C163.789 121.667 164.179 117.37 164.657 113.17L164.689 112.891C165.195 108.499 165.488 104.077 165.484 99.6559C165.478 91.4449 164.302 84.6859 160.699 77.238C159.004 73.7295 156.805 70.4855 154.178 67.6384C153.381 67.8012 152.533 67.5729 151.728 67.4863C151.317 67.4419 150.906 67.3996 150.495 67.3616C150.915 67.6338 151.327 67.9168 151.731 68.2065L152.262 68.5903C153.924 69.7833 156.032 71.1421 155.605 73.4484C155.489 74.0719 154.869 74.6447 154.269 74.7863C152.091 75.3062 150.594 73.1843 149.122 71.9246C147.843 70.8298 146.504 69.8492 145.14 68.8664C144.83 68.6445 144.518 68.4225 144.204 68.2027C144.499 68.5477 144.786 68.898 145.066 69.2516L145.48 69.7776C146.733 71.3491 148.539 73.3917 147.423 75.4288C147.107 76.0037 146.432 76.3862 145.779 76.3735C143.531 76.327 142.637 73.7697 141.583 72.155C140.677 70.7706 139.692 69.4666 138.674 68.1626C138.394 67.8054 138.111 67.4482 137.824 67.091C133.104 67.3362 128.401 67.9618 123.779 68.9615C120.604 69.6484 117.482 70.5384 114.383 71.5125L114.126 71.5946C112.448 72.136 110.72 72.8288 109.511 74.017C109.338 74.8356 109.471 75.6989 109.636 76.5164L109.765 77.1422C110.295 79.7588 110.656 82.3271 110.386 85.0135C110.106 87.7843 109.273 90.2762 108.257 92.8504C107.776 94.0635 107.278 93.8438 107.108 95.1457C106.977 96.1373 107.058 97.161 107.147 98.161L107.222 99.0088C107.409 101.229 107.503 103.651 106.051 105.483C105.826 105.764 105.343 105.652 105.183 105.371C105.12 105.259 105.052 105.151 104.978 105.047C104.278 104.031 103.205 103.452 101.978 103.228C101.822 103.2 101.883 102.991 102.014 102.974C103.051 102.852 104.034 103.111 104.869 103.648C104.473 102.276 101.408 102.943 100.4 103.21L100.366 103.219C99.1091 103.557 97.92 104.107 96.8722 104.885C94.764 106.449 93.5455 108.888 93.6066 111.515C93.6678 114.097 94.998 116.484 97.2833 117.72C98.386 118.316 99.6403 118.603 100.888 118.591C102.191 118.578 103.351 118.005 104.656 118.086C105.411 118.132 105.988 118.944 105.552 119.652C105.261 120.125 104.881 120.497 104.443 120.782C105.512 123.253 106.876 125.61 108.448 127.784C109.319 128.991 110.306 130.105 111.392 131.122C112.239 131.916 114.075 132.836 113.972 134.161C113.936 134.639 113.69 134.93 113.255 135.108C111.905 135.661 110.263 133.756 109.36 132.837L109.288 132.764C108.162 131.64 107.135 130.397 106.241 129.078C104.656 126.736 103.671 124.096 103.264 121.324C101.099 121.977 98.232 121.364 96.4654 120.563C90.9123 118.048 89.0971 110.551 92.4724 105.559C93.1259 104.593 93.9439 103.767 94.8758 103.099C94.6713 102.987 94.4794 102.843 94.3087 102.661C93.364 101.655 92.6961 100.343 92.0333 99.1327L91.9538 98.988C91.3653 97.9228 90.8102 96.8409 90.2899 95.7423L90.0964 95.3295C88.9348 92.825 87.9165 91.7302 87.088 89.0968C86.2911 86.5564 85.6628 83.9674 85.256 81.3339L85.1478 80.6369C84.9125 79.1088 84.69 77.4748 84.8617 75.9234C83.679 76.3101 82.49 76.549 81.3199 75.9677C80.5483 75.5852 80.1224 74.4693 80.386 73.6682C80.5778 73.0786 80.8983 72.6157 81.3052 72.2522C81.0627 72.1296 80.835 71.9732 80.6347 71.7999L80.4598 71.648C79.7514 71.0306 79.7008 69.8576 80.1309 69.0841C80.173 69.0101 80.2152 68.934 80.2553 68.86C80.6643 68.1266 81.5097 67.6469 82.3445 67.6596C82.4794 67.6617 82.6144 67.6617 82.7514 67.6596C82.3614 67.5729 81.9798 67.4398 81.6172 67.2157C79.9812 66.2076 80.1878 63.4748 82.1674 62.9929C82.9981 62.7922 83.9151 62.8746 84.8301 63.0902C84.7964 63.0711 84.7626 63.0521 84.7289 63.031C84.0374 62.6062 83.4577 61.7756 83.523 60.9238C83.5947 59.9812 83.8983 59.3091 84.7289 58.8146C85.4499 58.3876 86.4703 58.3475 87.1871 58.8146C87.809 59.2225 88.4183 59.6726 89.0044 60.1566C88.4162 59.4317 87.906 58.6434 87.6994 57.8064C87.4443 56.7645 87.8702 55.6295 88.8062 55.08C89.5525 54.6425 90.341 54.6911 91.0451 55.0293C91.0072 54.4819 91.14 53.9239 91.5026 53.4293C92.2447 52.4151 93.594 51.8315 94.7682 52.5713C94.9221 52.6685 95.1288 52.8355 95.329 53.0405C94.939 51.7956 95.2911 50.4895 96.6214 49.9273C97.433 49.5828 98.5314 49.7561 99.2356 50.35C98.7886 47.9258 102.358 46.1441 103.745 48.6486C104.06 49.216 104.371 49.8134 104.65 50.4245L104.753 50.6543L104.763 50.6501L104.692 50.4821L104.62 50.314C104.234 49.4158 103.743 48.4816 103.608 47.5073C103.41 46.0659 104.051 44.6985 105.615 44.4871C106.422 44.3772 107.321 44.745 107.862 45.3877C107.569 43.1514 110.061 41.5261 111.855 43.1958C112.705 43.9862 113.158 45.1423 113.698 46.1568C114.004 46.7295 114.316 47.3002 114.621 47.8751C114.699 47.7821 114.784 47.6891 114.872 47.5982C114.419 46.2371 114.067 44.8422 113.77 43.4388C113.487 42.1158 114.147 40.742 115.509 40.3681C116.746 40.0255 118.296 40.7908 118.572 42.1117C118.766 43.0415 118.996 43.9611 119.249 44.876C119.422 44.8337 119.593 44.8041 119.761 44.783C119.775 44.6111 119.791 44.4383 119.809 44.2664L119.875 43.655C120.023 42.2581 120.171 40.6635 120.9 39.476C122.141 37.447 125.325 38.2882 125.359 40.687C125.377 41.9277 124.874 43.1577 124.699 44.3857C124.623 44.9204 124.578 45.4614 124.553 46.0025C124.893 44.206 125.359 42.4328 125.898 40.687C125.961 40.4778 126.029 40.2686 126.094 40.0593ZM98.6284 109.336C101.422 108.903 103.975 110.464 105.63 112.652C105.931 113.051 105.733 113.616 105.461 113.952C105.265 114.199 105.002 114.229 104.704 114.267C104.363 114.311 103.931 114.034 103.781 113.736C102.716 111.606 100.817 110.259 98.6284 109.431C98.5883 109.416 98.5757 109.344 98.6284 109.336ZM102.501 71.165L102.585 71.0739C103.151 70.4862 102.257 69.5883 101.691 70.1774C101.094 70.7975 100.698 71.5507 100.317 72.3141C99.9536 73.042 101.044 73.6849 101.409 72.9543L101.575 72.6222C101.836 72.1059 102.114 71.5957 102.501 71.165ZM94.6559 69.9586C95.457 69.8234 95.1174 68.6011 94.3196 68.736C93.2862 68.9105 92.2567 69.109 91.2231 69.2838C90.4222 69.4191 90.7618 70.6413 91.5595 70.5067C92.593 70.3319 93.6224 70.1334 94.6559 69.9586ZM142.379 61.6143C141.605 61.3554 141.273 62.5798 142.043 62.8372C143.107 63.1929 144.161 63.5575 145.17 64.0514C145.899 64.4081 146.541 63.3148 145.809 62.9564C144.701 62.4143 143.547 62.0049 142.379 61.6143ZM94.4737 59.9708C93.7179 59.6678 93.3897 60.8938 94.1375 61.1937L96.8697 62.2892C97.6255 62.5922 97.9538 61.3664 97.206 61.0665L94.4737 59.9708ZM151.92 56.9934L151.82 56.9304C151.135 56.4853 150.5 57.5826 151.181 58.0254C151.581 58.2852 152.068 58.4614 152.434 58.7708L152.511 58.8393C153.102 59.3994 153.998 58.5045 153.405 57.9425C152.971 57.5318 152.422 57.3031 151.92 56.9934Z" fill="black"/>
<path fill-rule="evenodd" clip-rule="evenodd" d="M149.372 128.003C148.022 128.014 146.504 127.507 145.489 127.11L145.224 127.005C144.346 126.653 143.443 126.249 142.77 125.571C142.555 125.35 142.326 125.101 142.21 124.839C142.141 124.685 142.113 124.526 142.179 124.368C142.422 124.344 142.653 124.313 142.871 124.273C142.975 124.254 143.075 124.234 143.151 124.234C143.433 124.232 143.712 124.268 143.99 124.303C144.03 124.308 144.07 124.313 144.111 124.318C144.327 124.345 144.543 124.374 144.758 124.403C145.384 124.487 146.007 124.57 146.642 124.601C147.101 124.623 147.582 124.597 148.067 124.57C149.325 124.502 150.626 124.408 151.595 125.29C151.849 125.521 151.955 125.812 151.955 126.108C151.955 126.468 151.804 126.835 151.573 127.122C151.05 127.773 150.244 127.996 149.372 128.003ZM156.736 116.649C156.148 117.531 155.17 118.098 153.828 118.036C151.163 117.914 147.982 116.908 145.749 115.453C145.168 115.075 144.791 114.469 144.723 113.82L144.603 112.666L143.953 113.627C143.885 113.727 143.817 113.827 143.749 113.927C143.561 114.202 143.373 114.477 143.195 114.759C142.514 115.842 141.89 116.935 141.323 118.082C140.921 118.894 140.628 119.802 140.334 120.718C139.837 122.265 139.357 123.787 138.296 124.874C138.135 125.038 137.888 125.097 137.662 125.068C137.463 125.043 137.268 124.945 137.173 124.75C135.905 122.17 137.61 119.061 138.994 116.9L139.141 116.674C140.424 114.721 142.519 112.136 144.919 111.784L145.194 112.223L145.593 111.956C146.247 111.52 147.109 111.54 147.864 111.881L148.619 112.222C150.025 112.853 151.411 113.436 152.932 113.755C153.043 113.778 153.154 113.799 153.264 113.82C153.369 113.839 153.474 113.856 153.579 113.873C153.557 113.769 153.532 113.666 153.508 113.563C153.482 113.454 153.456 113.345 153.428 113.236C153.4 113.124 153.369 113.012 153.338 112.901C153.216 112.457 153.079 112.017 152.916 111.586C152.302 109.968 151.321 108.454 150.367 107.01L150.255 106.84C150.118 106.633 149.969 106.417 149.814 106.194C149.07 105.122 148.245 103.959 148.186 102.792C149.174 102.854 150 103.468 150.727 104.002C151.725 104.735 152.65 105.573 153.49 106.483C155.117 108.249 156.578 110.507 157.219 112.841C157.585 114.178 157.424 115.616 156.736 116.649ZM130.694 103.334L130.694 103.286C130.697 101.938 131.481 98.8613 133.421 98.8613C134.632 98.8613 135.368 100.956 135.495 103.114L135.5 103.202C135.556 104.545 135.188 107.478 133.421 107.478C131.635 107.478 130.712 104.7 130.694 103.334ZM159.248 102.911L159.248 102.863C159.245 101.516 158.46 98.4386 156.521 98.4386C155.34 98.4386 154.611 100.429 154.457 102.53L154.446 102.692C154.37 103.989 154.714 107.056 156.521 107.056C158.307 107.056 159.229 104.277 159.248 102.911ZM137.226 94.2128C136.969 94.243 136.713 94.2824 136.457 94.3231C135.711 94.4419 134.97 94.5846 134.233 94.7509C132.834 95.0669 131.446 95.4658 130.085 95.9167C128.811 96.3388 127.556 96.8157 126.303 97.2927C126.236 97.3181 126.169 97.3436 126.102 97.369C125.659 97.5374 125.218 97.7261 124.775 97.9154C124.102 98.2035 123.425 98.4935 122.735 98.7121C124.554 96.1958 127.357 94.3313 130.054 92.9971C131.593 92.2358 133.226 91.622 134.868 91.119L135.783 90.844C137.13 90.4466 138.602 90.0794 139.867 90.8719C140.368 91.1854 140.687 91.6727 140.788 92.1995C140.886 92.7161 140.774 93.27 140.417 93.7323C140.106 94.1349 139.719 94.3643 139.307 94.4429C138.852 94.5296 138.37 94.4344 137.932 94.2C137.58 94.1738 137.477 94.1832 137.373 94.1948L137.226 94.2128ZM157.486 94.4688C156.584 94.2728 155.692 94.1941 154.767 94.2223C154.349 94.2349 153.944 94.2995 153.541 94.3646C152.914 94.4656 152.29 94.5699 151.615 94.4473C151.262 94.3833 150.962 94.1772 150.731 93.9082C150.46 93.5936 150.281 93.1916 150.223 92.8094C150.164 92.4146 150.223 92.0692 150.369 91.7643C150.541 91.4041 150.832 91.1005 151.183 90.8346C152.246 90.0296 154.07 90.2232 155.324 90.3859C156.564 90.5472 157.796 90.9317 158.892 91.5424C159.973 92.1452 160.913 92.9573 161.646 93.9499C162.265 94.7865 162.556 95.7494 162.856 96.7299C161.442 95.5428 159.277 94.858 157.486 94.4688Z" fill="black"/>
<path fill-rule="evenodd" clip-rule="evenodd" d="M154.773 123.403C155.352 123.997 155.908 124.633 156.432 125.29C156.578 126.335 156.611 127.391 156.478 128.482C156.284 130.063 155.853 131.608 155.27 133.091C154.926 133.043 154.585 132.946 154.254 132.793C153.202 132.309 152.614 131.335 151.902 130.475C150.485 128.765 147.899 127.755 146.09 129.528C145.304 130.299 144.802 131.367 144.1 132.214C143.329 133.146 142.463 134.032 141.559 134.835C141.447 134.936 141.33 135.046 141.21 135.154C140.707 134.579 140.213 134 139.729 133.413C138.29 131.663 137.048 129.725 136.395 127.539C136.188 126.846 136.059 126.123 136.009 125.394C136.649 124.599 137.38 123.877 138.21 123.278C140.714 121.471 143.597 121.178 146.597 121.021C149.701 120.861 152.496 121.072 154.773 123.403ZM162.345 131.787C162.225 130.578 162.039 129.321 161.764 128.065C160.761 123.407 158.587 118.764 154.228 116.636C152.166 115.628 149.823 115.272 147.601 115.759C143.701 114.298 139.37 115.788 136.3 118.46C132.679 121.611 131.008 126.556 130.446 131.189C130.055 134.412 129.908 138.719 130.822 141.057C131.736 143.396 137.546 149.649 145.839 149.693C157.651 149.755 160.522 141.786 160.871 141.089C162.326 138.189 162.664 134.987 162.345 131.787Z" fill="black"/>
<path fill-rule="evenodd" clip-rule="evenodd" d="M166.747 108.863C164.807 111.287 157.215 113.977 153.174 111.057C149.133 108.136 147.536 106.1 146.996 102.451C146.939 102.061 146.235 101.803 145.938 102.079C144.273 103.626 143.195 105.596 142.127 107.572C140.923 109.8 139.737 112.042 137.548 113.55C133.672 115.629 126.659 115.925 124.587 115.008C120.618 113.252 117.479 109.495 116.765 104.325C116.765 104.325 116.039 102.032 115.403 101.55C114.799 101.092 111.471 100.685 111.107 100.617C104.537 99.3977 96.227 98.6203 90.3752 102.911C89.5832 103.39 86.872 105.189 86.832 104.747C86.8036 103.014 88.7666 99.0916 93.231 97.2253C98.7519 94.9174 106.959 94.7825 111.713 95.2918C111.952 95.3174 112.767 95.117 112.825 95.0921C120.028 91.9724 128.315 92.8009 136.022 94.1121C137.127 94.3265 147.013 96.7755 150.946 95.2918C157.448 92.6364 164.38 90.7126 171.402 91.4694C171.46 91.4758 172.347 96.8581 171.656 97.2253C171.107 97.5175 170.172 98.2663 169.84 98.676C169.543 99.0424 169.356 99.4978 169.372 100.129C169.506 103.779 168.465 106.715 166.747 108.863ZM140.013 105.606C140.837 104.413 141.098 101.733 140.752 99.7776C140.578 98.7876 140.238 97.9996 139.812 97.6073C139.529 97.3466 139.206 97.2238 138.854 97.2421C138.661 97.252 138.452 97.307 138.23 97.4265C135.232 95.8038 131.599 95.2196 128.156 95.3876C125.415 95.3871 123.459 96.0344 122.133 97.0419C120.537 98.2543 119.818 99.9971 119.776 101.887C119.727 104.13 120.648 106.584 122.158 108.525C123.604 110.383 125.582 111.761 127.728 112.079C130.164 112.562 132.647 112.094 134.805 110.95C137.019 109.775 138.889 107.89 140.013 105.606ZM164.051 106.871C165.44 105.229 166.364 103.092 166.505 100.975C166.633 99.048 166.117 97.1395 164.691 95.5622C163.398 94.4521 161.114 94.4338 158.711 95.0519C155.603 95.8512 152.389 97.6375 151.317 98.7912C151.065 98.9236 150.831 99.1541 150.626 99.6487L150.625 99.825C150.3 101.323 150.493 102.843 151.054 104.245C151.664 105.768 152.711 107.15 153.986 108.205C155.681 109.602 157.45 110.029 159.106 109.804C160.981 109.548 162.726 108.438 164.051 106.871Z" fill="white"/>
<path fill-rule="evenodd" clip-rule="evenodd" d="M150.722 94.6984C157.307 92.0092 164.345 90.0709 171.47 90.839C172.059 90.6147 172.79 90.8037 173.052 91.6372C175.59 99.3716 169.93 97.2207 170.006 100.112C170.599 116.323 148.819 119.092 146.369 102.543L146.324 102.57C142.801 105.859 142.059 111.212 137.908 114.072C129.535 120.198 117.665 115.345 116.141 104.439L116.108 104.291C115.596 102.066 114.984 101.514 112.46 101.525L112.061 101.446C105.504 100.153 96.7716 98.9916 90.7318 103.437C89.4181 104.201 89.3564 106.165 88.2464 107.019C87.0303 107.255 86.2812 105.792 86.1988 104.78C86.0061 94.6849 104.063 93.9587 112.15 94.825C112.304 94.6651 112.634 94.6849 112.745 94.8842C120.059 91.7165 128.299 92.1548 136.13 93.487C140.98 94.4264 145.772 96.5664 150.722 94.6984ZM170.814 92.7027C166.863 92.5051 163.209 92.7213 159.331 93.6713C157.287 94.1646 155.719 94.7883 153.762 95.5384C141.56 100.947 140.152 91.3333 112.8 95.1017C113.154 96.6179 113.219 98.1191 113.238 99.5436C118.823 99.3185 117.508 104.653 119.6 108.401L119.665 108.514C122.714 113.981 129.91 116.531 135.714 112.905C140.557 110.081 141.029 102.919 145.851 100.077C150.031 99.9127 148.361 105.556 150.636 107.875C153.837 112.149 160.642 112.746 164.657 108.726C166.54 106.792 167.541 104.336 167.597 101.698C167.702 100.012 167.413 98.299 168.687 97.1133C169.58 96.2058 171.166 96.5087 171.348 95.1368C171.464 94.3256 171.127 93.4458 170.814 92.7027ZM127.876 94.9122C131.801 94.7188 135.953 95.4006 139.323 97.3262C141.818 95.3404 142.429 103.233 140.773 105.515C138.388 110.398 132.834 113.608 127.487 112.542C119.145 111.333 113.332 94.8976 127.876 94.9122ZM139.084 97.8554L138.87 97.8242C135.255 97.2724 125.411 94.7158 121.614 98.7509C117.93 105.444 127.278 116.687 137.005 107.732C139.713 104.974 140.762 101.631 139.084 97.8554ZM150.541 98.7109C152.413 96.4932 161.955 92.0011 165.281 94.8838C171.351 101.689 161.724 115.455 153.661 108.749C150.976 106.507 149.209 102.935 149.982 99.4762L149.983 99.3312C149.985 99.2786 149.995 99.2906 150.051 99.2251C150.15 98.9637 150.329 98.7967 150.541 98.7109ZM165.196 102.836C167.243 91.7279 158.687 95.9507 151.66 98.9155C152.038 99.2602 152.036 99.7309 151.928 100.118C151.186 108.359 161.2 113.03 165.196 102.836ZM112.008 95.3648C109.077 96.3578 89.691 94.582 87.9001 103.673C89.7906 100.609 93.7058 99.3932 97.2255 98.7333C102.013 97.8357 106.774 98.3554 111.495 99.3L111.592 98.3227C111.697 97.286 111.807 96.3163 112.008 95.3648Z" fill="black"/>
</svg>
