<svg width="240" height="324" viewBox="0 0 240 324" fill="none" xmlns="http://www.w3.org/2000/svg">
<path fill-rule="evenodd" clip-rule="evenodd" d="M154.008 150.111C150.095 147.262 148.155 142.597 146.695 141.803C145.621 141.219 145.64 137.188 143.487 135.761C140.598 133.846 131.39 132.422 128.04 132.156C124.825 131.901 119.232 132.437 116.216 133.615C111.185 135.579 109.178 139.326 106.963 144.153C106.963 144.153 156.697 152.069 154.008 150.111Z" fill="#D08B5B"/>
<path fill-rule="evenodd" clip-rule="evenodd" d="M81.0307 153.44H160.544L188.066 177.934L200.282 280.884L182.907 286.297L75.5502 288.092L42.0217 278.609L39.9297 206.947L81.0307 153.44Z" fill="#78E185"/>
<path fill-rule="evenodd" clip-rule="evenodd" d="M189.102 262.182C188.548 261.905 187.97 261.589 187.338 261.567C186.251 261.529 186.25 259.838 187.338 259.876C188.286 259.909 189.12 260.305 189.955 260.722C190.929 261.209 190.072 262.667 189.102 262.182ZM187.338 214.59C188.079 214.59 188.826 214.684 189.396 215.203C189.734 215.511 189.707 216.086 189.396 216.398C189.062 216.732 188.538 216.706 188.2 216.398C188.31 216.498 188.201 216.399 188.161 216.377C188.152 216.372 188.147 216.368 188.144 216.366C188.136 216.364 188.127 216.362 188.113 216.359C188.025 216.336 187.938 216.315 187.849 216.299C187.847 216.303 187.66 216.286 187.616 216.284C187.523 216.281 187.43 216.281 187.338 216.281C186.879 216.28 186.493 215.894 186.493 215.435C186.493 214.979 186.881 214.59 187.338 214.59ZM179.391 233.556C179.149 234.618 177.52 234.165 177.761 233.106C178.112 231.566 178.048 229.988 177.761 228.442C177.563 227.377 179.192 226.925 179.391 227.993C179.735 229.847 179.812 231.708 179.391 233.556ZM177.256 172.79C175.997 172.491 174.752 172.456 173.465 172.455C172.376 172.455 172.377 170.764 173.465 170.764C174.901 170.765 176.303 170.827 177.706 171.16C178.765 171.412 178.314 173.041 177.256 172.79ZM173.038 213.974C172.309 213.609 171.578 213.244 170.848 212.878C169.874 212.391 170.731 210.933 171.701 211.418L173.892 212.514C174.866 213.001 174.009 214.459 173.038 213.974ZM172.734 247.27C171.808 248.606 170.506 249.436 168.944 249.85C167.89 250.13 167.444 248.498 168.495 248.22C169.612 247.923 170.605 247.384 171.275 246.417C171.891 245.528 173.356 246.374 172.734 247.27ZM166.894 187.741C166.644 187.272 166.267 187.074 165.799 187.064C164.711 187.039 164.711 185.348 165.799 185.373C166.865 185.397 167.844 185.933 168.354 186.887C168.867 187.847 167.407 188.701 166.894 187.741ZM156.174 199.233C155.871 199.563 155.284 199.555 154.979 199.233C154.793 199.036 154.636 198.816 154.512 198.575C154.466 198.484 154.421 198.39 154.37 198.302C154.347 198.262 154.321 198.223 154.295 198.185C154.286 198.177 154.268 198.158 154.249 198.138C153.924 197.794 153.932 197.287 154.249 196.942C154.552 196.612 155.139 196.62 155.444 196.942C155.63 197.139 155.787 197.359 155.911 197.6C155.957 197.692 156.002 197.785 156.053 197.874C156.076 197.914 156.102 197.953 156.128 197.991C156.137 197.999 156.155 198.018 156.174 198.038C156.499 198.381 156.491 198.888 156.174 199.233ZM155.273 224.2C154.172 224.704 152.965 224.704 151.864 224.2C151.448 224.009 151.349 223.407 151.561 223.043C151.808 222.622 152.303 222.55 152.717 222.74C153.217 222.968 153.922 222.968 154.42 222.74C154.837 222.549 155.327 222.617 155.576 223.043C155.79 223.409 155.688 224.01 155.273 224.2ZM152.271 241.872C152.082 242.32 151.673 242.558 151.196 242.576C150.723 242.594 150.371 242.174 150.351 241.731C150.338 241.444 150.493 241.199 150.715 241.047C150.716 241.032 150.716 241.016 150.716 241C150.716 240.526 151.103 240.175 151.561 240.155C152.017 240.134 152.406 240.558 152.406 241C152.406 241.299 152.387 241.595 152.271 241.872ZM147.91 269.967C146.561 269.989 145.243 270.31 143.895 270.332C142.805 270.35 142.808 268.659 143.895 268.641C145.243 268.619 146.561 268.298 147.91 268.276C149 268.258 148.997 269.949 147.91 269.967ZM142.301 161.616C141.512 162.369 140.537 162.74 139.575 163.21C138.601 163.686 137.745 162.227 138.722 161.75C139.537 161.351 140.438 161.057 141.106 160.421C141.894 159.67 143.091 160.864 142.301 161.616ZM140.182 181.105C139.628 180.828 139.051 180.512 138.418 180.49C137.332 180.452 137.33 178.761 138.418 178.799C139.367 178.832 140.2 179.228 141.035 179.645C142.01 180.132 141.153 181.589 140.182 181.105ZM130.022 259.322C129.772 258.854 129.395 258.656 128.927 258.645C127.839 258.621 127.838 256.93 128.927 256.955C129.994 256.979 130.972 257.515 131.482 258.469C131.995 259.429 130.535 260.282 130.022 259.322ZM126.504 222.607C126.167 222.298 126.191 221.724 126.504 221.411C126.869 221.046 127.234 220.681 127.599 220.316C127.933 219.982 128.457 220.006 128.794 220.316C129.13 220.625 129.107 221.198 128.794 221.511C128.429 221.877 128.064 222.242 127.699 222.607C127.365 222.941 126.841 222.917 126.504 222.607ZM122.355 279.828C121.136 279.799 119.993 279.449 118.845 279.067C117.816 278.725 118.26 277.092 119.294 277.437C120.292 277.769 121.294 278.112 122.355 278.137C123.443 278.162 123.443 279.853 122.355 279.828ZM116.879 243.672C115.778 243.641 114.864 243.08 114.091 242.328C113.31 241.568 114.506 240.374 115.286 241.133C115.729 241.563 116.239 241.963 116.879 241.981C117.967 242.011 117.967 243.702 116.879 243.672ZM120.28 197.175C120.293 197.625 120.483 198.107 120.762 198.403C121.509 199.194 120.316 200.391 119.567 199.599C118.95 198.945 118.616 198.069 118.59 197.175C118.558 196.084 120.249 196.089 120.28 197.175ZM107.388 160.35C107.034 159.657 106.571 158.845 105.866 158.462C104.908 157.942 105.762 156.483 106.719 157.002C107.677 157.522 108.363 158.548 108.847 159.496C109.342 160.465 107.883 161.319 107.388 160.35ZM105.197 177.933C104.805 177.922 104.416 177.855 104.038 177.753C103.876 177.709 103.716 177.658 103.554 177.614C103.485 177.595 103.191 177.559 103.372 177.568C102.914 177.544 102.527 177.201 102.527 176.723C102.527 176.283 102.915 175.853 103.372 175.877C103.999 175.911 104.569 176.225 105.197 176.243C106.284 176.273 106.285 177.964 105.197 177.933ZM99.721 204.959H97.8957C96.8064 204.959 96.8083 203.268 97.8957 203.268H99.721C100.81 203.268 100.808 204.959 99.721 204.959ZM97.5919 279.712C97.0383 279.989 96.3859 280.252 95.9376 280.676C95.1471 281.423 93.9505 280.229 94.7425 279.48C95.3136 278.94 96.0437 278.6 96.739 278.252C97.1486 278.047 97.6523 278.14 97.8952 278.556C98.1148 278.931 98 279.508 97.5919 279.712ZM93.5133 258.349C93.4426 258.329 93.3678 258.315 93.2962 258.306C93.0088 258.267 92.7082 258.28 92.4196 258.28C91.3303 258.28 91.332 256.589 92.4196 256.589C93.2767 256.59 94.1687 256.602 94.8426 257.202C95.1847 257.507 95.1515 258.089 94.8426 258.398C94.5067 258.734 93.9881 258.701 93.6475 258.398C93.6834 258.43 93.5602 258.362 93.5133 258.349ZM92.42 229.617C92.6655 229.111 92.6693 228.781 92.6698 228.218C92.6706 227.128 94.3607 227.13 94.3599 228.218C94.3595 229.035 94.238 229.731 93.8795 230.471C93.6794 230.883 93.0938 230.991 92.7234 230.774C92.3081 230.531 92.2212 230.028 92.42 229.617ZM87.5332 189.955C86.5529 190.289 85.6778 190.761 84.8146 191.331C83.9034 191.932 83.0577 190.468 83.9615 189.871C84.9467 189.221 85.9656 188.705 87.0838 188.325C88.1178 187.973 88.5574 189.607 87.5332 189.955ZM81.8326 161.499C81.1043 161.519 80.3526 161.799 79.7036 162.114C78.7282 162.588 77.8724 161.129 78.8507 160.654C79.7778 160.203 80.7921 159.837 81.8326 159.808C82.9225 159.777 82.9179 161.468 81.8326 161.499ZM79.2771 237.463C78.9906 237.476 78.7457 237.321 78.594 237.098C78.5782 237.098 78.5626 237.098 78.5469 237.098C78.0733 237.098 77.7226 236.711 77.7019 236.252C77.6814 235.796 78.105 235.407 78.5469 235.407C78.8452 235.407 79.1412 235.425 79.4184 235.542C79.8661 235.731 80.104 236.14 80.1221 236.618C80.1401 237.091 79.7205 237.443 79.2771 237.463ZM75.1208 178.999C74.0828 179.338 73.6421 177.705 74.6714 177.369C75.8797 176.974 77.1143 176.668 78.3224 176.273C79.3603 175.933 79.801 177.567 78.7715 177.903C77.5637 178.298 76.3288 178.604 75.1208 178.999ZM71.3305 210.912C71.0085 211.95 69.3777 211.505 69.7005 210.463C70.0124 209.457 70.0348 208.445 70.0354 207.401C70.036 206.311 71.7262 206.313 71.7255 207.401C71.7249 208.59 71.685 209.768 71.3305 210.912ZM60.0304 249.136C59.9689 249.557 59.6351 249.861 59.1982 249.88C58.7535 249.9 58.3371 249.477 58.3531 249.035C58.3842 248.184 59.0778 247.49 59.9283 247.459C60.4016 247.442 60.7536 247.86 60.7734 248.304C60.7929 248.736 60.4324 249.073 60.0304 249.136ZM54.3118 200.546C53.4188 200.845 52.4645 201.129 51.7643 201.79C50.9731 202.537 49.7765 201.343 50.5692 200.594C51.4924 199.722 52.68 199.311 53.8626 198.916C54.8983 198.57 55.3383 200.204 54.3118 200.546ZM50.4361 233.392C50.1906 233.812 49.6935 233.888 49.28 233.696C48.7257 233.438 48.1136 233.446 47.5159 233.446C46.4269 233.445 46.4286 231.754 47.5159 231.755C48.4379 231.756 49.2885 231.843 50.1331 232.235C50.5487 232.429 50.6499 233.027 50.4361 233.392ZM48.2461 273.254C47.7729 273.271 47.4209 272.853 47.401 272.409C47.3816 271.977 47.7418 271.64 48.1443 271.577C48.2055 271.156 48.5395 270.852 48.9762 270.833C49.4212 270.813 49.8376 271.236 49.8213 271.678C49.7902 272.529 49.0971 273.223 48.2461 273.254ZM202.223 279.647C201.936 278.613 201.279 277.779 200.783 276.849C200.616 276.535 200.558 276.34 200.468 276.111C200.346 276.356 200.108 276.541 199.75 276.541C199.064 276.541 198.261 276.497 197.621 276.791C197.205 276.982 196.714 276.914 196.465 276.487C196.251 276.121 196.353 275.521 196.768 275.331C197.712 274.898 198.726 274.85 199.75 274.85C200.003 274.85 200.194 274.943 200.33 275.083C200.721 269.723 200.711 264.359 200.341 258.996C199.946 253.264 199.038 247.646 198.087 241.988C197.626 239.245 197.029 236.474 197.145 233.68C197.261 230.905 198.45 228.318 197.607 225.535C197.269 224.419 196.691 223.396 196.314 222.293C195.911 221.105 195.947 219.932 196.131 218.702C196.509 216.197 197.136 213.722 196.133 211.277C195.689 210.193 194.971 209.225 194.624 208.105C194.193 206.712 194.253 205.171 194.181 203.728C194.035 200.815 193.997 197.884 193.756 194.978C193.648 193.676 193.414 192.442 192.879 191.247C192.366 190.098 191.603 189.052 191.263 187.832C190.925 186.632 190.895 185.366 190.714 184.138C190.524 182.84 190.226 181.561 189.824 180.314C188.274 175.487 185.432 171.15 182.075 167.39C178.507 163.394 174.241 160.384 169.714 157.579C167.333 156.105 164.952 154.63 162.573 153.155C162.523 153.432 162.346 153.686 162.008 153.799C161.114 154.098 160.16 154.381 159.46 155.043C158.669 155.789 157.472 154.596 158.265 153.847C159.092 153.066 160.131 152.655 161.188 152.294C160.104 151.61 159.009 150.902 157.786 150.508C156.714 150.161 155.134 150.463 154.266 149.677C153.583 149.058 153.368 147.91 153.106 147.069C152.779 146.025 152.495 144.924 152.079 143.909C151.796 143.216 151.384 142.55 150.864 142.013C150.636 141.134 150.218 140.331 149.478 139.843C147.543 138.562 145.167 139.834 144.315 141.66C143.612 141.658 142.87 141.813 142.186 141.855C140.779 141.944 139.369 141.984 137.96 141.98C135.203 141.971 132.444 141.792 129.71 141.426C124.822 140.771 120.079 139.45 115.272 138.42C115.245 138.357 115.213 138.294 115.175 138.23C114.14 136.493 111.56 136.787 109.935 137.444C109.238 137.725 108.529 138.08 108.129 138.74C107.707 139.025 107.341 139.372 107.098 139.737C106.595 140.492 106.207 142.013 105.186 142.14C104.514 142.223 103.832 142.094 103.15 142.191C102.296 142.309 101.531 142.609 100.743 142.952C94.7433 145.558 88.5405 148.455 82.029 149.466C80.5018 149.702 78.9469 149.948 77.6201 150.803C76.5426 151.499 75.71 152.454 74.8208 153.361C73.9546 154.244 73.2405 154.635 72.0046 154.794C70.5046 154.986 69.2053 155.4 68.1088 156.491C67.1983 157.398 66.6046 158.556 65.8905 159.608C65.1636 160.682 64.0969 161.286 62.9898 161.91C60.3722 163.385 57.9342 165.167 55.8109 167.304C51.3384 171.81 48.63 177.601 45.9004 183.244C42.949 189.347 40.1898 195.525 38.2757 202.043C36.3997 208.443 35.2842 215.027 34.7687 221.671C34.2257 228.644 34.1497 235.644 33.6976 242.62C33.4715 246.106 33.3004 249.595 33.1271 253.082C32.9581 256.527 32.7109 259.979 32.7509 263.428C32.8271 270.096 34.16 276.785 36.4905 283.028C37.0715 284.582 37.7157 286.114 38.4023 287.623C39.0046 288.948 41.0645 288.8 41.7109 287.623C41.8588 287.353 41.975 287.074 42.0722 286.79C43.7624 286.805 45.4694 286.674 47.149 286.831C50.1152 287.108 53.0875 287.262 56.0621 287.446C61.9483 287.811 67.8448 288.054 73.7328 288.39C74.3041 288.423 74.8753 288.456 75.4464 288.49C71.2504 275.497 71.7946 261.451 71.1306 247.939C71.0771 246.85 72.7677 246.856 72.8207 247.939C73.4875 261.509 72.9198 275.591 77.2641 288.605C78.9496 288.719 80.6328 288.858 82.3102 289.063C83.6664 289.225 85.0293 289.418 86.3983 289.35C87.9511 289.276 89.468 288.921 90.9828 288.612C93.7356 288.052 96.387 288.306 99.1504 288.65C102.106 289.02 105.072 289.225 108.047 289.354C119.958 289.876 131.95 290.352 143.857 289.555C146.738 289.363 149.614 289.092 152.476 288.724C155.426 288.346 158.343 287.71 161.29 287.348C164.195 286.993 166.866 287.968 169.737 288.147C172.665 288.331 175.672 287.72 178.572 287.37C179.518 287.255 180.466 287.143 181.413 287.032C180.193 278.668 179.5 270.241 178.826 261.817C178.739 260.731 180.43 260.74 180.516 261.817C181.185 270.175 181.863 278.54 183.081 286.838C188.104 286.253 193.131 285.662 198.102 284.751C199.517 284.493 200.924 284.073 201.772 282.809C202.399 281.872 202.526 280.725 202.223 279.647Z" fill="black"/>
<path fill-rule="evenodd" clip-rule="evenodd" d="M133.465 60.2713C165.196 61.2784 167.11 76.3883 167.11 101.728C167.11 127.068 150.649 143.036 144.588 145.824C138.527 148.612 122.567 160.588 108.164 155.069C93.7613 149.55 97.9321 126.233 97.9321 116.215C97.9321 106.196 101.733 59.2642 133.465 60.2713Z" fill="#D08B5B"/>
<path fill-rule="evenodd" clip-rule="evenodd" d="M102.795 100.486C109.356 73.6655 121.333 60.5802 138.727 61.2296C164.817 62.2036 164.542 88.8625 162.905 86.4318C161.835 84.8437 154.348 79.296 140.443 69.7886L139.584 69.2016L102.795 100.486Z" fill="#9FD8E5"/>
<path fill-rule="evenodd" clip-rule="evenodd" d="M146.338 137.502C140.51 140.763 133.838 140.89 127.57 138.837C123.811 137.61 120.364 135.711 117.139 133.442C114.333 131.465 111.828 129.274 109.347 126.947C107.304 122.43 105.485 117.922 104.633 113.008C103.87 108.597 103.768 104.017 104.654 99.6149C111.202 94.2149 117.71 88.7706 124.21 83.3095C127.52 80.5279 130.838 77.7615 134.196 75.0391C135.902 73.6569 137.591 72.2535 139.29 70.865C139.57 70.6367 139.849 70.4084 140.129 70.1802C143.637 72.7544 147.398 74.9611 150.881 77.5774C152.704 78.9491 154.477 80.4095 156.166 81.9458C157.051 82.7513 157.916 83.5819 158.759 84.4337C159.531 85.2116 160.275 86.3274 161.369 86.6213C161.519 86.6613 161.66 86.6697 161.793 86.6507C163.256 99.4924 164.295 113.359 158.028 125.021C155.293 130.109 151.416 134.657 146.338 137.502ZM108.43 142.221C107.627 141.484 108.823 140.292 109.622 141.025C114.641 145.634 121.202 148.077 127.83 149.208C128.899 149.391 128.443 151.02 127.381 150.838C120.462 149.658 113.661 147.025 108.43 142.221ZM102.408 149.292C101.45 148.777 102.302 147.318 103.259 147.832C107.169 149.935 111.457 151.027 115.808 151.765C116.877 151.946 116.421 153.575 115.359 153.395C110.861 152.632 106.448 151.465 102.408 149.292ZM118.321 78.0617C121.566 75.1427 125.053 72.3653 128.736 70.0217C132.463 67.6503 136.534 66.2322 140.934 66.1983C140.626 66.4456 140.333 66.7204 140.036 66.9759C139.206 67.6884 138.377 68.4048 137.548 69.1192C135.891 70.5501 134.23 71.9786 132.594 73.4329C129.373 76.2988 126.141 79.1499 122.926 82.0221C116.747 87.5426 110.7 93.1833 104.785 98.9872C104.816 98.8456 104.85 98.704 104.884 98.5626C106.842 90.362 112.17 83.5967 118.321 78.0617ZM143.755 66.5555C143.776 66.4921 143.791 66.4306 143.799 66.3717C152.243 67.4749 159.295 73.7032 161.626 81.9038C161.424 82.187 161.312 82.523 161.354 82.88C161.375 83.0599 161.397 83.2416 161.418 83.4213C161.129 83.1341 160.832 82.8654 160.579 82.6097C159.737 81.7558 158.875 80.925 157.99 80.1156C156.179 78.4609 154.298 76.9138 152.316 75.4703C148.87 72.9594 145.138 70.6515 141.029 69.4468C141.299 69.2249 141.569 69.003 141.841 68.7832C142.652 68.1214 143.405 67.5764 143.755 66.5555ZM158.892 57.7866C153.708 52.1076 146.529 47.9483 138.97 46.5026C131.751 45.1204 124.277 46.0313 117.457 48.7176C103.187 54.3395 91.9265 66.7016 86.6539 81.0267C83.5801 89.3729 82.5723 98.5223 83.496 107.357C84.4149 116.151 87.0565 125.233 91.8633 132.715C92.3039 133.399 92.7867 134.057 93.2926 134.693C93.0671 137.275 92.2069 139.807 90.8534 142.01C90.7807 142.128 90.704 142.243 90.6281 142.359C89.2421 143.4 87.8045 144.376 86.4011 145.384C85.1848 146.258 83.9811 147.154 82.8373 148.121C81.7577 149.034 80.504 150.051 79.773 151.284C79.1741 152.293 78.9295 153.666 79.7471 154.629C80.7323 155.789 82.4016 155.38 83.7361 155.38C83.8503 155.38 83.9644 155.382 84.0785 155.384C84.4792 155.636 84.892 155.865 85.2919 156.077C89.3334 158.224 93.3896 160.349 97.45 162.462C105.537 166.674 113.591 171.056 121.844 174.934C125.669 176.732 129.763 178.305 134.047 178.299C138.065 178.292 141.697 176.692 144.834 174.26C148.41 171.489 151.4 167.97 154.3 164.521C155.46 163.14 156.596 161.743 157.711 160.327C159.853 159.611 161.978 159.402 163.888 160.784C165.421 161.894 167.441 160.384 167.477 158.719C167.489 158.127 167.464 157.544 167.401 156.969C167.017 153.418 165.284 150.206 163.332 147.226C162.265 145.596 161.142 143.996 160.011 142.411C159.746 142.037 159.484 141.663 159.231 141.282C163.77 134.583 167.371 127.154 169.585 119.391C171.91 111.222 172.701 102.751 172.182 94.2868C171.385 81.3141 167.835 67.5848 158.892 57.7866Z" fill="black"/>
<path fill-rule="evenodd" clip-rule="evenodd" d="M143.152 128.274C141.732 127.695 140.465 126.728 139.538 125.493C139.216 125.063 139.133 124.61 139.2 124.195C139.276 123.729 139.552 123.306 139.928 123.023C140.305 122.739 140.777 122.598 141.233 122.67C141.63 122.732 142.024 122.949 142.337 123.399L142.402 123.489C142.953 124.235 143.67 124.846 144.488 125.241C145.276 125.621 146.158 125.798 147.07 125.695C148.808 125.499 150.005 124.559 151.278 123.282C151.436 123.121 151.594 122.955 151.752 122.786C151.852 122.633 151.991 122.534 152.146 122.483C152.317 122.425 152.511 122.429 152.689 122.491C152.86 122.55 153.013 122.664 153.116 122.815C153.213 122.958 153.269 123.135 153.251 123.339C153.134 124.661 152.443 125.842 151.461 126.769C150.37 127.799 148.924 128.511 147.563 128.761C146.064 129.036 144.536 128.839 143.152 128.274ZM148.271 107.866C149.866 108.836 152.297 111.098 150.581 113.503C148.56 115.624 145.652 113.193 144.218 112.093C142.889 111.241 141.396 113.433 142.629 114.428C152.986 122.099 157.19 108.12 149.077 106.726C148.184 106.572 147.853 107.566 148.271 107.866ZM129.711 98.9429C129.887 96.7541 133.219 96.257 133.551 98.423C133.847 100.363 133.498 102.145 132.624 103.892C131.79 105.561 129.692 104.783 129.533 103.263C129.32 101.226 129.601 100.304 129.711 98.9429ZM155.076 97.9739C155.541 97.3652 156.211 96.9497 157.015 97.1845C159.526 97.9185 158.786 101.485 157.904 103.22C157.425 104.163 155.876 104.402 155.176 103.572C154.035 102.219 153.489 99.5157 154.939 98.1825C154.979 98.1136 155.022 98.044 155.076 97.9739ZM132.589 89.3654L132.986 89.2959C134.213 89.0836 135.738 88.8796 136.606 89.8665C137.067 90.3898 137.225 91.3624 136.606 91.8633C135.518 92.7446 134.314 92.4031 133.01 92.4777C131.935 92.5394 130.902 92.7174 129.867 93.0135C127.595 93.6629 125.744 94.8486 123.804 96.1505C123.549 96.3213 123.29 95.9956 123.411 95.7574C124.531 93.563 126.701 91.7604 128.875 90.6616C130.036 90.0751 131.305 89.5885 132.589 89.3654ZM152.787 88.3823L153.091 88.4445C156.394 89.1353 160.687 90.5153 162.251 93.7615C162.311 94.2205 162.248 94.3189 162.196 94.3832L162.179 94.4046C162.137 94.4595 162.104 94.5351 161.905 94.5976C161.849 94.5845 161.794 94.5705 161.737 94.5557C161.02 94.3677 160.453 94.1087 159.904 93.84L159.308 93.5465C158.617 93.2076 157.92 92.881 157.181 92.6399C155.605 92.1255 153.983 91.7631 152.337 91.5696C151.98 91.5277 151.636 91.4072 151.365 91.2007C151.107 91.0046 150.911 90.7332 150.821 90.3724C150.705 89.9056 150.738 89.5521 150.989 89.1309C151.177 88.8146 151.447 88.5953 151.756 88.4694C152.071 88.3411 152.43 88.3108 152.787 88.3823Z" fill="black"/>
<path fill-rule="evenodd" clip-rule="evenodd" d="M167.178 109.153C164.613 111.805 160.331 112.566 156.919 111.144C148.156 107.481 152.445 96.0578 159.203 92.99C160.047 92.7795 161.175 92.2801 162.203 92.1668C162.296 92.1211 162.498 92.2532 162.744 92.1283C170.195 92.9606 171.892 104.532 167.178 109.153ZM138.915 109.832C136.039 113.649 130.69 114.827 126.32 113.052C117.687 109.651 120.749 99.5216 126.656 95.5503C139.133 90.8602 144.285 102.794 138.915 109.832ZM120.201 101.374C120.193 101.37 120.185 101.369 120.177 101.365C120.223 101.345 120.268 101.325 120.314 101.304C120.299 101.343 120.283 101.381 120.268 101.42C120.246 101.404 120.226 101.386 120.201 101.374ZM173.118 97.2481C172.413 97.2496 171.396 97.3654 170.813 97.8542C169.375 93.0031 164.067 88.5134 159.451 91.7872C155.817 92.9566 153.119 95.5501 151.586 98.9981C148.822 97.3533 144.476 98.0557 142.079 100.231C140.51 95.0418 136.646 93.2248 132.048 92.9566C127.029 92.1342 122.027 97.0103 120.466 100.922C119.168 100.774 117.229 100.361 116.008 101.162C108.084 99.0834 94.2302 97.9373 92.6193 99.0923C91.4712 99.533 90.8412 102.244 92.4448 102.39C93.8421 102.192 92.2817 100.404 93.6902 100.209C101.195 99.7433 108.481 101.255 115.906 101.89C116.569 102.782 118.711 103.08 119.854 102.722C118.054 109.357 121.939 113.872 127.761 115.224C136.775 117.296 144.617 109.229 142.26 100.838C144.991 99.4791 148.132 99.5374 151.106 100.253C146.136 118.554 175.598 117.733 170.997 98.4813C174.059 100.005 174.724 97.5556 173.118 97.2481Z" fill="black"/>
</svg>
