<svg width="240" height="324" viewBox="0 0 240 324" fill="none" xmlns="http://www.w3.org/2000/svg">
<path fill-rule="evenodd" clip-rule="evenodd" d="M55.2054 285.569C57.7345 285.726 60.2634 285.849 62.7922 285.944C95.8621 287.176 128.905 283.405 161.954 282.58C173.464 282.277 184.914 282.428 196.394 283.352C197.518 283.443 198.805 282.232 198.666 281.079C196.546 262.764 193.892 244.499 192.517 226.109C192.516 225.136 192.642 224.165 192.976 223.249C193.039 223.177 193.365 222.371 193.656 222.321C193.561 222.392 193.991 222.268 193.717 222.289C195.377 222.017 197.005 220.225 195.8 218.51C183.392 199.485 166.454 182.12 161.004 159.523C159.717 153.414 155.067 153.036 150.112 150.516C148.567 149.596 144.787 147.049 144.172 145.278C142.702 138.894 145.29 132.641 137.73 130.058C132.74 128.673 123.919 127.502 118.869 128.962C112.71 131.013 113.171 137.957 109.598 142.734C107.75 145.497 104.6 149.28 101.691 149.703C100.282 149.909 99.2432 147.056 97.8356 147.252C75.8946 152.583 46.0015 188.949 36.5714 209.08C34.4462 215.416 41.2999 213.505 40.8788 219.873C40.3598 231.954 39.2245 247.419 39.8978 259.515C40.5284 266.535 40.0617 273.891 42.2431 280.647C41.656 281.36 42.4995 282.08 43.1879 282.39C44.0551 283.866 52.5886 285.365 55.2054 285.569Z" fill="#D08B5B"/>
<path d="M97.8356 147.252C99.1484 147.069 99.2338 150.93 100.505 151.097C106.405 159.384 115.548 162.134 126.122 162.134C137.347 162.134 146.449 158.757 153.427 152.003L154.067 152.273C157.37 153.677 160.071 155.094 161.004 159.523C166.454 182.12 183.392 199.485 195.8 218.51C197.005 220.225 195.377 222.017 193.717 222.289C193.991 222.268 193.561 222.391 193.656 222.321C193.365 222.371 193.039 223.177 192.976 223.249C192.814 223.692 192.701 224.148 192.628 224.611C192.628 224.611 178.727 227.557 174.99 227.638C137.466 228.451 68.8431 227.291 68.8431 227.291L40.1007 216.415C38.4569 213.946 34.9723 213.848 36.5714 209.08C46.0015 188.949 75.8946 152.583 97.8356 147.252Z" fill="#E86BBB"/>
<path fill-rule="evenodd" clip-rule="evenodd" d="M112.327 135.125C112.898 132.558 116.982 133.659 116.282 136.216C115.199 140.17 112.951 143.907 109.778 146.53C107.327 148.555 103.987 150.361 100.674 150.695C100.985 150.998 101.282 151.321 101.595 151.63C102.301 152.331 103.051 152.982 103.824 153.608C105.413 154.893 107.065 156.049 108.869 157.017C116.075 160.885 124.216 161.777 132.265 160.876C136.085 160.449 139.961 159.724 143.553 158.327C145.218 157.681 146.836 156.831 148.264 155.757L148.638 155.477C149.389 154.909 150.391 154.109 150.861 153.234C149.432 153.555 147.626 152.033 146.635 151.148C145.552 150.176 144.639 148.922 143.965 147.637C142.644 145.116 141.945 141.863 143.052 139.16C143.126 138.98 143.363 139.01 143.384 139.204C143.711 142.356 144.561 145.31 146.821 147.644C147.825 148.677 149.027 149.544 150.339 150.146L150.523 150.231C151.082 150.489 151.671 150.793 151.906 151.346C151.997 151.336 152.088 151.344 152.175 151.368C152.253 151.389 152.325 151.412 152.394 151.437C152.238 151.131 152.156 150.77 152.17 150.342C152.226 148.688 154.497 148.637 154.811 150.11C154.754 149.916 154.678 150.104 154.822 150.163C154.82 150.146 154.816 150.127 154.811 150.11L154.816 150.126L154.824 150.163L154.822 150.163C154.828 150.19 154.832 150.217 154.835 150.245L154.838 150.282L154.836 150.251C154.835 150.229 154.832 150.208 154.829 150.19L154.824 150.163C154.845 150.173 154.875 150.18 154.908 150.18L154.922 150.185C154.975 150.208 155.162 150.295 155.217 150.317C155.595 150.457 156.018 150.501 156.404 150.621C157.243 150.879 157.983 151.306 158.494 152.033C158.861 152.555 159.066 153.154 159.151 153.775C162.863 155.561 166.376 157.881 169.319 160.754C175.888 167.162 180.468 175.182 184.226 183.484C186.139 187.711 187.844 192.027 189.511 196.355L189.774 197.038C191.561 201.69 193.142 206.393 193.53 211.393C193.566 211.841 193.418 212.262 193.163 212.611C193.254 212.987 193.3 213.363 193.287 213.731C193.285 213.788 193.281 213.845 193.277 213.902C193.877 213.891 194.464 214.143 195.022 214.849C195.248 214.777 195.493 214.768 195.734 214.847C197.202 215.316 197.439 216.929 197.715 218.279C198.001 219.674 198.125 221.103 198.127 222.525C198.127 223.034 197.836 223.677 197.342 223.895C196.412 224.304 195.411 224.573 194.449 224.945C193.727 225.224 193.002 225.488 192.271 225.736C192.677 226.443 192.808 227.428 193.027 228.174C193.372 229.339 193.649 230.508 193.881 231.7C195.457 239.805 196.549 247.997 198.024 256.119C198.761 260.188 199.619 264.229 200.494 268.27C200.925 270.256 201.383 272.239 201.875 274.213C202.138 275.265 202.41 276.318 202.691 277.364C202.773 277.67 202.855 277.975 202.939 278.279L203.086 278.812C203.407 278.989 203.682 279.258 203.872 279.625C204.567 280.97 204.168 282.485 202.835 283.242C201.385 284.066 199.655 283.288 198.856 281.95C198.294 281.006 198.111 279.755 197.834 278.704C197.521 277.525 197.223 276.339 196.936 275.153C194.984 267.098 193.677 258.902 192.692 250.675L192.622 250.087C192.121 245.852 191.637 241.606 191.325 237.351C191.17 235.261 191.048 233.171 190.972 231.076C190.934 229.998 190.995 228.914 191.056 227.838C191.084 227.367 191.124 226.894 191.139 226.422L191.144 226.355C191.147 226.308 191.153 226.245 191.157 226.179L191.162 226.099C189.704 226.556 188.225 226.936 186.732 227.257C183.554 227.944 180.303 228.327 177.06 228.132C177.512 233.505 178.101 238.864 178.925 244.188C179.72 249.316 180.637 254.432 181.672 259.518C182.19 262.073 182.749 264.622 183.339 267.162C183.656 268.519 184.017 269.867 184.302 271.231C184.471 272.042 184.524 272.721 184.184 273.48C184.558 274.5 184.891 275.525 185.218 276.491L185.316 276.779C185.895 278.47 186.994 280.198 185.846 281.86C185.253 282.717 184.285 283.208 183.311 283.238C183.294 283.248 183.275 283.261 183.256 283.271C182.732 283.552 182.128 283.607 181.554 283.487C180.681 283.658 179.806 283.823 178.93 283.973C176.764 284.347 174.588 284.656 172.408 284.916C168.256 285.41 164.077 285.681 159.901 285.831C144.609 286.382 129.301 285.414 114.003 285.693C106.209 285.835 98.4155 286.186 90.6345 286.651C86.7514 286.883 82.8662 287.133 78.981 287.325L77.7784 287.384C74.3039 287.55 70.8269 287.678 67.355 287.424C67.2873 287.42 67.2345 287.393 67.1986 287.355C66.0007 287.219 64.7967 286.116 64.9169 284.842C65.4345 279.414 65.9521 273.987 66.4719 268.557C67.3951 258.884 68.3268 249.21 69.269 239.539L69.4052 238.142C69.7218 234.884 70.0241 231.617 70.1775 228.345C69.4042 228.291 68.6333 228.221 67.862 228.136C59.5052 227.221 51.4939 224.692 43.8018 221.371L43.4902 221.236C42.7972 220.933 42.0388 220.631 41.2613 220.308C41.2742 221.785 41.2254 223.265 41.219 224.727C41.2085 227.156 41.2275 229.584 41.2338 232.01C41.2486 237.011 41.4388 242.013 41.6881 247.006C42.1254 255.823 42.6388 264.628 43.4162 273.424C43.6127 275.637 43.8791 277.846 44.0669 280.059C44.1791 281.363 43.9106 282.449 42.7171 283.134C42.1296 283.472 41.6754 283.331 41.0923 283.058C39.6683 282.39 39.6282 280.811 39.493 279.438C39.3897 278.402 39.2944 277.366 39.2014 276.329C39.0031 274.116 38.8317 271.903 38.6923 269.686C38.1411 260.877 37.9803 252.076 38.3606 243.256C38.5371 239.131 38.792 234.997 39.1303 230.879L39.2099 229.929C39.4888 226.638 39.6683 223.185 40.2451 219.873C37.919 218.841 35.6141 217.529 34.5451 215.347C33.1594 212.515 34.6824 210.093 36.8521 208.426C36.831 208.145 36.8521 207.866 36.9113 207.612C37.5345 204.913 38.5782 202.246 39.5859 199.672C40.6021 197.085 41.724 194.538 42.9578 192.046C47.9099 182.064 54.6747 172.942 62.7388 165.257C66.7444 161.441 71.1282 157.913 75.8078 154.954C78.1275 153.49 80.5064 152.137 82.9697 150.932L83.3339 150.755C85.0488 149.922 86.9721 149.037 88.8791 148.574C89.0775 148.426 89.2782 148.286 89.481 148.153C90.231 147.654 91.2493 148.015 91.693 148.728C91.9087 148.561 92.1578 148.413 92.443 148.28L92.7249 148.151C94.436 147.38 96.4905 146.659 98.3479 147.166C99.5014 147.481 100.41 148.331 100.818 149.413C101.754 148.918 102.673 148.409 103.57 147.785C105.013 146.788 106.321 145.549 107.496 144.249C109.851 141.635 111.563 138.573 112.327 135.125ZM194.065 217.552C193.904 217.599 193.735 217.615 193.56 217.594C193.877 217.631 193.242 217.819 193.068 217.908L193.055 217.916C192.738 218.097 192.419 218.273 192.096 218.442C191.342 218.839 190.571 219.196 189.787 219.532C188.242 220.19 186.647 220.695 185.01 221.065C183.408 221.426 181.729 221.637 180.087 221.671C178.989 221.692 177.685 221.642 176.549 221.318C176.68 223.311 176.825 225.302 176.988 227.291L179.233 226.776C181.478 226.261 183.72 225.733 185.935 225.091C187.598 224.609 189.237 224.045 190.858 223.436C191.707 223.117 192.55 222.779 193.382 222.415C193.797 222.234 194.185 222.019 194.569 221.801L194.897 221.614C194.821 220.724 194.682 219.852 194.479 218.972C194.373 218.507 194.194 218.03 194.065 217.552ZM40.3507 208.166C40.0655 209.092 39.6282 209.956 38.631 210.165C38.2782 210.239 37.9826 210.199 37.7373 210.079L37.6785 210.197C36.8586 211.881 36.6179 213.658 38.5043 214.955C39.3559 215.54 40.2831 216.047 41.2423 216.501C42.9575 217.318 44.7841 217.974 46.5063 218.642L46.8493 218.776C49.9296 219.985 53.0585 221.086 56.2359 222.007C59.4601 222.939 62.7409 223.687 66.0622 224.163C67.4627 224.362 68.874 224.501 70.2876 224.592C70.3106 222.69 70.3 220.786 70.2937 218.884C69.7909 218.82 69.2923 218.752 68.8108 218.695C67.3444 218.524 65.8824 218.315 64.4289 218.055C61.393 217.512 58.3888 216.762 55.4585 215.802C50.0289 214.02 44.9775 211.473 40.3507 208.166ZM99.8796 149.901C98.6458 148.595 96.2859 149.066 94.7967 149.7C94.3465 149.892 93.8923 150.087 93.4613 150.321L93.3778 150.368C92.8759 150.657 92.8784 150.829 93.1235 151.406C93.4423 152.164 93.8859 152.898 94.3085 153.601C96.1171 156.622 98.4979 159.251 101.217 161.472C110.847 169.334 124.68 172.107 136.723 169.474C142.502 168.212 148.077 165.663 152.331 161.483L152.719 161.098C154.434 159.38 156.789 156.895 156.624 154.35C156.546 153.126 155.547 153.056 154.526 152.82C154.108 152.722 153.708 152.585 153.362 152.391C153.641 153.593 152.156 155.381 151.389 156.132C149.781 157.706 147.846 158.936 145.799 159.856C141.903 161.608 137.665 162.436 133.446 162.96C128.658 163.556 123.768 163.503 119.016 162.622C114.882 161.855 110.806 160.403 107.249 158.141C105.618 157.106 104.01 155.924 102.649 154.549L102.36 154.256C101.378 153.261 100.235 152.057 99.6472 150.751C99.4233 150.753 99.2014 150.746 98.9796 150.731C98.8233 150.723 98.739 150.501 98.8951 150.419C99.0704 150.326 99.2458 150.233 99.4212 150.142C99.3918 150.044 99.3662 149.95 99.3451 149.852C99.3282 149.77 99.4148 149.694 99.4909 149.74C99.5965 149.803 99.6979 149.871 99.7972 149.943C99.8247 149.93 99.8521 149.916 99.8796 149.901Z" fill="black"/>
<path fill-rule="evenodd" clip-rule="evenodd" d="M110.107 51.5414C142.061 49.9661 163.742 75.2293 164.675 85.3035C165.322 92.2965 164.883 101.623 164.883 107.872C164.883 111.061 166.488 120.757 164.675 125.406C160.638 135.753 156.078 143.858 143.442 143.858C130.806 143.858 111.542 137.293 104.928 128.824C103.72 127.278 88.7128 115.96 88.7128 107.064C88.7128 88.0838 87.3059 52.6655 110.107 51.5414Z" fill="#D08B5B"/>
<path fill-rule="evenodd" clip-rule="evenodd" d="M88.3074 31.0414C90.1285 30.4708 91.2908 31.2923 92.1199 32.5651C92.3027 32.5294 92.4796 32.5317 92.6765 32.5792C92.7252 32.5911 92.8431 32.6357 92.9322 32.6707C93.0012 32.6997 93.0634 32.7348 93.1232 32.772L93.1589 32.7532C93.2955 32.6037 93.4391 32.4674 93.594 32.3575C93.9423 32.1107 94.3011 32.0388 94.6416 32.0895L94.7993 32.0314C96.1473 31.5605 97.6087 31.7791 98.5226 32.9432C98.6995 33.1681 98.8424 33.4185 98.9645 33.6827C99.2386 33.7727 99.4958 33.9029 99.7173 34.0631C99.8729 33.9898 100.037 33.9281 100.213 33.8826C101.208 33.6269 102.253 33.8683 103.063 34.4795C103.458 34.7769 103.748 35.1492 103.968 35.5745C104.219 35.6335 104.467 35.7396 104.699 35.882C104.898 35.7825 105.101 35.689 105.308 35.625C106.068 35.3912 106.882 35.3052 107.672 35.3642C109.375 35.4908 111.021 37.4404 109.884 39.1147L109.848 39.1653C109.704 39.3672 109.578 39.5758 109.462 39.7878C109.869 39.9655 110.262 40.2033 110.624 40.5013C112.398 41.9586 112.558 44.2052 112.226 46.3245L112.212 46.4127H112.216C113.159 46.5024 113.972 47.4892 113.415 48.4173L113.388 48.4607C112.635 49.628 111.989 50.9175 111.269 52.1458C109.276 52.8659 107.355 53.7527 105.546 54.8272C104.419 55.8168 103.346 56.863 102.402 58.0269C101.931 58.6081 101.498 59.2233 101.101 59.8612C101.419 60.0144 101.812 60.0066 102.144 59.698C105.1 56.9524 108.671 55.0255 112.472 53.7341C112.746 53.6409 112.926 53.4655 113.027 53.258C114.715 52.7759 116.432 52.402 118.167 52.1374C118.645 51.6806 119.146 51.244 119.622 50.7892C120.23 50.2088 120.991 50.2173 121.56 50.5818C121.842 50.4527 122.131 50.3388 122.425 50.2363L122.606 50.1741C122.682 50.1492 122.755 50.1202 122.83 50.0974C124.865 49.4736 126.726 49.7052 128.729 50.2178L128.985 50.2847C129.918 50.5329 130.506 50.4932 131.409 50.2648L131.511 50.2386C132.471 49.9875 133.499 49.8015 134.48 50.0659C135.507 50.3427 136.189 50.9581 136.888 51.7016L136.958 51.7764C137.285 52.1265 137.473 52.1647 137.901 52.1561L138.358 52.1425C140.086 52.0951 141.777 52.1681 143.071 53.5076C143.55 54.0029 144.063 54.704 144.371 55.3438L144.416 55.4393C144.43 55.4704 144.443 55.4964 144.454 55.5196C144.64 55.4896 144.929 55.3719 145.066 55.345C146.949 54.979 148.52 55.5431 149.729 57.0303C149.993 57.3558 150.393 57.9949 150.669 58.3462C150.766 58.4286 150.858 58.517 150.945 58.6098C151.398 58.9004 152.042 58.882 152.551 58.9839C153.938 59.2607 155.42 59.7895 156.125 61.1128C156.42 61.665 156.529 62.2693 156.653 62.8729C157.12 63.18 157.485 63.6226 157.769 64.1017C158.114 64.6833 158.26 65.3958 158.658 65.9451C158.946 66.3441 159.387 66.5572 159.806 66.8011L159.966 66.8954C161.209 67.6372 162.182 68.4604 162.591 69.9138L162.627 70.0431C162.693 70.2658 162.926 70.9012 162.723 70.8057C162.898 70.9023 163.195 70.9363 163.354 70.9892C164.216 71.2751 164.965 71.7372 165.425 72.5485C165.774 73.1661 165.837 73.8098 165.938 74.4906L165.98 74.7654C165.991 74.8319 166.004 74.9091 166.017 74.984L166.031 75.0577L166.033 75.0594C166.19 75.127 166.343 75.2003 166.494 75.2794C167.208 75.701 167.697 76.4329 167.697 77.2802C167.697 77.6915 167.568 78.0119 167.382 78.2979C167.533 78.527 167.65 78.7711 167.738 79.0431C167.911 79.5742 167.923 80.155 167.865 80.7045C167.795 81.3639 167.626 81.9644 167.427 82.5942C167.351 82.8373 167.32 83.1769 167.205 83.409C167.417 83.681 167.544 84.0134 167.505 84.3414C167.449 84.8106 167.235 85.3591 166.811 85.6222C166.604 86.6473 166.158 87.6947 165.719 88.5327C165.668 88.63 165.607 88.7166 165.539 88.7885C165.6 92.1342 165.356 95.5033 165.339 98.8445C165.32 102.482 165.396 106.122 165.522 109.754C165.735 115.776 166.496 122.002 164.723 127.874C163.273 132.68 160.368 136.805 156.472 139.933C152.483 143.133 147.674 144.985 142.568 145.274C139.971 145.42 137.329 145.124 134.816 144.45L134.548 144.377C132.116 143.707 129.3 142.684 127.511 140.893C126.567 139.946 127.522 137.94 128.907 138.492C130.279 139.039 131.511 139.849 132.872 140.419C134.089 140.929 135.358 141.32 136.644 141.607C139.222 142.188 141.957 142.315 144.577 141.954C154.039 140.656 161.411 132.779 162.866 123.439C163.269 120.853 163.261 118.224 163.234 115.61L163.204 112.747C163.181 110.351 163.173 107.954 163.26 105.559C163.372 102.478 163.589 99.3983 163.88 96.3297L164.032 94.7329C164.212 92.8646 164.414 90.9821 164.763 89.1393C164.477 89.1543 162.22 85.2832 160.967 83.1201C160.51 82.7565 160.124 82.3049 159.975 81.7205C159.944 81.5985 159.928 81.4755 159.918 81.3523C159.646 80.9239 159.359 80.5065 159.057 80.1016L158.991 80.0719C158.94 80.0487 158.9 80.0293 158.877 80.0162C158.216 79.6406 157.665 79.0716 157.287 78.4122C157.16 78.1899 157.055 77.9578 156.971 77.7205C156.432 77.1906 155.868 76.6851 155.276 76.211C155.218 76.1645 155.158 76.121 155.1 76.0751C154.346 75.7932 153.684 75.3684 153.202 74.7565C153 74.6314 152.797 74.5088 152.593 74.3888C151.978 74.383 151.358 74.2395 150.754 73.9908C149.649 73.536 148.767 72.6371 147.657 72.2205C146.484 71.7803 145.247 72.7808 144 72.6003C143.682 72.5542 143.366 72.4572 143.073 72.3165C142.37 73.0621 141.625 73.7651 140.804 74.3803C139.611 75.2735 138.392 75.6816 137.009 76.0851C136.324 76.7366 135.557 77.3684 134.632 77.4612C132.492 79.1765 130.203 80.6234 127.794 81.9667C127.406 82.1827 127.021 82.2802 126.656 82.2827C125.9 82.7582 125.075 83.1241 124.204 83.3773C123.931 83.4565 123.649 83.4732 123.373 83.4392L122.617 84.0566C122.09 84.486 121.529 84.6912 120.992 84.7046C120.665 84.9554 120.327 85.1928 119.978 85.421C119.605 85.666 119.121 85.7674 118.634 85.7378C117.891 86.4666 116.927 86.5431 116.12 86.2075C116.009 86.2726 115.895 86.3343 115.767 86.3949C115.593 86.4776 115.411 86.5473 115.226 86.6037C114.384 87.513 113.153 87.9898 111.918 87.8651C110.997 88.4311 109.924 88.7255 108.875 88.6593C108.715 89.465 108.582 90.2736 108.47 91.085L108.459 91.6794C108.458 91.7757 108.458 91.8508 108.459 91.9002L108.459 91.9198C108.562 94.5256 108.618 97.1326 108.72 99.7387L108.729 99.9444C108.844 102.221 109.403 106.373 106.065 106.282C104.821 106.248 103.586 105.33 102.618 104.575L102.481 104.468C102.407 104.41 102.331 104.351 102.254 104.291C101.53 104.196 100.817 104.02 100.085 103.993C99.1831 103.961 98.2344 104.054 97.3553 104.259C95.8036 104.621 94.3026 105.329 93.2906 106.612C93.2021 106.724 93.1199 106.842 93.0419 106.96C92.9702 107.203 92.8479 107.427 92.6856 107.622C91.7284 109.78 92.281 112.631 93.3391 114.605C94.5999 116.956 96.595 118.582 99.1036 119.4L99.2295 119.441C100.943 119.977 101.599 121.017 102.531 122.463C103.404 123.82 104.405 125.084 105.48 126.284C107.561 128.607 110.481 130.524 111.691 133.464C111.936 134.056 111.236 134.613 110.694 134.461C108.571 133.863 107.083 132.348 105.539 130.841C104.471 129.797 103.444 128.712 102.481 127.572C102.278 127.665 102.056 127.728 101.824 127.757C100.802 127.882 99.7473 127.83 98.8521 127.277C98.4395 127.315 98.0097 127.171 97.6905 126.878C97.3977 126.609 97.1451 126.317 96.9317 126.006C96.6075 126.035 96.2892 126.044 95.9854 125.993C95.8388 125.979 95.697 125.941 95.5669 125.877C95.3253 125.782 95.0961 125.634 94.8857 125.408C94.4594 124.949 94.296 124.301 94.3747 123.685C94.2904 123.667 94.2067 123.646 94.124 123.618C93.5565 123.425 93.1197 123.043 92.8405 122.522C92.3411 122.241 91.8914 121.861 91.5509 121.456C91.1362 120.964 90.8234 120.409 90.6396 119.796C90.4496 119.708 90.2651 119.605 90.0885 119.485C88.8225 118.626 88.0977 117.014 88.5948 115.524L88.6117 115.477C88.6369 115.41 88.6826 115.295 88.7386 115.166C88.7306 115.061 88.7221 114.956 88.7164 114.851L88.6989 114.533L88.4453 114.425C87.1804 113.921 86.3253 113.24 86.1733 111.814C86.1417 111.519 86.2559 111.218 86.4362 110.966L86.4353 110.887C86.3531 110.844 86.2749 110.801 86.206 110.757C85.5164 110.315 85.0926 109.524 85.1401 108.705C85.1836 107.96 85.5958 107.365 86.0593 106.815L86.1917 106.661C86.2026 106.648 86.2149 106.634 86.2281 106.619L85.9217 106.523C85.723 106.459 85.5409 106.396 85.4099 106.323C84.9031 106.038 84.4734 105.653 84.2084 105.164C84.1699 105.103 84.1306 105.044 84.0952 104.979C83.7531 104.353 83.7084 103.551 83.9291 102.879C83.9552 102.8 83.989 102.726 84.0235 102.651C83.0917 102.322 82.3743 101.642 82.2878 100.387C82.2539 99.8941 82.3616 99.4027 82.5959 98.9819C82.544 98.6985 82.5332 98.4047 82.5668 98.1141C82.2389 97.8036 81.9843 97.4295 81.8704 96.9732C81.6552 96.1111 82.0492 95.2909 82.6349 94.5387C82.4181 93.9439 82.407 93.2729 82.6545 92.6741C82.5592 92.3753 82.505 92.0593 82.502 91.7349C82.4955 91.0165 82.7162 90.4165 83.0727 89.9061C82.5716 89.2919 82.3336 88.4757 82.6296 87.7108C82.8402 87.1672 83.081 86.6699 83.3584 86.2092C83.2127 85.8587 83.128 85.4663 83.128 85.0269C83.128 84.2364 83.4235 83.6102 83.8758 83.0977C83.6795 82.1616 84.0786 81.0216 84.9484 80.6094C85.2762 80.4539 85.7152 80.2916 86.1988 80.1652C86.3803 79.5966 86.5698 79.0304 86.7699 78.4682C87.0851 77.5833 87.4241 76.7107 87.7833 75.8481C87.5765 76.0297 87.3596 76.199 87.1353 76.3524C86.4259 77.2566 85.4854 78.0398 84.695 78.5084C83.1282 79.4375 81.3362 78.8863 80.5627 77.3318C79.8358 77.8758 78.9634 78.1979 78.0326 78.0878C76.9772 77.9629 76.0123 77.2777 75.7488 76.2089C75.7106 76.0542 75.6876 75.887 75.6853 75.7188C75.0801 76.1508 74.4467 76.5483 73.7521 76.776C72.8673 77.0659 71.9641 76.3704 71.8473 75.5038C71.8011 75.1604 71.8652 74.8569 72.0016 74.6005L71.9152 74.5664C71.9009 74.5604 71.8866 74.5542 71.8724 74.5475C71.4084 74.3296 71.0481 73.9301 70.8769 73.4694C69.8721 73.8591 68.7219 73.4024 68.4031 72.2947C68.0236 70.978 68.0007 69.6444 68.2977 68.3617C67.2331 67.586 66.5394 66.282 66.4214 64.9188C66.3352 63.9402 66.5681 63.0369 66.9786 62.2017C65.9717 61.8242 65.6255 60.5011 66.1041 59.5479C65.4685 59.1832 65.054 58.4098 65.0447 57.657C64.7607 57.2258 64.6699 56.6706 64.9054 56.0484C65.2159 55.2286 65.8484 54.5428 66.5725 54.0049C66.2567 53.4537 66.0221 52.8526 65.8764 52.2314C65.2764 52.0554 64.7922 51.5688 64.6935 50.8382C64.57 49.9222 65.1714 49.1457 65.981 48.9407C66.0708 48.6617 66.1804 48.3889 66.316 48.1268C65.9154 47.1757 65.9744 45.9731 66.491 44.9333C66.9484 44.0139 67.6926 43.4517 68.5886 43.0628C68.3609 42.2808 68.6624 41.501 69.4214 40.9197C70.3479 40.2094 71.3641 39.6664 72.4319 39.2828C72.337 38.0099 72.8679 36.7063 74.1225 36.2624C74.4579 36.1439 74.807 36.1001 75.1619 36.1016C75.4195 35.54 75.8493 35.0835 76.4103 34.6794C77.2593 34.0682 78.8457 34.4416 79.3165 35.4001L79.3395 35.4494C79.3635 35.5037 79.3895 35.5534 79.4141 35.606C79.509 35.1406 79.7308 34.701 80.0873 34.3406C80.9784 33.4396 81.9193 33.4227 82.8248 33.808C82.9909 33.395 83.1921 33.0024 83.4366 32.6433C84.3244 31.3405 85.7911 31.1746 86.865 31.8801C87.2955 31.5007 87.776 31.2082 88.3074 31.0414ZM94.6548 109.382C96.4424 108.681 98.6117 108.888 100.378 109.562L100.508 109.613C102.068 110.231 104.603 111.607 104.909 113.366C105.067 114.278 104.203 115.066 103.326 114.586C102.563 114.17 102.135 113.33 101.527 112.722C100.927 112.12 100.254 111.636 99.5206 111.211C97.99 110.325 96.3812 109.981 94.6548 109.725C94.4608 109.698 94.5136 109.437 94.6548 109.382Z" fill="black"/>
<path fill-rule="evenodd" clip-rule="evenodd" d="M150.578 122.332C150.725 122.292 150.854 122.489 150.732 122.597C150.235 123.038 149.919 123.861 149.556 124.422C149.211 124.955 148.878 125.483 148.574 126.042C148.234 126.667 147.905 127.291 147.64 127.953L147.588 128.087C147.667 128.275 147.729 128.462 147.775 128.584L147.788 128.619C148.241 129.775 147.291 131.06 146.22 131.383C144.387 131.935 142.815 130.43 142.771 128.64C142.737 127.231 143.691 125.976 144.661 125.045C145.509 124.231 146.459 123.538 147.521 123.03C147.99 122.806 148.477 122.619 148.986 122.51C149.507 122.399 150.068 122.47 150.578 122.332ZM147.124 127.436C147.258 127.499 147.373 127.654 147.47 127.835C147.422 127.682 147.322 127.529 147.124 127.436ZM148.271 107.866C149.866 108.837 152.297 111.099 150.581 113.504C148.56 115.624 145.652 113.193 144.219 112.093C142.89 111.241 141.396 113.433 142.629 114.428C152.986 122.099 157.19 108.12 149.078 106.726C148.184 106.572 147.853 107.566 148.271 107.866ZM135.157 98.5512L135.438 98.5275C136.661 98.4197 137.899 98.2554 139.105 98.5321C140.725 98.9041 140.606 101.262 139.105 101.695C137.782 102.077 136.316 101.912 134.95 101.925C134.735 101.927 134.521 101.932 134.306 101.936C134.264 102.447 134.096 102.887 133.84 103.327C133.656 103.643 133.422 103.943 133.191 104.223C132.643 104.89 131.349 104.875 130.795 104.223C130.386 103.741 130.06 103.186 130.055 102.533C130.053 102.366 130.074 102.189 130.114 102.014L129.368 102.027C127.544 102.055 125.706 102.043 123.914 101.753C123.277 101.885 122.756 100.734 123.635 100.39C126.026 99.4547 128.697 99.1793 131.234 98.8984C132.538 98.7538 133.849 98.6543 135.157 98.5512ZM155.525 97.5845L155.59 97.578C157.172 97.4159 158.916 97.1352 160.502 97.2967C162.869 97.5374 162.865 100.739 160.502 100.978C159.634 101.066 158.72 101.023 157.809 100.939C158.275 101.928 157.722 103.109 156.6 103.26C155.557 103.4 154.476 102.386 154.818 101.298L154.834 101.25C154.901 101.061 154.961 100.85 155.032 100.642L154.654 100.61C153.526 100.511 151.96 100.307 151.545 99.4155C151.419 99.1469 151.448 98.8975 151.641 98.668C152.432 97.7261 154.382 97.6951 155.525 97.5845ZM138.701 90.2553C139.846 89.8391 141.036 90.813 141.184 91.9106C141.355 93.1754 140.444 94.0081 139.288 94.1591L139.23 94.1661C136.679 94.4472 134.147 94.9612 131.592 95.2518C130.432 95.3836 129.263 95.4704 128.095 95.5016L127.26 95.5203C126.237 95.5462 125.14 95.5695 124.196 95.2172L124.199 95.2108C123.948 95.1381 123.833 94.7763 124.112 94.5785C125.118 93.8673 126.473 93.5984 127.643 93.2605C128.82 92.9204 130.005 92.607 131.194 92.3126C133.69 91.695 136.283 91.1341 138.701 90.2553ZM149.261 90.5509C149.565 88.9508 151.831 88.7792 152.663 89.9435C153.201 90.1282 153.989 90.321 154.478 90.466C155.329 90.7185 156.181 90.9696 157.035 91.2129C158.804 91.7167 160.529 92.3554 162.268 92.9508C162.447 93.0123 162.398 93.2397 162.226 93.2624C159.799 93.5783 157.413 93.7253 154.972 93.624L154.471 93.6014C152.32 93.5176 148.669 93.6775 149.261 90.5509Z" fill="black"/>
</svg>
