<svg width="240" height="324" viewBox="0 0 240 324" fill="none" xmlns="http://www.w3.org/2000/svg">
<path fill-rule="evenodd" clip-rule="evenodd" d="M112.706 140.051L110.121 146.444L111.546 166.706L112.605 166.871C123.797 168.606 131.402 169.483 135.42 169.501L135.545 169.501C139.591 169.501 144.44 168.597 150.092 166.789L150.349 166.706L151.001 151.534H149.463L146.68 145.007L146.682 145.005C146.713 145.057 146.745 145.108 146.778 145.157C147.938 146.874 148.611 145.487 151.337 146.094C154.601 146.821 156.049 150.121 158.923 152.587C160.257 153.732 163.057 154.272 164.397 155.059L165.804 155.886C170.214 158.489 175.284 161.65 177.945 165.768C181.065 170.596 183.216 175.177 185.202 180.547C189.482 192.123 192.454 203.935 194.577 216.083C196.729 228.394 198.022 240.859 199.01 253.314C199.467 259.086 199.855 264.862 200.177 270.643L200.256 272.088C200.425 275.233 200.278 278.311 197.42 280.248C195.372 281.635 192.653 281.847 190.25 281.989L190.12 281.997C172.353 283.039 154.587 284.074 136.82 285.111L110.171 286.669C105.736 286.93 101.302 287.187 96.8679 287.444L86.0441 288.069C80.9427 288.36 75.8352 288.611 70.727 288.581C64.3002 288.544 57.9007 288.069 51.5331 287.212L50.9713 287.135C46.9653 286.582 41.1567 285.182 40.4371 280.376C40.3338 279.686 40.941 279.255 41.4508 279.354C41.283 278.572 41.1789 277.788 41.0794 277.107C40.6524 274.199 40.3843 271.273 40.2518 268.336C39.9861 262.461 40.21 256.559 40.7971 250.71C41.7684 241.032 43.13 231.372 44.5368 221.745L44.8501 219.606C46.3465 209.407 48.1281 199.225 50.916 189.29C53.4913 180.112 57.509 170.565 63.0372 164.761C68.5654 158.958 76.4474 153.916 84.5463 150.827C85.2478 150.56 99.1829 147.508 100.122 147.952L100.29 147.82C103.069 145.626 107.032 141.771 111.113 142.985L111.122 142.97C111.218 142.793 111.595 141.609 112.116 140.051L112.706 140.051Z" fill="#8FA7DF"/>
<path fill-rule="evenodd" clip-rule="evenodd" d="M115.653 131.543C119.029 127.262 122.586 125.902 127.844 126.22C131.409 126.093 134.964 127.019 137.983 129.064C140.749 130.51 143.202 132.5 144.953 135.062C146.45 137.252 145.312 142.665 146.68 145.007C146.667 145.262 146.66 145.494 146.66 145.704C146.66 147.731 148.07 149.992 150.889 152.489L151.001 152.587V167.314C146.261 168.772 140.392 169.501 133.394 169.501C126.501 169.501 119.331 168.343 111.884 166.028L111.546 165.922L110.121 149.916L111.546 145.487L111.545 141.778L112.096 140.118C113.07 137.201 114.562 132.928 115.653 131.543Z" fill="#D08B5B"/>
<path fill-rule="evenodd" clip-rule="evenodd" d="M111.546 165.922C111.546 165.922 124.062 169.568 132.607 169.568C141.151 169.568 150.349 165.922 150.349 165.922L148.857 285.95L124.841 286.244L111.546 165.922Z" fill="#9FD8E5"/>
<path fill-rule="evenodd" clip-rule="evenodd" d="M70.3428 218.33C70.2503 218.157 70.4649 218.001 70.6073 218.126C73.8424 220.966 75.5362 225.527 75.8913 229.743C76.2676 234.214 75.7341 238.843 75.5303 243.311C75.3034 248.289 75.0995 253.269 74.8225 258.244C74.5413 263.292 74.2383 268.338 73.9787 273.387L73.3946 284.745C73.3324 285.955 73.467 287.444 73.0026 288.573C72.2831 290.325 70.1456 290.053 69.6964 288.59L69.6824 288.542L69.6414 288.573C69.245 287.254 69.5417 285.688 69.6088 284.324L70.2209 271.915C70.6533 263.144 71.0389 254.373 71.5034 245.603L71.6613 242.68C71.8784 238.745 72.0449 234.82 72.1786 230.887L72.222 229.575C72.349 225.625 72.2482 221.896 70.3428 218.33ZM148.767 145.517C150.57 145.346 151.931 145.944 153.567 146.573C154.28 146.848 154.955 147.164 155.639 147.492C156.495 147.903 157.045 148.629 157.573 149.397L157.854 149.81C160.05 153.028 161.526 156.74 163.193 160.243C165.142 164.341 167.11 168.43 169.018 172.548L169.959 174.576C170.43 175.59 170.899 176.605 171.361 177.623L172.16 179.395C172.962 181.192 173.682 183.094 172.538 184.947C171.475 186.672 169.59 188.006 168.097 189.339C166.852 190.451 165.606 191.563 164.361 192.674C166.936 195.254 168.665 198.502 169.681 201.986C171.125 201.384 172.887 201.269 174.38 201.008C176.469 200.644 176.725 203.809 174.753 203.77C173.297 203.741 171.588 203.89 170.094 203.583C170.353 204.728 170.542 205.89 170.662 207.055C171.289 213.162 169.918 219.305 168.487 225.213L168.369 225.699C166.815 232.094 165.342 238.506 164.024 244.955C162.703 251.417 161.514 257.906 160.459 264.418C159.386 271.045 158.626 277.709 157.809 284.371C157.686 285.379 157.052 286.244 155.938 286.244C155.01 286.244 153.949 285.377 154.066 284.371C154.909 277.116 156.103 269.899 157.291 262.693C159.335 250.284 161.909 237.983 164.869 225.763L165.387 223.635C166.719 218.115 167.927 212.428 167.259 206.735C166.715 202.099 164.777 197.156 160.948 194.277L160.831 194.19C159.936 193.534 159.592 192.279 160.473 191.415C161.034 190.865 161.595 190.316 162.157 189.767L165.528 186.474L166.208 185.809C166.774 185.256 167.344 184.706 167.93 184.172C168.285 183.85 169.247 183.235 169.318 182.704C169.363 182.358 168.954 181.75 168.787 181.431L168.027 179.895C167.594 179.019 167.176 178.136 166.754 177.255C165.88 175.43 164.993 173.61 164.138 171.776L158.999 160.762C157.55 157.655 156.259 154.374 154.363 151.502L153.99 150.942C153.678 150.47 153.402 150.016 153.205 149.44C153.016 148.885 152.778 148.276 152.428 147.802C151.607 146.691 150.038 146.061 148.725 145.828C148.536 145.795 148.604 145.533 148.767 145.517ZM109.249 142.624C109.363 142.624 109.38 142.787 109.275 142.819C107.692 143.295 106.178 144.064 104.944 145.173C104.353 145.704 103.758 146.307 103.394 147.022C103.254 147.295 103.177 147.584 103.12 147.884L103.102 147.984C103.008 148.525 102.873 148.826 102.598 149.26L102.551 149.333C100.982 151.757 99.8825 154.45 98.8771 157.145L96.6875 163.023L94.4994 168.902C93.7944 170.796 93.089 172.69 92.3838 174.584C91.9942 175.63 91.5936 176.672 91.1933 177.713C91.02 178.164 90.8337 178.612 90.6752 179.069C90.6535 179.131 90.5842 179.507 90.5322 179.599L90.55 179.63C90.9913 180.372 92.1683 180.993 92.8355 181.532L95.1328 183.39C96.7707 184.715 98.4507 186.003 100.039 187.387C101.037 188.256 100.417 189.813 99.3036 190.176C97.4386 190.783 95.6113 191.511 93.7741 192.199C93.032 192.476 92.2592 192.718 91.5258 193.024L91.0793 193.217C90.9049 193.296 90.9887 193.295 90.9957 193.617C91.0027 193.955 91.0984 194.307 91.1533 194.638C91.7721 198.381 92.4281 202.118 93.1205 205.848C95.5695 219.039 98.4953 232.133 101.832 245.127C103.518 251.688 105.325 258.218 107.048 264.77C108.766 271.305 111.027 277.745 113.186 284.145C113.795 285.95 110.934 286.727 110.34 284.93C107.852 277.403 105.576 269.81 103.226 262.241C99.0497 248.79 95.759 235.048 92.8486 221.272C91.406 214.445 90.0867 207.591 88.8917 200.716C88.6655 199.414 88.4436 198.112 88.2263 196.809L87.9096 194.892C87.6925 193.526 87.5689 192.103 88.6304 191.021C89.6669 189.966 91.4464 189.592 92.8104 189.097L92.9094 189.061C93.7773 188.737 94.6515 188.425 95.5224 188.103C94.2395 187.092 92.9726 186.06 91.6929 185.05C90.6607 184.236 89.6121 183.438 88.5947 182.604C87.7557 181.917 87.0717 181.035 86.9842 179.917C86.895 178.775 87.3843 177.715 87.7789 176.667L87.8168 176.566C88.2043 175.52 88.5928 174.475 88.9912 173.433L91.4567 166.982C93.0235 162.884 94.5241 158.752 96.172 154.685C96.824 153.076 97.5345 151.492 98.374 149.97C98.7788 149.237 99.213 148.519 99.6847 147.826C100.213 147.05 100.693 146.671 101.512 146.243C102.822 145.558 103.85 144.409 105.165 143.703C106.456 143.01 107.784 142.64 109.249 142.624ZM113.501 135.312C113.551 135.226 113.683 135.264 113.685 135.362C113.719 137.399 113.236 139.48 112.938 141.495C112.639 143.516 112.543 145.649 112.111 147.649C112.102 147.742 112.084 147.834 112.058 147.924L112.037 147.993C111.855 148.553 111.38 149.028 110.798 149.176C110.981 150.192 111.153 151.209 111.299 152.231C111.548 153.989 111.775 155.749 111.999 157.51L112.267 159.623C112.52 161.614 112.766 163.606 113.009 165.599C113.627 165.857 114.258 166.071 114.905 166.256C116.393 166.682 117.918 166.855 119.454 167.006C122.581 167.313 125.733 167.455 128.872 167.629L129.545 167.667C133.074 167.869 136.622 167.905 140.142 167.543C141.888 167.363 143.619 167.062 145.322 166.635C146.187 166.418 147.027 166.094 147.89 165.881C148.177 165.811 148.433 165.649 148.719 165.475C148.847 165.314 149.026 165.192 149.258 165.145L149.321 165.134L149.384 165.125L149.405 165.115L149.404 165.122C149.58 165.098 149.748 165.099 149.906 165.12C149.969 163.567 150.038 162.013 150.123 160.46C150.353 156.289 150.987 151.938 150.14 147.803C150.112 147.664 150.301 147.615 150.35 147.745C152.011 152.122 151.825 156.909 151.908 161.516C151.99 166.021 151.941 170.53 151.918 175.036C152.241 175.173 152.529 175.36 152.757 175.621C153.212 176.143 153.343 177.05 152.757 177.554C152.497 177.778 152.209 177.933 151.904 178.04C151.888 181.955 151.86 185.87 151.821 189.786C152.565 190.361 152.635 191.726 151.793 192.294C151.653 204.972 151.422 217.651 151.231 230.328L150.831 256.924C150.778 260.467 150.69 264.01 150.658 267.553L150.683 267.563L150.772 267.604C150.921 267.674 151.143 267.788 151.189 267.904C151.201 267.934 151.204 267.955 151.202 267.97C151.447 268.005 151.689 268.12 151.898 268.319C152.415 268.81 152.31 269.55 151.898 270.05L151.788 270.184C151.531 270.496 151.044 270.616 150.646 270.553C150.65 272.764 150.664 274.976 150.657 277.187C150.655 277.863 150.644 278.538 150.633 279.213L150.605 280.833C150.586 281.757 150.505 282.932 149.558 283.347C148.491 283.816 147.534 283.432 147.101 282.347C146.984 282.053 147.009 281.78 147.052 281.489C147.039 281.053 146.971 280.547 146.979 280.142L147.014 278.454C147.02 278.193 147.03 277.933 147.038 277.673L147.007 277.676C143.214 277.86 139.394 277.77 135.594 277.768L133.905 277.77C132.495 277.772 131.082 277.764 129.674 277.71L129.146 277.688C128.092 277.638 126.984 277.622 125.891 277.528C126.03 278.65 126.16 279.773 126.276 280.897C126.386 281.963 125.287 282.868 124.306 282.868C123.141 282.868 122.474 281.952 122.335 280.897C121.677 275.918 121.407 270.893 120.778 265.912C120.215 261.45 119.727 256.977 119.23 252.507L119.064 251.017C117.247 234.748 115.483 218.473 113.796 202.19L113.01 194.578C112.217 186.906 111.419 179.234 110.746 171.55C110.361 167.158 110.006 162.764 109.672 158.367C109.427 155.137 109.273 151.924 109.173 148.701C108.778 148.294 108.58 147.701 108.755 147.088C108.858 146.73 108.977 146.374 109.102 146.019C109.094 145.67 109.086 145.322 109.079 144.972C109.073 144.642 109.408 144.472 109.677 144.526C110.165 143.344 110.702 142.172 111.151 141.002C111.877 139.107 112.475 137.065 113.501 135.312ZM72.9595 155.792C80.548 151.034 89.5809 147.611 98.6281 147.979C98.8338 147.988 98.8917 148.302 98.6781 148.349C93.8524 149.427 88.9735 150.74 84.4049 152.651C79.8229 154.567 75.4662 157.148 71.5858 160.249C64.4264 165.971 58.8616 173.413 55.1974 181.802C53.0511 186.716 51.5466 191.905 50.233 197.095C48.8428 202.588 47.6971 208.139 46.7445 213.725C44.863 224.758 43.7676 235.912 43.1847 247.085C42.5916 258.451 42.8361 269.825 42.4131 281.193C42.34 283.163 39.5259 283.124 39.3829 281.193C38.4246 268.269 38.9555 255.138 39.8418 242.223C40.6387 230.613 42.0303 219.027 44.2712 207.603L44.4664 206.613C46.5613 196.044 49.0882 185.219 54.1526 175.648C58.4764 167.476 65.1516 160.687 72.9595 155.792ZM178.337 206.304C178.377 206.191 178.527 206.192 178.566 206.304C179.432 208.726 179.463 211.46 179.693 214.014L179.711 214.21C179.931 216.539 180.097 218.871 180.252 221.205L180.309 222.08C180.929 231.602 181.703 241.112 182.87 250.584C184.033 260.019 185.606 269.389 187.306 278.74C187.496 279.781 187.035 280.842 185.944 281.142C184.981 281.406 183.746 280.813 183.543 279.778C182.487 274.411 181.633 269.036 180.872 263.622C179.531 254.089 178.531 244.511 177.887 234.906C177.564 230.081 177.366 225.258 177.287 220.424C177.25 218.18 177.308 215.932 177.428 213.691L177.456 213.174C177.588 210.883 177.575 208.488 178.337 206.304ZM96.3388 266.949C96.4402 266.894 96.5657 267.007 96.5015 267.112C95.0321 269.501 93.0443 271.561 91.123 273.591C89.1145 275.713 87.1557 277.899 85.1066 279.98C83.626 281.483 81.2444 279.058 82.8069 277.679C85.0039 275.741 87.3002 273.899 89.5362 272.003L90.5141 271.174C92.3475 269.625 94.2352 268.089 96.3388 266.949ZM166.129 265.753C166.02 265.544 166.27 265.374 166.44 265.513C167.626 266.477 168.688 267.627 169.832 268.645C170.966 269.653 172.141 270.593 173.349 271.509C174.562 272.43 175.801 273.314 177.074 274.15C178.13 274.844 179.218 275.4 180.323 275.975C180.835 276.041 181.309 276.293 181.689 276.769C182.289 277.523 182.353 278.944 181.521 279.598L181.371 279.716C180.4 280.479 179.247 280.572 178.291 279.716C177.224 278.759 176.215 277.707 175.189 276.697L174.881 276.395C173.78 275.324 172.705 274.218 171.692 273.062L170.775 272.019C169.073 270.077 167.302 267.985 166.129 265.753ZM160.67 153.836C160.472 153.705 160.594 153.353 160.837 153.437L161.284 153.592C163.149 154.24 165.068 154.959 166.762 155.957C168.581 157.03 170.262 158.308 171.867 159.679C175.189 162.516 178.016 166.005 180.418 169.642C185.239 176.94 188.22 185.297 190.626 193.66C193.193 202.576 195.169 211.684 196.782 220.819C198.421 230.101 199.686 239.468 200.517 248.858C200.926 253.483 201.201 258.112 201.339 262.753C201.41 265.141 201.408 267.527 201.388 269.916C201.383 270.53 201.387 271.144 201.394 271.758L201.418 273.601C201.43 274.765 201.57 275.989 201.293 277.127C200.847 278.959 197.82 278.617 197.919 276.745C197.828 276.122 197.825 275.478 197.848 274.833C197.834 274.75 197.818 274.666 197.801 274.579C197.751 274.332 197.794 274.103 197.891 273.906C197.906 273.596 197.921 273.289 197.926 272.986C197.945 271.757 197.944 270.532 197.91 269.302C197.839 266.71 197.735 264.117 197.631 261.526C197.423 256.348 197.134 251.168 196.714 246.002C195.254 228.023 192.172 209.941 186.994 192.643C184.589 184.61 181.273 176.725 176.519 169.784C174.408 166.703 172.027 163.856 169.387 161.215C166.731 158.556 163.804 155.912 160.67 153.836ZM124.841 269.74L125.2 272.337C125.379 273.635 125.557 274.934 125.726 276.234C126.871 276.077 128.043 276.011 129.146 275.913C131.078 275.742 133.024 275.659 134.961 275.579C138.969 275.414 142.996 275.127 147.007 275.147C147.048 275.147 147.087 275.15 147.126 275.153L147.325 270.03L144.507 270.026C142.119 270.022 139.731 270.002 137.344 269.981C135.193 269.963 133.042 269.96 130.892 269.915L129.97 269.893C128.34 269.849 126.539 269.94 124.841 269.74ZM147.561 262.304C147.446 262.318 147.329 262.329 147.205 262.335C146.647 262.358 146.084 262.342 145.525 262.346C144.336 262.357 143.147 262.365 141.957 262.365C139.578 262.364 137.2 262.379 134.821 262.407C132.373 262.437 129.926 262.479 127.477 262.484C126.29 262.486 125.108 262.455 123.922 262.422C124.113 264.108 124.314 265.793 124.535 267.474C126.377 267.225 128.358 267.35 130.158 267.333L130.392 267.33C132.849 267.288 135.308 267.319 137.765 267.322C140.293 267.325 142.821 267.333 145.349 267.354L147.426 267.371L147.43 267.266C147.491 265.614 147.53 263.96 147.561 262.304ZM123.008 254.238C123.238 256.228 123.454 258.222 123.675 260.215C123.821 260.192 123.969 260.173 124.12 260.157C125.309 260.033 126.494 259.926 127.687 259.852C130.064 259.705 132.44 259.627 134.821 259.563C137.269 259.498 139.718 259.447 142.167 259.413C143.357 259.396 144.546 259.398 145.735 259.406C146.294 259.41 146.858 259.392 147.415 259.429C147.481 259.434 147.545 259.441 147.608 259.448L147.649 256.456C147.657 255.957 147.664 255.459 147.672 254.96C145.833 255.073 143.964 255.03 142.126 255.031L141.703 255.032C139.394 255.042 137.084 255.011 134.775 254.963C132.394 254.913 130.017 254.835 127.64 254.683C126.676 254.621 125.72 254.539 124.762 254.433L124.283 254.378C123.866 254.329 123.437 254.289 123.008 254.238ZM147.862 245.794C143.433 246.145 139.028 246.292 134.587 246.336L133.921 246.342C129.997 246.371 126.04 246.533 122.107 246.429C122.342 248.469 122.577 250.509 122.813 252.548C123.376 252.522 123.942 252.522 124.493 252.502C125.613 252.461 126.729 252.451 127.85 252.449C130.158 252.444 132.467 252.464 134.775 252.459C137.155 252.454 139.533 252.414 141.912 252.369C143.841 252.333 145.79 252.188 147.724 252.193L147.862 245.794ZM148.049 237.091C147.536 237.262 146.93 237.273 146.266 237.303L144.551 237.389C143.757 237.428 142.962 237.464 142.167 237.493C139.517 237.59 136.868 237.681 134.218 237.765C131.503 237.852 128.774 237.902 126.058 237.816C124.728 237.774 123.409 237.704 122.082 237.593C121.754 237.566 121.42 237.548 121.085 237.524C121.394 240.227 121.704 242.929 122.015 245.631C125.93 245.15 129.874 244.851 133.784 244.354L137.319 243.902C140.853 243.451 144.383 243.009 147.93 242.636L148.049 237.091ZM148.238 228.293C147.485 228.479 146.627 228.47 145.904 228.516L145.77 228.525C144.4 228.629 143.026 228.681 141.653 228.715C138.961 228.781 136.268 228.814 133.576 228.831L131.957 228.841C129.798 228.853 127.641 228.859 125.482 228.808C124.097 228.776 122.716 228.708 121.332 228.639C120.917 228.618 120.493 228.604 120.068 228.583C120.358 231.142 120.65 233.7 120.941 236.258C121.396 236.186 121.853 236.131 122.288 236.057C123.403 235.869 124.517 235.718 125.64 235.583C128.073 235.292 130.519 235.082 132.963 234.905C135.472 234.723 137.984 234.569 140.494 234.393L142.271 234.268C142.864 234.226 143.456 234.187 144.049 234.15C145.062 234.088 146.238 234.158 147.242 233.938C147.514 233.825 147.816 233.799 148.119 233.863L148.238 228.293ZM148.466 217.995C148.205 218.326 147.816 218.499 147.352 218.559C144.936 218.873 142.457 218.923 140.02 219.071L139.59 219.098C137.073 219.264 134.556 219.394 132.037 219.528C129.45 219.665 126.864 219.777 124.275 219.868C123.176 219.906 122.071 219.91 120.97 219.896L120.498 219.889C120.046 219.882 119.573 219.883 119.098 219.867C119.361 222.26 119.626 224.652 119.895 227.044C120.379 226.991 120.863 226.951 121.332 226.901C122.715 226.755 124.096 226.61 125.482 226.501C128.109 226.294 130.737 226.17 133.368 226.039C136.06 225.906 138.754 225.817 141.447 225.691C142.752 225.63 144.057 225.554 145.359 225.434C146.271 225.351 147.355 225.04 148.306 225.154C148.358 222.767 148.412 220.381 148.466 217.995ZM148.678 208.769C148.637 208.833 148.589 208.895 148.53 208.952C147.466 210.004 146.155 209.923 144.745 210.033L144.659 210.04C143.277 210.156 141.894 210.267 140.511 210.367C137.746 210.566 134.975 210.706 132.205 210.831C129.371 210.958 126.519 211.046 123.682 210.988C121.865 210.951 119.963 210.957 118.11 210.78C118.394 213.415 118.681 216.05 118.969 218.684C119.49 218.586 120.014 218.511 120.511 218.432C121.763 218.235 123.016 218.037 124.275 217.892C126.79 217.603 129.307 217.332 131.828 217.087C133.983 216.878 136.138 216.666 138.295 216.475L139.59 216.363C142.164 216.146 144.77 215.789 147.352 215.736C147.778 215.728 148.259 215.959 148.503 216.325C148.56 213.806 148.619 211.288 148.678 208.769ZM148.857 201.301C148.2 201.381 147.492 201.335 146.885 201.355C145.351 201.405 143.818 201.452 142.284 201.497L133.081 201.769C129.947 201.861 126.803 201.93 123.669 201.886C122.29 201.867 120.905 201.864 119.526 201.789L119.067 201.762C118.5 201.724 117.804 201.718 117.124 201.649L117.927 209.086C119.771 208.82 121.671 208.72 123.499 208.564L123.89 208.529C126.587 208.283 129.296 208.121 131.998 207.938C134.769 207.75 137.536 207.522 140.303 207.289C141.687 207.173 143.069 207.057 144.452 206.93L144.622 206.913C145.928 206.776 147.156 206.486 148.312 207.256C148.481 207.369 148.614 207.519 148.704 207.688C148.755 205.559 148.804 203.43 148.857 201.301ZM149.071 192.622C143.467 192.847 137.861 193.019 132.252 193.094C129.095 193.136 125.942 193.106 122.785 193.04C121.416 193.012 120.036 192.946 118.668 192.841L118.156 192.8C117.506 192.745 116.822 192.706 116.142 192.64C116.423 195.197 116.702 197.754 116.979 200.312C117.648 200.188 118.348 200.13 118.934 200.055L119.067 200.038C120.524 199.837 121.995 199.72 123.459 199.591C126.311 199.34 129.176 199.178 132.035 199.04C134.963 198.899 137.892 198.78 140.819 198.65L143.748 198.519C144.236 198.497 144.724 198.476 145.212 198.455C145.909 198.426 146.606 198.398 147.303 198.369C147.647 198.355 148.005 198.308 148.349 198.326L148.447 198.312C148.492 198.307 148.532 198.302 148.569 198.298C148.663 198.227 148.764 198.168 148.87 198.123L148.935 198.098L149.071 192.622ZM115.223 184.397C115.483 186.699 115.741 189.001 115.995 191.304C116.794 191.212 117.603 191.162 118.366 191.093C119.905 190.955 121.452 190.834 122.995 190.763L126.081 190.62C128.137 190.525 130.194 190.433 132.252 190.358C137.885 190.152 143.518 189.916 149.147 189.629C149.187 188.067 149.228 186.505 149.27 184.944C148.999 185.233 148.609 185.424 148.096 185.422C142.186 185.407 136.271 185.441 130.362 185.344C127.404 185.295 124.449 185.223 121.495 185.071C120.049 184.997 118.595 184.846 117.161 184.647C116.549 184.562 115.879 184.502 115.223 184.397ZM114.277 176.194C114.555 178.552 114.828 180.911 115.096 183.27C115.83 183.139 116.588 183.069 117.273 182.976C118.744 182.776 120.224 182.617 121.706 182.533C124.589 182.37 127.475 182.287 130.362 182.226C136.271 182.101 142.186 182.101 148.096 182.055C148.651 182.05 149.063 182.27 149.334 182.598C149.375 181.126 149.418 179.653 149.463 178.181C148.892 178.12 148.326 178.035 147.802 177.998C146.193 177.886 144.582 177.783 142.971 177.691C139.61 177.498 136.245 177.333 132.881 177.187C129.516 177.04 126.15 176.897 122.784 176.772L121.312 176.719C118.971 176.632 116.591 176.522 114.277 176.194ZM113.219 167.314C113.508 169.702 113.793 172.091 114.077 174.48L114.163 175.219C116.979 174.671 119.945 174.511 122.784 174.39C126.151 174.247 129.511 174.173 132.881 174.184C136.247 174.194 139.608 174.273 142.971 174.413C144.652 174.482 146.333 174.562 148.012 174.653C148.474 174.678 149.015 174.665 149.573 174.673C149.585 174.298 149.595 173.922 149.608 173.547C149.659 172.027 149.709 170.506 149.761 168.986C148.625 169.57 147.148 169.805 146.007 170.054L145.876 170.083C143.991 170.506 142.066 170.781 140.142 170.949C136.363 171.278 132.545 171.155 128.77 170.836L128.109 170.779C124.794 170.492 121.357 170.127 118.143 169.307C116.612 168.916 115.03 168.369 113.658 167.576C113.515 167.494 113.368 167.406 113.219 167.314ZM145.139 138.935C145.171 138.806 145.365 138.776 145.428 138.897C145.875 139.745 146.041 140.764 146.351 141.673C146.684 142.65 146.996 143.635 147.364 144.6C148.132 146.617 149.039 148.555 150.121 150.424C151.192 152.274 148.193 153.595 147.405 151.569C146.591 149.479 145.923 147.318 145.518 145.109C145.321 144.031 145.145 142.939 145.088 141.844C145.038 140.903 144.906 139.852 145.139 138.935Z" fill="black"/>
<path fill-rule="evenodd" clip-rule="evenodd" d="M150.989 69.0517C137.124 57.7538 114.904 54.0854 100.061 65.4837C88.5282 76.1808 83.7556 106.578 85.7966 121.853C86.3641 131.65 93.8304 142.755 104.79 139.656C106.652 139.473 108.459 138.757 110.337 138.608C112.584 138.348 114.847 138.344 117.09 138.661C121.976 139.354 126.307 141.955 131.049 143.171C139.849 145.427 149.667 143.909 157.241 138.828C182.272 122.33 170.934 85.0192 150.989 69.0517Z" fill="#D08B5B"/>
<path fill-rule="evenodd" clip-rule="evenodd" d="M149.143 143.442C149.4 143.353 149.657 143.261 149.912 143.166C149.929 143.225 149.957 143.282 149.988 143.337C150.024 143.426 150.06 143.512 150.1 143.599C149.78 143.601 149.459 143.544 149.143 143.442ZM148.629 33.9586C148.515 33.703 148.384 33.4579 148.236 33.221C148.595 33.3374 148.953 33.498 149.278 33.7052C149.059 33.7791 148.843 33.8637 148.629 33.9586ZM93.8592 67.3859C93.8444 67.3834 93.8299 67.3813 93.8153 67.3788C94.0034 66.8768 94.3384 66.403 94.7084 66.0608C94.7748 65.9993 94.8467 65.9424 94.9162 65.8837C94.5235 66.3527 94.1672 66.8529 93.8592 67.3859ZM194.073 119.875C193.888 118.112 193.652 116.356 193.346 114.61C193.053 112.938 192.806 111.15 191.956 109.667C191.113 108.189 190.268 106.754 189.265 105.454C189.408 104.791 189.598 104.167 189.762 103.664C190.711 100.769 191.645 97.0912 189.673 94.4007C189.216 93.7773 188.657 93.2996 188.018 92.8685C187.746 92.6846 187.295 92.5176 187.087 92.264C186.939 92.0843 186.99 92.1816 186.983 92.0928C186.947 91.6151 188.065 90.607 188.326 90.2287C188.815 89.5289 189.18 88.7408 189.458 87.9355C190.559 84.7484 189.81 81.2378 189.149 78.0441C188.799 76.3514 188.413 74.6543 188.286 72.9254C188.168 71.3023 188.389 69.7171 188.52 68.1024C188.647 66.5086 188.613 64.8645 187.932 63.3891C187.599 62.6705 187.095 62.0365 186.481 61.5419C185.883 61.0581 185.136 60.777 184.553 60.2951C183.971 59.8152 184.137 59.1665 184.289 58.5029C184.498 57.6025 184.761 56.7085 184.786 55.7786C184.833 54.1575 184.173 52.5785 183.142 51.3529C182.079 50.0869 180.562 49.2307 178.921 49.0384C178.171 48.9496 177.433 49.0999 176.687 49.0471C175.949 48.9964 175.789 48.6265 175.649 47.9502C175.329 46.401 175.46 44.8708 174.699 43.4252C174.024 42.1402 172.824 41.2692 171.498 40.7558C169.068 39.8132 166.241 40.0076 163.677 40.5633C162.163 36.0998 157.439 33.1726 152.79 33.1366C152.065 31.9023 150.836 30.9809 149.434 30.4396C147.115 29.5413 144.659 30.0657 142.243 30.0657H142.232C141.99 30.0507 141.747 30.0446 141.505 30.0467C141.277 30.0338 141.049 30.0148 140.822 29.9896C138.073 29.6639 135.353 28.5353 132.629 29.6409C131.415 30.1333 130.449 30.8921 129.838 31.8601C128.917 32.1114 128.008 32.399 127.116 32.7329C123.252 32.8342 119.423 34.9118 117.469 38.2788C114.718 37.966 111.733 38.4965 109.913 40.7495C109.439 41.3358 109.072 42.0245 108.829 42.7558C106.974 43.3573 105.257 44.4291 104.133 46.0434C103.108 47.5165 102.911 49.4212 103.605 51.0025C101.948 52.2053 100.654 53.9272 100.031 55.9603C99.6519 57.1957 99.5956 58.472 99.8393 59.6879C98.1437 60.065 96.5219 60.7639 95.0849 61.8128C93.579 62.9117 91.6982 64.6606 91.5992 66.6735C91.5918 66.8212 91.5975 66.9689 91.6093 67.1163C88.2941 66.8827 84.9138 67.4458 82.673 70.1102C80.9904 72.1094 80.259 74.6839 80.7081 77.0277C76.7636 77.8309 73.034 79.8979 70.4324 82.954C68.5416 85.1753 66.8613 87.9989 66.9623 91.0231C66.9939 91.9343 67.2071 92.8515 67.576 93.6991V93.701C67.4179 93.9992 67.2553 94.331 67.0993 94.6839C64.6559 96.3978 62.8808 99.0843 61.8815 102.045C61.0743 104.444 60.5662 107.559 61.4282 110.001C61.5591 110.372 61.7257 110.723 61.9197 111.049C61.7571 111.222 61.6034 111.395 61.4537 111.571C59.807 113.5 58.1394 115.931 58.2535 118.587C58.2998 119.657 58.696 120.733 59.3434 121.616C57.0663 123.931 55.2324 126.851 55.4135 130.113C55.5695 132.951 57.1235 135.834 59.5582 137.197C59.1516 139.385 59.6955 141.692 61.3945 143.4C62.2422 144.254 63.2413 144.816 64.2998 145.116C64.536 147.693 66.8168 149.766 69.2392 150.362C69.6905 150.474 70.1417 150.542 70.5905 150.573C72.7704 151.645 75.3699 151.522 77.594 150.539C78.2497 151.374 79.1035 152.055 80.0986 152.543C80.5013 152.742 80.9274 152.907 81.372 153.04C84.5132 153.972 87.7348 152.708 90.4816 151.233C90.5701 151.186 90.7325 151.127 90.8758 151.062C91.2553 151.486 91.9468 151.907 92.3073 152.114C93.5303 152.818 95.025 153.145 96.4291 153.053C98.0756 152.943 99.528 152.397 100.873 151.622C101.069 151.656 101.267 151.675 101.466 151.685C102.731 151.753 103.858 151.351 104.873 150.717C105.543 150.806 106.23 150.797 106.926 150.675C108.459 151.066 109.951 150.444 111.151 149.457C111.682 149.02 112.131 148.506 112.612 148.016C113.111 147.507 113.491 147.388 114.075 147.046C115.456 146.237 115.622 144.184 115.023 142.7C115.137 142.441 115.203 142.151 115.203 141.83C115.198 139.027 113.91 136.457 112.329 134.215C111.623 133.215 110.856 132.236 110.014 131.349C109.337 130.637 108.387 129.481 107.385 129.191C107.324 129.147 107.261 129.102 107.198 129.06C107.392 128.379 107.505 127.686 107.457 126.978C107.406 126.251 107.172 125.562 106.797 124.975C108.056 122.529 108.587 119.847 108.334 117.049C109.359 115.593 110.135 113.984 110.535 112.222C110.782 111.131 110.923 109.984 110.904 108.865C110.895 108.329 110.699 107.65 110.695 107.094C110.725 107.27 110.953 106.615 111.041 106.452C112.057 104.56 113.362 103.085 113.579 100.855C113.706 99.5511 113.398 98.1099 112.618 97.0405C113.118 95.0665 113.111 92.9464 112.325 91.0635C112.114 90.5605 111.872 90.0681 111.594 89.601C111.722 89.2079 111.84 88.8105 111.992 88.4531C112.051 88.3115 112.11 88.168 112.169 88.0243C112.74 87.519 113.272 86.9675 113.719 86.4263C114.709 85.2281 115.466 83.8544 115.561 82.2711C115.608 81.4786 115.422 80.7198 115.192 79.9676C115.091 79.6273 115.03 79.249 114.91 78.9172C114.842 78.7331 114.68 78.5452 114.623 78.3719C114.61 78.3339 114.6 78.3022 114.591 78.2768C114.6 78.2515 114.606 78.1986 114.606 78.0991C114.608 77.3403 114.707 76.5985 114.712 75.8674C115.405 76.5691 116.24 77.093 117.189 77.3997C119.101 78.0147 121.095 77.7358 122.788 76.7868C124.61 78.038 126.657 79.1706 128.803 79.6252C130.078 79.8956 131.356 79.7837 132.635 79.9507C133.907 80.1177 135.136 80.6735 136.333 81.1068C138.998 82.0727 141.657 83.0637 144.33 84.0044C146.489 84.7632 148.824 85.3655 151.085 84.9386C151.719 85.919 152.544 86.7477 153.6 87.3564C154.356 87.7897 155.187 88.0833 156.045 88.2293C156.804 88.3582 157.694 88.3075 158.309 88.8295C158.91 89.3368 159.285 90.0932 159.825 90.6641C160.426 91.3023 161.168 91.8561 161.946 92.2534C162.57 92.5726 163.207 92.8027 163.854 92.953C163.797 94.3965 163.742 95.8379 163.725 97.2836C163.694 100.424 163.706 103.565 163.664 106.706C163.622 109.835 163.523 112.966 163.359 116.092C163.202 119.025 162.983 121.969 162.285 124.831C159.971 134.327 151.299 141.126 141.593 141.473C138.712 141.576 135.859 141.17 133.103 140.321C130.249 139.439 127.7 137.626 124.774 137.068C124.009 136.924 123.288 137.696 123.726 138.437C124.481 139.712 125.398 140.49 126.652 141.257C127.966 142.058 129.429 142.652 130.873 143.172C133.529 144.127 136.34 144.681 139.158 144.835C141.309 144.953 143.467 144.806 145.574 144.4C145.721 144.854 145.983 145.296 146.181 145.717C146.21 145.778 146.31 145.736 146.291 145.672C146.259 145.567 146.238 145.474 146.229 145.397C146.938 146.323 148.032 146.963 149.156 147.274C149.948 147.494 150.79 147.561 151.605 147.469C151.869 147.439 152.12 147.395 152.369 147.34C153.199 148.069 154.262 148.555 155.328 148.798C155.145 149.914 155.695 151.131 156.971 151.448C157.506 151.582 158.02 151.584 158.535 151.535C158.95 151.729 159.397 151.882 159.872 151.985C160.489 152.12 161.227 151.947 161.693 151.499C161.948 151.679 162.186 151.803 162.422 152.089C163.395 153.264 165.49 152.328 165.583 150.969C165.89 150.969 166.2 150.973 166.511 150.983C166.584 151.017 166.658 151.051 166.734 151.087C168.089 151.719 169.493 152.271 170.993 151.774C171.269 151.683 171.522 151.567 171.751 151.432C172.808 151.527 173.849 151.529 174.92 151.182C175.553 150.977 176.147 150.652 176.642 150.225C178.295 150.711 180.039 150.931 181.683 150.328C182.914 149.878 183.905 149.168 184.603 148.231C185.67 148.27 186.753 148.012 187.73 147.502C189.399 146.636 190.569 144.989 191.385 143.339C193.182 139.697 194.244 135.785 194.661 131.751C195.072 127.777 194.486 123.825 194.073 119.875Z" fill="black"/>
<path fill-rule="evenodd" clip-rule="evenodd" d="M143.152 128.274C141.732 127.695 140.465 126.728 139.538 125.493C139.216 125.063 139.133 124.61 139.2 124.195C139.276 123.729 139.552 123.306 139.928 123.023C140.305 122.739 140.777 122.598 141.233 122.67C141.63 122.732 142.024 122.949 142.337 123.399L142.402 123.489C142.953 124.235 143.67 124.846 144.488 125.241C145.276 125.621 146.158 125.798 147.07 125.695C148.808 125.499 150.005 124.559 151.278 123.282C151.436 123.121 151.594 122.955 151.752 122.786C151.852 122.633 151.991 122.534 152.146 122.483C152.317 122.425 152.511 122.429 152.689 122.491C152.86 122.55 153.013 122.664 153.116 122.815C153.213 122.958 153.269 123.135 153.251 123.339C153.134 124.661 152.443 125.842 151.461 126.769C150.37 127.799 148.924 128.511 147.563 128.761C146.064 129.036 144.536 128.839 143.152 128.274ZM148.271 107.866C149.866 108.836 152.297 111.098 150.581 113.503C148.56 115.624 145.652 113.193 144.218 112.093C142.889 111.241 141.396 113.433 142.629 114.428C152.986 122.099 157.19 108.12 149.077 106.726C148.184 106.572 147.853 107.566 148.271 107.866ZM129.711 98.9429C129.887 96.7541 133.219 96.257 133.551 98.423C133.847 100.363 133.498 102.145 132.624 103.892C131.79 105.561 129.692 104.783 129.533 103.263C129.32 101.226 129.601 100.304 129.711 98.9429ZM155.076 97.9739C155.541 97.3652 156.211 96.9497 157.015 97.1845C159.526 97.9185 158.786 101.485 157.904 103.22C157.425 104.163 155.876 104.402 155.176 103.572C154.035 102.219 153.489 99.5157 154.939 98.1825C154.979 98.1136 155.022 98.044 155.076 97.9739ZM132.589 89.3654L132.986 89.2959C134.213 89.0836 135.738 88.8796 136.606 89.8665C137.067 90.3898 137.225 91.3624 136.606 91.8633C135.518 92.7446 134.314 92.4031 133.01 92.4777C131.935 92.5394 130.902 92.7174 129.867 93.0135C127.595 93.6629 125.744 94.8486 123.804 96.1505C123.549 96.3213 123.29 95.9956 123.411 95.7574C124.531 93.563 126.701 91.7604 128.875 90.6616C130.036 90.0751 131.305 89.5885 132.589 89.3654ZM152.787 88.3823L153.091 88.4445C156.394 89.1353 160.687 90.5153 162.251 93.7615C162.311 94.2205 162.248 94.3189 162.196 94.3832L162.179 94.4046C162.137 94.4595 162.104 94.5351 161.905 94.5976C161.849 94.5845 161.794 94.5705 161.737 94.5557C161.02 94.3677 160.453 94.1087 159.904 93.84L159.308 93.5465C158.617 93.2076 157.92 92.881 157.181 92.6399C155.605 92.1255 153.983 91.7631 152.337 91.5696C151.98 91.5277 151.636 91.4072 151.365 91.2007C151.107 91.0046 150.911 90.7332 150.821 90.3724C150.705 89.9056 150.738 89.5521 150.989 89.1309C151.177 88.8146 151.447 88.5953 151.756 88.4694C152.071 88.3411 152.43 88.3108 152.787 88.3823Z" fill="black"/>
</svg>
