<svg width="240" height="324" viewBox="0 0 240 324" fill="none" xmlns="http://www.w3.org/2000/svg">
<path fill-rule="evenodd" clip-rule="evenodd" d="M47.4645 285.957C75.0656 290.151 103.167 290.362 130.998 288.839C142.012 288.014 153.06 287.865 164.065 288.92C170.568 289.404 199.081 291.584 201.411 285.757C199.944 254.73 196.975 223.438 187.865 193.598C184.119 183.002 180.901 174.208 173.589 165.44C171.284 163.046 166.315 158.025 163.467 156.387C161 154.969 159.969 155.475 158.552 153.079C157.144 150.433 156.106 146.012 154.107 144.145C152.072 142.243 149.056 142.924 145.317 143.536C146.004 134.251 141.72 131.887 135.818 130.121C125.444 126.16 115.198 128.15 112.587 140.784C107.746 140.784 105.026 142.868 102.086 144.871C100.884 145.689 101.72 147.775 100.285 148.419C97.6289 149.365 92.9354 149.133 90.3781 150.297C78.7492 155.591 68.3917 163.269 61.5897 174.481C46.3403 198.42 35.8652 248.847 37.6779 277.22C36.8837 278.466 37.9819 280.253 38.2611 281.593C38.6135 282.758 39.7545 283.533 40.9454 283.401C42.6072 285.189 45.1775 285.587 47.4645 285.957Z" fill="#D08B5B"/>
<path fill-rule="evenodd" clip-rule="evenodd" d="M104.887 142.681C106.588 140.906 109.254 139.846 111.78 139.906L111.898 139.91L112.755 139.948L112.182 142.759L112.153 142.893L112.037 143.381L111.881 144.02L111.826 144.255L111.767 144.515C111.758 144.557 111.749 144.599 111.74 144.64L111.715 144.763L111.47 145.958L111.516 146.064L111.503 146.335C111.465 147.317 111.676 147.856 112.142 148.029L112.179 148.042L112.445 148.127L112.661 148.598C113.16 149.673 113.625 150.613 114.103 151.498C115.496 154.079 117.158 156.66 119.074 159.253C120.895 161.717 122.791 164.069 124.763 166.302C125.65 167.306 126.586 168.314 127.583 169.341L128.441 170.22L128.714 170.496L128.898 170.679L129.127 170.904L129.456 171.218L129.696 171.454L129.773 171.527C129.871 171.618 129.946 171.679 130.014 171.723L130.039 171.739L130.115 171.783L134.093 175.969L135.498 176.742L136.165 177.112L136.3 176.842L136.328 176.756L137.806 173.508L138.709 171.518C140.562 167.425 142.004 164.169 143.322 161.069L143.486 160.682L143.973 159.529L144.23 158.913C145.408 156.088 146.279 153.908 147.058 151.79L147.169 151.488L147.333 151.035L147.576 150.352L147.621 150.236C147.832 149.694 147.312 147.724 146.8 146.645L146.772 146.585L146.638 146.318L146.494 146.036C146.156 145.375 145.911 144.641 145.704 143.753C145.671 143.609 145.64 143.465 145.61 143.319L145.567 143.099L145.54 142.954L145.502 142.752L145.448 142.463L146.593 142.271L147.222 142.169L147.496 142.126C147.851 142.071 148.167 142.026 148.465 141.988L148.576 141.974L148.775 141.951L148.782 141.99L149.191 142.03L149.494 142.062C150.989 142.22 152.143 142.394 152.961 142.587L153.042 142.607L153.189 142.644L153.255 142.661C154 142.862 154.574 143.295 155.028 143.934C155.34 144.373 155.542 144.793 155.862 145.589L155.977 145.876L156.358 146.818C156.402 146.932 156.471 147.116 156.564 147.368L156.888 148.248L158.507 152.723L160.165 153.595C160.936 153.998 161.499 154.289 161.777 154.427L161.876 154.475L161.947 154.507L162.518 154.734L162.457 154.912L162.526 154.951C169.35 158.879 174.613 164.92 178.71 172.941L178.834 173.184L178.961 173.437C182.226 179.97 184.566 187.26 186.85 196.994L186.992 197.599L187.103 198.08L187.698 200.678C189.936 210.485 191.474 217.798 192.746 224.974L192.829 225.442L193.041 226.661C194.639 235.949 195.977 245.153 197.048 254.267L197.226 255.8C197.672 259.717 198.076 263.764 198.514 268.625L198.573 269.278L198.765 271.462C198.971 273.815 199.158 276.163 199.328 278.506L199.412 279.677L199.583 282.223L199.684 283.674L199.696 283.87L199.737 284.627L199.748 284.804C199.763 285.031 199.781 285.223 199.803 285.4L199.82 285.531L199.839 285.658C199.896 286.004 200.008 286.315 200.192 286.661L200.24 286.749L200.557 287.316L199.982 287.619C196.985 289.199 191.083 289.894 182.986 289.93L182.74 289.931H182.234C178.3 289.929 174.13 289.777 169.78 289.518L168.796 289.457L167.975 289.405C167.621 289.382 167.277 289.359 166.92 289.334L166.372 289.295L164.084 289.128C153.794 288.142 143.002 288.158 131.112 289.049C100.111 290.745 73.3535 290.029 48.2039 286.274L47.4422 286.16L46.881 286.068L46.5463 286.012C43.8786 285.557 42.2036 284.973 40.8965 283.747L40.8281 283.682L40.771 283.626L40.7463 283.627C39.4303 283.621 38.2255 282.76 37.7785 281.49L37.7552 281.421L37.7258 281.327L37.7054 281.232C37.6846 281.141 37.6586 281.043 37.627 280.935L37.6022 280.852L37.3944 280.171L38.0944 280.043C38.1547 280.032 38.2174 279.99 38.2782 279.902L38.3365 279.818L38.4374 279.678L38.6812 279.344C38.9409 278.98 39.0687 278.751 39.132 278.521C39.188 278.318 39.209 278.057 39.2029 277.695L39.1982 277.517L39.1706 276.875C39.1688 276.824 39.1676 276.778 39.1668 276.735L39.166 276.67L39.1655 275.766L39.1677 274.772C39.1694 274.338 39.1718 273.915 39.1751 273.5L39.1808 272.882L39.1864 272.385C39.2201 269.631 39.3009 266.88 39.4287 264.134C39.6787 258.771 40.1074 253.417 40.7139 248.083C41.9661 237.07 43.8843 226.389 46.4936 216.068L46.7557 215.037C49.5771 204.007 52.2972 195.503 55.7547 187.639C60.1521 177.637 65.5138 169.405 72.2648 162.824C75.9764 159.206 80.087 156.152 84.4553 153.81C86.4642 152.732 88.5994 151.776 90.8891 150.916L91.2172 150.794L91.7469 150.601L92.1532 150.451L93.4626 149.961C93.7378 149.858 94.0373 149.742 94.3915 149.603L94.6108 149.517L96.9555 148.581L97.3448 148.428L97.7777 148.259L98.0959 148.137C98.6162 147.939 99.0874 147.765 99.5248 147.613L99.7832 147.523L100.018 147.444L101.019 147.098L100.999 148.009C100.986 148.614 101.142 149.072 101.488 149.4L101.5 149.411L101.512 149.42L101.523 149.427L101.583 149.426L101.82 149.425C101.844 149.411 101.867 149.395 101.888 149.377C102.225 149.091 102.381 148.708 102.533 147.829L102.573 147.584L102.644 147.126L102.672 146.952C102.773 146.342 102.861 146.005 103.032 145.62C103.28 145.063 103.608 144.52 103.993 144.021L104.083 143.907L104.443 143.474L104.498 143.406C104.625 143.244 104.689 143.13 104.716 143.025L104.723 142.997L104.759 142.815L104.887 142.681Z" fill="#FFCF77"/>
<path fill-rule="evenodd" clip-rule="evenodd" d="M161.709 155.686C161.54 155.591 161.689 155.349 161.859 155.429C170.045 159.27 176.324 166.01 180.743 173.797C185.318 181.861 187.926 191.016 190.174 199.963L190.255 200.287C192.652 209.859 194.691 219.53 196.526 229.224C198.384 239.042 199.876 248.92 201.076 258.839C201.67 263.744 202.199 268.657 202.612 273.58C202.818 276.04 203.005 278.502 203.174 280.965C203.241 281.95 203.304 282.935 203.359 283.921L203.398 284.661C203.431 285.331 203.511 286.004 203.345 286.666C203.202 287.236 202.9 287.753 202.635 288.276C202.109 289.312 200.67 289.141 200.104 288.276L199.939 288.024C199.564 287.444 199.252 286.905 199.134 286.183C199.021 285.483 199.016 284.751 198.965 284.044C198.871 282.745 198.791 281.444 198.7 280.144C198.508 277.407 198.293 274.672 198.055 271.94C197.583 266.545 197.078 261.155 196.457 255.774C195.354 246.213 193.969 236.677 192.337 227.191C190.742 217.925 188.727 208.753 186.624 199.593L186.406 198.645C182.724 182.652 177.048 164.233 161.709 155.686ZM74.5219 218.313C74.5821 218.153 74.8411 218.117 74.8849 218.313C75.4363 220.797 75.4908 223.355 75.5751 225.898C75.6581 228.406 75.6547 230.926 75.6182 233.435C75.4834 242.659 75.2303 251.876 75.0114 261.098C74.902 265.711 74.7993 270.325 74.7205 274.939C74.6907 276.669 74.6657 278.4 74.6449 280.13L74.6194 282.412C74.6068 283.422 74.5803 284.418 74.4573 285.426C74.3761 286.089 74.2033 286.722 73.8374 287.29C73.5777 287.693 73.2076 287.898 72.8469 288.172L72.7794 288.225C72.3192 288.588 71.8346 288.591 71.3789 288.225L71.2466 288.12C70.8113 287.779 70.435 287.513 70.1571 286.975C69.7705 286.226 69.7086 285.412 69.6429 284.587C69.5432 283.336 69.6093 282.067 69.6222 280.812C69.648 278.295 69.6828 275.778 69.727 273.261C69.889 264.031 70.2093 254.799 70.793 245.586C71.068 241.246 71.4409 236.892 71.9411 232.57L72.0364 231.76C72.188 230.488 72.3264 229.194 72.4823 227.896C70.1548 226.258 68.1089 224.271 66.3642 222.016C66.2358 221.851 66.4473 221.618 66.6023 221.778C68.385 223.625 70.429 225.097 72.6919 226.255C73.0627 223.536 73.5725 220.833 74.5219 218.313ZM113.406 136.038C113.438 136.013 113.488 136.002 113.518 136.038C114.019 136.621 113.917 137.513 113.933 138.253L113.935 138.322C113.971 139.403 113.978 140.48 113.974 141.562L113.963 145.005C113.962 145.478 113.923 145.971 113.948 146.448L113.96 146.632C114.223 146.901 114.345 147.29 114.256 147.681C114.24 148.182 113.978 148.601 113.596 148.863L114.415 150.026L115.235 151.188C116.925 153.586 118.633 155.962 120.414 158.294C122.229 160.671 124.166 162.959 126.193 165.159C127.183 166.234 128.191 167.294 129.221 168.33C129.64 168.751 130.069 169.162 130.494 169.577L130.916 169.995C131.165 170.244 131.479 170.491 131.645 170.808C131.742 170.994 131.765 171.454 131.799 171.53C132.112 172.218 131.579 173.314 130.692 172.971L130.732 172.944C130.894 172.832 130.79 172.83 130.422 172.939C130.19 172.939 129.972 172.885 129.768 172.779L129.707 172.746C129.421 172.6 129.165 172.318 128.932 172.092L128.874 172.037C128.342 171.538 127.834 171.009 127.324 170.487C126.258 169.398 125.217 168.286 124.209 167.145C122.197 164.867 120.291 162.496 118.485 160.053C116.646 157.563 114.936 154.947 113.466 152.222C112.908 151.188 112.396 150.135 111.906 149.068C110.952 148.762 110.73 147.746 110.796 146.602C110.444 145.782 110.127 144.945 109.939 144.089C109.914 143.972 110.064 143.861 110.155 143.964C110.46 144.311 110.743 144.68 111.014 145.059C111.178 144.257 111.386 143.519 111.483 143.048L111.906 140.971C109.522 140.847 106.909 141.827 105.265 143.542C105.177 143.989 104.833 144.309 104.498 144.727C104.115 145.204 103.781 145.74 103.532 146.3C102.98 147.542 103.291 149.372 102.219 150.283C102.107 150.378 101.983 150.444 101.854 150.485C102.362 152.98 102.132 155.73 102.121 158.262L102.12 158.485C102.123 161.319 102.028 164.154 101.919 166.986L101.807 169.788C101.663 173.525 101.569 177.264 101.932 180.98C103.59 179.512 105.304 178.11 107.076 176.775C108.242 175.897 109.431 175.05 110.641 174.235L111.625 173.578C112.804 172.787 114.011 171.973 115.302 171.407C116.99 170.667 118.595 170.921 120.225 171.681C121.848 172.437 123.422 173.316 125.014 174.135C126.633 174.969 128.256 175.796 129.877 176.624C130.951 177.173 132.525 177.669 133.313 178.68C133.363 178.456 133.422 178.233 133.49 178.011C133.412 177.672 133.442 177.306 133.632 176.957C136.28 172.091 138.729 167.109 141.161 162.133C142.392 159.615 143.562 157.067 144.796 154.55L145.995 152.099C146.195 151.691 146.396 151.282 146.598 150.875C146.901 150.265 147.216 149.661 147.522 149.053C147.651 148.796 147.813 148.54 147.939 148.281L147.998 148.151C148.001 148.144 148.292 147.23 148.067 147.317L148.048 147.326C147.934 147.391 147.842 147.247 147.916 147.155C148.233 146.763 148.675 147.11 148.856 147.474C149.355 148.473 148.441 150.043 148.089 151L148.07 151.054C146.979 154.144 145.744 157.175 144.478 160.197C142.05 165.989 139.443 171.693 136.841 177.406L136.81 177.504C137.365 177.079 137.957 176.693 138.465 176.317C139.744 175.369 141.061 174.467 142.376 173.568C144.788 171.92 147.265 170.381 149.782 168.902L150.286 168.607C151.544 167.874 152.79 167.28 154.283 167.5C155.67 167.704 156.959 168.45 158.212 169.055L158.341 169.117L162.213 170.958C161.799 169.307 161.351 167.664 160.883 166.027C159.972 162.835 158.968 159.669 157.88 156.531C156.864 153.599 155.765 150.7 154.604 147.823L154.254 146.96C153.78 145.775 153.309 144.484 151.955 144.119C150.602 143.754 149.049 144.295 147.813 143.523C147.7 143.453 147.714 143.268 147.85 143.234L148.614 143.041C150.046 142.685 151.726 142.326 153.081 142.673C154.556 143.051 155.776 144.289 156.491 145.575C157.286 147.007 157.847 148.609 158.451 150.136L158.546 150.376C159.239 152.104 159.905 153.842 160.543 155.591C161.818 159.086 162.978 162.624 164.029 166.194C164.535 167.914 165.015 169.643 165.477 171.376C165.609 171.874 165.828 172.478 166.008 173.109C166.214 173.309 166.408 173.533 166.591 173.789C166.894 174.213 166.677 174.71 166.3 174.964C166.285 175.397 166.189 175.805 165.959 176.155C165.06 177.52 162.683 177.168 162.78 175.333C162.794 175.052 162.904 174.784 163.069 174.558L163.065 174.521L163.046 174.454C162.633 174.256 162.219 174.035 161.782 173.819L157.719 171.811C156.542 171.229 155.238 170.33 153.929 170.109C152.71 169.902 151.422 170.811 150.374 171.36L150.306 171.395C147.772 172.694 145.257 174.037 142.751 175.39C141.528 176.051 140.321 176.74 139.103 177.408C138.084 177.968 136.984 178.77 135.839 179.086C135.35 179.466 134.769 179.415 134.302 179.128C134.516 180.45 134.503 181.806 134.568 183.158C134.656 184.965 134.67 186.777 134.699 188.586L134.71 189.265C134.787 193.265 134.829 197.266 134.844 201.266C134.898 215.513 134.74 229.764 134.704 244.011C134.685 251.169 134.543 258.333 134.357 265.488C134.279 268.52 134.114 271.549 133.936 274.576L133.838 276.227C133.631 279.711 133.508 283.234 132.864 286.671C132.779 287.119 132.021 287.131 131.947 286.671C131.353 282.988 131.32 279.224 131.206 275.498L131.182 274.753C131.045 270.752 130.98 266.754 130.994 262.751C131.045 248.499 131.415 234.255 131.718 220.007C131.87 212.848 131.973 205.686 132.209 198.529C132.328 194.948 132.462 191.37 132.62 187.79C132.691 186.192 132.76 184.596 132.866 183L132.914 182.316C132.947 181.87 132.973 181.429 133.006 180.993C131.564 181.519 130.246 180.544 128.949 179.877C127.454 179.108 125.961 178.337 124.465 177.57L122.969 176.803L119.975 175.275C118.626 174.586 117.587 173.901 116.149 174.709C110.968 177.617 106.208 181.486 101.893 185.545C101.066 186.324 99.3175 186.115 99.1079 184.81C98.2127 179.235 98.7571 173.58 99.2142 167.989L99.3827 165.913C99.5868 163.434 99.8092 160.954 100.105 158.485C100.238 157.38 100.37 156.276 100.516 155.174L100.628 154.347C100.811 153.041 100.93 151.742 101.319 150.488C101.196 150.449 101.078 150.383 100.973 150.283C99.8027 149.173 100.367 147.246 100.901 145.925C101.428 144.621 102.232 143.483 103.238 142.504C103.458 142.29 103.767 142.152 104.078 142.145C106.519 140.528 109.197 139.72 111.984 140.603C112.062 140.229 112.142 139.855 112.226 139.482L112.311 139.11C112.528 138.185 112.609 136.656 113.406 136.038ZM138.422 282.127C139.179 281.919 140.008 282.138 140.563 282.693C141.118 283.249 141.338 284.078 141.129 284.836C141.025 285.209 140.836 285.532 140.563 285.807C140.308 286.061 140.011 286.242 139.671 286.35L139.592 286.374L139.468 286.425C139.088 286.527 138.708 286.527 138.329 286.425C137.966 286.323 137.651 286.14 137.384 285.874C137.118 285.607 136.934 285.291 136.833 284.928C136.731 284.548 136.731 284.169 136.833 283.789L136.884 283.665C136.989 283.292 137.177 282.968 137.45 282.693C137.725 282.421 138.049 282.232 138.422 282.127ZM183.394 206.624C183.518 206.482 183.72 206.665 183.643 206.817C182.463 209.13 181.148 211.427 179.856 213.682C179.959 214.307 180.062 214.927 180.18 215.531C180.684 218.107 181.3 220.636 181.702 223.236C183.147 232.582 183.898 242.029 184.541 251.458C185.187 260.922 185.27 270.389 185.367 279.871C185.375 280.693 184.743 281.648 183.896 281.803C183.509 281.874 183.219 281.86 182.832 281.803C181.951 281.673 181.399 280.664 181.362 279.871C181.109 274.572 180.769 269.279 180.375 263.988C179.677 254.608 179.251 245.203 178.687 235.812L178.488 232.53C178.275 228.974 178.08 225.416 178.017 221.854C177.974 219.495 178.1 217.136 178.023 214.779C177.951 212.603 177.731 210.237 178.21 208.099C178.228 208.019 178.355 207.999 178.391 208.076C178.89 209.126 179.206 210.267 179.449 211.432C180.734 209.806 182.042 208.177 183.394 206.624ZM99.2256 149.149C99.4061 149.135 99.3989 149.406 99.2256 149.426C96.704 149.719 94.2679 150.746 91.8869 151.618L91.683 151.693C89.2775 152.566 86.9322 153.581 84.6752 154.791C80.2625 157.157 76.2104 160.209 72.6277 163.701C58.3238 177.645 51.8051 197.751 47.0286 216.646C44.3747 227.144 42.4874 237.82 41.2642 248.577C40.6593 253.897 40.2317 259.238 39.9824 264.586C39.8548 267.327 39.7743 270.071 39.7407 272.815C39.7234 274.221 39.7183 275.627 39.72 277.032C39.7208 277.676 39.8358 278.487 39.6636 279.113C39.5039 279.692 39.0535 280.202 38.7203 280.685C38.3254 281.258 37.6158 281.227 37.2154 280.685L37.0678 280.487C36.6408 279.921 36.223 279.379 36.162 278.638C36.0968 277.845 36.1428 277.026 36.1399 276.229C36.1331 274.622 36.153 273.016 36.1851 271.41C36.247 268.331 36.3682 265.254 36.5485 262.18C36.9144 255.942 37.5167 249.717 38.3791 243.528C39.912 232.527 42.2098 221.631 45.2195 210.94C48.0589 200.855 51.4228 190.799 56.2147 181.457C60.664 172.783 66.5009 164.714 74.2029 158.652C77.7845 155.833 81.6834 153.484 85.887 151.715C88.0071 150.822 90.2335 150.094 92.4976 149.678C94.7366 149.268 96.9659 149.325 99.2256 149.149ZM138.856 264.3C139.256 264.297 139.702 264.385 140.045 264.607L140.503 264.961C140.627 265.121 140.751 265.281 140.874 265.441C141.161 265.815 141.199 266.42 141.139 266.865C141.125 267.162 141.037 267.439 140.874 267.695L140.525 268.147C140.19 268.421 139.91 268.616 139.504 268.748C139.291 268.817 139.087 268.831 138.883 268.821L138.815 268.816L138.856 268.822L138.784 268.814C138.718 268.808 138.651 268.801 138.585 268.792C138.539 268.786 138.493 268.783 138.448 268.776C138.404 268.773 138.362 268.771 138.318 268.775C137.802 268.824 137.283 268.531 136.916 268.194C136.586 267.891 136.289 267.248 136.335 266.792L136.355 266.601C136.39 266.28 136.418 266.154 136.554 265.831C136.687 265.517 136.872 265.24 137.123 265.005C137.605 264.557 138.195 264.305 138.856 264.3ZM137.257 240.781C137.943 240.033 139.12 239.979 139.97 240.43C140.177 240.541 140.367 240.718 140.549 240.865C141.009 241.237 141.19 241.908 141.215 242.474C141.24 243.033 140.946 243.696 140.549 244.082L140.453 244.176C140.216 244.406 139.877 244.606 139.546 244.667C139.011 244.765 138.563 244.762 138.065 244.552C137.638 244.372 137.269 244.082 137.019 243.688L136.978 243.622C136.961 243.594 136.945 243.566 136.929 243.537L136.907 243.494C136.431 242.578 136.559 241.541 137.257 240.781ZM137.612 217.137C137.921 217.04 138.23 217.026 138.539 217.096C138.749 217.096 138.945 217.149 139.126 217.254C139.323 217.309 139.494 217.409 139.639 217.553C139.813 217.656 139.953 217.796 140.056 217.97C140.262 218.195 140.4 218.459 140.472 218.761L140.555 219.379L140.472 219.998L140.238 220.553C140.173 220.638 140.108 220.722 140.043 220.805C139.939 220.981 139.8 221.12 139.625 221.224C139.511 221.337 139.38 221.422 139.234 221.481C138.717 221.852 138.027 221.973 137.414 221.804C137.05 221.702 136.733 221.517 136.465 221.251C136.199 220.982 136.014 220.666 135.913 220.302L135.871 220.011C135.817 219.621 135.808 219.405 135.918 218.909C135.967 218.691 136.107 218.383 136.181 218.254C136.495 217.701 137.009 217.322 137.612 217.137ZM164.45 200.127C165.338 200.121 166.225 200.122 167.113 200.132L167.778 200.141C168.892 200.159 169.847 200.044 170.723 200.817C171.359 201.379 171.079 202.32 170.475 202.743C169.561 203.384 168.414 203.062 167.362 202.991C166.254 202.917 165.144 202.855 164.034 202.805C161.885 202.709 159.735 202.648 157.583 202.638C155.437 202.629 153.287 202.649 151.14 202.684C148.956 202.719 146.682 202.923 144.51 202.697C144.212 202.666 144.145 202.273 144.439 202.171C146.486 201.463 148.788 201.233 150.933 200.963C153.145 200.683 155.357 200.485 157.583 200.357C159.87 200.226 162.16 200.143 164.45 200.127ZM137.608 193.171L137.681 193.172C138.072 193.173 138.438 193.265 138.779 193.448L138.851 193.488L139.32 193.851C139.607 194.14 139.806 194.481 139.916 194.874L139.999 195.49C140.011 195.809 139.944 196.107 139.799 196.383C139.706 196.671 139.546 196.919 139.32 197.129C139.11 197.355 138.862 197.515 138.574 197.609C138.319 197.743 138.046 197.81 137.755 197.81L137.681 197.808C137.263 197.807 136.873 197.702 136.512 197.492L136.043 197.129C135.756 196.84 135.557 196.499 135.447 196.106L135.364 195.49C135.352 195.171 135.419 194.873 135.564 194.597C135.657 194.31 135.817 194.061 136.043 193.851C136.253 193.625 136.501 193.465 136.789 193.372C137.044 193.238 137.317 193.171 137.608 193.171ZM144.478 138.712C144.978 137.988 145.882 138.632 145.753 139.213C145.787 140.847 145.871 142.432 146.242 144.032C146.412 144.765 146.635 145.498 146.979 146.169L147.123 146.452C147.568 147.331 147.914 148.161 147.314 149.125C147.032 149.58 146.522 149.922 145.968 149.898C143.514 149.792 143.177 146.375 143.028 144.468C142.874 142.503 143.353 140.344 144.478 138.712Z" fill="black"/>
<path fill-rule="evenodd" clip-rule="evenodd" d="M162.678 78.6399C155.261 59.0779 141.891 44.7554 119.352 53.7513C118.705 53.31 117.862 53.1916 117.053 53.7084C104.775 61.4373 95.9335 73.8285 92.1018 87.8011C89.7699 88.2456 87.504 89.0208 85.4801 90.2921C81.0815 93.055 78.1222 97.4515 75.3482 101.734C74.514 103.021 75.2865 105.152 76.8541 105.444C77.5351 105.572 78.2099 105.647 78.881 105.667C78.7176 106.262 78.5026 106.836 78.2287 107.363C77.2372 109.27 79.1104 111.295 80.8659 110.774C81.0607 110.877 81.2647 110.962 81.4762 111.026C81.5002 112.106 82.0541 113.553 83.1501 113.771C84.9227 114.152 87.2784 112.792 86.8602 110.805C87.3957 110.899 87.9292 110.911 88.4493 110.845C88.5075 111.88 88.4894 112.96 88.6319 113.915C89.0978 118.414 93.582 121.437 97.8583 120.068C98.1206 121.47 98.4286 123.44 99.8059 124.2C101.416 128.729 104.197 133.897 108.751 135.96C108.345 137.002 108.565 138.268 109.786 138.965C118.123 143.73 128.128 145.342 137.553 143.571C141.319 143.346 144.989 142.492 148.511 140.675C151.08 139.349 153.442 137.666 155.747 135.93C158.053 134.194 160.519 132.504 162.36 130.25C164.359 127.802 165.29 124.921 165.894 121.856C168.662 107.941 167.706 94.2775 162.678 81.0221C156.454 64.6139 168.9 95.0489 162.678 78.6399Z" fill="#D08B5B"/>
<path fill-rule="evenodd" clip-rule="evenodd" d="M85.4584 89.492C92.3815 85.398 101.211 86.4576 105.37 92.7993C106.088 93.8941 106.584 95.0984 106.934 96.4926L106.991 96.7243L107.047 96.9682C107.228 97.7742 107.347 98.5327 107.508 99.8224L107.687 101.286L107.738 101.684C107.911 103.009 108.063 103.846 108.3 104.698L108.347 104.864L108.621 105.808L107.588 106.191C105.609 106.907 105.195 106.971 104.053 106.373C103.162 105.906 102.696 105.277 102.077 104.002L101.987 103.815L101.79 103.4L101.682 103.181C101.279 102.373 100.956 101.511 100.499 101.199C99.8789 100.774 97.9243 100.605 96.565 100.772L96.4941 100.781L96.4355 100.793L96.3349 100.816C94.0489 101.358 91.9654 103.208 90.5912 105.162C89.4847 106.737 88.8489 108.719 88.7709 110.78L88.7665 110.917L88.7394 111.969L86.5236 111.922L86.5453 111.512L86.5121 111.585C85.814 113.061 84.06 114.043 82.5925 113.066L82.5402 113.031L82.487 112.992C81.2481 112.078 81.0989 110.228 82.1157 109.104L82.1627 109.053L82.2085 109.007L82.1991 109.002L82.1886 108.999L82.182 108.998C81.8356 109.062 81.5314 109.24 81.1198 109.619L81.0139 109.718L80.8013 109.949L80.5813 110.184L80.4868 110.282C80.4264 110.343 80.3709 110.396 80.3189 110.444C80.2486 110.508 80.1835 110.562 80.1126 110.611C80.0472 110.657 79.9795 110.697 79.8977 110.732C79.6958 110.82 79.48 110.862 79.2039 110.793C78.8251 110.7 78.6116 110.471 78.4823 110.2C78.4321 110.095 78.4034 109.999 78.3831 109.897C78.3618 109.79 78.3513 109.681 78.3459 109.556C78.3423 109.474 78.341 109.384 78.3417 109.286L78.3442 109.133L78.3495 108.966L78.355 108.833L78.3801 108.34C78.4699 106.722 78.8941 105.133 79.6205 103.633L79.6942 103.483L79.7216 103.428L79.6457 103.53C79.1503 104.185 78.6719 104.639 78.0749 104.938L77.9927 104.978L77.9124 105.015C77.0841 105.379 76.2498 105.238 75.7457 104.562C75.3971 104.094 75.2942 103.478 75.3656 102.83C75.5043 101.573 76.0002 100.422 76.971 98.743L77.1071 98.5094L77.64 97.6033C79.6937 94.1385 82.3335 91.3395 85.4584 89.492Z" fill="#E8E1E1"/>
<path fill-rule="evenodd" clip-rule="evenodd" d="M126.821 49.9393C130.617 49.6706 134.482 50.3121 138.097 51.4595C143.862 53.2889 149.156 56.5175 153.506 60.7207C157.989 65.0523 161.305 70.3929 163.321 76.2915C165.752 83.4051 166.116 91.0006 166.8 98.4264C167.146 102.178 167.716 105.873 168.308 109.588L168.402 110.175C168.98 113.795 169.306 117.456 168.506 121.071C167.178 127.078 163.195 132.177 158.467 135.944C148.755 143.685 133.637 148.403 122.329 141.281C120.579 140.179 122.237 137.361 123.945 138.509C125.147 139.318 126.42 140.026 127.786 140.516C133.491 142.56 139.757 141.832 145.395 139.93C150.952 138.057 156.284 134.891 160.384 130.666C164.691 126.229 167.077 120.748 166.732 114.512C166.527 110.801 165.684 107.159 165.216 103.479C164.801 100.219 164.552 96.9414 164.266 93.6685L164.161 92.4912C163.553 85.823 162.681 78.9718 159.654 72.9189C157.109 67.8267 153.381 63.2964 148.899 59.7977C144.207 56.1348 138.602 53.573 132.721 52.6175C125.806 51.4939 119.186 53.5371 113.417 57.3405C108.301 60.7137 103.903 65.2214 100.53 70.336C98.8943 72.816 97.501 75.4645 96.2979 78.1805C95.1641 80.7395 94.3823 83.4216 93.4705 86.0592C94.2208 86.0368 94.9836 86.0658 95.7582 86.1516C99.7309 86.5929 103.432 88.6569 105.789 91.9115C108.668 95.8885 107.89 100.77 109.015 105.293C109.102 105.644 108.954 105.988 108.654 106.182C106.948 107.287 104.666 107.324 103.015 106.08C101.583 105 100.91 103.048 101.49 101.342C101.566 101.119 101.889 101.159 101.898 101.397C102.007 104.3 104.694 106.535 107.327 105.154C106.197 101.254 106.792 96.8983 104.482 93.3755C100.392 87.1407 91.9298 86.8831 85.9861 90.3978C82.8581 92.2473 80.3821 95.0282 78.5384 98.1388L78.0073 99.0418C77.3006 100.248 76.5522 101.613 76.4055 102.942C76.321 103.709 76.6033 104.429 77.4807 104.043C78.1906 103.73 78.7402 103.001 79.1618 102.375C79.8809 101.306 81.5334 102.229 80.9394 103.368L80.9192 103.405C80.0548 104.94 79.5226 106.632 79.4248 108.395L79.4 108.883C79.3837 109.239 79.372 109.744 79.4471 109.763C79.5371 109.785 80.1626 109.061 80.2667 108.961C80.7685 108.478 81.2852 108.083 81.9837 107.954C82.9018 107.786 83.8282 108.924 83.0312 109.671L82.9979 109.701C82.2866 110.321 82.3183 111.557 83.104 112.137C84.2129 112.955 85.5782 111.62 85.7391 110.52L85.7445 110.479C85.8868 109.291 87.5327 109.249 87.6221 110.479C87.8163 113.149 84.6461 115.386 82.2341 114.039C81.2804 113.507 80.6741 112.533 80.4841 111.488C80.1797 111.65 79.8512 111.761 79.504 111.792C78.3736 111.893 77.5699 111.096 77.3871 110.026C77.1742 108.78 77.3005 107.446 77.6279 106.153C77.014 106.301 76.3682 106.244 75.7191 105.869C73.7553 104.733 74.3192 102.206 75.0607 100.5C78.2262 93.2179 84.7844 86.6104 92.9095 86.0859C92.954 84.8011 93.1277 83.5864 93.4119 82.2999C96.191 69.7164 105.194 58.0642 116.915 52.6181C120.047 51.1628 123.368 50.1838 126.821 49.9393ZM96.0846 100.206L96.196 100.181C97.4622 99.9072 100.795 99.5859 100.393 101.722C100.374 101.823 100.228 101.81 100.202 101.722C99.809 100.379 97.1366 101.453 96.3563 101.776C95.2807 102.222 94.2197 102.879 93.3414 103.643C91.4185 105.316 90.1295 107.674 89.9334 110.235C89.7391 112.775 90.4742 115.519 92.302 117.356C93.198 118.257 94.3417 118.868 95.6265 118.913C96.7807 118.954 98.056 118.053 99.1211 118.58C99.331 118.684 99.4974 118.97 99.4784 119.205C99.4426 119.65 99.244 119.996 98.9484 120.265C100.732 123.522 102.191 126.97 104.465 129.933C105.607 131.419 106.9 132.795 108.365 133.966C109.061 134.523 109.818 135.012 110.598 135.442C111.513 135.946 112.304 136.261 112.957 137.115C113.513 137.843 112.957 139.251 112.039 139.377C109.878 139.672 107.779 137.921 106.192 136.609C104.608 135.298 103.238 133.681 102.106 131.966C99.9325 128.671 98.4456 124.785 97.8511 120.853C97.1608 121.073 96.3837 121.14 95.7991 121.141C94.2437 121.144 92.7584 120.583 91.5361 119.636C87.0612 116.166 86.5639 109.042 89.7218 104.549C91.2329 102.4 93.5292 100.811 96.0846 100.206ZM96.1126 108.468C97.1503 108.377 98.1871 108.541 99.1624 108.896L99.5644 109.042C100.414 109.353 101.318 109.719 101.931 110.358C102.868 111.333 101.935 113.024 100.6 112.65C99.1242 112.236 97.9246 110.99 96.4491 110.468C95.1302 110.001 93.6363 110.067 92.4658 110.871C92.3113 110.977 92.1081 110.768 92.209 110.613C93.1044 109.247 94.518 108.609 96.1126 108.468Z" fill="black"/>
<path fill-rule="evenodd" clip-rule="evenodd" d="M143.152 128.274C141.732 127.695 140.465 126.728 139.538 125.493C139.216 125.063 139.133 124.61 139.2 124.195C139.276 123.729 139.552 123.306 139.928 123.023C140.305 122.739 140.777 122.598 141.233 122.67C141.63 122.732 142.024 122.949 142.337 123.399L142.402 123.489C142.953 124.235 143.67 124.846 144.488 125.241C145.276 125.621 146.158 125.798 147.07 125.695C148.808 125.499 150.005 124.559 151.278 123.282C151.436 123.121 151.594 122.955 151.752 122.786C151.852 122.633 151.991 122.534 152.146 122.483C152.317 122.425 152.511 122.429 152.689 122.491C152.86 122.55 153.013 122.664 153.116 122.815C153.213 122.958 153.269 123.135 153.251 123.339C153.134 124.661 152.443 125.842 151.461 126.769C150.37 127.799 148.924 128.511 147.563 128.761C146.064 129.036 144.536 128.839 143.152 128.274ZM148.271 107.866C149.866 108.836 152.297 111.098 150.581 113.503C148.56 115.624 145.652 113.193 144.218 112.093C142.889 111.241 141.396 113.433 142.629 114.428C152.986 122.099 157.19 108.12 149.077 106.726C148.184 106.572 147.853 107.566 148.271 107.866ZM129.711 98.9429C129.887 96.7541 133.219 96.257 133.551 98.423C133.847 100.363 133.498 102.145 132.624 103.892C131.79 105.561 129.692 104.783 129.533 103.263C129.32 101.226 129.601 100.304 129.711 98.9429ZM155.076 97.9739C155.541 97.3652 156.211 96.9497 157.015 97.1845C159.526 97.9185 158.786 101.485 157.904 103.22C157.425 104.163 155.876 104.402 155.176 103.572C154.035 102.219 153.489 99.5157 154.939 98.1825C154.979 98.1136 155.022 98.044 155.076 97.9739ZM132.589 89.3654L132.986 89.2959C134.213 89.0836 135.738 88.8796 136.606 89.8665C137.067 90.3898 137.225 91.3624 136.606 91.8633C135.518 92.7446 134.314 92.4031 133.01 92.4777C131.935 92.5394 130.902 92.7174 129.867 93.0135C127.595 93.6629 125.744 94.8486 123.804 96.1505C123.549 96.3213 123.29 95.9956 123.411 95.7574C124.531 93.563 126.701 91.7604 128.875 90.6616C130.036 90.0751 131.305 89.5885 132.589 89.3654ZM152.787 88.3823L153.091 88.4445C156.394 89.1353 160.687 90.5153 162.251 93.7615C162.311 94.2205 162.248 94.3189 162.196 94.3832L162.179 94.4046C162.137 94.4595 162.104 94.5351 161.905 94.5976C161.849 94.5845 161.794 94.5705 161.737 94.5557C161.02 94.3677 160.453 94.1087 159.904 93.84L159.308 93.5465C158.617 93.2076 157.92 92.881 157.181 92.6399C155.605 92.1255 153.983 91.7631 152.337 91.5696C151.98 91.5277 151.636 91.4072 151.365 91.2007C151.107 91.0046 150.911 90.7332 150.821 90.3724C150.705 89.9056 150.738 89.5521 150.989 89.1309C151.177 88.8146 151.447 88.5953 151.756 88.4694C152.071 88.3411 152.43 88.3108 152.787 88.3823Z" fill="black"/>
<path fill-rule="evenodd" clip-rule="evenodd" d="M156.415 116.417C153.452 115.917 150.373 116.655 147.516 117.443C142.977 114.462 137.096 117.471 133.846 121.195C132.733 122.112 130.397 123.329 131.628 125.078C131.161 126.314 131.037 126.896 132.002 125.451C137.467 126.08 143.331 124.891 148.74 123.769C150.581 124.389 152.208 125.837 154.232 125.341C156.146 125.749 158.218 126.129 159.946 124.9C161.262 124.847 164.19 127.211 164.142 124.462C163.735 121.827 158.513 117.443 156.415 116.417Z" fill="#E8E1E1"/>
<path fill-rule="evenodd" clip-rule="evenodd" d="M158.637 124.875C155.42 125.231 152.157 124.708 149.464 122.839C149.182 122.644 148.905 122.646 148.679 122.761C148.404 122.73 148.123 122.84 147.96 123.154C147.284 124.458 145.041 124.167 143.809 124.194C139.777 124.272 135.605 124.049 131.725 125.268C135.436 118.012 140.568 114.879 148.508 117.728C147.791 118.306 151.369 116.953 151.683 116.928C157.178 115.55 161.71 120.16 163.925 124.728C162.249 124.33 160.372 124.683 158.637 124.875ZM166.311 126.11C163.889 120.651 159.112 114.649 152.449 115.592C151.081 115.794 149.642 116.729 148.265 116.56C144.277 115.087 140.986 114.338 136.992 116.72C135.298 116.847 125.763 128.657 130.294 127.692C135.856 124.497 145.526 127.507 148.98 124.649C155.761 129.102 161.274 124.265 165.095 127.048C165.76 127.658 166.692 126.899 166.311 126.11Z" fill="black"/>
<path fill-rule="evenodd" clip-rule="evenodd" d="M166.085 109.758C164.662 111.67 162.025 112.279 159.593 112.068C154.347 111.563 152.696 105.603 152.524 100.97C156.041 101.96 152.226 94.9491 164.251 94.1781C168.49 93.8247 167.322 96.3858 169.195 98.2571C169.156 102.184 168.503 106.452 166.085 109.758ZM141.098 105.245C138 119.755 121.04 116.304 119.259 103.224C120.904 102.063 120.471 99.1945 122.514 98.1553C125.754 96.0849 129.803 96.1734 133.481 96.222C138.183 96.5452 139.523 98.4936 141.938 100.619C141.822 102.039 141.487 103.722 141.098 105.245ZM172.803 91.775C172.629 91.7461 172.455 91.7188 172.281 91.6932C172.145 91.6161 171.986 91.5567 171.8 91.521C171.377 91.4134 170.956 91.3409 170.536 91.3018C164.508 89.9447 150.563 91.8716 149.987 97.0176C148.068 97.6586 146.407 97.0845 144.182 97.1416C142.488 90.0603 113.21 91.0598 111.802 95.3291C111.797 95.3276 111.792 95.3263 111.786 95.3246C110.433 94.9057 108.439 95.0068 106.89 94.9404C103.584 94.8711 100.273 95.1659 97.038 95.8636C90.9799 96.8267 82.712 97.9543 86.9253 105.522C86.9261 105.524 86.9268 105.525 86.9278 105.526L86.9285 105.526C87.6546 106.27 88.8869 105.671 88.9328 104.663C87.5162 101.077 90.7156 100.647 93.1773 99.6165C99.3026 97.4151 105.539 97.1099 111.874 97.7909C112.351 98.3522 113.074 98.8417 113.838 99.0979C118.074 99.8012 115.841 102.944 118.519 103.402C118.027 114.358 131.324 120.339 139.029 113.137C142.105 110.128 142.839 105.671 143.552 101.653C143.929 101.568 144.169 101.362 144.309 101.089C145.216 100.183 145.786 99.3466 147.579 99.0979C149.373 98.8493 150.753 99.3483 150.94 99.5011C150.987 99.596 151.038 99.6911 151.096 99.7862C151.178 99.9281 151.29 100.041 151.417 100.13C149.646 111.041 158.113 117.941 166.66 112.282C170.374 108.787 171.159 103.436 171.314 98.66C171.818 98.356 172.136 97.767 171.962 97.0264C171.722 96.0056 172.285 95.1217 173.182 94.6779C174.348 94.1016 174.142 91.9967 172.803 91.775Z" fill="black"/>
</svg>
