<svg width="240" height="324" viewBox="0 0 240 324" fill="none" xmlns="http://www.w3.org/2000/svg">
<path fill-rule="evenodd" clip-rule="evenodd" d="M186.455 183.205C183.523 169.306 173.122 158.521 159.135 153.148C156.446 151.627 153.84 145.099 150.226 143.904C149.647 143.712 150.561 145.237 150.226 145.328C149.031 145.653 147.692 145.687 146.373 144.514C144.015 142.417 143.275 136.292 141.841 133.523C134.28 118.922 115.4 124.635 112.871 140.776C111.107 141.926 108.614 142.939 106.695 143.866C104.718 144.82 102.979 147.131 100.942 147.957C99.1243 148.695 96.1293 148.172 94.2977 148.815C85.8736 151.771 78.7387 155.501 73.1449 163.059C71.9663 164.653 70.6376 166.613 69.565 168.223C64.0353 174.591 60.1944 181.729 56.657 189.387C46.7599 211.864 44.0679 236.752 41.6527 260.969C41.7077 265.207 38.897 276.957 43.0541 278.988C42.8056 279.246 42.8956 279.763 43.3566 279.759C53.8974 279.652 64.4136 280.596 74.7909 282.431C79.7977 283.316 84.7777 284.53 89.8777 284.73C100.465 284.657 111.013 282.882 121.586 284.561C134.297 284.561 149.744 284.191 163.884 283.647C177.099 283.139 190.385 284.286 203.437 282.038C204.47 281.875 204.974 280.614 204.758 279.711C203.226 274.129 202.475 268.384 201.615 262.671C201.787 259.007 201.48 255.181 200.125 251.768C196.585 228.727 192.045 205.837 186.455 183.205Z" fill="#D08B5B"/>
<path fill-rule="evenodd" clip-rule="evenodd" d="M150.226 145.413C150.561 145.322 149.647 143.796 150.226 143.988C153.84 145.184 156.446 151.711 159.135 153.233C173.122 158.605 183.523 169.39 186.455 183.289C192.045 205.921 196.585 228.812 200.125 251.853C201.48 255.266 201.787 259.091 201.615 262.756L201.75 263.658C202.556 269.073 203.307 274.507 204.758 279.795C204.974 280.699 204.47 281.959 203.437 282.123C190.533 284.345 177.401 283.249 164.334 283.715L161.611 283.817C148.104 284.313 133.619 284.645 121.586 284.645C111.013 282.966 100.465 284.741 89.8777 284.814C84.7777 284.614 79.7977 283.4 74.7909 282.515C64.4136 280.68 53.8974 279.737 43.3566 279.843C42.8956 279.848 42.8056 279.33 43.0541 279.072C38.897 277.041 41.7077 265.291 41.6527 261.054L41.871 258.872C44.2359 235.345 47.0568 211.274 56.657 189.471L56.9445 188.852C60.4033 181.428 64.1847 174.504 69.565 168.308L69.894 167.815C70.9018 166.309 72.0841 164.578 73.1449 163.144C78.7387 155.586 85.8736 151.856 94.2977 148.899C96.1293 148.257 99.1243 148.779 100.942 148.042C102.847 147.269 104.492 145.197 106.314 144.152V151.95L132.68 177.934L147.634 154.994L149.155 145.599C149.522 145.576 149.88 145.507 150.226 145.413Z" fill="#8FA7DF"/>
<path fill-rule="evenodd" clip-rule="evenodd" d="M182.19 213.491C181.912 214.845 181.521 216.2 181.001 217.483C180.5 218.722 179.746 219.831 179.227 221.055C179.157 221.22 179.043 221.344 178.905 221.439L178.948 221.772L178.988 222.105C179.247 224.352 179.538 226.592 179.791 228.838L179.913 229.961C180.409 234.651 181.193 239.318 181.802 243.995C182.397 248.575 183.004 253.155 183.652 257.728C184.322 262.444 185.005 267.152 185.801 271.849C186.137 273.832 186.488 275.814 186.854 277.794L187.136 279.309C190.043 280.009 190.838 284.063 187.878 285.559C186.534 286.235 184.808 286.073 183.701 285.01C182.55 283.902 182.503 281.904 182.236 280.404L181.978 279.01C180.053 268.526 178.383 257.922 177.602 247.29C177.401 244.545 177.232 241.797 177.122 239.047C177.018 236.461 177.068 233.874 177.028 231.288L177.014 230.583C176.953 227.824 177.004 225.07 177.076 222.312C177.084 221.976 177.099 221.64 177.116 221.302C177.019 221.188 176.949 221.053 176.919 220.922L176.881 220.748C176.786 220.302 176.894 219.78 177.236 219.461C177.384 217.582 177.578 215.706 177.631 213.829C177.635 213.674 177.857 213.679 177.87 213.829C177.995 215.427 178.244 217.029 178.493 218.629C180.097 217.339 181.282 215.213 181.981 213.434C182.032 213.305 182.22 213.351 182.19 213.491ZM144.251 138.795C144.517 140.012 145.043 141.105 145.749 142.122C146.085 142.608 146.467 143.06 146.926 143.439C147.319 143.762 147.767 143.973 148.185 144.254C148.793 144.159 149.429 144.39 149.856 144.838L149.788 144.183C149.767 143.971 150.118 143.929 150.158 144.134C152.006 153.459 153.692 162.79 155.151 172.183L155.791 176.331L156.393 180.225C157.392 186.713 158.358 193.2 159.086 199.736C160.056 208.458 160.871 217.204 161.467 225.962C162.065 234.782 162.433 243.608 162.695 252.445C162.76 254.672 162.83 256.898 162.897 259.125L163.349 256.462C163.799 253.798 164.241 251.132 164.619 248.456C165.978 238.88 167.064 229.236 167.594 219.578C168.08 210.739 167.917 201.725 165.669 193.114C165.103 190.948 164.41 188.815 163.574 186.738C162.762 184.717 161.655 182.845 160.783 180.854C159.769 178.538 159.464 176.352 159.986 173.858C160.443 171.686 161.243 169.642 161.387 167.406C161.655 163.255 160.305 159.235 158.398 155.602C157.895 154.644 157.364 153.7 156.811 152.763C155.136 149.933 153.247 147.207 151.286 144.593C151.181 144.453 151.404 144.299 151.519 144.413C153.306 146.18 155.26 147.917 156.868 149.847C157.65 150.785 158.412 151.742 159.135 152.725C167.062 154.051 173.873 158.99 178.529 165.512C183.813 172.914 186.485 181.822 188.463 190.595C190.662 200.345 192.517 210.183 194.493 219.981C196.538 230.12 198.572 240.258 200.63 250.395C201.652 255.427 202.675 260.459 203.695 265.493C204.213 268.042 204.756 270.585 205.324 273.125C205.616 274.427 205.929 275.727 206.199 277.033C206.503 278.506 206.22 279.449 205.223 280.531C204.855 280.933 204.274 280.926 203.818 280.713L203.675 280.646L203.537 280.579C202.973 280.301 202.53 280.014 202.179 279.396C201.792 278.718 201.731 277.965 201.598 277.211C201.352 275.822 201.11 274.434 200.865 273.043C200.498 270.963 200.1 268.889 199.695 266.816L197.662 256.455C197.12 253.693 196.577 250.93 196.031 248.169C194.081 238.295 192.128 228.423 190.176 218.55C188.302 209.071 186.644 199.527 184.51 190.102L184.389 189.572L184.266 189.041C182.358 180.917 179.692 173.058 174.855 166.174C171.133 160.879 165.963 156.151 159.874 153.759C160.303 154.376 160.715 155.006 161.108 155.648C163.576 159.681 165.378 164.468 164.955 169.27C164.748 171.616 163.857 173.922 163.941 176.287C164.019 178.388 165.319 180.233 166.217 182.061C168.255 186.203 169.73 190.606 170.681 195.122C172.588 204.191 172.582 213.522 171.925 222.729C171.211 232.736 169.855 242.742 168.31 252.652C167.518 257.735 166.464 262.775 165.657 267.85C165.257 270.352 164.714 272.848 164.239 275.338L164.012 276.528C163.886 277.188 163.754 277.846 163.602 278.497L163.508 278.887V278.956C163.504 279.436 163.373 279.834 163.161 280.151C162.872 281.078 162.513 281.983 162.036 282.852C161.791 283.295 161.435 283.545 161.049 283.636C160.66 284.526 159.779 285.21 158.727 285.206L144.891 285.153C136.854 285.121 128.818 285.069 120.781 285.024C118.753 285.014 116.727 284.976 114.701 284.923C112.802 284.87 110.981 284.642 109.103 284.405C106.981 284.139 105.832 282.636 106.149 280.516C106.219 280.049 106.295 279.584 106.367 279.119C105.944 279.259 105.441 279.193 105.101 278.861L104.782 278.549C104.34 278.112 103.945 277.682 103.665 277.098C103.375 276.498 103.14 275.864 102.885 275.251C102.333 273.933 101.797 272.61 101.275 271.28C100.229 268.621 99.1835 265.952 98.2115 263.266C96.2871 257.946 94.584 252.546 93.1033 247.085C90.4624 237.342 88.5523 227.41 87.3481 217.39L87.0602 215.002L86.9765 214.297C86.5198 210.413 86.1355 206.469 86.3171 202.593C86.4293 200.167 86.8052 197.722 87.7117 195.456C88.5481 193.366 89.839 191.578 91.0664 189.71L91.2069 189.494L91.3481 189.273C92.4216 187.576 93.2757 185.802 93.3185 183.741C93.3619 181.65 92.7529 179.614 92.0719 177.656L91.9022 177.174L91.7883 176.854C90.3396 172.808 88.691 168.818 89.2347 164.415C90.0378 157.931 93.9671 152.704 98.911 148.674C94.5143 149.545 90.1624 151.265 86.3216 153.446C81.7854 156.025 77.7016 159.427 74.1798 163.268C67.5249 170.525 62.7735 179.233 58.8842 188.224C54.8129 197.633 51.7939 207.493 49.5187 217.481C47.2307 227.526 45.699 237.733 44.653 247.979C44.1314 253.079 43.7214 258.191 43.3814 263.306C43.2082 265.927 43.0772 268.552 42.8744 271.168C42.6716 273.783 42.5805 276.437 41.9425 278.982C41.6446 280.167 39.6354 280.288 39.4202 278.982C38.9424 276.065 39.0759 273.048 39.2092 270.094L39.2214 269.826C39.3526 266.884 39.5237 263.944 39.7263 261.004C40.1406 254.996 40.6939 248.995 41.4164 243.014C43.9495 222.019 48.6209 201.133 57.7835 181.968C62.0976 172.941 67.6349 164.17 75.3378 157.652C79.0052 154.551 83.1397 152.076 87.5953 150.284C91.58 148.68 95.6279 147.921 99.8617 147.923C101.985 146.296 104.265 144.878 106.542 143.667C106.679 143.593 106.823 143.77 106.709 143.885C106.65 143.942 106.592 144.001 106.534 144.056C106.791 144.073 107.057 144.193 107.296 144.445C108.133 145.322 108.838 146.419 109.47 147.558C110.431 148.758 111.348 149.999 112.307 151.187C113.843 153.089 115.415 154.963 117.006 156.823C119.678 159.949 122.437 163.016 125.314 165.959L125.795 166.448C127.286 167.96 128.797 169.768 130.561 170.965L130.655 171.027C131.399 171.512 131.927 171.6 132.561 170.876C133.138 170.217 133.619 169.452 134.112 168.725L134.226 168.558C136.747 164.895 139.084 161.097 141.198 157.187C142.162 155.408 143.079 153.602 143.949 151.777L144.209 151.229C144.682 150.223 145.196 149.236 145.586 148.2C145.677 147.957 145.766 147.714 145.852 147.473C144.521 146.6 143.491 144.711 143.117 143.232C142.728 141.695 142.924 140.118 143.617 138.713C143.748 138.449 144.188 138.514 144.251 138.795ZM78.5914 201.234C78.4073 207.076 78.2955 212.924 78.0207 218.762L77.9258 220.755C78.3545 221.232 78.6059 221.784 78.4052 222.541C78.3272 222.83 78.0967 223.092 77.8094 223.19L77.7198 225.042C77.3121 233.379 76.8341 241.698 75.9608 250.014C74.8686 260.421 73.6052 270.811 72.3441 281.199C72.1645 282.67 71.1418 283.836 69.5509 283.621C67.9413 283.403 67.2885 282.002 67.4998 280.541C68.33 274.812 69.1284 269.078 69.8279 263.329L70.6244 256.78C71.6231 248.593 72.6453 240.407 73.823 232.246C74.3152 228.835 74.8265 225.426 75.3397 222.016L75.1603 221.784C74.427 220.831 73.6686 219.899 72.9186 218.96C71.4779 217.151 70.0561 215.357 68.7357 213.463C68.67 213.368 68.8033 213.228 68.8981 213.301C70.7488 214.668 72.5005 216.13 74.2624 217.616L75.8047 218.922C76.692 213.032 77.5709 207.139 78.3545 201.234C78.3737 201.087 78.5955 201.076 78.5914 201.234ZM105.213 145.328C104.1 146.378 102.961 147.406 101.839 148.45L101.428 148.834L101.019 149.22C99.047 151.091 97.1577 153.038 95.5835 155.274C92.6934 159.381 90.9716 164.387 92.1735 169.401C93.1709 173.554 95.4589 177.318 96.0737 181.575C96.3819 183.707 96.2321 185.85 95.4291 187.864C94.6094 189.919 93.2995 191.679 92.1228 193.533C89.5664 197.561 89.2178 201.983 89.4716 206.649C89.7378 211.523 90.2974 216.399 90.9885 221.228C92.3868 231.014 94.4953 240.698 97.2861 250.181C98.6828 254.93 100.333 259.578 101.974 264.244C102.792 266.567 103.745 268.835 104.727 271.092C105.245 272.28 105.775 273.461 106.314 274.64C106.115 272.975 106.115 271.265 106.018 269.611C105.878 267.239 105.701 264.872 105.538 262.503C105.207 257.695 104.911 252.882 104.647 248.07C103.711 230.908 103.022 213.732 103.073 196.543C103.098 187.947 103.274 179.351 103.643 170.764C103.817 166.72 104.152 162.68 104.456 158.642L104.52 157.777C104.788 154.152 105.11 150.519 105.661 146.926C105.498 146.558 105.356 146.184 105.251 145.802L105.213 145.658L105.241 145.662C105.215 145.55 105.207 145.438 105.213 145.328ZM114.843 130.559C114.866 130.46 115.007 130.468 115.033 130.559C115.66 132.672 115.438 134.997 114.898 137.123C114.606 138.275 114.192 139.393 113.691 140.471L113.516 140.848C113.087 141.766 112.604 142.712 111.769 143.284C111.42 143.523 110.797 143.538 110.448 143.284L110.27 143.149C110.241 143.127 110.212 143.103 110.184 143.079C109.859 142.807 109.698 142.204 109.848 141.807C110.235 140.782 111.112 140.03 111.718 139.116C112.255 138.305 112.73 137.449 113.125 136.559C113.976 134.634 114.359 132.59 114.843 130.559Z" fill="black"/>
<path fill-rule="evenodd" clip-rule="evenodd" d="M139.372 145.49C135.008 145.478 131.014 144.626 127.224 142.759C122.648 141.262 117.651 140.447 113.937 137.133C112.129 137.518 110.275 135.657 108.775 134.549C106.328 143.574 93.5946 142.073 88.2142 136.24C84.9229 133.453 83.5989 126.56 89.3145 124.736C79.95 118.36 76.5676 107.345 77.2112 95.4266C77.8886 75.4333 93.2208 54.6474 112.927 51.1796C116.815 50.494 120.807 50.5665 124.678 51.3819C126.84 51.8519 128.929 52.7632 131.243 52.7218C140.215 51.3001 150.069 51.4634 157.48 57.22C169.325 65.1644 170.971 81.0599 169.587 93.8398L169.643 93.9594C168.954 98.6506 167.81 102.947 165.646 105.775C165.477 109.842 164.068 118.521 163.964 121.953C164.217 137.92 155.17 145.007 139.372 145.49Z" fill="#D08B5B"/>
<path fill-rule="evenodd" clip-rule="evenodd" d="M108.718 54.1812C116.8 51.44 121.901 52.8561 129.444 54.37L129.908 54.4628L130.64 54.6062C138.209 54.0973 144.728 52.4319 152.036 56.066C167.241 62.475 170.055 80.1669 169.008 94.9412L168.946 95.2159C168.45 97.3713 167.754 99.5987 166.289 101.312C163.831 89.1812 155.928 81.173 146.209 73.5265L145.862 73.1052C144.655 71.6468 143.339 70.1316 141.747 69.1028C141.8 68.6312 141.826 68.1587 141.817 67.6926C141.806 67.0487 140.889 66.5072 140.41 67.067L140.319 67.1804C139.695 67.9398 136.417 71.5901 134.758 73.4633L134.551 73.6972L134.051 74.2677L133.206 75.2817C124.085 86.213 114.465 97.1867 100.861 102.433C97.6017 100.367 93.6476 102.186 91.6106 105.098C85.8223 111.861 92.5321 124.615 101.429 121.155C101.969 125.833 104.304 131.106 107.472 134.634C104.001 139.489 98.4475 140.365 93.2529 137.618C88.1821 135.346 84.9007 130.579 88.0135 125.306C88.0788 125.268 88.146 125.231 88.2146 125.195C90.6012 126.792 93.3824 127.838 96.2584 128.049L96.4763 128.064C98.2728 128.149 98.2442 125.313 96.4211 125.167C84.363 123.631 79.0096 109.826 78.9975 99.0004C78.4852 79.9435 90.3358 60.3364 108.718 54.1812Z" fill="#C93305"/>
<path fill-rule="evenodd" clip-rule="evenodd" d="M87.2525 124.516C58.8862 99.3897 87.987 42.8446 124.895 50.3469C128.63 51.6008 132.423 52.036 136.292 51.1069C155.786 48.0552 171.733 64.638 170.909 83.8233C171.046 87.1047 171.02 90.3891 170.666 93.6574C170.262 97.9533 169.157 102.548 166.693 106.119C166.664 108.518 165.255 117.516 165.029 121.749L164.986 122.633C164.761 126.984 164.277 131.421 162.369 135.388C156.502 146.045 141.389 148.332 130.553 145.228L130.103 145.079C128.09 144.408 125.808 143.514 124.53 141.824C123.854 140.931 124.973 139.791 125.902 140.034C127.1 140.347 128.092 141.079 129.209 141.598C136.498 144.828 145.12 143.746 152.315 140.73L152.532 140.638C165.419 135.394 161.889 116.739 163.585 106.103C163.971 92.596 152.734 83.3981 144.267 74.4647L144.014 74.1817C143.144 73.2147 142.225 72.2721 141.016 72.0659C140.685 73.0734 139.87 73.9308 139.114 74.6657L137.406 76.5169C135.697 78.3659 133.984 80.2074 132.247 82.0323C123.813 90.6214 115.22 102.283 102.219 103.161C103.018 103.886 103.719 104.714 104.557 105.397C104.91 105.751 104.55 106.346 104.076 106.225C103.192 105.998 102.627 105.158 102.047 104.501C95.0251 101.547 89.2587 112.466 95.2077 116.986C97.4145 119.329 103.863 117.547 102.372 120.435C104 125.552 106.505 130.698 110.743 134.121C111.987 135.063 113.93 135.54 114.756 136.926C114.955 137.26 114.854 137.806 114.479 137.983C112.679 138.825 110.745 137.41 109.363 136.344C102.061 150.651 75.2879 134.844 87.2525 124.516ZM130.639 54.6026L129.908 54.4592C122.107 52.9121 116.965 51.3805 108.717 54.1776C90.3351 60.3328 78.4846 79.9399 78.9969 98.9968C79.0089 109.823 84.3623 123.627 96.4205 125.164C98.2436 125.309 98.2722 128.145 96.4757 128.06L96.4207 128.057C93.4483 127.871 90.5711 126.79 88.1183 125.127C84.8278 130.47 88.1255 135.318 93.2523 137.614C98.4469 140.362 104 139.486 107.471 134.631C104.303 131.103 101.968 125.829 101.428 121.152C92.5315 124.612 85.8217 111.858 91.61 105.094C93.6469 102.183 97.6011 100.363 100.861 102.43C114.885 97.0209 124.676 85.5251 134.05 74.2641L134.551 73.6936C136.192 71.8351 139.966 67.6372 140.385 67.0945C140.855 66.4843 141.805 67.0336 141.817 67.689C141.825 68.1551 141.799 68.6276 141.747 69.0992C143.492 70.2276 144.907 71.941 146.208 73.5229C155.927 81.1694 163.83 89.1776 166.289 101.309C167.815 99.5222 168.508 97.1773 169.007 94.9376C170.054 80.1633 167.24 62.4714 152.035 56.0624C144.728 52.4283 138.208 54.0937 130.639 54.6026ZM96.1582 110.089C95.5251 109.523 99.708 109.454 100.103 109.898L100.193 109.929C101.691 110.457 104.433 112.158 103.086 113.925C101.166 115.739 99.8288 110.354 96.1582 110.089Z" fill="black"/>
<path fill-rule="evenodd" clip-rule="evenodd" d="M143.152 128.274C141.732 127.695 140.465 126.728 139.538 125.493C139.216 125.063 139.133 124.61 139.2 124.195C139.276 123.729 139.552 123.306 139.928 123.023C140.305 122.739 140.777 122.598 141.233 122.67C141.63 122.732 142.024 122.949 142.337 123.399L142.402 123.489C142.953 124.235 143.67 124.846 144.488 125.241C145.276 125.621 146.158 125.798 147.07 125.695C148.808 125.499 150.005 124.559 151.278 123.282C151.436 123.121 151.594 122.955 151.752 122.786C151.852 122.633 151.991 122.534 152.146 122.483C152.317 122.425 152.511 122.429 152.689 122.491C152.86 122.55 153.013 122.664 153.116 122.815C153.213 122.958 153.269 123.135 153.251 123.339C153.134 124.661 152.443 125.842 151.461 126.769C150.37 127.799 148.924 128.511 147.563 128.761C146.064 129.036 144.536 128.839 143.152 128.274ZM148.271 107.866C149.866 108.836 152.297 111.098 150.581 113.503C148.56 115.624 145.652 113.193 144.218 112.093C142.889 111.241 141.396 113.433 142.629 114.428C152.986 122.099 157.19 108.12 149.077 106.726C148.184 106.572 147.853 107.566 148.271 107.866ZM129.711 98.9429C129.887 96.7541 133.219 96.257 133.551 98.423C133.847 100.363 133.498 102.145 132.624 103.892C131.79 105.561 129.692 104.783 129.533 103.263C129.32 101.226 129.601 100.304 129.711 98.9429ZM155.076 97.9739C155.541 97.3652 156.211 96.9497 157.015 97.1845C159.526 97.9185 158.786 101.485 157.904 103.22C157.425 104.163 155.876 104.402 155.176 103.572C154.035 102.219 153.489 99.5157 154.939 98.1825C154.979 98.1136 155.022 98.044 155.076 97.9739ZM132.589 89.3654L132.986 89.2959C134.213 89.0836 135.738 88.8796 136.606 89.8665C137.067 90.3898 137.225 91.3624 136.606 91.8633C135.518 92.7446 134.314 92.4031 133.01 92.4777C131.935 92.5394 130.902 92.7174 129.867 93.0135C127.595 93.6629 125.744 94.8486 123.804 96.1505C123.549 96.3213 123.29 95.9956 123.411 95.7574C124.531 93.563 126.701 91.7604 128.875 90.6616C130.036 90.0751 131.305 89.5885 132.589 89.3654ZM152.787 88.3823L153.091 88.4445C156.394 89.1353 160.687 90.5153 162.251 93.7615C162.311 94.2205 162.248 94.3189 162.196 94.3832L162.179 94.4046C162.137 94.4595 162.104 94.5351 161.905 94.5976C161.849 94.5845 161.794 94.5705 161.737 94.5557C161.02 94.3677 160.453 94.1087 159.904 93.84L159.308 93.5465C158.617 93.2076 157.92 92.881 157.181 92.6399C155.605 92.1255 153.983 91.7631 152.337 91.5696C151.98 91.5277 151.636 91.4072 151.365 91.2007C151.107 91.0046 150.911 90.7332 150.821 90.3724C150.705 89.9056 150.738 89.5521 150.989 89.1309C151.177 88.8146 151.447 88.5953 151.756 88.4694C152.071 88.3411 152.43 88.3108 152.787 88.3823Z" fill="black"/>
</svg>
