<svg width="240" height="324" viewBox="0 0 240 324" fill="none" xmlns="http://www.w3.org/2000/svg">
<path fill-rule="evenodd" clip-rule="evenodd" d="M192.497 217.714C192.497 216.004 190.131 212.969 190.127 211.419C192.116 211.064 193.779 208.368 193.339 206.679C192.562 206.085 190.527 204.917 189.686 204.371C184.557 204.526 186.506 197.39 185.926 193.762C185.342 190.212 184.908 186.501 184.053 182.931C182.534 180.075 181.821 176.873 180.369 174.031C179.72 173.09 178.673 172.226 178.359 171.132C175.183 167.662 170.81 165.582 167.212 162.642C168.608 162.195 168.515 160.311 168.425 159.101C168.75 157.523 168.403 155.543 166.964 154.653C166.477 153.068 164.352 152.515 163.109 153.525C162.292 149.863 159.097 147.642 155.751 146.284C155.754 146.273 155.757 146.262 155.76 146.251C152.385 144.911 148.34 144.243 144.972 144.997C146.75 125.183 131.58 124.456 123.881 126.121C119.943 126.972 114.035 129.624 112.692 133.31C111.935 135.391 109.76 142.103 109.45 144.243C103.572 140.887 96.7561 136.462 91.657 143.219C90.6359 144.396 89.5061 145.271 87.9782 145.675C83.2077 146.913 76.8761 146.955 74.1647 151.82C72.544 154.833 74.0016 156.819 73.5661 159.834C52.0923 174.92 34.147 230.495 38.1763 256.351C39.1456 265.603 43.878 281.981 55.5587 279.939C61.5165 286.458 161.515 286.458 171.826 279.939C180.314 282.16 188.938 278.722 192.497 270.589C197.017 259.438 192.227 247.395 191.378 235.956C190.863 233.068 190.096 230.775 189.686 227.819C189.515 226.586 190.104 224.537 189.686 223.401C189.883 222.662 192.497 219.424 192.497 217.714Z" fill="#D08B5B"/>
<path fill-rule="evenodd" clip-rule="evenodd" d="M108.012 142.88L108.365 143.031L109.576 143.556L109.322 144.138C108.607 145.778 107.804 147.354 106.924 148.839L106.758 149.116L106.504 149.538L106.517 149.552C106.626 149.674 106.738 149.8 106.853 149.93L120.179 164.255C125.801 170.292 128.769 173.469 129.083 173.785C130.393 175.102 131.682 175.266 132.861 174.155L132.993 174.029L133.212 173.819L133.361 173.672C134.131 172.912 134.896 172.071 135.995 170.802L148.304 153.335L147.527 151.597C146.1 148.388 145.321 146.512 145.189 145.968L145.13 145.702L145.007 145.128L145.569 144.961C147.595 144.357 149.839 144.515 152.384 145.268L152.531 145.312L152.955 145.443C154.679 145.98 155.655 146.34 156.655 146.874C158.016 147.601 159.02 148.504 159.647 149.68C160.368 151.034 160.92 151.715 161.849 152.265L161.922 152.307L162.013 152.358L162.108 152.409C162.19 152.453 162.281 152.499 162.391 152.553L162.781 152.742C164.013 153.332 164.579 153.711 165.063 154.456C165.599 155.279 165.689 156.05 165.524 157.165L165.509 157.262L165.483 157.419L165.383 157.999L165.359 158.146C165.293 158.56 165.282 158.925 165.329 159.232L165.341 159.301L165.611 160.736L165.076 160.396L166.556 161.604C168.629 163.301 169.864 164.354 171.155 165.541L171.512 165.872L171.583 165.937C173.91 168.108 175.8 170.202 177.382 172.437C179.098 174.86 180.552 177.51 181.726 180.333L181.859 180.656L181.869 180.699C183.628 187.593 185.041 194.577 186.104 201.629L186.206 202.311L186.722 205.811L185.023 202.709C184.758 202.226 184.026 201.747 183.113 201.391L183.027 201.358L182.964 201.334L182.834 201.288C181.832 200.939 180.821 200.906 179.875 201.2L179.777 201.231L179.49 201.327L179.234 201.164C178.763 200.863 178.236 200.609 177.656 200.4L177.51 200.348L176.899 200.139L177.121 199.531C177.288 199.072 176.981 198.171 176.538 197.784C175.848 197.185 174.857 197.017 173.316 197.131L173.108 197.148L172.943 197.163L172.695 197.187L171.913 197.271L171.913 197.275C171.903 197.41 171.897 197.534 171.895 197.651L171.893 197.738L171.893 197.822C171.897 198.113 171.922 198.382 171.97 198.633L171.992 198.739L172.169 199.526L171.363 199.512L171.011 199.507C169.834 199.492 168.599 199.511 167.144 199.559L165.708 199.612L162.044 199.767L158.831 199.88L157.873 199.912L157.827 199.306C157.767 198.506 157.083 197.975 155.872 197.739L155.794 197.724L154.529 197.495L155.568 196.552L155.652 196.473L155.739 196.388C156.575 195.556 156.856 194.793 156.511 194.057C156.109 193.193 154.867 192.941 153.727 193.41L153.649 193.443L153.568 193.479C153.353 193.578 153.141 193.703 152.801 193.922L152.367 194.204L152.21 194.305C151.834 194.542 151.585 194.676 151.271 194.806C150.44 195.15 149.663 195.174 148.389 195.015L148.276 195L148.005 194.964L147.315 194.868L147.144 194.846L146.971 194.824C145.669 194.669 144.845 194.753 144.149 195.198C143.704 195.482 143.451 195.846 143.062 196.697L142.877 197.107L142.796 197.283C142.328 198.28 141.973 198.758 141.273 199.173C140.827 199.439 140.404 199.597 139.658 199.815L139.126 199.968L138.937 200.025C138.823 200.061 138.728 200.092 138.628 200.128C137.815 200.418 137.08 200.833 136.388 201.39L136.281 201.478L136.165 201.575C135.492 202.143 134.916 202.758 133.934 203.913L133.219 204.757L132.965 205.053L132.754 205.294C132.732 205.32 132.709 205.345 132.687 205.37L132.487 205.592C130.929 207.303 129.371 208.881 127.783 210.343L127.45 210.648L127.107 210.957L126.825 211.207C125.901 212.021 124.904 212.844 123.355 214.088L121.435 215.627L120.831 216.114C119.017 217.584 117.912 218.532 116.786 219.603L116.507 219.871L116.487 219.985C116.476 220.05 116.464 220.123 116.451 220.206C116.451 220.206 115.352 226.99 116.35 232.553C117.348 238.116 117.702 235.855 118.712 237.22L118.946 237.534C119.499 238.271 119.926 238.793 120.389 239.277L120.937 239.842L121.566 240.352L121.963 240.593C122.25 240.766 122.536 240.902 122.823 241C123.219 241.136 123.748 240.868 124.008 240.395L124.032 240.349L124.202 240.009L124.581 239.998C124.67 239.996 124.761 239.982 124.849 239.957C125.747 239.71 126.194 238.64 125.755 237.809L125.731 237.765L125.503 237.36L125.387 237.157C125.219 236.87 125.064 236.627 124.908 236.413L124.849 236.335L123.975 235.185L126.174 235.391L126.354 235.408L126.601 235.435L127.393 235.525C128.217 235.617 129.013 235.701 129.789 235.777L130.45 235.84L131.606 235.946L131.843 235.97L132.357 236.024L133.587 236.157L134.025 236.202L134.269 236.226C134.504 236.248 134.715 236.266 134.926 236.282L135.159 236.298C136.93 236.419 138.313 236.339 139.568 235.985C141.61 235.407 143.663 234.214 145.885 232.449C148.157 230.645 149.8 228.946 150.788 227.183C150.807 227.149 150.81 227.123 150.797 227.091L150.787 227.071L150.412 226.382L151.164 226.16C151.766 225.982 152.276 225.756 152.705 225.466C154.025 224.577 154.467 222.799 153.51 221.869L153.468 221.829L153.409 221.776L152.601 220.564L153.771 220.391C154.162 220.331 154.505 220.263 154.826 220.179C156.964 219.623 158.062 217.918 157.116 216.277L157.084 216.224L156.702 215.592L157.384 215.31C157.531 215.249 157.682 215.192 157.849 215.134L157.952 215.098L158.054 215.063L158.438 214.936C159.249 214.669 160.043 214.465 160.834 214.326C161.46 214.219 162.086 214.149 162.713 214.118L162.947 214.108L163.21 214.099L163.211 214.091L163.364 214.093L163.901 214.075L163.89 214.102C164.685 214.122 165.484 214.2 166.284 214.334L166.473 214.367C166.751 214.415 167.014 214.466 167.296 214.523L168.516 214.782C168.738 214.828 168.932 214.866 169.124 214.9L169.31 214.932L171.275 215.265L169.479 216.129L169.432 216.152L169.386 216.176L169.188 216.286C167.967 216.975 167.245 217.762 167.076 218.733C166.811 220.248 167.672 220.945 169.703 221.181L169.872 221.199L170.051 221.215L170.169 221.225L175.253 221.569L170.439 222.493C169.273 222.717 168.095 223.019 166.906 223.397C166.813 223.426 166.714 223.462 166.605 223.505L166.523 223.539L166.033 223.741L165.564 224.081C164.74 224.692 164.51 225.299 164.921 225.901L164.95 225.941L165.204 226.29L164.973 226.655C164.308 227.703 164.395 229.038 165.19 230.123C165.853 231.028 166.927 231.605 168.391 231.935L168.504 231.96L168.826 232.029L169.295 232.102L169.636 232.149L169.897 232.18L170.073 232.198L170.344 232.223L171.083 232.285C172.132 232.375 172.672 232.447 173.318 232.609C174.187 232.825 174.952 233.178 175.97 233.78L176.089 233.851L176.339 234.002L176.825 234.301L177.296 234.594L177.455 234.691L177.651 234.81C179.1 235.675 180.054 236 181.059 235.848C181.698 235.752 182.234 235.518 182.709 235.147L182.783 235.087L183.512 234.487L183.491 234.365L183.649 234.147C183.953 233.729 185.247 231.291 185.248 231.29C186.083 229.823 186.888 228.81 187.905 228.139L187.993 228.083L188.193 227.96L188.421 227.912L188.536 227.93C188.871 227.982 188.97 228.131 189.065 228.383C189.089 228.447 189.108 228.518 189.127 228.604L189.145 228.689L189.163 228.787L189.191 228.955L189.22 229.153L189.253 229.396L189.289 229.677C189.317 229.904 189.347 230.167 189.382 230.477L189.765 234.009L189.87 234.947L189.968 235.783C189.976 235.851 189.984 235.919 189.992 235.986L190.075 236.663L190.165 237.372C190.398 239.158 190.628 240.594 190.866 241.684L190.91 241.88L190.94 242.007L191.016 242.332C192.383 248.19 193.077 253.027 193.111 257.872C193.142 263.081 192.006 267.73 189.544 271.562C187.196 275.218 183.769 277.872 179.907 278.787C177.871 279.268 175.852 279.163 174.225 278.353C173.928 278.205 173.717 278.054 173.332 277.732L173.204 277.624C172.695 277.193 172.471 277.043 172.2 276.98C172.167 276.972 172.134 276.966 172.103 276.962L172.056 276.957L171.481 276.913L171.471 276.336C171.449 275.106 170.863 274.625 170.918 276.544C170.918 276.544 171.024 279.31 171.052 279.658L171.073 279.888L171.08 279.968L170.741 281.155C155.909 286.821 69.9248 286.92 56.6586 281.377L56.279 281.207L53.9332 280.081C53.9332 280.081 58.6341 278.986 55.4199 279.392C51.9719 279.828 47.9578 277.714 45.7822 274.155L44.9891 272.846L44.7463 272.44L44.6118 272.211C44.2884 271.658 44.0581 271.234 43.8142 270.747C42.8304 268.782 42.0135 266.667 41.3419 264.392C40.0919 260.159 39.4372 255.573 39.2417 250.386C38.8879 241.005 39.8557 231.103 41.9929 220.786C44.0657 210.779 47.2069 201.052 51.3515 191.855C53.4234 187.257 55.7071 182.86 58.2107 178.668L58.4798 178.219L58.7728 177.735L59.0736 177.241L59.3759 176.749L59.6516 176.305L59.9293 175.861L60.2095 175.418C62.7672 171.398 65.0412 168.431 67.6697 165.871C70.0055 163.596 72.4662 161.288 75.0519 158.947L74.9963 157.967L74.9941 157.949C74.9393 157.627 73.9659 154.871 74.9494 152.725L75.0615 152.483C75.9515 150.599 76.081 151.083 76.9326 150.489L76.9675 150.464C78.835 149.126 81.2148 148.209 84.0365 147.597C84.7602 147.44 85.4414 147.37 86.401 147.331L86.5336 147.326L86.7075 147.321L87.4538 147.298C88.8598 147.253 89.9139 146.757 90.7268 145.73L90.7871 145.653L90.8479 145.573L90.905 145.494C91.1034 145.217 91.2932 144.9 91.5992 144.356L91.8089 143.984L91.9097 143.808L92.0129 143.631C92.3638 143.035 92.6129 142.685 92.9651 142.302C94.0289 141.145 95.6792 140.466 97.4192 140.352C100.505 140.151 103.542 140.978 108.012 142.88ZM148.506 202.41L148.255 203.647C148.231 203.764 148.218 203.879 148.216 203.991L148.216 204.074L148.234 204.638L147.676 204.721C147.224 204.788 146.776 204.858 146.333 204.931L145.891 205.004L141.723 205.712L145.533 203.796L145.611 203.759L145.632 203.748L145.778 203.678L146.237 203.465L147.364 202.947L148.506 202.41Z" fill="#78E185"/>
<path fill-rule="evenodd" clip-rule="evenodd" d="M145.229 138.593C145.465 139.604 145.249 140.745 145.289 141.783C145.327 142.776 145.444 143.762 145.616 144.74C147.429 143.786 149.572 143.663 151.638 143.971C154.311 144.368 157.403 145.247 159.498 147.033C160.015 147.475 160.444 147.997 160.803 148.573C161.233 149.264 161.508 150.045 162.191 150.54C163.247 151.306 164.556 151.603 165.571 152.452C166.606 153.317 167.248 154.611 167.384 155.946C167.456 156.657 167.339 157.322 167.204 158.015C167.084 158.639 167.143 158.895 167.307 159.495C167.436 159.966 167.19 160.501 166.789 160.761C167.649 161.352 168.497 161.96 169.33 162.593C174.185 166.279 178.29 170.874 181.136 176.28L181.204 176.415L181.284 176.576C181.978 178.001 183.792 182.168 184.018 183.105C184.179 183.594 184.335 184.086 184.48 184.58C184.863 185.889 185.188 187.215 185.458 188.552L185.53 188.917C185.748 190.04 186.125 191.369 186.064 192.566C186.694 195.833 187.253 199.114 187.729 202.408C187.792 202.84 187.62 203.191 187.353 203.423C187.991 203.526 188.624 203.652 189.25 203.779L189.614 203.855L189.796 203.896C191.101 204.19 192.389 204.619 193.243 205.715C194.164 206.901 194.183 208.425 193.258 209.619C192.472 210.633 191.325 211.115 190.127 211.419C189.891 211.479 189.652 211.534 189.413 211.582C189.253 211.616 189.147 211.396 189.299 211.312L189.553 211.171L189.9 210.981C190.803 210.483 191.74 209.921 192.24 209.023C192.918 207.803 192.381 206.674 191.217 206.055C190.243 205.536 189.037 205.403 187.955 205.226L187.508 205.152C186.377 204.972 185.223 204.854 184.081 204.984C183.081 205.098 182.069 205.438 181.262 206.049L181.187 206.108L181.11 206.173C180.402 206.786 179.384 208.165 180.719 208.562C181.74 208.864 182.983 208.789 184.056 208.847L184.195 208.856C185.092 208.917 186.031 208.917 186.939 209.025C187.264 209.063 187.586 209.115 187.9 209.19C188.803 209.403 188.492 210.604 187.697 210.688C187.503 210.709 187.305 210.72 187.106 210.724C186.586 211.115 185.868 211.293 185.253 211.535C184.666 211.768 184.076 211.998 183.483 212.225C183.994 212.248 184.505 212.29 185.014 212.354C185.179 212.372 185.181 212.595 185.014 212.611C183.789 212.736 182.564 212.871 181.342 213.042C179.452 213.305 177.573 213.655 175.738 214.19C174.396 214.582 173.07 215.05 171.785 215.595L171.396 215.762L171.235 215.833C170.069 216.338 168.559 216.93 167.889 218.045C167.538 218.626 167.384 219.524 167.879 220.081C168.407 220.679 169.515 220.611 170.255 220.64L170.314 220.643C171.882 220.719 173.452 220.729 175.021 220.674C178.311 220.558 181.603 220.199 184.833 219.567C185.429 219.451 185.686 220.345 185.086 220.484C181.276 221.37 177.424 221.856 173.514 221.878L173.086 221.879C171.563 222.17 170.07 222.605 168.589 223.095L168.293 223.194C167.418 223.489 165.924 223.783 165.409 224.652C165.067 225.229 165.187 225.624 165.525 225.893C166.121 226.364 167.388 226.453 168.005 226.476C170.477 226.569 172.951 226.586 175.425 226.533C176.661 226.505 177.897 226.461 179.133 226.398C180.341 226.334 181.632 226.155 182.836 226.271C183.354 226.322 183.527 227.082 182.965 227.224C181.48 227.6 179.814 227.568 178.28 227.616L178.104 227.622C176.456 227.68 174.806 227.706 173.158 227.702C171.744 227.696 170.33 227.668 168.917 227.616L167.667 227.566L167.446 227.555C166.78 227.52 166.1 227.443 165.51 227.169C164.965 228.082 165.373 229.306 166.076 230.029C166.746 230.718 167.712 231.056 168.637 231.267C168.724 231.286 168.81 231.305 168.897 231.322C170.929 231.736 173 231.701 174.901 232.635C176.5 233.421 177.964 234.731 179.756 235.042C181.357 235.321 182.521 234.615 183.375 233.309C183.422 233.237 183.468 233.165 183.512 233.093C184.184 232.011 184.668 230.819 185.376 229.758C185.737 229.217 186.145 228.697 186.643 228.275C186.867 228.082 188.435 227.25 188.68 227C189.734 225.918 188.8 223.642 189.075 222.285C189.396 220.706 190.784 220.15 191.617 218.926C193.199 216.597 188.859 214.416 190.157 211.869C190.174 211.838 190.195 211.815 190.222 211.8C190.336 211.738 190.518 211.815 190.507 211.965C190.364 213.863 192.172 215.169 192.825 216.813C193.568 218.684 192.381 219.816 191.169 221.065C189.614 222.67 190.708 224.466 190.362 226.398C190.316 226.651 190.244 226.874 190.149 227.074C190.415 227.239 190.62 227.512 190.665 227.893C191.198 232.416 191.771 236.925 192.707 241.385L192.908 242.333L193.176 243.597C193.843 246.759 194.465 249.934 194.584 253.166C194.955 255.894 195.103 258.645 194.883 261.391C194.215 269.75 189.544 278.496 181.057 281.061C179.093 281.655 177.009 281.809 174.994 281.393C174.303 281.252 173.336 280.939 172.467 280.465C172.519 281.022 172.56 281.579 172.577 282.135C172.863 282.454 172.993 282.936 172.83 283.347C172.137 283.12 171.508 282.759 170.942 282.265L170.848 282.182C170.512 280.934 170.414 279.568 170.365 278.253L170.353 277.878C170.34 277.515 170.331 277.158 170.318 276.809C170.247 274.639 170.298 272.464 170.409 270.295L170.492 268.699C170.68 264.976 170.834 261.261 170.731 257.528C170.612 253.231 170.245 248.953 169.784 244.68C169.545 242.475 169.275 240.275 168.998 238.075C168.776 236.304 168.405 234.397 168.398 232.571C166.976 232.267 165.58 231.683 164.705 230.49C163.778 229.224 163.641 227.605 164.464 226.307C163.668 225.216 164.321 224.189 165.305 223.496C163.793 222.648 162.95 220.336 162.726 218.728C162.573 217.624 162.525 215.974 162.996 214.733C162.32 214.757 161.644 214.826 160.968 214.943C160.186 215.08 159.419 215.281 158.663 215.53L158.28 215.657C158.087 215.722 157.869 215.798 157.653 215.887C159.02 218.149 157.264 220.199 155.012 220.784C154.583 220.896 154.146 220.975 153.705 221.038C152.71 221.175 151.693 221.217 150.707 221.308C148.818 221.482 146.919 221.729 145.024 221.809C144.607 221.828 144.339 221.634 144.212 221.363C144.208 221.359 144.206 221.357 144.206 221.353C144.162 221.281 144.132 221.205 144.121 221.125C144.128 221.131 144.136 221.135 144.142 221.139C144.052 220.632 144.356 220.015 145.024 219.941C147.76 219.632 150.533 219.618 153.278 219.392L153.454 219.377C154.315 219.303 155.33 219.166 156.012 218.62C156.645 218.113 156.702 217.453 156.449 216.857C156.445 216.872 156.441 216.889 156.438 216.904C156.419 217.022 156.257 217.018 156.204 216.935C156.045 216.695 156.005 216.458 156.045 216.23C155.855 216.01 155.625 215.815 155.376 215.665C154.271 214.993 152.817 214.809 151.56 214.611C150.185 214.393 148.799 214.294 147.411 214.228C144.679 214.099 141.939 214.321 139.252 214.811C139.14 214.831 139.093 214.674 139.203 214.638C140.251 214.291 141.322 214 142.406 213.77C142.38 213.765 142.355 213.761 142.33 213.755C142.235 213.731 142.167 213.615 142.199 213.522C142.203 213.507 142.21 213.493 142.216 213.48C141.755 213.269 141.563 212.559 142.121 212.271C143.859 211.373 145.9 210.967 147.808 210.597C149.64 210.244 151.49 209.997 153.343 209.777C156.476 209.409 159.893 209.418 162.907 208.429L163.031 208.387C164.259 207.963 165.724 207.105 165.81 205.656C165.937 203.464 162.681 204.035 161.325 204.088C157.613 204.229 153.905 204.487 150.21 204.884C149.456 204.965 148.702 205.047 147.948 205.132C146.792 205.26 145.634 205.396 144.481 205.539C143.836 205.62 143.177 205.726 142.514 205.827C142.307 205.878 142.104 205.914 141.901 205.933C141.886 205.935 141.874 205.931 141.863 205.924C140.898 206.06 139.928 206.163 138.986 206.134C138.878 206.131 138.81 205.962 138.924 205.911C140.141 205.396 141.495 205.092 142.854 204.853C143.695 204.225 144.711 203.722 145.545 203.236C146.691 202.568 148.003 201.585 149.302 201.186C149.887 200.725 150.55 200.355 151.161 200.104C150.986 199.831 150.922 199.453 150.954 199.134C151.07 197.99 151.985 197.352 153.041 197.128C153.369 197.06 153.747 197.01 154.15 196.991C154.159 196.777 154.254 196.568 154.465 196.411L154.527 196.364L154.572 196.329C155.281 195.753 156.688 194.131 154.993 194.013C154.093 193.949 153.333 194.609 152.616 195.055C151.129 195.982 149.691 196.029 147.992 195.798L147.228 195.689L147.101 195.672C145.873 195.51 144.628 195.488 143.942 196.741C143.207 198.081 142.949 199.303 141.466 200.04C140.048 200.744 138.474 200.884 137.173 201.852C135.778 202.887 134.73 204.341 133.59 205.63C131.074 208.471 128.194 210.98 125.228 213.338L124.7 213.757C121.969 215.916 119.149 218.043 116.091 219.706C116.069 219.717 116.048 219.721 116.029 219.721C115.947 219.713 115.885 219.607 115.96 219.535C119.532 216.063 123.711 213.248 127.38 209.868C129.007 208.37 130.556 206.793 132.045 205.157C133.347 203.722 134.5 202.109 136.017 200.888C136.754 200.294 137.551 199.84 138.442 199.522C139.275 199.224 140.209 199.076 140.976 198.62C142.478 197.728 142.332 195.615 143.834 194.655C145.122 193.832 146.691 194.133 148.119 194.328L148.29 194.351C149.215 194.473 150.172 194.577 151.055 194.211C151.93 193.85 152.633 193.174 153.514 192.814C154.742 192.309 156.483 192.43 157.112 193.78C157.714 195.069 156.893 196.236 155.933 197.092C157.241 197.329 158.388 197.961 158.486 199.25C159.445 199.218 160.402 199.184 161.361 199.151C164.701 199.034 168.058 198.81 171.4 198.869C171.324 198.529 171.29 198.178 171.286 197.821C171.284 197.622 171.293 197.424 171.307 197.221C171.333 196.874 171.561 196.665 171.899 196.629L172.654 196.548L172.907 196.523C174.321 196.389 175.902 196.361 176.98 197.297C177.559 197.802 178.026 198.965 177.743 199.74C178.402 199.966 179.029 200.256 179.602 200.622C180.736 200.241 181.928 200.283 183.068 200.68L183.204 200.729C184.015 201.027 185.164 201.591 185.605 202.396C184.535 195.142 183.094 187.951 181.282 180.847C180.125 178.01 178.664 175.298 176.891 172.795C172.427 166.488 165.996 162.152 160.22 157.166C159.71 157.727 159.161 158.261 158.648 158.775L158.43 158.994C157.385 160.053 156.294 161.067 155.179 162.053C152.849 164.113 150.396 166.015 147.961 167.948C143.053 171.844 138.614 175.98 134.922 181.067C134.856 181.158 134.672 181.105 134.723 180.983C137.256 174.96 142.506 170.381 147.276 166.132C149.784 163.898 152.351 161.718 154.762 159.378C155.886 158.287 156.976 157.159 158.003 155.976L158.259 155.679C158.931 154.893 160.504 152.491 161.543 154.224C161.761 154.586 161.752 155.05 161.543 155.413C161.248 155.929 160.873 156.42 160.463 156.893C161.921 157.686 163.348 158.523 164.745 159.41C164.665 158.983 164.685 158.511 164.759 158.038L164.784 157.888L164.885 157.303C165.031 156.439 165.106 155.636 164.558 154.794C163.874 153.74 162.582 153.411 161.553 152.802C160.368 152.101 159.749 151.162 159.114 149.97C157.899 147.689 155.153 146.774 152.793 146.041L152.496 145.948C150.315 145.272 147.956 144.91 145.776 145.56C145.981 146.512 146.248 147.451 146.583 148.366C146.939 149.339 147.752 150.422 147.669 151.473C147.611 152.201 146.739 152.979 146.015 152.422C144.989 151.635 144.784 150.354 144.509 149.132C144.244 147.951 144.074 146.742 144.002 145.533C143.932 144.369 143.987 143.205 144.13 142.049L144.24 141.199L144.267 141.002C144.387 140.143 144.565 139.242 145.048 138.569C145.094 138.504 145.208 138.503 145.229 138.593ZM115.476 133.765C115.492 133.834 115.503 133.901 115.512 133.969C115.583 134.259 115.609 134.537 115.601 134.817C115.605 134.918 115.597 135.019 115.579 135.119C115.541 135.448 115.462 135.785 115.354 136.155C115.127 136.94 114.865 137.716 114.574 138.481C113.997 139.993 113.316 141.435 112.474 142.818C110.954 145.315 109.021 147.388 106.742 149.18C107.175 149.537 107.597 149.909 108.021 150.273C110.068 152.036 112.06 153.878 113.99 155.77C117.416 159.129 120.774 162.55 124.053 166.053C125.67 167.781 127.257 169.531 128.836 171.294L128.888 171.353L128.944 171.42C129.504 172.098 130.625 173.715 131.461 173.455C131.883 173.324 132.327 172.694 132.615 172.393L133.145 171.84C133.321 171.656 133.497 171.47 133.669 171.281C136.752 167.901 139.67 164.392 142.41 160.723C143.747 158.933 145.039 157.11 146.284 155.255C146.925 154.301 147.553 153.338 148.169 152.368C148.764 151.43 149.245 150.421 150.123 149.721C150.767 149.207 151.659 149.678 151.497 150.521C151.241 151.848 150.323 152.97 149.6 154.092C148.874 155.219 148.131 156.335 147.371 157.439C145.908 159.565 144.382 161.647 142.802 163.686C141.44 165.443 140.02 167.154 138.562 168.831L138.163 169.287C136.595 171.076 135.055 172.975 133.322 174.608C131.769 176.071 130.074 175.645 128.66 174.223C126.872 172.427 125.211 170.484 123.491 168.621C120.052 164.9 116.577 161.207 113.067 157.553L111.913 156.35C110.568 154.945 109.228 153.532 107.923 152.092L107.754 151.904C106.266 150.229 104.752 148.131 102.637 147.28C102.484 147.218 102.54 147.001 102.705 147.031C104.059 147.282 105.19 147.964 106.242 148.78C107.188 147.215 108.032 145.564 108.767 143.876L108.295 143.671C104.919 142.212 101.112 140.74 97.4869 140.977C96.0258 141.072 94.4669 141.625 93.4581 142.723C92.5445 143.717 92.0884 145.057 91.2501 146.116C90.2899 147.328 89.0375 147.874 87.5005 147.923L86.7532 147.946C85.8936 147.974 85.0692 148.019 84.1974 148.208C81.835 148.72 79.3443 149.552 77.3631 150.971C76.6443 151.486 75.9024 152.194 75.5548 152.974C75.2103 153.747 75.1112 154.652 75.0776 155.486C75.0613 155.892 75.1832 156.429 75.0814 156.819C75.093 156.774 75.0983 156.798 75.0998 156.844C75.4164 157.094 75.6321 157.509 75.6556 157.923C77.6305 156.893 79.675 155.991 81.7591 155.177C84.0797 154.272 86.4723 153.546 88.8653 152.859C91.2074 152.186 93.659 151.908 96.0465 151.429C96.3505 151.368 96.4562 151.778 96.1729 151.888C93.6634 152.852 91.2353 153.995 88.705 154.902C86.1759 155.809 83.6656 156.79 81.2098 157.881C76.4631 159.991 71.8779 162.675 68.1383 166.317C64.4859 169.874 61.6686 174.195 59.0485 178.539C56.4098 182.914 54.0548 187.449 51.9558 192.107C47.8036 201.322 44.6899 211.01 42.64 220.906C40.645 230.537 39.5303 240.511 39.9015 250.354C40.0777 255.029 40.6486 259.708 41.9762 264.204C42.6104 266.352 43.4043 268.451 44.4074 270.455C45.4653 272.568 46.8905 274.45 47.8564 276.598C47.9358 276.775 47.9662 276.945 47.9618 277.102C52.0815 280.673 58.5298 278.267 62.9884 276.135C73.2476 271.227 83.3166 265.857 92.887 259.694C102.333 253.611 111.284 246.822 120.024 239.776C119.348 239.079 118.752 238.297 118.229 237.589C117.147 236.126 116.333 234.469 115.774 232.74C115.119 230.715 114.916 228.549 115.102 226.434L115.155 225.835C115.333 223.838 115.538 221.811 115.976 219.858C115.98 219.833 116 219.822 116.021 219.822C116.042 219.822 116.063 219.835 116.072 219.858C117.253 223.64 117.348 227.704 118.674 231.436C119.209 232.937 120.037 234.387 121.03 235.632C121.459 236.17 121.962 236.638 122.475 237.094C122.509 236.862 122.555 236.631 122.625 236.405L122.68 236.226C122.749 236.009 122.834 235.767 122.952 235.553C122.785 235.505 122.623 235.452 122.462 235.393C122.335 235.346 122.308 235.141 122.462 235.108C122.883 235.01 123.316 234.962 123.757 234.941C123.827 234.93 123.895 234.928 123.962 234.932C124.788 234.907 125.629 234.966 126.426 234.979C127.805 235 129.181 235.025 130.558 235.086C133.195 235.2 136.171 235.706 138.766 235.093C141.124 234.535 143.448 232.962 145.338 231.483C146.99 230.189 148.264 228.653 149.635 227.121C149.537 227.136 149.439 227.151 149.342 227.164L148.458 227.285C147.342 227.434 146.017 227.551 145.131 227.015C144.793 226.81 144.891 226.345 145.235 226.218C146.139 225.886 147.261 226.161 148.224 226.115C148.98 226.078 149.745 225.998 150.491 225.842C150.736 225.791 150.979 225.732 151.22 225.662C152.986 225.153 155.061 223.361 153.658 221.404C153.605 221.33 153.664 221.262 153.736 221.249C153.768 221.243 153.802 221.249 153.829 221.273C155.426 222.595 154.596 224.967 153.085 225.984C152.566 226.334 151.979 226.58 151.37 226.759C151.486 226.972 151.507 227.235 151.368 227.484C150.185 229.593 148.182 231.447 146.306 232.937C144.379 234.467 142.157 235.91 139.767 236.587C137.008 237.365 133.976 236.779 131.177 236.532C129.66 236.399 128.148 236.24 126.633 236.065C126.227 236.018 125.807 235.983 125.38 235.942C125.781 236.471 126.1 237.079 126.31 237.445C126.99 238.633 126.362 240.197 125.044 240.56C124.907 240.598 124.765 240.62 124.626 240.624C124.271 241.336 123.426 241.86 122.644 241.592C122.304 241.476 121.976 241.317 121.662 241.127C116.745 245.447 111.569 249.5 106.245 253.301C96.3729 260.347 86.0248 266.783 75.2948 272.44C72.8779 273.715 70.4425 274.955 67.9865 276.147L65.8726 277.166C63.5328 278.293 61.1381 279.413 58.6532 280.112C58.1688 280.249 57.6615 280.359 57.1418 280.443C57.1351 280.49 57.1334 280.534 57.1364 280.577C56.6692 280.639 56.2615 280.649 55.9133 280.605L55.8341 280.594C52.7882 280.807 49.5303 280.063 47.5707 277.838C47.2441 278.067 46.7679 278.093 46.3477 277.763C44.2344 276.104 42.9746 273.578 41.8691 271.167C40.7481 268.721 39.8694 266.172 39.2238 263.56C37.9342 258.345 37.4227 252.965 37.3958 247.599C37.2983 226.925 42.4739 206.07 51.4638 187.509C53.7438 182.802 56.257 178.182 59.047 173.757C61.8294 169.344 65.0603 165.243 69.198 162.025C70.3879 161.099 71.6257 160.253 72.9024 159.474C72.0455 159.049 71.7051 157.968 71.6451 157.008C71.512 154.876 71.766 152.42 73.0137 150.622C74.7641 148.098 77.8974 146.542 80.8027 145.785C82.3194 145.391 83.8883 145.16 85.4527 145.083C86.2593 145.042 87.0974 145.175 87.8943 145.088C88.5974 145.011 89.0322 144.592 89.4366 144.04C90.4724 142.625 91.1468 141.142 92.6326 140.105C94.1572 139.041 96.1327 138.634 97.9693 138.744C100.109 138.873 102.061 139.716 103.945 140.685C105.646 141.56 107.297 142.529 108.905 143.562C109.2 142.871 109.478 142.174 109.736 141.475C110.238 140.12 110.673 138.722 111.027 137.321C111.386 135.901 111.333 134.025 112.416 132.956C113.358 132.028 115.171 132.393 115.476 133.765ZM188.465 228.548L188.457 228.55C186.267 229.848 185.219 233.093 184.188 234.511C184.273 234.987 184.332 235.471 184.448 235.921C184.714 236.955 185.063 237.98 185.467 238.965C186.176 240.704 187.066 242.361 187.888 244.047C188.549 245.404 189.197 246.785 189.701 248.213C189.646 248.267 189.596 248.332 189.553 248.413C189.006 249.437 188.578 249.236 187.569 249.012L187.569 249.01C186.992 247.243 186.16 245.584 185.412 243.889L185.23 243.475L185.05 243.061C184.425 241.61 183.855 240.146 183.523 238.591C183.311 237.599 183.225 236.58 183.212 235.568C182.665 236.018 182.008 236.342 181.18 236.466C179.408 236.734 177.803 235.624 176.359 234.733L176.034 234.534C175.13 233.984 174.234 233.476 173.192 233.216C172.009 232.92 170.785 232.92 169.583 232.77C169.44 232.751 169.294 232.732 169.148 232.709C169.617 234.262 169.835 235.949 170.114 237.504C170.502 239.685 170.819 241.886 171.124 244.079C171.715 248.332 172.127 252.618 172.336 256.906C172.539 261.058 172.437 265.195 172.286 269.346L172.212 271.37C172.151 273.018 172.102 274.668 172.131 276.317C172.211 276.323 172.292 276.336 172.372 276.355C173.205 276.549 173.773 277.399 174.533 277.777C176.139 278.576 178.079 278.565 179.788 278.162C183.675 277.24 186.907 274.526 189.037 271.21C191.593 267.233 192.531 262.551 192.502 257.868C192.466 252.597 191.613 247.557 190.425 242.468L190.349 242.143C189.349 237.904 188.723 228.588 188.465 228.548ZM79.6112 217.913C79.6334 219.33 79.0571 220.847 78.7404 222.224C78.3994 223.709 78.0593 225.193 77.7145 226.677L77.4044 228.006C77.1462 229.114 76.8916 230.222 76.6634 231.337C76.4758 232.253 76.3972 233.46 76.0898 234.47C79.7462 232.991 83.4084 231.527 87.0643 230.052C91.5686 228.235 96.0939 226.467 100.609 224.679C105.107 222.9 109.579 220.875 114.168 219.353C115.26 218.99 116 220.734 114.954 221.217C110.293 223.38 105.362 225.073 100.588 226.966L93.6809 229.709C87.3494 232.223 81.0136 234.724 74.646 237.139C70.3087 238.783 65.9883 240.476 61.6235 242.038C59.5425 242.782 57.4427 243.486 55.3721 244.257C53.6376 244.904 51.7615 245.863 51.1193 247.727C51.0855 247.824 50.9524 247.784 50.9672 247.685C51.227 245.88 52.5667 244.751 54.077 243.898C56.0817 242.761 58.2835 241.935 60.3996 241.023L60.6876 240.899C65.0086 239.013 69.3646 237.204 73.7334 235.426C73.6901 235.32 73.6645 235.207 73.6626 235.088L73.6501 235.092C73.5707 234.284 73.941 233.563 74.2074 232.812L74.9716 230.655C75.4808 229.219 75.9375 227.765 76.408 226.316C76.9001 224.802 77.3967 223.289 77.8926 221.775C78.3126 220.493 78.5948 218.966 79.3134 217.82C79.4 217.682 79.6387 217.759 79.6112 217.913ZM163.757 214.725L163.702 215C163.639 215.322 163.579 215.646 163.564 215.972C163.522 216.824 163.619 217.675 163.845 218.498C164.067 219.311 164.378 220.097 164.819 220.818C165.238 221.496 165.844 222.029 166.231 222.725C166.271 222.798 166.296 222.872 166.307 222.944C166.454 222.883 166.6 222.828 166.742 222.784C167.921 222.41 169.125 222.097 170.346 221.862L170.152 221.849L170.027 221.839C167.987 221.666 166.062 220.999 166.478 218.616C166.713 217.269 167.77 216.365 168.903 215.725L169.045 215.646C169.106 215.612 169.169 215.579 169.23 215.549C168.206 215.376 167.462 215.162 166.205 214.951C165.39 214.814 164.572 214.738 163.757 214.725ZM70.5474 185.372C72.5536 189.427 74.0629 193.739 75.2017 198.113C75.7514 200.225 76.218 202.359 76.5931 204.509L76.7163 205.227L76.7863 205.617C77.1368 207.533 77.5818 209.61 77.0672 211.48C76.8992 212.091 75.8851 212.333 75.6012 211.672C74.7447 209.676 74.8651 207.383 74.6169 205.248C74.356 203.008 74 200.778 73.5563 198.567C72.7042 194.318 71.508 190.168 70.1747 186.05L70.026 185.592C69.9128 185.287 70.4059 185.086 70.5474 185.372ZM147.66 203.513C147.062 203.794 146.464 204.052 145.936 204.309C145.896 204.331 145.854 204.35 145.811 204.371C146.409 204.269 147.009 204.174 147.609 204.085C147.603 203.891 147.622 203.699 147.66 203.513ZM171.055 201.482C170.965 201.511 170.885 201.558 170.816 201.623L170.783 201.657C170.7 201.733 170.642 201.824 170.608 201.929C170.555 202.03 170.531 202.138 170.535 202.254L170.565 202.479C170.605 202.622 170.678 202.746 170.783 202.852L170.954 202.984C171.069 203.051 171.192 203.089 171.323 203.098L171.38 203.1L171.551 203.1C171.649 203.097 171.741 203.072 171.827 203.027C171.917 202.998 171.997 202.951 172.066 202.886L172.099 202.852C172.182 202.775 172.24 202.685 172.274 202.58C172.319 202.494 172.344 202.402 172.347 202.304L172.347 202.254L172.317 202.03C172.282 201.904 172.222 201.793 172.137 201.697L172.099 201.657L171.928 201.524C171.813 201.457 171.69 201.42 171.559 201.411L171.502 201.409H171.38C171.264 201.405 171.155 201.429 171.055 201.482ZM165.558 201.196C165.109 201.278 164.854 201.823 164.967 202.235C165.093 202.693 165.527 202.896 165.963 202.833L166.007 202.826C166.518 202.732 167.018 202.768 167.505 202.948C167.933 203.106 168.431 202.771 168.544 202.357C168.674 201.885 168.384 201.476 167.954 201.317C167.183 201.033 166.356 201.049 165.558 201.196ZM76.5482 171.172C77.5704 172.671 78.2087 174.663 78.8383 176.376L78.9013 176.546C79.5706 178.346 80.2162 180.16 80.8183 181.984C82.0202 185.624 83.5866 189.434 83.876 193.28C83.9295 193.989 82.8438 194.274 82.529 193.645C81.6245 191.836 81.1382 189.951 80.603 188.012C80.0926 186.163 79.5609 184.32 79.0289 182.477C78.4971 180.635 77.9827 178.788 77.459 176.944C76.9496 175.15 76.2404 173.155 76.1238 171.287C76.1085 171.045 76.4307 171 76.5482 171.172ZM99.6206 159.107C100.985 160.055 102.103 161.441 103.258 162.626C104.429 163.829 105.585 165.042 106.73 166.27C108.643 168.323 110.522 170.408 112.463 172.436C116.33 176.476 120.704 180.193 126.041 182.092C127.333 182.551 126.767 184.625 125.473 184.156C120.014 182.176 115.492 178.515 111.503 174.373C109.437 172.229 107.541 169.937 105.693 167.604C104.828 166.513 103.969 165.418 103.123 164.312L102.617 163.647C101.552 162.243 100.25 160.843 99.4716 159.257C99.4279 159.167 99.5238 159.04 99.6206 159.107Z" fill="black"/>
<path fill-rule="evenodd" clip-rule="evenodd" d="M163.356 85.4321C161.448 77.3683 157.276 69.8641 150.598 63.7993C130.501 43.8804 93.5934 54.692 93.7606 84.7084C93.0398 88.2143 92.7472 91.8191 92.9858 95.3945C93.0845 96.92 93.7431 99.049 92.8583 100.422C90.8624 102.99 89.7025 104.884 90.3818 108.3C90.9493 111.284 92.9745 113.397 95.7076 114.521C97.3467 114.992 98.9019 116.019 99.5091 117.585C103.158 124.281 105.861 129.851 111.612 134.415C113.097 135.59 128.319 142.637 133.335 142.637C148.019 142.637 166.526 137.304 166.833 120.861C166.886 117.25 166.254 113.596 165.857 110.013C164.892 101.836 165.233 93.3636 163.356 85.4321Z" fill="#D08B5B"/>
<path fill-rule="evenodd" clip-rule="evenodd" d="M163.026 81.3987C163.03 81.299 163.173 81.2765 163.2 81.375C163.746 83.3163 164.055 85.2939 164.482 87.2654C164.893 89.1644 165.282 91.0688 165.605 92.9845C166.214 96.6 166.728 100.225 167.205 103.859L167.324 104.768C168.154 111.163 169.525 117.825 168.326 124.257C167.303 129.746 163.873 134.169 159.452 137.412C155.266 140.483 150.191 142.454 145.152 143.574C139.744 144.777 133.333 145.136 128.933 141.16C127.171 139.568 129.573 136.409 131.484 137.846C135.971 141.218 141.68 140.224 146.744 138.882L146.897 138.841C151.341 137.654 155.815 135.856 159.343 132.821C163.244 129.466 165.173 124.809 165.396 119.702C165.521 116.833 165.254 113.967 164.966 111.115L164.934 110.798C164.604 107.536 164.257 104.275 163.937 101.012C163.646 98.0363 163.394 95.0434 163.261 92.0544L163.199 90.5469C163.069 87.5074 162.895 84.4235 163.026 81.3987ZM110.395 56.1441C117.698 52.3328 126.09 50.9687 134.217 52.2478C142.03 53.4775 149.2 57.5189 154.559 63.3139C157.176 66.1433 159.498 69.416 160.982 72.9914C161.719 74.7676 162.297 76.6205 162.604 78.5235C162.762 79.5019 162.917 80.5155 162.947 81.5074C162.975 82.4257 162.706 83.2869 162.737 84.2205C162.742 84.3665 162.519 84.3946 162.485 84.2547C162.231 83.2138 161.62 82.4267 161.236 81.438C160.949 80.6998 160.624 79.9791 160.293 79.2605L160.008 78.6448C159.182 76.8553 158.195 75.1394 157.218 73.4296C155.251 69.9858 152.728 66.8561 149.773 64.2153C144.585 59.5787 137.929 56.5858 130.982 56.0468C123.772 55.4872 116.458 57.2101 110.301 61.0267C104.143 64.843 99.4877 70.7756 97.0704 77.6063C95.8508 81.0532 95.1772 84.6446 95.0206 88.2964C94.9413 90.1448 95.0153 92.0087 95.1446 93.8536L95.2087 94.7334C95.284 95.7884 95.3355 96.8394 95.1783 97.8688C96.2889 97.5216 97.4531 97.3777 98.6214 97.5495C100.358 97.8048 101.395 98.5183 102.174 100.073C102.214 100.155 102.133 100.236 102.052 100.195C101.042 99.6903 99.4088 99.9561 98.3396 100.221C97.2268 100.497 96.2246 100.976 95.2791 101.624C93.5299 102.822 92.1587 104.679 91.8222 106.809C91.4969 108.867 92.3396 110.95 93.755 112.425C94.4836 113.185 95.3545 113.841 96.3296 114.25C97.5129 114.747 98.6843 114.732 99.7312 115.552C100.378 116.059 100.222 116.927 99.7831 117.49C101.992 119.918 103.951 122.574 106.159 125.011C107.183 126.141 108.198 127.272 109.179 128.439L109.546 128.878C110.525 130.063 112.083 131.315 112.531 132.805C112.81 133.732 111.819 134.945 110.818 134.522C109.282 133.874 108.186 132.188 107.148 130.894L107.08 130.81C105.992 129.47 105.026 128.054 104.143 126.571L103.852 126.083C102.255 123.39 100.671 120.597 99.6528 117.638C99.5855 117.707 99.5143 117.77 99.4392 117.824C97.9719 118.87 95.8388 118.066 94.3734 117.386C92.99 116.745 91.7216 115.781 90.7331 114.618C88.5831 112.09 87.5921 108.816 88.3101 105.535C88.9183 102.755 90.84 100.051 93.3593 98.6455C92.1964 97.3035 91.7149 95.4943 91.3945 93.7255C90.9855 91.4677 90.9039 89.1538 91.015 86.8642C91.2365 82.3039 92.4072 77.8087 94.2169 73.6329C97.4547 66.161 103.179 59.911 110.395 56.1441ZM95.0262 106.004C96.5589 105.716 97.9872 105.647 99.4655 106.297C101.069 107.002 102.198 108.167 103.247 109.532C104.44 111.085 101.381 112.781 100.61 110.72L100.587 110.656C100.38 110.046 100.01 109.456 99.5418 108.913C99.4012 109.129 99.2131 109.319 98.9922 109.428C98.7247 109.56 98.3161 109.469 98.2518 109.126C98.1805 108.746 98.2594 108.285 98.4782 107.963L98.5082 107.919C97.4448 107.062 96.1657 106.435 95.0262 106.233C94.9124 106.213 94.9136 106.025 95.0262 106.004Z" fill="black"/>
<path fill-rule="evenodd" clip-rule="evenodd" d="M143.152 128.274C141.732 127.695 140.465 126.728 139.538 125.493C139.216 125.063 139.133 124.61 139.2 124.195C139.276 123.729 139.552 123.306 139.928 123.023C140.305 122.739 140.777 122.598 141.233 122.67C141.63 122.732 142.024 122.949 142.337 123.399L142.402 123.489C142.953 124.235 143.67 124.846 144.488 125.241C145.276 125.621 146.158 125.798 147.07 125.695C148.808 125.499 150.005 124.559 151.278 123.282C151.436 123.121 151.594 122.955 151.752 122.786C151.852 122.633 151.991 122.534 152.146 122.483C152.317 122.425 152.511 122.429 152.689 122.491C152.86 122.55 153.013 122.664 153.116 122.815C153.213 122.958 153.269 123.135 153.251 123.339C153.134 124.661 152.443 125.842 151.461 126.769C150.37 127.799 148.924 128.511 147.563 128.761C146.064 129.036 144.536 128.839 143.152 128.274ZM148.271 107.866C149.866 108.836 152.297 111.098 150.581 113.503C148.56 115.624 145.652 113.193 144.218 112.093C142.889 111.241 141.396 113.433 142.629 114.428C152.986 122.099 157.19 108.12 149.077 106.726C148.184 106.572 147.853 107.566 148.271 107.866ZM129.711 98.9429C129.887 96.7541 133.219 96.257 133.551 98.423C133.847 100.363 133.498 102.145 132.624 103.892C131.79 105.561 129.692 104.783 129.533 103.263C129.32 101.226 129.601 100.304 129.711 98.9429ZM155.076 97.9739C155.541 97.3652 156.211 96.9497 157.015 97.1845C159.526 97.9185 158.786 101.485 157.904 103.22C157.425 104.163 155.876 104.402 155.176 103.572C154.035 102.219 153.489 99.5157 154.939 98.1825C154.979 98.1136 155.022 98.044 155.076 97.9739ZM132.589 89.3654L132.986 89.2959C134.213 89.0836 135.738 88.8796 136.606 89.8665C137.067 90.3898 137.225 91.3624 136.606 91.8633C135.518 92.7446 134.314 92.4031 133.01 92.4777C131.935 92.5394 130.902 92.7174 129.867 93.0135C127.595 93.6629 125.744 94.8486 123.804 96.1505C123.549 96.3213 123.29 95.9956 123.411 95.7574C124.531 93.563 126.701 91.7604 128.875 90.6616C130.036 90.0751 131.305 89.5885 132.589 89.3654ZM152.787 88.3823L153.091 88.4445C156.394 89.1353 160.687 90.5153 162.251 93.7615C162.311 94.2205 162.248 94.3189 162.196 94.3832L162.179 94.4046C162.137 94.4595 162.104 94.5351 161.905 94.5976C161.849 94.5845 161.794 94.5705 161.737 94.5557C161.02 94.3677 160.453 94.1087 159.904 93.84L159.308 93.5465C158.617 93.2076 157.92 92.881 157.181 92.6399C155.605 92.1255 153.983 91.7631 152.337 91.5696C151.98 91.5277 151.636 91.4072 151.365 91.2007C151.107 91.0046 150.911 90.7332 150.821 90.3724C150.705 89.9056 150.738 89.5521 150.989 89.1309C151.177 88.8146 151.447 88.5953 151.756 88.4694C152.071 88.3411 152.43 88.3108 152.787 88.3823Z" fill="black"/>
<path fill-rule="evenodd" clip-rule="evenodd" d="M156.415 116.417C153.452 115.917 150.373 116.655 147.516 117.443C142.977 114.462 137.096 117.471 133.846 121.195C132.733 122.112 130.397 123.329 131.628 125.078C131.161 126.314 131.037 126.896 132.002 125.451C137.467 126.08 143.331 124.891 148.74 123.769C150.581 124.389 152.208 125.837 154.232 125.341C156.146 125.749 158.218 126.129 159.946 124.9C161.262 124.847 164.19 127.211 164.142 124.462C163.735 121.827 158.513 117.443 156.415 116.417Z" fill="#E8E1E1"/>
<path fill-rule="evenodd" clip-rule="evenodd" d="M158.637 124.875C155.42 125.231 152.157 124.708 149.464 122.839C149.182 122.644 148.905 122.646 148.679 122.761C148.404 122.73 148.123 122.84 147.96 123.154C147.284 124.458 145.041 124.167 143.809 124.194C139.777 124.272 135.605 124.049 131.725 125.268C135.436 118.012 140.568 114.879 148.508 117.728C147.791 118.306 151.369 116.953 151.683 116.928C157.178 115.55 161.71 120.16 163.925 124.728C162.249 124.33 160.372 124.683 158.637 124.875ZM166.311 126.11C163.889 120.651 159.112 114.649 152.449 115.592C151.081 115.794 149.642 116.729 148.265 116.56C144.277 115.087 140.986 114.338 136.992 116.72C135.298 116.847 125.763 128.657 130.294 127.692C135.856 124.497 145.526 127.507 148.98 124.649C155.761 129.102 161.274 124.265 165.095 127.048C165.76 127.658 166.692 126.899 166.311 126.11Z" fill="black"/>
<path fill-rule="evenodd" clip-rule="evenodd" d="M167.178 109.153C164.613 111.805 160.331 112.566 156.919 111.144C148.156 107.481 152.445 96.0578 159.203 92.99C160.047 92.7795 161.175 92.2801 162.203 92.1668C162.296 92.1211 162.498 92.2532 162.744 92.1283C170.195 92.9606 171.892 104.532 167.178 109.153ZM138.915 109.832C136.039 113.649 130.69 114.827 126.32 113.052C117.687 109.651 120.749 99.5216 126.656 95.5503C139.133 90.8602 144.285 102.794 138.915 109.832ZM120.201 101.374C120.193 101.37 120.185 101.369 120.177 101.365C120.223 101.345 120.268 101.325 120.314 101.304C120.299 101.343 120.283 101.381 120.268 101.42C120.246 101.404 120.226 101.386 120.201 101.374ZM173.118 97.2481C172.413 97.2496 171.396 97.3654 170.813 97.8542C169.375 93.0031 164.067 88.5134 159.451 91.7872C155.817 92.9566 153.119 95.5501 151.586 98.9981C148.822 97.3533 144.476 98.0557 142.079 100.231C140.51 95.0418 136.646 93.2248 132.048 92.9566C127.029 92.1342 122.027 97.0103 120.466 100.922C119.168 100.774 117.229 100.361 116.008 101.162C108.084 99.0834 94.2302 97.9373 92.6193 99.0923C91.4712 99.533 90.8412 102.244 92.4448 102.39C93.8421 102.192 92.2817 100.404 93.6902 100.209C101.195 99.7433 108.481 101.255 115.906 101.89C116.569 102.782 118.711 103.08 119.854 102.722C118.054 109.357 121.939 113.872 127.761 115.224C136.775 117.296 144.617 109.229 142.26 100.838C144.991 99.4791 148.132 99.5374 151.106 100.253C146.136 118.554 175.598 117.733 170.997 98.4813C174.059 100.005 174.724 97.5556 173.118 97.2481Z" fill="black"/>
</svg>
