<svg width="259" height="324" viewBox="0 0 259 324" fill="none" xmlns="http://www.w3.org/2000/svg">
<path fill-rule="evenodd" clip-rule="evenodd" d="M245.861 194.94C248.025 193.81 250.138 192.583 252.217 191.305C253.682 190.428 252.385 188.22 250.883 189.018C250.115 189.426 249.35 189.838 248.583 190.244C249.187 189.723 249.747 189.156 250.249 188.539L250.214 188.504C252.151 186.769 249.664 183.495 247.462 184.92C245.52 186.328 243.561 187.765 241.332 188.692C236.715 190.65 231.623 190.974 226.668 191.031C224.855 190.895 223.123 191.209 221.363 191.559C222.053 188.791 223.779 186.7 224.695 184.019C225.37 181.312 221.465 179.468 220.08 182.07C219.741 182.709 219.417 183.356 219.1 184.005C216.108 186.728 211.112 186.488 208.095 189.411C206.376 190.937 205.535 193.008 205.202 195.086C204.977 196.497 205.327 197.912 204.474 199.162C200.351 204.997 193.835 214.22 190.526 220.641C188.183 205.382 181.927 186.509 175.464 172.556C173.327 168.094 170.882 163.734 167.672 159.951C168.036 158.69 166.752 156.451 165.935 157.14C163.422 154.069 158.979 153.273 155.406 151.746C150.584 149.683 146.583 145.395 144.616 140.522C142.089 131.241 135.867 130.062 127.239 130.472C118.982 130.462 112.873 133.995 111.071 142.404C107.411 148.786 98.769 147.73 92.5516 149.42C87.995 150.461 83.573 152.071 79.3704 154.115C74.6953 149.679 57.9513 168.298 56.4293 173.089C57.3253 173.263 58.2158 173.472 59.0982 173.727C59.8842 173.954 59.5542 175.142 58.7615 174.952C57.7751 174.715 56.7823 174.552 55.7849 174.439C55.7545 174.534 55.7279 174.629 55.708 174.723C55.5961 174.715 55.4843 174.705 55.3723 174.698C55.6206 174.827 55.8595 174.977 56.0923 175.171C56.6551 175.638 55.9225 176.54 55.3244 176.168C54.7609 175.746 54.023 175.813 53.3471 175.671C53.307 177.061 48.3479 175.506 47.5776 175.045C44.154 174.617 40.632 175.077 37.4359 173.425C33.1833 172.529 28.8988 171.538 24.694 170.397C23.5808 170.831 22.5346 172.385 23.4187 173.525C23.9161 174.044 23.2768 174.891 22.6506 174.522C20.5504 173.285 18.9261 171.355 17.5491 169.275C16.9009 168.621 15.7504 168.762 14.8795 168.49C14.7631 168.699 14.6944 168.933 14.6955 169.172C11.0015 169.78 13.6366 173.816 15.4937 175.074C14.5085 175.716 14.4711 176.972 14.5573 178.022C14.3486 178.395 14.2789 178.859 14.4606 179.277C15.1552 180.879 16.6575 182.227 17.7999 183.525C19.0611 184.958 20.1857 186.398 21.7204 187.56C27.5699 192.021 34.629 194.515 41.8709 195.49C44.4422 195.885 48.1409 196.49 49.733 198.665C49.3423 201.246 48.6251 203.722 47.9744 206.239C47.0644 209.581 47.1263 213.079 47.1143 216.485C46.9871 216.383 46.7429 216.404 46.7066 216.599C46.4949 218.011 46.3375 219.455 45.4795 220.641C44.7274 222.848 44.2269 225.201 43.9457 227.519C42.8192 238.508 42.5503 249.822 45.0901 260.64C46.0702 264.653 47.6642 268.467 49.8361 271.979C50.4836 273.027 51.5247 273.334 52.4596 273.128C55.5885 274.754 59.5301 275.275 62.9025 274.862C74.3999 271.606 70.3939 279.447 86.5142 277.046C114.34 273.5 142.46 280.468 170.226 276.377C170.91 281.661 179.863 280.145 182.972 277.911C192.296 270.977 196.926 249.023 201.605 237.886C204.822 229.108 210.208 213.56 217.262 207.669C219.377 206.014 221.933 205.143 224.491 204.44C234.038 201.979 243.621 199.652 253.186 197.259C254.809 196.859 254.517 194.092 252.782 194.269C250.48 194.505 248.171 194.718 245.861 194.94Z" fill="#D08B5B"/>
<path fill-rule="evenodd" clip-rule="evenodd" d="M33.3371 193.294C32.6906 193.214 32.0568 192.984 31.4272 192.802C30.466 192.521 29.5237 192.193 28.5962 191.819C26.6821 191.052 24.8251 190.145 23.0843 189.035C20.2723 187.241 17.7878 184.942 15.9138 182.173L15.7852 181.98C14.7154 180.35 12.742 176.73 14.9547 175.492C13.5286 174.3 12.1807 172.159 12.2567 170.506C12.3645 168.169 15.2293 168.201 16.7103 169.192C17.68 169.841 18.4067 170.749 19.1356 171.644C19.9427 172.637 20.8046 173.584 21.7004 174.495C21.9381 174.735 22.1781 174.972 22.4223 175.204L22.668 175.435C22.63 175.344 22.5962 175.251 22.5666 175.156C22.0722 173.615 22.6617 171.61 24.2018 170.904C25.1443 170.472 26.1231 170.735 27.0365 171.102L27.1765 171.159C28.406 171.669 29.6504 172.119 30.9307 172.48C36.149 173.954 41.5955 174.199 46.9426 174.934C49.0025 175.22 51.1004 175.579 53.1497 176.107C53.9313 172.787 55.8475 169.604 57.9264 166.985C67.8813 154.458 84.2989 150.318 99.318 147.638C100.687 147.395 101.822 149.209 102.618 148.78C104.129 147.968 105.457 146.818 106.624 145.569C109.11 142.904 110.874 139.77 112.947 136.8C113.972 135.333 116.329 136.646 115.379 138.221L114.913 138.99C112.995 142.142 110.872 145.39 108.122 147.835C106.66 149.133 105.037 150.158 103.182 150.798C101.777 151.282 99.8061 151.69 98.268 151.22L98.0835 150.952C98.1445 151.041 98.206 151.131 98.268 151.221C102.282 157.039 107.319 161.964 112.626 166.611C117.983 171.3 123.761 175.498 129.575 179.603L130.059 179.945C139.531 173.034 147.531 164.02 153.145 153.721C151.968 153.579 150.804 152.825 149.798 152.263C148.588 151.582 147.449 150.77 146.562 149.688C144.629 147.332 144.88 144.295 144.531 141.435C144.51 141.258 144.745 141.213 144.853 141.302C145.9 142.173 146.268 143.599 146.705 144.832C147.187 146.186 147.732 147.302 148.837 148.255C149.866 149.143 151.121 149.796 152.34 150.377C152.969 150.676 156.089 151.442 156.445 152.077C161.836 150.811 167.088 152.998 171.084 156.688C174.943 160.254 177.776 164.889 180.278 169.464C182.946 174.347 185.133 179.436 187.017 184.667C188.927 189.976 190.391 195.401 191.196 200.989C191.876 205.701 192.292 210.486 192.562 215.25L192.595 215.845C196.583 209.583 200.671 203.386 204.844 197.244C203.895 194.71 204.945 192.123 206.722 190.166C208.691 188 211.414 186.994 214.019 185.823L214.362 185.668C215.617 185.095 216.869 184.464 217.953 183.606C218.997 182.777 219.764 181.636 220.862 180.873C222.46 179.761 225.358 179.998 225.432 182.427C225.47 183.76 224.898 185.223 224.374 186.421C223.78 187.776 222.979 189.004 222.029 190.132C221.985 190.185 221.937 190.226 221.888 190.259L221.851 190.282C223.165 190.5 224.49 190.676 225.84 190.737C228.563 190.862 231.316 190.661 233.982 190.086C236.712 189.498 239.357 188.543 241.812 187.212C243.91 186.074 245.853 184.603 248.236 184.257C248.456 184.223 248.678 184.202 248.906 184.189C249.286 184.168 249.667 184.616 249.517 184.992C249.434 185.199 249.348 185.405 249.252 185.612C248.429 187.427 247.165 189.188 245.588 190.525L245.467 190.627C246.022 190.435 246.569 190.219 247.108 189.976C250.275 188.549 253.148 186.394 256.543 185.527C256.704 185.485 256.867 185.447 257.029 185.411C258.079 185.185 258.633 186.326 258.016 187.108C257.917 187.235 257.817 187.359 257.714 187.484C256.199 189.365 254.528 191.111 252.686 192.679C252.054 193.216 251.403 193.736 250.74 194.233C250.46 194.443 250.179 194.649 249.895 194.852L249.755 194.951C250.087 194.717 250.414 194.478 250.74 194.233C252.819 193.603 254.868 192.857 256.873 192.03C257.669 191.703 258.288 192.51 258.373 193.174C258.656 195.397 256.188 197.006 254.583 198.075C252.973 199.149 251.2 199.965 249.386 200.62C245.896 201.881 242.231 202.454 238.572 202.967L236.795 203.215C229.761 204.199 222.413 205.375 217.366 210.851C214.537 213.92 212.623 217.733 210.871 221.484C209.122 225.231 207.586 229.078 206.129 232.946C204.618 236.949 203.302 241.025 201.903 245.069C200.619 248.781 199.084 252.446 197.565 256.074L197.325 256.646C194.099 264.357 190.245 271.618 184.875 278.056C183.99 279.119 182.56 277.61 183.377 276.558C188.995 269.313 192.903 260.764 196.129 252.235C197.598 248.355 198.827 244.382 200.238 240.48L201.078 238.162C202.199 235.073 203.331 231.987 204.51 228.922C206.004 225.043 207.645 221.211 209.524 217.504L209.723 217.114C211.562 213.538 213.746 210.013 216.753 207.307C222.165 202.433 229.367 201.264 236.33 200.338L238.521 200.049C241.464 199.658 244.417 199.226 247.279 198.438C248.931 197.986 250.545 197.407 252.062 196.608C252.667 196.291 253.256 195.943 253.826 195.562C252.2 196.04 250.55 196.431 248.87 196.737C248.048 196.887 247.235 196.999 246.424 197.077C244.334 197.284 242.262 197.276 240.122 197.164C239.94 197.153 239.881 196.868 240.075 196.832C241.565 196.567 243.058 196.236 244.544 195.876L244.989 195.767C244.998 195.52 245.095 195.258 245.298 195.008C246.037 194.108 247.442 193.647 248.416 193.011C249.436 192.345 250.425 191.627 251.367 190.857C252.229 190.154 253.057 189.409 253.854 188.632L254.093 188.397C254.013 188.476 253.934 188.554 253.854 188.632C251.703 189.625 249.665 190.9 247.419 191.686C245.634 192.314 243.762 192.736 241.873 192.886L241.756 192.896L241.638 192.903C239.667 193.045 237.683 192.988 235.742 193.415C235.524 193.463 235.457 193.172 235.651 193.089C237.348 192.383 239.112 192.111 240.895 191.781C240.933 191.641 241.03 191.517 241.199 191.436L241.655 191.218C243.014 190.566 244.28 189.907 245.41 188.847C246.407 187.911 247.237 186.816 247.86 185.603C245.365 186.151 243.174 188.042 240.905 189.105C238.433 190.266 235.818 191.098 233.131 191.572L232.824 191.624C227.803 192.462 221.763 192.356 217.264 189.743C217.121 189.659 217.224 189.467 217.372 189.49C218.648 189.699 219.912 189.946 221.175 190.166C220.928 189.94 220.818 189.534 221.103 189.209C222.238 187.908 223.135 186.421 223.709 184.794L223.819 184.476C224.083 183.721 224.529 182.549 224.074 181.869C223.638 181.22 222.614 181.308 222.001 181.583C220.727 182.158 219.88 183.593 218.807 184.46C217.636 185.407 216.305 186.108 214.943 186.736L214.655 186.867C212.298 187.927 209.78 188.82 207.926 190.692C206.929 191.698 206.071 192.956 205.784 194.366C205.653 195.012 205.653 195.678 205.826 196.319C205.964 196.819 206.251 197.128 206.086 197.637C205.871 198.295 205.108 199.081 204.715 199.666C204.259 200.343 203.805 201.021 203.35 201.7C202.444 203.056 201.542 204.418 200.64 205.777C198.836 208.499 197.05 211.234 195.28 213.977C194.704 214.87 194.13 215.764 193.557 216.66L192.7 218.003L192.248 218.711L191.475 219.926C191.503 220.038 191.5 220.157 191.464 220.26C191.333 220.635 191.086 220.892 190.78 221.078L190.725 221.11C186.217 228.239 181.78 235.414 177.299 242.56C177.06 244.741 176.836 246.924 176.642 249.107C176.2 254.049 175.898 259.003 175.801 263.963C175.755 266.364 175.947 268.78 176.05 271.179C176.101 272.324 176.17 273.467 176.261 274.61L176.328 275.421C176.417 276.534 176.468 277.64 176.067 278.701C175.712 279.633 174.631 279.842 173.991 279.132C165.639 278.796 157.281 278.54 148.924 278.382C133.964 278.094 118.998 278.139 104.036 278.428C96.5208 278.574 89.0039 278.779 81.4912 279.033C77.7898 279.155 74.0863 279.329 70.3828 279.379C68.3874 279.406 65.2471 278.68 65.086 276.434L65.0821 276.365C64.8328 276.433 64.575 276.488 64.311 276.528C64.1934 276.546 64.0805 276.541 63.9762 276.517L63.9243 276.503C60.95 277.41 57.1875 276.116 54.3612 275.362L54.1279 275.3C51.43 274.596 49.2624 273.59 47.4941 271.354C44.399 267.438 43.3427 262.179 42.7934 257.333C42.2779 252.772 42.2483 248.127 42.8758 243.575C42.5061 239.865 42.8673 236.038 43.2877 232.35C43.4948 230.526 43.7377 228.704 44.0293 226.89C44.192 225.878 44.4053 224.876 44.623 223.876C44.7098 223.477 44.7822 223.047 44.8923 222.631L44.9419 222.454C44.6039 222.498 44.2342 222.425 43.8772 222.228C43.0279 221.761 42.7807 220.816 42.7659 219.912C42.7194 217.185 43.0448 214.381 43.3321 211.671C43.6215 208.966 44.0187 206.25 44.5384 203.578L44.6729 202.89C45.0667 200.891 45.5173 198.828 46.311 196.95C43.33 196.443 40.3575 195.904 37.4652 194.987C36.054 194.537 34.6638 193.977 33.3371 193.294ZM188.927 221.668C188.881 221.679 188.836 221.691 188.792 221.704C187.6 222.038 186.396 222.321 185.196 222.625C183.122 223.147 181.093 223.731 179.164 224.637C178.76 229.74 178.161 234.825 177.592 239.913L177.479 240.931C178.353 239.307 179.249 237.697 180.185 236.106C183.035 231.255 185.95 226.442 188.927 221.668ZM45.6687 222.173C45.6751 222.78 45.5483 223.41 45.4807 223.993C45.3708 224.94 45.2821 225.891 45.1701 226.838C44.942 228.74 44.7476 230.644 44.6061 232.555C44.5152 233.774 44.4561 234.998 44.4032 236.222C45.6011 231.743 47.1878 227.362 48.6962 222.974C48.4441 222.947 48.1863 222.886 47.9204 222.815L47.4728 222.695C47.2089 222.627 46.3527 222.416 45.6687 222.173ZM192.7 218.003L192.709 218.204C192.741 218.916 192.314 219.318 191.796 219.421C192.096 218.948 192.398 218.475 192.7 218.003ZM55.63 184.246C56.8912 184.358 58.1272 184.627 59.306 185.092L59.4198 185.136C60.2917 185.473 61.5666 185.896 61.8518 186.827C61.9321 187.091 61.7166 187.309 61.4694 187.33C60.5229 187.406 59.4074 186.391 58.5307 186.049C57.5546 185.669 56.5321 185.385 55.4969 185.235C53.1708 184.895 50.7455 185.153 48.5567 186.001C48.4279 186.051 48.3476 185.846 48.4638 185.785C50.6694 184.584 53.1222 184.024 55.63 184.246ZM28.9026 190.291C28.7567 190.162 28.6109 190.027 28.4673 189.892C27.3346 188.82 26.3315 187.569 25.5889 186.194L25.3934 185.822C24.7885 184.65 24.0457 182.981 25.4673 182.137C26.3166 181.632 27.3391 181.759 28.2856 182.065C28.3469 182.084 28.4081 182.105 28.4694 182.126C28.8919 182.275 29.2997 182.452 29.6631 182.621C31.2412 183.346 32.6335 184.401 34.0912 185.331C35.6707 186.339 37.2304 186.983 39.0533 187.361L39.225 187.395C40.9363 187.734 42.7912 187.951 43.9849 189.359C44.2849 189.714 44.0102 190.38 43.4926 190.204C40.1926 189.091 36.7004 188.845 33.6708 187.017C32.4159 186.26 31.2285 185.392 29.9461 184.675C29.2659 184.295 28.5635 183.962 27.815 183.733L27.4061 183.613C27.1666 183.543 26.8807 183.474 26.6884 183.543C26.3224 183.669 26.4392 183.865 26.5525 184.207L26.5638 184.242C27.4532 186.994 29.9884 189.297 32.3377 190.821C32.8764 191.172 33.4278 191.494 33.9898 191.792C37.7938 193.82 42.0501 194.764 46.2305 195.885C46.2305 195.885 48.6476 196.56 49.4483 196.813C50.3399 196.739 51.3561 197.054 52.0279 197.43C52.6807 197.796 53.2068 198.286 53.604 198.863C53.604 198.863 53.9864 199.182 54.0561 199.677C54.2568 200.136 54.392 200.63 54.4596 201.146C54.4976 201.448 54.4216 201.68 54.2779 201.845C54.71 208.48 52.9186 215.078 50.8989 221.383L50.6988 222.005L50.5702 222.399C48.392 229.084 45.8927 235.721 44.7772 242.691C44.0314 247.347 44.0547 252.166 44.6018 256.843L44.6404 257.165C45.1796 261.588 46.2169 266.548 49.0279 270.107C50.4617 271.924 52.1604 272.731 54.3322 273.316L54.4511 273.347C56.4159 273.865 58.4441 274.599 60.4702 274.821C62.3504 275.025 63.9265 274.326 65.6187 273.671L65.6208 273.669C69.1849 270.513 70.8032 265.918 71.999 261.281C75.0983 249.281 74.7138 236.824 72.956 224.648C72.0391 218.286 70.7927 211.98 69.5504 205.675C68.9293 202.524 68.2596 199.379 67.7039 196.217L67.3739 194.356C67.1918 193.323 67.0157 192.288 66.8652 191.248C66.6624 189.851 66.6011 188.478 66.5314 187.072C64.8244 184.242 62.3462 181.911 59.4751 180.239C57.4194 179.041 55.2434 178.21 52.9976 177.608C46.5772 175.877 39.5779 175.999 33.1173 174.668C30.9469 174.221 28.8868 173.558 26.8277 172.763L26.5469 172.654C25.6025 172.286 24.6391 172.081 24.1701 173.195C23.8363 173.987 24.0349 174.812 24.5356 175.477C25.7631 177.109 28.2307 177.866 30.0877 178.453C31.2053 178.808 32.3462 179.089 33.4997 179.299C34.6532 179.508 35.811 179.561 36.918 179.969C37.3448 180.125 37.4293 180.803 36.918 180.924C35.5152 181.251 34.1039 180.97 32.7096 180.698C31.1779 180.395 29.6694 179.966 28.2032 179.423C27.9328 179.324 27.6529 179.218 27.3679 179.107L27.1532 179.022C27.375 179.182 27.5969 179.341 27.8208 179.5C27.88 179.542 27.8441 179.654 27.7659 179.626C24.3184 178.34 21.1816 176.018 18.7516 173.271L18.6307 173.134C17.775 172.153 15.825 169.185 14.1814 170.012C12.6379 170.787 15.269 173.775 16.2688 174.996L16.3849 175.139C17.5216 175.169 18.6223 175.877 19.5434 176.447C21.1427 177.439 22.8138 178.293 24.5166 179.091C27.9011 180.683 31.4948 181.805 34.8434 183.477C34.8878 183.5 34.854 183.557 34.8117 183.551C32.68 183.211 30.5716 182.667 28.5117 181.993L28.4198 181.965L28.3279 181.934C27.0413 181.511 25.7716 181.034 24.523 180.524C23.1349 179.958 21.7786 179.322 20.4624 178.601C19.2709 177.95 17.9483 176.777 16.5666 176.604C16.4187 176.585 16.2878 176.583 16.1737 176.593C14.5871 176.726 15.8991 179.356 16.3427 180.142C17.0674 181.433 17.942 182.625 18.9455 183.714C20.98 185.924 23.4455 187.677 26.1138 189.04C27.0244 189.505 27.9561 189.915 28.9026 190.291Z" fill="black"/>
<path fill-rule="evenodd" clip-rule="evenodd" d="M130.201 50.4504C139.64 50.4504 150.965 55.0377 151.928 55.1295L151.954 55.1308C152.46 55.1308 154.44 56.6427 157.892 59.6664L154.153 66.9778L154.455 67.2675C155.903 68.6593 157.14 69.9279 158.115 70.9279C166.083 79.0933 167.515 111.153 165.637 122.333C163.759 133.513 160.282 144.454 144.091 144.454C127.9 144.454 109.887 134.694 107.113 131.655C105.263 129.629 103.185 128.658 100.879 128.743C100.784 128.623 100.69 128.503 100.597 128.384L100.258 128.336C97.0666 127.872 94.78 127.249 93.3982 126.465C90.699 124.934 87.7323 116.886 87.7323 115.113C87.7323 113.358 83.3023 100.59 83.2137 99.2387L83.2124 99.2013C83.2124 98.0717 77.4251 92.8794 77.4251 91.2304C77.4251 89.5814 76.2585 89.6814 77.4251 83.8707L77.764 82.1636C79.0053 75.9768 81.435 65.7324 90.699 61.2809C100.879 56.3891 120.667 50.4504 130.201 50.4504Z" fill="#D08B5B"/>
<path fill-rule="evenodd" clip-rule="evenodd" d="M156.624 62.2057C153.798 62.2914 150.546 62.4191 147.131 62.6091C141.939 62.898 136.377 63.3304 131.36 63.9783C126.328 64.6281 121.9 65.4877 118.944 66.6121C116.142 67.6784 113.778 70.2775 111.809 73.7332C109.849 77.1733 108.338 81.3604 107.197 85.4392C106.058 89.5127 105.294 93.448 104.815 96.3669C104.576 97.8256 104.408 99.0289 104.3 99.866C104.246 100.284 104.207 100.611 104.182 100.833C104.172 100.913 104.165 100.98 104.16 101.033C104.158 101.052 104.156 101.069 104.154 101.085L104.147 101.147C104.147 101.151 104.147 101.155 104.146 101.158C104.146 101.16 104.146 101.161 104.146 101.163V101.168L104.103 101.588L103.721 101.769L103.711 101.774C103.704 101.778 103.692 101.782 103.677 101.79C103.646 101.805 103.6 101.827 103.54 101.857C103.419 101.917 103.241 102.007 103.013 102.125C102.556 102.361 101.902 102.711 101.115 103.163C99.5406 104.068 97.4454 105.378 95.3545 106.999C94.3111 107.807 93.691 108.395 93.3379 108.812C93.2495 108.917 93.1816 109.005 93.1309 109.078L93.5118 109.098L93.4922 109.829V109.847L93.4912 109.904C93.4911 109.914 93.4908 109.924 93.4906 109.936C93.4896 109.985 93.4883 110.049 93.4873 110.128C93.4849 110.322 93.4828 110.605 93.4844 110.953C93.4877 111.65 93.5054 112.607 93.5635 113.649C93.6217 114.693 93.7201 115.811 93.8819 116.833C94.0456 117.867 94.2673 118.751 94.5498 119.355C94.767 119.819 95.3056 120.278 96.166 120.694C97.0052 121.099 98.0365 121.409 99.0616 121.64C100.081 121.87 101.065 122.016 101.797 122.104C102.162 122.148 102.463 122.178 102.671 122.196C102.775 122.205 102.855 122.211 102.909 122.216C102.921 122.216 102.932 122.217 102.941 122.218C102.953 122.219 102.962 122.22 102.97 122.22L102.984 122.221H102.988L103.51 122.255L103.659 122.756L104.974 127.168L105.015 127.305L105.002 127.448L104.793 129.799C104.323 129.524 103.84 129.306 103.345 129.145L103.495 127.459L102.367 123.672L102.313 123.666C102.12 123.648 101.885 123.626 101.617 123.594C100.853 123.501 99.8155 123.348 98.7315 123.103C97.6528 122.86 96.498 122.52 95.5137 122.045C94.5511 121.58 93.6285 120.926 93.1905 119.99C92.818 119.194 92.5709 118.144 92.4004 117.067C92.228 115.977 92.1263 114.804 92.0664 113.732C92.0065 112.659 91.9878 111.675 91.9844 110.961C91.9833 110.722 91.9849 110.513 91.9862 110.341L91.9864 110.317C91.7292 110.141 91.4671 109.827 91.4746 109.332C91.4821 108.841 91.7655 108.347 92.1924 107.843C92.6416 107.312 93.3535 106.651 94.4356 105.812C96.5965 104.138 98.754 102.791 100.368 101.863C101.176 101.399 101.85 101.038 102.323 100.793C102.467 100.718 102.593 100.654 102.698 100.601C102.724 100.376 102.762 100.063 102.813 99.6736C102.922 98.8219 103.093 97.6022 103.335 96.1248C103.82 93.1709 104.594 89.1786 105.753 85.0359C106.91 80.8986 108.459 76.58 110.505 72.99C112.542 69.4153 115.129 66.4584 118.411 65.2097C121.541 64.0191 126.117 63.1433 131.168 62.491C136.235 61.8367 141.837 61.401 147.048 61.1111C150.815 60.9015 154.383 60.7675 157.403 60.6819L156.624 62.2057Z" fill="#9DDADB"/>
<path fill-rule="evenodd" clip-rule="evenodd" d="M89.1275 61.0512C94.2047 55.6487 123.029 47.2924 137.611 49.0637L138.049 49.1205C139.213 49.2685 140.36 49.4925 141.491 49.7968C145.15 50.6534 148.929 51.9505 151.952 54.117C154.476 55.8894 162.437 58.7839 160.091 63.4205C160.961 65.073 161.286 67.1147 160.698 68.7423C160.624 69.3045 160.451 69.8223 160.23 70.3591C162.088 73.109 163.56 76.2188 164.751 79.1766C166.833 86.6206 168.129 94.3674 168.319 101.962C168.95 116.392 167.372 133.627 154.836 142.958C147.263 148.871 135.4 149.069 126.89 141.738C126.407 141.165 124.136 139.619 124.894 139.348C125.119 139.587 125.351 139.819 125.587 140.048C125.577 140.022 125.574 139.997 125.579 139.969L125.357 139.768C124.939 139.38 124.397 138.817 125.014 138.927C125.041 138.959 125.071 138.987 125.1 139.018C125.231 139.097 125.33 139.165 125.406 139.225L125.446 139.257L125.434 139.244C125.078 138.864 124.865 138.477 125.397 138.724L125.467 138.758C125.703 139.008 125.943 139.247 126.188 139.479C126.184 139.452 126.188 139.424 126.203 139.395L125.975 139.174C125.752 138.955 125.786 138.954 125.895 138.777C125.422 138.113 126.305 138.508 126.367 138.767C126.92 138.636 127.405 139.676 127.761 139.802C143.361 151.826 166.001 141.157 165.634 107.653L165.629 106.998C165.521 96.2844 164.622 85.2732 160.202 75.5752C159.772 74.6411 159.291 73.7323 158.762 72.853C158.397 72.1936 158.007 71.5511 157.588 70.9255C156.413 70.8304 155.254 70.6148 154.111 70.2809C153.719 70.1816 153.331 70.0717 152.944 69.9427C147.277 70.2526 141.736 70.5897 136.053 70.9092L134.278 71.0201C129.464 71.3303 124.486 71.8273 120.601 74.8123C116.789 77.5298 116.772 82.8886 113.509 85.8722C108.856 89.038 108.823 91.8927 107.927 96.5581C107.993 100.075 110.425 105.185 105.962 106.665C106.715 107.741 105.665 107.224 105.582 106.847C105.574 106.849 105.566 106.851 105.559 106.851C106.23 108.101 105.244 107.314 105.157 106.912C105.104 106.897 105.051 106.859 104.998 106.806C105.675 107.902 104.582 107.135 104.646 106.935C103.34 104.922 100.651 104.61 98.7558 105.143C98.7326 105.215 98.6485 105.221 98.5958 105.183C90.5367 106.934 92.616 123.66 100.875 122.043C101.228 121.97 101.22 122.141 101.29 122.157C101.099 121.655 101.637 121.859 101.631 121.965L101.664 121.963C101.69 121.961 101.679 121.958 101.699 121.965C101.514 120.938 102.552 122.425 102.47 122.487C102.502 122.468 102.538 122.457 102.57 122.453L102.534 122.355C102.362 121.895 102.377 122.086 102.378 121.823C102.248 121.497 102.239 121.64 102.269 121.427C102.724 121.074 102.858 122.146 103.01 122.224C102.75 121.861 102.957 121.564 103.202 121.761C105.062 125.684 107.465 129.369 110.57 132.272C110.91 132.54 111.254 132.805 111.61 133.054C112.93 134.207 114.956 134.949 116.193 135.971C116.193 135.988 116.185 136.009 116.172 136.03L116.2 136.055L116.229 136.083L116.659 136.29C116.785 136.398 116.899 136.518 117 136.651C117.108 136.776 117.203 136.913 117.283 137.059C117.323 137.237 117.235 137.311 117.066 137.235C116.992 137.209 116.918 137.18 116.845 137.152C116.849 137.158 116.851 137.163 116.855 137.167C116.879 137.204 117.043 137.584 116.854 137.522L116.832 137.514C116.728 137.476 116.625 137.433 116.524 137.393C116.644 137.543 116.754 137.706 116.851 137.843C116.954 137.951 117.017 138.078 117.043 138.222C117.038 138.302 116.994 138.336 116.914 138.325C116.792 138.285 116.672 138.243 116.551 138.198L116.585 138.264C116.671 138.432 116.791 138.713 116.577 138.619C116.393 138.562 116.216 138.496 116.039 138.424C116.024 138.454 115.995 138.465 115.936 138.437C115.373 138.236 114.829 137.991 114.308 137.702C113.851 137.368 113.389 137.04 112.93 136.708C112.497 136.448 112.08 136.159 111.681 135.833C109.015 134.107 106.681 131.914 104.83 129.472C101.733 132.16 95.5414 129.592 91.7114 127.487C88.3237 125.606 86.9921 122.128 86.6478 118.378C85.9321 113.33 81.8169 111.602 82.1032 100.525C82.0968 100.527 82.0903 100.527 82.0819 100.527C81.9322 100.483 81.7869 100.424 81.6499 100.348C81.5086 100.28 81.3758 100.2 81.2512 100.102L81.0973 99.889C81.0174 99.8446 80.9457 99.7981 80.8909 99.7516L80.8625 99.7883C80.7725 99.8972 80.833 99.7334 80.8382 99.7009L80.5709 99.3364C79.937 98.4687 79.2415 97.4952 78.675 96.7166L78.6571 96.7482C78.6443 96.7721 78.6375 96.7894 78.6436 96.7969C77.2954 94.855 76.0275 92.5095 75.6752 90.2387C75.2592 88.4896 75.4218 86.6872 75.7846 85.067C77.3403 79.3933 82.4363 66.5542 89.1275 61.0512ZM125.715 139.516L125.631 139.44L125.705 139.534C125.744 139.582 125.784 139.625 125.849 139.669C125.844 139.655 125.844 139.64 125.846 139.623C125.803 139.59 125.759 139.554 125.715 139.516ZM137.547 51.9146C127.658 51.0622 117.931 53.2463 108.494 55.8901L107.843 56.0776C102.477 57.6126 96.8036 58.9938 92.269 62.2792C85.9336 67.1438 82.662 74.8826 79.8071 82.0278C77.3141 87.3365 78.5885 93.3225 82.3454 97.0294C82.7363 93.3458 83.4027 89.7699 84.4441 86.2228C84.6615 85.6687 84.497 85.4871 84.9655 85.4149C85.673 94.9738 82.1883 102.036 89.0843 113.365C92.0765 118.711 88.6127 122.622 97.0624 125.435L97.2911 125.522C99.0515 126.188 100.974 126.714 102.698 126.342L102.544 126.09C102.386 125.83 102.338 125.704 102.567 125.593C102.561 125.581 102.553 125.568 102.544 125.553C102.359 125.202 102.18 124.847 102.009 124.488C101.939 124.511 101.87 124.528 101.798 124.547C101.845 124.634 101.851 124.721 101.72 124.75C101.256 124.91 100.779 124.974 100.29 124.944L100.185 124.936C99.6336 124.902 99.286 124.801 98.975 124.708C98.8719 124.691 98.7686 124.674 98.6672 124.653C97.6669 124.431 96.6079 123.865 95.9225 123.304C88.1099 118.856 88.9173 103.713 98.5473 102.281C98.7448 92.747 103.268 76.6616 110.776 67.5763C117.562 59.2193 136.087 55.5971 148.976 56.8743C149.164 56.9367 149.352 56.9997 149.54 57.0633C151.528 57.2404 153.423 58.1285 155.413 58.541C153.985 57.4676 152.364 56.7526 150.694 56.145C147.368 54.1052 143.555 53.0015 139.87 52.2231C139.107 52.035 138.334 51.9315 137.547 51.9146ZM98.1065 109.941C98.6243 109.659 98.565 109.931 98.6842 109.852C102.409 109.547 106.424 112.816 108.506 115.542C108.342 115.713 107.897 115.205 107.819 115.125C107.809 115.136 107.796 115.144 107.783 115.148L107.841 115.23C108.685 116.444 107.012 115.016 106.856 114.722C106.828 114.736 106.801 114.745 106.769 114.738C106.902 114.869 107.307 115.209 107.376 115.451L107.484 115.54C108.496 116.409 108.412 117.063 107.263 115.829C107.29 115.886 107.3 115.939 107.281 115.981L107.321 116.008C107.886 116.404 108.351 117.507 107.17 116.374C107.293 117.202 105.999 115.602 105.958 115.613C103.719 113.852 100.423 112.139 97.6153 111.908L97.5186 111.897C97.0034 111.831 96.7598 111.678 96.9407 111.34C96.3061 111.189 96.4547 110.875 96.7551 110.886C96.3076 110.59 96.7104 110.308 96.9702 110.418C96.7916 109.923 97.5078 110.253 97.5731 110.184C97.9448 109.609 98.0449 110.089 98.1065 109.941ZM90.2998 79.221C92.0886 78.5641 97.3724 80.5305 96.9497 83.1348C96.698 83.7327 95.8686 84.0753 95.2857 83.7378L94.5249 83.2255C93.2009 82.3366 92.0068 81.5571 90.5852 80.7818C89.8115 80.397 89.4784 79.5799 90.2998 79.221ZM100.477 75.3509L99.7863 74.9002C96.0582 72.4541 90.7878 68.7477 100.135 72.5824C101.2 73.0404 102.615 73.3114 103.197 74.3284C104.11 76.2029 101.707 76.3288 100.477 75.3509ZM100.896 64.3757C100.597 63.2376 104.319 64.5731 105.403 64.9252L105.568 64.9877C106.622 65.3815 107.831 65.7468 108.461 66.6587C109.2 67.9188 107.705 68.1798 106.778 67.6106C104.88 66.3666 102.798 65.428 100.896 64.3757ZM110.362 59.074C108.267 56.7802 113.874 58.9776 114.714 59.5876L114.738 59.6056C115.365 60.0479 115.238 61.0007 114.649 61.2805C112.974 61.3124 111.741 59.9124 110.362 59.074ZM119.897 56.5608C116.566 54.1609 120.954 55.3024 122.478 56.2429C123.516 57.1613 122.446 58.7115 119.897 56.5608Z" fill="black"/>
<path fill-rule="evenodd" clip-rule="evenodd" d="M152.125 125.777C153.46 125.466 154.509 126.597 154.247 127.899C153.969 129.278 152.487 129.751 151.244 129.707C149.835 129.659 148.427 129.368 147.012 129.309C145.557 129.249 144.097 129.238 142.641 129.277C141.295 129.314 139.914 129.551 138.578 129.338C138.058 129.255 138.107 128.568 138.445 128.324C139.45 127.599 140.752 127.304 141.937 126.999C143.144 126.689 144.379 126.452 145.617 126.307C146.873 126.16 148.139 126.086 149.403 126.072C149.978 126.065 150.683 126.193 151.244 126.09C151.53 126.037 151.821 125.848 152.125 125.777ZM148.271 107.866C149.866 108.836 152.297 111.098 150.581 113.503C148.56 115.624 145.652 113.193 144.219 112.093C142.889 111.241 141.396 113.433 142.629 114.428C152.986 122.099 157.19 108.12 149.078 106.726C148.184 106.572 147.853 107.566 148.271 107.866ZM136.703 100.622C138.837 100.267 139.21 103.31 137.095 103.523C136.651 103.568 136.21 103.607 135.769 103.645C135.812 103.783 135.841 103.925 135.856 104.071C135.876 104.195 135.891 104.326 135.905 104.476C135.972 105.225 135.441 106.004 134.821 106.367C134.177 106.744 133.252 106.794 132.612 106.367C132.282 106.146 131.952 105.897 131.77 105.533C131.526 105.158 131.393 104.724 131.38 104.279C130.407 104.532 129.416 104.874 128.433 105.055C128.47 105.09 128.505 105.128 128.54 105.17C128.566 105.202 128.53 105.261 128.492 105.232L127.999 105.123C127.847 105.143 127.695 105.159 127.544 105.168L127.548 105.155C127.295 105.151 127.088 104.852 127.314 104.612C128.182 103.694 129.537 103.084 130.772 102.574L131.962 102.086C133.483 101.468 135.089 100.891 136.703 100.622ZM153.87 101.564C155.268 101.404 156.652 101.467 158.052 101.553C160.408 101.696 159.42 105.134 157.529 104.34C157.548 104.466 157.553 104.592 157.539 104.709C157.465 105.313 157.268 105.824 156.714 106.149C156.199 106.45 155.546 106.449 155.031 106.149C154.48 105.827 154.231 105.374 154.09 104.785C153.981 104.328 154.025 103.946 154.088 103.493C154.109 103.344 154.174 103.204 154.265 103.078C154.133 103.045 154.001 103.013 153.869 102.984C152.693 102.716 151.533 102.77 150.36 102.6C150.235 102.582 150.215 102.38 150.325 102.329C151.378 101.834 152.718 101.695 153.87 101.564ZM136.487 90.9473C137.294 90.6394 138.307 91.1515 138.719 91.8559C139.186 92.6552 138.987 93.578 138.41 94.2516C137.525 95.2848 135.84 95.9213 134.598 96.5109L134.499 96.5587C133.223 97.1741 131.913 97.7393 130.585 98.2317C129.28 98.7163 127.921 99.0959 126.567 99.4218C125.853 99.5936 125.124 99.7357 124.395 99.8253C123.819 99.8959 123.375 99.7378 122.824 99.7378C122.743 99.738 122.718 99.6313 122.784 99.5903C123.299 99.2665 123.681 98.8402 124.243 98.5403C124.827 98.2281 125.414 97.9212 126.003 97.6173C127.194 97.0031 128.341 96.3196 129.49 95.6317C130.701 94.9065 131.884 94.1429 133.035 93.3254C134.162 92.5255 135.2 91.4387 136.487 90.9473ZM150.861 90.2896C151.869 90.0941 152.866 90.5709 153.164 91.5979C153.45 92.5817 153.151 92.7926 153.914 93.4966C154.521 94.0577 155.177 94.5585 155.838 95.0516L156.811 95.7755C158.575 97.0811 160.352 98.3156 162.38 99.1965C162.551 99.2709 162.452 99.5256 162.289 99.529C159.067 99.5911 155.976 99.1547 153.067 97.7114C151.709 97.0372 150.343 96.1844 149.556 94.8385C148.644 93.28 148.671 90.7144 150.861 90.2896Z" fill="black"/>
</svg>
