<svg width="240" height="324" viewBox="0 0 240 324" fill="none" xmlns="http://www.w3.org/2000/svg">
<path fill-rule="evenodd" clip-rule="evenodd" d="M198.116 286.283C202.199 286.086 200.557 278.941 200.263 276.317C197.031 266.734 197.791 256.278 196.519 246.233C195.727 236.856 194.71 227.508 193.854 218.138C192.172 199.117 180.099 160.397 166.321 154.17C164.586 146.552 157.417 139.44 148.347 139.44C142.161 132.115 134.716 126.96 125.166 128.001C121.219 128.18 117.392 132.367 113.611 133.176C111.493 133.468 92.7031 132.716 88.9392 134.953C86.3174 136.299 83.9505 138.788 84.7215 141.956C85.9515 145.795 82.129 141.642 74.1551 145.739C57.8953 155.508 67.6115 168.577 68.042 168.982C57.8953 183.105 49.0265 194.563 44.9231 211.825C42.2636 224.641 42.563 237.872 40.3348 250.753C39.548 255.22 38.341 259.534 37.035 263.872C35.6195 269.548 34.9312 283.697 34.151 283.823C32.7298 284.176 34.9724 287.096 36.4783 287.098C78.2298 294.026 120.639 287.385 162.615 286.3C174.445 285.888 186.287 285.793 198.116 286.283Z" fill="#D08B5B"/>
<path fill-rule="evenodd" clip-rule="evenodd" d="M113.663 145.612C113.663 150.057 129.092 166.575 134.417 165.485C137.966 164.759 143.33 160.021 150.507 151.272V145.612L148.957 139.451C157.737 139.76 164.625 146.723 166.321 154.17C179.961 160.335 191.931 198.346 193.8 217.561L193.854 218.138C194.71 227.508 195.727 236.856 196.519 246.233C197.791 256.278 197.031 266.734 200.263 276.317L200.283 276.48C200.62 279.224 202.117 286.09 198.116 286.283C186.287 285.793 174.445 285.888 162.615 286.3C120.639 287.385 78.2298 294.026 36.4783 287.098C34.9724 287.095 32.7298 284.176 34.151 283.823C34.9312 283.697 35.6195 269.548 37.035 263.871L37.3037 262.974C38.5055 258.938 39.6023 254.912 40.3348 250.753C42.563 237.872 42.2636 224.641 44.9231 211.825C49.0265 194.563 57.8953 183.105 68.042 168.982C67.6115 168.577 57.8953 155.508 74.1551 145.738C82.129 141.641 85.9515 145.795 84.7215 141.956C83.9505 138.788 86.3174 136.299 88.9392 134.953C92.7031 132.716 111.493 133.468 113.611 133.176C114.594 132.966 115.581 132.527 116.572 131.989L116.4 132.562C114.575 138.68 113.663 143.03 113.663 145.612Z" fill="#9FD8E5"/>
<path fill-rule="evenodd" clip-rule="evenodd" d="M134.835 170.228C134.854 170.037 135.112 170.038 135.132 170.228L135.427 173.075C135.786 176.552 136.131 180.022 136.381 183.515C136.693 187.87 136.902 192.225 137.002 196.591C137.353 211.794 137.423 227.006 137.452 242.214C139.508 242.072 141.564 241.934 143.621 241.802C145.017 241.712 146.413 241.625 147.809 241.54L151.368 241.324L152.833 241.234C153.824 241.173 154.949 240.923 155.641 241.801C155.918 242.152 156.057 242.609 155.799 243.026C155.203 243.988 154.287 243.954 153.252 243.996C152.275 244.035 151.298 244.074 150.321 244.111C148.228 244.193 146.134 244.269 144.04 244.328C141.843 244.39 139.646 244.44 137.449 244.477C137.427 250.898 137.162 257.31 136.875 263.723L136.745 266.609C136.393 274.413 136.015 282.224 135.479 290.018C135.434 290.656 134.532 290.655 134.488 290.018C133.884 281.241 133.485 272.445 133.089 263.656C132.802 257.283 132.636 250.909 132.556 244.534C132.266 244.536 131.975 244.54 131.685 244.541C123.44 244.577 115.197 244.613 106.952 244.536C106.965 244.552 106.979 244.568 106.988 244.59C107.585 245.999 107.642 247.797 107.627 249.309C107.61 251.044 107.377 252.757 106.978 254.443C105.547 260.486 101.857 265.897 97.6544 270.372L97.5172 270.517C96.5259 271.565 95.3886 272.618 94.78 273.952C94.1582 275.315 93.9425 276.909 93.6357 278.373L93.5998 278.542L92.4003 284.085C92.0191 285.845 91.911 288.413 90.5179 289.683C89.2181 290.868 87.4963 290.249 86.8847 288.723C86.407 287.532 86.8828 286.224 87.1657 285.034L89.3821 275.714C89.7463 274.194 90.1443 272.664 90.9303 271.298C91.7354 269.9 92.9157 268.886 94.1202 267.849C96.4008 265.884 98.4945 263.636 100.265 261.201C102.035 258.767 103.548 256.084 104.609 253.263C105.14 251.851 105.575 250.383 105.875 248.904C106.161 247.501 106.158 246.047 106.463 244.659C106.484 244.563 106.565 244.497 106.658 244.468C106.636 244.406 106.669 244.322 106.756 244.317L113.499 243.883C119.493 243.496 125.487 243.1 131.476 242.646L132.534 242.57C132.452 234.064 132.521 225.557 132.675 217.048C132.816 209.245 132.819 201.44 133.051 193.638C133.166 189.766 133.415 185.903 133.691 182.039C133.975 178.087 134.428 174.168 134.835 170.228ZM71.5198 215.471C71.448 215.038 71.9928 214.769 72.244 215.166C75.1154 219.693 76.4998 224.611 77.0833 229.91C77.5988 234.586 77.4469 239.329 77.1902 244.018C76.9164 249.018 76.597 254.017 76.274 259.015L75.7777 266.679L74.5323 285.893C74.4431 287.267 74.1313 288.517 72.9484 289.156C72.7986 289.281 72.6425 289.393 72.4606 289.491C71.8215 289.832 70.9739 289.66 70.6044 289.004L70.7525 289.101C70.8816 289.182 70.7367 289.069 70.3177 288.761L69.9621 288.301C69.7038 287.912 69.5388 287.53 69.4724 287.069C69.3693 286.351 69.5028 285.564 69.5497 284.843L70.3661 272.244C71.0009 262.449 71.7423 252.657 72.3011 242.858C72.5614 238.29 72.7437 233.719 72.6203 229.143C72.4974 224.593 72.2656 219.966 71.5198 215.471ZM96.3594 131.131L96.5187 131.104C102.222 130.156 108.423 130.334 113.636 133.084C113.679 133.106 113.659 133.178 113.611 133.176L111.933 133.109C106.622 132.901 101.327 132.778 96.1052 134.026L95.5706 134.155C93.69 134.614 91.7261 135.176 90.2155 136.418C88.7717 137.606 88.0528 139.438 87.3615 141.125L87.2691 141.347C86.5677 143.013 85.6799 144.593 84.1426 145.635C82.1514 146.984 79.7567 146.819 77.4735 147.002C73.4535 147.325 70.1669 150.24 68.5316 153.806C67.5414 155.966 67.1191 158.387 67.0354 160.749C66.9926 161.951 66.9864 163.2 67.1466 164.395C67.1977 164.777 67.6697 166.168 67.9103 166.135C68.445 166.06 68.9339 166.339 69.1006 166.767C70.4214 165.49 71.7803 164.251 73.1829 163.055C76.6792 160.077 80.445 157.377 84.4109 155.058C87.4378 153.287 90.6305 151.533 93.9366 150.206C93.6746 150.201 93.4162 150.253 93.1663 150.383C93.0569 150.44 92.9481 150.303 93.0345 150.212C94.0758 149.116 95.3231 148.96 96.5806 149.252C96.8489 149.167 97.1174 149.084 97.387 149.006C97.5212 148.967 97.5879 149.152 97.4785 149.223L97.1696 149.42C98.5414 149.88 99.8882 150.784 100.954 151.497C104.017 153.544 106.713 156.048 109.446 158.504L109.943 158.95C112.349 161.099 114.816 163.187 117.549 164.91C118.98 165.813 120.482 166.647 122.059 167.268C123.411 167.801 125.612 168.136 126.245 169.566C126.808 170.25 126.573 171.122 125.913 171.583C124.802 172.807 122.578 172.016 121.253 171.506C119.656 170.892 118.109 170.153 116.634 169.287C113.769 167.604 111.128 165.513 108.667 163.287C106.098 160.963 103.674 158.495 101.175 156.098C100.092 155.059 99.0338 153.996 97.9493 152.959L97.4045 152.443C96.851 151.924 96.0624 151.114 95.2192 150.624C93.6307 151.572 92.0176 152.481 90.4435 153.454C88.2461 154.811 86.1133 156.266 84.0135 157.769C79.9712 160.663 76.1404 163.904 72.5842 167.377C66.0619 173.748 60.5052 181.023 55.6509 188.725L55.2822 189.312C52.5238 193.721 49.9151 198.272 48.0655 203.144C46.0304 208.505 45.0406 214.142 44.5029 219.833C43.9693 225.483 43.7893 231.161 43.1928 236.806C42.5812 242.595 41.3762 248.256 40.0055 253.907L39.6785 255.246C38.4383 260.307 37.1581 265.368 36.5206 270.548C36.1802 273.315 35.9755 276.12 36.0218 278.909C36.0683 281.715 36.509 284.458 36.8645 287.234C37.0008 288.298 35.9546 289.185 35.0185 289.326C33.9419 289.488 33.0169 288.801 32.6823 287.801C31.639 284.682 31.4495 281.234 31.4823 277.96C31.5152 274.637 31.9393 271.335 32.5359 268.069C33.7093 261.644 35.52 255.353 37.0348 249.005C38.3698 243.41 39.2658 237.805 39.7488 232.074C40.2501 226.127 40.5503 220.161 41.4649 214.257C42.3676 208.429 44.0662 202.862 46.6278 197.548C48.9602 192.709 51.8677 188.155 54.9159 183.74C58.6175 178.38 62.6829 173.279 67.2273 168.631C66.8191 168.613 66.4 168.481 66.015 168.241C64.8374 167.506 64.289 166.069 64.1204 164.757C63.7257 161.686 63.821 158.481 64.6103 155.479C65.8836 150.637 69.1883 146.334 73.9777 144.588C75.2104 144.139 76.5209 143.975 77.8274 143.943C79.0671 143.912 80.4212 144.074 81.6174 143.681C83.5214 143.054 84.3375 140.811 85.0524 139.111L85.0853 139.033C86.002 136.866 87.1023 135.008 89.0878 133.655C91.2061 132.211 93.8602 131.555 96.3594 131.131ZM150.549 139.7C152.263 139.106 154.405 139.646 156.081 140.165C157.949 140.744 159.674 141.811 161.153 143.077C162.714 144.413 164.004 146.062 164.915 147.905L165.002 148.082C165.834 149.792 166.782 152.138 166.363 154.016C166.351 154.069 166.337 154.12 166.321 154.17C169.722 155.844 172.862 157.942 175.596 160.6C178.781 163.696 181.477 167.218 183.759 171.023C192.821 186.136 194.416 204.287 195.486 221.522L195.753 225.892C196.334 235.329 197.014 244.743 198.781 254.049L198.91 254.721C200.798 264.465 203.501 274.283 203.228 284.279C203.145 287.274 198.721 287.253 198.593 284.279C198.11 273.083 195.498 262.273 193.73 251.252C190.618 231.863 192.177 211.873 187.768 192.678C186.038 185.145 183.357 177.838 179.53 171.114C177.639 167.792 175.476 164.582 172.942 161.717C170.762 159.251 168.496 156.878 165.948 154.805C165.134 155.621 163.508 155.205 163.082 154.016C162.79 153.198 162.876 152.243 162.688 151.387C162.514 150.592 162.275 149.805 161.955 149.056C161.318 147.565 160.384 146.133 159.305 144.927C158.139 143.622 156.8 142.538 155.301 141.643C153.791 140.742 152.141 140.473 150.549 139.815C150.495 139.793 150.49 139.721 150.549 139.7ZM157.207 243.324C157.21 243.246 157.303 243.209 157.36 243.261C157.961 243.814 158.324 244.608 158.766 245.289C159.276 246.073 159.811 246.842 160.373 247.59C161.498 249.09 162.751 250.503 164.013 251.888C165.188 253.176 166.439 254.41 167.737 255.573C169.144 256.833 170.72 257.957 171.998 259.353C174.665 262.264 175.096 266.26 175.658 270.012L175.72 270.418C176.063 272.645 176.37 274.878 176.648 277.114C176.782 278.201 176.917 279.29 177.027 280.38L177.06 280.726C177.158 281.793 177.185 282.876 176.572 283.809C175.916 284.807 174.424 285.156 173.538 284.2C172.014 282.556 172.3 279.636 172.102 277.522C171.938 275.773 171.752 274.027 171.544 272.283L171.439 271.411C171.193 269.428 170.994 267.404 170.541 265.455C170.141 263.739 169.379 262.443 168.129 261.199C166.869 259.947 165.56 258.777 164.398 257.428C163.164 255.997 162.052 254.463 161.05 252.862C160.193 251.493 159.506 250.002 158.876 248.513L158.772 248.265C158.163 246.814 157.16 244.924 157.207 243.324ZM179.203 180.967C179.216 180.764 179.515 180.761 179.52 180.967C179.558 182.708 179.594 184.45 179.63 186.192C179.921 200.226 179.742 214.293 181.149 228.279C181.813 234.873 183.035 241.37 184.45 247.841C185.174 251.152 185.933 254.454 186.654 257.766C187.357 260.993 188.111 264.236 188.669 267.493C189.217 270.694 189.708 273.92 189.928 277.162L189.956 277.585C190.05 279.156 190.503 281.466 189.639 282.858C188.702 284.366 186.908 284.393 185.905 282.953C184.962 281.602 185.197 279.197 185.03 277.585C184.861 275.942 184.682 274.298 184.479 272.659C184.082 269.462 183.56 266.272 183.016 263.097C181.885 256.484 180.243 249.955 179.031 243.352C177.79 236.587 176.907 229.774 176.87 222.886C176.833 215.939 177.568 209.007 177.939 202.075C178.316 195.036 178.744 188.001 179.203 180.967ZM112.932 137.316C113.309 136.047 114.638 135.254 115.935 135.61C117.124 135.937 118.105 137.38 117.64 138.614C117.133 139.961 116.247 141.11 115.5 142.334C114.81 143.466 113.803 144.357 113.101 145.468L113.875 146.303C114.263 146.72 114.651 147.134 115.044 147.541L116.395 148.941C117.447 150.029 118.506 151.111 119.595 152.162C122.796 155.251 126.048 158.238 129.633 160.883C130.449 161.485 131.271 162.084 132.117 162.644L132.432 162.853C133.012 163.233 133.659 163.607 134.36 163.542C136.063 163.386 137.601 161.577 138.771 160.451L138.833 160.392C141.732 157.632 144.417 154.615 146.765 151.37C147.286 150.649 147.791 149.916 148.282 149.174C147.147 147.848 147.418 145.259 147.356 143.651C147.311 142.52 147.308 141.388 147.302 140.257L147.299 140.028C147.285 139.296 147.252 138.593 147.727 137.991C147.755 137.956 147.812 137.957 147.847 137.975C148.498 138.316 148.699 138.888 148.977 139.528L149.006 139.595C149.344 140.364 149.667 141.14 149.995 141.914C150.338 142.724 150.652 143.546 150.971 144.365C151.119 144.746 151.26 145.129 151.399 145.514C151.483 145.76 151.57 146.004 151.66 146.248L151.681 146.267C151.799 146.368 151.9 146.474 151.986 146.583C152.349 146.765 152.638 147.096 152.773 147.583C153.068 148.642 152.458 149.505 151.914 150.346C149.704 153.761 147.185 157.016 144.385 159.968C142.994 161.435 141.531 162.836 140.008 164.165L139.741 164.395C138.373 165.572 136.887 166.686 135.06 166.961C132.921 167.283 131.181 166.219 129.544 164.994L129.38 164.871C127.828 163.695 126.308 162.479 124.834 161.206C121.83 158.612 118.973 155.826 116.436 152.769C113.969 149.797 111.53 146.473 110.01 142.895C109.917 142.678 110.161 142.449 110.352 142.631C111.095 143.339 111.809 144.085 112.516 144.84C112.535 143.728 112.33 142.607 112.444 141.488C112.583 140.128 112.543 138.625 112.932 137.316Z" fill="black"/>
<path fill-rule="evenodd" clip-rule="evenodd" d="M161.685 82.2444C161.915 80.1045 159.416 74.3956 159.477 75.5536C155.471 69.3612 147.653 66.9261 140.907 64.8819C126.588 60.143 115.407 65.8661 105.346 76.0095C99.4061 81.5716 93.7544 87.7846 90.7728 95.4844C84.9071 110.173 93.6994 126.921 107.07 133.938C108.149 134.524 109.325 135.08 110.353 135.787C115.88 138.988 122.371 140.096 128.53 141.489C140.052 144.129 154.524 142.871 161.314 131.873C165.92 124.068 164.697 114.606 164.336 105.944C163.795 98.3547 162.844 89.7782 161.685 82.2444Z" fill="#D08B5B"/>
<path fill-rule="evenodd" clip-rule="evenodd" d="M100.094 60.5842C107.559 53.5881 118.593 50.1972 128.681 50.7902C134.145 51.1115 139.411 52.484 144.349 54.842C145.893 55.5794 147.398 56.4426 148.786 57.459C149.722 57.8969 150.637 58.3707 151.524 58.886C155.964 61.4645 159.396 65.37 161.592 70.0028C162.641 72.214 163.469 74.5458 163.937 76.9483L164.013 77.3438C164.252 78.5493 164.725 80.1377 164.127 81.2659C163.73 82.0139 162.9 82.4854 162.113 82.422C162.284 83.1152 162.488 83.8082 162.619 84.5059L162.975 86.4081C163.034 86.7251 163.093 87.0421 163.15 87.3591C163.494 89.2486 163.81 91.1357 164.063 93.04C164.592 97.0052 165.071 100.979 165.493 104.958C165.795 107.804 166.078 110.654 166.353 113.502L166.517 115.211C166.8 118.153 167.021 121.12 166.829 124.075C166.54 128.507 165.18 132.551 162.541 135.841C162.792 136.447 162.877 137.13 163.067 137.883C163.329 138.927 163.67 139.948 164.033 140.961C164.203 141.359 164.373 141.757 164.542 142.156L164.985 143.213L165.33 143.906C165.705 144.66 166.067 145.425 166.297 146.205C167.789 147.003 169.006 148.306 169.066 150.09C169.119 151.703 168.284 153.41 166.874 154.232C165.482 155.044 164.049 154.725 162.717 154.105C161.555 154.444 160.311 154.487 159.16 154.124C158.274 154.928 157.131 155.484 155.864 155.634C153.955 155.861 152.141 155.325 150.389 154.62L150.267 154.571C150.212 154.549 150.157 154.526 150.105 154.503C148.089 154.406 146.082 153.607 144.653 152.191C144.187 151.732 143.784 151.208 143.46 150.62C142.281 148.484 142.098 145.861 143.257 143.741C143.008 143.752 142.758 143.762 142.509 143.769C139.192 143.863 135.869 143.694 132.56 143.475L131.78 143.422C129.639 143.267 126.481 142.904 126.421 140.243C126.412 139.903 126.763 139.647 127.083 139.738C128.299 140.082 129.495 140.624 130.756 140.818C132.404 141.074 134.112 141.101 135.777 141.194L136.256 141.221C139.615 141.405 143.094 141.518 146.399 140.85C148.865 140.353 151.435 139.448 153.695 138.328C155.864 137.25 157.836 135.841 159.425 134C162.927 129.95 163.391 124.238 163.22 119.115C163.013 112.996 162.296 106.886 161.892 100.776L161.709 98.0307C161.558 95.7416 161.42 93.4493 161.363 91.1592C161.32 89.4874 161.348 87.8114 161.356 86.1396C161.36 85.3048 161.35 84.4657 161.369 83.6309C161.38 83.1617 161.434 82.7031 161.474 82.2442C161.289 82.1472 161.116 82.0118 160.96 81.8323C160.838 81.6907 160.743 81.5407 160.677 81.3885C159.891 81.1579 159.526 80.8514 159.016 80.1563C158.586 79.5709 158.099 79.0298 157.578 78.5226C156.469 77.4447 155.202 76.5634 153.864 75.7959C151.096 74.2089 148.064 73.1479 145.007 72.2772C140.327 70.9457 135.465 70.2609 130.715 69.1912C129.406 71.0215 128.019 72.7971 126.569 74.5154C122.042 79.8752 116.852 84.6536 111.29 88.9147C110.158 89.7833 109.011 90.6393 107.848 91.4697C106.315 93.8128 104.766 96.1447 103.193 98.4609L102.518 99.4526L102.508 99.4716C102.415 99.6132 102.326 99.7548 102.238 99.8964C102.05 100.197 101.839 100.486 101.616 100.767C101.47 100.98 101.323 101.194 101.173 101.408C101.46 101.562 101.721 101.735 101.926 101.928C102.343 102.323 102.273 102.95 101.926 103.352C100.804 104.65 99.0289 102.959 97.7387 102.509C96.341 102.935 95.1751 104.603 94.5954 105.877C93.7605 107.714 93.4253 109.929 93.8027 111.918C94.1482 113.735 95.0802 115.306 96.6298 116.291C96.6846 116.324 96.7434 116.361 96.8006 116.392C96.8027 116.397 96.8027 116.397 96.8048 116.394C96.8575 116.428 96.9123 116.46 96.9671 116.49C97.6944 116.891 98.4935 117.128 99.3218 117.185C99.7961 117.219 100.292 117.193 100.766 117.25C101.253 117.307 101.654 117.532 102.122 117.65C102.638 117.783 102.971 118.478 102.646 118.945C102.486 119.176 102.335 119.396 102.172 119.592C102.706 120.222 103.169 120.917 103.589 121.579C104.162 122.485 104.671 123.447 105.134 124.428C105.562 124.992 105.971 125.567 106.368 126.155C108.613 129.49 110.331 133.205 111.387 137.088C112.433 140.928 113.087 145.241 112.119 149.162C111.227 152.768 108.623 155.754 104.77 155.947C103.965 155.986 103.174 155.896 102.431 155.691C100.797 156.703 98.772 157.212 96.9599 157.271C95.4939 157.32 93.8891 157.01 92.6918 156.122C91.2715 156.741 89.7309 157.093 88.3911 157.173C86.8919 157.263 85.323 156.853 84.1009 156.042C82.938 157.04 81.6832 157.883 80.2574 158.462C77.8055 159.455 74.8877 159.332 72.6425 157.847C70.393 156.359 69.2482 153.687 69.9355 151.037C70.568 148.594 72.556 146.801 74.4239 145.258L74.793 144.955C76.6406 143.443 78.5065 141.98 79.6924 139.85C80.951 137.591 81.4106 134.966 81.5349 132.408C81.8048 126.778 80.6621 121.198 80.3143 115.598C79.9559 109.813 80.1562 104.011 80.9425 98.2688C82.471 87.114 86.4935 76.1787 93.771 67.4835C94.8239 66.2254 95.9509 65.0262 97.1387 63.8895C98.0465 62.6992 99.0277 61.5835 100.094 60.5842ZM196.899 124.276C196.939 124.278 196.977 124.28 197.013 124.295C197.037 124.305 197.057 124.321 197.076 124.339L197.253 124.517C197.316 124.58 197.312 124.677 197.253 124.741C197.201 124.798 197.108 124.8 197.047 124.755L197.029 124.741L196.846 124.556C196.826 124.535 196.808 124.511 196.8 124.481C196.791 124.451 196.791 124.417 196.789 124.386C196.787 124.328 196.842 124.276 196.899 124.276ZM97.9853 107.008C99.6761 106.495 101.704 107.716 102.712 109.006C103.218 109.652 103.361 110.538 102.712 111.174C102.16 111.715 101.08 111.814 100.547 111.174C99.9417 110.445 99.4484 109.434 98.584 108.968C97.6459 108.46 96.3894 108.587 96.168 109.823C96.1301 110.033 95.8307 109.963 95.818 109.775C95.7358 108.524 96.83 107.357 97.9853 107.008Z" fill="black"/>
<path fill-rule="evenodd" clip-rule="evenodd" d="M143.152 128.274C141.732 127.695 140.465 126.728 139.538 125.493C139.216 125.063 139.133 124.61 139.2 124.195C139.276 123.729 139.552 123.306 139.928 123.023C140.305 122.739 140.777 122.598 141.233 122.67C141.63 122.732 142.024 122.949 142.337 123.399L142.402 123.489C142.953 124.235 143.67 124.846 144.488 125.241C145.276 125.621 146.158 125.798 147.07 125.695C148.808 125.499 150.005 124.559 151.278 123.282C151.436 123.121 151.594 122.955 151.752 122.786C151.852 122.633 151.991 122.534 152.146 122.483C152.317 122.425 152.511 122.429 152.689 122.491C152.86 122.55 153.013 122.664 153.116 122.815C153.213 122.958 153.269 123.135 153.251 123.339C153.134 124.661 152.443 125.842 151.461 126.769C150.37 127.799 148.924 128.511 147.563 128.761C146.064 129.036 144.536 128.839 143.152 128.274ZM148.271 107.866C149.866 108.836 152.297 111.098 150.581 113.503C148.56 115.624 145.652 113.193 144.218 112.093C142.889 111.241 141.396 113.433 142.629 114.428C152.986 122.099 157.19 108.12 149.077 106.726C148.184 106.572 147.853 107.566 148.271 107.866ZM129.711 98.9429C129.887 96.7541 133.219 96.257 133.551 98.423C133.847 100.363 133.498 102.145 132.624 103.892C131.79 105.561 129.692 104.783 129.533 103.263C129.32 101.226 129.601 100.304 129.711 98.9429ZM155.076 97.9739C155.541 97.3652 156.211 96.9497 157.015 97.1845C159.526 97.9185 158.786 101.485 157.904 103.22C157.425 104.163 155.876 104.402 155.176 103.572C154.035 102.219 153.489 99.5157 154.939 98.1825C154.979 98.1136 155.022 98.044 155.076 97.9739ZM132.589 89.3654L132.986 89.2959C134.213 89.0836 135.738 88.8796 136.606 89.8665C137.067 90.3898 137.225 91.3624 136.606 91.8633C135.518 92.7446 134.314 92.4031 133.01 92.4777C131.935 92.5394 130.902 92.7174 129.867 93.0135C127.595 93.6629 125.744 94.8486 123.804 96.1505C123.549 96.3213 123.29 95.9956 123.411 95.7574C124.531 93.563 126.701 91.7604 128.875 90.6616C130.036 90.0751 131.305 89.5885 132.589 89.3654ZM152.787 88.3823L153.091 88.4445C156.394 89.1353 160.687 90.5153 162.251 93.7615C162.311 94.2205 162.248 94.3189 162.196 94.3832L162.179 94.4046C162.137 94.4595 162.104 94.5351 161.905 94.5976C161.849 94.5845 161.794 94.5705 161.737 94.5557C161.02 94.3677 160.453 94.1087 159.904 93.84L159.308 93.5465C158.617 93.2076 157.92 92.881 157.181 92.6399C155.605 92.1255 153.983 91.7631 152.337 91.5696C151.98 91.5277 151.636 91.4072 151.365 91.2007C151.107 91.0046 150.911 90.7332 150.821 90.3724C150.705 89.9056 150.738 89.5521 150.989 89.1309C151.177 88.8146 151.447 88.5953 151.756 88.4694C152.071 88.3411 152.43 88.3108 152.787 88.3823Z" fill="black"/>
<path fill-rule="evenodd" clip-rule="evenodd" d="M148.851 138.659C148.851 138.659 139.472 140.038 135.275 138.089C131.089 136.147 127.018 134.268 123.222 131.695C119.332 129.059 116.032 125.929 113.677 121.923C111.486 118.195 109.665 114.239 107.831 110.314C107.724 110.085 106.671 107.804 106.299 107.04C105.727 105.854 104.053 106.226 104.053 108.067C104.053 109.907 103.971 123.846 107.187 129.329C110.087 134.281 115.003 137.742 119.888 140.762C125.292 144.101 132.471 147.711 138.919 148.665C144.754 149.528 151.413 147.105 155.639 143.113C160.056 138.938 161.307 133.265 163.587 127.833C164.096 126.619 162.291 125.886 161.761 127.081C160.764 129.329 148.851 138.659 148.851 138.659Z" fill="black"/>
</svg>
