<svg width="240" height="324" viewBox="0 0 240 324" fill="none" xmlns="http://www.w3.org/2000/svg">
<path fill-rule="evenodd" clip-rule="evenodd" d="M188.18 197.386C187.516 195.563 188.485 193.744 189.023 191.98C190.933 185.864 185.709 170.436 182.055 170.21C180.719 166.752 177.152 165.317 174.345 163.325C171.16 161.337 168.062 159.052 164.749 157.309C164.565 155.661 162.568 155.253 161.347 156.431C157.993 154.344 153.971 154.732 150.376 153.364C147.644 148.947 147.439 144.302 146.716 140.041C146.4 138.183 146.735 136.391 145.466 134.735C141.204 128.738 124.363 126.137 118.153 129.691C114.811 127.606 114.73 131.383 114.2 133.714C113.609 134.88 113.29 136.201 113.389 137.592C111.806 140.898 110.465 145.034 107.139 147.504C102.92 150.637 96.4277 151.828 92.3138 153.364C91.3909 152.476 91.1088 151.192 91.1088 151.192C84.7327 152.578 78.5445 155.016 73.2024 158.822C67.1331 160.598 62.8587 165.536 59.7679 170.831C59.4273 171.389 59.347 171.958 59.4465 172.481C49.9418 186.419 45.4055 203.105 44.7683 219.957C38.6561 223.627 47.6734 256.593 49.7726 263.437C49.7747 263.436 49.7768 263.435 49.7789 263.434C51.1408 265.846 52.687 272.729 56.0952 272.196C58.4331 274.841 62.1588 274.321 65.3314 274.524C64.8146 276.507 65.0686 278.775 65.6836 280.735C66.411 283.067 69.9806 283.146 70.4868 280.603C102.081 286.744 134.497 281.845 166.446 282.766C175.684 282.832 184.92 283.118 194.136 283.776C195.433 283.869 196.749 282.542 196.66 281.25C194.679 260.163 192.819 232.423 190.603 211.543C190.078 206.781 189.662 201.967 188.18 197.386Z" fill="#D08B5B"/>
<path fill-rule="evenodd" clip-rule="evenodd" d="M91.1419 151.332C91.1303 151.286 91.1193 151.239 91.1089 151.192C84.7329 152.579 78.5446 155.016 73.2025 158.822C67.1332 160.598 62.8589 165.536 59.768 170.831L59.7268 170.901C59.4211 171.437 59.3513 171.98 59.4467 172.481C49.942 186.419 45.4056 203.105 44.7684 219.957C38.6562 223.627 47.6736 256.593 49.7727 263.437L49.7791 263.434C50.1184 264.035 50.4692 264.914 50.8574 265.886C52.0271 268.816 53.5364 272.596 56.0953 272.196C57.996 274.346 60.814 274.405 63.5063 274.46C64.1256 274.473 64.7382 274.486 65.3315 274.524C64.8148 276.507 65.0687 280.044 65.6837 282.003C66.4111 284.336 167.326 286.236 194.136 283.776C195.43 283.657 196.749 282.542 196.661 281.25C195.828 272.394 195.018 262.365 194.193 252.163C193.054 238.073 191.888 223.654 190.603 211.543C190.553 211.087 190.504 210.631 190.454 210.175C189.988 205.862 189.52 201.528 188.18 197.386C187.65 195.93 188.161 194.477 188.663 193.053C188.789 192.693 188.915 192.336 189.023 191.981C190.933 185.864 186.067 170.473 182.578 170.244L182.055 170.21C181.029 167.554 178.686 166.091 176.383 164.653C175.757 164.262 175.133 163.873 174.54 163.462L174.345 163.326C173.26 162.648 172.184 161.935 171.106 161.222C169.023 159.842 166.932 158.458 164.749 157.309C164.565 155.661 162.568 155.253 161.347 156.431C160.813 156.099 160.263 155.83 159.7 155.606L159.477 158.674C155.669 172.87 145.075 180.769 127.695 182.371C101.624 184.773 89.873 158.635 89.873 155.993C89.873 154.835 90.2557 153.372 91.0211 151.606L91.1419 151.332ZM148.622 199.006C152.506 198.058 157.114 197.057 160.914 196.427C162.817 196.111 164.499 195.891 165.779 195.814C166.421 195.775 166.94 195.774 167.326 195.809C167.678 195.841 167.822 195.896 167.854 195.908C167.857 195.91 167.859 195.91 167.86 195.911C167.861 195.911 167.861 195.91 167.86 195.909C168.44 196.359 168.93 197.013 169.285 197.588C169.459 197.87 169.594 198.122 169.684 198.301L169.698 198.328C169.684 198.366 169.668 198.407 169.651 198.452C169.557 198.692 169.417 199.006 169.228 199.314C168.824 199.974 168.343 200.383 167.801 200.383C167.249 200.383 165.926 200.571 164.344 200.826C162.727 201.087 160.755 201.434 158.846 201.781C156.936 202.128 155.086 202.475 153.714 202.735C153.028 202.865 152.462 202.973 152.066 203.049L151.608 203.137L151.488 203.16L151.457 203.166L151.449 203.168L151.447 203.168L151.447 203.168C151.447 203.168 151.447 203.168 151.589 203.904L151.447 203.168L151.352 203.186L151.265 203.228L147.038 205.253L147.426 206.677L147.362 205.93L147.426 206.677L147.426 206.677L147.427 206.677L147.433 206.676L147.457 206.674L147.55 206.666L147.907 206.637C148.217 206.611 148.666 206.575 149.22 206.531C150.329 206.444 151.858 206.327 153.543 206.211C156.92 205.977 160.892 205.745 163.348 205.745L163.885 205.745C166.352 205.744 169.744 205.743 172.597 205.903C174.134 205.989 175.48 206.12 176.428 206.314C176.831 206.396 177.126 206.483 177.323 206.566C177.208 206.682 177.032 206.822 176.786 206.98C176.227 207.338 175.429 207.71 174.524 208.058C172.714 208.755 170.632 209.3 169.544 209.449C168.352 209.613 165.032 210.279 162.047 210.895C160.546 211.205 159.118 211.505 158.066 211.727C157.539 211.838 157.107 211.93 156.806 211.994L156.457 212.068L156.366 212.087L156.343 212.092L156.337 212.094L156.335 212.094L156.335 212.094C156.335 212.094 156.335 212.094 156.362 212.22L156.335 212.094L156.465 213.577L174.265 214.2C174.292 214.23 174.322 214.262 174.352 214.297C174.516 214.483 174.685 214.708 174.789 214.92C174.873 215.091 174.876 215.174 174.875 215.197C174.846 215.228 174.74 215.311 174.424 215.382C173.259 215.642 170.866 216.163 168.762 216.62C167.71 216.848 166.731 217.06 166.015 217.215L165.162 217.399L164.928 217.45L164.867 217.463L164.852 217.466L164.848 217.467L164.847 217.468L164.847 217.468L165.005 218.201L164.847 217.468L164.414 217.561L164.287 217.984L164.287 217.984L164.287 217.984L164.287 217.984L164.287 217.985L164.285 217.99L164.276 218.019C164.271 218.034 164.264 218.054 164.256 218.078C164.25 218.096 164.243 218.117 164.235 218.141C164.197 218.249 164.138 218.409 164.057 218.606C163.895 219 163.646 219.535 163.302 220.099C162.602 221.245 161.571 222.405 160.166 222.851C158.968 223.23 157.644 223.485 156.345 223.735C155.898 223.821 155.455 223.906 155.021 223.996C154.193 224.167 153.395 224.355 152.724 224.596C152.07 224.831 151.428 225.151 151.013 225.651C150.702 226.024 150.351 226.556 149.991 227.101L149.971 227.132C149.592 227.705 149.184 228.323 148.74 228.911C148.295 229.499 147.831 230.032 147.353 230.44C146.873 230.85 146.417 231.098 145.988 231.179C144.746 231.414 141.026 232.385 137.659 233.285C135.966 233.738 134.349 234.176 133.155 234.501C132.558 234.663 132.067 234.797 131.725 234.891L131.703 234.897C131.606 234.754 131.49 234.578 131.357 234.372C130.965 233.763 130.437 232.898 129.892 231.875C128.794 229.812 127.669 227.179 127.416 224.739C127.151 222.174 127.018 219.727 126.951 217.92C126.918 217.016 126.902 216.274 126.893 215.758C126.891 215.606 126.889 215.474 126.888 215.363L128.856 214.091L128.937 214.038L129.003 213.966L138.138 203.936L138.156 203.918C138.175 203.899 138.206 203.869 138.249 203.828C138.336 203.747 138.474 203.624 138.665 203.468C139.048 203.156 139.645 202.711 140.483 202.206C142.159 201.197 144.802 199.94 148.622 199.006ZM171.226 198.48C171.226 198.479 171.226 198.479 170.504 198.278L171.226 198.479L171.297 198.224L171.192 197.981L170.504 198.278C171.192 197.981 171.192 197.981 171.192 197.981L171.192 197.98L171.192 197.98L171.191 197.978L171.188 197.971L171.179 197.95C171.171 197.933 171.16 197.909 171.146 197.879C171.118 197.818 171.077 197.732 171.024 197.627C170.918 197.416 170.763 197.126 170.561 196.8C170.165 196.159 169.563 195.333 168.779 194.724C168.422 194.447 167.907 194.355 167.461 194.315C166.968 194.271 166.365 194.276 165.689 194.317C164.332 194.398 162.591 194.628 160.669 194.947C156.82 195.586 152.173 196.595 148.266 197.549C144.296 198.519 141.513 199.835 139.709 200.922C138.807 201.465 138.152 201.95 137.717 202.306C137.499 202.483 137.337 202.628 137.226 202.732C137.17 202.783 137.128 202.825 137.098 202.854C137.083 202.869 137.071 202.881 137.062 202.89L137.052 202.901L137.048 202.905L137.047 202.907L137.046 202.907C137.046 202.908 137.045 202.908 137.587 203.419L137.045 202.908L137.036 202.918L127.959 212.884L125.728 214.327L125.385 214.549V214.957H126.135C125.385 214.957 125.385 214.957 125.385 214.957V214.958V214.958V214.961L125.385 214.972L125.385 215.014C125.385 215.05 125.386 215.104 125.386 215.174C125.387 215.315 125.389 215.52 125.394 215.782C125.402 216.307 125.419 217.06 125.452 217.975C125.52 219.804 125.654 222.286 125.924 224.893C126.207 227.624 127.441 230.463 128.568 232.58C129.136 233.647 129.687 234.548 130.096 235.184C130.3 235.502 130.47 235.754 130.589 235.927C130.649 236.014 130.696 236.081 130.729 236.127L130.766 236.18L130.777 236.195L130.78 236.199L130.78 236.2L130.781 236.2C130.781 236.201 130.781 236.201 131.388 235.761L130.781 236.201L131.086 236.622L131.587 236.484L131.388 235.761C131.587 236.484 131.587 236.484 131.587 236.484L131.588 236.484L131.589 236.483L131.596 236.481L131.622 236.474L131.726 236.446L132.121 236.338C132.462 236.244 132.953 236.11 133.549 235.948C134.741 235.623 136.356 235.186 138.046 234.734C141.445 233.826 145.094 232.875 146.267 232.653C147.045 232.506 147.734 232.087 148.326 231.582C148.921 231.074 149.46 230.446 149.936 229.815C150.411 229.187 150.843 228.533 151.216 227.967L151.217 227.967L151.222 227.958C151.609 227.373 151.915 226.911 152.166 226.61C152.317 226.428 152.645 226.218 153.23 226.008C153.797 225.805 154.508 225.634 155.324 225.465C155.714 225.385 156.129 225.305 156.557 225.222L156.557 225.222C157.877 224.968 159.33 224.689 160.619 224.281C162.529 223.676 163.805 222.153 164.582 220.88C164.977 220.234 165.26 219.625 165.444 219.177C165.495 219.054 165.538 218.942 165.575 218.845L166.332 218.681C167.048 218.526 168.028 218.314 169.08 218.086C171.183 217.63 173.581 217.107 174.751 216.845C175.444 216.69 176.026 216.363 176.269 215.758C176.497 215.187 176.314 214.625 176.137 214.262C175.949 213.877 175.681 213.537 175.48 213.307C175.376 213.189 175.282 213.092 175.214 213.023C175.179 212.989 175.151 212.961 175.13 212.942L175.105 212.918L175.098 212.911L175.095 212.909L175.094 212.908L175.093 212.907C175.093 212.907 175.093 212.907 174.588 213.461L175.093 212.907L174.889 212.721L174.614 212.711L162.69 212.294C165.604 211.694 168.662 211.085 169.748 210.935C170.98 210.766 173.176 210.184 175.063 209.458C176.007 209.094 176.912 208.681 177.594 208.244C177.934 208.026 178.25 207.783 178.489 207.514C178.72 207.253 178.95 206.887 178.95 206.437C178.95 205.787 178.421 205.436 178.105 205.276C177.735 205.088 177.252 204.951 176.729 204.844C175.669 204.627 174.234 204.492 172.68 204.405C169.783 204.243 166.35 204.244 163.891 204.245H163.891L163.348 204.245C160.833 204.245 156.812 204.481 153.439 204.714C152.694 204.766 151.979 204.817 151.317 204.866L151.826 204.623L151.892 204.61L152.349 204.522C152.743 204.446 153.309 204.338 153.994 204.208C155.363 203.949 157.209 203.603 159.114 203.257C161.019 202.911 162.981 202.565 164.583 202.307C166.22 202.043 167.399 201.883 167.801 201.883C169.166 201.883 170.037 200.865 170.507 200.097C170.756 199.691 170.933 199.291 171.048 198.996C171.106 198.848 171.15 198.723 171.179 198.633C171.188 198.605 171.196 198.581 171.202 198.56C171.206 198.547 171.21 198.536 171.212 198.526L171.222 198.494L171.225 198.485L171.226 198.481L171.226 198.48L171.226 198.48ZM177.542 206.685C177.541 206.685 177.536 206.681 177.528 206.673C177.538 206.68 177.542 206.684 177.542 206.685ZM174.884 215.185C174.884 215.186 174.883 215.188 174.88 215.191C174.882 215.187 174.884 215.185 174.884 215.185Z" fill="#FFCF77"/>
<path fill-rule="evenodd" clip-rule="evenodd" d="M156.612 195.668L165.898 174.625C165.898 174.625 167.301 171.05 169.684 171.05C172.066 171.05 193.671 171.727 193.671 171.727C193.671 171.727 198.092 172.291 196.665 174.625C195.237 176.96 174.008 220.395 174.008 220.395H165.005V218.201L175.029 215.397C175.029 215.397 176.853 213.461 174.008 213.461C171.164 213.461 154.615 212.827 154.615 212.827L170.395 210.511L178.2 207.508L177.052 205.929L170.395 204.978L148.714 205.929L154.615 203.933L167.801 201.133C167.801 201.133 170.395 199.306 170.395 197.514C170.395 195.723 163.447 195.034 163.447 195.034L156.612 195.668Z" fill="white"/>
<path fill-rule="evenodd" clip-rule="evenodd" d="M114.721 130.993C114.811 130.745 115.181 130.778 115.188 131.056C115.333 136.985 113.858 144.23 109.115 148.235C106.681 150.291 103.462 151.232 100.506 152.313L100.173 152.436L94.9506 154.382C93.5655 154.898 92.0715 155.692 90.848 154.963C91.838 157.419 92.6691 159.942 93.8748 162.309C95.3757 165.256 97.1903 167.951 99.4111 170.403C108.21 180.117 122.134 183.08 134.63 180.234C141.065 178.768 147.326 175.99 151.716 170.924C155.052 167.073 156.969 161.905 157.421 156.807C157.289 156.828 157.15 156.827 157.008 156.796C155.427 156.451 153.831 155.603 152.44 154.772L152.306 154.692C150.967 153.885 149.572 152.962 148.611 151.709C147.657 150.465 146.656 146.408 146.656 146.408C146.383 144.883 146.127 141.845 146.171 140.304C146.175 140.159 146.82 140.073 146.889 140.224C147.485 141.532 147.678 144.408 148.138 145.769L148.231 146.041C148.722 147.464 149.143 149.195 150.162 150.345C152.074 152.504 154.959 153.418 157.534 154.5C157.719 152.06 161.615 152.117 161.565 154.662C161.562 154.8 161.556 154.938 161.551 155.075C161.859 155.244 162.154 155.437 162.43 155.624L162.7 155.807C163.72 156.501 164.748 157.161 165.834 157.749C167.937 158.89 170.163 159.794 172.317 160.828C174.497 161.876 176.535 163.123 178.439 164.617C179.333 165.318 180.19 166.064 181.003 166.858L181.223 167.076C181.997 167.847 183.004 168.709 183.445 169.722C183.542 169.945 184.029 170.465 184.293 170.482C188.387 170.751 192.472 171.13 196.54 171.698C197.593 171.845 198.009 172.388 197.62 173.266C196.282 176.284 191.045 188.336 189.652 191.57C189.815 193.946 189.595 196.743 189.742 199.12C189.956 202.588 190.237 206.055 190.574 209.513C191.778 221.885 193.603 234.197 195.253 246.515C196.079 252.679 196.831 258.853 197.574 265.028C197.949 268.149 198.268 271.272 198.513 274.406C198.615 275.712 198.708 277.019 198.789 278.326L198.86 279.486C198.957 280.945 199.18 282.338 198.277 283.591C197.868 284.159 196.934 284.479 196.395 283.833C195.719 283.022 195.468 282.416 195.403 281.35C195.353 280.534 195.342 279.715 195.304 278.898C195.224 277.128 195.123 275.358 195.005 273.59C194.769 270.055 194.499 266.521 194.187 262.991C193.094 250.616 191.015 238.334 189.632 225.989C188.935 219.766 188.439 213.531 188.177 207.273C188.046 204.148 187.999 201.023 188.029 197.896C188.041 196.727 188.096 195.564 188.176 194.404C186.104 199.113 183.926 203.777 181.649 208.378L181.109 209.468C179.665 212.377 178.183 215.296 176.449 218.038L176.151 218.506C175.448 219.62 174.488 221.376 173.206 221.727C172.314 221.972 171.223 221.8 170.308 221.782C169.399 221.765 168.49 221.761 167.583 221.724C166.564 221.683 165.593 221.549 164.609 221.284C164.446 221.24 164.291 221.192 164.15 221.131C163.159 222.754 161.475 223.99 159.753 224.71C158.373 225.287 156.928 225.682 155.479 226.048L154.968 226.177C153.416 226.563 151.64 226.747 150.765 228.247L150.561 228.595C149.91 229.701 149.286 230.673 148.208 231.466C147.049 232.32 145.675 232.857 144.306 233.275C142.905 233.703 141.471 234.03 140.048 234.381L139.66 234.478C138.721 234.713 137.773 234.929 136.84 235.184C136.441 235.294 136.036 235.406 135.645 235.54C135.187 235.698 134.855 235.943 134.494 236.21C134.169 237.344 132.782 237.96 131.642 237.881C131.043 237.84 130.506 237.637 130.017 237.339C129.164 238.065 128.224 238.716 127.354 239.389C126.136 240.332 124.913 241.268 123.684 242.195C121.149 244.107 118.594 245.993 116.013 247.842C111.432 251.125 106.751 254.257 101.991 257.273C100.006 258.53 98.0079 259.786 95.9901 261.011L96.2054 261.091L96.6325 261.252C97.6422 261.629 98.7672 262.239 98.9628 263.417C99.1179 264.352 98.596 264.996 97.6736 265.11C96.5774 265.245 95.7243 264.471 95.0417 263.731C94.7404 263.405 94.4032 263.102 94.1146 262.766C93.997 262.629 93.9065 262.471 93.8269 262.305C91.8356 263.479 89.823 264.613 87.7786 265.674L87.2668 265.938C82.197 268.531 77.2624 271.372 72.1496 273.892C70.8158 274.55 69.1897 275.26 67.4947 275.746C67.9445 277.49 67.9375 279.405 67.9489 281.175C67.9597 282.9 65.2194 282.892 65.2772 281.175L65.3051 280.346C65.355 278.951 65.4365 277.504 65.7672 276.148C60.7731 276.976 55.7841 275.176 54.8552 274.635C53.8299 274.038 52.8993 273.084 52.1248 272.199C50.4674 270.303 49.3172 268.032 48.2968 265.747C46.111 260.853 44.5624 255.621 43.4303 250.389C39.2563 231.1 41.0516 210.455 47.8301 191.965C49.5236 187.345 51.5231 182.827 53.8143 178.473L54.0988 177.934C56.3851 173.628 58.9262 169.338 62.1541 165.674C65.5162 161.857 69.6636 158.889 74.1792 156.585C76.3829 155.46 78.6505 154.486 80.9681 153.622C81.3403 153.483 81.7151 153.359 82.0908 153.24C84.506 151.7 87.4371 150.226 90.3693 150.284C90.5685 150.288 90.7299 150.363 90.8503 150.477C90.9917 150.502 91.133 150.532 91.2746 150.573C91.587 150.664 91.917 151.007 91.8722 151.359L91.857 151.476C91.8488 151.533 91.8384 151.588 91.8205 151.642C91.9253 151.658 92.0282 151.683 92.1289 151.717C94.9344 150.924 97.6946 149.712 100.432 148.735L101.056 148.514C103.348 147.711 105.701 146.923 107.582 145.332C109.453 143.749 110.86 141.699 111.877 139.483C113.13 136.753 113.692 133.796 114.721 130.993ZM170.888 274.99C171.444 274.577 172.1 275.056 172.308 275.568C172.991 277.247 172.654 279.856 171.692 281.341C170.695 282.879 168.309 282.272 168.251 280.409C168.191 278.466 169.32 276.158 170.888 274.99ZM176.625 228.622C176.675 228.404 177.014 228.406 177.065 228.622C177.527 230.593 177.517 232.715 177.652 234.735L177.668 234.959C177.831 237.187 177.968 239.421 178.065 241.652C178.257 246.043 178.486 250.434 178.743 254.822C178.87 256.997 179.007 259.173 179.152 261.347C179.608 261.093 180.078 260.87 180.565 260.673C181.294 260.378 182.004 260.344 182.788 260.352C183.742 260.362 184.46 261.202 184.334 262.137C184.196 263.155 183.3 263.592 182.369 263.447C181.338 263.285 180.303 263.035 179.262 262.931C179.378 264.613 179.497 266.294 179.624 267.974C179.793 270.199 180.012 272.42 180.167 274.646C180.181 274.858 180.197 275.07 180.213 275.284C180.834 274.961 181.493 274.795 182.24 274.592L182.435 274.537C183.519 274.226 184.68 273.795 185.684 274.524C186.358 275.015 186.493 275.822 185.934 276.469C185.087 277.451 183.832 277.261 182.662 277.21L182.032 277.187C181.438 277.164 180.891 277.126 180.342 276.976C180.443 278.426 180.496 279.881 180.318 281.31C180.222 282.082 179.206 282.284 178.937 281.496C178.234 279.438 178.089 277.218 177.832 275.062C177.592 273.049 177.446 271.02 177.289 268.998L177.241 268.391C176.888 263.941 176.605 259.489 176.398 255.031C176.191 250.572 176.067 246.115 176.018 241.652C175.995 239.626 176.029 237.592 176.108 235.566L176.133 234.959C176.224 232.875 176.161 230.664 176.625 228.622ZM83.7896 275.318C83.8166 275.034 84.0446 274.68 84.3837 274.724C84.6961 274.765 85.0181 274.745 85.3272 274.797C85.7352 274.864 86.0635 275.106 86.4429 275.257C87.0596 275.504 87.7319 275.631 88.3646 275.833C89.5517 276.212 90.1986 277.462 89.707 278.63C89.19 279.857 87.8909 280.136 86.7685 279.621C85.8837 279.215 85.2242 278.566 84.6293 277.815L84.4607 277.601C84.2044 277.278 83.9134 276.918 83.8059 276.528C83.7013 276.147 83.7528 275.706 83.7896 275.318ZM141.465 269.549C142.944 269.34 144.207 269.846 145.575 270.323L145.686 270.361C147.079 270.842 149.11 271.175 149.824 272.601C150.255 273.46 149.92 274.602 148.907 274.857C147.302 275.259 145.863 274.086 144.536 273.296L144.467 273.255C143.186 272.504 141.864 271.873 141.046 270.579C140.828 270.234 141.017 269.612 141.465 269.549ZM89.8486 151.913C89.2562 152.045 88.6638 152.163 88.0721 152.275C85.821 153.482 83.6361 154.735 81.3119 155.81C78.846 156.951 76.3892 158.13 74.0469 159.51C69.3147 162.299 65.4136 165.925 62.1901 170.369C56.6219 178.047 52.48 186.9 49.5157 195.884C48.7541 198.192 48.0726 200.526 47.4696 202.879C48.5357 201.893 49.7978 201.286 51.2131 200.767C51.8129 200.547 52.5595 200.92 52.8635 201.439C53.0002 201.672 53.0773 201.903 53.0631 202.177C53.0317 202.781 52.6387 203.467 51.9901 203.587C50.4781 203.866 49.0079 204.408 47.5499 204.886C47.3289 204.958 47.139 204.931 46.9873 204.846C45.5399 210.979 44.6344 217.238 44.3137 223.535C44.0424 228.866 44.2098 234.239 44.8 239.563C45.2536 239.359 45.6973 239.168 46.1946 239.052C46.8396 238.902 47.4741 238.719 48.1032 238.513C49.9188 237.917 50.747 240.916 48.8912 241.373C48.2006 241.543 47.5057 241.684 46.802 241.788C46.1887 241.878 45.6462 241.838 45.0679 241.744C45.5097 245.065 46.1131 248.362 46.8817 251.613L47.0513 252.324C48.0496 256.475 49.2132 260.665 50.896 264.589C51.7214 266.513 52.8143 268.341 54.1636 269.945C54.8266 270.734 55.5624 271.411 56.3648 272.052C57.0329 272.585 59.3036 273.742 61.993 273.742C64.6823 273.742 65.4104 273.488 66.7672 273.021C69.4505 272.097 71.9982 270.622 74.5147 269.308L74.7749 269.173C75.8876 268.597 76.9962 268.012 78.1017 267.423C77.9621 266.295 78.2065 265.348 78.7938 264.307C79.4287 263.18 81.0018 263.741 81.1187 264.894L81.1224 264.938C81.1402 265.197 81.1837 265.462 81.2378 265.726C88.6303 261.675 95.8662 257.34 102.987 252.823C107.574 249.914 112.112 246.917 116.583 243.833C118.819 242.291 121.035 240.721 123.229 239.121C124.378 238.283 125.522 237.438 126.661 236.585C127.135 236.23 127.6 235.857 128.076 235.5C127.96 235.356 127.848 235.212 127.739 235.069C125.964 232.744 124.812 229.973 124.238 227.114C123.892 225.389 123.724 223.598 123.673 221.839L123.651 221.074C123.616 219.786 123.607 218.437 123.844 217.189C123.521 217.366 123.191 217.541 122.862 217.727C121.682 218.396 120.5 219.063 119.317 219.728C116.948 221.057 114.571 222.372 112.164 223.633C107.865 225.886 103.524 228.029 99.0658 229.95L96.8965 230.885C93.1314 232.506 89.3356 234.096 85.4211 235.301C83.2131 235.98 79.9025 236.82 77.6628 237.339C77.6628 237.339 80.362 239.883 78.4086 240.758C76.4552 241.633 74.8369 238.276 74.7725 237.972C73.7408 238.188 70.7946 238.71 70.7946 238.71C67.9948 239.25 65.2802 240.321 62.7777 241.691C61.9077 242.167 61.6653 241.242 62.5871 240.597C65.2823 238.712 68.4262 237.646 71.6701 236.75L71.8294 236.707C73.0195 236.381 74.2074 236.041 75.3929 235.689C75.2625 235.217 75.1873 234.727 75.2023 234.188C75.2357 232.985 75.3419 231.779 75.4057 230.577C75.5397 228.055 75.7106 225.541 75.9109 223.024C75.9878 222.055 76.074 221.082 76.1726 220.111C75.537 219.77 74.9887 219.317 74.28 219.094L74.1603 219.06C73.4023 218.855 73.6581 217.878 74.3315 217.794C74.9414 217.719 75.5484 217.754 76.1496 217.883C76.2428 217.903 76.3309 217.926 76.415 217.951C76.5255 217.051 76.648 216.154 76.7872 215.261C77.1555 212.903 77.416 210.418 78.1824 208.152C78.2393 207.985 78.4884 207.925 78.5807 208.1C79.6957 210.222 79.7345 212.826 79.8602 215.189L79.8757 215.471C80.0238 218.049 80.0323 220.652 79.9846 223.234C79.9355 225.894 79.8445 228.548 79.7251 231.206C79.6772 232.277 79.6791 233.387 79.4967 234.411C86.1322 232.253 92.6505 229.67 98.8983 226.611C103.306 224.454 107.675 222.21 111.994 219.882C114.158 218.716 116.333 217.569 118.495 216.398C119.252 215.988 120.009 215.576 120.766 215.164L121.9 214.545C122.962 213.965 123.848 213.388 125.085 213.348C125.454 213.336 125.784 213.508 126.019 213.77C126.684 213.298 127.452 213.009 128.258 213.016C129.472 211.339 130.704 209.676 131.985 208.049L132.931 206.844C134.57 204.766 136.305 202.656 138.394 201.074C139.326 200.369 140.352 199.839 141.421 199.402C141.169 199.34 140.923 199.216 140.704 199.013C139.682 198.065 139.541 196.305 139.334 194.983C139.119 193.612 139.202 192.385 139.414 191.018C139.497 190.487 140.376 190.377 140.591 190.865C141.043 191.893 141.522 192.879 141.934 193.919L142.055 194.233C142.497 195.404 143.438 196.635 143.376 197.905C143.359 198.254 143.242 198.557 143.062 198.801C143.96 198.503 144.871 198.237 145.767 197.959C148.589 197.087 151.422 196.239 154.298 195.563C155.064 195.383 155.833 195.215 156.606 195.062C157.01 193.14 157.6 191.253 158.296 189.4C157.637 189.062 157.211 188.496 156.644 187.993C156.113 187.522 155.749 186.948 155.296 186.407C154.884 185.915 155.115 185.025 155.856 185.054L156.066 185.063C156.833 185.099 157.576 185.178 158.272 185.536L158.52 185.664C158.86 185.841 159.232 186.043 159.564 186.282C159.997 185.285 160.447 184.297 160.903 183.319L161.494 182.055C163.026 178.763 164.554 175.347 166.478 172.282C167.333 170.92 168.471 170.069 170.104 169.938C171.786 169.802 173.535 169.977 175.22 170.037C177.173 170.107 179.125 170.19 181.075 170.293C180.575 169.769 180.119 169.186 179.617 168.683C178.783 167.849 177.902 167.058 176.977 166.328C175.144 164.882 173.13 163.691 171.037 162.665C168.944 161.639 166.79 160.744 164.825 159.476C163.581 158.674 162.47 157.665 161.456 156.573C160.818 163.46 157.493 169.86 152.499 174.668C147.311 179.661 140.142 182.404 133.128 183.571C125.975 184.761 118.509 184.324 111.666 181.837C108.137 180.554 104.753 178.722 101.735 176.423C101.702 176.623 101.662 176.821 101.584 177.007C101.479 177.256 101.35 177.469 101.202 177.688L100.939 178.073C100.773 178.315 100.604 178.555 100.416 178.779C99.9597 179.323 99.3134 179.561 98.6173 179.558C97.2844 179.554 96.275 178.246 96.6337 176.953C96.8591 176.141 97.3415 175.652 98.0944 175.333C98.3324 175.233 98.575 175.149 98.8189 175.066L99.002 175.004C99.2486 174.919 99.4932 174.839 99.7469 174.792C98.3179 173.53 96.992 172.158 95.8047 170.677C92.0807 166.034 88.4076 159.53 89.6526 153.363C89.6741 153.258 89.7694 153.191 89.8721 153.174C89.9443 152.741 90.1746 152.323 90.49 152.041C90.2777 151.985 90.0637 151.942 89.8486 151.913ZM128.519 258.538C129.256 258.127 130.018 259.102 129.419 259.704L128.524 260.6C127.693 261.435 126.885 262.279 126.174 263.23L126.002 263.463C125.042 264.769 124.019 266.282 122.447 266.77C120.545 267.361 118.717 265.043 119.819 263.35C120.781 261.871 122.633 261.313 124.23 260.701C125.741 260.122 127.106 259.323 128.519 258.538ZM67.1662 251.71C67.5995 251.143 68.7294 251.442 68.4334 252.245C67.4719 254.852 67.08 258.408 64.6517 260.141C63.8683 260.699 62.6377 260.443 61.9927 259.797C61.2598 259.064 61.2304 258.032 61.6496 257.137C62.1608 256.046 63.4181 255.255 64.2995 254.424L64.3785 254.348C65.3267 253.427 66.3522 252.776 67.1662 251.71ZM168.656 254.712C169.43 254.378 171.446 253.73 172.043 254.497C172.071 254.525 172.095 254.556 172.114 254.59C172.26 254.845 172.282 255.204 172.114 255.456C171.418 256.503 170.693 257.284 169.703 258.029L169.592 258.112C168.515 258.904 167.502 259.835 166.19 260.192C164.37 260.688 163.099 258.408 164.377 257.078C165.406 256.005 166.978 255.449 168.342 254.851L168.656 254.712ZM95.5824 239.812C95.278 239.261 95.9 238.586 96.4632 238.93C98.0699 239.913 99.9415 240.65 101.746 241.179C102.476 241.393 103.135 242.134 103.081 242.933L103.073 243.054C103.051 243.336 103.012 243.617 102.833 243.851C102.204 244.674 101.305 244.991 100.345 244.504C98.2051 243.419 96.7404 241.905 95.5824 239.812ZM142.542 238.145C142.503 237.913 142.673 237.735 142.908 237.78C144.266 238.037 145.52 238.693 146.686 239.447C147.311 239.852 147.914 240.296 148.538 240.704C149.309 241.209 149.597 241.625 149.711 242.551C149.786 243.162 149.216 243.72 148.693 243.888C147.268 244.348 145.635 242.84 144.67 241.859L144.626 241.815C143.616 240.785 142.782 239.566 142.542 238.145ZM183.324 236.544C183.015 235.708 184.081 235.014 184.779 235.425C185.436 235.812 186.148 236.132 186.768 236.575C187.337 236.983 187.857 237.465 188.403 237.907L188.672 238.12C189.674 238.926 191.327 240.917 189.895 242.073C188.532 243.172 186.725 241.768 185.811 240.741L185.747 240.669C185.221 240.06 184.572 239.4 184.19 238.689C183.831 238.021 183.587 237.254 183.324 236.544ZM169.885 171.818C168.178 172.15 167.482 174.257 166.763 175.631C165.067 178.873 163.507 182.175 161.94 185.481C161.458 186.497 160.988 187.522 160.515 188.545C160.486 188.625 160.448 188.704 160.405 188.782C159.434 190.873 158.434 192.95 157.266 194.935C158.335 194.734 159.41 194.563 160.489 194.429C160.435 193.413 161.13 192.053 161.474 191.197L161.503 191.125C161.932 190.028 162.382 188.301 163.486 187.732C163.854 187.543 164.248 187.78 164.276 188.186C164.36 189.392 163.18 190.774 162.603 191.798C162.254 192.418 161.914 193.04 161.583 193.669C161.459 193.905 161.355 194.136 161.228 194.344C161.784 194.283 162.341 194.23 162.9 194.191L163.264 194.166C165.335 194.029 167.534 193.99 169.405 195.012C171.141 195.959 172.029 197.982 171.075 199.824C169.887 202.119 167.271 202.423 164.97 202.609C162.096 202.84 159.216 203.259 156.363 203.667C153.411 204.09 150.632 205.178 147.724 205.738C147.454 205.79 147.286 205.436 147.534 205.285C149.827 203.888 152.615 203.12 155.179 202.337L155.387 202.273C156.777 201.846 158.137 201.358 159.576 201.115C160.972 200.88 162.378 200.69 163.786 200.545L163.923 200.532C165.474 200.402 169.431 200.446 169.264 198.149C169.153 196.628 166.683 196.366 165.555 196.348C160.384 196.265 155.176 197.638 150.263 199.109L149.166 199.438C147.153 200.044 145.139 200.667 143.164 201.377C140.927 202.181 139.164 203.435 137.535 205.152C135.728 207.056 133.978 209.002 132.104 210.842C130.922 212.001 129.725 213.14 128.519 214.27C128.246 214.623 128.028 215.007 127.877 215.505C127.622 216.347 127.681 217.129 127.777 217.993C128.02 220.176 128.074 222.382 128.378 224.558C128.66 226.575 129.055 228.665 129.892 230.535C130.223 231.275 130.654 232.003 131.146 232.653L131.542 233.169C131.715 233.393 131.908 233.638 132.111 233.868C132.409 233.505 132.84 233.268 133.341 233.328C134.405 233.453 135.242 233.423 136.286 233.178C137.095 232.989 137.897 232.767 138.701 232.562C140.281 232.159 141.876 231.792 143.44 231.329L143.709 231.248C144.875 230.89 146.041 230.442 147.011 229.689C148.138 228.815 148.485 227.553 149.32 226.461C151.102 224.131 154.954 224.18 157.563 223.542C159.779 223 161.913 222.144 163.447 220.535L163.536 220.439C163.468 220.152 163.578 219.828 163.845 219.679L163.903 219.647C164.007 219.589 164.119 219.565 164.229 219.567C164.371 219.358 164.509 219.142 164.633 218.912C164.736 218.722 164.993 218.862 164.959 219.049C164.939 219.161 164.911 219.27 164.885 219.379C166.371 218.997 168.003 219.07 169.511 219.071L171.469 219.064C171.808 219.06 172.313 219.043 172.358 219.022L172.404 219.002C172.526 218.949 172.353 219.036 172.438 218.923C172.532 218.798 172.624 218.672 172.715 218.544C173.04 218.09 173.347 217.622 173.647 217.15C170.369 217.986 166.972 218.506 163.625 218.939C160.033 219.405 156.394 219.728 152.771 219.731C151.772 219.732 151.781 218.223 152.771 218.186C156.608 218.039 160.425 217.836 164.236 217.344C166.207 217.089 168.169 216.77 170.121 216.396C170.875 216.252 171.626 216.099 172.376 215.938L172.938 215.815C173.291 215.737 174.287 215.625 174.773 215.299C174.869 215.135 174.964 214.971 175.059 214.807C175.012 214.231 173.549 214.308 173.205 214.307C172.233 214.305 171.259 214.313 170.286 214.316C168.34 214.321 166.395 214.304 164.448 214.289C160.56 214.257 156.657 214.121 152.772 214.287C151.829 214.328 151.334 212.815 152.266 212.417C156.381 210.659 160.949 210.277 165.343 209.737C167.654 209.453 169.965 209.125 172.224 208.55L172.783 208.408C174.202 208.044 175.769 207.6 176.964 206.733C175.168 206.006 172.935 206.089 171.074 205.986L170.931 205.978C168.324 205.818 165.713 205.736 163.101 205.732C157.757 205.725 152.412 205.914 147.074 206.168C146.94 206.174 146.912 205.962 147.042 205.934C152.529 204.737 158.105 204.16 163.72 204.071C166.334 204.029 168.95 204.066 171.563 204.182L172.522 204.226C174.749 204.322 177.221 204.348 179.085 205.694C179.369 205.899 179.519 206.161 179.542 206.438C182.042 201.454 184.35 196.365 186.668 191.31C188.47 187.38 190.205 183.417 192.072 179.517L192.677 178.256C193.486 176.572 194.316 174.889 195.237 173.266C191.793 172.806 188.33 172.486 184.865 172.241C181.707 172.018 171.405 171.524 169.885 171.818ZM168.36 225.839C168.752 225.62 169.354 225.798 169.451 226.283C169.523 226.643 169.646 227.044 169.646 227.413C169.646 227.855 169.488 228.335 169.404 228.768C169.21 229.763 168.971 230.571 168.466 231.457C168.149 232.011 167.511 232.387 166.869 232.373C166.361 232.361 165.91 232.225 165.561 231.831C165.144 231.359 164.857 230.666 165.086 230.031C165.686 228.368 166.79 226.711 168.36 225.839ZM85.0576 224.179C85.9766 222.569 88.155 221.13 90.056 221.272C92.9104 221.486 93.4929 225.331 90.7293 226.248C89.0774 226.797 86.8048 226.234 85.3597 225.331C84.9701 225.088 84.8273 224.583 85.0576 224.179ZM55.7214 218.678C55.5127 218.374 55.8577 218.028 56.1687 218.096C56.8585 218.247 57.6021 218.314 58.2777 218.519C58.9696 218.73 59.6394 219.079 60.3247 219.319C61.7605 219.822 63.2941 220.075 64.6836 220.682C65.239 220.925 65.6759 221.73 65.6246 222.323L65.6115 222.462C65.5807 222.756 65.5297 223.013 65.3651 223.282C64.923 224.005 64.0468 224.378 63.2199 224.155C61.6859 223.743 60.187 222.684 58.879 221.804L58.6373 221.644C58.0659 221.267 57.4514 220.873 56.9909 220.389C56.5103 219.882 56.1152 219.251 55.7214 218.678ZM108.453 212.821C108.276 212.185 109.068 211.765 109.529 212.195C110.45 213.054 111.414 213.85 112.316 214.731L112.377 214.791C113.023 215.441 113.964 216.693 113.123 217.533C112.046 218.611 110.546 217.012 109.968 216.179C109.236 215.122 108.796 214.057 108.453 212.821ZM178.976 207.562C177.609 209.01 175.502 209.676 173.648 210.228C171.449 210.882 169.183 211.272 166.915 211.594C164.724 211.904 162.549 212.181 160.393 212.537C162.024 212.558 163.655 212.57 165.283 212.599C167.16 212.633 169.036 212.674 170.912 212.728C172.279 212.768 173.883 212.58 175.181 213.088C175.415 213.18 175.634 213.307 175.825 213.461C176.917 211.519 177.963 209.55 178.976 207.562ZM94.6498 194.015C96.0767 193.562 97.4184 192.96 98.9311 193.117C99.3331 193.158 99.6211 193.549 99.4016 193.936C98.6847 195.198 97.5191 195.911 96.3716 196.755L96.2704 196.83C95.0144 197.764 93.6659 198.616 92.3 199.383C89.9484 200.703 87.841 196.924 90.2159 195.816C91.6449 195.148 93.146 194.493 94.6498 194.015ZM120.34 190.735C122.523 190.879 124.705 190.976 126.89 191.065C129.422 191.167 128.571 195.065 126.456 194.276C124.366 193.497 122.277 192.727 120.169 192C119.527 191.779 119.578 190.724 120.299 190.733L120.34 190.735ZM64.3484 183.801C64.9142 183.762 65.4848 183.885 66.0514 183.94L66.6543 183.999C67.8972 184.122 69.0625 184.275 70.2478 184.781C72.4349 185.715 71.2602 189.232 69.0647 189.151C67.442 189.091 66.0544 188.394 64.6841 187.583C63.4862 186.873 62.7518 185.985 61.9429 184.871C61.675 184.502 62.0483 184.089 62.4132 184.052C63.0559 183.986 63.7055 183.846 64.3484 183.801ZM173.979 176.619C173.617 178.878 172.718 180.995 171.365 182.839C170.685 183.765 169.49 183.8 168.816 182.839C167.862 181.479 168.45 179.92 169.169 178.614L169.381 178.232C169.703 177.658 170.197 176.821 170.762 176.244L170.771 176.185C171.074 173.819 174.351 174.291 173.979 176.619ZM85.6829 162.121C86.2272 161.63 87.2294 161.778 87.406 162.576C87.6532 163.693 87.8036 164.953 87.6418 166.087C87.5541 166.702 87.5212 167.392 87.2795 167.965C87.0196 168.581 86.5198 169.055 86.0489 169.519C85.1087 170.443 83.1268 170.138 82.875 168.68L82.843 168.502C82.7163 167.812 82.5543 167.075 82.7419 166.392C82.8835 165.876 83.1999 165.35 83.4616 164.872L83.5168 164.77C84.0412 163.793 84.8586 162.863 85.6829 162.121ZM162.181 164.498L162.378 164.5C163.897 164.53 166.674 164.9 166.689 166.778C166.693 167.221 166.365 167.679 165.926 167.781C165.018 167.992 164.431 167.455 163.784 166.913C163.255 166.469 162.638 166.115 161.997 165.861C161.305 165.585 161.35 164.497 162.181 164.498Z" fill="black"/>
<path fill-rule="evenodd" clip-rule="evenodd" d="M164.622 91.3169C163.84 85.0565 161.382 78.4097 158.796 72.5733C152.983 60.2334 139.674 58.5344 127.744 55.9902C115.971 54.2719 103.504 52.7204 91.9081 56.1487C85.3893 57.7497 82.8432 65.5328 83.872 71.6749C84.4591 75.5022 86.197 79.1246 87.6788 82.6717C90.6242 89.9561 92.4929 97.7547 92.4961 105.641C92.2939 110.795 91.5683 116.678 97.4763 118.861C103.098 121.664 103.573 129.262 110.613 133.572C113.459 139.352 121.213 139.861 126.794 141.202C130.321 141.879 133.888 142.377 137.465 142.699C147.822 144.029 156.107 141.02 161.529 131.771C165.157 126.142 167.858 119.643 167.191 112.821C166.526 105.637 165.419 98.491 164.622 91.3169Z" fill="#D08B5B"/>
<path fill-rule="evenodd" clip-rule="evenodd" d="M127.833 40.9931C128.424 40.3214 129.335 40.5518 129.888 41.0829C130.248 41.1892 130.597 41.3473 130.926 41.5565C131.67 41.4608 132.45 41.4608 133.18 41.4876C133.357 41.3881 133.547 41.2995 133.754 41.2234C135.229 40.6826 136.536 40.9573 137.614 41.6814C138.133 41.189 138.788 40.88 139.626 40.9267C140.373 40.9685 140.906 41.3211 141.362 41.7854C141.817 41.1275 142.553 40.6581 143.47 40.5928C144.751 40.5015 145.983 41.0165 147.003 41.8139C147.598 41.13 148.409 40.7369 149.312 40.7331C149.907 40.6249 150.534 40.6676 151.101 40.8392C151.924 41.0884 152.647 41.5553 153.223 42.1612C154.133 41.287 155.248 40.6581 156.533 40.7498C158.196 40.8703 159.575 42.0963 160.216 43.6053C161.342 44.0574 162.381 44.7023 163.25 45.6216C163.296 45.67 163.34 45.7208 163.387 45.7717C163.855 45.9448 164.295 46.1902 164.683 46.5133C165.912 47.5386 166.186 49.0223 165.78 50.4761C165.836 50.7088 165.885 50.9455 165.929 51.182C167.08 51.3575 168.126 52.0234 168.72 53.1077C169.534 54.5956 169.374 56.5567 168.493 57.9772C168.114 58.5882 167.633 59.103 167.093 59.5532C167.704 60.9439 167.411 62.6034 166.426 63.7282C166.186 64.116 165.891 64.466 165.56 64.7829C165.926 66.2207 165.275 67.7041 163.977 68.4724L163.865 68.7511C163.847 68.7974 163.828 68.8435 163.808 68.8892C163.794 68.9484 163.776 69.0056 163.759 69.0633C163.728 69.5735 163.56 70.0742 163.228 70.546C162.546 71.5127 161.702 72.1432 161.255 73.2717L161.21 73.3903C161.017 73.9244 160.396 74.3012 159.866 74.1364C162.807 80.1897 164.348 86.9252 165.406 93.5261C165.934 96.8192 166.341 100.124 166.672 103.441L166.996 106.744C167.28 109.68 167.534 112.626 167.536 115.572C167.54 122.236 165.638 128.646 161.557 133.949C157.697 138.962 152.234 142.595 146.063 144.026C139.692 145.501 132.219 144.92 126.506 141.543C124.821 140.55 126.297 138.161 128.011 138.96C131.255 140.474 134.553 141.598 138.149 141.849C141.655 142.096 145.17 141.657 148.494 140.507C153.995 138.603 158.675 134.615 161.683 129.648C163.165 127.201 164.238 124.544 164.81 121.737C165.521 118.239 165.414 114.623 165.152 111.079L165.134 110.838C164.618 104.011 163.937 97.1423 162.836 90.3835C161.864 84.4067 160.368 78.5511 158.426 72.8249C157.665 72.1537 156.815 71.5983 155.904 71.1764C149.236 70.8972 142.557 70.9788 135.898 71.44C130.219 71.8359 124.567 72.5056 118.958 73.4817L118.357 73.5875C117.116 73.8092 115.737 73.936 114.567 74.4371C113.563 74.8683 113.156 75.6968 112.903 76.7153C112.267 79.2916 112.17 82.1113 112.062 84.7531C111.957 87.3356 112.195 89.9397 111.988 92.5137C111.813 94.6674 111.263 96.8717 109.671 98.4296C108.839 99.2452 107.814 99.6912 106.853 100.31C106.231 100.71 105.967 101.122 106.047 101.862C106.22 103.481 107.521 105.52 106.06 106.907C105.803 107.15 105.358 107.181 105.105 106.907C104.502 106.25 103.669 105.748 102.955 105.218C102.655 104.998 102.904 104.571 103.243 104.723C103.69 104.924 104.146 105.161 104.612 105.368C103.583 104.519 102.12 104.102 100.901 103.855C100.288 103.732 99.6426 103.696 99.0038 103.754C98.5316 103.979 98.0488 104.189 97.566 104.394C96.9525 104.652 96.3327 104.886 95.7087 105.108C93.5435 106.877 92.5105 109.754 92.9616 112.567C93.2083 114.12 93.923 115.809 95.2702 116.716C96.8661 117.789 99.0038 117.328 100.728 118.125C102.343 118.871 103.326 120.378 104.061 121.938L104.368 122.588C105.051 124.025 105.753 125.425 106.686 126.733C107.766 128.249 109.087 129.61 110.529 130.779C111.229 131.345 111.975 131.853 112.745 132.317L112.956 132.442C113.736 132.901 114.295 133.338 114.347 134.308C114.364 134.646 114.151 134.955 113.877 135.13C112.697 135.881 111.522 134.942 110.54 134.287C109.48 133.581 108.465 132.787 107.527 131.92C105.744 130.276 104.201 128.323 103.014 126.203C102.109 124.588 101.595 122.316 100.165 121.065C99.2926 120.302 98.0593 120.296 96.9694 120.156C95.9553 120.025 94.9961 119.814 94.0938 119.313C90.4234 117.269 89.3861 112.322 90.2568 108.498C90.4044 107.854 90.611 107.226 90.8661 106.621C89.5 106.85 87.9652 105.434 88.5196 104.005C88.5618 103.897 88.6103 103.796 88.6567 103.692C87.7565 103.098 87.046 102.198 86.7087 101.021C86.5358 100.412 86.5105 99.7968 86.6012 99.2029C86.1648 98.9094 85.8042 98.5055 85.5723 98.0088C84.8471 97.6728 84.2041 97.17 83.8204 96.4514C83.2891 95.4599 83.3566 94.5469 83.7614 93.7247C83.7045 93.6214 83.6496 93.5157 83.5969 93.4077C82.1106 92.4632 81.0734 90.8356 81.1915 89.0307C81.2294 88.4325 81.377 87.8936 81.6047 87.4077C81.5857 87.3464 81.5667 87.2828 81.5499 87.2215C80.306 86.5874 79.2772 85.5457 78.9104 84.155C78.5435 82.7557 78.9757 81.3608 79.8401 80.2871C78.5752 79.3595 77.8141 78.0639 78.2758 76.1045C78.4634 75.3079 78.8408 74.5827 79.351 73.9719C79.3489 73.9531 79.3447 73.9341 79.3404 73.9149L79.2221 73.8229C77.6605 72.5875 76.7629 71.0132 77.7213 69.0771C78.1514 68.2065 78.7649 67.5997 79.4859 67.2003L79.5218 67.0862C79.0052 65.9766 78.8303 64.7444 79.1865 63.4488C79.4775 62.3817 80.1669 61.5319 81.0481 60.9678C80.9891 60.4899 80.9975 59.9808 81.0924 59.4289C81.2505 58.4971 81.7122 57.6834 82.3868 57.1064C82.4121 56.9836 82.4437 56.8634 82.4796 56.7427C82.7073 56.0053 83.1331 55.2043 83.6265 54.6101C84.0333 54.1177 84.4887 53.9381 85.0453 53.919C85.0116 53.4648 85.0347 53.0039 85.1275 52.5368C85.4121 51.0956 86.3271 49.7406 87.6827 49.1256C88.2392 48.8741 88.8253 48.8003 89.3903 48.8614C89.871 47.8469 90.8092 47.1117 91.9624 46.9531C92.4114 46.8897 92.8288 46.8937 93.2125 46.951C93.4297 46.8494 93.6553 46.7587 93.8914 46.6761C94.0474 46.6211 94.2055 46.5704 94.3636 46.5199C94.897 45.8562 95.599 45.3255 96.4191 45.0066C97.3657 44.6367 98.3292 44.6746 99.183 44.9853L99.455 44.9282C99.8808 44.1885 100.56 43.6157 101.603 43.3557C102.788 43.062 104.004 43.472 104.936 44.2183C104.941 44.2183 104.945 44.2183 104.951 44.2159C105.438 43.1233 106.271 42.3624 107.669 42.4152C108.539 42.4491 109.326 42.8825 109.933 43.4997C110.27 43.4572 110.607 43.4191 110.947 43.3813C111.305 42.9605 111.704 42.5676 112.144 42.2147C112.865 41.6354 113.803 41.6821 114.335 42.4977C114.451 42.6752 114.558 42.8548 114.666 43.0345L115.153 43.0007C115.726 42.225 116.508 41.7009 117.579 41.6588C118.562 41.6184 119.262 42.1005 119.795 42.7745C120.229 42.764 120.666 42.7557 121.102 42.7492C121.61 42.1595 122.209 41.6396 122.892 41.2084C123.415 40.8787 124.186 40.9909 124.61 41.4306C124.897 41.7294 125.163 42.0414 125.411 42.3643C126.049 41.6466 126.912 41.1738 127.833 40.9931ZM96.805 108.107C97.7895 107.545 99.1135 108.154 100.066 108.632C101.228 109.213 102.381 110.09 103.092 111.189C104.059 112.685 101.785 113.894 100.766 112.552C100.14 111.726 99.6405 110.893 98.8815 110.17C98.1879 109.506 97.1823 109.063 96.7839 108.188C96.7691 108.158 96.7733 108.124 96.805 108.107ZM97.4972 71.7866L97.5156 71.7338C97.7956 70.966 96.5736 70.635 96.296 71.3965C95.8752 72.5507 96.3603 73.8055 97.4975 74.3039C97.8126 74.4421 98.1727 74.3941 98.3627 74.0765C98.5223 73.8091 98.4483 73.3458 98.1358 73.2091C97.496 72.9286 97.2817 72.4335 97.4972 71.7866ZM86.9692 69.6394C87.5808 69.0984 86.6833 68.2041 86.0747 68.7429C85.5067 69.2455 85.0855 69.9281 85.1949 70.7133C85.3065 71.5135 85.9084 72.0784 86.5672 72.4776C87.2654 72.901 87.9019 71.8049 87.2055 71.3826L87.1273 71.3347C86.835 71.1527 86.4929 70.9024 86.4434 70.5444C86.3909 70.164 86.712 69.867 86.9692 69.6394ZM90.4423 60.0924L90.4856 60.0605C91.1425 59.5904 90.5115 58.4902 89.847 58.9655C89.2377 59.4015 88.7491 59.9679 88.6976 60.7491C88.6477 61.5082 89.033 62.1664 89.5369 62.7005C90.0975 63.2946 90.9909 62.3968 90.4314 61.8039C89.8862 61.2261 89.7797 60.5956 90.4423 60.0924Z" fill="black"/>
<path fill-rule="evenodd" clip-rule="evenodd" d="M150.578 122.331C150.724 122.292 150.853 122.489 150.732 122.596C150.234 123.038 149.919 123.861 149.556 124.421C149.21 124.955 148.878 125.483 148.574 126.041C148.234 126.667 147.905 127.29 147.64 127.952L147.588 128.086C147.667 128.275 147.729 128.461 147.775 128.584L147.788 128.618C148.241 129.774 147.291 131.059 146.219 131.382C144.387 131.935 142.815 130.429 142.771 128.639C142.736 127.231 143.691 125.976 144.66 125.045C145.509 124.23 146.458 123.537 147.521 123.029C147.99 122.805 148.477 122.618 148.986 122.51C149.506 122.399 150.068 122.469 150.578 122.331ZM147.124 127.435C147.259 127.499 147.374 127.654 147.47 127.835C147.422 127.681 147.322 127.529 147.124 127.435ZM148.271 107.866C149.866 108.836 152.297 111.098 150.581 113.503C148.561 115.624 145.652 113.192 144.219 112.093C142.89 111.24 141.396 113.432 142.63 114.427C152.987 122.098 157.19 108.12 149.078 106.725C148.185 106.572 147.853 107.566 148.271 107.866ZM135.157 98.5507L135.438 98.527C136.661 98.4192 137.899 98.2549 139.105 98.5316C140.725 98.9036 140.606 101.261 139.105 101.695C137.782 102.076 136.316 101.911 134.95 101.924C134.735 101.926 134.521 101.932 134.306 101.935C134.264 102.446 134.096 102.887 133.84 103.327C133.656 103.643 133.422 103.942 133.191 104.223C132.643 104.889 131.349 104.874 130.795 104.223C130.386 103.741 130.06 103.186 130.055 102.533C130.053 102.366 130.074 102.188 130.114 102.014L129.368 102.027C127.544 102.055 125.706 102.042 123.914 101.752C123.277 101.884 122.756 100.734 123.635 100.39C126.026 99.4542 128.697 99.1788 131.234 98.8979C132.538 98.7534 133.849 98.6538 135.157 98.5507ZM155.525 97.584L155.59 97.5775C157.173 97.4154 158.917 97.1347 160.502 97.2962C162.869 97.5369 162.865 100.738 160.502 100.978C159.634 101.065 158.72 101.023 157.809 100.939C158.275 101.927 157.722 103.108 156.6 103.259C155.557 103.399 154.476 102.385 154.818 101.298L154.834 101.25C154.901 101.061 154.961 100.85 155.032 100.642L154.654 100.61C153.526 100.51 151.96 100.306 151.545 99.415C151.419 99.1464 151.448 98.897 151.641 98.6675C152.432 97.7256 154.382 97.6946 155.525 97.584ZM138.701 90.2548C139.846 89.8386 141.036 90.8125 141.184 91.9101C141.355 93.1749 140.443 94.0076 139.288 94.1586L139.23 94.1656C136.678 94.4467 134.146 94.9607 131.592 95.2513C130.431 95.3831 129.262 95.4699 128.094 95.5011L127.26 95.5198C126.237 95.5457 125.14 95.569 124.195 95.2167L124.199 95.2103C123.948 95.1376 123.833 94.7758 124.112 94.578C125.117 93.8668 126.473 93.5979 127.643 93.26C128.82 92.9199 130.005 92.6065 131.194 92.3121C133.69 91.6945 136.282 91.1336 138.701 90.2548ZM149.262 90.5505C149.565 88.9503 151.831 88.7787 152.663 89.943C153.201 90.1278 153.99 90.3205 154.478 90.4655C155.33 90.7181 156.182 90.9691 157.036 91.2124C158.804 91.7163 160.53 92.355 162.268 92.9503C162.447 93.0118 162.398 93.2393 162.226 93.2619C159.799 93.5778 157.414 93.7248 154.972 93.6235L154.472 93.601C152.321 93.5171 148.669 93.6771 149.262 90.5505Z" fill="black"/>
<path fill-rule="evenodd" clip-rule="evenodd" d="M152.745 131.525C150.778 129.772 148.572 126.247 145.746 129.036C145.047 129.824 144.763 131.591 143.694 131.938C142.275 132.398 140.868 130.896 140.384 129.742C138.404 123.33 146.588 121.571 151.249 122.607C153.527 123.543 155.204 127.309 155.306 129.275C155.371 130.595 154.254 132.538 152.745 131.525ZM167.589 121.643C167.57 121.558 167.543 121.481 167.51 121.411C166.64 121.082 165.952 121.417 165.526 122.044C165.54 122.2 165.587 122.358 165.616 122.512C165.288 123.204 164.992 124.06 164.547 124.658C164.459 124.665 164.368 124.656 164.28 124.63C156.904 125.401 160.505 117.681 153.024 115.763C147.241 114.809 136.789 115.902 134.061 121.923C131.909 131.542 120.969 124.84 117.377 119.838C113.544 115.285 111.066 109.723 108.677 104.325C108.172 103.182 106.596 103.999 106.767 105.095C104.559 109.528 104.632 114.851 104.085 119.707C103.155 129.394 102.248 142.979 111.246 148.894C122.968 162.15 152.241 166.827 165.762 154.648C170.442 144.581 169.865 132.301 167.589 121.643Z" fill="black"/>
</svg>
