<svg width="259" height="324" viewBox="0 0 259 324" fill="none" xmlns="http://www.w3.org/2000/svg">
<path fill-rule="evenodd" clip-rule="evenodd" d="M245.861 194.94C248.025 193.81 250.138 192.583 252.217 191.305C253.682 190.428 252.385 188.22 250.883 189.018C250.115 189.426 249.35 189.838 248.583 190.244C249.187 189.723 249.747 189.156 250.249 188.539L250.214 188.504C252.151 186.769 249.664 183.495 247.462 184.92C245.52 186.328 243.561 187.765 241.332 188.692C236.715 190.65 231.623 190.974 226.668 191.031C224.855 190.895 223.123 191.209 221.363 191.559C222.053 188.791 223.779 186.7 224.695 184.019C225.37 181.312 221.465 179.468 220.08 182.07C219.741 182.709 219.417 183.356 219.1 184.005C216.108 186.728 211.112 186.488 208.095 189.411C206.376 190.937 205.535 193.008 205.202 195.086C204.977 196.497 205.327 197.912 204.474 199.162C200.351 204.997 193.835 214.22 190.526 220.641C188.183 205.382 181.927 186.509 175.464 172.556C173.327 168.094 170.882 163.734 167.672 159.951C168.036 158.69 166.752 156.451 165.935 157.14C163.422 154.069 158.979 153.273 155.406 151.746C150.584 149.683 146.583 145.395 144.616 140.522C142.089 131.241 135.867 130.062 127.239 130.472C118.982 130.462 112.873 133.995 111.071 142.404C107.411 148.786 98.769 147.73 92.5516 149.42C87.995 150.461 83.573 152.071 79.3704 154.115C74.6953 149.679 57.9513 168.298 56.4293 173.089C57.3253 173.263 58.2158 173.472 59.0982 173.727C59.8842 173.954 59.5542 175.142 58.7615 174.952C57.7751 174.715 56.7823 174.552 55.7849 174.439C55.7545 174.534 55.7279 174.629 55.708 174.723C55.5961 174.715 55.4843 174.705 55.3723 174.698C55.6206 174.827 55.8595 174.977 56.0923 175.171C56.6551 175.638 55.9225 176.54 55.3244 176.168C54.7609 175.746 54.023 175.813 53.3471 175.671C53.307 177.061 48.3479 175.506 47.5776 175.045C44.154 174.617 40.632 175.077 37.4359 173.425C33.1833 172.529 28.8988 171.538 24.694 170.397C23.5808 170.831 22.5346 172.385 23.4187 173.525C23.9161 174.044 23.2768 174.891 22.6506 174.522C20.5504 173.285 18.9261 171.355 17.5491 169.275C16.9009 168.621 15.7504 168.762 14.8795 168.49C14.7631 168.699 14.6944 168.933 14.6955 169.172C11.0015 169.78 13.6366 173.816 15.4937 175.074C14.5085 175.716 14.4711 176.972 14.5573 178.022C14.3486 178.395 14.2789 178.859 14.4606 179.277C15.1552 180.879 16.6575 182.227 17.7999 183.525C19.0611 184.958 20.1857 186.398 21.7204 187.56C27.5699 192.021 34.629 194.515 41.8709 195.49C44.4422 195.885 48.1409 196.49 49.733 198.665C49.3423 201.246 48.6251 203.722 47.9744 206.239C47.0644 209.581 47.1263 213.079 47.1143 216.485C46.9871 216.383 46.7429 216.404 46.7066 216.599C46.4949 218.011 46.3375 219.455 45.4795 220.641C44.7274 222.848 44.2269 225.201 43.9457 227.519C42.8192 238.508 42.5503 249.822 45.0901 260.64C46.0702 264.653 47.6642 268.467 49.8361 271.979C50.4836 273.027 51.5247 273.334 52.4596 273.128C55.5885 274.754 59.5301 275.275 62.9025 274.862C74.3999 271.606 70.3939 279.447 86.5142 277.046C114.34 273.5 142.46 280.468 170.226 276.377C170.91 281.661 179.863 280.145 182.972 277.911C192.296 270.977 196.926 249.023 201.605 237.886C204.822 229.108 210.208 213.56 217.262 207.669C219.377 206.014 221.933 205.143 224.491 204.44C234.038 201.979 243.621 199.652 253.186 197.259C254.809 196.859 254.517 194.092 252.782 194.269C250.48 194.505 248.171 194.718 245.861 194.94Z" fill="#D08B5B"/>
<path fill-rule="evenodd" clip-rule="evenodd" d="M33.3371 193.294C32.6906 193.214 32.0568 192.984 31.4272 192.802C30.466 192.521 29.5237 192.193 28.5962 191.819C26.6821 191.052 24.8251 190.145 23.0843 189.035C20.2723 187.241 17.7878 184.942 15.9138 182.173L15.7852 181.98C14.7154 180.35 12.742 176.73 14.9547 175.492C13.5286 174.3 12.1807 172.159 12.2567 170.506C12.3645 168.169 15.2293 168.201 16.7103 169.192C17.68 169.841 18.4067 170.749 19.1356 171.644C19.9427 172.637 20.8046 173.584 21.7004 174.495C21.9381 174.735 22.1781 174.972 22.4223 175.204L22.668 175.435C22.63 175.344 22.5962 175.251 22.5666 175.156C22.0722 173.615 22.6617 171.61 24.2018 170.904C25.1443 170.472 26.1231 170.735 27.0365 171.102L27.1765 171.159C28.406 171.669 29.6504 172.119 30.9307 172.48C36.149 173.954 41.5955 174.199 46.9426 174.934C49.0025 175.22 51.1004 175.579 53.1497 176.107C53.9313 172.787 55.8475 169.604 57.9264 166.985C67.8813 154.458 84.2989 150.318 99.318 147.638C100.687 147.395 101.822 149.209 102.618 148.78C104.129 147.968 105.457 146.818 106.624 145.569C109.11 142.904 110.874 139.77 112.947 136.8C113.972 135.333 116.329 136.646 115.379 138.221L114.913 138.99C112.995 142.142 110.872 145.39 108.122 147.835C106.66 149.133 105.037 150.158 103.182 150.798C101.777 151.282 99.8061 151.69 98.268 151.22L98.0835 150.952C98.1445 151.041 98.206 151.131 98.268 151.221C102.282 157.039 107.319 161.964 112.626 166.611C117.983 171.3 123.761 175.498 129.575 179.603L130.059 179.945C139.531 173.034 147.531 164.02 153.145 153.721C151.968 153.579 150.804 152.825 149.798 152.263C148.588 151.582 147.449 150.77 146.562 149.688C144.629 147.332 144.88 144.295 144.531 141.435C144.51 141.258 144.745 141.213 144.853 141.302C145.9 142.173 146.268 143.599 146.705 144.832C147.187 146.186 147.732 147.302 148.837 148.255C149.866 149.143 151.121 149.796 152.34 150.377C152.969 150.676 156.089 151.442 156.445 152.077C161.836 150.811 167.088 152.998 171.084 156.688C174.943 160.254 177.776 164.889 180.278 169.464C182.946 174.347 185.133 179.436 187.017 184.667C188.927 189.976 190.391 195.401 191.196 200.989C191.876 205.701 192.292 210.486 192.562 215.25L192.595 215.845C196.583 209.583 200.671 203.386 204.844 197.244C203.895 194.71 204.945 192.123 206.722 190.166C208.691 188 211.414 186.994 214.019 185.823L214.362 185.668C215.617 185.095 216.869 184.464 217.953 183.606C218.997 182.777 219.764 181.636 220.862 180.873C222.46 179.761 225.358 179.998 225.432 182.427C225.47 183.76 224.898 185.223 224.374 186.421C223.78 187.776 222.979 189.004 222.029 190.132C221.985 190.185 221.937 190.226 221.888 190.259L221.851 190.282C223.165 190.5 224.49 190.676 225.84 190.737C228.563 190.862 231.316 190.661 233.982 190.086C236.712 189.498 239.357 188.543 241.812 187.212C243.91 186.074 245.853 184.603 248.236 184.257C248.456 184.223 248.678 184.202 248.906 184.189C249.286 184.168 249.667 184.616 249.517 184.992C249.434 185.199 249.348 185.405 249.252 185.612C248.429 187.427 247.165 189.188 245.588 190.525L245.467 190.627C246.022 190.435 246.569 190.219 247.108 189.976C250.275 188.549 253.148 186.394 256.543 185.527C256.704 185.485 256.867 185.447 257.029 185.411C258.079 185.185 258.633 186.326 258.016 187.108C257.917 187.235 257.817 187.359 257.714 187.484C256.199 189.365 254.528 191.111 252.686 192.679C252.054 193.216 251.403 193.736 250.74 194.233C250.46 194.443 250.179 194.649 249.895 194.852L249.755 194.951C250.087 194.717 250.414 194.478 250.74 194.233C252.819 193.603 254.868 192.857 256.873 192.03C257.669 191.703 258.288 192.51 258.373 193.174C258.656 195.397 256.188 197.006 254.583 198.075C252.973 199.149 251.2 199.965 249.386 200.62C245.896 201.881 242.231 202.454 238.572 202.967L236.795 203.215C229.761 204.199 222.413 205.375 217.366 210.851C214.537 213.92 212.623 217.733 210.871 221.484C209.122 225.231 207.586 229.078 206.129 232.946C204.618 236.949 203.302 241.025 201.903 245.069C200.619 248.781 199.084 252.446 197.565 256.074L197.325 256.646C194.099 264.357 190.245 271.618 184.875 278.056C183.99 279.119 182.56 277.61 183.377 276.558C188.995 269.313 192.903 260.764 196.129 252.235C197.598 248.355 198.827 244.382 200.238 240.48L201.078 238.162C202.199 235.073 203.331 231.987 204.51 228.922C206.004 225.043 207.645 221.211 209.524 217.504L209.723 217.114C211.562 213.538 213.746 210.013 216.753 207.307C222.165 202.433 229.367 201.264 236.33 200.338L238.521 200.049C241.464 199.658 244.417 199.226 247.279 198.438C248.931 197.986 250.545 197.407 252.062 196.608C252.667 196.291 253.256 195.943 253.826 195.562C252.2 196.04 250.55 196.431 248.87 196.737C248.048 196.887 247.235 196.999 246.424 197.077C244.334 197.284 242.262 197.276 240.122 197.164C239.94 197.153 239.881 196.868 240.075 196.832C241.565 196.567 243.058 196.236 244.544 195.876L244.989 195.767C244.998 195.52 245.095 195.258 245.298 195.008C246.037 194.108 247.442 193.647 248.416 193.011C249.436 192.345 250.425 191.627 251.367 190.857C252.229 190.154 253.057 189.409 253.854 188.632L254.093 188.397C254.013 188.476 253.934 188.554 253.854 188.632C251.703 189.625 249.665 190.9 247.419 191.686C245.634 192.314 243.762 192.736 241.873 192.886L241.756 192.896L241.638 192.903C239.667 193.045 237.683 192.988 235.742 193.415C235.524 193.463 235.457 193.172 235.651 193.089C237.348 192.383 239.112 192.111 240.895 191.781C240.933 191.641 241.03 191.517 241.199 191.436L241.655 191.218C243.014 190.566 244.28 189.907 245.41 188.847C246.407 187.911 247.237 186.816 247.86 185.603C245.365 186.151 243.174 188.042 240.905 189.105C238.433 190.266 235.818 191.098 233.131 191.572L232.824 191.624C227.803 192.462 221.763 192.356 217.264 189.743C217.121 189.659 217.224 189.467 217.372 189.49C218.648 189.699 219.912 189.946 221.175 190.166C220.928 189.94 220.818 189.534 221.103 189.209C222.238 187.908 223.135 186.421 223.709 184.794L223.819 184.476C224.083 183.721 224.529 182.549 224.074 181.869C223.638 181.22 222.614 181.308 222.001 181.583C220.727 182.158 219.88 183.593 218.807 184.46C217.636 185.407 216.305 186.108 214.943 186.736L214.655 186.867C212.298 187.927 209.78 188.82 207.926 190.692C206.929 191.698 206.071 192.956 205.784 194.366C205.653 195.012 205.653 195.678 205.826 196.319C205.964 196.819 206.251 197.128 206.086 197.637C205.871 198.295 205.108 199.081 204.715 199.666C204.259 200.343 203.805 201.021 203.35 201.7C202.444 203.056 201.542 204.418 200.64 205.777C198.836 208.499 197.05 211.234 195.28 213.977C194.704 214.87 194.13 215.764 193.557 216.66L192.7 218.003L192.248 218.711L191.475 219.926C191.503 220.038 191.5 220.157 191.464 220.26C191.333 220.635 191.086 220.892 190.78 221.078L190.725 221.11C186.217 228.239 181.78 235.414 177.299 242.56C177.06 244.741 176.836 246.924 176.642 249.107C176.2 254.049 175.898 259.003 175.801 263.963C175.755 266.364 175.947 268.78 176.05 271.179C176.101 272.324 176.17 273.467 176.261 274.61L176.328 275.421C176.417 276.534 176.468 277.64 176.067 278.701C175.712 279.633 174.631 279.842 173.991 279.132C165.639 278.796 157.281 278.54 148.924 278.382C133.964 278.094 118.998 278.139 104.036 278.428C96.5208 278.574 89.0039 278.779 81.4912 279.033C77.7898 279.155 74.0863 279.329 70.3828 279.379C68.3874 279.406 65.2471 278.68 65.086 276.434L65.0821 276.365C64.8328 276.433 64.575 276.488 64.311 276.528C64.1934 276.546 64.0805 276.541 63.9762 276.517L63.9243 276.503C60.95 277.41 57.1875 276.116 54.3612 275.362L54.1279 275.3C51.43 274.596 49.2624 273.59 47.4941 271.354C44.399 267.438 43.3427 262.179 42.7934 257.333C42.2779 252.772 42.2483 248.127 42.8758 243.575C42.5061 239.865 42.8673 236.038 43.2877 232.35C43.4948 230.526 43.7377 228.704 44.0293 226.89C44.192 225.878 44.4053 224.876 44.623 223.876C44.7098 223.477 44.7822 223.047 44.8923 222.631L44.9419 222.454C44.6039 222.498 44.2342 222.425 43.8772 222.228C43.0279 221.761 42.7807 220.816 42.7659 219.912C42.7194 217.185 43.0448 214.381 43.3321 211.671C43.6215 208.966 44.0187 206.25 44.5384 203.578L44.6729 202.89C45.0667 200.891 45.5173 198.828 46.311 196.95C43.33 196.443 40.3575 195.904 37.4652 194.987C36.054 194.537 34.6638 193.977 33.3371 193.294ZM188.927 221.668C188.881 221.679 188.836 221.691 188.792 221.704C187.6 222.038 186.396 222.321 185.196 222.625C183.122 223.147 181.093 223.731 179.164 224.637C178.76 229.74 178.161 234.825 177.592 239.913L177.479 240.931C178.353 239.307 179.249 237.697 180.185 236.106C183.035 231.255 185.95 226.442 188.927 221.668ZM45.6687 222.173C45.6751 222.78 45.5483 223.41 45.4807 223.993C45.3708 224.94 45.2821 225.891 45.1701 226.838C44.942 228.74 44.7476 230.644 44.6061 232.555C44.5152 233.774 44.4561 234.998 44.4032 236.222C45.6011 231.743 47.1878 227.362 48.6962 222.974C48.4441 222.947 48.1863 222.886 47.9204 222.815L47.4728 222.695C47.2089 222.627 46.3527 222.416 45.6687 222.173ZM192.7 218.003L192.709 218.204C192.741 218.916 192.314 219.318 191.796 219.421C192.096 218.948 192.398 218.475 192.7 218.003ZM55.63 184.246C56.8912 184.358 58.1272 184.627 59.306 185.092L59.4198 185.136C60.2917 185.473 61.5666 185.896 61.8518 186.827C61.9321 187.091 61.7166 187.309 61.4694 187.33C60.5229 187.406 59.4074 186.391 58.5307 186.049C57.5546 185.669 56.5321 185.385 55.4969 185.235C53.1708 184.895 50.7455 185.153 48.5567 186.001C48.4279 186.051 48.3476 185.846 48.4638 185.785C50.6694 184.584 53.1222 184.024 55.63 184.246ZM28.9026 190.291C28.7567 190.162 28.6109 190.027 28.4673 189.892C27.3346 188.82 26.3315 187.569 25.5889 186.194L25.3934 185.822C24.7885 184.65 24.0457 182.981 25.4673 182.137C26.3166 181.632 27.3391 181.759 28.2856 182.065C28.3469 182.084 28.4081 182.105 28.4694 182.126C28.8919 182.275 29.2997 182.452 29.6631 182.621C31.2412 183.346 32.6335 184.401 34.0912 185.331C35.6707 186.339 37.2304 186.983 39.0533 187.361L39.225 187.395C40.9363 187.734 42.7912 187.951 43.9849 189.359C44.2849 189.714 44.0102 190.38 43.4926 190.204C40.1926 189.091 36.7004 188.845 33.6708 187.017C32.4159 186.26 31.2285 185.392 29.9461 184.675C29.2659 184.295 28.5635 183.962 27.815 183.733L27.4061 183.613C27.1666 183.543 26.8807 183.474 26.6884 183.543C26.3224 183.669 26.4392 183.865 26.5525 184.207L26.5638 184.242C27.4532 186.994 29.9884 189.297 32.3377 190.821C32.8764 191.172 33.4278 191.494 33.9898 191.792C37.7938 193.82 42.0501 194.764 46.2305 195.885C46.2305 195.885 48.6476 196.56 49.4483 196.813C50.3399 196.739 51.3561 197.054 52.0279 197.43C52.6807 197.796 53.2068 198.286 53.604 198.863C53.604 198.863 53.9864 199.182 54.0561 199.677C54.2568 200.136 54.392 200.63 54.4596 201.146C54.4976 201.448 54.4216 201.68 54.2779 201.845C54.71 208.48 52.9186 215.078 50.8989 221.383L50.6988 222.005L50.5702 222.399C48.392 229.084 45.8927 235.721 44.7772 242.691C44.0314 247.347 44.0547 252.166 44.6018 256.843L44.6404 257.165C45.1796 261.588 46.2169 266.548 49.0279 270.107C50.4617 271.924 52.1604 272.731 54.3322 273.316L54.4511 273.347C56.4159 273.865 58.4441 274.599 60.4702 274.821C62.3504 275.025 63.9265 274.326 65.6187 273.671L65.6208 273.669C69.1849 270.513 70.8032 265.918 71.999 261.281C75.0983 249.281 74.7138 236.824 72.956 224.648C72.0391 218.286 70.7927 211.98 69.5504 205.675C68.9293 202.524 68.2596 199.379 67.7039 196.217L67.3739 194.356C67.1918 193.323 67.0157 192.288 66.8652 191.248C66.6624 189.851 66.6011 188.478 66.5314 187.072C64.8244 184.242 62.3462 181.911 59.4751 180.239C57.4194 179.041 55.2434 178.21 52.9976 177.608C46.5772 175.877 39.5779 175.999 33.1173 174.668C30.9469 174.221 28.8868 173.558 26.8277 172.763L26.5469 172.654C25.6025 172.286 24.6391 172.081 24.1701 173.195C23.8363 173.987 24.0349 174.812 24.5356 175.477C25.7631 177.109 28.2307 177.866 30.0877 178.453C31.2053 178.808 32.3462 179.089 33.4997 179.299C34.6532 179.508 35.811 179.561 36.918 179.969C37.3448 180.125 37.4293 180.803 36.918 180.924C35.5152 181.251 34.1039 180.97 32.7096 180.698C31.1779 180.395 29.6694 179.966 28.2032 179.423C27.9328 179.324 27.6529 179.218 27.3679 179.107L27.1532 179.022C27.375 179.182 27.5969 179.341 27.8208 179.5C27.88 179.542 27.8441 179.654 27.7659 179.626C24.3184 178.34 21.1816 176.018 18.7516 173.271L18.6307 173.134C17.775 172.153 15.825 169.185 14.1814 170.012C12.6379 170.787 15.269 173.775 16.2688 174.996L16.3849 175.139C17.5216 175.169 18.6223 175.877 19.5434 176.447C21.1427 177.439 22.8138 178.293 24.5166 179.091C27.9011 180.683 31.4948 181.805 34.8434 183.477C34.8878 183.5 34.854 183.557 34.8117 183.551C32.68 183.211 30.5716 182.667 28.5117 181.993L28.4198 181.965L28.3279 181.934C27.0413 181.511 25.7716 181.034 24.523 180.524C23.1349 179.958 21.7786 179.322 20.4624 178.601C19.2709 177.95 17.9483 176.777 16.5666 176.604C16.4187 176.585 16.2878 176.583 16.1737 176.593C14.5871 176.726 15.8991 179.356 16.3427 180.142C17.0674 181.433 17.942 182.625 18.9455 183.714C20.98 185.924 23.4455 187.677 26.1138 189.04C27.0244 189.505 27.9561 189.915 28.9026 190.291Z" fill="black"/>
<path fill-rule="evenodd" clip-rule="evenodd" d="M129.619 53.9492C141.59 53.9492 159.111 61.9629 160.429 69.6728C161.982 78.7587 165.43 112.924 163.553 124.105C161.675 135.285 154.354 143.546 138.163 143.546C121.972 143.546 109.887 134.694 107.113 131.655C104.338 128.616 100.976 119.158 100.976 119.158C100.976 119.158 92.1112 117.651 92.0701 110.567C92.029 103.483 96.5232 101.294 96.5232 101.294C96.5232 101.294 94.0977 71.9058 99.1958 64.6271C104.294 57.3483 117.649 53.9492 129.619 53.9492Z" fill="#D08B5B"/>
<path fill-rule="evenodd" clip-rule="evenodd" d="M126.161 37.4121C128.362 37.448 130.581 37.5311 132.79 37.7128C132.893 37.7023 132.999 37.6931 133.102 37.6826C137.259 37.2829 141.41 37.6427 145.566 37.8183C149.524 37.9853 153.705 38.3952 157.26 40.2949C157.717 40.5387 158.104 40.816 158.435 41.1249C158.898 41.1902 159.339 41.3226 159.736 41.5439C160.881 41.312 162.158 41.8259 162.429 43.1572C162.823 45.1079 162.973 47.0753 162.737 49.0537C162.731 49.0998 162.726 49.1485 162.72 49.1992C163.198 51.0345 163.166 53.0393 162.769 54.8496C162.936 57.1368 163.032 59.4307 163.045 61.7206C163.054 63.3047 163.125 64.9176 162.978 66.497C162.848 67.8855 162.278 68.9844 161.381 70.039C161.212 70.2373 160.927 70.2706 160.69 70.2226C160.628 70.2101 160.574 70.1929 160.525 70.1728C161.066 71.335 161.494 72.5684 161.932 73.746C162.627 75.6185 163.302 77.5227 163.78 79.4628C164.75 83.3747 165.39 87.3614 165.761 91.3749C166.416 98.5162 166.662 105.719 166.789 112.888C166.911 119.68 166.315 126.765 162.454 132.573C159.079 137.654 153.94 141.342 148.216 143.333C144.959 144.468 141.352 144.889 137.911 144.992C136.134 145.045 134.352 144.969 132.585 144.785C130.871 144.605 129.098 144.624 127.846 143.322C127.502 142.965 127.507 142.231 128.015 141.999C128.982 141.557 129.638 141.511 130.698 141.657C131.577 141.777 132.459 141.872 133.344 141.934C135.241 142.067 137.152 142.071 139.049 141.925C142.536 141.656 146.103 140.67 149.27 139.174C154.234 136.824 158.5 132.972 160.802 127.919C163.477 122.054 163.304 115.259 163.18 108.957C163.043 102.046 162.788 95.1554 162.19 88.2675C161.899 84.9283 161.449 81.6124 161.044 78.288C160.831 76.5211 160.551 74.7621 160.207 73.0165C160.026 72.0927 159.79 71.1818 159.596 70.2646C159.455 70.2876 159.311 70.3004 159.164 70.3066C158.283 70.3364 157.319 70.1208 156.665 69.4931C156.415 69.6642 156.096 69.7719 155.713 69.791C152.089 69.9704 148.408 69.7491 144.777 69.747C141.134 69.7449 137.489 69.7472 133.844 69.7578C130.203 69.7681 126.552 69.8022 122.913 69.705C119.525 69.6141 116.023 69.6877 112.68 69.0663C111.556 73.0693 111.596 77.4678 113.939 81.0439C114.6 82.0519 114.062 83.2393 113.2 83.8691C112.319 84.5118 110.735 85.4973 109.379 85.5986C109.248 85.8943 109.113 86.189 108.984 86.4824C108.337 87.9603 107.755 89.4479 107.347 91.0126C107.137 91.819 106.956 92.639 106.804 93.4638C106.816 93.6079 106.828 93.7518 106.844 93.8955C106.844 93.9102 106.847 93.9254 106.849 93.9423C106.857 94.0017 106.867 94.0694 106.873 94.1074C106.951 94.5215 107.027 94.9356 107.109 95.3476C107.306 96.3515 107.458 97.3644 107.566 98.3808C107.762 100.241 107.742 102.659 105.934 103.76C104.966 104.349 103.806 104.288 102.783 103.893C102.096 103.626 101.512 103.251 100.88 102.881C100.505 102.661 100.112 102.481 99.7452 102.253C99.6444 102.19 99.5477 102.113 99.4571 102.033C98.7721 102.179 98.1037 102.452 97.7286 102.638C96.7228 103.139 95.8387 103.864 95.088 104.696C93.4926 106.469 93.0139 108.968 93.2374 111.286C93.4459 113.444 94.2922 115.923 95.9932 117.358C96.7332 117.983 97.657 118.349 98.6329 118.339C99.1132 118.335 99.556 118.233 100.02 118.11C100.477 117.99 101.042 118.025 101.464 117.856C102.09 117.605 102.861 118.372 102.607 119.002C102.415 119.475 102.305 119.894 102.065 120.264C103.81 123.121 105.723 125.89 107.757 128.547C109.591 130.939 111.75 132.951 113.79 135.143C114.691 136.11 115.066 138.018 113.437 138.432C111.811 138.848 110.596 137.098 109.662 136.035C105.794 131.624 102.87 126.559 101.502 120.843C100.885 121.282 100.175 121.521 99.4288 121.625C97.9426 121.83 96.4395 121.537 95.1368 120.782C90.2034 117.927 89.0108 110.21 91.3214 105.374C91.8785 104.21 92.7011 103.17 93.7042 102.363C93.6253 102.212 93.5949 102.034 93.6456 101.844C93.7348 101.51 93.8328 101.179 93.9356 100.851C93.8233 100.8 93.7404 100.697 93.7559 100.543C93.8487 99.5918 93.9395 98.6405 94.0304 97.6894C93.9985 96.2524 93.9285 94.8175 93.9454 93.372C93.9709 91.0683 94.1108 88.7665 94.1192 86.4628C94.1466 78.4273 94.4728 70.3997 94.4962 62.3642C94.5086 58.4351 94.5174 54.5 94.4141 50.5732C94.412 50.5204 94.4121 50.4697 94.4102 50.4169C94.3257 47.2742 93.4953 43.0685 96.5606 41.0351C97.0644 40.7015 97.6923 40.6966 98.2403 40.9121C99.8171 39.811 101.795 39.281 103.686 38.9746C107.289 38.3914 110.924 38.11 114.552 37.7402C116.445 37.5479 118.437 37.4743 120.343 37.5165C122.27 37.5588 124.222 37.3825 126.161 37.4121ZM96.9395 107.746C97.6286 107.089 98.6577 107.24 99.503 107.396C100.679 107.614 101.823 108.13 102.814 108.792C103.88 109.504 105.197 110.491 105.408 111.842C105.6 113.082 104.369 114.45 103.102 113.619C101.928 112.848 101.356 111.434 100.347 110.466C99.8511 109.992 99.315 109.576 98.7481 109.195C98.491 109.022 98.2384 108.829 97.9581 108.696C97.9302 108.683 96.7757 108.308 96.9991 108.805C97.0746 108.969 96.8766 109.153 96.7354 109.008C96.335 108.6 96.5581 108.11 96.9395 107.746Z" fill="black"/>
<path fill-rule="evenodd" clip-rule="evenodd" d="M147.453 124.137C147.777 123.573 148.523 123.051 149.206 123.131C152.265 123.49 152.26 127.2 151.078 129.366C150.031 131.287 147.864 132.414 145.694 132.249C143.416 132.076 141.474 130.736 140.619 128.603C140.054 127.192 139.793 124.588 141.296 123.64C141.324 123.622 141.37 123.627 141.392 123.652C142.113 124.491 142.142 125.751 142.773 126.685C143.36 127.553 144.271 128.271 145.34 128.381C146.137 128.464 146.944 128.176 147.256 127.46C147.425 127.072 147.406 126.862 147.343 126.595L147.285 126.363C147.085 125.551 146.995 124.933 147.453 124.137ZM148.271 107.866C149.866 108.836 152.297 111.099 150.581 113.504C148.56 115.624 145.652 113.193 144.218 112.093C142.889 111.241 141.396 113.433 142.629 114.428C152.986 122.099 157.19 108.12 149.077 106.726C148.184 106.572 147.853 107.566 148.271 107.866ZM131.424 101.214C132.403 99.7445 134.638 99.9609 135.177 101.705C135.469 102.65 135.066 103.499 135.087 104.442C135.104 105.239 135.052 106.127 134.808 106.899C134.251 108.659 132.669 109.903 130.797 109.851C128.931 109.8 127.287 108.618 126.506 106.954C125.722 105.284 125.888 103.555 126.46 101.857C126.488 101.775 126.595 101.736 126.659 101.805C127.336 102.524 127.831 103.284 128.344 104.089L128.869 104.915C129.271 105.537 129.854 106.331 130.604 106.281L130.716 106.27C130.925 106.252 130.893 106.294 131.053 106.01C131.128 105.878 131.114 105.634 131.15 105.479L131.163 105.426L131.156 105.398C131.14 105.323 131.124 105.181 131.111 104.936L131.109 104.881C131.054 103.732 130.73 102.256 131.424 101.214ZM156.246 102.193C156.07 100.313 158.712 99.8955 159.59 101.286C160.048 102.012 160.181 102.923 160.283 103.786L160.33 104.196C160.434 105.082 160.475 106.005 160.091 106.832C159.485 108.134 158.167 108.823 156.746 108.714C155.388 108.609 154.15 107.822 153.497 106.627C152.915 105.561 152.336 103.478 153.043 102.366C153.086 102.299 153.171 102.29 153.23 102.342C153.898 102.935 154.006 104.017 154.404 104.79C154.813 105.587 155.435 106.364 156.376 106.485C157.277 106.601 157.621 106.109 157.391 105.25C157.095 104.141 156.357 103.386 156.246 102.193ZM132.137 90.0387L132.569 89.8732C134.049 89.3138 136.081 88.6673 137.285 89.8713C138.027 90.6138 138.169 91.7075 137.639 92.6136C136.997 93.7112 135.845 93.7382 134.733 93.8999C133.468 94.0838 132.182 94.4333 131.004 94.9317C129.677 95.4933 128.446 96.1932 127.24 96.975C126.094 97.7179 124.952 98.9321 123.579 99.161C123.523 99.1703 123.46 99.1462 123.445 99.0847C123.134 97.7427 124 96.4219 124.772 95.3749C125.708 94.1072 126.841 93.0667 128.107 92.1338C129.329 91.2333 130.726 90.5825 132.137 90.0387ZM159.025 94.8103L159.156 94.7872C160.054 94.6377 160.867 94.6721 161.544 95.3833C162.06 95.9258 162.259 96.629 162.013 97.3463C161.786 98.008 161.278 98.6803 160.541 98.819C158.052 99.2873 155.296 99.21 152.795 98.8553C151.651 98.693 150.496 98.4944 149.382 98.1811L148.869 98.0324C147.938 97.7665 146.873 97.4888 146.197 96.8042C145.954 96.5582 146.095 96.2061 146.385 96.0921C147.565 95.6301 149.181 95.8759 150.438 95.8398C151.901 95.7979 153.366 95.6882 154.822 95.5371C156.245 95.3892 157.621 95.0677 159.025 94.8103Z" fill="black"/>
<path fill-rule="evenodd" clip-rule="evenodd" d="M169.071 112.228C168.371 111.288 167.112 110.054 165.839 110.12C165.676 110.129 165.615 110.305 165.713 110.424C166.129 110.933 166.698 111.295 167.115 111.814C167.609 112.429 167.966 113.17 168.197 113.92C168.534 115.009 168.627 116.241 168.327 117.349C167.798 119.301 166.125 120.732 164.3 121.462C162.494 122.186 160.32 122.433 158.612 121.373C156.091 119.809 153.952 117.554 150.783 117.509C150.041 117.499 149.519 117.838 149.208 118.323C148.895 117.856 148.379 117.525 147.656 117.517C144.104 117.477 141.452 119.923 138.47 121.449C136.454 122.48 133.847 122.16 131.768 121.478C129.806 120.836 127.678 119.546 126.938 117.51C126.529 116.385 126.621 115.071 127.04 113.963C127.316 113.234 127.742 112.529 128.268 111.956C128.814 111.362 129.532 110.988 130.092 110.425C130.206 110.309 130.116 110.13 129.966 110.12C127.59 109.959 125.444 112.797 124.996 114.856C124.554 116.884 125.213 118.906 126.546 120.453C129.257 123.599 134.277 124.636 138.184 123.712C141.347 122.964 144.351 121.241 147.656 121.488C148.381 121.543 148.901 121.241 149.215 120.782C149.53 121.254 150.053 121.562 150.783 121.492C153.864 121.193 156.614 123.376 159.605 123.909C161.986 124.333 164.558 123.761 166.598 122.478C168.731 121.136 170.232 118.984 170.331 116.419C170.388 114.943 169.955 113.416 169.071 112.228Z" fill="black"/>
<path fill-rule="evenodd" clip-rule="evenodd" d="M163.095 111.465C159.925 112.993 155.501 110.74 153.369 108.379C152.593 107.52 151.995 105.061 152.293 103.502C153.102 99.2791 156.14 96.7446 159.347 95.8791C163.793 94.679 168.267 97.7191 167.745 101.307C167.251 104.707 166.502 109.638 163.095 111.465ZM141.514 103.353C141.26 107.955 137.566 111.983 133.15 113.177C126.036 115.163 122.52 110.16 120.928 104.77C120.769 104.235 120.397 102.6 121.395 101.198C125.321 95.6827 134.873 96.6228 139.644 98.1369C141.041 99.4729 141.612 101.401 141.514 103.353ZM166.54 95.4154C166.538 95.4181 166.536 95.4205 166.534 95.4232C166.517 95.4133 166.501 95.4031 166.485 95.3934C166.503 95.401 166.522 95.4076 166.54 95.4154ZM172.493 95.9474C172.079 91.2617 157.383 93.0559 155.665 93.4399C150.975 94.8196 146.925 98.5732 141.682 96.9232C136.25 90.8652 117.957 92.6025 114.122 95.6884C113.396 95.4035 112.513 95.5564 111.578 95.8252C106.775 95.6517 84.8487 97.308 89.3335 103.44C90.0142 103.913 90.6943 103.432 90.7131 102.459C114.093 94.0162 111.826 101.924 114.599 101.001C115.022 101.123 115.464 101.2 115.851 101.281C117.997 101.972 118.725 101.758 119.008 104.168C120.95 122.778 145.722 116.355 143.691 101.09C145.702 100.98 147.462 100.109 149.589 100.959C151.066 115.339 162.633 115.919 166.114 110.934C168.739 107.475 167.698 102.253 171.307 99.5316C172.731 100.724 172.823 96.6995 172.493 95.9474Z" fill="black"/>
</svg>
