<svg width="240" height="324" viewBox="0 0 240 324" fill="none" xmlns="http://www.w3.org/2000/svg">
<path fill-rule="evenodd" clip-rule="evenodd" d="M43.0085 273.246C42.721 273.256 42.8116 273.172 42.9173 273.151C42.9477 273.183 42.9781 273.215 43.0085 273.246ZM51.4983 279.56C59.5322 280.513 67.576 279.641 75.5704 278.767C91.7661 277.566 107.848 281.065 124.076 279.998C144.356 279.143 164.691 277.538 184.903 280.243C190.494 280.372 199.411 281.881 197.384 273.223C194.721 250.964 191.16 228.817 187.346 206.729C184.113 194.346 183.879 172.928 175.028 164.317C173.734 163.135 169.092 159.311 167.865 158.798C161.763 156.526 150.764 154.752 146.226 149.935C142.551 143.714 144.261 135.223 138.545 130.214C133.536 126.123 122.603 126.988 117.248 130.06C113.022 132.801 112.36 138.124 109.727 142.061C109.078 143.004 107.535 145.278 106.664 146.012C104.544 148.054 97.0965 150.2 94.9458 150.594C82.8091 153.082 76.7575 154.619 67.2118 162.687C42.2699 188.16 45.8055 233.214 38.904 266.524C38.6216 270.186 36.3963 275.155 40.3664 277.513C43.7858 279.151 47.8062 278.973 51.4983 279.56Z" fill="#D08B5B"/>
<path fill-rule="evenodd" clip-rule="evenodd" d="M143.444 141.467C143.474 141.38 143.613 141.366 143.634 141.467C143.974 143.024 144.612 144.732 145.259 146.193C145.916 147.672 146.814 149.031 147.948 150.185C150.325 152.603 153.382 153.706 156.735 153.708L156.815 153.71C156.831 153.598 156.848 153.485 156.864 153.372L156.887 153.203C157.193 150.887 159.942 150.954 160.478 152.702C160.751 152.789 161.024 152.876 161.294 152.967L161.348 152.986C161.803 153.159 163.345 153.928 163.628 153.723C164.252 153.275 164.964 153.789 165.2 154.361C165.587 155.299 165.652 156.458 165.777 157.476L165.794 157.608L165.813 157.766C174.633 160.059 179.583 168.888 182.11 177.02C183.479 181.429 184.375 185.977 185.275 190.5C186.238 195.338 187.126 200.189 188.066 205.028C189.919 214.566 191.672 224.126 193.195 233.721L193.637 236.508C195.033 245.331 196.392 254.149 197.535 263.012C198.152 267.791 198.731 272.574 199.288 277.361C199.388 278.215 199.487 279.069 199.586 279.923L199.732 281.205C199.863 282.355 200.085 283.492 199.516 284.568C198.285 286.901 194.554 286.884 194.343 283.896C194.301 283.302 194.501 282.848 194.833 282.531L194.828 282.48C194.825 282.451 194.822 282.428 194.82 282.419C194.71 281.825 194.681 281.197 194.613 280.597C194.465 279.316 194.321 278.035 194.176 276.752C193.895 274.309 193.612 271.866 193.318 269.425C192.724 264.473 192.097 259.527 191.432 254.586L190.772 249.7C188.566 233.414 186.268 217.132 183.243 200.975C182.419 196.577 181.572 192.185 180.703 187.795C179.879 183.638 178.954 179.499 177.572 175.486C175.316 168.93 171.371 162.79 165.895 158.487C165.98 159.309 166.041 160.136 166.119 160.958C166.32 163.069 166.533 165.178 166.749 167.288C167.533 174.93 168.595 182.56 170.408 190.033C171.306 193.736 172.4 197.39 173.733 200.96C174.39 202.718 175.107 204.454 175.893 206.157C176.67 207.842 178.033 209.642 178.115 211.519C178.153 212.388 177.245 213.159 176.404 213.066C176.797 216.524 177.019 220.017 177.253 223.467C177.595 228.463 177.868 233.468 178.267 238.46C178.981 247.402 179.877 256.332 180.815 265.253C181.001 267.021 181.203 268.789 181.403 270.555L181.571 272.039C181.683 273.001 181.854 274.154 181.343 275.007C181.8 276.108 182.112 277.238 182.294 278.418C182.524 279.885 181.686 281.529 179.974 281.465C179.78 281.459 179.586 281.442 179.391 281.421C177.805 281.789 176.222 282.112 174.574 282.123C172.47 282.137 170.362 282.095 168.257 282.08C164.186 282.053 160.115 282.025 156.044 281.992C141.306 281.873 126.562 281.88 111.826 281.643L105.93 281.549C100.525 281.462 95.1189 281.362 89.7165 281.165C85.9961 281.03 82.2759 280.893 78.5574 280.743L77.8003 280.714C74.5194 280.594 71.2345 280.533 67.9898 280.03C67.9084 280.017 67.8732 279.932 67.8858 279.858L67.8905 279.838L67.7489 279.806C67.6665 280.161 65.9552 278.669 65.9679 277.678C65.2581 276.754 65.5898 275.279 65.6658 274.21C65.7398 273.168 65.8327 272.124 65.9151 271.082C66.0905 268.856 66.2405 266.629 66.42 264.403C67.1447 255.429 67.77 246.432 68.1757 237.439C68.3806 232.906 68.5454 228.37 68.7186 223.837C68.7966 221.772 68.9052 219.707 69.1076 217.652L69.1602 217.139C69.382 215.055 69.3609 212.815 70.1278 210.851C70.1383 210.824 70.1743 210.824 70.1848 210.851C70.9602 212.762 71.0341 214.983 71.1905 217.08C71.2179 217.071 71.2454 217.067 71.275 217.061C72.3461 216.551 73.4278 216.093 74.4419 215.463C74.5792 215.378 74.7123 215.289 74.8475 215.203C76.4426 210.321 78.2912 205.519 79.9919 200.668C85.4869 184.984 88.5207 168.281 89.1926 151.673C85.001 154.376 80.436 156.479 75.9984 158.738L75.5827 158.95C71.2116 161.186 67.0264 163.724 63.9144 167.603C61.2017 170.98 59.4292 175.095 57.7707 179.062C55.9898 183.325 54.3841 187.664 52.9158 192.043C49.9369 200.928 47.6299 210.031 45.8299 219.227C44.0531 228.302 42.7834 237.445 41.9341 246.652C41.501 251.348 41.106 256.048 40.7743 260.755C40.6052 263.137 40.4552 265.521 40.3158 267.907C40.2482 269.065 40.1975 270.226 40.1214 271.384C40.075 272.052 40.0665 272.741 39.8468 273.375C39.663 273.903 39.3376 274.345 39.0334 274.812C38.4778 275.664 37.075 275.818 36.5531 274.812L36.3272 274.376C36.0281 273.796 35.755 273.212 35.7144 272.542C35.6764 271.908 35.7545 271.247 35.7905 270.61C35.8602 269.323 35.9405 268.034 36.0207 266.747C36.1898 264.04 36.3778 261.332 36.5891 258.627C37.0095 253.208 37.5503 247.804 38.2306 242.41C40.6243 223.467 44.0806 204.623 50.6764 186.645C52.3074 182.201 54.1264 177.792 56.1799 173.525C58.1658 169.399 60.6778 165.504 64.3243 162.663C67.6809 160.048 71.5827 158.297 75.4595 156.598L75.944 156.386C80.2898 154.486 84.6271 152.44 89.1651 151.028C89.0637 151.041 88.9644 151.054 88.878 151.083C88.7785 151.115 88.7195 150.986 88.7808 150.916C89.0383 150.631 89.1461 150.337 89.4421 150.056C89.6464 149.862 89.859 149.678 90.0777 149.501L90.3924 149.251C90.9681 148.793 91.5734 148.326 92.2982 148.167C93.3231 147.943 93.8259 148.875 93.5383 149.604C93.6862 149.412 94.0834 149.469 94.1869 149.733C97.5588 158.432 99.7729 167.641 104.311 175.86C107.662 181.932 112.157 187.539 118.124 191.206C121.328 193.176 124.996 194.689 128.784 194.928C132.186 195.141 135.458 194.277 138.351 192.491C143.958 189.031 147.619 182.957 150.23 177.071C153.101 170.591 155.15 163.686 156.355 156.686C152.539 156.739 148.512 154.998 145.975 152.159C144.64 150.665 143.645 148.845 143.14 146.905C142.631 144.948 142.793 143.34 143.444 141.467ZM111.435 136.384C111.9 135.553 112.931 135.279 113.774 135.617C114.709 135.993 114.991 136.902 114.858 137.825C114.703 138.907 114.008 140.076 113.467 141.021C112.901 142.01 112.172 142.921 111.418 143.773C109.998 145.379 108.479 146.827 106.677 148.011C104.884 149.188 102.855 150.069 100.77 150.561L100.274 150.677C98.6525 151.048 96.3449 151.473 94.9939 150.591C94.9286 150.549 94.9305 150.462 94.9939 150.42C95.7249 149.91 96.7033 149.819 97.5439 149.579C98.4608 149.315 99.38 149.014 100.257 148.638C101.987 147.894 103.643 146.913 105.118 145.743C106.599 144.568 108.031 143.166 109.022 141.549C109.521 140.738 109.946 139.886 110.353 139.028C110.765 138.168 110.972 137.212 111.435 136.384Z" fill="black"/>
<path fill-rule="evenodd" clip-rule="evenodd" d="M169.36 105.012C170.666 95.5637 167.878 86.4458 164.265 77.8109C164.066 77.285 163.752 76.8296 163.347 76.5058C153.151 55.904 138.169 54.0384 117.269 55.4572C116.651 55.4435 116.615 55.4545 116.146 55.2442C116.068 46.8751 106.534 42.442 99.2782 45.2033C67.1001 60.1942 77.2183 102.398 83.6215 129.95C85.906 140.616 88.1911 151.281 90.476 161.947C90.5527 162.303 90.7144 162.612 90.9295 162.872C90.5976 162.998 90.2656 163.116 89.9399 163.227C89.1965 163.481 89.4919 164.592 90.2656 164.412C91.0239 164.236 91.7546 163.999 92.4775 163.741C93.6046 163.987 94.5495 163.248 95.4343 162.66C105.795 158.552 110.145 145.053 112.803 135.108C123.608 142.751 140.872 148.475 153.226 141.602C164.802 134.614 168.971 120.036 168.148 107.169C168.993 106.779 169.334 105.93 169.356 105.044H169.361C169.361 105.033 169.36 105.022 169.36 105.012Z" fill="#D08B5B"/>
<path fill-rule="evenodd" clip-rule="evenodd" d="M93.667 103.796C93.0669 104.821 92.5733 106.78 92.5733 110.586C92.5734 114.668 94.6483 117.062 96.709 118.404C97.7282 119.068 98.7419 119.475 99.4981 119.717C99.8774 119.838 100.196 119.919 100.422 119.97C100.439 119.974 100.456 119.977 100.473 119.98L109.35 132.476L111.184 136.712C111.15 136.788 111.11 136.878 111.065 136.981C111.043 137.033 111.019 137.087 110.993 137.145C110.787 137.615 110.493 138.289 110.141 139.113C109.435 140.761 108.494 143.008 107.553 145.401C106.612 147.792 105.667 150.338 104.956 152.582C104.6 153.706 104.294 154.78 104.079 155.734C105.205 154.239 106.206 152.606 107.101 150.895C107.665 149.28 108.305 147.584 108.948 145.95C109.854 143.648 110.761 141.479 111.455 139.855C111.849 138.565 112.208 137.298 112.542 136.076L110.696 131.809L110.665 131.736L110.619 131.673L101.523 118.869L101.34 118.61L101.027 118.561H101.026C101.025 118.561 101.021 118.561 101.016 118.561C101.01 118.56 101.003 118.558 100.994 118.556C100.986 118.555 100.976 118.553 100.965 118.551C100.918 118.542 100.844 118.528 100.75 118.507C100.561 118.464 100.287 118.394 99.9551 118.288C99.2885 118.075 98.405 117.719 97.5274 117.147C95.7939 116.019 94.0734 114.054 94.0733 110.586C94.0733 106.842 94.5708 105.22 94.9609 104.554C95.1056 104.306 95.2214 104.214 95.2705 104.184L96.1484 104.358L96.0508 103.353L94.6592 89.0615C94.6618 89.0507 94.6648 89.0392 94.6679 89.027C94.6714 89.0136 94.6751 88.9994 94.6787 88.9843L94.6922 88.9284C94.7228 88.802 94.7642 88.6303 94.8164 88.4189C94.9372 87.9299 95.1135 87.2271 95.335 86.374C95.778 84.6668 96.4018 82.3599 97.124 79.958C97.8471 77.5534 98.6653 75.0658 99.4971 72.9931C99.913 71.9568 100.328 71.0355 100.73 70.2851C101.14 69.5231 101.512 68.9849 101.829 68.6758C103.386 67.156 106.576 64.6461 109.413 62.4922C110.824 61.4211 112.136 60.4468 113.095 59.7402C113.574 59.3869 113.966 59.1011 114.237 58.9033C114.305 58.854 114.365 58.81 114.417 58.7718C114.47 58.7334 114.514 58.7008 114.55 58.6748L114.631 58.6162C114.64 58.6095 114.648 58.6049 114.652 58.6015C114.654 58.6006 114.655 58.5997 114.656 58.5989C114.656 58.5984 114.657 58.598 114.657 58.5976L114.658 58.5967L114.906 58.417L114.958 58.1162V58.1142L114.959 58.1093C114.959 58.1074 114.96 58.1049 114.96 58.1021C114.961 58.0983 114.962 58.0938 114.963 58.0888C114.966 58.0715 114.97 58.0463 114.976 58.0136C114.985 57.9563 114.998 57.8759 115.013 57.7755L115.021 57.7304C115.059 57.487 115.111 57.1388 115.168 56.7197C115.281 55.8832 115.414 54.755 115.487 53.5986C115.524 53.0167 115.547 52.4179 115.543 51.8398C114.702 49.5174 113.044 47.6604 110.972 46.3806C110.402 46.1009 109.811 45.8076 109.237 45.5205C109.106 45.4546 108.975 45.3892 108.846 45.3245C105.957 44.1991 102.617 44.0427 99.6262 45.077L105.151 45.1318C105.168 45.1404 105.186 45.1496 105.205 45.1595C105.23 45.1721 105.256 45.1857 105.284 45.2002C105.471 45.2956 105.739 45.4327 106.066 45.5996C106.722 45.9333 107.615 46.3861 108.566 46.8623C110.451 47.8052 112.612 48.8638 113.581 49.251C113.59 49.257 113.649 49.3021 113.728 49.4785C113.823 49.6941 113.904 50.0149 113.96 50.4404C114.071 51.287 114.061 52.3858 113.99 53.5029C113.92 54.6116 113.792 55.7025 113.682 56.5185C113.626 56.9257 113.576 57.2633 113.539 57.498C113.535 57.5208 113.532 57.5426 113.528 57.5634C113.502 57.5824 113.474 57.6028 113.445 57.6246C113.416 57.6456 113.386 57.6679 113.354 57.6914L113.289 57.7387C113.02 57.9348 112.65 58.2046 112.205 58.5322C111.242 59.2418 109.924 60.221 108.506 61.2978C105.684 63.4398 102.417 66.006 100.781 67.6025C100.3 68.0723 99.8414 68.7701 99.4092 69.5752C98.9707 70.3919 98.5322 71.3686 98.1045 72.4345C97.2488 74.567 96.4162 77.1031 95.6875 79.5263C94.9581 81.9521 94.3289 84.2782 93.8828 85.997C93.6597 86.8567 93.4823 87.5656 93.3604 88.0595C93.2994 88.3064 93.2526 88.5 93.2207 88.6318L93.1846 88.7822C93.1822 88.792 93.1801 88.8005 93.1782 88.8077C93.1769 88.813 93.1757 88.8175 93.1748 88.8213C93.1742 88.8237 93.1739 88.8258 93.1735 88.8276C93.1733 88.8289 93.1731 88.8301 93.1729 88.831C93.1726 88.8322 93.172 88.8334 93.1719 88.834V88.8349L93.1426 88.956L93.1553 89.081L94.499 102.898C94.2069 103.075 93.9211 103.362 93.667 103.796ZM94.8205 163.071C94.3298 163.181 93.8695 163.275 93.4561 163.354C92.86 163.469 92.3638 163.553 92.0176 163.608C91.8445 163.636 91.7087 163.656 91.6172 163.669C91.5715 163.676 91.5366 163.68 91.5137 163.684C91.5072 163.684 91.5016 163.685 91.497 163.686C91.4935 163.687 91.4906 163.687 91.4883 163.687L91.4824 163.688H91.4805L91.2012 163.726L91.0147 163.938L90.6945 164.305C91.301 164.145 91.8918 163.95 92.4775 163.741C93.3485 163.931 94.1107 163.533 94.8205 163.071Z" fill="#A55728"/>
<path fill-rule="evenodd" clip-rule="evenodd" d="M96.3092 45.9903C98.698 44.439 101.764 43.8616 104.578 43.9747C106.08 44.0349 107.481 44.4101 108.865 44.9735C110.147 45.496 111.278 46.2465 112.527 46.8184C112.603 46.8531 112.546 46.9598 112.474 46.9452C110.995 46.646 109.259 46.8267 107.759 47.041L107.61 47.0625C106.136 47.277 104.636 47.388 103.183 47.7285C100.507 48.3555 98.0181 49.7219 96.5493 52.0986C94.6315 55.2024 94.1398 59.2202 94.345 62.8013C94.4487 64.6132 94.805 66.3958 95.3599 68.1231C95.693 69.1598 96.4669 70.2028 96.8284 71.2906C97.1036 70.7758 97.3875 70.266 97.6816 69.7624C96.3419 69.1294 95.9662 67.3701 95.8968 65.7824C95.6904 65.5825 95.5576 65.2932 95.5532 65.0275C95.5414 64.3133 95.709 63.6668 95.994 63.0752C96.1568 61.3997 96.5017 59.7291 97.0953 58.159C99.4256 51.9946 105.573 46.4386 112.544 46.9875C114.46 47.1384 116.324 47.954 117.315 49.6879C118.111 51.0803 118.116 52.7599 117.567 54.2408C117.404 54.6804 117.193 55.0773 116.944 55.4394C117.697 55.2479 118.452 55.0642 119.205 54.8822C121.818 54.2507 124.445 53.756 127.121 53.4808C130.765 53.1063 134.484 53.6729 137.823 55.131C138.739 55.3671 139.65 55.6207 140.556 55.8917C144.543 57.0833 148.633 58.6396 151.853 61.3595C153.334 62.6109 154.394 64.0667 155.255 65.6653C158.478 68.5463 161.56 71.812 163.736 75.5479C168.219 83.245 169.289 92.7662 169.473 101.517C169.643 109.555 168.938 117.676 167.436 125.574C166.753 129.159 165.651 132.49 163.42 135.43C160.935 138.704 157.622 141.283 153.904 143.013C146.334 146.536 136.966 147.049 129.608 142.684C127.395 141.371 129.388 137.949 131.623 139.228C138.887 143.383 148.157 142.434 155.146 138.029C158.099 136.168 160.643 133.623 162.26 130.507C163.44 128.231 163.946 125.62 164.385 123.079L164.618 121.719C165.972 113.904 166.585 105.888 166.259 97.9595C165.934 90.0507 164.683 81.4847 160.214 74.761C157.857 71.2146 154.851 68.1077 151.694 65.2748C151.472 65.0757 151.25 64.8774 151.028 64.6798C149.794 63.9365 148.515 63.2874 147.257 62.7335L146.989 62.6174C146.265 62.3081 145.253 61.9086 144.314 61.589C142.971 61.1323 141.607 60.7265 140.237 60.3609C139.519 60.1692 138.797 59.9933 138.074 59.8253C138.326 60.0572 138.577 60.2911 138.823 60.531C139.99 61.6674 140.915 63.018 142.021 64.2096C142.147 64.344 141.989 64.5401 141.83 64.4583C140.148 63.5931 138.282 63.033 136.526 62.3319C134.865 61.6691 133.252 60.9062 131.62 60.1749C131.212 59.9914 130.805 59.7955 130.398 59.6017C128.794 59.6182 127.19 59.656 125.589 59.7475C127.524 61.1283 129.291 62.7601 130.755 64.5496C130.876 64.6969 130.766 64.933 130.563 64.8808C127.499 64.0943 124.585 62.9383 121.672 61.7269L120.279 61.1454C119.255 61.0934 118.229 61.0691 117.203 61.0843L116.706 61.0926C115.629 61.1132 114.554 61.156 113.487 61.3196C113.233 61.3582 112.984 61.395 112.737 61.4288C111.235 62.0434 109.79 62.7844 108.489 63.7611L108.828 63.741C110.884 63.6237 112.981 63.8012 114.972 64.3334C118.842 65.368 122.144 67.8592 124.546 71.0355C124.618 71.1307 124.478 71.263 124.384 71.1983C121.361 69.1239 117.856 68.079 114.264 67.5115C112.528 67.2369 110.74 67.1425 108.987 67.2792C107.536 67.3923 106.034 67.9048 104.59 67.6561C104.197 68.1474 103.819 68.6536 103.455 69.171C103.646 69.1588 103.838 69.1476 104.032 69.1385C106.105 69.0408 108.217 69.1742 110.242 69.6527C114.286 70.609 117.665 73.0429 120.757 75.715C120.818 75.7679 120.739 75.8622 120.673 75.8241C117.32 73.8843 113.424 73.3046 109.626 72.9546C107.713 72.7783 105.779 72.6984 103.862 72.8515C102.984 72.9214 102.116 73.0666 101.24 73.1569C101.169 73.1643 101.096 73.1662 101.023 73.1695C100.388 74.3692 99.8128 75.5904 99.2938 76.8079C100.878 76.3819 102.587 76.1582 104.223 76.2686C107.545 76.4928 110.84 78.0198 113.492 79.9729C113.575 80.034 113.528 80.1967 113.416 80.154C110.529 79.0607 107.668 79.0518 104.655 79.4737C103.243 79.6715 101.845 79.9399 100.481 80.361C99.7945 80.5727 99.1163 80.8037 98.4653 81.1079C98.1697 81.2457 97.8819 81.4063 97.591 81.5578C97.3582 82.35 97.1502 83.1495 96.9625 83.9539C101.886 84.2323 106.525 86.5622 110.562 89.2362C110.66 89.3009 110.599 89.4809 110.478 89.4353C108.068 88.5237 105.447 88.1023 102.891 87.8569C100.655 87.6424 98.4621 87.7591 96.2398 87.8216C96.1207 88.6681 96.0244 89.5171 95.9546 90.3678C96.3119 90.4681 96.6625 90.5764 96.9996 90.678C98.1083 91.0119 99.2149 91.4615 100.249 91.9827C102.351 93.0413 104.054 94.4724 105.767 96.0632C105.856 96.1463 105.763 96.3276 105.642 96.2784C103.653 95.4725 101.48 94.9564 99.387 94.4996C98.3036 94.2634 97.2197 94.0452 96.1287 93.8451C96.0231 93.8257 95.9158 93.8094 95.8087 93.7933C95.7984 95.7328 95.9078 97.6728 96.149 99.597L96.1958 99.9576C96.3265 100.931 96.2196 101.873 95.5764 102.546C96.466 101.953 97.4839 101.543 98.612 101.385C101.583 100.971 104.333 102.161 106.203 104.462C106.29 104.57 106.155 104.711 106.049 104.616C104.235 102.998 101.439 102.712 99.1863 103.474C97.1004 104.179 95.5323 105.863 94.9038 107.97C94.236 110.209 94.5419 112.681 95.7598 114.677C96.3665 115.671 97.2429 116.56 98.3396 116.997C98.475 117.051 98.6128 117.096 98.7522 117.135C99.4142 116.893 100.127 117.003 100.807 117.31L100.896 117.352C101.33 117.349 101.762 117.336 102.182 117.34C103 117.348 103.393 118.218 103.05 118.866C103.245 119.223 103.387 119.625 103.558 119.975C103.867 120.607 104.191 121.235 104.516 121.859C104.975 122.388 105.415 122.935 105.713 123.573C105.835 123.835 105.95 124.119 106.039 124.403C106.295 124.788 106.554 125.172 106.82 125.553C107.681 126.785 108.586 127.952 109.591 129.07C110.195 129.742 110.889 130.342 111.529 130.986C111.722 131.012 111.912 131.144 111.972 131.334L112.024 131.516C112.23 131.749 112.428 131.989 112.605 132.244C112.999 132.81 112.891 133.385 112.545 133.799C113.093 137.226 112.72 140.872 111.987 144.196C111.513 146.343 110.959 148.488 110.217 150.56C109.839 151.613 109.382 152.624 108.75 153.549C108.404 154.056 107.952 154.646 107.446 155.128C107.37 155.69 107.27 156.246 107.126 156.792C105.429 163.259 98.4813 165.228 92.6639 166.054C91.541 166.213 90.4298 165.941 89.8182 164.892C89.6769 164.65 89.5821 164.389 89.5311 164.121C89.2776 164.054 89.0339 163.935 88.8153 163.764C88.7788 164.169 88.7367 164.575 88.6833 164.986C88.5503 166.014 87.1667 166.323 86.8199 165.239C85.3564 160.665 84.5613 155.842 83.5585 151.142C82.5577 146.452 81.4401 141.787 80.406 137.103L79.0967 131.193C75.9019 116.721 72.9094 102.063 73.6439 87.1783C74.0449 79.0531 75.5321 70.9491 78.715 63.4407C81.3666 57.1858 85.8415 50.1586 93.0703 48.8797C93.1201 48.871 93.1644 48.8761 93.2057 48.8867C94.0641 47.7676 95.0898 46.782 96.3092 45.9903ZM100.671 124.66C101.254 126.599 101.67 128.586 101.897 130.615C102.274 133.995 102.087 137.458 101.923 140.848C101.772 143.962 101.414 147.103 100.805 150.161C100.221 153.097 99.3045 155.976 97.9424 158.646C97.7221 159.078 97.4854 159.499 97.2366 159.912C97.9899 159.66 98.67 159.367 99.3783 158.961C100.27 158.449 101.086 157.79 101.532 157.094C102.248 155.978 102.489 154.739 102.594 153.409C102.863 149.989 102.988 146.559 103.159 143.133L103.198 142.387C103.475 137.034 103.84 131.545 103.296 126.187C102.53 125.985 101.839 125.589 101.202 125.093C101.026 124.956 100.849 124.811 100.671 124.66ZM94.8492 118.178C95.0101 119.807 95.164 121.435 95.3034 123.065C95.7977 128.85 96.1032 134.667 95.8222 140.472C95.6759 143.495 95.382 146.526 94.8739 149.511C94.6449 150.856 94.3681 152.201 94.0588 153.531L93.9545 153.974C93.6406 155.292 93.4405 156.94 92.4353 157.898L92.4429 158.097C93.1485 157.023 93.8012 155.816 94.2686 154.692C96.3513 149.686 96.7319 144.235 97.1082 138.897C97.3401 135.607 97.5119 132.313 97.7803 129.025L97.9106 127.443C98.0602 125.602 98.1889 123.775 98.1714 121.935C97.7702 121.336 97.4442 120.705 97.2419 120.058C97.2094 119.954 97.187 119.849 97.1714 119.743C96.3231 119.34 95.5243 118.79 94.8492 118.178ZM106.249 129.634C106.668 131.03 107.009 132.444 107.253 133.864C107.64 136.123 107.873 138.397 107.975 140.679L108.189 139.873C108.727 137.857 109.299 135.838 110.008 133.881C108.887 133.094 107.95 131.858 107.135 130.825C106.83 130.439 106.535 130.041 106.249 129.634ZM90.1911 67.5525C89.7602 68.947 89.3835 70.3573 88.9943 71.7632C88.0798 75.0658 87.4861 78.4588 87.0741 81.8582C85.4304 95.4307 86.7994 109.058 88.5899 122.542C89.3318 128.129 90.1384 133.707 90.8308 139.301C90.8491 138.752 90.8645 138.203 90.8744 137.655C91.0848 125.782 89.0915 114.076 88.2933 102.265L88.2454 101.545C87.8837 96.0227 87.6623 90.3972 88.3171 84.8948C88.654 82.0627 89.2477 79.2912 90.0376 76.5545L90.5079 74.9471C90.8257 73.8663 91.1636 72.7567 91.5644 71.6806C91.5109 71.5774 91.4599 71.4735 91.4124 71.3693C90.8578 70.1468 90.4717 68.8618 90.1911 67.5525ZM91.5798 51.5535C87.4422 56.9013 83.9702 62.5822 81.8696 69.1163C77.062 84.0706 78.1353 100.062 80.9213 115.305C82.2341 122.487 83.927 129.585 85.4717 136.717C83.8182 123.91 81.6859 111.13 81.3465 98.1993C81.1612 91.1419 81.5253 84.0515 82.8221 77.1032L82.8988 76.6946C83.4546 73.7581 84.1431 70.6469 85.5524 68.0079C86.3177 66.575 87.1625 65.2378 88.1643 63.9578C88.5868 63.4181 89.0611 62.9852 89.5644 62.5893C89.4168 58.9028 89.9729 54.9051 91.5798 51.5535ZM98.3303 108.533C100.389 108.614 102.445 109.189 104.066 110.531C105.334 111.58 103.526 113.352 102.268 112.333C100.9 111.225 99.6737 109.966 98.2156 108.958C98.0419 108.837 98.0896 108.523 98.3303 108.533ZM94.9154 103.035C94.4577 103.271 94.003 103.319 93.4846 103.191C93.4656 103.187 93.4474 103.181 93.4295 103.176L93.3235 103.141C93.3689 103.633 93.4165 104.125 93.4637 104.617C93.882 104.027 94.3671 103.492 94.9154 103.035ZM92.8665 73.3418C92.6843 74.8677 92.5656 76.4011 92.5024 77.9368C92.4409 79.4329 92.4153 80.9335 92.4084 82.4347L92.4065 83.0781L92.4092 83.0658C93.1169 80.0389 94.1179 77.0599 95.3963 74.2092C95.1762 74.246 94.9528 74.24 94.7327 74.2134C94.2292 74.1523 93.7464 73.9285 93.3145 73.6666C93.157 73.5711 93.0092 73.4597 92.8665 73.3418ZM113.863 55.6549C112.984 56.0536 112.134 56.5118 111.251 56.9013C109.5 57.674 107.787 58.5722 106.167 59.592C104.527 60.624 102.947 61.7106 101.494 62.9977C101.324 63.1486 101.156 63.3012 100.987 63.4536C100.953 63.7864 100.929 64.1206 100.917 64.4575C100.911 64.6386 100.911 64.828 100.913 65.0226C103.655 61.6184 106.969 58.9326 111.174 57.243C111.902 56.9501 112.643 56.6893 113.391 56.4479C113.569 56.2002 113.728 55.9373 113.863 55.6549ZM113.785 52.3894C113.296 51.7388 111.891 51.7919 111.005 51.9369C109.572 52.1715 108.31 52.6736 107.082 53.4007C105.63 54.2596 104.378 55.4233 103.399 56.792C103.881 56.5194 104.372 56.2622 104.874 56.0233L105.217 55.8606C107.117 54.9679 109.175 54.1192 111.252 53.8424C112.214 53.7143 113.248 53.529 114.219 53.6334C114.171 53.1602 114.031 52.7163 113.785 52.3894Z" fill="black"/>
<path fill-rule="evenodd" clip-rule="evenodd" d="M143.152 128.274C141.732 127.694 140.465 126.727 139.538 125.492C139.216 125.063 139.133 124.61 139.2 124.195C139.276 123.729 139.552 123.306 139.928 123.023C140.305 122.738 140.777 122.598 141.233 122.67C141.63 122.732 142.024 122.949 142.337 123.399L142.402 123.489C142.953 124.235 143.67 124.846 144.488 125.24C145.276 125.62 146.158 125.798 147.07 125.695C148.808 125.498 150.005 124.558 151.278 123.282C151.436 123.121 151.594 122.954 151.752 122.786C151.852 122.632 151.991 122.534 152.146 122.482C152.317 122.425 152.511 122.428 152.689 122.49C152.86 122.55 153.013 122.663 153.116 122.814C153.213 122.958 153.269 123.135 153.251 123.338C153.134 124.661 152.443 125.842 151.461 126.769C150.37 127.798 148.924 128.511 147.563 128.76C146.064 129.036 144.536 128.839 143.152 128.274ZM148.271 107.866C149.866 108.836 152.297 111.098 150.581 113.503C148.56 115.624 145.652 113.192 144.218 112.093C142.889 111.241 141.396 113.432 142.629 114.428C152.986 122.099 157.19 108.12 149.077 106.725C148.184 106.572 147.853 107.566 148.271 107.866ZM129.711 98.9426C129.887 96.7538 133.219 96.2568 133.551 98.4227C133.847 100.363 133.498 102.145 132.624 103.892C131.79 105.561 129.692 104.782 129.533 103.263C129.32 101.226 129.601 100.304 129.711 98.9426ZM155.076 97.9736C155.541 97.3649 156.211 96.9494 157.015 97.1842C159.526 97.9182 158.786 101.484 157.904 103.22C157.425 104.163 155.876 104.402 155.176 103.572C154.035 102.218 153.489 99.5154 154.939 98.1822C154.979 98.1133 155.022 98.0438 155.076 97.9736ZM132.589 89.3651L132.986 89.2957C134.213 89.0834 135.738 88.8794 136.606 89.8662C137.067 90.3895 137.225 91.3622 136.606 91.8631C135.518 92.7444 134.314 92.4028 133.01 92.4775C131.935 92.5392 130.902 92.7171 129.867 93.0132C127.595 93.6627 125.744 94.8484 123.804 96.1503C123.549 96.3211 123.29 95.9954 123.411 95.7572C124.531 93.5627 126.701 91.7601 128.875 90.6613C130.036 90.0748 131.305 89.5883 132.589 89.3651ZM152.787 88.3821L153.091 88.4442C156.394 89.1351 160.687 90.515 162.251 93.7613C162.311 94.2203 162.248 94.3187 162.196 94.3829L162.179 94.4043C162.137 94.4592 162.104 94.5349 161.905 94.5974C161.849 94.5842 161.794 94.5703 161.737 94.5555C161.02 94.3675 160.453 94.1085 159.904 93.8398L159.308 93.5462C158.617 93.2073 157.92 92.8807 157.181 92.6396C155.605 92.1252 153.983 91.7628 152.337 91.5693C151.98 91.5274 151.636 91.4069 151.365 91.2004C151.107 91.0044 150.911 90.733 150.821 90.3722C150.705 89.9053 150.738 89.5518 150.989 89.1306C151.177 88.8143 151.447 88.5951 151.756 88.4692C152.071 88.3408 152.43 88.3106 152.787 88.3821Z" fill="black"/>
<path fill-rule="evenodd" clip-rule="evenodd" d="M169.071 112.228C168.371 111.288 167.112 110.053 165.839 110.12C165.676 110.128 165.615 110.305 165.713 110.424C166.129 110.933 166.698 111.295 167.115 111.814C167.609 112.429 167.966 113.17 168.197 113.92C168.534 115.009 168.627 116.241 168.327 117.349C167.798 119.301 166.125 120.732 164.3 121.462C162.494 122.185 160.32 122.432 158.612 121.373C156.091 119.808 153.952 117.553 150.783 117.509C150.041 117.498 149.519 117.838 149.208 118.323C148.895 117.855 148.379 117.525 147.656 117.516C144.104 117.476 141.452 119.923 138.47 121.448C136.454 122.479 133.847 122.159 131.768 121.478C129.806 120.836 127.678 119.546 126.938 117.509C126.529 116.384 126.621 115.071 127.04 113.962C127.316 113.233 127.742 112.529 128.268 111.956C128.814 111.362 129.532 110.988 130.092 110.424C130.206 110.309 130.116 110.13 129.966 110.12C127.59 109.959 125.444 112.797 124.996 114.856C124.554 116.883 125.213 118.906 126.546 120.453C129.257 123.599 134.277 124.636 138.184 123.712C141.347 122.964 144.351 121.241 147.656 121.488C148.381 121.542 148.901 121.24 149.215 120.782C149.53 121.254 150.053 121.562 150.783 121.491C153.864 121.193 156.614 123.376 159.605 123.909C161.986 124.333 164.558 123.761 166.598 122.477C168.731 121.136 170.232 118.984 170.331 116.419C170.388 114.943 169.955 113.416 169.071 112.228Z" fill="black"/>
<path fill-rule="evenodd" clip-rule="evenodd" d="M159.889 92.1489C164.848 92.1489 167.678 93.2157 168.715 93.2988L168.746 93.3011C169.177 93.3287 169.564 93.3647 169.97 93.5218C171.463 94.0969 171.706 95.6631 170.835 96.6502C170.774 98.6926 171.042 101.079 170.582 103.128C170.013 111.766 165.953 113.224 163.644 113.756C162.486 114.023 161.112 114.129 159.881 113.847C157.781 113.769 155.705 113.111 153.929 111.966C151.455 110.37 149.618 107.917 149.021 105.005C148.739 103.618 148.607 102.173 148.761 100.762L148.783 100.568C147.979 100.183 147.048 100.11 146.087 100.076C145.628 100.06 145.176 100.046 144.737 100.065C144.307 100.113 143.883 100.177 143.457 100.264C142.992 100.404 142.554 100.636 142.148 101.002L142.12 101.538C142.044 102.875 141.869 104.216 141.598 105.527C141.198 107.463 140.556 109.311 139.188 110.684C138.725 111.376 138.152 111.994 137.456 112.528C134.929 114.475 131.496 115.189 128.345 114.92C121.949 114.374 118.252 109.294 117.4 107.123L117.349 106.992C116.733 105.377 116.243 103.283 114.298 102.936L113.884 102.862C112.996 102.695 112.177 102.463 111.657 101.597C111.429 101.219 111.312 100.796 111.283 100.364C110.979 100.388 110.676 100.41 110.374 100.432C107.964 100.942 93.5071 101.374 92.3532 101.374C92.3532 101.374 90.1351 102.308 89.1986 101.584C88.5495 101.081 88.3359 100.411 88.6933 99.6508C89.2324 98.5077 91.7198 97.8201 92.8243 97.6023C92.8243 97.6023 110.648 97.7504 111.931 97.5071C112.724 96.6884 114.144 96.8004 115.33 96.671C116.313 95.9704 117.686 95.5012 118.772 95.1871C118.993 95.1033 119.212 95.0222 119.425 94.9458C121.414 94.237 123.482 93.8616 125.582 93.6599C127.747 93.4541 129.919 93.5473 132.071 93.8422C132.978 93.9653 133.877 94.1245 134.769 94.3327C136.366 94.5434 137.955 94.8904 139.553 95.3021L139.873 95.3853C141.556 95.8267 143.285 96.2085 145.028 95.9093C146.446 95.6673 147.81 95.1212 149.118 94.5307L149.288 94.4534C152.163 93.14 156.654 92.1489 159.889 92.1489ZM134.596 96.9513C133.535 96.7179 133.082 98.3543 134.146 98.5884C134.9 98.7542 135.539 99.1344 135.97 99.7785L136.016 99.8486C136.595 100.77 138.059 99.9194 137.476 98.9916C136.82 97.9475 135.8 97.2162 134.596 96.9513ZM165.67 95.9367C165.296 95.6731 164.73 95.8688 164.513 96.2412C164.274 96.6513 164.431 97.108 164.781 97.3763L164.817 97.4025C165.138 97.629 165.451 98.0351 165.49 98.4512L165.494 98.5033C165.536 99.5922 167.228 99.5977 167.185 98.5033C167.144 97.4326 166.524 96.5381 165.67 95.9367Z" fill="black"/>
</svg>
