<svg width="260" height="324" viewBox="0 0 260 324" fill="none" xmlns="http://www.w3.org/2000/svg">
<path fill-rule="evenodd" clip-rule="evenodd" d="M136.512 128.859C147.848 128.047 163.389 130.295 166.668 143.225C167.685 147.931 169.688 149.996 173.054 153.073C194.419 180.429 119.876 185.028 116.044 158.352C107.971 161.293 99.1834 161.916 91.1056 164.889C86.7246 166.508 82.7519 169.062 78.945 171.734C63.4213 182.764 48.1173 194.109 32.6489 205.218C38.6348 207.975 50.0153 218.503 45.378 225.578C44.2977 226.956 42.6942 227.906 41.2758 228.914L40.5278 229.448C38.9187 230.601 36.2099 232.568 34.712 233.636L34.4357 233.837C34.3274 233.916 34.2052 234.004 34.0948 234.083C44.8969 249.882 57.539 264.46 71.5621 277.475C72.7562 278.586 72.2671 281.068 70.5389 281.358L68.4801 281.66C61.8322 282.628 55.058 283.5 48.3588 282.974C41.8342 282.264 37.9025 276.486 33.4422 272.301C24.5354 263.194 16.2442 253.479 8.69223 243.216L8.53499 242.999C6.18458 239.786 3.06485 236.502 2.83653 232.353C2.42012 231.106 3.51597 229.318 4.56892 228.468L4.9284 227.949C10.5759 219.824 16.9675 211.988 24.9753 206.103C24.9455 205.226 25.3507 204.305 26.1531 203.724L59.6196 179.495C68.2545 173.551 76.2803 166.564 85.6399 161.764C95.2103 157.154 106.011 156.973 115.818 153.126C116.026 150.353 121.854 149.645 121.669 150.073C127.818 146.361 130.983 141.943 131.959 137.883C132.936 133.824 131.722 130.121 136.512 128.859ZM219.272 215.845C229.62 200.268 239.484 217.502 243.792 227.89C248.882 242.105 238.341 259.591 231.532 271.845C229.024 275.248 225.725 282.427 221.304 282.947C210.166 282.901 199.012 282.117 187.868 281.883C180.671 280.097 190.768 269.279 197.742 273.23C199.855 274.021 200.911 276.421 202.972 277.191C203.722 277.352 203.774 277.017 204.079 276.269L204.123 276.164C204.667 274.87 205.195 273.569 205.731 272.271C210.269 261.093 215.066 250.013 219.835 238.938C220.854 236.534 219.425 234.553 217.567 233.122C216.145 231.95 210.03 229.091 215.791 230.35C213.573 225.198 216.239 219.97 219.272 215.845ZM193.58 194.522C194.576 194.397 195.856 195.402 196.009 196.375C197.28 204.441 195.864 212.416 194.167 220.306L193.854 221.751C193.228 224.629 192.528 227.564 190.967 230.086C189.373 232.66 186.962 234.601 184.195 235.78C175.316 239.319 164.274 235.819 157.743 229.202C153.565 223.476 157.238 216.284 157.939 210.008C157.276 208.318 157.032 206.362 156.649 204.618L156.602 204.41L155.113 197.906C154.785 196.472 155.829 194.509 157.547 194.706C169.52 196.08 181.621 196.018 193.58 194.522Z" fill="#D08B5B"/>
<rect x="154.436" y="194.865" width="42.0423" height="42.2701" fill="#FDEA6B"/>
<path fill-rule="evenodd" clip-rule="evenodd" d="M235.394 213.807C235.358 213.646 235.55 213.524 235.675 213.644C237.781 215.675 239.268 218.271 240.901 220.676C242.456 222.967 244.149 225.169 245.309 227.697C246.386 230.047 247.081 232.431 247.288 235.014C247.495 237.578 247.227 240.148 246.775 242.673C245.885 247.648 243.984 252.359 241.897 256.935C239.867 261.383 237.574 265.705 235.153 269.948L234.285 271.463C233.226 273.308 232.156 275.148 231.01 276.935C229.584 279.159 228.282 281.454 226.402 283.31C225.067 284.63 222.551 283.31 223.159 281.422C223.423 280.6 223.63 279.826 224.04 279.063C224.351 278.482 224.701 277.918 225.031 277.345C225.69 276.2 226.343 275.05 227.002 273.904C228.386 271.497 229.844 269.134 231.215 266.719C233.594 262.53 235.84 258.262 237.825 253.871L238.059 253.352C239.886 249.285 241.618 245.073 242.421 240.674C243.266 236.039 242.509 231.67 240.863 227.314C240.012 225.061 239.055 222.859 238.06 220.665L237.869 220.246C236.908 218.152 235.889 216.07 235.394 213.807ZM133.109 133.637C133.128 133.555 133.267 133.549 133.28 133.637C133.871 137.573 132.555 141.736 130.411 145.01C129.24 146.798 127.797 148.413 126.097 149.711L125.964 149.811C124.227 151.11 121.879 152.365 119.723 151.522C119.655 151.496 119.592 151.467 119.532 151.433C119.775 151.809 119.999 152.205 120.228 152.6C120.906 153.777 121.514 154.997 122.175 156.184C123.359 158.308 124.768 160.208 126.549 161.872C133.67 168.522 143.67 170.102 153.061 170.026L153.725 170.02C157.85 169.991 163.245 170.202 166.43 167.215C168.141 165.611 169.083 163.33 169.935 161.189C170.771 159.09 171.344 156.924 172.039 154.789C170.587 153.794 169.256 152.579 168.211 151.158C167.12 149.679 166.297 148.014 165.821 146.236L165.751 145.971C165.383 144.553 165.014 142.678 165.606 141.339C165.673 141.185 165.927 141.195 165.999 141.339C166.318 141.98 166.379 142.702 166.575 143.387C166.804 144.184 167.061 144.976 167.401 145.731C168.059 147.194 168.927 148.584 169.968 149.802C170.828 150.81 171.76 151.735 172.825 152.513C173.452 151.429 174.908 151.283 176.127 151.64C177.761 152.118 179.373 152.731 180.948 153.379L181.263 153.509C182.82 154.155 184.58 154.749 186.037 155.631C186.923 156.053 187.772 156.478 188.57 156.854C192.55 158.724 196.47 160.709 200.373 162.731L201.209 163.165C202.844 164.017 204.464 164.877 205.886 166.065C207.333 167.274 208.457 168.927 209.513 170.476C211.928 174.018 214.204 177.662 216.591 181.223C221.412 188.409 226.233 195.595 231.082 202.764C232.254 204.499 233.577 206.192 234.629 208.001C235.637 209.73 235.609 211.505 235.413 213.435L235.376 213.789C234.999 217.329 234.352 220.728 232.366 223.764C229.242 228.536 224.319 231.507 219.111 233.553C219.747 234.027 220.345 234.538 221.104 234.864C222.27 235.363 223.514 235.621 224.775 235.724C226.121 235.832 227.638 235.496 228.728 236.411C229.166 236.776 229.178 237.656 228.728 238.021C227.68 238.877 226.326 238.632 225.048 238.488L224.972 238.48C223.787 238.349 222.618 238.129 221.505 237.694C221.23 237.586 220.958 237.465 220.694 237.332C220.702 237.356 220.706 237.383 220.702 237.413C220.512 238.869 220.1 240.246 219.664 241.637L219.388 242.519C218.826 244.32 218.26 246.116 217.677 247.913C216.567 251.332 215.359 254.72 214.146 258.103L213.099 261.023C212.023 264.018 210.934 267.009 209.731 269.954C208.987 271.772 208.24 273.589 207.494 275.405C206.765 277.178 206.159 279.093 205.254 280.782C204.511 282.172 202.482 281.177 202.808 279.748C203.235 277.874 204.04 276.014 204.654 274.19C205.28 272.338 205.892 270.485 206.528 268.637C207.634 265.428 208.859 262.262 210.09 259.099L211.31 255.963C212.507 252.891 213.718 249.821 215.013 246.788L215.154 246.456C216.499 243.284 217.887 239.717 220.33 237.259C220.362 237.225 220.406 237.208 220.451 237.203C219.851 236.878 219.289 236.483 218.794 236.016L218.77 235.991C218.575 235.784 217.768 234.764 217.508 234.154C217.17 234.274 216.832 234.39 216.494 234.504C215.904 234.703 215.416 234.559 215.072 234.244L214.416 234.651C213.715 235.079 212.961 235.485 212.186 235.506C211.21 235.532 210.443 234.993 209.921 234.198C209.452 233.488 209.173 232.721 208.58 232.084C207.996 231.459 207.32 230.931 206.63 230.428L205.816 229.835C204.324 228.745 202.877 227.644 201.675 226.205C201.071 225.478 200.262 224.615 199.894 223.742C199.823 223.574 199.778 223.415 199.77 223.261C199.69 223.806 199.607 224.353 199.525 224.899C198.371 232.573 197.44 240.3 197.142 248.06C196.996 251.888 196.93 255.72 197.101 259.549C197.186 261.462 197.325 263.373 197.518 265.279C197.613 266.234 197.712 267.188 197.828 268.139L197.855 268.359C197.889 268.65 197.911 268.932 197.885 269.2C198.815 269.658 199.349 270.817 199.721 271.721C200.004 272.41 199.785 273.08 199.328 273.564C199.873 274.061 200.359 274.644 200.767 275.312C200.849 275.447 200.672 275.553 200.566 275.468C199.897 274.936 199.176 274.498 198.424 274.162C198.029 274.312 197.598 274.352 197.201 274.243C196.77 274.124 196.398 273.837 196.13 273.471C193.994 273.12 191.773 273.549 189.851 274.887C189.451 275.166 189.09 275.481 188.746 275.823C188.687 275.883 188.625 275.959 188.564 276.033L188.984 276.194C189.157 276.26 189.3 276.311 189.354 276.322C189.721 276.397 190.092 276.437 190.464 276.469L191.021 276.515C193.161 276.692 195.295 276.751 197.285 277.647C197.704 277.835 197.558 278.48 197.163 278.588C195.71 278.982 194.267 278.952 192.788 278.846L192.471 278.822C191.095 278.717 189.618 278.723 188.277 278.343C188.598 279.222 188.161 280.37 186.819 280.549C182.79 281.086 178.736 280.833 174.703 280.477C170.63 280.118 166.559 279.778 162.475 279.565C149.265 278.869 136.035 279.003 122.813 279.192L115.342 279.3C109.383 279.384 103.424 279.449 97.4652 279.404L94.6762 279.378C93.4975 279.366 92.3181 279.352 91.1408 279.317L90.4346 279.294C89.0318 279.243 87.1747 279.454 85.9557 278.624C84.9501 277.939 84.7261 276.684 85.3325 275.671C85.5078 275.38 85.7487 275.12 86.0001 274.866C86.5156 270.46 86.805 266.032 87.1008 261.606C88.1275 246.118 87.5275 230.711 85.1592 215.379C78.8043 217.322 72.5466 219.759 66.4494 222.373C63.1515 223.787 59.8705 225.254 56.6275 226.792C53.6677 228.198 50.6951 229.954 47.5325 230.867C47.245 231.122 46.843 231.244 46.4865 231.131L46.4402 231.114H46.4381C46.1128 231.19 45.7515 231.144 45.3966 230.931C45.3247 230.887 45.2529 230.843 45.1811 230.798L45.0733 230.73C43.9599 230.028 42.8402 229.164 42.0522 228.107C41.0951 228.995 40.0663 229.808 39.0543 230.633C37.9557 231.529 36.8613 232.429 35.7754 233.338C35.3444 233.699 34.8691 234.044 34.4888 234.46L34.4336 234.521C34.4247 234.531 34.4163 234.541 34.4085 234.551C36.0543 235.616 37.4951 237.233 38.786 238.638C40.1721 240.147 41.5103 241.703 42.8376 243.266L44.1225 244.782C53.2083 255.515 62.3871 266.637 74.1501 274.526C76.0092 275.773 74.2367 278.81 72.3902 277.535C68.8958 275.128 65.5895 272.455 62.4142 269.641C56.8494 264.715 51.8423 259.188 47.1543 253.429C44.7818 250.514 42.4789 247.528 40.2226 244.522L39.4568 243.503C38.4363 242.143 37.4212 240.779 36.4494 239.385L36.246 239.092C35.3936 237.862 34.4871 236.479 33.9374 235.062C33.7261 235.276 33.4874 235.455 33.1388 235.591C32.543 235.823 31.812 235.335 31.6663 234.754C31.3113 233.344 32.5367 232.505 33.5339 231.757C34.7444 230.852 35.9782 229.979 37.2142 229.111L37.6556 228.799C39.2012 227.702 40.7548 226.577 42.4388 225.71C42.4895 225.643 42.5508 225.579 42.6205 225.524C42.7008 225.461 42.7789 225.399 42.8592 225.338C40.848 222.075 38.6423 218.938 36.1811 215.975C34.3304 213.746 32.3656 211.617 30.2867 209.601L29.3528 208.696C27.9402 207.332 26.4714 205.947 24.9036 204.761L24.4128 205.318C23.7574 206.059 23.0956 206.795 22.3958 207.492C21.0184 208.861 19.6599 210.259 18.3078 211.655C16.0623 213.98 13.8929 216.375 11.7304 218.774L10.6494 219.974C8.39726 222.474 5.98458 224.928 3.9374 227.599L3.83516 227.735C2.9414 228.934 2.30518 230.261 2.7205 231.784C3.12122 233.253 4.07397 234.555 4.89518 235.823L4.97683 235.95C8.32965 241.175 11.9212 246.266 15.7684 251.138C23.4733 260.896 32.262 270.144 42.7494 276.929C44.2029 277.869 42.8444 280.207 41.3888 279.256C35.2642 275.251 29.6381 270.441 24.462 265.275C19.7106 260.534 15.405 255.314 11.3698 249.956C9.40289 247.342 7.51838 244.673 5.71205 241.944C3.96064 239.296 1.93458 236.572 0.664862 233.651C-0.000578551 232.114 -0.245701 230.451 0.299369 228.832C0.799241 227.344 1.78781 226.108 2.81623 224.946L2.91275 224.837C5.27683 222.181 7.68317 219.556 10.1106 216.956C12.5466 214.348 15.0944 211.833 17.6951 209.392C19.7381 207.471 21.8677 205.778 24.1451 204.209C23.9402 204.064 23.7353 203.924 23.5261 203.789C22.8902 203.375 22.7297 202.489 23.2874 201.927C24.8106 200.388 26.5663 199.05 28.2184 197.649C29.7712 196.332 31.324 195.014 32.8768 193.695C36.0374 191.015 39.198 188.333 42.3585 185.651C48.0353 180.834 53.6804 175.984 59.3381 171.146C61.6973 169.129 64.0784 167.138 66.4535 165.14L70.6732 161.588L72.737 159.854C73.7944 158.968 74.8744 158.092 76.0768 157.417C78.9062 155.827 82.3078 155.139 85.4251 154.296L85.6325 154.24C89.129 153.283 92.6444 152.382 96.1789 151.579C99.7177 150.776 103.271 150.045 106.84 149.383C110.047 148.787 113.33 148.276 116.6 148.2C117.411 147.891 118.43 147.783 119.228 148.113C119.558 148.25 119.902 148.451 120.209 148.705C121.808 148.142 123.386 147.874 124.88 146.923C126.371 145.974 127.692 144.727 128.803 143.353C131.099 140.509 132.301 137.148 133.109 133.637ZM169.871 229.969C168.604 229.88 167.463 230.404 166.33 230.962C166.968 231.239 167.606 231.514 168.244 231.786L172.491 233.6C173.894 234.198 175.379 234.718 176.712 235.455C176.807 235.508 176.883 235.572 176.94 235.646C178.326 234.758 179.792 233.966 181.197 233.122C181.518 232.93 181.842 232.738 182.165 232.545C180.492 233.105 178.776 233.386 176.959 232.86C174.536 232.161 172.432 230.149 169.871 229.969ZM173.344 225.716L173.117 225.562C171.887 224.718 170.42 223.633 168.927 224.391C168.223 224.749 167.647 225.326 166.954 225.71C166.256 226.099 165.49 226.397 164.712 226.577C163.421 226.875 161.942 226.919 160.554 226.631L160.575 228.508C161.625 228.942 162.669 229.386 163.713 229.834C164.39 229.602 165.042 229.323 165.728 229.018L166.191 228.811C167.511 228.217 168.844 227.82 170.304 228.008C173.053 228.36 175.13 230.404 177.758 231.085C180.98 231.922 183.887 229.517 186.931 228.923C187.433 228.824 187.95 228.766 188.465 228.757L188.636 228.756L188.712 228.711C189.367 228.327 190.347 227.959 190.804 227.312C191.3 226.611 191.342 225.435 191.505 224.611C191.522 224.529 191.539 224.444 191.554 224.362C191.266 224.362 190.975 224.376 190.679 224.431C189.749 224.603 188.875 224.932 188.009 225.3C186.371 225.995 184.77 226.788 183.046 227.251C181.358 227.705 179.594 227.921 177.855 227.669C176.159 227.424 174.749 226.659 173.344 225.716ZM173.609 219.118L173.354 218.954C172.683 218.525 171.913 218.081 171.09 218.239C170.355 218.381 169.723 218.966 169.083 219.327C167.678 220.12 166.102 220.553 164.494 220.663C163.157 220.754 161.769 220.591 160.482 220.194L160.527 224.349C160.998 224.499 161.486 224.607 161.999 224.645C163.559 224.761 165.08 224.387 166.387 223.527L167.049 223.088C168.181 222.343 169.243 221.753 170.742 222.024C172.225 222.295 173.469 223.246 174.682 224.074L174.881 224.208C176.273 225.128 177.685 225.721 179.393 225.736C181.237 225.75 183.061 225.237 184.778 224.605C186.483 223.979 188.104 223.229 189.927 222.999C190.485 222.929 191.165 222.908 191.805 223.018C191.889 222.546 191.97 222.077 192.046 221.606C192.211 220.593 192.352 219.583 192.475 218.571C189.24 217.7 186.253 220.517 183.249 221.386C181.506 221.889 179.609 221.883 177.866 221.396C176.253 220.946 174.985 220.012 173.609 219.118ZM173.617 212.12C172.926 211.987 172.244 212.306 171.656 212.634C170.159 213.465 168.866 214.621 167.169 215.058C164.987 215.62 162.599 215.136 160.432 214.217C160.44 215.5 160.451 216.783 160.461 218.066C160.869 218.22 161.287 218.345 161.714 218.444C163.231 218.791 164.839 218.744 166.332 218.307C167.856 217.86 169.024 216.656 170.551 216.28C172.113 215.894 173.586 216.645 174.844 217.498L175.223 217.757C176.662 218.734 178.058 219.582 179.858 219.748C181.761 219.923 183.416 219.327 185.116 218.537L185.512 218.354C187.665 217.364 190.46 216.238 192.61 217.364C192.779 215.766 192.901 214.169 192.984 212.568C192.688 212.458 192.382 212.378 192.029 212.376C191.186 212.372 190.301 212.638 189.515 212.915C187.797 213.522 186.198 214.426 184.497 215.075C182.885 215.692 181.1 216.013 179.38 215.737C177.787 215.481 176.592 214.648 175.491 213.507L175.331 213.338C174.848 212.824 174.332 212.259 173.617 212.12ZM174.878 206.188C174.082 205.767 173.112 205.376 172.191 205.499C171.312 205.615 170.726 206.211 170.185 206.849L169.892 207.198C168.924 208.344 167.971 209.307 166.478 209.779C164.932 210.265 163.292 210.074 161.854 209.362C161.342 209.109 160.867 208.794 160.389 208.483L160.415 211.854C161.37 212.329 162.342 212.759 163.409 213.019C165.378 213.498 167.051 213.143 168.735 212.057L168.911 211.942C170.18 211.109 171.48 210.117 173.047 210.024C174.575 209.932 175.723 210.78 176.729 211.818L176.847 211.941C178.117 213.28 179.399 213.934 181.288 213.779C183.119 213.63 184.833 212.821 186.51 212.124L186.663 212.061C188.197 211.431 189.965 210.782 191.649 211.023C192.052 211.08 192.574 211.205 193.039 211.423C193.106 209.846 193.138 208.267 193.144 206.687C192.187 205.856 190.698 205.719 189.5 206.059C187.624 206.591 186.088 207.965 184.297 208.711C182.708 209.373 181.051 209.521 179.431 208.895C177.758 208.248 176.446 207.016 174.878 206.188ZM193.039 199.547C190.235 199.644 187.493 201.468 184.816 202.164C181.826 202.94 179.386 201.882 176.722 200.707L176.378 200.555C175.011 199.955 173.543 199.416 172.028 199.661C170.551 199.902 169.246 200.72 167.976 201.46L167.733 201.6C165.42 202.917 163.064 203.819 160.364 203.594C160.379 204.442 160.373 205.287 160.375 206.116C160.818 206.369 161.245 206.657 161.651 206.919L161.796 207.011C163.084 207.817 164.411 208.346 165.946 207.849C167.429 207.367 168.126 206.076 169.144 205.013C170.08 204.036 171.301 203.443 172.67 203.499C174.143 203.558 175.535 204.207 176.752 205C177.969 205.793 179.146 206.817 180.57 207.215C183.764 208.102 186.5 204.723 189.521 204.197C190.789 203.975 192.187 204.256 193.144 205.021C193.134 203.199 193.094 201.373 193.039 199.547ZM168.908 198.782C168.513 198.797 168.118 198.814 167.723 198.831C166.261 198.894 164.799 198.966 163.337 199.048C162.325 199.103 161.08 199.414 160.087 199.105C160.062 199.207 160.028 199.304 159.984 199.399C160.134 200.147 160.227 200.921 160.284 201.703C161.201 201.802 162.132 201.768 163.037 201.58C165.206 201.13 166.968 199.761 168.908 198.782ZM192.997 198.154C187.658 198.522 182.278 198.396 176.931 198.511L176.29 198.526C176.264 198.526 176.239 198.529 176.213 198.529C176.827 198.766 177.435 199.039 178.041 199.316L178.647 199.594C180.08 200.253 181.537 200.792 183.141 200.676C184.859 200.551 186.477 199.85 188.082 199.283C189.614 198.742 191.378 198.378 193.011 198.615C193.007 198.461 193.003 198.309 192.997 198.154Z" fill="black"/>
<path fill-rule="evenodd" clip-rule="evenodd" d="M148.633 53.9492C160.604 53.9492 178.125 61.9629 179.443 69.6728C180.996 78.7587 184.444 112.924 182.567 124.105C180.689 135.285 173.368 143.546 157.177 143.546C140.986 143.546 128.901 134.694 126.127 131.655C123.352 128.616 119.99 119.158 119.99 119.158C119.99 119.158 111.125 117.651 111.084 110.567C111.043 103.483 115.537 101.294 115.537 101.294C115.537 101.294 113.112 71.9058 118.21 64.6271C123.308 57.3483 136.663 53.9492 148.633 53.9492Z" fill="#D08B5B"/>
<path fill-rule="evenodd" clip-rule="evenodd" d="M145.175 37.4121C147.376 37.448 149.595 37.5311 151.804 37.7128C151.907 37.7023 152.013 37.6931 152.116 37.6826C156.273 37.2829 160.424 37.6427 164.58 37.8183C168.538 37.9853 172.719 38.3952 176.274 40.2949C176.731 40.5387 177.118 40.816 177.449 41.1249C177.912 41.1902 178.353 41.3226 178.75 41.5439C179.895 41.312 181.172 41.8259 181.443 43.1572C181.837 45.1079 181.988 47.0753 181.751 49.0537C181.745 49.0998 181.74 49.1485 181.734 49.1992C182.212 51.0345 182.18 53.0393 181.783 54.8496C181.95 57.1368 182.046 59.4307 182.059 61.7206C182.068 63.3047 182.139 64.9176 181.992 66.497C181.862 67.8855 181.292 68.9844 180.395 70.039C180.226 70.2373 179.941 70.2706 179.704 70.2226C179.642 70.2101 179.588 70.1929 179.54 70.1728C180.08 71.335 180.508 72.5684 180.946 73.746C181.641 75.6185 182.316 77.5227 182.794 79.4628C183.764 83.3747 184.404 87.3614 184.775 91.3749C185.43 98.5162 185.676 105.719 185.803 112.888C185.925 119.68 185.329 126.765 181.468 132.573C178.093 137.654 172.954 141.342 167.23 143.333C163.973 144.468 160.366 144.889 156.925 144.992C155.148 145.045 153.366 144.969 151.599 144.785C149.885 144.605 148.112 144.624 146.86 143.322C146.516 142.965 146.521 142.231 147.029 141.999C147.996 141.557 148.652 141.511 149.712 141.657C150.591 141.777 151.473 141.872 152.358 141.934C154.255 142.067 156.166 142.071 158.063 141.925C161.55 141.656 165.117 140.67 168.284 139.174C173.249 136.824 177.514 132.972 179.816 127.919C182.491 122.054 182.318 115.259 182.194 108.957C182.057 102.046 181.802 95.1554 181.204 88.2675C180.913 84.9283 180.463 81.6124 180.058 78.288C179.845 76.5211 179.565 74.7621 179.221 73.0165C179.04 72.0927 178.804 71.1818 178.61 70.2646C178.469 70.2876 178.325 70.3004 178.178 70.3066C177.297 70.3364 176.333 70.1208 175.679 69.4931C175.429 69.6642 175.11 69.7719 174.727 69.791C171.103 69.9704 167.422 69.7491 163.791 69.747C160.148 69.7449 156.503 69.7472 152.858 69.7578C149.217 69.7681 145.566 69.8022 141.927 69.705C138.539 69.6141 135.037 69.6877 131.694 69.0663C130.57 73.0693 130.61 77.4678 132.953 81.0439C133.614 82.0519 133.076 83.2393 132.214 83.8691C131.333 84.5118 129.749 85.4973 128.393 85.5986C128.262 85.8943 128.127 86.189 127.998 86.4824C127.352 87.9603 126.769 89.4479 126.361 91.0126C126.151 91.819 125.97 92.639 125.818 93.4638C125.83 93.6079 125.843 93.7518 125.858 93.8955C125.858 93.9102 125.861 93.9254 125.863 93.9423C125.871 94.0017 125.881 94.0694 125.887 94.1074C125.965 94.5215 126.041 94.9356 126.123 95.3476C126.32 96.3515 126.472 97.3644 126.58 98.3808C126.776 100.241 126.756 102.659 124.948 103.76C123.98 104.349 122.82 104.288 121.797 103.893C121.11 103.626 120.526 103.251 119.894 102.881C119.519 102.661 119.126 102.481 118.759 102.253C118.658 102.19 118.562 102.113 118.471 102.033C117.786 102.179 117.118 102.452 116.743 102.638C115.737 103.139 114.853 103.864 114.102 104.696C112.507 106.469 112.028 108.968 112.251 111.286C112.46 113.444 113.306 115.923 115.007 117.358C115.747 117.983 116.671 118.349 117.647 118.339C118.127 118.335 118.57 118.233 119.034 118.11C119.491 117.99 120.056 118.025 120.478 117.856C121.104 117.605 121.875 118.372 121.621 119.002C121.429 119.475 121.319 119.894 121.079 120.264C122.824 123.121 124.737 125.89 126.771 128.547C128.605 130.939 130.764 132.951 132.804 135.143C133.705 136.11 134.08 138.018 132.451 138.432C130.825 138.848 129.61 137.098 128.676 136.035C124.808 131.624 121.885 126.559 120.516 120.843C119.899 121.282 119.189 121.521 118.443 121.625C116.957 121.83 115.454 121.537 114.151 120.782C109.217 117.927 108.025 110.21 110.335 105.374C110.893 104.21 111.715 103.17 112.718 102.363C112.639 102.212 112.609 102.034 112.66 101.844C112.749 101.51 112.847 101.179 112.95 100.851C112.837 100.8 112.754 100.697 112.77 100.543C112.863 99.5918 112.954 98.6405 113.044 97.6894C113.013 96.2524 112.943 94.8175 112.959 93.372C112.985 91.0683 113.125 88.7665 113.133 86.4628C113.161 78.4273 113.487 70.3997 113.51 62.3642C113.523 58.4351 113.531 54.5 113.428 50.5732C113.426 50.5204 113.426 50.4697 113.424 50.4169C113.34 47.2742 112.509 43.0685 115.575 41.0351C116.078 40.7015 116.706 40.6966 117.254 40.9121C118.831 39.811 120.809 39.281 122.7 38.9746C126.303 38.3914 129.938 38.11 133.566 37.7402C135.459 37.5479 137.451 37.4743 139.357 37.5165C141.284 37.5588 143.236 37.3825 145.175 37.4121ZM115.954 107.746C116.643 107.089 117.672 107.24 118.517 107.396C119.693 107.614 120.837 108.13 121.828 108.792C122.894 109.504 124.212 110.491 124.422 111.842C124.614 113.082 123.383 114.45 122.116 113.619C120.942 112.848 120.37 111.434 119.361 110.466C118.865 109.992 118.329 109.576 117.762 109.195C117.505 109.022 117.252 108.829 116.972 108.696C116.944 108.683 115.79 108.308 116.013 108.805C116.089 108.969 115.891 109.153 115.749 109.008C115.349 108.6 115.572 108.11 115.954 107.746Z" fill="black"/>
<path fill-rule="evenodd" clip-rule="evenodd" d="M162.166 128.274C160.746 127.695 159.479 126.728 158.552 125.493C158.23 125.063 158.147 124.61 158.214 124.195C158.29 123.729 158.566 123.306 158.942 123.023C159.319 122.739 159.791 122.598 160.247 122.67C160.644 122.732 161.038 122.949 161.351 123.399L161.416 123.489C161.967 124.235 162.684 124.846 163.502 125.241C164.29 125.621 165.172 125.798 166.084 125.695C167.822 125.499 169.019 124.559 170.292 123.282C170.45 123.121 170.608 122.955 170.766 122.786C170.866 122.633 171.005 122.534 171.16 122.483C171.331 122.425 171.525 122.429 171.703 122.491C171.874 122.55 172.027 122.664 172.13 122.815C172.227 122.958 172.283 123.135 172.265 123.339C172.148 124.661 171.457 125.842 170.475 126.769C169.384 127.799 167.938 128.511 166.577 128.761C165.078 129.036 163.55 128.839 162.166 128.274ZM167.285 107.866C168.88 108.836 171.311 111.098 169.595 113.503C167.574 115.624 164.666 113.193 163.232 112.093C161.903 111.241 160.41 113.433 161.643 114.428C172 122.099 176.204 108.12 168.092 106.726C167.198 106.572 166.867 107.566 167.285 107.866ZM148.725 98.9429C148.901 96.7541 152.233 96.257 152.565 98.423C152.861 100.363 152.512 102.145 151.638 103.892C150.804 105.561 148.706 104.783 148.547 103.263C148.334 101.226 148.615 100.304 148.725 98.9429ZM174.09 97.9739C174.555 97.3652 175.225 96.9497 176.029 97.1845C178.54 97.9185 177.8 101.485 176.918 103.22C176.439 104.163 174.89 104.402 174.19 103.572C173.049 102.219 172.503 99.5157 173.953 98.1825C173.993 98.1136 174.036 98.044 174.09 97.9739ZM151.603 89.3654L152 89.2959C153.227 89.0836 154.752 88.8796 155.62 89.8665C156.081 90.3898 156.239 91.3624 155.62 91.8633C154.532 92.7446 153.328 92.4031 152.024 92.4777C150.949 92.5394 149.916 92.7174 148.881 93.0135C146.609 93.6629 144.758 94.8486 142.818 96.1505C142.563 96.3213 142.304 95.9956 142.425 95.7574C143.545 93.563 145.715 91.7604 147.889 90.6616C149.05 90.0751 150.319 89.5885 151.603 89.3654ZM171.801 88.3823L172.105 88.4445C175.408 89.1353 179.701 90.5153 181.265 93.7615C181.325 94.2205 181.262 94.3189 181.21 94.3832L181.193 94.4046C181.151 94.4595 181.118 94.5351 180.919 94.5976C180.863 94.5845 180.808 94.5705 180.751 94.5557C180.034 94.3677 179.467 94.1087 178.918 93.84L178.322 93.5465C177.631 93.2076 176.934 92.881 176.195 92.6399C174.619 92.1255 172.997 91.7631 171.351 91.5696C170.994 91.5277 170.65 91.4072 170.379 91.2007C170.121 91.0046 169.925 90.7332 169.835 90.3724C169.719 89.9056 169.752 89.5521 170.003 89.1309C170.191 88.8146 170.461 88.5953 170.77 88.4694C171.085 88.3411 171.444 88.3108 171.801 88.3823Z" fill="black"/>
</svg>
