<svg width="240" height="324" viewBox="0 0 240 324" fill="none" xmlns="http://www.w3.org/2000/svg">
<path fill-rule="evenodd" clip-rule="evenodd" d="M189.445 219.877C188.032 215.534 189.714 210.519 188.615 205.838C188.238 203.987 187.522 197.108 186.802 193.086C186.4 190.836 188.807 190.137 189.177 189.239C191.78 181.172 172.79 162.193 171.631 161.494C169.894 160.49 168.357 159.625 166.659 158.599C161.708 156.859 155.771 152.019 151.282 155.128C143.505 143.546 146.582 129.277 142.361 127.581C138.141 125.885 125.679 122.457 118.554 126.834C114.284 129.995 114.599 135.437 112.65 139.925C111.506 142.037 110.944 145.097 109.613 146.475C105.089 151.156 99.4476 151.963 93.1408 152.758C92.6604 152.818 92.1551 151.511 91.6883 151.673C81.0497 155.351 68.6707 156.425 56.6225 177.022C54.921 179.967 50.3307 184.693 51.8656 188.097C41.7526 211.623 31.8019 264.573 59.5508 277.779C60.4378 278.346 66.4551 275.303 67.4356 275.331C69.07 275.378 65.9384 279.348 67.4356 278.64C78.4276 279.475 138.911 277.322 162.095 279.475C178.038 279.355 188.136 282.152 191.817 279.355C190.345 275.798 190.414 271.987 190.879 268.225C194.267 265.703 190.079 247.928 190.433 242.723C193.605 238.92 191.079 224.655 189.445 219.877Z" fill="#D08B5B"/>
<path fill-rule="evenodd" clip-rule="evenodd" d="M92.5192 152.723L92.4171 152.789C92.4002 152.8 92.3836 152.811 92.3677 152.823C92.2591 152.905 92.2762 153.052 92.4042 153.102C92.5745 153.168 92.7535 153.219 92.9377 153.258C93.4971 154.07 93.9342 155.074 94.2395 155.582C95.1165 157.043 102.645 166.231 103.77 167.412C105.598 169.33 114.601 176.543 114.723 176.399C116.171 177.264 117.671 178.041 119.23 178.703C128.453 182.624 140.283 182.98 148.209 176.467C148.8 176.628 154.403 168.557 155.27 165.665C155.692 165.783 156.215 162.684 155.923 162.731C156.178 160.979 153.109 154.687 152.817 154.386C152.861 154.372 152.905 154.359 152.949 154.346C152.975 154.402 153.033 154.443 153.102 154.426C153.687 154.273 154.28 154.192 154.873 154.204C155.324 154.213 158.543 155.68 158.668 155.741C158.744 155.777 158.821 155.814 158.899 155.852C184.648 168.235 188.617 188.358 189.507 188.313C189.133 188.788 178.958 203.179 178.411 204.451C178.298 201.701 180.178 275.014 180.309 276.545C180.363 277.176 180.367 278.666 180.456 279.266C179.81 279.302 157.166 277.755 115.06 278.009C101.615 278.09 68.382 279.553 68.382 279.553L68.3711 279.461C68.2758 278.564 68.3587 276.823 68.3455 275.928C69.6218 275.191 70.8744 274.407 72.1124 273.637C74.9312 271.883 92.3242 255.945 105.107 241.685C112.685 233.232 122.139 227.542 122.65 226.989C122.66 226.978 122.665 226.966 122.672 226.954C122.699 226.974 122.732 226.992 122.774 226.986C128.662 226.145 137.447 227.956 143.915 224.607C146.802 223.111 156.6 212.932 159.488 210.119C159.574 210.034 159.637 209.945 159.68 209.854C161.606 208.681 169.109 202.731 169.64 201.996L169.798 201.775C170.385 200.944 171.267 200.068 170.244 199.27C169.167 198.429 167.103 199.439 165.966 199.923L165.808 199.99C165.255 200.217 164.713 200.464 164.179 200.726C163.505 198.837 161.861 198.798 160.09 199.059C158.827 199.245 157.601 199.677 156.37 200.006C154.807 200.424 153.238 200.817 151.663 201.186C148.826 201.85 145.548 203.065 142.679 203.568C142.603 203.48 142.498 203.41 142.357 203.375C141.375 203.129 140.291 203.317 139.283 203.336C138.42 203.352 137.556 203.354 136.693 203.341L136.175 203.332C134.324 203.295 131.841 202.434 129.991 202.402L129.88 202.334L129.771 202.264C129.293 201.956 128.775 201.544 128.634 201.024C128.617 200.96 130.509 196.604 130.536 193.079C130.551 191.119 129.879 189.285 129.719 188.313C129.327 185.939 128.451 187.468 127.183 189.792C125.916 192.117 124.226 194.231 122.958 195.922C121.324 198.101 119.722 198.759 118.889 200.022C118.748 200.237 118.609 200.457 118.473 200.684C118.148 200.359 115.401 206.832 115.881 208.079C115.547 207.968 102.043 225.299 72.6763 237.769C72.8635 236.603 77.958 205.855 76.6904 200.783C75.4228 195.71 58.6589 176.963 56.9157 176.547C57.0902 176.262 50.282 180.916 62.5355 168.869C74.789 156.822 82.9543 154.782 89.0546 152.543C89.396 152.437 89.7358 152.33 90.074 152.221C89.9886 152.372 90.1823 152.539 90.3311 152.416C91.1744 151.719 91.9065 152.046 92.5192 152.723Z" fill="#9DDADB"/>
<path fill-rule="evenodd" clip-rule="evenodd" d="M184.39 193.84C182.869 196.053 181.472 198.331 180.208 200.701C179.557 201.923 178.949 203.17 178.402 204.442C178.289 201.692 178.264 198.909 177.943 196.186C177.92 195.989 177.592 195.894 177.557 196.134C177.202 198.603 177.144 201.136 177.01 203.631C176.855 203.584 176.685 203.557 176.497 203.557C174.671 203.557 172.873 203.706 171.055 203.854C170.24 203.92 169.387 203.97 168.555 204.1C169.225 203.361 169.848 202.58 170.423 201.766C171.01 200.935 171.68 199.636 170.658 198.838C169.529 197.957 167.314 199.11 166.222 199.558C165.669 199.785 165.127 200.032 164.593 200.295C163.919 198.405 161.852 198.155 160.081 198.416C158.818 198.602 157.592 199.034 156.361 199.363C154.798 199.781 153.229 200.174 151.654 200.543C148.818 201.207 145.962 201.788 143.093 202.291C143.017 202.202 142.912 202.133 142.771 202.098C141.789 201.852 140.705 202.04 139.697 202.059C138.661 202.078 137.625 202.077 136.589 202.055C134.738 202.018 132.889 202.002 131.038 201.97C130.512 201.651 129.845 201.193 129.682 200.593C129.478 199.844 130.115 199.014 130.41 198.376C131.545 195.927 131.942 193.186 131.497 190.519C131.418 190.043 131.254 189.523 131.018 189.036C133.045 189.253 135.047 189.4 137.085 189.467C141.156 189.599 145.226 189.738 149.298 189.769C157.441 189.829 165.583 189.83 173.726 189.77C178.33 189.736 182.923 189.694 187.521 189.459C187.147 189.934 186.782 190.419 186.426 190.912C186.353 190.89 186.257 190.93 186.268 191.021C186.272 191.053 186.275 191.085 186.279 191.117C185.63 192.024 185.005 192.945 184.39 193.84ZM175.336 278.057C173.444 277.996 171.552 277.936 169.66 277.876C165.946 277.757 162.232 277.639 158.518 277.521C151.16 277.287 143.803 277.061 136.444 276.858C129.103 276.655 121.758 276.441 114.415 276.67C107.055 276.9 99.7135 277.494 92.3673 277.971C88.2833 278.236 84.1963 278.465 80.1047 278.575C76.2079 278.679 72.2766 278.521 68.3859 278.799C68.2551 277.837 68.3512 276.878 68.3371 275.919C69.6134 275.182 70.866 274.398 72.104 273.628C76.6175 270.819 80.8839 267.642 84.9081 264.169C85.5267 263.635 86.1332 263.09 86.7336 262.539C86.3158 263.452 86.6502 264.63 87.8479 265.017C89.3084 265.488 90.8037 265.321 92.3206 265.285C93.861 265.249 95.4013 265.214 96.9419 265.182C99.9527 265.118 102.964 265.061 105.975 265.01C111.857 264.912 117.739 264.839 123.622 264.791C135.457 264.695 147.284 264.857 159.117 265.07C162.445 265.13 165.769 265.205 169.096 265.13C170.761 265.092 172.432 265.08 174.095 264.99C175.428 264.918 176.768 264.73 178.1 264.56C178.268 266.881 178.443 269.201 178.639 271.52C178.769 273.051 178.902 274.582 179.033 276.113C179.087 276.744 179.091 277.389 179.18 277.989C177.901 278.059 176.63 278.098 175.336 278.057ZM176.637 212.522C176.591 214.298 176.566 216.076 176.554 217.854C176.4 217.765 176.227 217.701 176.032 217.672C173.963 217.356 171.748 217.595 169.655 217.631C167.631 217.664 165.6 217.653 163.578 217.749C161.552 217.844 159.527 217.959 157.502 218.063C156.552 218.113 155.612 218.156 154.669 218.284C154.023 218.372 153.197 218.366 152.506 218.55C155.402 215.745 158.282 212.923 161.169 210.11C161.256 210.025 161.318 209.936 161.362 209.845C163.287 208.672 165.136 207.351 166.809 205.838C168.137 206.35 169.648 206.415 171.055 206.529C172.874 206.677 174.671 206.826 176.497 206.826C176.62 206.826 176.736 206.814 176.845 206.793C176.755 208.701 176.687 210.61 176.637 212.522ZM101.458 247.032C105.879 248.445 110.668 248.429 115.267 248.711C120.169 249.013 125.064 249.264 129.972 249.455C139.775 249.836 149.571 250.354 159.372 250.766C164.971 251.001 170.568 251.26 176.164 251.542C176.561 251.562 176.939 251.46 177.273 251.274C177.461 254.96 177.681 258.645 177.938 262.328C177.97 262.789 178.005 263.249 178.038 263.71C175.404 263.379 172.79 263.063 170.137 262.839C167.157 262.587 164.179 262.374 161.195 262.176C155.38 261.791 149.556 261.274 143.731 261.086C131.856 260.702 119.955 260.833 108.075 260.917C104.714 260.941 101.353 260.974 97.9919 261.014C96.3115 261.035 94.631 261.057 92.9506 261.082C91.2617 261.107 89.4467 260.931 87.8477 261.52C87.8325 261.526 87.8196 261.534 87.8046 261.54C92.6289 256.967 96.9508 251.913 101.458 247.032ZM116.997 232.413C124.385 233.758 131.888 233.666 139.376 233.799C147.038 233.936 154.71 233.845 162.374 233.861C166.727 233.87 171.117 234.062 175.455 233.674C175.967 233.628 176.365 233.434 176.648 233.158C176.727 237.773 176.872 242.386 177.071 246.998C176.79 246.878 176.483 246.805 176.163 246.787C166.371 246.21 156.578 245.687 146.774 245.368C136.978 245.049 127.169 244.67 117.367 244.788C112.584 244.846 107.526 244.54 102.808 245.583C104.601 243.677 106.432 241.807 108.348 240.016C111.141 237.405 114.121 234.96 116.997 232.413ZM122.641 226.98C122.651 226.969 122.656 226.957 122.663 226.945C122.69 226.965 122.722 226.978 122.765 226.977C129.68 226.821 137.438 229.004 143.906 225.654C146.793 224.159 149.185 221.796 151.506 219.525C151.507 219.541 151.509 219.558 151.51 219.575C151.525 219.76 151.603 219.982 151.79 220.063C152.553 220.398 153.446 220.42 154.265 220.539C155.207 220.676 156.132 220.757 157.083 220.814C159.178 220.94 161.273 221.073 163.368 221.191C165.46 221.31 167.56 221.319 169.654 221.372C171.754 221.424 173.953 221.678 176.031 221.378C176.222 221.351 176.392 221.291 176.542 221.208C176.546 223.897 176.57 226.586 176.595 229.274C176.6 229.712 176.608 230.15 176.613 230.588C176.332 230.331 175.947 230.151 175.455 230.108C171.601 229.768 167.718 229.919 163.85 229.932C160.053 229.945 156.255 229.957 152.457 229.97C144.789 229.996 137.126 230.071 129.459 230.217C125.731 230.288 122.019 230.601 118.345 231.205C119.832 229.849 121.278 228.454 122.641 226.98ZM62.5564 275.879C61.1407 276.312 59.7353 276.125 58.3169 276.421C58.2296 276.439 58.1491 276.473 58.0754 276.518C53.8277 274.702 50.9963 271.059 49.0585 266.977C47.016 262.673 45.6081 258.073 44.665 253.41C42.7205 243.796 42.7171 233.828 43.7236 224.102C44.7125 214.547 46.6705 205.044 49.4648 195.854C51.3833 189.545 53.8283 183.17 57.2232 177.417C61.1432 180.044 64.1834 183.828 67.0473 187.525C70.4696 191.945 73.5537 196.621 76.3144 201.48C76.0289 202.312 75.9846 203.356 75.8477 204.1C75.5838 205.535 75.3455 206.987 75.1581 208.434C74.7577 211.527 74.3736 214.621 73.9644 217.713C73.1551 223.826 72.1887 229.922 71.1212 235.995C71.0348 236.488 71.1729 236.904 71.4271 237.216C69.3098 238.332 67.2201 239.498 65.1841 240.762C60.708 243.541 56.5247 246.777 53.2403 250.929C53.155 251.037 53.2887 251.181 53.3944 251.083C60.4376 244.573 69.1879 240.485 77.7791 236.446C82.1694 234.381 86.5382 232.284 90.7505 229.87C95.1554 227.346 99.3563 224.494 103.383 221.404C107.98 217.874 112.308 214.016 116.365 209.877C116.843 209.389 116.727 208.778 116.368 208.392C116.489 208.354 116.587 208.249 116.593 208.072C116.691 205.369 117.502 203.066 119.091 200.878C120.565 198.848 122.443 197.175 124.138 195.338C124.89 194.522 125.61 193.672 126.253 192.765C126.914 191.831 127.317 190.801 127.893 189.825C128.565 188.686 129.137 189.268 129.449 190.3C129.802 191.469 129.78 192.839 129.638 194.041C129.488 195.313 129.101 196.554 128.543 197.704C128.019 198.784 127.415 199.883 127.768 201.121C128.347 203.155 130.832 204.334 132.714 204.792C134.81 205.302 137.002 205.203 139.124 204.938C141.782 204.607 144.427 204.122 147.054 203.605C150.097 203.008 153.121 202.318 156.122 201.539C157.533 201.173 158.933 200.691 160.358 200.388C160.866 200.28 161.805 200.117 162.402 200.382C154.73 204.958 146.366 208.006 137.871 210.662C136.815 210.991 137.248 212.586 138.328 212.322C147.455 210.09 156.041 205.947 164.213 201.409C164.338 201.339 164.444 201.232 164.522 201.104C165.344 200.815 166.18 200.564 167.032 200.356C167.413 200.264 169.372 199.617 169.617 199.866C169.964 200.217 168.763 201.36 168.463 201.692C166.327 204.059 163.787 205.99 161.038 207.587C158.249 209.207 155.282 210.498 152.3 211.716C148.96 213.081 145.43 214.154 142.184 215.723C140.894 216.346 141.799 218.463 143.158 218.034C144.909 217.48 146.61 216.667 148.312 215.976C149.757 215.389 151.203 214.803 152.64 214.196C153.642 213.773 154.638 213.335 155.623 212.878C154.147 214.268 152.67 215.658 151.194 217.049C148.638 219.456 146.209 222.199 143.084 223.888C139.996 225.556 136.474 225.75 133.037 225.714C131.312 225.696 129.594 225.641 127.869 225.711C126.053 225.784 124.44 226.063 122.72 226.635C122.688 226.645 122.665 226.664 122.645 226.686C122.585 226.613 122.483 226.576 122.378 226.638C117.702 229.404 113.439 232.992 109.34 236.538C105.115 240.193 101.14 244.079 97.352 248.185C93.7264 252.114 90.1298 256.058 86.1846 259.674C82.3325 263.204 78.216 266.409 73.9175 269.375C71.5754 270.992 69.1754 272.548 66.6922 273.94C65.3652 274.684 64.0175 275.433 62.5564 275.879ZM62.9494 169.486C64.6239 167.604 66.4262 165.86 68.3333 164.247C69.1748 164.496 70.0581 164.566 70.9482 164.575C72.3064 164.588 73.6676 164.645 75.0259 164.631C77.6411 164.604 80.2554 164.522 82.8713 164.508C88.2199 164.478 93.5703 164.477 98.919 164.523C99.6197 164.53 100.125 164.23 100.437 163.794C101.52 165.022 102.636 166.222 103.761 167.403C105.589 169.321 107.538 171.151 109.613 172.819C109.209 172.821 108.805 172.825 108.404 172.822C106.554 172.81 104.703 172.798 102.853 172.788C99.1408 172.768 95.4282 172.753 91.7156 172.743C84.3347 172.723 76.9309 172.785 69.5595 173.163C67.5136 173.268 65.4516 173.31 63.4129 173.51C62.3071 173.618 61.2026 173.744 60.0979 173.862C59.8718 173.886 59.6551 173.916 59.4423 173.95C60.5242 172.395 61.6896 170.902 62.9494 169.486ZM92.5107 152.714C92.4609 152.748 92.407 152.778 92.3593 152.814C92.2507 152.896 92.2678 153.043 92.3958 153.093C92.5661 153.159 92.745 153.21 92.9293 153.249C93.4887 154.061 93.9258 155.065 94.2311 155.573C95.1081 157.034 96.1165 158.426 97.1424 159.785C97.3486 160.058 97.5588 160.328 97.7698 160.597C92.8019 160.585 87.8364 160.611 82.8714 160.799C80.2574 160.898 77.6345 160.981 75.026 161.177C73.9534 161.258 72.8814 161.393 71.8122 161.527C77.377 157.503 83.6352 154.43 90.1184 152.149C90.1095 152.159 90.1004 152.166 90.0915 152.176C89.9487 152.335 90.1619 152.54 90.3226 152.408C91.166 151.71 91.8981 152.037 92.5107 152.714ZM117.613 200.014C117.472 200.228 117.333 200.449 117.197 200.675C116.872 200.35 116.417 200.133 115.83 200.115C109.322 199.911 102.817 199.734 96.3055 199.73C93.0943 199.727 89.8539 199.619 86.6466 199.778C85.0361 199.858 83.4262 199.953 81.8166 200.044C80.6912 200.108 79.4956 200.188 78.3966 200.514C75.8637 196.082 73.052 191.821 69.9814 187.746C76.9482 188.601 84.0343 188.51 91.0405 188.748C98.9785 189.017 106.921 189.074 114.862 189.263C117.04 189.314 119.218 189.371 121.396 189.432C122.52 189.463 123.644 189.496 124.768 189.53C125.119 189.54 125.483 189.55 125.847 189.541C125.819 189.597 125.792 189.654 125.764 189.71C125.151 190.977 124.381 192.142 123.483 193.224C121.573 195.524 119.267 197.505 117.613 200.014ZM109.074 213.666C108.833 212.995 108.246 212.48 107.31 212.522C101.978 212.765 96.6352 212.933 91.309 213.284C88.7144 213.455 86.1092 213.57 83.5189 213.797C82.1828 213.914 80.8491 214.132 79.5188 214.305C78.6067 214.424 77.6518 214.562 76.7769 214.887C76.9466 213.013 77.0961 211.138 77.2261 209.26C77.3302 207.751 77.3619 206.229 77.3539 204.717C77.3499 203.951 77.3239 203.181 77.2869 202.416C77.3655 202.432 77.4443 202.44 77.5216 202.43C77.6581 202.413 77.7855 202.397 77.9038 202.365C79.1298 202.845 80.5174 202.951 81.8159 203.044C83.356 203.154 84.8957 203.271 86.4359 203.381C89.7128 203.615 93.0207 203.599 96.3048 203.706C102.77 203.917 109.236 204.04 115.702 204.213C115.402 205.501 115.392 206.823 115.872 208.07C115.538 207.959 115.152 208.01 114.824 208.335C112.961 210.176 111.043 211.951 109.074 213.666ZM90.2641 227.358C90.1325 226.994 89.884 226.659 89.59 226.433C88.4593 225.561 86.3952 226.063 85.038 226.129C83.4313 226.208 81.8244 226.286 80.2177 226.365C79.7301 226.389 77.2414 226.516 75.4135 226.906C75.7912 224.052 76.1339 221.194 76.4402 218.331C76.5045 217.73 76.564 217.128 76.623 216.527C77.4841 216.804 78.42 216.906 79.3082 216.948C80.6392 217.011 81.9763 217.119 83.3085 217.14C85.9703 217.182 88.6469 217.05 91.309 217.006C96.1031 216.926 100.898 216.697 105.69 216.508C100.879 220.415 95.7949 223.979 90.4921 227.222C90.4164 227.268 90.3397 227.312 90.2641 227.358ZM75.1226 229.051C75.5276 229.105 75.9292 229.123 76.2364 229.154C77.7786 229.31 79.2968 229.451 80.8469 229.473C82.3839 229.496 83.9206 229.518 85.4576 229.541C85.7844 229.545 86.1113 229.55 86.4381 229.555C82.391 231.767 78.2198 233.747 74.1074 235.833C74.4698 233.576 74.808 231.315 75.1226 229.051ZM119.221 178.694C128.444 182.615 140.274 182.971 148.2 176.458C148.988 176.673 149.859 176.745 150.554 176.815C152.117 176.972 153.665 177.116 155.235 177.165C158.296 177.261 161.358 177.404 164.42 177.442C170.613 177.518 176.807 177.554 183.001 177.609C183.528 177.614 183.949 177.453 184.269 177.195C184.896 178.259 185.48 179.35 186.013 180.468C186.789 182.099 187.448 183.784 187.988 185.508C187.873 185.488 187.752 185.474 187.623 185.471C179.484 185.331 171.338 185.565 163.197 185.599C155.054 185.633 146.912 185.598 138.77 185.656C136.516 185.672 134.28 185.673 132.032 185.84C130.862 185.927 129.678 185.965 128.52 186.154C128.39 186.175 128.259 186.193 128.126 186.212C126.573 185.304 124.646 185.494 122.871 185.46C120.833 185.422 118.796 185.388 116.758 185.357C112.754 185.298 108.748 185.255 104.743 185.227C96.7942 185.173 88.8647 185.376 80.9209 185.653C76.9685 185.79 73.0311 186.024 69.1296 186.633C68.8676 186.294 68.6082 185.953 68.3428 185.616C65.5784 182.111 62.3012 177.624 57.7522 176.538C57.9267 176.254 58.1038 175.971 58.2835 175.69C61.4352 176.521 64.9121 176.479 68.1322 176.653C71.844 176.854 75.5479 176.993 79.2641 177.084C86.6511 177.265 94.0366 177.379 101.425 177.492C103.476 177.523 105.526 177.556 107.577 177.59C108.683 177.608 109.789 177.63 110.895 177.647C111.513 177.656 112.066 177.654 112.654 177.449C113.2 177.259 113.731 176.974 114.258 176.738C114.442 176.656 114.592 176.534 114.714 176.39C116.162 177.255 117.663 178.032 119.221 178.694ZM155.261 165.656C156.421 165.979 157.618 166.032 158.844 166.125C160.454 166.247 162.06 166.267 163.674 166.277C166.248 166.294 168.822 166.276 171.394 166.205C172.5 166.175 173.145 165.435 173.337 164.587C173.363 164.609 173.391 164.63 173.418 164.652C176.549 167.233 179.386 170.184 181.79 173.452C176 173.47 170.209 173.474 164.419 173.513C161.358 173.533 158.295 173.659 155.235 173.738C153.734 173.776 152.254 173.901 150.759 174.043C150.73 174.046 150.698 174.048 150.668 174.051C150.827 173.868 150.984 173.683 151.137 173.492C152.924 171.277 154.394 168.548 155.261 165.656ZM192.906 281.939C193.417 280.533 193.218 279.025 193.19 277.547C193.16 276.03 193.144 274.513 193.139 272.996C193.129 270.03 193.109 267.065 193.076 264.099C193.01 258.099 192.94 252.094 192.704 246.098C192.238 234.245 191.339 222.42 189.873 210.646C189.16 204.922 188.275 199.21 187.074 193.567C187.091 193.545 187.108 193.521 187.125 193.498C188.32 191.9 189.68 190.423 190.855 188.814C190.959 188.671 191.002 188.488 191.001 188.303C191.044 188.282 191.087 188.26 191.131 188.235C192.105 187.68 191.225 186.167 190.251 186.73C190.364 186.665 188.746 182.511 188.574 182.093C187.959 180.59 187.266 179.122 186.485 177.698C186.014 176.839 185.51 175.998 184.982 175.173C184.889 174.557 184.557 173.986 183.985 173.68C182.982 172.242 181.898 170.861 180.743 169.544C176.015 164.155 170.109 159.804 163.656 156.705C162.724 156.257 161.764 155.884 160.808 155.493C159.789 155.077 158.845 154.532 157.841 154.095C156.208 153.384 154.596 153.425 152.992 154.178C152.855 154.242 152.953 154.453 153.093 154.417C154.126 154.147 155.183 154.102 156.219 154.395C157.233 154.681 158.004 155.314 158.89 155.843C160.468 156.784 162.233 157.398 163.85 158.277C165.989 159.44 168.08 160.717 170.079 162.118C168.008 162.228 165.934 162.307 163.86 162.362C162.32 162.403 160.78 162.41 159.242 162.5C158.147 162.563 157.008 162.545 155.914 162.722C156.178 160.908 156.179 159.077 155.849 157.31C155.849 157.309 155.849 157.308 155.849 157.308C155.769 156.882 155.672 156.459 155.554 156.041C155.301 155.152 154.491 155.019 153.902 155.355C153.844 155.312 153.785 155.27 153.729 155.224C153.024 154.652 152.39 153.967 151.839 153.247C150.693 151.752 149.767 150.021 149.066 148.276C148.355 146.51 147.852 144.661 147.359 142.824C147.112 141.903 146.845 140.987 146.593 140.067C146.374 139.267 146.215 138.383 145.813 137.654C145.737 137.518 145.51 137.544 145.474 137.699C145.261 138.612 145.374 139.653 145.413 140.584C145.456 141.617 145.515 142.641 145.653 143.667C145.938 145.795 146.398 147.886 147.134 149.907C147.841 151.844 148.773 153.653 150.039 155.285C150.88 156.369 152.074 157.805 153.458 158.39C153.639 160.426 153.618 162.463 153.137 164.479C152.508 167.117 151.304 169.625 149.65 171.773C146.182 176.278 140.815 178.823 135.217 179.347C129.425 179.89 123.498 178.594 118.293 176.046C112.504 173.211 107.702 168.838 103.388 164.118C100.902 161.397 98.3234 158.719 96.0189 155.841C95.6105 155.33 94.9569 154.295 94.1815 153.362C94.9706 153.354 95.7804 153.236 96.4788 153.147C97.9239 152.961 99.3362 152.674 100.748 152.315C103.389 151.643 106.173 150.708 108.48 149.23C113.361 146.101 115.267 142.133 115.918 136.665C116.124 134.937 113.136 134.517 112.858 136.251C112.431 138.916 111.784 140.213 110.934 142.773C110.116 145.234 108.931 146.15 106.667 147.507C104.541 148.78 102.126 149.52 99.7841 150.285C98.4865 150.708 97.1735 151.094 95.8649 151.484C95.0319 151.732 94.0429 151.948 93.1979 152.331C92.7569 151.944 92.297 151.652 91.8339 151.541C91.8679 151.484 91.8238 151.395 91.7384 151.412C91.6024 151.439 91.4667 151.469 91.3307 151.497C91.194 151.507 91.0579 151.534 90.9221 151.583C82.7659 153.35 74.9333 157.113 68.2915 162.238C67.9567 162.378 67.6328 162.549 67.3245 162.766C67.1659 162.877 67.0607 163.054 67.0305 163.238C66.032 164.053 65.0631 164.899 64.127 165.775C56.5877 172.829 51.8107 182.213 48.4666 191.865C45.1723 201.374 42.9424 211.345 41.7162 221.329C40.4661 231.505 40.322 241.893 42.1351 252.012C43.1086 257.446 44.6847 262.785 47.011 267.797C49.1 272.298 52.5003 277.425 57.8412 277.973C57.8583 277.99 57.8743 278.008 57.8936 278.024C59.9891 279.751 63.1091 278.558 65.3 277.527C65.6473 277.363 65.9919 277.191 66.335 277.015C66.1537 277.713 66.0719 278.444 66.0341 279.129C65.9553 280.552 67.9605 280.632 68.3401 279.452C71.5905 280.023 74.9469 280.031 78.2344 280.013C81.9077 279.993 85.5798 279.866 89.2488 279.693C96.5287 279.349 103.8 278.824 111.085 278.586C125.835 278.103 140.626 279.135 155.364 279.655C159.498 279.801 163.633 279.947 167.768 280.093C171.992 280.242 176.212 280.27 180.402 280.842C181.943 281.052 182.533 279.541 182.099 278.6C182.207 277.968 182.099 277.275 182.04 276.53C181.929 275.139 181.824 273.747 181.726 272.355C181.535 269.64 181.35 266.925 181.175 264.209C180.819 258.706 180.514 253.198 180.216 247.691C179.625 236.742 179.172 225.785 178.839 214.825C178.758 212.154 178.652 209.482 178.518 206.812C178.677 206.559 178.836 206.306 178.99 206.049C179.502 205.195 180.005 204.335 180.523 203.484C181.564 201.779 182.611 200.085 183.704 198.413C184.649 196.97 185.624 195.549 186.642 194.157C187.906 204.837 189.03 215.528 189.546 226.276C190.114 238.115 190.416 249.972 190.58 261.822C190.625 265.133 190.656 268.444 190.692 271.755C190.71 273.479 190.728 275.202 190.714 276.926C190.7 278.575 190.451 280.379 191.036 281.939C191.377 282.85 192.569 282.866 192.906 281.939Z" fill="black"/>
<path fill-rule="evenodd" clip-rule="evenodd" d="M150.99 69.0517C137.124 57.7538 114.904 54.0854 100.061 65.4837C88.5286 76.1808 83.756 106.578 85.797 121.853C86.3645 131.65 93.8308 142.755 104.791 139.656C106.652 139.473 108.459 138.757 110.337 138.608C112.584 138.348 114.848 138.344 117.09 138.661C121.976 139.354 126.307 141.955 131.05 143.171C139.849 145.427 149.667 143.909 157.242 138.828C182.272 122.33 170.934 85.0192 150.99 69.0517Z" fill="#D08B5B"/>
<path fill-rule="evenodd" clip-rule="evenodd" d="M149.143 143.442C149.4 143.353 149.657 143.26 149.912 143.165C149.929 143.225 149.956 143.281 149.988 143.337C150.024 143.425 150.06 143.512 150.1 143.598C149.78 143.601 149.459 143.543 149.143 143.442ZM148.629 33.9583C148.515 33.7027 148.384 33.4576 148.237 33.2206C148.595 33.3371 148.954 33.4977 149.278 33.7048C149.059 33.7788 148.844 33.8634 148.629 33.9583ZM93.8594 67.3856C93.8446 67.3831 93.8301 67.381 93.8156 67.3785C94.0036 66.8765 94.3386 66.4027 94.7086 66.0605C94.775 65.999 94.8469 65.9421 94.9165 65.8834C94.5237 66.3524 94.1674 66.8526 93.8594 67.3856ZM194.073 119.874C193.887 118.112 193.651 116.356 193.346 114.61C193.052 112.938 192.806 111.15 191.956 109.666C191.113 108.189 190.268 106.754 189.264 105.454C189.407 104.79 189.597 104.167 189.762 103.664C190.71 100.768 191.644 97.091 189.673 94.4005C189.216 93.777 188.657 93.2994 188.018 92.8682C187.746 92.6843 187.295 92.5174 187.086 92.2637C186.939 92.0841 186.989 92.1813 186.983 92.0925C186.947 91.6149 188.064 90.6067 188.326 90.2284C188.815 89.5286 189.18 88.7405 189.458 87.9353C190.558 84.7481 189.81 81.2376 189.148 78.0439C188.798 76.3512 188.412 74.654 188.286 72.9252C188.168 71.302 188.389 69.7169 188.52 68.1022C188.646 66.5084 188.613 64.8643 187.932 63.3888C187.599 62.6703 187.095 62.0362 186.481 61.5416C185.883 61.0579 185.136 60.7768 184.552 60.2949C183.97 59.8149 184.137 59.1663 184.289 58.5026C184.497 57.6023 184.761 56.7083 184.786 55.7783C184.833 54.1573 184.173 52.5783 183.142 51.3527C182.079 50.0867 180.561 49.2305 178.921 49.0382C178.171 48.9494 177.433 49.0997 176.686 49.0468C175.948 48.9961 175.788 48.6262 175.649 47.9499C175.329 46.4007 175.459 44.8706 174.699 43.4249C174.024 42.1399 172.824 41.2689 171.498 40.7556C169.067 39.8129 166.24 40.0074 163.677 40.563C162.163 36.0995 157.439 33.1723 152.79 33.1364C152.064 31.9021 150.835 30.9806 149.434 30.4393C147.115 29.5411 144.658 30.0655 142.243 30.0655H142.232C141.989 30.0505 141.747 30.0443 141.505 30.0464C141.277 30.0335 141.049 30.0145 140.821 29.9894C138.072 29.6637 135.353 28.5351 132.629 29.6406C131.414 30.1331 130.449 30.8918 129.838 31.8598C128.916 32.1111 128.008 32.3988 127.116 32.7327C123.251 32.8339 119.423 34.9115 117.469 38.2785C114.718 37.9657 111.732 38.4962 109.913 40.7492C109.439 41.3355 109.072 42.0243 108.829 42.7556C106.973 43.3571 105.257 44.4288 104.133 46.0431C103.108 47.5162 102.911 49.4209 103.604 51.0022C101.948 52.205 100.654 53.9269 100.03 55.9601C99.6516 57.1954 99.5954 58.4718 99.8391 59.6877C98.1434 60.0647 96.5216 60.7637 95.0846 61.8126C93.5787 62.9114 91.698 64.6603 91.5989 66.6732C91.5915 66.821 91.5972 66.9687 91.609 67.116C88.2938 66.8825 84.9135 67.4455 82.6727 70.11C80.9901 72.1092 80.2588 74.6836 80.7078 77.0275C76.7633 77.8306 73.0337 79.8976 70.4322 82.9538C68.5413 85.175 66.861 87.9987 66.962 91.0229C66.9936 91.934 67.2068 92.8513 67.5757 93.6988V93.7007C67.4176 93.9989 67.2551 94.3307 67.0991 94.6837C64.6556 96.3975 62.8805 99.084 61.8812 102.045C61.074 104.444 60.5659 107.559 61.4279 110C61.5589 110.372 61.7254 110.723 61.9194 111.048C61.7568 111.222 61.6031 111.395 61.4535 111.571C59.8067 113.5 58.1391 115.931 58.2532 118.587C58.2996 119.657 58.6957 120.733 59.3431 121.616C57.066 123.93 55.2321 126.851 55.4132 130.112C55.5692 132.951 57.1232 135.834 59.558 137.197C59.1513 139.384 59.6952 141.692 61.3942 143.4C62.2419 144.254 63.241 144.816 64.2996 145.116C64.5357 147.692 66.8166 149.766 69.2389 150.362C69.6903 150.474 70.1414 150.541 70.5903 150.573C72.7702 151.645 75.3696 151.522 77.5938 150.539C78.2494 151.374 79.1033 152.055 80.0983 152.543C80.501 152.742 80.9271 152.906 81.3717 153.039C84.5129 153.971 87.7345 152.708 90.4813 151.233C90.5699 151.186 90.7322 151.127 90.8755 151.061C91.255 151.486 91.9465 151.907 92.307 152.114C93.53 152.818 95.0247 153.145 96.4288 153.052C98.0753 152.942 99.5277 152.397 100.873 151.621C101.069 151.655 101.267 151.674 101.465 151.685C102.73 151.752 103.858 151.351 104.872 150.717C105.542 150.806 106.23 150.797 106.925 150.675C108.458 151.065 109.951 150.444 111.15 149.457C111.682 149.02 112.131 148.506 112.611 148.016C113.111 147.506 113.491 147.388 114.074 147.046C115.455 146.236 115.622 144.184 115.023 142.7C115.137 142.44 115.202 142.151 115.202 141.83C115.198 139.027 113.91 136.457 112.329 134.215C111.623 133.215 110.855 132.236 110.014 131.349C109.337 130.636 108.387 129.48 107.385 129.191C107.324 129.146 107.261 129.102 107.197 129.06C107.392 128.379 107.505 127.686 107.457 126.978C107.406 126.251 107.172 125.562 106.797 124.974C108.055 122.529 108.587 119.847 108.334 117.049C109.358 115.592 110.134 113.984 110.535 112.222C110.781 111.131 110.923 109.983 110.904 108.865C110.895 108.328 110.699 107.65 110.695 107.094C110.725 107.27 110.952 106.614 111.041 106.451C112.057 104.56 113.362 103.085 113.579 100.855C113.705 99.5509 113.398 98.1097 112.618 97.0403C113.117 95.0662 113.111 92.9462 112.325 91.0633C112.114 90.5603 111.872 90.0678 111.593 89.6007C111.722 89.2076 111.84 88.8103 111.991 88.4529C112.051 88.3113 112.11 88.1678 112.169 88.024C112.74 87.5187 113.271 86.9673 113.718 86.426C114.709 85.2279 115.466 83.8541 115.561 82.2709C115.607 81.4783 115.422 80.7196 115.192 79.9674C115.091 79.6271 115.029 79.2488 114.909 78.917C114.842 78.7329 114.679 78.545 114.623 78.3717C114.61 78.3336 114.599 78.3019 114.591 78.2766C114.599 78.2512 114.606 78.1984 114.606 78.0988C114.608 77.3401 114.707 76.5982 114.711 75.8672C115.405 76.5689 116.24 77.0928 117.188 77.3995C119.1 78.0145 121.095 77.7355 122.788 76.7866C124.609 78.0378 126.656 79.1704 128.803 79.625C130.078 79.8953 131.356 79.7835 132.635 79.9505C133.906 80.1174 135.136 80.6733 136.333 81.1066C138.998 82.0724 141.656 83.0634 144.329 84.0042C146.488 84.7629 148.824 85.3653 151.084 84.9383C151.719 85.9188 152.543 86.7475 153.599 87.3562C154.356 87.7894 155.187 88.083 156.045 88.2291C156.804 88.358 157.694 88.3073 158.309 88.8293C158.91 89.3365 159.285 90.093 159.825 90.6638C160.426 91.3021 161.168 91.8558 161.946 92.2532C162.57 92.5723 163.207 92.8025 163.854 92.9527C163.797 94.3963 163.742 95.8377 163.725 97.2833C163.694 100.424 163.706 103.564 163.664 106.705C163.622 109.835 163.523 112.965 163.358 116.091C163.202 119.025 162.983 121.969 162.285 124.831C159.97 134.327 151.299 141.126 141.593 141.472C138.711 141.576 135.859 141.17 133.103 140.32C130.249 139.439 127.7 137.626 124.774 137.068C124.008 136.924 123.287 137.696 123.726 138.437C124.481 139.712 125.398 140.49 126.652 141.257C127.966 142.058 129.429 142.652 130.873 143.172C133.529 144.127 136.339 144.681 139.158 144.835C141.308 144.953 143.467 144.805 145.573 144.4C145.721 144.854 145.982 145.296 146.18 145.716C146.21 145.778 146.309 145.735 146.29 145.672C146.258 145.566 146.238 145.473 146.229 145.397C146.937 146.323 148.031 146.963 149.155 147.274C149.948 147.494 150.789 147.561 151.605 147.468C151.869 147.439 152.119 147.394 152.368 147.34C153.199 148.069 154.261 148.555 155.328 148.798C155.145 149.914 155.695 151.131 156.971 151.448C157.506 151.581 158.02 151.583 158.535 151.535C158.95 151.729 159.397 151.881 159.871 151.985C160.489 152.12 161.227 151.947 161.693 151.499C161.948 151.679 162.186 151.803 162.422 152.088C163.394 153.264 165.49 152.327 165.582 150.968C165.89 150.968 166.2 150.973 166.51 150.983C166.584 151.017 166.658 151.051 166.733 151.087C168.089 151.718 169.493 152.27 170.992 151.774C171.268 151.683 171.521 151.567 171.751 151.431C172.807 151.526 173.849 151.528 174.92 151.182C175.552 150.977 176.147 150.651 176.642 150.224C178.295 150.711 180.039 150.93 181.683 150.328C182.914 149.878 183.905 149.168 184.603 148.231C185.67 148.269 186.753 148.012 187.729 147.502C189.399 146.636 190.569 144.989 191.385 143.339C193.181 139.697 194.244 135.785 194.661 131.75C195.072 127.777 194.486 123.825 194.073 119.874Z" fill="black"/>
<path fill-rule="evenodd" clip-rule="evenodd" d="M149.372 128.003C148.022 128.014 146.504 127.507 145.489 127.11L145.224 127.005C144.346 126.653 143.443 126.249 142.77 125.571C142.555 125.35 142.326 125.101 142.21 124.839C142.141 124.685 142.113 124.526 142.179 124.368C142.422 124.344 142.653 124.313 142.871 124.273C142.975 124.254 143.075 124.234 143.151 124.234C143.433 124.232 143.711 124.268 143.99 124.303C144.03 124.308 144.07 124.313 144.111 124.318C144.327 124.345 144.543 124.374 144.758 124.403C145.384 124.487 146.007 124.57 146.642 124.601C147.101 124.623 147.582 124.597 148.067 124.57C149.325 124.502 150.626 124.408 151.595 125.29C151.849 125.521 151.955 125.812 151.955 126.108C151.955 126.468 151.804 126.835 151.573 127.122C151.049 127.773 150.244 127.996 149.372 128.003ZM156.736 116.649C156.148 117.531 155.169 118.098 153.828 118.036C151.163 117.914 147.982 116.908 145.749 115.453C145.168 115.075 144.791 114.469 144.723 113.82L144.603 112.666L143.953 113.627C143.885 113.727 143.817 113.827 143.749 113.927C143.56 114.202 143.372 114.477 143.195 114.759C142.514 115.842 141.89 116.935 141.323 118.082C140.921 118.894 140.628 119.802 140.334 120.718C139.837 122.265 139.357 123.787 138.295 124.874C138.135 125.038 137.888 125.097 137.662 125.068C137.463 125.043 137.268 124.945 137.173 124.75C135.904 122.17 137.61 119.061 138.994 116.9L139.14 116.674C140.423 114.721 142.519 112.136 144.919 111.784L145.194 112.223L145.593 111.956C146.247 111.52 147.109 111.54 147.864 111.881L148.619 112.222C150.025 112.853 151.411 113.436 152.932 113.755C153.043 113.778 153.154 113.799 153.264 113.82C153.369 113.839 153.474 113.856 153.579 113.873C153.556 113.769 153.532 113.666 153.508 113.563C153.482 113.454 153.456 113.345 153.428 113.236C153.399 113.124 153.369 113.012 153.338 112.901C153.216 112.457 153.079 112.017 152.915 111.586C152.301 109.968 151.321 108.454 150.367 107.01L150.255 106.84C150.118 106.633 149.968 106.417 149.813 106.194C149.07 105.122 148.245 103.959 148.186 102.792C149.174 102.854 150 103.468 150.727 104.002C151.725 104.735 152.65 105.573 153.489 106.483C155.117 108.249 156.578 110.507 157.218 112.841C157.585 114.178 157.424 115.616 156.736 116.649ZM130.694 103.334L130.693 103.286C130.696 101.938 131.481 98.8612 133.42 98.8612C134.632 98.8612 135.368 100.955 135.495 103.114L135.499 103.202C135.556 104.545 135.187 107.478 133.42 107.478C131.635 107.478 130.712 104.7 130.694 103.334ZM159.248 102.911L159.248 102.863C159.245 101.516 158.46 98.4385 156.521 98.4385C155.34 98.4385 154.611 100.429 154.457 102.53L154.446 102.692C154.37 103.988 154.714 107.056 156.521 107.056C158.307 107.056 159.229 104.277 159.248 102.911ZM137.226 94.2128C136.969 94.243 136.713 94.2825 136.457 94.3231C135.711 94.4419 134.97 94.5846 134.233 94.7509C132.834 95.0669 131.446 95.4659 130.085 95.9167C128.811 96.3388 127.556 96.8158 126.303 97.2927C126.236 97.3181 126.169 97.3436 126.102 97.369C125.659 97.5374 125.218 97.7261 124.775 97.9154C124.102 98.2035 123.425 98.4936 122.735 98.7121C124.554 96.1958 127.357 94.3313 130.054 92.9971C131.593 92.2358 133.226 91.622 134.868 91.119L135.783 90.8441C137.13 90.4466 138.602 90.0794 139.867 90.872C140.368 91.1854 140.687 91.6727 140.788 92.1995C140.886 92.7161 140.774 93.27 140.417 93.7323C140.106 94.135 139.719 94.3643 139.307 94.4429C138.852 94.5297 138.37 94.4344 137.932 94.2C137.58 94.1738 137.477 94.1833 137.373 94.1948L137.226 94.2128ZM157.486 94.4688C156.584 94.2728 155.692 94.1941 154.767 94.2223C154.349 94.2349 153.944 94.2995 153.541 94.3646C152.914 94.4656 152.29 94.5699 151.615 94.4473C151.262 94.3833 150.962 94.1772 150.731 93.9082C150.46 93.5936 150.281 93.1916 150.223 92.8094C150.164 92.4146 150.223 92.0692 150.369 91.7643C150.541 91.4041 150.832 91.1005 151.183 90.8346C152.246 90.0296 154.07 90.2232 155.324 90.3859C156.564 90.5472 157.797 90.9317 158.892 91.5424C159.973 92.1452 160.913 92.9573 161.647 93.9499C162.265 94.7865 162.556 95.7494 162.857 96.7299C161.442 95.5428 159.278 94.858 157.486 94.4688Z" fill="black"/>
</svg>
