<svg width="240" height="324" viewBox="0 0 240 324" fill="none" xmlns="http://www.w3.org/2000/svg">
<path fill-rule="evenodd" clip-rule="evenodd" d="M43.0085 273.246C42.721 273.256 42.8116 273.172 42.9173 273.151C42.9477 273.183 42.9781 273.215 43.0085 273.246ZM51.4983 279.56C59.5322 280.513 67.576 279.641 75.5704 278.767C91.7661 277.566 107.848 281.065 124.076 279.998C144.356 279.143 164.691 277.538 184.903 280.243C190.494 280.372 199.411 281.881 197.384 273.223C194.721 250.964 191.16 228.817 187.346 206.729C184.113 194.346 183.879 172.928 175.028 164.317C173.734 163.135 169.092 159.311 167.865 158.798C161.763 156.526 150.764 154.752 146.226 149.935C142.551 143.714 144.261 135.223 138.545 130.214C133.536 126.123 122.603 126.988 117.248 130.06C113.022 132.801 112.36 138.124 109.727 142.061C109.078 143.004 107.535 145.278 106.664 146.012C104.544 148.054 97.0965 150.2 94.9458 150.594C82.8091 153.082 76.7575 154.619 67.2118 162.687C42.2699 188.16 45.8055 233.214 38.904 266.524C38.6216 270.186 36.3963 275.155 40.3664 277.513C43.7858 279.151 47.8062 278.973 51.4983 279.56Z" fill="#D08B5B"/>
<path fill-rule="evenodd" clip-rule="evenodd" d="M143.444 141.467C143.474 141.38 143.613 141.366 143.634 141.467C143.974 143.024 144.612 144.732 145.259 146.193C145.916 147.672 146.814 149.031 147.948 150.185C150.325 152.603 153.382 153.706 156.735 153.708L156.815 153.71C156.831 153.598 156.848 153.485 156.864 153.372L156.887 153.203C157.193 150.887 159.942 150.954 160.478 152.702C160.751 152.789 161.024 152.876 161.294 152.967L161.348 152.986C161.803 153.159 163.345 153.928 163.628 153.723C164.252 153.275 164.964 153.789 165.2 154.361C165.587 155.299 165.652 156.458 165.777 157.476L165.794 157.608L165.813 157.766C174.633 160.059 179.583 168.888 182.11 177.02C183.479 181.429 184.375 185.977 185.275 190.5C186.238 195.338 187.126 200.189 188.066 205.028C189.919 214.566 191.672 224.126 193.195 233.721L193.637 236.508C195.033 245.331 196.392 254.149 197.535 263.012C198.152 267.791 198.731 272.574 199.288 277.361C199.388 278.215 199.487 279.069 199.586 279.923L199.732 281.205C199.863 282.355 200.085 283.492 199.516 284.568C198.285 286.901 194.554 286.884 194.343 283.896C194.301 283.302 194.501 282.848 194.833 282.531L194.828 282.48C194.825 282.451 194.822 282.428 194.82 282.419C194.71 281.825 194.681 281.197 194.613 280.597C194.465 279.316 194.321 278.035 194.176 276.752C193.895 274.309 193.612 271.866 193.318 269.425C192.724 264.473 192.097 259.527 191.432 254.586L190.772 249.7C188.566 233.414 186.268 217.132 183.243 200.975C182.419 196.577 181.572 192.185 180.703 187.795C179.879 183.638 178.954 179.499 177.572 175.486C175.316 168.93 171.371 162.79 165.895 158.487C165.98 159.309 166.041 160.136 166.119 160.958C166.32 163.069 166.533 165.178 166.749 167.288C167.533 174.93 168.595 182.56 170.408 190.033C171.306 193.736 172.4 197.39 173.733 200.96C174.39 202.718 175.107 204.454 175.893 206.157C176.67 207.842 178.033 209.642 178.115 211.519C178.153 212.388 177.245 213.159 176.404 213.066C176.797 216.524 177.019 220.017 177.253 223.467C177.595 228.463 177.868 233.468 178.267 238.46C178.981 247.402 179.877 256.332 180.815 265.253C181.001 267.021 181.203 268.789 181.403 270.555L181.571 272.039C181.683 273.001 181.854 274.154 181.343 275.007C181.8 276.108 182.112 277.238 182.294 278.418C182.524 279.885 181.686 281.529 179.974 281.465C179.78 281.459 179.586 281.442 179.391 281.421C177.805 281.789 176.222 282.112 174.574 282.123C172.47 282.137 170.362 282.095 168.257 282.08C164.186 282.053 160.115 282.025 156.044 281.992C141.306 281.873 126.562 281.88 111.826 281.643L105.93 281.549C100.525 281.462 95.1189 281.362 89.7165 281.165C85.9961 281.03 82.2759 280.893 78.5574 280.743L77.8003 280.714C74.5194 280.594 71.2345 280.533 67.9898 280.03C67.9084 280.017 67.8732 279.932 67.8858 279.858L67.8905 279.838L67.7489 279.806C67.6665 280.161 65.9552 278.669 65.9679 277.678C65.2581 276.754 65.5898 275.279 65.6658 274.21C65.7398 273.168 65.8327 272.124 65.9151 271.082C66.0905 268.856 66.2405 266.629 66.42 264.403C67.1447 255.429 67.77 246.432 68.1757 237.439C68.3806 232.906 68.5454 228.37 68.7186 223.837C68.7966 221.772 68.9052 219.707 69.1076 217.652L69.1602 217.139C69.382 215.055 69.3609 212.815 70.1278 210.851C70.1383 210.824 70.1743 210.824 70.1848 210.851C70.9602 212.762 71.0341 214.983 71.1905 217.08C71.2179 217.071 71.2454 217.067 71.275 217.061C72.3461 216.551 73.4278 216.093 74.4419 215.463C74.5792 215.378 74.7123 215.289 74.8475 215.203C76.4426 210.321 78.2912 205.519 79.9919 200.668C85.4869 184.984 88.5207 168.281 89.1926 151.673C85.001 154.376 80.436 156.479 75.9984 158.738L75.5827 158.95C71.2116 161.186 67.0264 163.724 63.9144 167.603C61.2017 170.98 59.4292 175.095 57.7707 179.062C55.9898 183.325 54.3841 187.664 52.9158 192.043C49.9369 200.928 47.6299 210.031 45.8299 219.227C44.0531 228.302 42.7834 237.445 41.9341 246.652C41.501 251.348 41.106 256.048 40.7743 260.755C40.6052 263.137 40.4552 265.521 40.3158 267.907C40.2482 269.065 40.1975 270.226 40.1214 271.384C40.075 272.052 40.0665 272.741 39.8468 273.375C39.663 273.903 39.3376 274.345 39.0334 274.812C38.4778 275.664 37.075 275.818 36.5531 274.812L36.3272 274.376C36.0281 273.796 35.755 273.212 35.7144 272.542C35.6764 271.908 35.7545 271.247 35.7905 270.61C35.8602 269.323 35.9405 268.034 36.0207 266.747C36.1898 264.04 36.3778 261.332 36.5891 258.627C37.0095 253.208 37.5503 247.804 38.2306 242.41C40.6243 223.467 44.0806 204.623 50.6764 186.645C52.3074 182.201 54.1264 177.792 56.1799 173.525C58.1658 169.399 60.6778 165.504 64.3243 162.663C67.6809 160.048 71.5827 158.297 75.4595 156.598L75.944 156.386C80.2898 154.486 84.6271 152.44 89.1651 151.028C89.0637 151.041 88.9644 151.054 88.878 151.083C88.7785 151.115 88.7195 150.986 88.7808 150.916C89.0383 150.631 89.1461 150.337 89.4421 150.056C89.6464 149.862 89.859 149.678 90.0777 149.501L90.3924 149.251C90.9681 148.793 91.5734 148.326 92.2982 148.167C93.3231 147.943 93.8259 148.875 93.5383 149.604C93.6862 149.412 94.0834 149.469 94.1869 149.733C97.5588 158.432 99.7729 167.641 104.311 175.86C107.662 181.932 112.157 187.539 118.124 191.206C121.328 193.176 124.996 194.689 128.784 194.928C132.186 195.141 135.458 194.277 138.351 192.491C143.958 189.031 147.619 182.957 150.23 177.071C153.101 170.591 155.15 163.686 156.355 156.686C152.539 156.739 148.512 154.998 145.975 152.159C144.64 150.665 143.645 148.845 143.14 146.905C142.631 144.948 142.793 143.34 143.444 141.467ZM111.435 136.384C111.9 135.553 112.931 135.279 113.774 135.617C114.709 135.993 114.991 136.902 114.858 137.825C114.703 138.907 114.008 140.076 113.467 141.021C112.901 142.01 112.172 142.921 111.418 143.773C109.998 145.379 108.479 146.827 106.677 148.011C104.884 149.188 102.855 150.069 100.77 150.561L100.274 150.677C98.6525 151.048 96.3449 151.473 94.9939 150.591C94.9286 150.549 94.9305 150.462 94.9939 150.42C95.7249 149.91 96.7033 149.819 97.5439 149.579C98.4608 149.315 99.38 149.014 100.257 148.638C101.987 147.894 103.643 146.913 105.118 145.743C106.599 144.568 108.031 143.166 109.022 141.549C109.521 140.738 109.946 139.886 110.353 139.028C110.765 138.168 110.972 137.212 111.435 136.384Z" fill="black"/>
<path fill-rule="evenodd" clip-rule="evenodd" d="M161.685 82.2444C161.915 80.1045 159.416 74.3956 159.477 75.5536C155.471 69.3612 147.653 66.9261 140.907 64.8819C126.588 60.143 115.407 65.8661 105.346 76.0095C99.4061 81.5716 93.7544 87.7846 90.7727 95.4844C84.907 110.173 93.6993 126.921 107.07 133.938C108.149 134.524 109.325 135.08 110.353 135.787C115.88 138.988 122.37 140.096 128.53 141.489C140.052 144.129 154.524 142.871 161.314 131.873C165.92 124.068 164.697 114.606 164.336 105.944C163.794 98.3547 162.844 89.7782 161.685 82.2444Z" fill="#D08B5B"/>
<path fill-rule="evenodd" clip-rule="evenodd" d="M100.094 60.5845C107.559 53.5883 118.593 50.1974 128.681 50.7905C134.145 51.1117 139.411 52.4843 144.349 54.8423C145.893 55.5797 147.398 56.4428 148.786 57.4592C149.722 57.8971 150.637 58.371 151.524 58.8863C155.964 61.4647 159.396 65.3703 161.592 70.0031C162.641 72.2143 163.469 74.546 163.937 76.9485L164.013 77.344C164.252 78.5496 164.725 80.138 164.127 81.2661C163.73 82.0141 162.9 82.4856 162.113 82.4222C162.284 83.1155 162.488 83.8085 162.619 84.5061L162.975 86.4083C163.034 86.7253 163.093 87.0423 163.15 87.3594C163.494 89.2488 163.81 91.136 164.063 93.0403C164.592 97.0054 165.071 100.979 165.493 104.959C165.795 107.805 166.078 110.654 166.353 113.502L166.517 115.211C166.8 118.153 167.021 121.12 166.829 124.075C166.54 128.507 165.18 132.551 162.541 135.841C162.792 136.447 162.877 137.13 163.067 137.884C163.329 138.927 163.67 139.948 164.033 140.961C164.203 141.359 164.373 141.757 164.542 142.156L164.985 143.213L165.33 143.906C165.705 144.66 166.067 145.425 166.297 146.205C167.789 147.003 169.006 148.306 169.066 150.09C169.119 151.703 168.284 153.411 166.874 154.233C165.482 155.045 164.049 154.725 162.717 154.105C161.555 154.444 160.311 154.487 159.16 154.125C158.274 154.929 157.131 155.484 155.864 155.634C153.955 155.861 152.141 155.325 150.389 154.62L150.267 154.571C150.212 154.55 150.157 154.526 150.105 154.503C148.089 154.406 146.082 153.607 144.653 152.191C144.187 151.732 143.784 151.208 143.46 150.621C142.281 148.484 142.098 145.861 143.257 143.741C143.008 143.752 142.758 143.762 142.509 143.769C139.192 143.864 135.869 143.694 132.56 143.475L131.78 143.422C129.639 143.268 126.481 142.904 126.421 140.243C126.412 139.903 126.763 139.647 127.083 139.738C128.299 140.083 129.495 140.624 130.756 140.818C132.404 141.074 134.112 141.102 135.777 141.195L136.256 141.221C139.615 141.405 143.094 141.518 146.399 140.85C148.865 140.353 151.435 139.449 153.695 138.328C155.864 137.251 157.836 135.841 159.425 134C162.927 129.951 163.391 124.238 163.22 119.115C163.013 112.996 162.296 106.886 161.892 100.776L161.709 98.0309C161.558 95.7419 161.42 93.4496 161.363 91.1595C161.32 89.4877 161.348 87.8117 161.356 86.1399C161.36 85.305 161.35 84.466 161.369 83.6312C161.38 83.162 161.434 82.7033 161.474 82.2445C161.289 82.1475 161.116 82.012 160.96 81.8326C160.838 81.691 160.743 81.5409 160.677 81.3887C159.891 81.1581 159.526 80.8517 159.016 80.1566C158.586 79.5711 158.099 79.0301 157.578 78.5228C156.469 77.4449 155.202 76.5636 153.864 75.7962C151.096 74.2092 148.064 73.1482 145.007 72.2774C140.327 70.9459 135.465 70.2611 130.715 69.1915C129.406 71.0218 128.019 72.7973 126.569 74.5156C122.042 79.8755 116.852 84.6539 111.29 88.9149C110.158 89.7836 109.011 90.6395 107.848 91.4699C106.315 93.813 104.766 96.1449 103.193 98.4611L102.518 99.4528L102.508 99.4719C102.415 99.6135 102.326 99.7551 102.238 99.8967C102.05 100.197 101.839 100.486 101.616 100.767C101.47 100.981 101.323 101.194 101.173 101.408C101.46 101.562 101.721 101.735 101.926 101.928C102.343 102.323 102.273 102.951 101.926 103.352C100.804 104.65 99.0289 102.959 97.7387 102.509C96.341 102.936 95.1751 104.603 94.5954 105.878C93.7605 107.715 93.4253 109.929 93.8027 111.918C94.1482 113.736 95.0802 115.306 96.6298 116.291C96.6846 116.325 96.7434 116.361 96.8006 116.392C96.8027 116.397 96.8027 116.397 96.8048 116.394C96.8575 116.428 96.9123 116.46 96.9671 116.49C97.6944 116.891 98.4935 117.128 99.3218 117.185C99.7961 117.219 100.292 117.193 100.766 117.251C101.253 117.307 101.654 117.532 102.122 117.65C102.638 117.783 102.971 118.479 102.646 118.945C102.486 119.176 102.335 119.396 102.172 119.592C102.706 120.222 103.169 120.918 103.589 121.579C104.162 122.486 104.671 123.447 105.134 124.428C105.562 124.992 105.971 125.567 106.368 126.155C108.613 129.49 110.331 133.205 111.387 137.088C112.433 140.928 113.087 145.242 112.119 149.162C111.227 152.768 108.623 155.754 104.77 155.947C103.965 155.987 103.174 155.896 102.431 155.692C100.797 156.703 98.772 157.212 96.9599 157.272C95.4939 157.32 93.8891 157.01 92.6918 156.122C91.2715 156.741 89.7309 157.093 88.3911 157.173C86.8919 157.263 85.323 156.853 84.1009 156.042C82.938 157.041 81.6832 157.884 80.2574 158.462C77.8055 159.455 74.8877 159.332 72.6425 157.847C70.393 156.359 69.2482 153.687 69.9355 151.037C70.568 148.594 72.556 146.802 74.4239 145.259L74.793 144.955C76.6406 143.443 78.5065 141.98 79.6924 139.85C80.951 137.591 81.4106 134.966 81.5349 132.409C81.8048 126.778 80.6621 121.199 80.3143 115.598C79.9559 109.813 80.1562 104.011 80.9425 98.2691C82.471 87.1142 86.4935 76.1789 93.771 67.4838C94.8239 66.2256 95.9509 65.0264 97.1387 63.8898C98.0465 62.6994 99.0277 61.5837 100.094 60.5845ZM196.899 124.276C196.939 124.278 196.977 124.28 197.013 124.295C197.037 124.305 197.057 124.321 197.076 124.339L197.253 124.517C197.316 124.58 197.312 124.677 197.253 124.741C197.201 124.799 197.108 124.8 197.047 124.756L197.029 124.741L196.846 124.557C196.826 124.535 196.808 124.511 196.8 124.481C196.791 124.451 196.791 124.417 196.789 124.386C196.787 124.329 196.842 124.276 196.899 124.276ZM97.9853 107.009C99.6761 106.495 101.704 107.717 102.712 109.006C103.218 109.653 103.361 110.538 102.712 111.174C102.16 111.715 101.08 111.815 100.547 111.174C99.9417 110.445 99.4484 109.435 98.584 108.968C97.6459 108.461 96.3894 108.587 96.168 109.824C96.1301 110.033 95.8307 109.963 95.818 109.775C95.7358 108.524 96.83 107.357 97.9853 107.009Z" fill="black"/>
<path fill-rule="evenodd" clip-rule="evenodd" d="M143.152 128.274C141.732 127.694 140.465 126.727 139.538 125.492C139.216 125.063 139.133 124.61 139.2 124.195C139.276 123.729 139.552 123.306 139.928 123.023C140.305 122.738 140.777 122.598 141.233 122.67C141.63 122.732 142.024 122.949 142.337 123.399L142.402 123.489C142.953 124.235 143.67 124.846 144.488 125.24C145.276 125.62 146.158 125.798 147.07 125.695C148.808 125.498 150.005 124.558 151.278 123.282C151.436 123.121 151.594 122.954 151.752 122.786C151.852 122.632 151.991 122.534 152.146 122.482C152.317 122.425 152.511 122.428 152.689 122.49C152.86 122.55 153.013 122.663 153.116 122.814C153.213 122.958 153.269 123.135 153.251 123.338C153.134 124.661 152.443 125.842 151.461 126.769C150.37 127.798 148.924 128.511 147.563 128.76C146.064 129.036 144.536 128.839 143.152 128.274ZM148.271 107.866C149.866 108.836 152.297 111.098 150.581 113.503C148.56 115.624 145.652 113.192 144.219 112.093C142.889 111.241 141.396 113.432 142.629 114.428C152.986 122.099 157.19 108.12 149.078 106.725C148.184 106.572 147.853 107.566 148.271 107.866ZM129.711 98.9426C129.887 96.7538 133.219 96.2568 133.551 98.4227C133.847 100.363 133.498 102.145 132.624 103.892C131.79 105.561 129.692 104.782 129.533 103.263C129.32 101.226 129.601 100.304 129.711 98.9426ZM155.076 97.9736C155.541 97.3649 156.211 96.9494 157.015 97.1842C159.526 97.9182 158.786 101.484 157.904 103.22C157.425 104.163 155.876 104.402 155.176 103.572C154.035 102.218 153.489 99.5154 154.939 98.1822C154.979 98.1133 155.022 98.0438 155.076 97.9736ZM132.589 89.3651L132.986 89.2957C134.213 89.0834 135.738 88.8794 136.606 89.8662C137.067 90.3895 137.225 91.3622 136.606 91.8631C135.518 92.7444 134.314 92.4028 133.01 92.4775C131.935 92.5392 130.902 92.7171 129.867 93.0132C127.595 93.6627 125.744 94.8484 123.804 96.1503C123.55 96.3211 123.29 95.9954 123.411 95.7572C124.531 93.5627 126.701 91.7601 128.875 90.6613C130.036 90.0748 131.305 89.5883 132.589 89.3651ZM152.787 88.3821L153.091 88.4442C156.394 89.1351 160.687 90.515 162.251 93.7613C162.311 94.2203 162.248 94.3187 162.197 94.3829L162.179 94.4043C162.137 94.4592 162.104 94.5349 161.905 94.5974C161.849 94.5842 161.794 94.5703 161.737 94.5555C161.02 94.3675 160.453 94.1085 159.904 93.8398L159.308 93.5462C158.617 93.2073 157.92 92.8807 157.181 92.6396C155.605 92.1252 153.983 91.7628 152.337 91.5693C151.98 91.5274 151.636 91.4069 151.365 91.2004C151.107 91.0044 150.911 90.733 150.821 90.3722C150.705 89.9053 150.738 89.5518 150.989 89.1306C151.177 88.8143 151.447 88.5951 151.756 88.4692C152.071 88.3408 152.43 88.3106 152.787 88.3821Z" fill="black"/>
<path fill-rule="evenodd" clip-rule="evenodd" d="M166.773 116.395C166.491 115.554 165.042 115.627 165.131 116.618C165.233 117.75 164.846 119.012 163.762 119.561C162.627 120.137 161.351 119.619 160.658 118.632C160.056 117.775 159.641 116.841 158.884 116.093C158.18 115.397 157.323 114.861 156.386 114.542C155.656 114.294 154.9 114.228 154.165 114.31C152.336 113.896 150.216 114.837 149.076 116.264C149.002 116.356 148.934 116.45 148.868 116.546C148.755 116.392 148.637 116.239 148.511 116.089C148.188 115.702 147.787 115.619 147.425 115.724C145.363 114.19 142.473 113.987 140.131 115.371C138.255 116.481 136.702 118.116 134.395 118.243C132.567 118.344 130.576 117.301 130.448 115.291C130.38 114.242 128.951 113.368 128.149 114.339C126.464 116.382 126.127 119.095 127.059 121.564C128.043 124.17 130.048 126.006 132.587 127.085C135.328 128.251 138.541 128.656 141.506 128.564C144.463 128.472 147.151 127.335 148.933 124.915C149.146 124.627 149.333 124.333 149.497 124.036C151.227 126.24 153.939 127.167 156.702 127.233C159.592 127.303 163.008 126.795 165.052 124.55C167.021 122.386 167.701 119.167 166.773 116.395Z" fill="black"/>
</svg>
