<svg width="240" height="324" viewBox="0 0 240 324" fill="none" xmlns="http://www.w3.org/2000/svg">
<path fill-rule="evenodd" clip-rule="evenodd" d="M55.2054 285.569C57.7345 285.726 60.2634 285.849 62.7922 285.944C95.8621 287.176 128.905 283.405 161.954 282.58C173.464 282.277 184.914 282.428 196.394 283.352C197.518 283.443 198.805 282.232 198.666 281.079C196.546 262.764 193.892 244.499 192.517 226.109C192.516 225.136 192.642 224.165 192.976 223.249C193.039 223.177 193.365 222.371 193.656 222.321C193.561 222.392 193.991 222.268 193.717 222.289C195.377 222.017 197.005 220.225 195.8 218.51C183.392 199.485 166.454 182.12 161.004 159.523C159.717 153.414 155.067 153.036 150.112 150.516C148.567 149.596 144.787 147.049 144.172 145.278C142.702 138.894 145.29 132.641 137.73 130.058C132.74 128.673 123.919 127.502 118.869 128.962C112.71 131.013 113.171 137.957 109.598 142.734C107.75 145.497 104.6 149.28 101.691 149.703C100.282 149.909 99.2432 147.056 97.8356 147.252C75.8946 152.583 46.0015 188.949 36.5714 209.08C34.4462 215.416 41.2999 213.505 40.8788 219.873C40.3598 231.954 39.2245 247.419 39.8978 259.515C40.5284 266.535 40.0617 273.891 42.2431 280.647C41.656 281.36 42.4995 282.08 43.1879 282.39C44.0551 283.866 52.5886 285.365 55.2054 285.569Z" fill="#D08B5B"/>
<path d="M97.8356 147.252C99.1484 147.069 99.2338 150.93 100.505 151.097C106.405 159.384 115.548 162.134 126.122 162.134C137.347 162.134 146.449 158.757 153.427 152.003L154.067 152.273C157.37 153.677 160.071 155.094 161.004 159.523C166.454 182.12 183.392 199.485 195.8 218.51C197.005 220.225 195.377 222.017 193.717 222.289C193.991 222.268 193.561 222.391 193.656 222.321C193.365 222.371 193.039 223.177 192.976 223.249C192.814 223.692 192.701 224.148 192.628 224.611C192.628 224.611 178.727 227.557 174.99 227.638C137.466 228.451 68.8431 227.291 68.8431 227.291L40.1007 216.415C38.4569 213.946 34.9723 213.848 36.5714 209.08C46.0015 188.949 75.8946 152.583 97.8356 147.252Z" fill="#E86BBB"/>
<path fill-rule="evenodd" clip-rule="evenodd" d="M112.327 135.125C112.898 132.558 116.982 133.659 116.282 136.216C115.199 140.17 112.951 143.907 109.778 146.53C107.327 148.555 103.987 150.361 100.674 150.695C100.984 150.998 101.282 151.321 101.595 151.63C102.301 152.331 103.051 152.982 103.824 153.608C105.413 154.893 107.065 156.049 108.869 157.017C116.075 160.885 124.216 161.777 132.265 160.876C136.084 160.449 139.961 159.724 143.553 158.327C145.218 157.681 146.836 156.831 148.264 155.757L148.638 155.477C149.389 154.909 150.391 154.109 150.861 153.234C149.432 153.555 147.626 152.033 146.635 151.148C145.552 150.176 144.639 148.922 143.965 147.637C142.644 145.116 141.945 141.863 143.052 139.16C143.126 138.98 143.363 139.01 143.384 139.204C143.711 142.356 144.561 145.31 146.821 147.644C147.825 148.677 149.027 149.544 150.339 150.146L150.523 150.231C151.082 150.489 151.671 150.793 151.906 151.346C151.997 151.336 152.088 151.344 152.175 151.368C152.253 151.389 152.325 151.412 152.394 151.437C152.238 151.131 152.156 150.77 152.17 150.342C152.226 148.688 154.497 148.637 154.811 150.11C154.754 149.916 154.678 150.104 154.822 150.163C154.82 150.146 154.816 150.127 154.811 150.11L154.815 150.126L154.824 150.163L154.822 150.163C154.828 150.19 154.832 150.217 154.835 150.245L154.838 150.282L154.836 150.251C154.834 150.229 154.832 150.208 154.829 150.19L154.824 150.163C154.845 150.173 154.875 150.18 154.908 150.18L154.922 150.185C154.975 150.208 155.162 150.295 155.217 150.317C155.595 150.457 156.018 150.501 156.404 150.621C157.243 150.879 157.983 151.306 158.494 152.033C158.861 152.555 159.066 153.154 159.151 153.775C162.863 155.561 166.376 157.881 169.319 160.754C175.887 167.162 180.468 175.182 184.226 183.484C186.139 187.711 187.844 192.027 189.511 196.355L189.774 197.038C191.561 201.69 193.142 206.393 193.53 211.393C193.566 211.841 193.418 212.262 193.163 212.611C193.253 212.987 193.3 213.363 193.287 213.731C193.285 213.788 193.281 213.845 193.277 213.902C193.877 213.891 194.464 214.143 195.022 214.849C195.248 214.777 195.493 214.768 195.734 214.847C197.202 215.316 197.439 216.929 197.715 218.279C198.001 219.674 198.125 221.103 198.127 222.525C198.127 223.034 197.836 223.677 197.341 223.895C196.412 224.304 195.411 224.573 194.449 224.945C193.727 225.224 193.002 225.488 192.271 225.736C192.677 226.443 192.808 227.428 193.027 228.174C193.372 229.339 193.649 230.508 193.881 231.7C195.457 239.805 196.549 247.997 198.024 256.119C198.761 260.188 199.619 264.229 200.494 268.27C200.925 270.256 201.383 272.239 201.875 274.213C202.137 275.265 202.41 276.318 202.691 277.364C202.772 277.67 202.855 277.975 202.939 278.279L203.086 278.812C203.407 278.989 203.682 279.258 203.872 279.625C204.567 280.97 204.168 282.485 202.834 283.242C201.385 284.066 199.655 283.288 198.856 281.95C198.294 281.006 198.111 279.755 197.834 278.704C197.521 277.525 197.223 276.339 196.936 275.153C194.984 267.098 193.677 258.902 192.692 250.675L192.622 250.087C192.121 245.852 191.637 241.606 191.325 237.351C191.17 235.261 191.048 233.171 190.972 231.076C190.934 229.998 190.995 228.914 191.056 227.838C191.084 227.367 191.124 226.894 191.139 226.422L191.143 226.355C191.147 226.308 191.153 226.245 191.157 226.179L191.162 226.099C189.704 226.556 188.225 226.936 186.732 227.257C183.554 227.944 180.303 228.327 177.06 228.132C177.512 233.505 178.101 238.864 178.925 244.188C179.72 249.316 180.637 254.432 181.672 259.518C182.19 262.073 182.749 264.622 183.339 267.162C183.656 268.519 184.017 269.867 184.302 271.231C184.471 272.042 184.524 272.721 184.184 273.48C184.558 274.5 184.891 275.525 185.218 276.491L185.316 276.779C185.895 278.47 186.994 280.198 185.846 281.86C185.253 282.717 184.285 283.208 183.311 283.238C183.294 283.248 183.275 283.261 183.256 283.271C182.732 283.552 182.128 283.607 181.553 283.487C180.681 283.658 179.806 283.823 178.93 283.973C176.764 284.347 174.588 284.656 172.408 284.916C168.256 285.41 164.077 285.681 159.901 285.831C144.609 286.382 129.301 285.414 114.003 285.693C106.209 285.835 98.4155 286.186 90.6345 286.651C86.7514 286.883 82.8662 287.133 78.9809 287.325L77.7783 287.384C74.3038 287.55 70.8268 287.678 67.3549 287.424C67.2873 287.42 67.2345 287.393 67.1986 287.355C66.0007 287.219 64.7967 286.116 64.9169 284.842C65.4345 279.414 65.9521 273.987 66.4718 268.557C67.395 258.884 68.3267 249.21 69.269 239.539L69.4052 238.142C69.7218 234.884 70.024 231.617 70.1774 228.345C69.4042 228.291 68.6333 228.221 67.8619 228.136C59.5051 227.221 51.4939 224.692 43.8018 221.371L43.4901 221.236C42.7971 220.933 42.0387 220.631 41.2612 220.308C41.2741 221.785 41.2253 223.265 41.219 224.727C41.2084 227.156 41.2274 229.584 41.2338 232.01C41.2486 237.011 41.4387 242.013 41.688 247.006C42.1253 255.823 42.6387 264.628 43.4162 273.424C43.6126 275.637 43.879 277.846 44.0669 280.059C44.179 281.363 43.9105 282.449 42.7171 283.134C42.1295 283.472 41.6753 283.331 41.0922 283.058C39.6683 282.39 39.6281 280.811 39.4929 279.438C39.3896 278.402 39.2943 277.366 39.2014 276.329C39.003 274.116 38.8317 271.903 38.6922 269.686C38.141 260.877 37.9802 252.076 38.3605 243.256C38.5371 239.131 38.792 234.997 39.1303 230.879L39.2098 229.929C39.4887 226.638 39.6683 223.185 40.245 219.873C37.919 218.841 35.614 217.529 34.545 215.347C33.1593 212.515 34.6824 210.093 36.8521 208.426C36.831 208.145 36.8521 207.866 36.9112 207.612C37.5345 204.913 38.5781 202.246 39.5859 199.672C40.6021 197.085 41.7239 194.538 42.9577 192.046C47.9098 182.064 54.6746 172.942 62.7387 165.257C66.7443 161.441 71.1281 157.913 75.8077 154.954C78.1274 153.49 80.5063 152.137 82.9697 150.932L83.3339 150.755C85.0488 149.922 86.9721 149.037 88.879 148.574C89.0774 148.426 89.2781 148.286 89.4809 148.153C90.2309 147.654 91.2493 148.015 91.6929 148.728C91.9086 148.561 92.1577 148.413 92.4429 148.28L92.7248 148.151C94.4359 147.38 96.4905 146.659 98.3478 147.166C99.5014 147.481 100.41 148.331 100.818 149.413C101.753 148.918 102.672 148.409 103.57 147.785C105.013 146.788 106.321 145.549 107.496 144.249C109.851 141.635 111.563 138.573 112.327 135.125ZM194.065 217.552C193.904 217.599 193.735 217.615 193.56 217.594C193.877 217.631 193.242 217.819 193.068 217.908L193.055 217.916C192.738 218.097 192.419 218.273 192.096 218.442C191.342 218.839 190.571 219.196 189.787 219.532C188.242 220.19 186.647 220.695 185.01 221.065C183.408 221.426 181.729 221.637 180.087 221.671C178.989 221.692 177.685 221.642 176.549 221.318C176.68 223.311 176.825 225.302 176.988 227.291L179.233 226.776C181.478 226.261 183.72 225.733 185.935 225.091C187.598 224.609 189.237 224.045 190.858 223.436C191.707 223.117 192.55 222.779 193.382 222.415C193.797 222.234 194.185 222.019 194.569 221.801L194.897 221.614C194.821 220.724 194.682 219.852 194.479 218.972C194.373 218.507 194.194 218.03 194.065 217.552ZM40.3507 208.166C40.0655 209.092 39.6281 209.956 38.631 210.165C38.2781 210.239 37.9826 210.199 37.7373 210.079L37.6785 210.197C36.8586 211.881 36.6178 213.658 38.5042 214.955C39.3558 215.54 40.2831 216.047 41.2422 216.501C42.9574 217.318 44.7841 217.974 46.5063 218.642L46.8493 218.776C49.9295 219.985 53.0584 221.086 56.2359 222.007C59.46 222.939 62.7408 223.687 66.0621 224.163C67.4626 224.362 68.8739 224.501 70.2875 224.592C70.3105 222.69 70.3 220.786 70.2936 218.884C69.7908 218.82 69.2922 218.752 68.8107 218.695C67.3443 218.524 65.8824 218.315 64.4288 218.055C61.3929 217.512 58.3887 216.762 55.4584 215.802C50.0288 214.02 44.9774 211.473 40.3507 208.166ZM99.8795 149.901C98.6457 148.595 96.2859 149.066 94.7967 149.7C94.3464 149.892 93.8922 150.087 93.4612 150.321L93.3778 150.368C92.8758 150.657 92.8784 150.829 93.1234 151.406C93.4422 152.164 93.8859 152.898 94.3084 153.601C96.1171 156.622 98.4978 159.251 101.217 161.472C110.846 169.334 124.68 172.107 136.722 169.474C142.502 168.212 148.077 165.663 152.331 161.483L152.719 161.098C154.434 159.38 156.789 156.895 156.624 154.35C156.546 153.126 155.546 153.056 154.526 152.82C154.108 152.722 153.708 152.585 153.362 152.391C153.641 153.593 152.156 155.381 151.389 156.132C149.781 157.706 147.846 158.936 145.799 159.856C141.903 161.608 137.665 162.436 133.446 162.96C128.658 163.556 123.768 163.503 119.016 162.622C114.882 161.855 110.806 160.403 107.249 158.141C105.618 157.106 104.01 155.924 102.649 154.549L102.36 154.256C101.378 153.261 100.235 152.057 99.6471 150.751C99.4232 150.753 99.2014 150.746 98.9795 150.731C98.8232 150.723 98.7389 150.501 98.895 150.419C99.0704 150.326 99.2457 150.233 99.4211 150.142C99.3917 150.044 99.3662 149.95 99.345 149.852C99.3281 149.77 99.4147 149.694 99.4908 149.74C99.5964 149.803 99.6979 149.871 99.7971 149.943C99.8246 149.93 99.8521 149.916 99.8795 149.901Z" fill="black"/>
<path fill-rule="evenodd" clip-rule="evenodd" d="M162.394 89.5609C161.893 83.0632 162.669 76.2526 160.17 70.0765C155.813 59.8292 143.594 56.4125 134.122 52.5112C130.327 51.3871 117.558 51.23 113.114 49.7422C103.058 46.375 100.656 42.363 92.6649 48.7743C91.3161 49.8695 90.4722 51.0599 89.8566 52.6862L89.8819 52.6932C89.706 53.3712 89.8945 54.0477 90.2906 54.5645C86.826 58.1147 85.3762 63.4374 87.1538 68.1634C92.955 80.4616 92.6822 87.1114 90.8131 100.333C88.3722 112.675 93.9499 117.184 103.187 123.9C102.811 124.631 102.733 125.603 103.224 126.248C113.905 141.296 134.046 148.48 151.302 140.843C158.307 137.717 161.434 130.239 163.218 123.491C165.297 115.936 165.936 107.974 164.244 100.277C163.561 96.7179 162.672 93.1841 162.394 89.5609Z" fill="#D08B5B"/>
<path fill-rule="evenodd" clip-rule="evenodd" d="M85.8868 71.1282L92.2382 75.37L114.973 51.3422L107.407 45.3726C107.407 45.3726 93.6815 55.5424 90.9827 58.2264C88.2839 60.9105 85.8868 71.1282 85.8868 71.1282Z" fill="#9FD8E5"/>
<path fill-rule="evenodd" clip-rule="evenodd" d="M100.779 17.5709C102.076 17.3757 103.055 18.1822 103.521 19.3189L103.545 19.3801C103.695 19.7669 103.862 20.1431 104.041 20.5129C107.285 18.9172 111.915 19.3272 113.968 22.5588C115.434 24.8667 114.54 27.6058 113.987 30.0533L113.625 31.6659C114.326 32.113 114.854 32.9138 114.829 33.743L114.826 33.8069L114.679 36.0556C115.147 35.5801 115.575 35.0623 115.956 34.5107C116.22 34.0267 116.505 33.5511 116.81 33.0904C118.609 30.3788 122.646 32.7353 121.162 35.6393C120.877 36.1993 120.556 36.7298 120.213 37.2413C119.825 37.9958 119.507 38.7715 119.262 39.5683C119.964 39.8747 120.504 40.5553 120.561 41.5824C120.694 43.9813 119.437 45.9827 117.438 47.2403C116.85 47.6101 116.243 47.682 115.693 47.5446C115.596 47.6757 115.499 47.8067 115.406 47.9399C116.203 48.5887 116.922 49.3284 117.54 50.1485C119.399 49.8695 121.269 49.7384 123.139 49.7342C125.424 48.6119 128.161 48.6352 130.617 49.0558C132.198 49.3263 133.716 49.8526 135.272 50.2309C136.912 50.6282 138.578 50.643 140.237 50.9135C142.328 51.2538 144.162 52.2218 145.315 53.7668C146.582 53.8048 147.915 54.3247 149.02 55.0307C151.592 56.675 154.149 58.3425 156.715 59.9974C157.699 60.6327 158.067 61.647 157.886 62.7782L157.874 62.8506L157.788 63.3198L157.991 63.6086C158.776 64.7202 159.63 65.8845 160.138 67.1114C161.079 68.4704 161.928 69.8949 162.681 71.3638C163.695 73.3378 164.532 75.4302 165.099 77.5775C165.24 78.1207 165.381 78.6681 165.474 79.2218C165.607 80.0038 165.403 80.6104 165.291 81.3607C165.152 82.3118 165.101 83.2755 164.953 84.2287C164.854 84.8606 164.319 85.1713 163.758 85.1882C163.969 86.7966 164.121 88.4155 164.266 90.0218C164.471 92.3171 164.61 94.6187 164.73 96.9203C165.35 97.8227 166.617 98.5371 167.532 98.7844C168.799 99.1247 170.127 98.7548 171.325 98.3215C172.077 98.0489 172.695 98.9978 172.328 99.6319C171.175 101.623 168.708 101.614 166.84 100.733C166.05 100.361 165.356 99.8221 164.842 99.1204C164.873 99.7883 164.907 100.456 164.941 101.126L164.972 101.733C165.352 108.82 166.172 116.151 164.844 123.168C162.544 135.323 152.51 144.578 140.254 145.296C133.822 145.673 128.466 143.769 125.802 142.707C123.139 141.644 124.174 139.478 126.023 140.097C129.208 141.164 135.059 142.753 140.296 142.067C152.637 140.449 163.102 134.266 162.027 107.632C161.875 103.855 161.405 100.076 161.304 96.2989C161.207 92.6066 161.243 88.9122 161.081 85.222L161.027 83.963C160.963 82.4918 160.895 81.0138 160.786 79.5409C160.653 78.9703 160.543 78.3912 160.381 77.8311C159.94 76.3073 159.365 74.8257 158.65 73.4118C158.492 73.5323 158.315 73.6189 158.123 73.6527C156.666 73.9148 155.3 73.8408 153.936 73.2321C153.299 72.951 152.738 72.577 152.216 72.1141C151.967 71.8964 151.8 71.6851 151.67 71.4653C151.01 71.4758 150.35 71.2771 149.937 70.8016C149.465 70.2596 149.387 69.6998 149.572 69.1815L149.591 69.1298L149.545 69.1129C148.988 70.5564 147.879 71.8267 146.663 72.6847C144.74 74.0458 142.334 74.4389 140.028 74.4749C137.481 74.5129 134.795 74.1198 132.282 73.7182C131.618 73.6126 130.958 73.4921 130.311 73.3294C130.286 73.3547 130.261 73.3843 130.233 73.4097C128.077 75.4788 125.043 76.0114 122.306 74.83C120.725 74.1473 119.399 73.0483 118.227 71.7886C118.21 72.448 118.176 73.1074 118.119 73.7605L118.096 74.0199C117.979 75.2362 117.755 76.5264 116.838 77.4042C115.356 78.8266 113.205 78.2559 111.495 77.3302C111.497 77.3746 111.497 77.4211 111.497 77.4676C111.959 79.04 112.423 80.6146 112.887 82.1892L112.987 82.5246C113.324 83.6426 113.694 84.7621 113.795 85.9322C113.989 88.1683 112.505 90.3769 110.026 89.6266C108.725 89.2344 107.684 88.1383 106.684 87.2603L106.054 86.7142C107.684 92.055 108.814 97.586 108.919 103.159C108.925 103.462 108.666 103.69 108.379 103.7C107.709 103.728 106.988 103.595 106.313 103.326C106.275 103.324 106.237 103.322 106.197 103.316C105.046 103.149 103.977 102.732 103.035 102.117C103.252 102.809 103.349 103.55 103.292 104.326C103.278 104.514 102.984 104.58 102.942 104.372C102.398 101.69 99.2677 99.6636 96.5692 100.177C93.6725 100.729 91.539 103.227 91.0161 106.07C90.4553 109.124 91.5284 112.655 93.5165 115.012C94.4314 116.098 95.6352 117.005 97.0646 117.233C97.7182 117.337 98.397 117.301 99.0316 117.115C99.3014 117.034 99.5544 116.922 99.8116 116.817C100.187 116.665 100.625 116.641 100.98 116.481C101.783 116.119 102.59 116.861 102.183 117.688C101.829 118.408 101.511 118.894 100.923 119.266C101.399 119.85 101.831 120.661 101.992 120.879C102.81 121.986 103.64 123.033 104.572 124.045C105.521 125.072 106.556 126.011 107.65 126.879L108.11 127.243C109.164 128.081 110.082 128.858 110.825 130.06C111.411 131.009 110.652 132.296 109.554 132.281C106.117 132.233 103.619 129.206 101.84 126.562C101.587 126.184 101.349 125.784 101.127 125.374C101.047 125.503 100.958 125.624 100.859 125.734L101.055 126.262C101.637 127.818 99.1307 128.834 98.4033 127.382C97.8742 126.33 97.2607 125.328 96.5776 124.381C96.1749 124.324 95.7807 124.079 95.5615 123.762C95.007 122.957 94.3851 122.143 93.8601 121.285C93.5692 121.008 93.2698 120.742 92.9641 120.482C92.8756 120.56 92.7849 120.638 92.6985 120.72C92.3148 121.598 91.8405 122.399 91.2523 123.153L91.1262 123.314C89.9993 124.738 88.5316 126.195 86.7154 126.543C86.1609 126.649 85.6275 125.958 86.1187 125.516C87.39 124.37 88.8932 123.591 90.0653 122.312C90.6428 121.682 91.1731 120.988 91.629 120.261L91.7329 120.093C91.8088 119.968 91.8868 119.843 91.9669 119.717C91.4378 119.355 90.9086 118.992 90.3795 118.628C88.9227 119.876 87.0257 120.446 85.4145 121.48L85.2544 121.585C83.7976 122.561 82.2628 120.401 83.4308 119.216C84.7183 117.913 85.793 116.361 86.9336 114.913C86.3972 113.923 86.1434 112.752 86.0483 111.568C86.0108 111.233 85.9815 110.898 85.9522 110.563C85.1342 110.576 84.312 110.295 83.6163 109.811L83.3528 109.622C82.5074 109.893 81.6198 110.024 80.7702 110.001C78.7716 109.942 77.9536 107.653 79.2038 106.205C80.4793 104.725 82.7119 104.402 84.4807 105.121C84.5376 105.091 84.5966 105.059 84.6535 105.028C84.5692 104.639 84.588 104.286 84.6839 103.976L84.6561 103.787C84.2671 103.189 84.0114 102.506 83.9144 101.784C83.8377 101.212 83.8533 100.646 83.9852 100.081C84.0291 99.8933 84.1204 99.6987 84.1901 99.5028C84.0464 99.1388 83.9618 98.7626 83.9357 98.3843C83.8954 98.3363 83.8554 98.2871 83.8174 98.2338C82.9398 96.9985 83.1171 95.5099 83.9523 94.5103C83.9561 94.4466 83.962 94.383 83.9707 94.3198C83.9218 94.2095 83.8769 94.0981 83.836 93.9855C83.0199 93.1601 82.4207 92.167 82.5325 90.9363C82.598 90.2122 82.8949 89.5604 83.3441 89.0733C83.2644 88.837 83.2568 88.5633 83.3534 88.3348C82.6364 86.4229 82.727 84.1203 83.2431 81.982C83.1293 81.6566 83.0703 81.3036 83.0829 80.9295C83.1419 79.3423 84.5123 77.884 86.1356 77.903C86.331 77.9047 86.514 77.9302 86.6899 77.9677L86.6922 77.9298C86.7544 77.4534 86.8851 77.0132 87.0759 76.6182C86.9821 76.5842 86.8952 76.5353 86.8191 76.4705C85.7789 77.0267 84.6782 77.452 83.5242 77.7417C82.6756 77.9548 81.8064 76.9878 82.3339 76.1894C82.5786 75.8189 82.8487 75.4862 83.1396 75.1823C82.726 75.1846 82.306 75.2127 81.8812 75.2674C81.118 75.3668 80.2663 74.8447 79.7709 74.1388C79.1553 74.7391 78.5376 75.3372 77.9199 75.9353C76.3556 77.4549 73.9923 76.3369 73.7456 74.3333C73.2797 74.2086 72.8454 73.9972 72.4638 73.695C69.9972 74.7687 67.3429 75.3583 64.6297 75.4703C62.6817 75.5507 61.5432 73.2765 62.454 71.6703C63.0654 70.5924 63.8243 69.6244 64.6992 68.7832C63.3415 69.1996 61.9396 69.4997 60.5081 69.692C59.7344 69.7956 58.6402 69.1531 58.3303 68.4408C57.1455 65.7017 57.2467 62.8464 58.6107 60.1813C58.6634 60.0756 58.7224 59.9741 58.7794 59.8727C58.9206 59.5197 59.0745 59.171 59.2411 58.8286C57.5629 57.0744 57.4175 54.4664 58.3219 52.2831C57.9593 51.6934 57.8201 50.9833 58.0668 50.3408C58.7688 48.4915 59.7808 46.7838 61.0583 45.317C60.9361 45.0803 60.8285 44.8288 60.7379 44.5582C60.019 42.3708 60.8517 39.731 62.532 38.2072C63.5882 37.2476 64.8025 36.6728 66.0991 36.305C66.6451 35.337 67.3472 34.4642 68.1652 33.7287C68.1968 33.6589 68.2284 33.5892 68.2642 33.5194C69.5376 31.1143 71.8566 29.825 74.3422 29.527C74.4392 28.5865 75.0717 27.6883 75.9909 27.3966C76.2438 26.5829 76.6212 25.8051 77.1398 25.0992C77.9557 23.9875 79.3113 23.4634 80.5889 24.1925C81.2888 24.592 81.9592 25.0506 82.5875 25.5579C82.8697 25.4252 83.1896 25.3394 83.5505 25.312L83.6416 25.3063L85.7203 25.2007C86.591 24.8139 87.4596 24.4081 88.3303 24.0129C88.8531 23.5796 89.4371 23.2182 90.0738 22.9498C90.7948 22.6476 91.5326 22.4764 92.2726 22.4193C92.8735 22.2227 93.4785 22.0494 94.0941 21.9142C95.5404 21.5972 97.0541 21.4196 98.5551 21.4344C98.5858 21.0449 98.6011 20.6508 98.5982 20.252L98.5952 20.0522C98.5615 18.7735 99.5797 17.7527 100.779 17.5709ZM99.3225 119.875C99.1159 119.919 98.9072 119.955 98.6985 119.981C98.7617 120.137 98.825 120.294 98.8861 120.45C99.0548 120.545 99.2255 120.636 99.3963 120.72C99.3457 120.433 99.3162 120.143 99.3225 119.875ZM88.4911 116.648L88.351 116.907C88.3283 116.949 88.3059 116.991 88.2839 117.032C88.5811 117.009 88.8805 117.015 89.1757 117.049L89.1748 117.018C89.1369 117.005 89.0989 116.993 89.0627 116.975C88.859 116.877 88.6697 116.767 88.4911 116.648ZM94.345 104.844C96.2102 104.953 97.7904 105.239 99.4867 106.057L99.6324 106.129C101.131 106.875 103.611 108.253 103.402 110.229C103.343 110.791 102.936 111.383 102.295 111.339C100.539 111.218 99.5354 109.443 98.3464 108.335C97.1468 107.219 95.6732 106.072 94.2206 105.305C94.0153 105.197 94.0962 104.855 94.3196 104.844L94.345 104.844ZM85.8868 78.8076C85.4399 78.8224 85.5896 79.2577 85.8194 78.8942C85.8384 78.8646 85.8615 78.835 85.8868 78.8076ZM110.012 49.7422C105.78 49.8538 101.519 52.3594 98.3485 54.892C95.5899 57.0953 93.2078 59.7161 91.0986 62.5408C90.5559 63.9475 90.09 65.3836 89.6964 66.8303C89.4371 67.7856 89.2747 68.7515 89.0576 69.7153L88.9901 70.0107C88.8196 70.3303 88.6929 70.6742 88.6005 71.0294C88.9849 71.4158 89.4835 71.6925 90.0324 71.8237C90.2093 71.866 90.3563 71.9575 90.4724 72.0788C90.9143 71.3395 91.3005 70.5592 91.5253 69.732L91.5335 69.6937C92.3829 68.299 93.3055 66.9476 94.2944 65.6426C97.0225 62.039 100.027 58.7546 103.638 56.0219C106.377 53.9507 109.438 52.3275 112.693 51.2728C111.896 50.6284 110.991 50.1187 110.012 49.7422Z" fill="black"/>
<path fill-rule="evenodd" clip-rule="evenodd" d="M143.152 128.274C141.732 127.695 140.465 126.728 139.538 125.493C139.216 125.063 139.133 124.61 139.2 124.195C139.276 123.729 139.552 123.306 139.928 123.023C140.305 122.739 140.777 122.598 141.233 122.67C141.63 122.732 142.024 122.949 142.337 123.399L142.402 123.489C142.953 124.235 143.67 124.846 144.488 125.241C145.276 125.621 146.158 125.798 147.07 125.695C148.808 125.499 150.005 124.559 151.278 123.282C151.436 123.121 151.594 122.955 151.752 122.786C151.852 122.633 151.991 122.534 152.146 122.483C152.317 122.425 152.511 122.429 152.689 122.491C152.86 122.55 153.013 122.664 153.116 122.815C153.213 122.958 153.269 123.135 153.251 123.339C153.134 124.661 152.443 125.842 151.461 126.769C150.37 127.799 148.924 128.511 147.563 128.761C146.064 129.036 144.536 128.839 143.152 128.274ZM148.271 107.866C149.866 108.836 152.297 111.098 150.581 113.503C148.56 115.624 145.652 113.193 144.219 112.093C142.889 111.241 141.396 113.433 142.629 114.428C152.986 122.099 157.19 108.12 149.078 106.726C148.184 106.572 147.853 107.566 148.271 107.866ZM129.711 98.9429C129.887 96.7541 133.219 96.257 133.551 98.423C133.847 100.363 133.498 102.145 132.624 103.892C131.79 105.561 129.692 104.783 129.533 103.263C129.32 101.226 129.601 100.304 129.711 98.9429ZM155.076 97.9739C155.541 97.3652 156.211 96.9497 157.015 97.1845C159.526 97.9185 158.786 101.485 157.904 103.22C157.425 104.163 155.876 104.402 155.176 103.572C154.035 102.219 153.489 99.5157 154.939 98.1825C154.979 98.1136 155.022 98.044 155.076 97.9739ZM132.589 89.3654L132.986 89.2959C134.213 89.0836 135.738 88.8796 136.606 89.8665C137.067 90.3898 137.225 91.3624 136.606 91.8633C135.518 92.7446 134.314 92.4031 133.01 92.4777C131.935 92.5394 130.902 92.7174 129.867 93.0135C127.595 93.6629 125.744 94.8486 123.804 96.1505C123.55 96.3213 123.29 95.9956 123.411 95.7574C124.531 93.563 126.701 91.7604 128.875 90.6616C130.036 90.0751 131.305 89.5885 132.589 89.3654ZM152.787 88.3823L153.091 88.4445C156.394 89.1353 160.687 90.5153 162.251 93.7615C162.311 94.2205 162.248 94.3189 162.197 94.3832L162.179 94.4046C162.137 94.4595 162.104 94.5351 161.905 94.5976C161.849 94.5845 161.794 94.5705 161.737 94.5557C161.02 94.3677 160.453 94.1087 159.904 93.84L159.308 93.5465C158.617 93.2076 157.92 92.881 157.181 92.6399C155.605 92.1255 153.983 91.7631 152.337 91.5696C151.98 91.5277 151.636 91.4072 151.365 91.2007C151.107 91.0046 150.911 90.7332 150.821 90.3724C150.705 89.9056 150.738 89.5521 150.989 89.1309C151.177 88.8146 151.447 88.5953 151.756 88.4694C152.071 88.3411 152.43 88.3108 152.787 88.3823Z" fill="black"/>
<path fill-rule="evenodd" clip-rule="evenodd" d="M172.803 91.775C172.629 91.7461 172.455 91.7188 172.281 91.6932C172.145 91.6161 171.986 91.5567 171.8 91.521C171.377 91.4134 170.956 91.3409 170.536 91.3018C164.508 89.9447 150.563 91.8716 149.987 97.0176C148.068 97.6586 146.407 97.0845 144.182 97.1416C142.489 90.0603 113.21 91.0598 111.802 95.3291C111.797 95.3276 111.792 95.3263 111.786 95.3246C110.433 94.9057 108.439 95.0068 106.89 94.9404C103.584 94.8711 100.273 95.1659 97.0381 95.8636C90.98 96.8267 82.712 97.9543 86.9254 105.522C86.9262 105.524 86.9268 105.525 86.9279 105.526L86.9285 105.526C87.6546 106.27 88.887 105.671 88.9328 104.663C87.5163 101.077 90.7157 100.647 93.1774 99.6165C99.3027 97.4151 105.539 97.1099 111.874 97.7909C112.351 98.3522 113.074 98.8417 113.838 99.0979C118.074 99.8012 115.842 102.944 118.519 103.402C118.027 114.358 131.325 120.339 139.029 113.137C142.105 110.128 142.839 105.671 143.552 101.653C143.929 101.568 144.169 101.362 144.309 101.089C145.216 100.183 145.786 99.3466 147.579 99.0979C149.373 98.8493 150.753 99.3483 150.94 99.5011C150.987 99.596 151.038 99.6911 151.096 99.7862C151.178 99.9281 151.29 100.041 151.417 100.13C149.646 111.041 158.113 117.941 166.66 112.282C170.374 108.787 171.159 103.436 171.314 98.66C171.818 98.356 172.137 97.767 171.962 97.0264C171.722 96.0056 172.285 95.1217 173.182 94.6779C174.348 94.1016 174.142 91.9967 172.803 91.775ZM136.075 96.9512C135.014 96.7178 134.561 98.3542 135.625 98.5883C136.379 98.7541 137.017 99.1343 137.449 99.7784L137.495 99.8485C138.074 100.77 139.538 99.9193 138.955 98.9915C138.299 97.9474 137.279 97.2161 136.075 96.9512ZM167.149 95.9366C166.775 95.673 166.209 95.8687 165.992 96.2411C165.753 96.6512 165.91 97.1079 166.26 97.3762L166.296 97.4024C166.617 97.6289 166.93 98.035 166.969 98.4511L166.973 98.5032C167.015 99.5921 168.706 99.5976 168.664 98.5032C168.623 97.4325 168.003 96.538 167.149 95.9366Z" fill="black"/>
</svg>
