<svg width="240" height="324" viewBox="0 0 240 324" fill="none" xmlns="http://www.w3.org/2000/svg">
<path fill-rule="evenodd" clip-rule="evenodd" d="M181.079 176.597C179.237 169.454 177.544 166.425 174.273 163.942C171.213 161.62 166.747 159.669 160.229 158.244C153.441 157.057 153.249 153.528 151.547 147.857C151.051 146.152 148.59 145.698 147.528 146.927C147.378 146.766 147.222 146.618 147.061 146.484C147.205 145.671 146.022 143.34 146.061 142.562C146.474 134.444 143.819 130.367 137.192 128.852C135.751 128.522 125.963 128.328 124.558 128.716C118.415 130.415 112.368 135.808 113.293 142.305C111.365 144.826 109.478 146.364 106.503 147.176C101.87 147.765 104.198 213.41 112.243 252.739C115.696 269.613 198.24 240.892 194.51 232.441C195.039 230.892 194.075 229.189 194.51 227.59C194.825 226.432 195.631 225.953 196.037 224.807C196.608 223.194 195.987 221.029 195.344 219.383C195.081 218.563 195.829 217.68 196.037 216.843C197.023 212.894 194.765 213.242 193.136 210.602C193.16 210.594 193.584 208.71 193.582 208.719C193.831 207.374 193.207 205.65 192.662 204.527C192.294 203.768 191.505 203.293 190.721 203.38C191.51 200.7 192.509 198.47 193.582 195.887C195.48 191.336 197.286 186.574 200.012 182.455C201.128 180.768 200.227 179.216 198.42 179.101C192.573 178.729 186.789 177.887 181.079 176.597Z" fill="#D08B5B"/>
<path fill-rule="evenodd" clip-rule="evenodd" d="M171.951 177.149L158.603 199.744C158.603 199.744 161.769 200.06 163.051 200.676C164.332 201.292 170.216 208.774 170.216 208.774L171.151 212.894L168.936 216.216L169.8 218.301C169.8 218.301 170.416 216.888 171.951 215.791C173.485 214.694 176.869 212.894 176.869 212.894C176.869 212.894 175.745 212.292 175.745 211.586C175.745 210.879 174.754 207.865 176.869 206.726C178.985 205.587 189.915 202.923 189.915 202.923L200.993 179.549L171.951 177.149Z" fill="#EC7495"/>
<path fill-rule="evenodd" clip-rule="evenodd" d="M112.407 147.33L154.79 154.77L174.273 163.942L177.453 166.393L158.603 199.744L129.496 205.056L122.081 224.323L123.594 246.04L170.945 240.393L191.37 237.966L196.171 257.354L195.304 265.33L194.042 269.375L143.408 283.049C143.408 283.049 117.624 280.549 113.053 280.549C108.483 280.549 74.9718 283.878 74.9718 283.878L67.2183 283.049C67.2183 283.049 50.0637 264.964 47.403 258.527C44.7424 252.091 38.9889 212.965 38.9889 212.965L39.6224 206.953L54.4436 168.801C54.4436 168.801 56.4228 167.003 58.918 163.942C61.4132 160.881 112.407 147.33 112.407 147.33Z" fill="#9DDADB"/>
<path fill-rule="evenodd" clip-rule="evenodd" d="M189.116 202.441C185.286 202.635 181.451 203.546 177.987 205.197C176.569 205.873 175.284 206.85 174.908 208.456C174.718 209.276 174.765 210.124 174.866 210.952C174.942 211.58 174.961 212.381 175.506 212.805C175.599 212.877 175.699 212.932 175.802 212.972C174.524 213.549 173.307 214.243 172.225 214.957C171.237 215.61 170.22 216.616 169.764 217.751C169.726 217.622 169.688 217.502 169.65 217.388C168.872 215.088 167.675 213.205 165.788 211.939C165.574 211.158 163.275 207.797 161.139 207.923C158.8 208.061 156.919 208.232 154.804 209.308C154.033 209.291 153.264 209.301 152.503 209.335C152.372 209.339 152.379 209.517 152.503 209.532C153.12 209.61 153.737 209.696 154.354 209.798C155.82 210.033 157.282 210.331 158.712 210.7C160.428 211.144 162.203 211.59 163.806 212.366C166.916 213.873 168.841 217.813 168.446 221.24C168.38 221.803 168.163 223.502 167.383 223.326C166.724 223.179 166.462 221.803 166.232 221.293C165.615 219.941 164.503 219.057 163.17 218.459C161.605 217.755 159.93 217.28 158.307 216.726C157.388 216.411 156.469 216.096 155.548 215.783C154.606 215.46 153.71 215.014 152.706 215.24C152.1 215.378 152.03 216.1 152.37 216.515C152.888 217.147 153.657 217.333 154.403 217.593C155.387 217.935 156.37 218.278 157.352 218.62C158.871 219.148 160.462 219.594 161.943 220.241L161.896 220.346C161.776 220.313 161.634 220.433 161.658 220.581C161.88 221.948 162.188 223.529 161.846 224.899C161.575 225.985 160.622 227.188 159.384 226.869C159.579 226.691 159.651 226.385 159.52 226.101C159.029 225.053 152.607 220.915 152.034 222.452C152.015 222.506 152.074 222.547 152.121 222.538C152.609 222.437 153.427 223.269 153.817 223.534C154.381 223.914 154.954 224.286 155.512 224.677C156.122 225.104 156.718 225.552 157.299 226.015C157.756 226.379 158.1 226.757 158.624 226.941C158.349 227.072 158.131 227.315 158.039 227.625C157.802 228.435 157.346 229.122 156.553 229.479C155.723 229.851 154.787 229.616 153.913 229.707C152.721 229.828 151.682 230.394 150.813 231.204C148.99 232.907 148.075 235.908 145.525 236.713C144.002 237.193 142.312 236.891 140.77 236.673C139.048 236.43 137.37 236.238 135.636 236.491C133.975 236.735 132.406 237.309 130.889 238.011C129.467 238.668 127.895 239.413 126.634 240.393C126.374 239.592 126.112 238.799 125.913 237.981C125.444 236.048 125.191 234.078 125.129 232.091C125.073 230.2 125.178 228.3 125.341 226.416C125.421 225.476 125.548 224.54 125.628 223.599C125.649 223.362 125.692 223.109 125.723 222.855C127.975 221.526 130.341 220.507 132.727 219.459C132.733 219.457 132.739 219.452 132.746 219.451C132.82 219.416 132.892 219.385 132.965 219.353C132.963 219.349 132.961 219.345 132.957 219.34C133.23 219.174 133.42 218.952 133.534 218.702C136.971 216.422 139.844 213.309 141.987 209.677C142.884 208.156 143.749 206.577 144.923 205.244C146.174 203.821 147.659 202.976 149.497 202.536C151.646 202.02 153.86 201.712 156.061 201.536C157.263 201.441 158.607 201.293 159.917 201.3C160.83 201.306 161.723 201.384 162.543 201.61C163.758 201.944 164.468 202.868 165.23 203.802C165.959 204.698 166.684 205.596 167.364 206.531C168.008 207.416 168.617 208.331 169.145 209.291C169.462 209.866 169.756 210.458 170.003 211.068C170.089 211.284 170.203 211.529 170.256 211.753C170.309 211.979 170.212 212.218 170.465 212.218C169.42 212.233 168.725 214.841 169.764 214.78C171.226 214.695 171.96 212.942 171.674 211.387C171.163 208.613 168.404 205.262 167.858 204.552C166.652 202.984 165.408 200.938 163.477 200.209C163.449 200.198 163.42 200.188 163.392 200.179C163.954 199.647 164.398 199.009 164.822 198.36C165.26 197.692 165.781 196.927 165.925 196.134C166.016 195.629 165.389 195.342 165.091 195.783C164.658 196.428 164.449 197.244 164.125 197.952C163.796 198.67 163.394 199.349 163.077 200.074C162.315 199.839 161.491 199.732 160.652 199.696C161.711 198.263 163.519 195.498 163.737 195.143C164.738 193.499 165.691 191.804 166.601 190.106C167.586 188.268 168.429 186.353 169.371 184.493C169.906 183.439 170.444 182.375 171.038 181.352C171.243 181.001 171.463 180.651 171.712 180.331C171.761 180.268 171.822 180.215 171.879 180.156C171.944 180.12 172.012 180.08 172.05 180.059C172.392 179.862 172.513 179.406 172.753 179.116C173.138 178.649 173.59 178.594 174.169 178.588C175.403 178.575 176.641 178.624 177.872 178.658C179.683 178.708 181.492 178.78 183.3 178.875C183.847 178.905 184.392 178.934 184.939 178.968C187.57 179.125 190.198 179.33 192.82 179.581C195.139 179.803 197.459 180.165 199.781 180.338C196.637 187.809 193.151 195.145 189.205 202.225C189.165 202.297 189.135 202.369 189.116 202.441ZM171.674 221.688C171.167 221.921 170.675 222.211 170.216 222.54C170.292 222.027 170.311 221.486 170.29 220.942C170.668 221.348 171.152 221.581 171.674 221.688ZM193.318 208.836C193.282 208.84 193.249 208.86 193.232 208.895C192.53 210.343 192.824 211.96 193.969 213.095C194.569 213.687 195.877 214.355 195.834 215.327C195.798 216.113 194.943 216.772 194.577 217.421C194.237 218.026 194.111 218.689 194.383 219.345C194.732 220.184 195.706 220.518 196.039 221.342C196.462 222.388 195.775 223.65 195.294 224.561C194.846 225.404 194.267 226.247 193.882 227.139C191.307 228.473 185.463 230.895 184.76 231.03C183.902 231.197 183.042 231.356 182.18 231.504C180.526 231.791 178.868 232.057 177.205 232.292C176.258 232.425 175.31 232.556 174.361 232.66C173.533 232.748 172.599 232.869 171.932 232.246C170.586 230.986 171.34 228.874 172.192 227.602C172.208 227.577 172.208 227.553 172.202 227.532C173.005 227.344 173.806 227.124 174.604 226.97C176.14 226.674 177.687 226.425 179.235 226.203C182.417 225.749 185.62 225.448 188.818 225.146C189.61 225.07 189.619 223.823 188.818 223.897C184.223 224.318 179.605 224.717 175.071 225.603C173.934 225.823 172.806 226.072 171.684 226.353C171.154 226.484 170.586 226.689 170.03 226.696C169.996 226.696 169.962 226.696 169.929 226.693C168.841 226.66 168.682 225.728 169.28 224.952C169.354 224.857 169.43 224.762 169.508 224.671C170.565 223.411 171.881 222.57 173.237 221.699C174.756 221.492 176.271 221.031 177.758 220.693C181.43 219.856 185.102 219.019 188.776 218.184C189.496 218.019 189.19 216.912 188.47 217.075C185.681 217.707 182.892 218.339 180.103 218.971L176.022 219.896C175.206 220.08 174.188 220.45 173.229 220.583C172.756 220.649 172.297 220.657 171.883 220.56C170.546 220.243 170.478 218.571 171.055 217.578C171.701 216.462 172.923 215.764 174.006 215.132C175.884 214.035 177.883 213.247 179.835 212.338C180.182 212.262 180.528 212.186 180.875 212.11C182.89 211.666 185.193 211.449 187.09 210.635C187.658 210.394 187.348 209.498 186.786 209.51C185.313 209.542 183.773 210.066 182.334 210.377C180.777 210.715 179.218 211.051 177.661 211.387C177.505 211.421 176.58 211.717 176.44 211.651C176.351 211.609 176.32 211.301 176.29 211.098C176.195 210.43 176.125 209.728 176.229 209.058C176.457 207.555 177.71 206.85 178.977 206.273C181.8 204.99 184.895 204.187 187.975 203.865C188.685 203.791 189.395 203.745 190.109 203.722C190.948 203.696 191.639 203.548 192.063 204.375C192.731 205.677 193.099 207.351 193.318 208.836ZM189.398 256.04C188.783 253.912 188.951 251.64 188.529 249.47C188.312 248.35 188.015 247.239 187.691 246.146C187.43 245.263 186.993 244.324 186.944 243.403C186.941 243.341 187.013 243.306 187.063 243.334C187.931 243.831 188.597 244.906 189.092 245.749C189.684 246.758 190.137 247.815 190.502 248.926C191.229 251.14 191.826 253.81 190.888 256.04C190.609 256.704 189.629 256.837 189.398 256.04ZM165.397 272.149C164.48 271.509 163.812 270.614 163.035 269.825C162.271 269.049 163.466 267.853 164.23 268.63C164.893 269.303 165.469 270.144 166.25 270.689C166.625 270.95 166.799 271.424 166.553 271.845C166.335 272.217 165.771 272.41 165.397 272.149ZM160.286 247.559C161.959 246.835 163.604 246.047 165.355 245.526C166.402 245.214 166.845 246.846 165.804 247.156C164.192 247.636 162.679 248.352 161.139 249.018C160.15 249.446 159.29 247.989 160.286 247.559ZM142.617 247.052C142.208 246.042 143.844 245.607 144.247 246.603C144.711 247.749 145.243 248.865 145.707 250.011C146.116 251.021 144.481 251.457 144.078 250.461C143.614 249.315 143.081 248.198 142.617 247.052ZM125.178 267.219C124.906 267.583 124.451 267.78 124.022 267.523C123.662 267.307 123.443 266.734 123.719 266.366C124.524 265.292 125.341 264.231 126.285 263.273C127.05 262.497 128.245 263.693 127.48 264.469C126.637 265.324 125.898 266.26 125.178 267.219ZM122.685 154.064C123.461 154.594 124.14 155.238 124.803 155.901C125.573 156.671 124.378 157.866 123.608 157.096C123.049 156.538 122.486 155.971 121.832 155.524C121.454 155.266 121.284 154.785 121.528 154.367C121.748 153.993 122.308 153.807 122.685 154.064ZM148.056 181.273C147.617 182.151 147.223 183.012 147.198 184.011C147.171 185.099 145.481 185.1 145.508 184.011C145.54 182.704 146.022 181.571 146.597 180.419C147.083 179.444 148.54 180.302 148.056 181.273ZM157.365 159.42C158.274 158.815 159.119 160.28 158.218 160.88C157.488 161.367 156.758 161.854 156.028 162.341C155.119 162.947 154.274 161.482 155.175 160.881C155.905 160.394 156.635 159.907 157.365 159.42ZM116.989 197.627C116.833 198.701 115.205 198.242 115.359 197.178C115.596 195.533 115.886 193.91 116.332 192.308C116.624 191.26 118.254 191.708 117.962 192.757C117.516 194.359 117.226 195.982 116.989 197.627ZM111.063 216.995C109.975 216.972 109.975 215.281 111.063 215.304C112.047 215.325 113.015 215.584 113.965 215.821C115.021 216.085 114.571 217.716 113.515 217.452C112.712 217.251 111.895 217.013 111.063 216.995ZM108.875 256.01C108.502 256.192 108.118 256.356 107.74 256.529C106.984 256.875 106.228 257.221 105.472 257.569C103.897 258.292 102.323 259.017 100.751 259.745C97.6026 261.203 94.4305 262.61 91.275 264.051C88.0572 265.522 84.8478 267.012 81.6424 268.51C80.1323 269.215 78.6107 269.894 77.0921 270.581C75.7937 271.169 74.1887 272.195 72.7633 272.291C72.69 272.297 72.6655 272.204 72.7073 272.156C73.2458 271.544 74.1048 271.187 74.8126 270.789C75.5355 270.382 76.272 269.999 77.0051 269.611C78.5334 268.801 80.0636 267.997 81.6067 267.216C84.6933 265.653 87.7859 264.102 90.8791 262.552C94.0337 260.972 97.1843 259.381 100.367 257.857C101.865 257.14 103.365 256.424 104.865 255.711C105.678 255.324 106.492 254.939 107.305 254.554C107.656 254.387 108.004 254.208 108.363 254.059C108.841 253.862 109.203 253.902 109.696 253.78C110.498 253.582 110.846 254.603 110.23 255.048C109.722 255.414 109.455 255.727 108.875 256.01ZM97.5921 273.348C97.4186 272.926 97.7818 272.413 98.1824 272.308C98.6621 272.181 99.0469 272.473 99.222 272.898C99.6853 274.026 100.345 275.06 101.195 275.934C101.954 276.715 100.76 277.911 99.9997 277.129C98.9351 276.034 98.1703 274.754 97.5921 273.348ZM89.2912 246.208C88.5207 245.437 89.716 244.242 90.4863 245.012L92.6767 247.204C93.4472 247.974 92.2517 249.17 91.4816 248.399L89.2912 246.208ZM66.8186 242.635C65.2438 243.097 63.4071 243.522 62.3334 244.866C62.281 244.932 62.1929 244.848 62.2244 244.782C63.5989 241.931 67.5407 240.932 70.2699 239.933C72.2002 239.226 74.1809 238.64 76.1782 238.117C75.9786 235.838 76.5291 233.395 76.7205 231.127C76.9248 228.705 77.0911 226.277 77.1764 223.848C77.2637 221.37 77.2848 218.875 77.2033 216.396C77.1222 213.926 76.8017 211.487 76.6614 209.026C76.6479 208.788 76.9791 208.776 77.0505 208.973C77.88 211.257 78.2343 213.787 78.5043 216.195C78.7823 218.677 78.8746 221.15 78.8391 223.646C78.8024 226.212 78.6532 228.771 78.4485 231.329C78.3515 232.541 78.2389 233.752 78.1326 234.963C78.0515 235.888 78.0139 236.805 77.8255 237.7C79.0301 237.404 80.2375 237.124 81.4411 236.852C85.279 235.986 89.1329 235.182 92.9548 234.245C94.8308 233.785 96.68 233.235 98.5476 232.745C100.306 232.285 102.162 231.727 103.968 231.521C104.612 231.448 104.694 232.329 104.268 232.629C102.8 233.659 100.851 234.377 99.1563 234.954C97.4552 235.533 95.6869 235.95 93.9433 236.378C90.3071 237.273 86.6366 238.005 82.9715 238.766C79.3115 239.528 75.6445 240.283 72.0257 241.222C70.283 241.674 68.5462 242.128 66.8186 242.635ZM58.189 197.402C57.248 197.954 56.3985 196.492 57.3361 195.942C58.5629 195.221 59.8705 194.68 61.1886 194.152C62.2001 193.747 62.6353 195.383 61.6379 195.783C60.4533 196.257 59.2914 196.754 58.189 197.402ZM54.7817 260.218C53.8381 260.765 52.988 259.304 53.9288 258.758C55.25 257.992 56.697 257.481 58.0662 256.81C59.0404 256.333 59.896 257.792 58.9191 258.27C57.5501 258.941 56.1029 259.452 54.7817 260.218ZM53.2491 224.561C54.1614 225.427 55.3789 225.836 56.5269 226.291C57.5279 226.688 57.0889 228.322 56.0776 227.921C54.6473 227.354 53.1904 226.836 52.054 225.756C51.2634 225.005 52.4607 223.811 53.2491 224.561ZM63.3416 176.135C64.3445 176.528 63.9052 178.163 62.8922 177.765C61.7687 177.325 60.6084 176.989 59.4849 176.548C58.4822 176.155 58.9212 174.52 59.9343 174.918C61.0578 175.358 62.2181 175.694 63.3416 176.135ZM81.1457 156.9C82.2114 156.721 82.6652 158.35 81.5951 158.531C80.2675 158.755 78.9602 159.017 77.701 159.505C76.6842 159.898 76.2479 158.263 77.2517 157.874C78.511 157.387 79.8183 157.125 81.1457 156.9ZM87.0285 203.732C86.0514 203.251 86.9087 201.794 87.8814 202.272C88.9064 202.776 89.9685 203.166 91.0869 203.404C92.1519 203.631 91.6983 205.261 90.6376 205.035C89.3788 204.766 88.1812 204.299 87.0285 203.732ZM92.5846 177.352C93.6367 177.064 94.0817 178.695 93.034 178.983C91.1907 179.488 89.2929 179.751 87.436 180.2C86.3778 180.456 85.9301 178.826 86.9867 178.57C88.8435 178.12 90.7415 177.858 92.5846 177.352ZM116.155 169.074C117.225 169.272 116.769 170.901 115.706 170.705C114.574 170.495 113.427 170.492 112.28 170.491C111.19 170.491 111.192 168.8 112.28 168.8C113.583 168.801 114.87 168.836 116.155 169.074ZM193.027 177.907C190.265 177.643 187.5 177.432 184.73 177.273C184.601 177.267 184.475 177.259 184.346 177.252C184.331 177.223 184.312 177.195 184.293 177.165C183.389 175.838 182.723 174.511 182.146 173.01C181.595 171.582 181.061 170.109 180.211 168.819C179.243 167.351 177.935 166.201 176.502 165.205C175.632 165.79 174.825 166.475 174.087 167.2C173.31 167.964 172.115 166.769 172.892 166.005C173.548 165.36 174.248 164.764 174.988 164.226C174.134 163.706 173.262 163.218 172.411 162.732C169.223 160.913 165.959 159.23 162.627 157.692C161.079 156.975 159.511 156.339 157.933 155.694C157.084 155.348 156.245 154.902 155.396 154.5C155.457 153.9 155.277 153.228 154.817 152.833C154.477 152.543 154.213 152.435 153.807 152.231C153.716 152.199 153.661 152.18 153.636 152.169C153.655 152.173 153.71 152.19 153.8 152.22C154.016 152.319 154.033 152.29 153.851 152.133C153.841 151.791 153.167 151.068 153.013 150.715C152.476 149.504 152.309 148.223 151.517 147.12C150.425 145.6 148.591 145.026 146.881 145.541C146.704 143.713 146.658 141.805 145.969 140.173C145.95 140.129 145.889 140.109 145.861 140.158C145.143 141.382 145.082 142.745 145.027 144.157C144.974 145.482 145.024 146.837 145.198 148.153C145.088 148.238 144.976 148.318 144.86 148.396C144.315 148.756 143.727 149.033 143.111 149.238C141.936 149.626 140.704 149.796 139.472 149.855C136.293 150.007 133.016 149.686 129.889 149.14C126.727 148.589 121.878 147.76 119.064 146.177C117.207 145.133 115.494 143.859 113.757 142.624C114.387 140.595 114.547 138.414 113.913 136.7C113.837 136.495 113.516 136.457 113.455 136.7C113.058 138.336 112.942 139.98 112.413 141.597C112.405 141.621 112.396 141.646 112.388 141.669C112.223 141.557 112.058 141.447 111.894 141.337C111.513 141.086 110.996 141.274 110.768 141.633C107.119 147.384 101.341 147.714 95.2732 148.741C88.6328 149.865 81.9591 151.078 75.5746 153.279C69.469 155.384 63.6338 158.448 59.0112 163.026C57.9648 164.063 56.9862 165.167 56.0626 166.32C56.9562 166.433 57.8425 166.608 58.7174 166.883C59.7532 167.209 59.3081 168.84 58.268 168.513C57.1436 168.16 56.0068 167.985 54.8583 167.898C51.7174 172.197 49.2684 177.071 47.1507 181.868C43.0886 191.066 40.4446 200.862 39.2279 210.835C39.896 210.434 40.576 210.053 41.273 209.698C42.2414 209.205 43.0956 210.664 42.1261 211.158C41.0495 211.706 40.0037 212.31 38.9905 212.964C38.5479 217.33 38.3763 221.723 38.4802 226.11C38.7274 236.568 40.1387 247.332 43.331 257.309C44.8964 262.206 46.9711 267.064 50.0619 271.202C51.4605 273.076 53.0493 274.767 54.9211 276.177C55.8274 276.861 56.7866 277.473 57.7986 277.988C59.1021 278.656 60.8007 278.876 61.9246 279.82C62.2943 280.131 62.5795 280.541 62.795 281.004C62.6704 281.883 62.6556 282.765 62.8964 283.644C62.9725 283.919 63.1795 284.143 63.4352 284.25C63.4394 284.326 63.4394 284.4 63.4394 284.472C63.4394 284.506 63.4901 284.514 63.4964 284.481C63.507 284.415 63.5176 284.35 63.5281 284.282C63.6105 284.309 63.6971 284.322 63.7859 284.322C66.995 284.334 70.2082 284.256 73.4216 284.147C73.1731 283.386 72.904 282.631 72.6456 281.869C72.2947 280.835 73.9276 280.395 74.2753 281.42C74.5776 282.31 74.8937 283.192 75.1749 284.086C78.6179 283.958 82.0599 283.804 85.4957 283.69C92.8035 283.447 100.109 283.367 107.419 283.213C118.77 282.972 130.205 282.479 141.574 282.961C141.967 282.126 142.407 281.311 142.824 280.487C143.317 279.516 144.774 280.372 144.284 281.341C143.994 281.913 143.693 282.478 143.408 283.049C145.71 283.169 148.011 283.327 150.306 283.542C154.223 283.91 158.102 284.563 162.015 284.969C165.993 285.383 169.884 285.309 173.831 284.652C174.541 284.534 174.959 284.104 175.132 283.572C175.138 283.57 175.143 283.566 175.147 283.559C175.35 283.322 175.54 283.126 175.736 282.955C175.971 282.803 176.225 282.674 176.522 282.559C177.078 282.348 177.657 282.219 178.244 282.133C178.891 282.036 179.546 282.027 180.192 281.947C180.737 281.877 181.27 281.773 181.802 281.647C182.759 281.418 183.668 281.12 184.572 280.725C185.36 280.381 186.072 279.886 186.744 279.347C188.134 278.33 189.338 277.033 190.39 275.684C191.003 274.896 191.58 274.078 192.103 273.226C193.016 271.751 193.794 270.219 194.58 268.674C194.865 268.216 195.125 267.747 195.363 267.269C193.827 266.816 192.276 266.447 190.648 266.421C189.56 266.403 189.56 264.712 190.648 264.73C192.515 264.76 194.282 265.196 196.037 265.716C196.122 265.489 196.204 265.26 196.28 265.028C196.489 264.544 196.663 264.047 196.806 263.544C196.891 263.316 196.975 263.088 197.06 262.86C197.25 262.069 197.44 261.277 197.632 260.484C198.015 259.216 198.317 257.929 198.539 256.625C198.725 255.767 198.868 254.902 198.965 254.027C199.261 251.907 199.502 249.792 199.519 247.649C199.494 246.328 199.409 245.009 199.265 243.696C199.204 242.804 199.101 241.917 198.961 241.035C198.78 239.725 198.6 238.428 198.298 237.134C198.072 236.259 197.846 235.384 197.62 234.509C197.056 232.685 196.39 230.897 195.623 229.149C195.581 229.039 195.367 228.798 195.239 228.796C195.142 228.794 195.006 228.883 195.05 229.001C195.055 229.012 195.059 229.024 195.063 229.035C195.019 228.936 194.977 228.834 194.932 228.735C194.894 228.642 194.746 228.456 194.632 228.458C194.626 228.458 194.619 228.458 194.611 228.46C194.641 228.439 194.668 228.412 194.696 228.38C195.454 227.482 195.946 226.3 196.489 225.26C196.939 224.402 197.364 223.498 197.487 222.528C197.594 221.676 197.449 220.837 196.914 220.148C196.306 219.364 195.161 218.996 195.796 217.863C196.519 216.574 197.582 215.456 196.523 213.991C195.984 213.245 195.131 212.835 194.497 212.186C193.768 211.436 193.422 210.432 193.441 209.407C193.485 209.432 193.544 209.42 193.565 209.356C194.178 207.505 193.734 205.472 193.107 203.669C192.765 202.69 192.04 202.422 191.197 202.373C194.848 195.24 198.264 187.993 201.308 180.579C201.41 180.336 201.509 180.093 201.608 179.85C201.756 179.486 201.444 179.002 201.082 178.922C198.45 178.345 195.708 178.161 193.027 177.907Z" fill="black"/>
<path fill-rule="evenodd" clip-rule="evenodd" d="M164.715 96.1525C163.268 78.4678 158.862 62.8046 138.158 62.1367C128.815 62.2204 119.278 64.2103 110.686 67.892C89.8026 78.3889 83.1766 116.745 101.575 132.185C101.466 132.247 101.44 132.428 101.569 132.515C105.37 135.078 109.595 137.188 113.827 138.96C125.098 143.737 138.368 145.812 149.863 140.63C167.406 133.147 167.669 112.324 164.715 96.1525Z" fill="#D08B5B"/>
<path fill-rule="evenodd" clip-rule="evenodd" d="M199.246 87.9096C199.967 87.2587 200.505 86.4048 200.777 85.4474C201.025 84.5745 201.042 83.6213 200.779 82.7506C200.496 81.8164 199.887 81.0725 200.024 80.1003C200.039 80.0051 200.058 79.9058 200.087 79.8065C200.614 77.9762 201.911 76.6552 201.447 74.6263C201.316 74.0535 201.07 73.5378 200.726 73.132C200.764 72.6924 200.798 72.2486 200.825 71.8048C201.586 70.0188 201.559 67.8969 200.747 66.1385C200.648 65.2381 200.498 64.3462 200.288 63.4691C200.385 62.6934 200.25 61.8396 200.001 61.1611C199.564 59.9674 199.024 58.7911 198.438 57.6341C198.507 57.3177 198.476 56.9834 198.301 56.686C197.985 56.1456 197.566 55.6705 197.139 55.2061C196.836 54.6645 196.531 54.1272 196.229 53.5969C196.089 53.3532 195.935 53.0829 195.764 52.7965C196.229 51.933 196.477 51.0914 195.986 50.0758C195.801 49.6943 195.294 49.413 194.876 49.438C194.42 49.4652 193.959 49.4857 193.496 49.5033C192.63 48.4554 191.649 47.5147 190.598 46.9732C189.534 46.0686 188.454 45.181 187.404 44.2743C187.107 44.0164 186.808 43.7586 186.51 43.5007C186.508 43.4944 186.506 43.4859 186.504 43.4796C186.285 42.6786 186.038 41.8881 185.792 41.0934C185.638 40.601 185.591 40.0853 185.113 39.8169C184.113 39.2568 182.576 39.168 181.43 39.0729C181.316 38.9715 181.202 38.8721 181.088 38.7707C181.609 37.38 181.516 35.9027 180.86 34.5099C180.637 34.0365 179.861 33.823 179.435 34.1358C178.453 34.8586 177.287 35.1143 176.134 35.0087C174.439 33.7025 167.602 27.7961 166.545 27.1726C166.532 27.1502 166.522 27.1278 166.508 27.1056C165.914 26.155 165.193 25.3916 164.382 24.7795C164.266 24.6584 164.15 24.5371 164.035 24.4158C164.137 23.6911 164.404 22.9913 164.836 22.4058C164.882 22.3382 164.935 22.2727 164.988 22.2093C165.742 21.3089 164.821 20.1507 163.767 20.622C163.691 20.6559 163.615 20.6897 163.539 20.7256C162.729 21.0879 161.832 21.4816 160.899 21.8139C160.557 21.6856 160.208 21.5693 159.891 21.4412L156.489 20.0702C155.929 19.8445 155.337 19.6532 154.795 19.388C154.607 18.1285 153.347 17.3026 152.04 17.3457C152.115 17.1039 152.228 16.8691 152.387 16.6466C152.433 16.581 152.484 16.5176 152.536 16.4563C153.209 15.6722 152.311 14.2181 151.35 14.9156C151.282 14.9642 151.213 15.0128 151.145 15.0614C150.878 15.2493 150.604 15.4256 150.328 15.5964C149.886 15.4028 149.387 15.3586 148.866 15.5634C147.711 16.0167 146.646 16.4777 145.629 17.1882C145.588 17.2172 145.545 17.2415 145.503 17.2688C144.999 16.6575 144.197 16.2488 143.476 16.2532C143.461 16.2532 143.45 16.253 143.437 16.2528C142.897 15.4288 141.908 14.9498 140.953 15.0663C141.018 13.8838 139.837 12.8285 138.762 12.7002C137.506 12.5506 136.374 13.2816 135.997 14.51C135.892 14.852 135.787 15.1942 135.682 15.5363C134.707 15.0428 133.677 14.6647 132.602 14.476C130.154 14.0461 127.76 14.5039 125.401 15.1853C125.165 15.2533 124.93 15.3233 124.694 15.393C124.358 15.0022 124.042 14.6022 123.74 14.2287C123.22 13.5841 121.969 14.0998 122.054 14.9283C122.112 15.5 121.881 15.9113 121.508 16.2036C121.098 16.2636 120.702 16.2818 120.105 16.2697C119.316 16.2537 118.957 16.2289 118.132 15.9064C117.747 15.7563 117.268 15.3618 117.044 15.0075C116.185 13.6492 114.003 13.2833 112.964 14.5785C111.87 14.0985 110.489 14.7605 109.882 15.6938C109.564 16.1818 108.901 16.4546 108.067 16.6892C107.441 16.8651 106.8 16.9982 106.157 17.1147C105.87 16.7248 105.266 16.4633 104.823 16.7903C104.523 17.0124 104.232 17.2404 103.945 17.4742C101.729 17.7802 99.5247 17.7912 97.412 16.9251C95.6234 16.1917 93.9811 18.1947 94.2763 19.8762C93.7583 20.1465 93.1962 20.3264 92.6846 20.6096C91.5682 21.228 90.6516 22.2055 90.0929 23.354C89.9928 23.5596 89.9023 23.7684 89.8161 23.9783C89.3989 24.3188 88.9863 24.6684 88.5836 25.0372C87.9132 24.6927 87.2449 24.3482 86.5745 24.0037C86.0728 23.7458 85.2274 23.9255 85.1283 24.5933C84.9659 25.6923 84.5717 26.6033 84.0088 27.3662C82.1789 28.33 80.4185 29.4121 78.734 30.6147C76.7966 31.2234 74.7369 31.5784 73.044 31.9779C72.4642 32.1153 72.148 32.874 72.4747 33.3792C72.8205 33.9139 73.1662 34.4486 73.5099 34.9833C72.5464 35.9259 71.642 36.9108 70.7882 37.9295C68.4122 40.7616 66.4242 43.8664 64.6448 47.155C63.9407 47.4403 63.2365 47.7235 62.5324 48.0088C61.8535 48.2836 61.5478 49.074 62.0981 49.6552C62.3595 49.9321 62.5935 50.2238 62.7938 50.5302C61.7966 52.1851 60.6223 53.6941 58.98 54.6833C58.4804 54.9834 58.1051 55.4547 57.9048 55.9894C57.7341 56.1035 57.5654 56.2261 57.3989 56.3508C56.9351 56.7017 56.6547 57.4667 57.1986 57.9212C57.5802 58.2424 57.9386 58.6228 58.2422 59.0434C58.3075 59.2822 58.375 59.5232 58.4424 59.762C56.9161 61.1696 55.6469 62.8055 54.694 64.64C54.4684 64.604 54.2365 64.6273 54.0489 64.7668C52.3455 66.0285 52.2949 68.0385 52.98 69.835C52.5668 72.5424 52.8325 75.3174 53.6294 77.9403C52.5816 78.9885 51.9512 80.5018 51.694 81.9601C51.2408 84.5217 51.2091 88.4613 51.0911 91.0757C49.9484 92.181 49.1346 93.6119 48.6814 95.1505C48.2998 95.3407 47.9182 95.5309 47.5366 95.7211C47.1972 95.8902 46.9484 96.3362 46.9695 96.7124C47.0665 98.5321 47.8149 99.9693 48.8079 101.271C49.1599 102.275 49.6807 103.201 50.3637 104.089C50.836 104.697 51.2977 105.281 51.7046 105.938C51.7467 106.003 51.772 106.065 51.791 106.107C51.6308 106.28 51.498 106.568 51.382 106.773C50.408 108.493 50.3933 110.509 51.7762 112.008C51.2555 112.435 51.2387 113.297 51.6982 113.825C54.6898 117.251 57.1838 121.417 61.3349 123.237C61.3539 123.269 61.3708 123.3 61.3855 123.332C60.5443 125.361 60.4305 126.416 61.1178 128.512C61.122 128.531 61.1283 128.548 61.1346 128.567C61.5015 129.666 62.1761 131.427 63.3925 131.769C63.7762 131.877 64.1536 131.925 64.5268 131.923C65.4923 132.855 66.4558 133.79 67.4192 134.724C67.5036 135.187 67.5563 135.654 67.5731 136.125C67.6005 136.913 68.3405 137.552 69.1374 137.319C69.4178 137.237 70.9695 135.726 71.2541 135.734C71.3974 135.878 71.5366 136.021 71.6757 136.167C72.188 136.706 72.8985 137.556 72.9575 138.12C73.0714 139.183 73.7671 140.401 74.8908 140.616C75.3124 141.045 75.987 141.174 76.5035 140.614C76.5373 140.578 76.571 140.542 76.6068 140.511C76.6617 140.504 76.7144 140.498 76.7692 140.491C77.018 141.235 77.2667 141.979 77.5176 142.721C78.0088 144.184 79.8851 145.124 81.2175 144.27C81.4326 144.399 81.6434 144.537 81.8542 144.674C82.1747 144.879 82.4993 145.088 82.8324 145.285C82.8514 145.34 82.8704 145.395 82.8872 145.448C83.1023 146.105 83.9962 146.458 84.5464 146.08C84.7172 146.135 84.8922 146.179 85.0692 146.215C85.999 146.399 86.935 146.348 87.8331 146.037C88.4761 145.818 89.0896 145.397 89.7811 145.34C89.8243 145.336 89.8688 145.339 89.9127 145.338C90.4768 146.497 91.766 147.495 92.7819 147.834C94.1127 148.279 95.4746 148.12 96.6864 147.576C97.0134 148.231 97.424 148.851 97.9146 149.425C98.1866 149.742 98.6778 149.675 98.9582 149.425C99.4907 148.952 100.02 148.477 100.548 148C100.931 147.853 101.317 147.675 101.719 147.51C102.979 146.995 104.359 146.781 105.524 146.036C106.077 145.682 106.597 145.231 107.026 144.707C107.833 144.24 108.574 143.659 109.242 142.992C109.575 142.994 109.923 142.916 110.26 142.744C111.671 142.026 112.413 140.563 112.478 139.067C113.621 136.372 114.295 133.498 114.481 130.556C114.54 129.59 114.551 128.616 114.477 127.65C114.426 126.969 114.255 126.515 113.998 125.9C113.912 125.699 113.834 125.515 113.773 125.312C113.787 124.661 113.796 124.01 113.804 123.362C113.979 122.814 114.291 122.305 114.726 121.876C115.398 121.212 115.706 119.834 115.094 119.014C114.696 118.484 114.3 117.953 113.901 117.423C114.013 115.146 114.557 111.524 113.351 111.143C113.399 110.805 113.503 110.471 113.562 110.135C113.844 108.521 113.676 107.077 112.82 105.665C112.641 105.371 112.489 105.111 112.364 104.858C112.286 104.393 112.208 103.928 112.13 103.463C112.01 102.746 111.892 102.024 111.791 101.297C111.738 100.371 111.69 99.4451 111.637 98.5173C111.589 97.6635 111.534 96.8096 111.477 95.9536C111.5 95.5711 111.534 95.1885 111.582 94.806C111.871 92.5255 112.801 91.6822 114.411 90.0971C114.664 90.057 114.915 90.0126 115.162 89.9619C116.311 89.723 117.513 89.3532 118.695 89.4863C119.979 89.63 121.128 90.1859 122.376 89.4757C122.743 89.2644 123.551 88.6811 123.62 88.2182C123.624 88.1886 123.631 88.1633 123.639 88.1442C123.726 88.1316 123.837 88.121 123.907 88.1189C124.898 88.0851 125.844 88.4761 126.844 88.3683C128.026 88.2415 129.085 87.7152 129.78 86.9353C130.672 87.1551 131.583 87.2545 132.508 87.1319C133.284 87.0304 133.98 86.7768 134.667 86.4006C135.167 86.1301 135.009 86.0519 135.553 86.2717C136.79 86.7747 137.91 87.4383 139.303 87.0938C140.026 86.9163 140.65 86.5253 141.175 85.999C141.3 85.8764 141.51 85.6926 141.652 85.5193C142.314 85.8553 143.979 86.6141 144.253 86.6817C145.029 86.8719 145.851 86.8423 146.606 86.5887C147.161 86.4027 147.839 85.8955 148.326 85.7919C148.957 85.6566 150.357 86.5359 151.109 86.8381C152.429 87.3686 153.827 87.4996 155.163 86.9522C155.623 86.7641 156.517 86.0138 156.86 86.0202C157.419 86.7113 158.979 90.4923 159.447 91.8725C161.342 97.4521 161.834 114.874 160.959 119.318C160.925 119.449 160.889 119.578 160.853 119.709C159.778 123.575 158.659 127.506 156.86 131.108C155.163 134.502 152.817 137.558 149.45 139.411C145.959 141.335 141.86 141.84 137.935 141.58C135.407 141.415 132.922 140.906 130.476 140.267C129.198 139.936 127.931 139.566 126.671 139.181C126.12 139.014 125.562 138.858 125.022 138.663C124.069 138.319 123.57 138.291 122.657 138.733C121.826 139.135 121.613 140.32 122.045 141.066C122.749 142.284 124.04 142.368 125.286 142.723C126.555 143.085 127.828 143.431 129.11 143.742C131.566 144.334 134.062 144.788 136.579 144.997C141.087 145.376 145.731 144.792 149.834 142.821C150.298 142.597 150.744 142.358 151.177 142.1C151.016 142.324 150.854 142.548 150.69 142.77C150.234 143.385 150.572 144.431 151.21 144.767C151.413 144.873 151.615 144.974 151.82 145.074C151.847 145.139 151.877 145.205 151.91 145.27C152.494 146.445 153.717 147.138 154.963 147.439C156.443 147.794 158.1 147.542 159.605 147.498C161.001 147.455 162.397 147.413 163.79 147.371C164.119 147.362 164.448 147.352 164.777 147.341C166.434 147.291 168.089 147.242 169.744 147.191C171.219 147.147 171.15 147.261 172.535 146.669C173.153 146.403 173.659 146.027 174.085 145.526C174.35 145.407 174.607 145.272 174.854 145.118C175.647 144.623 176.351 143.96 177 143.228C178.103 143.577 179.648 143.254 179.863 141.865C180.209 139.644 183.089 138.695 184.434 137.089C185.52 135.793 186.295 134.096 186.255 132.467C188.992 131.139 190.48 127.641 190.828 124.674C190.99 123.298 190.965 121.825 191.199 120.426C191.302 120.314 191.395 120.196 191.473 120.069C192.16 118.955 192.759 117.807 193.286 116.632C194.003 116.114 194.865 115.795 195.768 115.742C197.985 115.613 198.403 112.614 196.288 111.892C196.278 111.887 196.269 111.885 196.259 111.881C196.832 110.444 196.784 108.742 196.088 107.381C196.118 107.233 196.145 107.088 196.172 106.94C197.359 105.661 198.04 103.883 197.964 102.153C198.506 101.77 199.113 101.474 199.777 101.29C200.804 101.007 200.81 99.7516 200.051 99.1894C199.746 98.9633 199.493 98.6991 199.282 98.4074C199.807 96.8265 199.6 94.9983 198.527 93.7006C199.208 92.8256 199.889 91.9507 200.57 91.0757C201.021 90.4966 201.26 89.5138 200.57 88.9643C200.13 88.6113 199.689 88.2605 199.246 87.9096Z" fill="black"/>
<path fill-rule="evenodd" clip-rule="evenodd" d="M149.69 120.752C150.415 119.473 152.578 119.681 152.909 121.173C153.579 124.198 149.973 126.992 147.234 127.062C144.513 127.131 141.459 124.813 141.853 121.886C141.95 121.162 142.917 121.25 143.247 121.704L143.374 121.878C144.27 123.081 145.451 124.326 147.112 124.033C147.801 123.912 148.426 123.481 148.842 122.928C149.344 122.259 149.289 121.461 149.69 120.752ZM132.383 98.6196C132.752 98.5179 133.125 98.5572 133.451 98.6963C134.181 98.8301 134.791 99.4388 135.005 100.134C135.022 100.194 135.041 100.253 135.061 100.312L135.094 100.4L135.007 100.177C135.047 100.396 135.225 100.627 135.29 100.847C135.369 101.118 135.388 101.425 135.361 101.723C135.593 101.726 135.825 101.734 136.057 101.754L136.28 101.774C137.532 101.89 138.906 102.104 139.647 103.185C140.064 103.793 139.673 104.887 138.908 105.004C137.729 105.185 136.714 104.533 135.54 104.402C134.43 104.278 133.269 104.349 132.173 104.55C129.911 104.963 127.832 105.881 125.628 106.456L125.328 106.532L125.328 106.531C124.951 106.622 124.522 106.097 124.895 105.789C126.661 104.338 128.922 103.162 131.15 102.446C130.825 101.929 130.725 101.249 130.947 100.695C130.981 100.58 131.024 100.468 131.069 100.357L131.162 100.128C131.172 100.02 131.192 99.9131 131.222 99.8084L131.227 99.7765L131.23 99.7784C131.396 99.2393 131.829 98.7726 132.383 98.6196ZM154.914 98.703C155.397 98.2196 156.076 98.2911 156.58 98.6715L156.647 98.724C157.122 98.9351 157.515 99.3965 157.773 99.824C158.041 100.268 158.219 100.72 158.226 101.209C159.395 101.213 160.515 101.564 161.374 102.508C161.651 102.813 161.84 103.283 161.688 103.696L161.597 103.942C161.309 104.722 160.013 105.172 159.572 104.254L159.552 104.209C159.084 103.119 157.288 103.234 156.333 103.345C155.667 103.423 155.01 103.589 154.367 103.774C154.141 103.839 153.917 103.91 153.692 103.983L153.468 104.055C153.349 104.094 152.726 104.432 153.113 104.352C153.218 104.331 153.296 104.482 153.19 104.533C152.728 104.754 152.235 104.314 152.266 103.818C152.319 102.957 153.687 102.484 154.345 102.187L154.384 102.169C154.636 102.053 154.901 101.941 155.173 101.837C155.02 101.609 154.893 101.355 154.788 101.083C154.688 100.826 154.622 100.576 154.585 100.303C154.549 100.169 154.549 100.036 154.585 99.902L154.591 99.8638C154.572 99.7754 154.563 99.6841 154.564 99.5922L154.561 99.5565H154.564C154.577 99.2346 154.705 98.9121 154.914 98.703ZM147.197 107.877C149.052 108.45 152.114 110.013 151.147 112.424C149.796 114.639 146.216 113.012 144.481 112.296C142.922 111.779 142.11 113.965 143.617 114.624C156.073 119.554 156.028 106.543 147.649 106.734C146.726 106.755 146.697 107.686 147.197 107.877ZM130.717 90.9122L131.033 90.8198C132.678 90.3432 134.357 89.5202 135.817 90.8043C136.391 91.3086 136.509 92.3565 136.099 92.9855C135.164 94.4186 133.778 94.1997 132.268 94.3218C131.119 94.4148 129.987 94.7526 128.914 95.1746C128.037 95.5198 127.224 96.0057 126.456 96.5476C125.702 97.0804 125.187 97.9133 124.413 98.3929C124.13 98.5687 123.802 98.3878 123.7 98.1027C123.339 97.0914 123.949 95.8315 124.465 94.9698C125.095 93.9186 126.052 93.0588 127.08 92.4083C128.207 91.6958 129.452 91.2844 130.717 90.9122ZM154.683 89.824C157.463 89.8231 160.138 91.37 161.693 93.6376C162.221 94.408 161.834 95.5492 161.075 95.9929C160.225 96.4908 159.315 96.1322 158.754 95.4187L158.721 95.3755C157.829 94.1875 156.68 93.2519 155.317 92.6428C154.652 92.3454 153.917 92.1042 153.198 91.9819L152.965 91.942C152.639 91.8874 152.262 91.8353 151.967 91.8863C151.809 91.907 151.664 91.9592 151.531 92.0387C151.595 92.1791 151.429 92.3481 151.276 92.264C150.585 91.8844 150.67 91.2073 151.24 90.681C152.048 89.9364 153.64 89.8242 154.683 89.824Z" fill="black"/>
<path fill-rule="evenodd" clip-rule="evenodd" d="M148.503 116.101C146.154 115.042 141.935 115.966 140.403 116.333C136.842 117.188 133.26 119.034 132.153 121.926C130.905 125.186 133.394 126.212 133.76 126.044C136.225 126.218 139.161 124.668 141.744 124.268C143.841 123.94 146.053 123.654 148.018 122.539C149.453 123.329 152.693 123.755 155.308 124.446C157.535 125.033 158.499 126.307 160.564 126.037C163.038 125.712 162.025 120.506 159.268 118.397C156.25 116.088 151.145 115.152 148.503 116.101ZM153.155 138.361C151.1 138.863 150.962 134.356 150.731 132.763C150.551 131.519 149.537 128.311 146.964 128.45C144.392 128.588 143.425 131.276 143.556 132.948C143.64 134.032 144.639 139.523 141.451 140.218C139.419 140.21 137.068 140.073 134.931 139.679C132.416 139.109 129.146 137.114 128.282 141.043C127.971 142.457 139.05 146.658 143.966 147.038C148.951 148.049 154.785 146.495 158.334 142.679C159.142 141.811 161.416 138.208 161.578 137.326C161.919 135.471 161.13 134.278 158.836 134.931C157.216 135.797 154.477 138.039 153.155 138.361Z" fill="black"/>
<path fill-rule="evenodd" clip-rule="evenodd" d="M167.178 109.153C164.613 111.805 160.331 112.566 156.919 111.144C148.156 107.481 152.445 96.0578 159.203 92.99C160.047 92.7795 161.175 92.2801 162.203 92.1668C162.296 92.1211 162.498 92.2532 162.744 92.1283C170.195 92.9606 171.892 104.532 167.178 109.153ZM138.915 109.832C136.039 113.649 130.69 114.827 126.32 113.052C117.688 109.651 120.749 99.5216 126.656 95.5503C139.133 90.8602 144.285 102.794 138.915 109.832ZM120.201 101.374C120.193 101.37 120.185 101.369 120.177 101.365C120.223 101.345 120.268 101.325 120.314 101.304C120.299 101.343 120.283 101.381 120.269 101.42C120.246 101.404 120.227 101.386 120.201 101.374ZM173.118 97.2481C172.413 97.2496 171.396 97.3654 170.813 97.8542C169.375 93.0031 164.067 88.5134 159.452 91.7872C155.817 92.9566 153.119 95.5501 151.586 98.9981C148.822 97.3533 144.476 98.0557 142.079 100.231C140.51 95.0418 136.646 93.2248 132.048 92.9566C127.029 92.1342 122.027 97.0103 120.466 100.922C119.168 100.774 117.229 100.361 116.008 101.162C108.084 99.0834 94.2302 97.9373 92.6193 99.0923C91.4713 99.533 90.8413 102.244 92.4448 102.39C93.8421 102.192 92.2817 100.404 93.6902 100.209C101.195 99.7433 108.481 101.255 115.906 101.89C116.569 102.782 118.711 103.08 119.854 102.722C118.054 109.357 121.939 113.872 127.761 115.224C136.775 117.296 144.617 109.229 142.26 100.838C144.991 99.4791 148.132 99.5374 151.106 100.253C146.136 118.554 175.598 117.733 170.997 98.4813C174.059 100.005 174.724 97.5556 173.118 97.2481Z" fill="black"/>
</svg>
