<svg width="240" height="324" viewBox="0 0 240 324" fill="none" xmlns="http://www.w3.org/2000/svg">
<path fill-rule="evenodd" clip-rule="evenodd" d="M117.565 124.062C120.404 123.276 123.668 123.367 126.581 123.568C129.539 123.772 132.714 124.123 135.49 125.228C137.903 126.188 139.938 127.804 141.177 130.118C142.197 132.021 142.675 134.108 142.975 136.228C143.097 137.095 143.2 137.965 143.297 138.835L143.498 140.646C143.576 141.338 143.645 141.857 143.783 142.63C144.164 144.766 144.694 146.551 145.878 148.106C148.747 151.869 153.43 153.129 157.689 154.735C160.414 155.763 162.572 157.612 163.171 160.583C163.749 163.449 185.713 187.494 187.869 189.521L187.928 189.576C189.601 191.082 189.404 193.914 189.638 195.982C189.889 198.199 190.128 200.417 190.354 202.637C190.814 207.145 191.224 211.659 191.584 216.176C192.991 233.844 193.629 251.573 193.493 269.296L193.485 270.299C193.464 272.548 193.481 274.807 193.38 277.054C193.283 279.214 192.63 281.375 190.63 282.503C188.776 283.548 186.433 283.456 184.362 283.561L184.238 283.567C182.016 283.689 179.793 283.789 177.568 283.871C168.529 284.206 159.481 284.242 150.437 284.2C132.494 284.118 114.533 283.723 96.607 284.728C92.0375 284.984 77.4697 283.428 72.9146 283.871C68.5608 284.295 72.2964 286.431 69.6068 286.29C60.7614 285.827 52.3711 283.853 43.8963 281.475C42.8377 281.178 42.0281 280.15 42.0414 279.039C42.1988 266.836 42.5432 254.636 43.0813 242.444C43.5606 231.584 44.1923 220.73 44.9759 209.887C45.3166 205.174 45.6859 200.463 46.0839 195.755L46.2562 193.737C46.481 191.135 46.6103 188.485 47.1218 185.919C47.6277 183.381 48.7756 181.18 50.4399 179.214C51.9334 177.45 68.8422 163.639 72.9146 161.025C76.8125 158.522 80.9056 156.41 84.9072 154.091C86.572 153.126 88.1708 153.473 89.5931 152.289C90.3429 151.664 101.222 147.457 104.158 146.068L104.244 146.027C106.491 144.949 108.558 143.78 110.111 141.915C110.631 141.29 111.652 137.352 111.654 136.094C111.657 133.847 111.487 131.479 112.165 129.302C112.975 126.699 114.929 124.792 117.565 124.062ZM122.379 182.012L104.994 215.881H116.298L108.195 234.699H125.99L119.678 261.058L155.777 215.881H142.23L155.777 198.094H146.381L155.777 183.031L122.379 182.012Z" fill="#D08B5B"/>
<path fill-rule="evenodd" clip-rule="evenodd" d="M162.531 180.026L155.777 256.98L99.5147 258.374V176.252L162.531 180.026Z" fill="#FDEA6B"/>
<path fill-rule="evenodd" clip-rule="evenodd" d="M180.777 201.058C180.737 201.098 180.695 201.138 180.655 201.18C180.701 201.115 180.741 201.047 180.777 200.979V201.058ZM146.991 191.192C145.43 193.187 143.778 197.247 142.261 199.278C142.043 199.569 141.83 199.861 141.619 200.155C140.989 201.036 141.83 202.385 142.865 202.328C144.934 202.218 147 202.064 149.066 201.907C144.822 206.639 141.298 212.517 137.4 217.53C137.136 217.866 136.876 218.204 136.616 218.542C135.629 219.83 136.618 220.413 137.966 220.066C138.245 219.995 138.524 219.923 138.803 219.853C140.763 219.35 142.722 218.847 144.682 218.346C145.766 218.067 146.856 217.723 147.955 217.509C148.407 217.422 148.84 217.494 149.267 217.518C149.062 217.83 148.774 218.394 148.717 218.481C148.077 219.479 147.433 220.472 146.784 221.461C145.521 223.385 144.251 225.306 142.935 227.193C137.801 234.552 132.264 241.578 126.775 248.668C125.393 250.452 123.993 252.217 122.569 253.965C122.575 253.954 122.579 253.944 122.586 253.933C123.868 251.435 125.15 248.939 126.433 246.441C128.871 241.694 131.286 236.934 133.749 232.2C133.876 231.953 134.005 231.708 134.134 231.46C134.645 230.479 133.806 229.461 132.756 229.668C127.634 230.678 122.561 231.918 117.551 233.387C117.326 233.628 116.994 233.698 116.698 233.64C116.497 233.7 116.295 233.758 116.093 233.819C116.154 233.692 116.218 233.567 116.279 233.441C116.074 233.263 115.973 232.988 116.106 232.644C118.988 225.202 122.941 218.019 127.624 211.44C127.435 211.444 127.247 211.446 127.058 211.452C121.918 211.591 116.875 212.329 111.921 213.73C111.898 213.271 112.174 212.561 112.324 212.223C112.924 210.873 113.613 209.554 114.258 208.224C115.576 205.494 116.894 202.765 118.212 200.034C119.501 197.367 120.779 194.692 121.992 191.986C122.628 190.568 123.264 189.148 123.898 187.728C124.415 186.571 124.823 185.407 125.252 184.224C126.511 184.593 142.679 184.674 146.609 184.946C147.572 185.014 148.538 185.075 149.503 185.128C150.272 185.173 151.356 185.342 151.886 184.646L152.087 184.815C150.342 186.903 148.669 189.049 146.991 191.192ZM83.8667 152.396C83.9469 152.36 84.0251 152.324 84.1033 152.289C84.1434 152.346 84.192 152.398 84.2427 152.451C84.3695 152.58 84.4941 152.719 84.6251 152.847C84.3716 152.698 84.1181 152.548 83.8667 152.396ZM196.861 271.173C196.715 268.094 196.553 265.014 196.379 261.935C196.037 255.916 195.684 249.896 195.213 243.886C194.256 231.706 193.365 219.529 191.93 207.394C191.328 202.306 190.487 197.258 189.644 192.206C189.752 192.109 189.862 192.012 189.969 191.917C189.853 193.299 191.729 194.174 192.659 192.796C192.729 192.692 192.796 192.589 192.864 192.481C193.669 191.179 195.524 184.792 195.395 184.251C195.162 183.277 194.516 182.41 194.011 181.552C193.569 180.802 193.124 180.051 192.672 179.308C191.769 177.817 190.84 176.342 189.866 174.899C187.848 171.91 185.643 169.04 183.044 166.531C180.355 163.932 177.268 161.795 174.08 159.857C172.548 158.927 170.968 158.084 169.358 157.297C167.769 156.524 166.031 155.668 164.319 155.228C164.222 155.203 164.123 155.338 164.212 155.41C164.666 155.769 165.141 156.107 165.625 156.433C164.315 155.979 162.965 155.651 161.605 155.535C158.97 154.609 156.304 153.762 153.682 152.796C151.105 151.844 148.565 150.775 146.852 148.522C145.388 146.597 144.462 144.24 143.75 141.945C142.969 139.415 142.658 136.786 141.936 134.252C141.879 134.047 141.543 134.023 141.498 134.252C140.983 136.91 141.006 139.899 141.3 142.583C141.608 145.398 142.4 148.161 144.124 150.45C146.127 153.111 148.844 154.592 151.901 155.773C154.367 156.729 156.864 157.701 159.388 158.555C159.059 158.771 158.725 158.986 158.381 159.191C157.012 160.005 155.588 160.728 154.132 161.377C151.474 162.562 148.675 163.45 145.859 164.171C140.617 165.506 135.243 166.185 129.838 166.274C119.026 166.453 108.093 164.188 98.2033 159.813C95.4188 158.58 92.6998 157.225 90.0082 155.803C89.1674 155.359 88.3223 154.911 87.4814 154.45C87.5512 154.446 87.623 154.44 87.6927 154.434C89.5709 154.256 91.4258 153.895 93.2427 153.383C96.9631 152.333 100.529 150.695 104.032 149.082C107.003 147.715 110.062 146.157 111.877 143.308C112.846 141.784 113.292 139.996 113.653 138.246C114.057 136.298 114.532 134.34 114.826 132.373C114.929 131.684 114.775 130.752 114.036 130.426C113.74 130.297 113.497 130.192 113.165 130.192C112.432 130.192 111.68 130.724 111.505 131.456C111.072 133.28 110.81 135.154 110.469 136.997C110.176 138.591 109.907 140.254 109.048 141.655C107.546 144.109 104.6 145.364 102.112 146.559C98.9575 148.072 95.8012 149.547 92.5244 150.775C91.0814 151.316 89.6131 151.807 88.1237 152.208C88.1829 151.843 88.1321 151.458 87.9167 151.168C87.5575 150.691 87.1498 150.373 86.6871 150.008C86.1843 149.611 85.5082 149.404 84.9145 149.579C84.9145 149.581 84.9124 149.579 84.9124 149.579C84.6716 149.526 84.4054 149.547 84.1307 149.672C83.2814 150.061 82.4343 150.454 81.5871 150.853C69.399 156.59 57.5575 163.327 48.5892 173.588C47.2962 175.068 46.0857 176.623 44.9512 178.227C43.8483 179.785 42.4836 181.476 42.1793 183.408C42.154 183.568 42.3885 183.642 42.4286 183.477C42.5005 183.179 42.5976 182.888 42.7181 182.604C42.4667 183.484 42.4814 184.418 42.8364 185.337C43.2568 186.419 44.0279 187.136 45.0019 187.421C44.0237 191.71 43.3667 196.055 42.8385 200.449C42.08 206.779 41.5413 213.124 41.1357 219.485C40.3244 232.181 39.9631 244.94 40.2251 257.659C40.2991 261.254 40.4216 264.849 40.6075 268.442C40.7005 270.239 40.8019 272.033 40.9181 273.83C41.0322 275.597 40.9392 277.543 42.4793 278.475C42.4983 278.545 42.5195 278.612 42.5385 278.682C42.9124 279.986 44.5793 279.568 44.7357 278.384C44.7378 278.372 44.7399 278.357 44.742 278.344C46.0012 277.383 45.811 275.781 45.7181 274.244C45.6188 272.585 45.5131 270.928 45.4244 269.271C45.2554 266.092 45.1117 262.913 44.9829 259.732C44.7314 253.443 44.5899 247.145 44.5434 240.85C44.4505 228.26 45.1772 215.689 46.0392 203.135C46.4005 197.883 46.823 192.654 46.9519 187.404C47.6258 187.053 47.8329 186.056 47.4948 185.384C55.4765 190.832 62.8836 197.346 68.8307 204.917C69.8237 206.181 70.7723 207.482 71.6807 208.808C71.9765 209.239 72.2575 209.687 72.5406 210.135C72.266 211.384 72.0526 212.654 71.7737 213.853C71.1991 216.328 70.9561 218.895 70.6265 221.411C69.9568 226.519 69.4857 231.674 69.0864 236.809C68.3005 246.952 67.7174 257.093 67.5336 267.265C67.4321 273.018 67.2969 278.807 67.5505 284.558C67.3624 285.682 68.3744 286.781 69.4329 286.923C70.3603 287.047 71.2265 286.566 71.6322 285.79C74.5223 286.149 77.4885 286.314 80.3596 286.335C84.2279 286.363 88.0962 286.359 91.9645 286.276C99.7033 286.107 107.44 285.908 115.177 285.678C130.65 285.222 146.123 284.763 161.598 284.304C165.889 284.177 170.18 284.051 174.471 283.924C176.406 283.867 178.819 284.425 180.344 282.93C180.606 282.672 180.809 282.37 180.953 282.047C181.409 282.161 181.969 282.049 182.269 281.696C182.829 281.034 183.241 280.422 183.219 279.505C183.2 278.646 182.964 277.742 182.841 276.892C182.609 275.297 182.385 273.701 182.172 272.103C181.751 268.945 181.358 265.784 180.997 262.62C180.257 256.15 179.586 249.666 179.062 243.175C178.022 230.34 177.729 217.437 177.765 204.562C177.769 203.41 177.775 202.258 177.781 201.106C177.83 201.168 177.883 201.224 177.94 201.273C177.986 201.313 178.033 201.353 178.079 201.396C178.62 201.871 179.52 202.116 180.169 201.666C180.965 201.15 181.515 200.377 182.136 199.677C182.788 198.944 183.46 198.23 184.138 197.52C185.453 196.146 186.811 194.829 188.197 193.527C188.309 193.424 188.421 193.318 188.533 193.216C188.541 197.314 188.537 201.411 188.647 205.507C188.812 211.591 189.141 217.67 189.443 223.746C190.043 235.778 190.665 247.806 191.262 259.836C191.429 263.195 191.588 266.555 191.755 269.913C191.839 271.593 191.922 273.274 192.002 274.954C192.044 275.863 192.086 276.774 192.129 277.683C192.175 278.659 192.114 279.703 192.443 280.631C193.193 282.753 196.434 283.053 197.057 280.631C197.448 279.111 197.148 277.353 197.079 275.793C197.007 274.255 196.935 272.714 196.861 271.173Z" fill="black"/>
<path fill-rule="evenodd" clip-rule="evenodd" d="M164.157 80.9846C161.985 73.1253 153.684 69.696 146.208 69.1518C125.966 67.0423 105.363 78.3546 96.3889 96.6979C89.2056 110.627 88.9806 125.258 104.422 133.211C105.265 133.677 106.146 134.175 107.045 134.628C107.826 135.356 108.631 136.056 109.509 136.643C117.917 142.186 128.237 144.584 138.238 144.064C153.004 143.765 158.276 133.72 161.502 120.839C164.904 108.014 166.807 94.0985 164.157 80.9846Z" fill="#D08B5B"/>
<path fill-rule="evenodd" clip-rule="evenodd" d="M173.85 155.064C173.161 152.974 172.296 150.947 171.489 148.899C171.318 147.878 171.204 146.849 171.175 145.811C171.063 142.104 171.755 138.365 172.53 134.756C174.107 127.42 175.779 120.16 176.618 112.688C178.117 99.3247 177.225 85.4285 171.162 73.2293C165.908 62.6618 157.005 54.0197 145.505 50.7818C142.105 49.8242 138.606 49.296 135.083 49.0851C134.647 49.0156 134.211 48.9475 133.778 48.882C128.878 48.1414 123.917 47.7724 118.964 48.0917C110.75 48.6216 102.614 50.9879 95.7728 55.668C88.8854 60.3805 83.9918 66.9881 81.7147 75.0476C79.3459 83.4318 79.5468 92.5121 75.4563 100.373C74.2478 102.695 72.8372 104.903 71.492 107.147C67.9226 111.14 64.0472 115.578 63.198 121.068C62.1502 127.853 66.0441 133.587 69.7293 138.881C73.0603 143.662 77.5803 150.264 74.1523 156.15C72.5353 158.928 69.9443 161.005 67.9984 163.537C65.9809 166.166 64.406 169.184 63.5923 172.41C62.0638 178.467 63.47 184.78 67.5578 189.514C69.6871 191.979 72.4215 193.608 75.3814 194.878C78.4109 196.176 81.3709 197.408 83.8754 199.617C85.0202 200.625 86.068 201.73 87.0589 202.889C87.9823 204.336 89.0574 205.689 90.2697 206.927C91.6042 208.291 94.2184 206.424 92.9935 204.82C92.9028 204.702 92.8143 204.586 92.7236 204.467C91.8276 203.296 90.9274 202.126 89.9851 200.993C87.1748 196.529 86.0933 191.063 87.491 185.849C87.8537 184.495 88.3638 183.21 88.9986 181.997C89.1333 182.349 89.2809 182.698 89.4369 183.043C90.0441 184.378 90.896 185.961 91.9794 187.314C92.0216 188.242 92.161 189.161 92.4306 190.062C94.1003 195.643 99.6829 198.397 104.717 200.54C105.211 200.752 105.698 200.955 106.176 201.155C107.492 201.707 108.883 199.828 108.063 198.695C107.848 198.397 107.639 198.093 107.441 197.784C105.08 194.12 103.956 189.736 104.593 185.37C105.263 180.752 107.979 176.93 110.675 173.264C113.323 169.658 116.167 165.978 117.352 161.58C118.663 156.721 117.47 151.877 115.446 147.405C113.593 143.312 111.124 139.54 109.054 135.561C109.763 136.269 110.494 136.955 111.248 137.616C112.095 138.359 112.966 139.21 113.97 139.734C114.712 140.122 115.456 139.194 114.868 138.567C114.095 137.744 113.106 137.107 112.248 136.372C111.424 135.666 110.624 134.932 109.844 134.178C108.883 133.25 107.969 132.278 107.088 131.277C106.383 129.476 105.802 127.627 105.329 125.75C104.686 123.209 104.091 120.506 104.138 117.873C104.184 115.172 105.584 113.28 107.447 111.467C108.237 110.699 109.034 109.94 109.829 109.18C111.523 107.933 113.121 106.54 114.674 105.151C117.44 102.676 120.115 100.06 122.67 97.3672C123.355 96.6448 124.035 95.9144 124.706 95.1755C127.052 92.7627 129.288 90.2434 131.397 87.6371C133.492 86.872 135.506 85.8596 137.395 84.6676C136.572 85.5024 135.742 86.3267 134.915 87.1573C133.075 89.0087 131.163 90.8686 129.029 92.3774C128.81 92.5341 128.943 92.8659 129.213 92.813C131.926 92.2699 134.464 91.3653 136.834 89.9239C139.244 88.4571 141.367 86.4641 143.348 84.4647C144.47 83.9575 145.552 83.3044 146.54 82.6619C146.593 82.6281 146.646 82.5921 146.698 82.5581C145.724 85.6525 144.295 89.1567 141.249 90.2599C141.149 90.2959 141.156 90.4607 141.274 90.4544C143.84 90.3035 145.903 89.1459 147.531 87.4587C148.841 86.514 150.091 85.5128 151.283 84.4229C152.439 83.367 153.533 82.2345 154.572 81.062C153.12 83.9467 151.493 86.7674 149.888 89.5561C149.804 89.7041 149.981 89.9049 150.133 89.8013C153.52 87.5018 156.09 84.5345 158.192 81.0258C158.503 80.5093 158.799 79.9843 159.088 79.4553C158.87 80.2831 158.632 81.1057 158.377 81.9241C157.915 83.4054 157.461 84.8902 156.999 86.3707C156.749 87.1689 156.446 87.949 156.112 88.7158C155.874 89.2645 155.561 89.8121 155.513 90.4138C155.51 90.4537 155.553 90.4799 155.588 90.4713C156.939 90.1327 158.197 88.5882 159.159 87.6314C159.695 87.0986 160.198 86.5137 160.66 85.897C160.745 89.4492 160.804 93.0018 160.726 96.5645C160.581 103.108 160.159 109.649 159.62 116.171C159.143 121.937 158.791 127.988 155.582 132.999C153.099 136.877 149.072 139.561 144.698 140.861C144.312 140.978 143.924 141.081 143.534 141.174C137.201 142.681 130.893 140.973 125.294 137.955C123.611 137.049 122.173 139.509 123.797 140.521C129.873 144.313 137.574 145.604 144.451 143.905C144.234 152.048 148.237 159.773 152.22 166.68C154.448 170.546 156.679 174.386 158.254 178.577C159.59 182.136 160.499 185.828 160.804 189.626C161.167 194.103 160.811 198.604 160.187 203.043C160.153 203.284 160.119 203.527 160.083 203.768C159.944 204.721 160.798 205.52 161.724 205.032C165.816 202.876 167.58 198.281 168.653 194.033C169.657 190.053 170.338 185.995 170.717 181.91C171.274 183.451 171.725 185.029 172.075 186.64C172.124 186.87 172.17 187.101 172.216 187.331C172.482 188.677 174.514 188.582 174.839 187.331C174.898 187.105 174.955 186.879 175.007 186.65C176.683 179.856 177.135 172.769 176.249 165.822C175.783 162.168 175.005 158.562 173.85 155.064Z" fill="black"/>
<path fill-rule="evenodd" clip-rule="evenodd" d="M143.152 128.274C141.732 127.695 140.465 126.728 139.538 125.493C139.216 125.063 139.133 124.61 139.2 124.195C139.276 123.729 139.552 123.306 139.928 123.023C140.305 122.739 140.777 122.598 141.233 122.67C141.63 122.732 142.024 122.949 142.337 123.399L142.402 123.489C142.953 124.235 143.67 124.846 144.488 125.241C145.276 125.621 146.158 125.798 147.07 125.695C148.808 125.499 150.005 124.559 151.278 123.282C151.436 123.121 151.594 122.955 151.752 122.786C151.852 122.633 151.991 122.534 152.146 122.483C152.317 122.425 152.511 122.429 152.689 122.491C152.86 122.55 153.013 122.664 153.116 122.815C153.213 122.958 153.269 123.135 153.251 123.339C153.134 124.661 152.443 125.842 151.461 126.769C150.37 127.799 148.924 128.511 147.563 128.761C146.064 129.036 144.536 128.839 143.152 128.274ZM148.271 107.866C149.866 108.836 152.297 111.098 150.581 113.503C148.56 115.624 145.652 113.193 144.218 112.093C142.889 111.241 141.396 113.433 142.629 114.428C152.986 122.099 157.19 108.12 149.078 106.726C148.184 106.572 147.853 107.566 148.271 107.866ZM129.711 98.9429C129.887 96.7541 133.219 96.257 133.551 98.423C133.847 100.363 133.498 102.145 132.624 103.892C131.79 105.561 129.692 104.783 129.533 103.263C129.32 101.226 129.601 100.304 129.711 98.9429ZM155.076 97.9739C155.541 97.3652 156.211 96.9497 157.015 97.1845C159.526 97.9185 158.786 101.485 157.904 103.22C157.425 104.163 155.876 104.402 155.176 103.572C154.035 102.219 153.489 99.5157 154.939 98.1825C154.979 98.1136 155.022 98.044 155.076 97.9739ZM132.589 89.3654L132.986 89.2959C134.213 89.0836 135.738 88.8796 136.606 89.8665C137.067 90.3898 137.225 91.3624 136.606 91.8633C135.518 92.7446 134.314 92.4031 133.01 92.4777C131.935 92.5394 130.902 92.7174 129.867 93.0135C127.595 93.6629 125.744 94.8486 123.804 96.1505C123.549 96.3213 123.29 95.9956 123.411 95.7574C124.531 93.563 126.701 91.7604 128.875 90.6616C130.036 90.0751 131.305 89.5885 132.589 89.3654ZM152.787 88.3823L153.091 88.4445C156.394 89.1353 160.687 90.5153 162.251 93.7615C162.311 94.2205 162.248 94.3189 162.196 94.3832L162.179 94.4046C162.137 94.4595 162.104 94.5351 161.905 94.5976C161.849 94.5845 161.794 94.5705 161.737 94.5557C161.02 94.3677 160.453 94.1087 159.904 93.84L159.308 93.5465C158.617 93.2076 157.92 92.881 157.181 92.6399C155.605 92.1255 153.983 91.7631 152.337 91.5696C151.98 91.5277 151.636 91.4072 151.365 91.2007C151.107 91.0046 150.911 90.7332 150.821 90.3724C150.705 89.9056 150.738 89.5521 150.989 89.1309C151.177 88.8146 151.447 88.5953 151.756 88.4694C152.071 88.3411 152.43 88.3108 152.787 88.3823Z" fill="black"/>
</svg>
