<svg width="240" height="324" viewBox="0 0 240 324" fill="none" xmlns="http://www.w3.org/2000/svg">
<path fill-rule="evenodd" clip-rule="evenodd" d="M181.079 176.597C179.237 169.454 177.544 166.425 174.273 163.942C171.213 161.62 166.747 159.669 160.229 158.244C153.441 157.057 153.249 153.528 151.547 147.857C151.05 146.152 148.59 145.698 147.528 146.927C147.378 146.766 147.222 146.618 147.061 146.484C147.205 145.671 146.022 143.34 146.061 142.562C146.474 134.444 143.819 130.367 137.192 128.852C135.751 128.522 125.963 128.328 124.558 128.716C118.415 130.415 112.368 135.808 113.293 142.305C111.365 144.826 109.478 146.364 106.503 147.176C101.87 147.765 104.198 213.41 112.243 252.739C115.696 269.613 198.24 240.892 194.51 232.441C195.039 230.892 194.075 229.189 194.51 227.59C194.825 226.432 195.631 225.953 196.037 224.807C196.608 223.194 195.987 221.029 195.344 219.383C195.081 218.563 195.829 217.68 196.037 216.843C197.023 212.894 194.765 213.242 193.136 210.602C193.16 210.594 193.584 208.71 193.582 208.719C193.831 207.374 193.207 205.65 192.662 204.527C192.294 203.768 191.505 203.293 190.721 203.38C191.51 200.7 192.509 198.47 193.582 195.887C195.48 191.336 197.286 186.574 200.012 182.455C201.128 180.768 200.227 179.216 198.42 179.101C192.573 178.729 186.789 177.887 181.079 176.597Z" fill="#D08B5B"/>
<path fill-rule="evenodd" clip-rule="evenodd" d="M171.951 177.149L158.603 199.744C158.603 199.744 161.769 200.06 163.051 200.676C164.332 201.292 170.216 208.774 170.216 208.774L171.151 212.894L168.936 216.215L169.8 218.301C169.8 218.301 170.416 216.888 171.951 215.791C173.485 214.694 176.869 212.894 176.869 212.894C176.869 212.894 175.745 212.292 175.745 211.585C175.745 210.879 174.754 207.864 176.869 206.726C178.985 205.587 189.915 202.922 189.915 202.922L200.993 179.549L171.951 177.149Z" fill="#EC7495"/>
<path fill-rule="evenodd" clip-rule="evenodd" d="M112.407 147.33L154.79 154.77L174.273 163.942L177.453 166.393L158.603 199.744L129.496 205.056L122.081 224.323L123.594 246.04L170.945 240.393L191.37 237.966L196.171 257.354L195.304 265.33L194.042 269.375L143.408 283.049C143.408 283.049 117.624 280.549 113.053 280.549C108.483 280.549 74.9718 283.878 74.9718 283.878L67.2183 283.049C67.2183 283.049 50.0637 264.964 47.403 258.527C44.7423 252.091 38.9889 212.965 38.9889 212.965L39.6224 206.953L54.4436 168.801C54.4436 168.801 56.4227 167.003 58.918 163.942C61.4132 160.881 112.407 147.33 112.407 147.33Z" fill="#9DDADB"/>
<path fill-rule="evenodd" clip-rule="evenodd" d="M189.116 202.441C185.286 202.636 181.451 203.547 177.986 205.197C176.569 205.873 175.284 206.85 174.908 208.456C174.718 209.276 174.765 210.124 174.866 210.952C174.942 211.58 174.961 212.381 175.506 212.806C175.599 212.878 175.698 212.932 175.802 212.973C174.524 213.55 173.307 214.243 172.225 214.957C171.236 215.61 170.22 216.616 169.764 217.751C169.726 217.622 169.688 217.502 169.65 217.388C168.872 215.088 167.674 213.205 165.788 211.939C165.574 211.158 163.274 207.797 161.139 207.924C158.8 208.061 156.919 208.232 154.804 209.308C154.033 209.291 153.264 209.301 152.503 209.335C152.372 209.34 152.379 209.517 152.503 209.532C153.12 209.61 153.737 209.697 154.354 209.798C155.82 210.033 157.282 210.331 158.712 210.701C160.428 211.145 162.203 211.59 163.806 212.366C166.916 213.873 168.841 217.813 168.446 221.241C168.38 221.803 168.163 223.502 167.383 223.327C166.724 223.179 166.462 221.803 166.232 221.294C165.615 219.941 164.503 219.057 163.17 218.459C161.605 217.756 159.929 217.28 158.307 216.726C157.388 216.412 156.469 216.096 155.548 215.784C154.605 215.46 153.71 215.014 152.706 215.24C152.1 215.378 152.03 216.101 152.37 216.515C152.888 217.147 153.657 217.333 154.403 217.593C155.387 217.935 156.37 218.278 157.352 218.62C158.871 219.148 160.462 219.594 161.943 220.241L161.896 220.347C161.776 220.313 161.634 220.433 161.658 220.581C161.879 221.949 162.188 223.53 161.845 224.899C161.575 225.985 160.622 227.188 159.384 226.869C159.579 226.691 159.651 226.385 159.52 226.102C159.029 225.053 152.607 220.915 152.034 222.452C152.015 222.507 152.074 222.547 152.121 222.539C152.609 222.437 153.427 223.27 153.817 223.534C154.381 223.914 154.954 224.286 155.512 224.677C156.122 225.104 156.718 225.552 157.299 226.015C157.755 226.379 158.1 226.757 158.624 226.941C158.349 227.072 158.131 227.315 158.039 227.626C157.802 228.435 157.346 229.122 156.553 229.479C155.723 229.851 154.787 229.616 153.913 229.708C152.721 229.828 151.682 230.394 150.813 231.204C148.99 232.907 148.075 235.909 145.525 236.714C144.002 237.194 142.312 236.891 140.77 236.673C139.048 236.43 137.37 236.238 135.636 236.492C133.975 236.735 132.405 237.31 130.889 238.011C129.467 238.669 127.895 239.413 126.634 240.393C126.374 239.592 126.112 238.8 125.913 237.982C125.444 236.048 125.191 234.078 125.129 232.091C125.072 230.2 125.178 228.3 125.34 226.417C125.421 225.476 125.548 224.54 125.628 223.599C125.649 223.363 125.691 223.109 125.723 222.856C127.975 221.526 130.341 220.507 132.726 219.459C132.733 219.457 132.739 219.453 132.746 219.451C132.82 219.417 132.891 219.385 132.965 219.354C132.963 219.349 132.961 219.345 132.957 219.341C133.229 219.174 133.42 218.952 133.534 218.702C136.971 216.422 139.844 213.309 141.986 209.678C142.884 208.156 143.748 206.577 144.923 205.244C146.174 203.821 147.659 202.976 149.497 202.536C151.646 202.021 153.86 201.712 156.061 201.536C157.263 201.442 158.607 201.293 159.917 201.3C160.829 201.306 161.723 201.384 162.543 201.61C163.758 201.944 164.467 202.868 165.23 203.802C165.959 204.698 166.684 205.597 167.364 206.531C168.008 207.416 168.617 208.331 169.145 209.291C169.462 209.866 169.755 210.458 170.003 211.068C170.089 211.284 170.203 211.529 170.256 211.753C170.309 211.979 170.212 212.218 170.465 212.218C169.42 212.233 168.725 214.842 169.764 214.78C171.225 214.695 171.96 212.943 171.674 211.388C171.163 208.613 168.404 205.262 167.858 204.552C166.652 202.984 165.408 200.938 163.477 200.209C163.449 200.199 163.42 200.188 163.392 200.18C163.954 199.647 164.398 199.009 164.822 198.36C165.26 197.692 165.781 196.927 165.925 196.134C166.016 195.629 165.389 195.342 165.091 195.784C164.658 196.428 164.448 197.244 164.125 197.952C163.796 198.671 163.394 199.349 163.077 200.074C162.315 199.839 161.491 199.732 160.652 199.696C161.71 198.263 163.519 195.498 163.736 195.143C164.738 193.499 165.691 191.804 166.601 190.107C167.586 188.268 168.429 186.353 169.371 184.493C169.905 183.439 170.444 182.375 171.038 181.353C171.243 181.002 171.463 180.651 171.712 180.332C171.76 180.269 171.822 180.216 171.879 180.156C171.944 180.12 172.012 180.08 172.05 180.059C172.392 179.863 172.513 179.406 172.753 179.116C173.138 178.65 173.59 178.595 174.169 178.588C175.402 178.575 176.641 178.624 177.872 178.658C179.683 178.709 181.491 178.78 183.3 178.876C183.847 178.905 184.392 178.935 184.939 178.968C187.57 179.125 190.198 179.33 192.82 179.582C195.139 179.803 197.459 180.165 199.781 180.338C196.637 187.809 193.151 195.145 189.205 202.226C189.165 202.297 189.135 202.369 189.116 202.441ZM171.674 221.689C171.167 221.921 170.675 222.211 170.216 222.541C170.292 222.027 170.311 221.486 170.29 220.943C170.668 221.348 171.152 221.581 171.674 221.689ZM193.318 208.837C193.282 208.841 193.248 208.86 193.232 208.896C192.53 210.343 192.824 211.96 193.969 213.095C194.569 213.687 195.877 214.355 195.834 215.327C195.798 216.113 194.943 216.773 194.577 217.422C194.237 218.026 194.11 218.69 194.383 219.345C194.732 220.184 195.705 220.518 196.039 221.342C196.462 222.388 195.775 223.65 195.294 224.561C194.846 225.404 194.267 226.248 193.882 227.139C191.307 228.473 185.463 230.895 184.76 231.031C183.902 231.197 183.042 231.356 182.18 231.504C180.526 231.791 178.867 232.058 177.205 232.292C176.258 232.425 175.31 232.556 174.361 232.66C173.533 232.749 172.599 232.869 171.932 232.246C170.586 230.986 171.34 228.875 172.191 227.602C172.208 227.577 172.208 227.554 172.202 227.533C173.005 227.344 173.805 227.125 174.604 226.97C176.14 226.674 177.686 226.425 179.235 226.203C182.417 225.749 185.62 225.449 188.818 225.147C189.61 225.07 189.619 223.824 188.818 223.898C184.223 224.318 179.605 224.717 175.071 225.603C173.934 225.823 172.806 226.072 171.684 226.353C171.154 226.484 170.586 226.689 170.03 226.696C169.996 226.696 169.962 226.696 169.929 226.694C168.841 226.66 168.682 225.728 169.28 224.952C169.354 224.857 169.43 224.762 169.508 224.671C170.565 223.411 171.881 222.57 173.237 221.699C174.756 221.492 176.271 221.031 177.758 220.693C181.43 219.856 185.102 219.019 188.776 218.185C189.496 218.02 189.19 216.912 188.47 217.075C185.681 217.707 182.892 218.339 180.103 218.971L176.022 219.897C175.206 220.08 174.188 220.45 173.229 220.584C172.755 220.649 172.297 220.657 171.883 220.56C170.546 220.243 170.478 218.571 171.055 217.578C171.701 216.462 172.922 215.765 174.006 215.133C175.884 214.036 177.883 213.247 179.835 212.339C180.182 212.263 180.528 212.186 180.875 212.11C182.89 211.666 185.193 211.449 187.09 210.635C187.658 210.394 187.348 209.498 186.786 209.511C185.313 209.543 183.773 210.067 182.334 210.377C180.777 210.715 179.218 211.051 177.661 211.388C177.505 211.421 176.579 211.717 176.44 211.652C176.351 211.609 176.32 211.301 176.29 211.098C176.195 210.43 176.125 209.729 176.229 209.058C176.457 207.556 177.71 206.85 178.977 206.273C181.8 204.99 184.895 204.187 187.975 203.866C188.685 203.792 189.395 203.745 190.109 203.722C190.948 203.696 191.639 203.549 192.063 204.375C192.731 205.677 193.098 207.351 193.318 208.837ZM189.398 256.041C188.783 253.913 188.951 251.641 188.529 249.47C188.312 248.351 188.015 247.24 187.691 246.147C187.43 245.264 186.993 244.324 186.944 243.403C186.941 243.341 187.013 243.306 187.063 243.334C187.931 243.831 188.597 244.906 189.092 245.749C189.684 246.758 190.137 247.815 190.502 248.926C191.229 251.14 191.826 253.81 190.888 256.041C190.609 256.705 189.629 256.838 189.398 256.041ZM165.397 272.149C164.48 271.509 163.812 270.615 163.035 269.825C162.271 269.049 163.466 267.853 164.23 268.63C164.893 269.303 165.469 270.144 166.25 270.689C166.625 270.951 166.799 271.424 166.553 271.846C166.335 272.217 165.771 272.41 165.397 272.149ZM160.286 247.559C161.959 246.835 163.604 246.047 165.355 245.526C166.401 245.214 166.844 246.846 165.804 247.156C164.192 247.636 162.679 248.352 161.139 249.019C160.15 249.446 159.29 247.989 160.286 247.559ZM142.617 247.052C142.208 246.043 143.844 245.607 144.247 246.603C144.711 247.749 145.243 248.866 145.707 250.012C146.116 251.021 144.481 251.457 144.078 250.461C143.613 249.315 143.081 248.199 142.617 247.052ZM125.178 267.219C124.906 267.583 124.451 267.78 124.022 267.523C123.662 267.307 123.443 266.734 123.719 266.366C124.524 265.292 125.34 264.231 126.285 263.273C127.05 262.497 128.245 263.693 127.48 264.469C126.637 265.324 125.898 266.26 125.178 267.219ZM122.685 154.064C123.46 154.594 124.14 155.238 124.803 155.901C125.573 156.671 124.378 157.867 123.607 157.096C123.049 156.538 122.486 155.971 121.832 155.524C121.454 155.266 121.284 154.786 121.528 154.368C121.747 153.993 122.308 153.807 122.685 154.064ZM148.056 181.273C147.617 182.151 147.223 183.013 147.198 184.011C147.171 185.099 145.481 185.1 145.508 184.011C145.54 182.705 146.022 181.571 146.597 180.419C147.083 179.444 148.54 180.302 148.056 181.273ZM157.365 159.421C158.274 158.815 159.119 160.28 158.218 160.881C157.488 161.367 156.758 161.855 156.028 162.342C155.119 162.947 154.274 161.482 155.174 160.882C155.905 160.395 156.635 159.908 157.365 159.421ZM116.988 197.627C116.833 198.702 115.205 198.242 115.359 197.178C115.596 195.533 115.886 193.91 116.332 192.308C116.624 191.26 118.254 191.708 117.962 192.758C117.516 194.36 117.226 195.983 116.988 197.627ZM111.063 216.995C109.975 216.972 109.975 215.281 111.063 215.304C112.047 215.325 113.015 215.585 113.965 215.822C115.021 216.086 114.57 217.716 113.515 217.452C112.712 217.251 111.895 217.013 111.063 216.995ZM108.875 256.011C108.501 256.193 108.118 256.356 107.74 256.529C106.984 256.875 106.228 257.222 105.472 257.569C103.897 258.292 102.323 259.018 100.75 259.746C97.6025 261.203 94.4304 262.61 91.2749 264.052C88.057 265.522 84.8477 267.012 81.6423 268.51C80.1322 269.215 78.6106 269.895 77.092 270.581C75.7936 271.169 74.1886 272.195 72.7632 272.292C72.6899 272.297 72.6654 272.204 72.7072 272.156C73.2457 271.544 74.1047 271.187 74.8125 270.789C75.5354 270.382 76.2719 269.999 77.005 269.611C78.5333 268.801 80.0635 267.997 81.6066 267.216C84.6932 265.653 87.7858 264.102 90.8789 262.553C94.0336 260.972 97.1842 259.382 100.367 257.858C101.865 257.14 103.365 256.424 104.865 255.711C105.678 255.325 106.492 254.939 107.305 254.554C107.656 254.388 108.004 254.208 108.363 254.059C108.84 253.862 109.203 253.902 109.695 253.78C110.498 253.582 110.846 254.603 110.23 255.048C109.722 255.414 109.455 255.728 108.875 256.011ZM97.592 273.348C97.4185 272.926 97.7817 272.413 98.1823 272.308C98.662 272.181 99.0468 272.473 99.2219 272.898C99.6852 274.026 100.345 275.06 101.195 275.934C101.954 276.715 100.76 277.911 99.9996 277.13C98.935 276.035 98.1702 274.755 97.592 273.348ZM89.2911 246.208C88.5206 245.438 89.7159 244.242 90.4862 245.013L92.6766 247.204C93.4471 247.975 92.2515 249.17 91.4815 248.399L89.2911 246.208ZM66.8185 242.636C65.2437 243.098 63.407 243.522 62.3333 244.866C62.2809 244.932 62.1928 244.848 62.2243 244.782C63.5988 241.932 67.5406 240.932 70.2698 239.933C72.2001 239.227 74.1808 238.641 76.1781 238.117C75.9785 235.838 76.529 233.395 76.7204 231.127C76.9247 228.705 77.091 226.277 77.1763 223.848C77.2636 221.37 77.2847 218.875 77.2032 216.396C77.122 213.927 76.8015 211.487 76.6613 209.026C76.6477 208.788 76.979 208.776 77.0504 208.973C77.8799 211.257 78.2342 213.787 78.5042 216.196C78.7822 218.677 78.8745 221.151 78.839 223.646C78.8023 226.212 78.6531 228.772 78.4484 231.329C78.3514 232.541 78.2388 233.752 78.1325 234.963C78.0514 235.888 78.0138 236.805 77.8254 237.7C79.03 237.404 80.2374 237.124 81.441 236.852C85.2789 235.986 89.1328 235.182 92.9546 234.245C94.8307 233.786 96.6799 233.235 98.5475 232.746C100.306 232.285 102.162 231.727 103.968 231.521C104.612 231.448 104.694 232.33 104.268 232.629C102.8 233.66 100.851 234.377 99.1562 234.954C97.4551 235.533 95.6868 235.95 93.9432 236.379C90.307 237.273 86.6365 238.005 82.9714 238.767C79.3114 239.528 75.6444 240.283 72.0256 241.222C70.2829 241.674 68.5461 242.128 66.8185 242.636ZM58.1889 197.402C57.2479 197.955 56.3984 196.493 57.336 195.942C58.5628 195.222 59.8704 194.68 61.1885 194.152C62.2 193.747 62.6352 195.383 61.6378 195.783C60.4532 196.257 59.2913 196.755 58.1889 197.402ZM54.7815 260.218C53.838 260.766 52.9879 259.304 53.9287 258.759C55.2499 257.992 56.6969 257.481 58.0661 256.811C59.0403 256.333 59.8959 257.792 58.919 258.271C57.55 258.941 56.1028 259.452 54.7815 260.218ZM53.249 224.561C54.1613 225.428 55.3788 225.836 56.5268 226.291C57.5278 226.688 57.0888 228.323 56.0775 227.922C54.6472 227.354 53.1903 226.836 52.0539 225.756C51.2633 225.005 52.4606 223.812 53.249 224.561ZM63.3415 176.135C64.3444 176.529 63.9051 178.163 62.8921 177.766C61.7686 177.325 60.6083 176.989 59.4848 176.548C58.4821 176.155 58.9211 174.52 59.9342 174.918C61.0577 175.359 62.218 175.694 63.3415 176.135ZM81.1456 156.901C82.2113 156.721 82.6651 158.35 81.595 158.531C80.2674 158.755 78.9601 159.018 77.7009 159.505C76.6841 159.899 76.2478 158.263 77.2515 157.875C78.5109 157.387 79.8182 157.125 81.1456 156.901ZM87.0284 203.732C86.0513 203.252 86.9086 201.794 87.8813 202.272C88.9063 202.776 89.9684 203.166 91.0868 203.404C92.1518 203.631 91.6982 205.261 90.6375 205.035C89.3787 204.767 88.1811 204.299 87.0284 203.732ZM92.5845 177.353C93.6366 177.064 94.0816 178.696 93.0339 178.983C91.1906 179.488 89.2927 179.751 87.4359 180.2C86.3777 180.457 85.93 178.826 86.9865 178.57C88.8434 178.12 90.7414 177.858 92.5845 177.353ZM116.155 169.074C117.225 169.272 116.769 170.902 115.706 170.705C114.574 170.495 113.427 170.492 112.28 170.491C111.19 170.491 111.192 168.8 112.28 168.801C113.583 168.801 114.87 168.837 116.155 169.074ZM193.027 177.908C190.265 177.644 187.5 177.432 184.73 177.274C184.601 177.267 184.475 177.259 184.345 177.252C184.331 177.223 184.312 177.195 184.293 177.166C183.389 175.838 182.723 174.511 182.146 173.011C181.595 171.582 181.06 170.109 180.211 168.82C179.242 167.351 177.935 166.201 176.501 165.205C175.632 165.79 174.825 166.475 174.087 167.201C173.31 167.964 172.115 166.769 172.892 166.005C173.548 165.36 174.248 164.764 174.988 164.226C174.134 163.706 173.262 163.218 172.411 162.733C169.223 160.913 165.959 159.23 162.627 157.692C161.079 156.975 159.511 156.339 157.933 155.695C157.083 155.348 156.245 154.902 155.396 154.501C155.457 153.9 155.277 153.228 154.817 152.833C154.477 152.543 154.213 152.436 153.807 152.231C153.716 152.199 153.661 152.18 153.636 152.169C153.655 152.174 153.71 152.19 153.8 152.22C154.016 152.32 154.033 152.29 153.851 152.133C153.841 151.791 153.167 151.068 153.013 150.715C152.476 149.504 152.309 148.223 151.517 147.12C150.425 145.601 148.591 145.026 146.881 145.541C146.704 143.713 146.658 141.805 145.969 140.173C145.95 140.129 145.889 140.11 145.861 140.158C145.143 141.382 145.082 142.745 145.027 144.157C144.974 145.482 145.024 146.837 145.198 148.154C145.088 148.238 144.976 148.319 144.86 148.397C144.315 148.756 143.727 149.033 143.11 149.238C141.936 149.627 140.704 149.796 139.472 149.855C136.293 150.007 133.016 149.686 129.889 149.141C126.727 148.589 121.878 147.761 119.064 146.177C117.207 145.134 115.494 143.859 113.757 142.625C114.386 140.596 114.547 138.415 113.913 136.701C113.837 136.496 113.516 136.457 113.455 136.701C113.058 138.336 112.941 139.981 112.413 141.598C112.405 141.621 112.396 141.646 112.388 141.669C112.223 141.558 112.058 141.447 111.894 141.338C111.513 141.086 110.996 141.274 110.767 141.633C107.119 147.384 101.341 147.714 95.2731 148.741C88.6327 149.866 81.959 151.079 75.5745 153.279C69.4689 155.384 63.6337 158.449 59.0111 163.027C57.9647 164.063 56.9861 165.167 56.0625 166.32C56.9561 166.433 57.8424 166.608 58.7173 166.883C59.7531 167.209 59.308 168.841 58.2679 168.514C57.1435 168.16 56.0067 167.985 54.8582 167.898C51.7173 172.197 49.2683 177.071 47.1506 181.868C43.0885 191.066 40.4445 200.862 39.2278 210.835C39.8958 210.435 40.5759 210.053 41.2729 209.698C42.2413 209.206 43.0955 210.665 42.126 211.158C41.0494 211.706 40.0036 212.31 38.9904 212.965C38.5477 217.33 38.3762 221.724 38.4801 226.11C38.7273 236.568 40.1386 247.332 43.3308 257.31C44.8963 262.207 46.971 267.064 50.0618 271.202C51.4604 273.076 53.0492 274.767 54.921 276.177C55.8273 276.862 56.7865 277.473 57.7985 277.988C59.102 278.656 60.8006 278.876 61.9245 279.821C62.2942 280.132 62.5794 280.541 62.7949 281.004C62.6703 281.883 62.6555 282.765 62.8963 283.644C62.9724 283.919 63.1794 284.143 63.4351 284.251C63.4393 284.327 63.4393 284.401 63.4393 284.472C63.4393 284.506 63.49 284.515 63.4963 284.481C63.5069 284.415 63.5175 284.35 63.528 284.282C63.6104 284.31 63.697 284.323 63.7858 284.323C66.9949 284.335 70.2081 284.256 73.4215 284.147C73.173 283.386 72.9039 282.631 72.6455 281.869C72.2946 280.835 73.9275 280.395 74.2752 281.42C74.5775 282.31 74.8936 283.193 75.1748 284.086C78.6178 283.958 82.0598 283.804 85.4956 283.691C92.8034 283.447 100.109 283.367 107.419 283.213C118.77 282.972 130.204 282.479 141.574 282.962C141.967 282.127 142.407 281.311 142.824 280.488C143.316 279.516 144.774 280.372 144.284 281.341C143.994 281.913 143.693 282.478 143.408 283.049C145.71 283.169 148.011 283.327 150.306 283.543C154.223 283.91 158.102 284.563 162.015 284.969C165.993 285.383 169.884 285.31 173.831 284.652C174.541 284.534 174.959 284.105 175.132 283.572C175.138 283.57 175.143 283.566 175.147 283.559C175.35 283.323 175.54 283.126 175.736 282.955C175.971 282.803 176.225 282.674 176.522 282.56C177.078 282.348 177.657 282.219 178.244 282.133C178.891 282.036 179.546 282.027 180.192 281.947C180.737 281.877 181.27 281.774 181.802 281.647C182.759 281.419 183.667 281.121 184.572 280.725C185.36 280.381 186.071 279.886 186.744 279.347C188.134 278.331 189.338 277.033 190.39 275.685C191.003 274.896 191.579 274.078 192.103 273.227C193.016 271.751 193.794 270.219 194.579 268.674C194.865 268.216 195.125 267.747 195.363 267.269C193.827 266.816 192.276 266.447 190.648 266.421C189.56 266.403 189.56 264.712 190.648 264.73C192.515 264.76 194.282 265.196 196.037 265.716C196.122 265.489 196.204 265.26 196.28 265.028C196.489 264.544 196.663 264.048 196.806 263.545C196.89 263.316 196.975 263.088 197.06 262.86C197.25 262.069 197.44 261.277 197.632 260.484C198.015 259.216 198.317 257.929 198.539 256.625C198.725 255.767 198.868 254.902 198.965 254.027C199.261 251.908 199.502 249.792 199.519 247.649C199.493 246.328 199.409 245.009 199.265 243.697C199.204 242.805 199.101 241.917 198.961 241.036C198.779 239.725 198.6 238.428 198.298 237.134C198.072 236.259 197.846 235.384 197.62 234.509C197.055 232.686 196.39 230.897 195.623 229.149C195.581 229.04 195.367 228.799 195.239 228.796C195.141 228.794 195.006 228.883 195.05 229.002C195.055 229.012 195.059 229.025 195.063 229.035C195.019 228.936 194.977 228.834 194.932 228.735C194.894 228.642 194.746 228.456 194.632 228.458C194.626 228.458 194.619 228.458 194.611 228.46C194.641 228.439 194.668 228.412 194.696 228.38C195.454 227.482 195.946 226.3 196.489 225.261C196.939 224.402 197.364 223.498 197.486 222.528C197.594 221.676 197.448 220.837 196.914 220.148C196.305 219.364 195.16 218.996 195.796 217.863C196.519 216.574 197.582 215.456 196.523 213.991C195.984 213.245 195.131 212.835 194.497 212.186C193.768 211.436 193.421 210.432 193.441 209.407C193.485 209.433 193.544 209.42 193.565 209.356C194.178 207.505 193.734 205.472 193.107 203.669C192.765 202.691 192.04 202.422 191.197 202.374C194.848 195.241 198.264 187.993 201.308 180.579C201.41 180.336 201.509 180.093 201.608 179.85C201.756 179.486 201.444 179.003 201.082 178.922C198.45 178.345 195.708 178.161 193.027 177.908Z" fill="black"/>
<path fill-rule="evenodd" clip-rule="evenodd" d="M164.579 68.5755C164.111 67.3909 163.283 65.9019 161.899 65.8425C160.828 62.5613 158.166 59.2196 154.464 59.3084C143.596 48.1673 129.915 48.6925 115.611 51.0509C108.064 52.4541 100.401 55.2017 94.7728 60.6236C88.0315 67.0068 85.4066 78.1448 90.6856 86.2165C86.1232 88.6675 86.0346 94.4839 87.9858 98.6811C85.6404 100.307 85.4979 104.253 88.1388 105.494C87.9984 106.07 88.0977 106.666 88.3655 107.178C87.056 108.271 85.3518 109.078 83.9428 109.772C83.3201 110.079 82.9608 110.58 82.8116 111.144C78.1853 114.187 66.6495 121.622 66.787 127.541C66.7191 130.628 69.0036 132.66 71.7797 133.469C70.1279 136.779 68.8741 140.646 70.4553 144.217C70.8923 145.296 74.1669 148.467 74.3317 148.525C74.6199 148.773 79.3176 146.611 81.6008 145.508C82.0435 148.395 85.123 149.908 87.7775 148.918C90.2945 148.158 91.8417 146.022 93.4292 144.078C95.5364 148.687 101.736 148.74 105.743 146.753C109.341 145.086 112.077 142.032 113.601 138.351C121.692 142.322 131.16 143.48 139.951 141.894C140.515 142.895 141.764 143.567 142.876 143.18C147.551 141.771 152.72 141.692 156.683 138.464C164.942 132.521 165.638 121.563 165.062 112.223C164.551 102.91 164.998 93.5201 163.309 84.308C164.042 81.5957 165.261 79.1979 166.389 76.6499C167.614 73.978 167.589 70.0061 164.579 68.5755Z" fill="#D08B5B"/>
<path fill-rule="evenodd" clip-rule="evenodd" d="M127.081 50.0898L127.402 50.0911C127.932 50.0946 128.462 50.1051 128.991 50.1226C131.784 50.2148 134.697 50.578 137.978 51.1999L138.476 51.2959C139.292 51.456 140.023 51.6167 141.189 51.8897L143.502 52.4362C144.68 52.7114 145.547 52.9017 146.347 53.0549L146.451 53.0747C146.451 53.0747 152.616 56.037 154.607 57.9858L154.806 58.1818L154.89 58.2666L155.756 58.294L155.764 58.4035L155.772 58.4046C156.631 58.5387 157.409 58.9849 158.132 59.6797L158.209 59.7551L158.283 59.8298C158.847 60.4042 159.296 61.0162 159.915 61.9864L160.055 62.208L160.307 62.6082L160.511 62.9295C160.643 63.1397 160.77 63.3476 160.892 63.5536L161.013 63.759L161.099 63.91L163.334 65.217C163.657 65.4053 163.95 65.649 164.218 65.9409L164.29 66.0217L164.361 66.1049L164.97 66.8313L164.848 66.9594L164.907 67.0377L165.013 67.1836L165.117 67.3316L165.218 67.4816L165.262 67.5474L165.327 67.6897L165.359 67.7607L165.385 67.8192L165.461 67.8585L165.616 68.1394C166.422 69.5968 166.856 71.2519 166.885 72.9527C166.906 74.1258 166.761 75.1912 166.418 76.219C166.181 76.9297 165.863 77.4881 165.314 78.257L164.88 78.854L164.791 78.9772L164.685 79.127C164.668 79.1511 164.652 79.1747 164.636 79.1982C163.93 80.2234 157.896 82.1637 154.187 82.2575L154.075 82.2598L153.932 82.2612C153.579 82.2627 153.237 82.25 152.907 82.2224C151.48 82.1028 150.146 81.8019 148.597 81.3097L148.275 81.2055L146.568 80.6306C146.514 80.6125 146.47 80.5981 146.439 80.5884L146.283 80.5395C145.908 80.4239 145.634 80.3575 145.448 80.3334L145.41 80.3288L145.406 80.3996L145.405 80.4663L145.405 80.5206C145.416 81.3083 144.939 81.8826 144.199 82.2485C143.727 82.4815 143.12 82.648 142.357 82.7729L142.236 82.7923C140.99 82.9853 139.503 83.0677 137.017 83.1242C136.923 83.1263 136.827 83.1251 136.731 83.1207C136.197 83.0962 135.778 83.005 134.998 82.7806L134.629 82.6745L134.429 82.6191C134.058 82.5187 133.852 82.4786 133.657 82.4676L133.6 82.4653L133.544 82.4643C133.309 82.464 133.14 82.5163 132.973 82.6437L132.888 82.7121L131.742 83.6747C131.593 83.7992 131.459 83.9097 131.361 83.988L131.321 84.0196C129.748 85.2561 128.248 85.9624 126.481 86.0296L126.363 86.0331L126.24 86.0345C126.15 86.0347 126.06 86.0331 125.969 86.0296C125.225 86.0012 124.453 85.7247 123.398 85.1915L123.18 85.0795L123.027 84.9994C122.949 84.9583 122.867 84.9149 122.779 84.8675L121.992 84.4455L121.59 84.2348C121.109 83.9872 120.841 83.8676 120.661 83.8184L120.632 83.8106L120.615 83.8269C120.198 84.2354 119.84 84.7494 119.454 85.4591L119.396 85.567L119.312 85.7278L118.764 86.8202L118.661 87.0233C118.255 87.8118 117.933 88.3157 117.513 88.7578C116.902 89.3994 116.163 89.7717 115.257 89.8315L115.166 89.8364L115.058 89.8391C114.631 89.8433 114.179 89.7776 113.689 89.6411L113.575 89.6084L113.464 89.5743C112.734 89.3431 111.58 89.487 110.663 89.9748C109.667 90.5046 109.119 91.3129 109.144 92.3459C109.156 92.859 109.215 93.4091 109.318 94.0053L109.347 94.169C109.483 94.9061 109.667 95.6455 109.951 96.632L110.561 98.6954L110.63 98.9361L110.699 99.1839C110.798 99.5447 110.877 99.8591 110.942 100.155C111.191 101.287 111.233 102.137 110.983 102.861C109.883 106.054 107.973 107.75 105.799 107.821L105.724 107.823L105.631 107.823C103.961 107.805 102.447 106.714 102.465 105.301C102.467 105.153 102.495 105.015 102.544 104.89L102.567 104.837L102.577 104.815L102.56 104.772C102.047 103.54 100.859 102.641 99.4653 102.465L99.3862 102.456L99.3081 102.448C99.2316 102.441 99.1552 102.437 99.0828 102.434L99.012 102.432L98.9273 102.432C97.0693 102.435 95.2308 103.675 93.7846 105.703C93.4831 106.126 93.2032 106.587 92.9517 107.075L92.8689 107.239L92.4668 108.064L92.1952 108.861C90.6987 113.253 91.4564 117.848 94.3773 120.224L94.4665 120.295C95.5189 121.123 96.7565 121.626 98.0777 121.761C98.2298 121.776 98.3828 121.786 98.53 121.79L98.6392 121.792L98.7647 121.792C99.1953 121.786 99.607 121.732 99.9769 121.632C100.279 121.551 100.489 121.452 100.635 121.325C100.673 121.292 100.704 121.262 100.731 121.232L100.753 121.205L100.762 121.194L102.758 121.491C103.097 123.651 104.078 125.89 105.674 128.458L105.775 128.619L105.95 128.896L106.128 129.173C108.006 132.068 110.1 134.506 112.402 136.377L112.563 136.506L112.778 136.678L112.976 136.833C113.361 137.133 113.682 137.365 114.002 137.573L114.082 137.625L114.839 138.106L114.488 138.932C113.668 140.86 112.537 142.613 111.142 144.105L111.011 144.244L110.041 145.246L109.296 144.295C109.29 144.288 109.273 144.279 109.254 144.275L109.24 144.273H109.232L109.222 144.274L109.21 144.277L109.198 144.283C108.64 144.586 108.334 144.818 107.893 145.272L107.829 145.338L107.755 145.417L107.653 145.524C107.195 145.994 106.706 146.394 106.173 146.727C104.942 147.496 103.576 147.924 102.161 147.962L102.028 147.965L101.895 147.965C101.847 147.964 101.799 147.963 101.751 147.962C98.7989 147.88 96.1538 145.984 94.8537 143.206C94.8021 143.095 94.7546 143.059 94.6671 143.052L94.6422 143.051L94.611 143.05C94.3942 143.052 94.1285 143.181 93.9803 143.355L93.9539 143.388L93.4563 144.058L93.2655 144.311C91.4904 146.648 90.033 147.925 88.0755 148.314C87.9214 148.344 87.7583 148.363 87.5852 148.37L87.4801 148.375H87.4187C86.5768 148.377 85.6067 148.132 84.8505 147.702C83.8503 147.132 83.2318 146.256 83.3102 145.171L83.3161 145.102L83.33 144.985C83.3953 144.406 82.9327 144.091 82.5786 144.376L82.5546 144.396L82.5253 144.423C81.0669 145.794 79.3895 146.846 77.5827 147.495L77.423 147.551L77.1856 147.632C76.0461 148.018 75.2427 148.209 74.3967 148.224C73.6645 148.237 73.0557 147.972 72.6154 147.463C72.3217 147.123 72.1422 146.746 71.9631 146.196L71.9332 146.102L71.8678 145.888L71.8272 145.749C71.3031 143.9 71.2917 141.923 71.7032 139.741C72.0106 138.112 72.5 136.538 73.323 134.331L73.4827 133.906L73.8123 133.038C73.8454 132.951 73.6475 132.647 73.525 132.613L73.5105 132.61L73.3987 132.622C73.3203 132.63 73.2413 132.635 73.1603 132.638L73.0371 132.641H72.9563C70.2832 132.614 68.2415 129.986 68.2604 127.202C68.281 124.594 69.5892 122.352 72.0868 119.69L72.3038 119.461L72.5386 119.217L72.7706 118.979C74.99 116.714 77.2589 114.737 79.6217 113.04L79.8173 112.901L80.0351 112.747C80.8308 112.187 81.6044 111.68 82.6749 111.013L83.3051 110.622L85.8593 107.601C85.9206 107.566 85.981 107.531 86.0405 107.497L86.0729 106.449L88.5337 106.499C87.9093 106.178 87.3919 105.789 86.9717 105.289C85.5749 103.629 85.7502 101.322 87.4485 100.189L87.5084 100.15L88.2244 99.7066L88.8102 100.222C89.3204 100.671 89.8617 100.968 90.4261 101.105L90.5154 101.126L90.957 101.22L91.0429 101.359L91.0927 101.287C91.0924 101.28 91.091 101.273 91.0886 101.266L91.0842 101.255L91.0749 101.241L91.0193 101.172L90.9579 101.099C90.7614 100.867 90.5409 100.642 90.1404 100.256L89.8594 99.9852L89.6408 99.7719C89.0669 99.2068 88.7612 98.8568 88.4362 98.3707C87.6276 97.1612 87.1709 95.7975 87.1519 94.4124C87.1121 91.5322 88.8991 88.8091 91.5472 87.5663C91.6398 87.5228 91.7083 87.2134 91.5971 87.0089C89.0331 82.2928 88.3217 76.6395 89.6096 71.3806C90.8114 66.4741 93.8012 62.1432 98.0816 58.8257C105.43 53.1302 115.623 50.1932 126.438 50.092L126.766 50.0898H127.081Z" fill="#ECDCBF"/>
<path fill-rule="evenodd" clip-rule="evenodd" d="M87.7854 108.105C88.2722 107.982 88.5336 108.638 88.1204 108.901C85.4969 110.574 82.7868 112.068 80.2525 113.888C77.842 115.619 75.6157 117.59 73.5396 119.709L73.3095 119.945C71.4325 121.881 69.3538 124.343 69.3328 127.199C69.3165 129.418 71.0236 131.841 73.4052 131.549C74.3025 131.44 75.1272 132.581 74.8141 133.404L74.4847 134.271C73.1596 137.78 71.8113 141.757 72.8581 145.449L72.8965 145.581C73.1497 146.426 73.4166 147.173 74.3954 147.156C75.3039 147.14 76.2492 146.833 77.0996 146.54C78.8644 145.931 80.4637 144.917 81.8212 143.641C83.0219 142.512 84.556 143.659 84.3943 145.093L84.3886 145.139C84.1675 146.748 86.7254 147.496 87.8882 147.266C90.1843 146.81 91.8213 144.504 93.1253 142.746C93.752 141.901 95.2744 141.569 95.8251 142.746C96.9163 145.078 99.1655 146.821 101.797 146.895C103.164 146.932 104.475 146.542 105.632 145.819C106.105 145.524 106.528 145.173 106.915 144.775L107.011 144.674C107.585 144.065 107.98 143.741 108.713 143.343C109.434 142.951 110.368 143.437 110.364 144.292C110.358 145.4 110.034 146.137 109.272 146.94C108.641 147.606 107.892 148.19 107.104 148.657C105.521 149.594 103.64 150.122 101.797 150.061C98.8921 149.964 96.1196 148.513 94.3223 146.256C92.4873 148.455 90.2111 150.476 87.253 150.422C85.0386 150.381 82.9748 149.226 81.9861 147.435C80.5902 148.4 79.0582 149.154 77.4193 149.647L77.2732 149.69C74.9533 150.367 72.2836 150.636 70.7904 148.327C69.3884 146.16 69.2838 143.158 69.6051 140.68C69.8921 138.467 70.5713 136.365 71.3514 134.292C69.131 133.627 67.4075 131.536 66.8155 129.283C65.92 125.874 67.6574 122.569 69.8052 120.037C72.1384 117.286 75.0749 114.959 78.0334 112.922C80.984 110.891 84.2895 108.983 87.7854 108.105ZM163.654 81.4465C163.659 81.3518 163.814 81.3186 163.828 81.4226C164.847 88.8363 165.438 96.2351 165.926 103.7C166.174 107.481 166.455 111.259 166.763 115.036C167.058 118.658 167.55 122.377 167.439 126.013C167.265 131.708 164.506 136.338 159.983 139.67C155.65 142.864 150.273 144.442 144.998 145.109C141.935 145.497 138.829 145.515 135.762 145.151C134.169 144.962 132.578 144.711 131.018 144.333L130.344 144.164C129.115 143.849 127.743 143.422 127.568 141.963C127.483 141.257 127.858 140.736 128.462 140.381C129.25 139.919 130.154 140.191 130.966 140.402C132.335 140.757 133.719 141.061 135.118 141.272C138.123 141.725 141.212 141.752 144.232 141.438C149.312 140.911 154.671 139.259 158.588 135.847C160.291 134.365 161.771 132.558 162.55 130.412C163.55 127.653 163.402 124.643 163.369 121.754C163.291 115.036 163.359 108.319 163.266 101.6C163.173 94.8613 163.254 88.1754 163.654 81.4465ZM112.565 50.0515C118.501 48.5167 124.525 48.1179 130.623 48.5799C136.374 49.0153 142.925 50.3051 147.621 53.851C147.849 54.023 147.713 54.3487 147.431 54.3037C144.291 53.8019 141.23 52.8893 138.104 52.2855C135.097 51.7047 132.035 51.2687 128.973 51.1677C118.617 50.8255 107.094 53.178 98.7432 59.6506C94.8276 62.6854 91.8395 66.7662 90.6502 71.6215C89.4306 76.6016 90.0905 81.9872 92.5396 86.4921C92.8923 87.1408 92.7468 88.1669 92.0111 88.5122C89.7785 89.5601 88.1882 91.8816 88.2228 94.3867C88.2395 95.6017 88.6573 96.7669 89.3288 97.7713C90.0388 98.8333 91.1197 99.5764 91.9139 100.568C92.2265 100.959 92.2385 101.497 91.9908 101.856C92.4553 102.06 92.9562 102.17 93.4132 102.411C93.8007 102.615 93.8117 103.253 93.4132 103.454C92.4055 103.963 91.316 103.423 90.6359 102.603C90.5144 102.456 90.4094 102.304 90.3137 102.149C89.4991 101.975 88.7693 101.566 88.1319 101.005C86.9176 101.734 86.7513 103.357 87.7944 104.597C88.3271 105.23 89.084 105.621 89.849 105.901L89.9408 105.935C90.6852 106.2 91.367 106.348 91.8506 106.945C92.1696 106.278 92.5358 105.65 92.9439 105.077C94.4279 102.996 96.709 101.15 99.4158 101.384C101.536 101.567 103.373 103.089 103.807 105.189C103.839 105.344 103.606 105.465 103.536 105.303C102.519 102.925 99.3004 102.838 97.3832 104.077C95.1285 105.535 93.8962 108.281 93.4019 110.839C92.9153 113.359 93.1965 116.423 95.0777 118.34C95.8474 119.124 96.8945 119.667 97.9874 119.809C98.5217 119.88 98.9929 119.811 99.5038 119.707L99.8424 119.637C100.077 119.588 100.311 119.548 100.557 119.57L100.924 119.62L101.133 119.718C101.314 119.799 101.297 119.777 101.084 119.65C101.707 119.599 102.03 120.061 102.064 120.568C102.084 120.581 102.103 120.594 102.119 120.614C104.486 123.518 106.243 126.855 108.754 129.663L109.49 130.486C111.38 132.594 113.537 134.879 116.105 135.972L116.411 136.099C117.158 136.415 117.908 136.848 118.003 137.751C118.088 138.56 117.452 139.168 116.719 139.357C115.05 139.786 113.147 138.299 111.925 137.323C109.296 135.225 107.086 132.551 105.262 129.738L105.081 129.458C103.581 127.109 102.172 124.431 101.734 121.644L101.655 121.772C101.649 121.781 101.644 121.788 101.641 121.792C101.552 121.914 101.453 122.017 101.339 122.115C101.032 122.381 100.658 122.536 100.269 122.641C99.5385 122.839 98.738 122.878 97.9874 122.801C96.463 122.645 95.038 122.063 93.833 121.116C90.1638 118.231 89.7306 112.863 91.2146 108.508C89.9969 108.8 88.6099 107.978 87.6591 107.274C86.5687 106.467 85.6695 105.301 85.4547 103.929C85.2414 102.568 86.107 100.765 87.3909 100.24C86.0587 98.6367 85.2831 96.3611 85.203 94.5391C85.0638 91.3697 86.7435 88.374 89.3222 86.6447C86.8972 81.4347 86.43 75.3903 88.0628 69.8584C91.3029 58.8811 102.157 52.7424 112.565 50.0515ZM103.326 133.455L103.356 133.359C103.615 132.51 103.948 130.821 105.213 131.464C106.422 132.078 105.65 133.896 105.228 134.78C104.722 135.839 103.849 136.688 102.676 136.915C101.721 137.1 100.674 136.863 100.006 136.123C99.8115 135.908 99.7017 135.672 99.5864 135.411C99.5415 135.31 99.5212 135.24 99.5128 135.195C99.5018 135.244 99.4706 135.318 99.3909 135.405C98.8584 135.989 98.3554 136.668 97.9689 137.358C97.8774 137.521 97.589 137.407 97.662 137.228C98.1121 136.124 98.0364 134.418 99.0397 133.62C99.924 132.916 100.755 133.47 101.223 134.289L101.247 134.332C101.93 135.576 103.02 134.394 103.326 133.455ZM93.7065 129.468L93.7989 129.339C94.7444 128.043 96.3391 126.485 97.9348 127.69C98.4422 128.073 98.461 128.713 97.9348 129.093L97.7357 129.235C97.0386 129.731 96.3445 130.199 95.8324 130.909C95.2761 131.682 94.7764 132.5 94.0284 133.106C92.7055 134.177 90.5676 134.388 89.4197 132.944L89.3067 132.8C89.2107 132.677 89.1005 132.527 89.0111 132.378L88.9414 132.475C88.9346 132.485 88.9282 132.494 88.9223 132.503L88.9063 132.527C88.4345 133.283 87.8385 133.905 87.0962 134.397C85.6854 135.33 84.0956 135.46 82.4994 134.966C82.3432 134.917 82.3852 134.707 82.5363 134.693C84.4276 134.516 86.2704 133.169 87.0397 131.435L87.1266 131.24C87.4379 130.55 87.7866 129.894 88.5557 129.623C89.3043 129.36 90.0903 129.638 90.6036 130.206C91.0329 130.68 91.1433 131.624 91.9177 131.416C92.7656 131.188 93.2429 130.123 93.7065 129.468ZM88.2894 117.944C88.7083 117.625 89.3644 117.967 89.4797 118.43C90.0024 120.523 87.8317 122.99 85.7459 123.055C85.2089 123.072 84.6924 122.942 84.2168 122.692C83.8478 122.499 83.4112 122.006 83.0062 121.924C82.4832 121.818 82.0198 122.517 81.6515 122.875C81.1947 123.32 80.7427 123.733 80.2308 124.112C80.0263 124.264 79.709 124.009 79.7954 123.776L79.9686 123.314C80.5953 121.667 81.6748 119.263 83.695 119.946C84.6848 120.281 85.4299 121.41 86.4722 120.516C87.3068 119.8 87.3846 118.633 88.2894 117.944ZM97.2027 109.516C99.086 107.348 103.513 108.493 104.353 111.13C104.538 111.712 104.345 112.469 103.891 112.881C103.293 113.424 102.441 113.588 101.715 113.162C101.09 112.796 100.834 112.197 100.375 111.683C99.702 110.929 98.7864 110.511 97.843 110.211C97.6071 110.335 97.3876 110.499 97.1907 110.696C97.0899 110.797 96.8996 110.658 96.9889 110.54C97.1104 110.378 97.2588 110.226 97.4277 110.086L97.3465 110.062C97.0982 109.993 97.0444 109.698 97.2027 109.516ZM109.442 85.5877C109.865 85.5883 110.356 85.9856 110.302 86.4496L110.286 86.5784C110.164 87.4616 109.881 87.9617 109 88.372C108.251 88.7197 107.465 88.9118 106.645 88.9879C106.335 89.0166 106.006 89.0183 105.674 88.9936L105.603 89.399C105.464 90.2098 105.335 91.0212 105.311 91.8477C105.266 93.3797 105.836 94.6423 106.448 96.0102C107.622 98.6377 107.754 101.261 106.476 103.884C106.289 104.268 105.759 104.581 105.332 104.542C104.778 104.491 104.511 104.331 104.189 103.884C103.918 103.509 103.98 102.979 104.167 102.587L104.189 102.544C104.833 101.293 105.036 99.8798 104.707 98.5048C104.398 97.2124 103.698 96.0508 103.385 94.7624C102.876 92.6637 103.418 90.5819 104.478 88.7814C103.678 88.5504 102.938 88.1387 102.444 87.5107L102.447 87.5099C102.258 87.3081 102.361 86.8864 102.692 86.9118L103.066 86.9421C104.136 87.0317 105.121 87.125 106.203 86.826C106.758 86.6725 107.237 86.4167 107.713 86.1069L107.815 86.0397C108.41 85.6428 108.741 85.5868 109.442 85.5877ZM112.003 70.0761C114.686 69.9233 116.976 71.698 118.089 74.0605C119.299 76.6253 118.791 79.5682 117.724 82.0917L117.421 82.798C116.89 84.0216 116.193 85.4768 115.106 86.1334C113.885 86.871 112.829 86.0157 113.189 84.6561C113.404 83.8464 113.985 83.2219 114.455 82.5536C114.893 81.9295 115.302 81.2836 115.661 80.6098C116.364 79.2884 116.889 77.8162 116.883 76.3022C116.873 73.5391 115.052 70.3724 112.003 70.413C111.786 70.4155 111.789 70.0881 112.003 70.0761ZM125.57 65.6175C125.403 65.4903 125.553 65.2073 125.74 65.3267C128.85 67.31 131.173 71.0355 131.641 74.6954C131.9 76.7261 131.702 78.8962 130.839 80.7703C130.344 81.8456 129.495 82.8722 128.308 83.167C127.216 83.4377 126.091 82.8128 125.752 81.7446C125.621 81.3301 125.847 80.8967 126.188 80.6703C127.295 79.9367 128.186 79.011 128.708 77.7657C129.25 76.471 129.466 75.097 129.473 73.7004C129.489 70.4298 128.187 67.611 125.57 65.6175ZM163.569 67.0351C163.425 66.8751 163.606 66.6392 163.797 66.7394C166.046 67.9251 167.475 70.1962 167.884 72.6836C168.285 75.1188 167.745 78.434 165.865 80.1952C164.804 81.1894 162.903 79.8672 163.785 78.5866C164.407 77.6835 165.08 76.9398 165.436 75.8727C165.753 74.9205 165.866 73.9604 165.848 72.9599C165.81 70.777 165.033 68.6625 163.569 67.0351ZM136.074 63.9857C139.916 63.8022 142.245 68.1994 142.778 71.4768C143.108 73.5017 142.86 75.5873 141.745 77.3436L141.679 77.4459C140.759 78.8489 139.086 80.4643 137.283 79.7999C136.52 79.5191 136.317 78.6997 136.83 78.0781C137.614 77.1266 138.826 76.7388 139.563 75.7228C140.391 74.5834 140.662 73.1559 140.614 71.7703L140.607 71.6173C140.479 69.0685 139.267 64.1766 136.074 64.2632C135.895 64.2678 135.897 63.9939 136.074 63.9857ZM148.092 63.2551C151.809 62.7789 154.072 67.1619 154.77 70.1812C155.206 72.0688 155.301 74.1745 154.744 76.0479L154.702 76.1813C154.248 77.5795 152.909 79.9751 151.161 79.2606C150.682 79.0649 150.193 78.5317 150.422 77.9568C150.715 77.2219 151.138 77.0313 151.701 76.561C152.135 76.199 152.438 75.6793 152.661 75.1674C153.255 73.8031 153.387 72.2093 153.306 70.7392L153.295 70.5652C153.085 67.6936 151.532 63.4141 148.092 63.4928C147.935 63.4964 147.946 63.2737 148.092 63.2551ZM154.896 59.1345C156.965 58.3449 158.659 60.3276 159.848 61.7426C161.338 63.5156 162.689 65.4256 163.453 67.6327C164.133 69.5993 164.253 71.786 163.64 73.7879C163.337 74.7791 162.864 75.6983 162.219 76.5073L162.136 76.6094C161.465 77.4301 160.817 77.9344 159.717 77.6406C159.269 77.5207 159.08 77.0771 159.158 76.6532C159.323 75.7473 159.789 75.5121 160.392 74.8797C160.924 74.322 161.319 73.6351 161.584 72.9129C162.132 71.4231 162.16 69.809 161.792 68.2742C161.381 66.556 160.572 64.9693 159.636 63.4825L159.434 63.164C158.442 61.5921 157.028 59.1713 154.936 59.4264C154.757 59.4484 154.754 59.1886 154.896 59.1345Z" fill="black"/>
<path fill-rule="evenodd" clip-rule="evenodd" d="M147.399 121.301C149.907 121.301 150.969 121.709 152.601 122.668C154.233 123.627 155.977 124.863 156.389 126.715C156.774 128.44 156.017 130.122 154.341 130.78C153.403 131.148 142.599 132.011 140.904 132.123C139.209 132.236 137.592 132.097 136.503 130.968C133.691 128.05 137.596 124.267 140.092 122.87C142.32 121.622 144.891 121.301 147.399 121.301ZM146.819 123.268C144.933 123.268 141.842 124.649 141.842 125.321C141.842 125.993 150.85 125.326 151.043 124.751C151.236 124.176 148.706 123.268 146.819 123.268ZM148.271 107.866C149.866 108.836 152.297 111.098 150.581 113.503C148.56 115.624 145.652 113.192 144.218 112.093C142.889 111.241 141.396 113.432 142.629 114.428C152.986 122.099 157.19 108.12 149.078 106.725C148.184 106.572 147.853 107.566 148.271 107.866ZM130.255 99.0738C132.973 97.0668 137.037 98.6115 137.707 101.752C138.173 101.997 138.426 102.386 138.481 102.956L138.495 103.099C138.56 103.776 137.958 104.418 137.356 104.596C136.678 104.797 136.141 104.693 135.512 104.405C134.908 104.129 134.698 103.345 134.808 102.749L134.818 102.7C134.979 101.96 134.345 101.243 133.707 100.95C132.986 100.619 132.178 100.826 131.552 101.264C130.857 101.751 130.278 102.583 130.083 103.412L130.063 103.498C129.909 104.213 129.793 105.556 130.487 105.967C130.61 106.039 130.523 106.206 130.396 106.184C128.888 105.926 127.989 105.018 127.98 103.395C127.971 101.676 128.894 100.079 130.255 99.0738ZM155.277 98.5026C157.991 97.5397 161.385 100.126 160.34 103.114C159.653 105.076 156.998 104.289 157.246 102.323L157.254 102.263C157.412 101.24 156.637 100.758 155.688 101.093C154.28 101.591 153.521 103.803 154.181 105.094C154.262 105.252 154.035 105.386 153.941 105.233L153.851 105.088C153.115 103.915 152.443 103.049 152.685 101.551C152.907 100.17 153.964 98.9684 155.277 98.5026ZM149.774 91.3914C149.767 91.2593 149.906 91.1704 150.024 91.2002C150.989 91.443 151.862 92.1447 152.741 92.5999C153.699 93.0966 154.681 93.498 155.722 93.7922C156.737 94.0787 157.762 94.2216 158.817 94.2127C159.958 94.2032 161.075 93.7748 162.194 93.8101C163.876 93.8632 164.755 96.3106 163.098 97.1518C160.686 98.3761 157.107 97.4866 154.761 96.4687C152.872 95.6493 149.897 93.7131 149.774 91.3914ZM137.518 91.951C138.399 90.8173 140.179 90.7493 140.961 92.085C141.768 93.4651 140.798 94.8488 139.426 95.1344C136.923 96.2539 134.359 97.1107 131.625 97.466L131.254 97.5126C128.875 97.8023 125.872 97.9602 123.721 96.8621C123.511 96.7544 123.574 96.4333 123.785 96.3731C124.997 96.0263 126.355 96.0271 127.602 95.7995C128.788 95.5833 129.964 95.344 131.119 94.9934C133.4 94.3004 135.562 93.31 137.518 91.951Z" fill="black"/>
<path fill-rule="evenodd" clip-rule="evenodd" d="M140.332 125.906C140.332 125.906 142.478 122.417 146.007 122.417C149.537 122.417 153.624 124.254 153.338 125.127C153.185 125.594 149.903 126.912 144.428 126.964C143.07 126.977 140.332 125.906 140.332 125.906Z" stroke="#22252B" stroke-width="1.5"/>
</svg>
