<svg width="240" height="324" viewBox="0 0 240 324" fill="none" xmlns="http://www.w3.org/2000/svg">
<path fill-rule="evenodd" clip-rule="evenodd" d="M192.796 271.458C192.283 266.696 191.967 261.9 191.786 257.114C191.605 252.334 191.842 247.495 191.946 242.713C192.158 232.984 192.502 223.233 191.728 213.52C190.996 204.34 189.316 195.224 186.666 186.403C185.375 182.108 184.014 177.639 181.891 173.67C179.757 169.679 176.375 167.022 172.661 164.584C168.706 161.99 164.783 159.346 160.844 156.727C157.537 154.529 151.586 151.97 148.873 149.032C146.018 145.939 145.481 138.274 143.58 134.611C141.729 131.043 136.488 128.716 132.452 128.716C125.772 128.716 120.711 128.374 115.219 134.555C112.478 137.64 114.659 140.758 111.786 143.718C109.145 146.439 102.392 149.236 98.9879 150.815C94.9113 152.707 90.7318 154.377 86.4917 155.864C82.1664 157.382 77.7321 158.513 73.3825 159.945C69.2134 161.317 63.7694 166.975 60.5328 169.969C57.5237 172.753 56.7769 172.441 54.4893 175.822C49.4687 183.243 44.4427 190.749 40.4446 198.783C38.4532 202.786 36.525 206.996 35.8025 211.44C35.0318 216.181 35.7959 220.762 37.0458 225.352C38.318 230.023 42.3581 234.47 43.6743 239.129C44.2808 241.277 42.1988 243.62 43.1565 245.643C43.6348 246.654 44.2371 247.553 44.9229 248.434C45.4513 249.112 47.5118 248.962 47.7784 249.792C48.0478 250.631 46.557 252.371 46.5349 253.239C46.5034 254.481 46.4539 255.724 46.4132 256.966L46.1723 264.309C46.0141 269.135 45.8558 273.96 45.6976 278.786C45.6458 280.361 45.5704 281.9 45.948 283.395C45.8117 283.268 45.6822 283.131 45.5639 282.976C45.2176 282.524 44.4832 282.907 44.7771 283.436C45.2677 284.319 45.9731 284.941 46.8019 285.387C47.7651 286.808 193.629 289.98 194.347 285.827C194.75 283.497 194.017 281.003 193.724 278.687C193.419 276.276 193.056 273.875 192.796 271.458Z" fill="#D08B5B"/>
<path fill-rule="evenodd" clip-rule="evenodd" d="M40.787 202.146L191.441 210.386C191.549 211.43 191.645 212.474 191.728 213.52C192.502 223.233 192.158 232.985 191.946 242.713C191.918 244.002 191.88 245.296 191.844 246.591L176.982 249.046L71.3287 251.586L44.9229 248.434L43.8269 246.533L43.0676 243.225C43.3935 241.866 44.0502 240.46 43.6743 239.13C43.5647 238.742 43.4363 238.355 43.2921 237.97L43.4284 235.315L40.787 202.146Z" fill="#FDEA6B"/>
<path fill-rule="evenodd" clip-rule="evenodd" d="M44.6257 211.449C44.9825 210.426 46.6148 210.869 46.2554 211.898C44.4081 217.191 45.7186 222.952 47.7157 228.005C48.1165 229.019 46.4813 229.454 46.086 228.454C43.9852 223.139 42.6854 217.008 44.6257 211.449ZM57.0121 241.685C62.222 242.418 67.4361 242.87 72.6818 243.236C72.9164 243.253 73.1192 243.217 73.2945 243.141C73.1382 245.544 73.0114 247.949 72.9121 250.354C71.4818 250.314 70.022 250.409 68.6044 250.371C66.7516 250.32 64.9009 250.227 63.0523 250.086C59.4734 249.815 55.9009 249.384 52.3621 248.788C51.0396 248.566 49.36 248.431 47.8537 247.991C46.4297 247.575 45.1621 246.886 44.4966 245.588C43.9304 244.489 43.8269 243.143 43.8269 241.928C43.8269 241.091 43.9706 240.241 44.0572 239.398C44.1649 239.322 44.2621 239.231 44.3403 239.13C45.9121 239.626 47.5431 239.975 49.1403 240.313C51.741 240.867 54.3797 241.315 57.0121 241.685ZM54.0738 222.143C54.1026 223.758 54.5494 225.225 55.4187 226.585C56.0069 227.506 54.5435 228.353 53.9593 227.439C52.9359 225.837 52.4175 224.04 52.3837 222.143C52.3642 221.052 54.0544 221.056 54.0738 222.143ZM187.622 239.765C188.327 239.805 189.037 239.829 189.745 239.867C190.369 240.401 191.233 240.674 192.022 240.504C192.049 240.573 192.074 240.649 192.097 240.738C192.236 241.281 192.306 241.864 192.386 242.418C192.466 242.963 192.528 243.513 192.57 244.062C192.591 244.339 192.724 244.965 192.555 245.206C192.403 245.423 192.067 245.404 191.835 245.432C191.209 245.499 190.576 245.531 189.946 245.584C188.756 245.687 187.567 245.791 186.38 245.895C185.216 245.996 183.937 245.965 182.799 246.271C182.604 243.986 182.427 241.702 182.262 239.415C184.026 239.675 185.871 239.668 187.622 239.765ZM39.7093 235.976C40.4192 237.348 41.0741 238.696 42.4325 239.52C42.61 239.626 42.8086 239.683 43.0114 239.698C42.8593 240.351 42.7642 241.019 42.6797 241.636C42.4938 242.995 42.4537 244.4 42.7938 245.74C43.1255 247.044 43.6748 248.209 44.7523 249.044C45.253 249.433 45.8002 249.729 46.3748 249.963C46.2776 250.236 46.2206 250.507 46.2502 250.805C46.1128 251.495 46.022 252.199 45.9227 252.873C45.7051 254.37 45.4875 255.868 45.3164 257.373C44.9741 260.366 44.7058 263.358 44.4797 266.362C44.2537 269.357 44.091 272.356 43.9558 275.357C43.8861 276.891 43.8248 278.426 43.7678 279.962C43.7107 281.541 43.4551 283.156 44.1523 284.621C44.7142 285.804 46.6135 285.736 47.1966 284.621C47.9361 283.202 47.7185 281.518 47.7375 279.962C47.7565 278.498 47.7818 277.031 47.8135 275.566C47.8769 272.567 47.9699 269.57 48.0438 266.571C48.1156 263.644 48.2044 260.719 48.2635 257.792C48.2931 256.259 48.2952 254.727 48.3037 253.195C48.3079 252.345 48.3438 251.439 48.2804 250.553C48.8086 250.677 49.341 250.783 49.8671 250.891C53.8833 251.715 57.9417 252.315 62.0255 252.687C64.0769 252.873 66.1347 253.004 68.1924 253.079C69.7051 253.133 71.2727 253.239 72.8086 253.182C72.6882 256.851 72.6333 260.522 72.6396 264.194C72.6438 266.842 72.6797 269.49 72.7452 272.138C72.7811 273.531 72.8107 274.924 72.853 276.316C72.872 276.942 72.872 277.574 72.9142 278.197C72.9269 278.392 72.9544 278.58 72.9903 278.766C72.8509 279.161 72.7347 279.552 72.6396 279.918C72.1748 281.693 72.1748 283.399 72.3818 285.208C72.5593 286.742 73.8502 288.165 75.5551 287.626C75.8318 287.539 76.1086 287.448 76.3833 287.355C78.8931 287.641 81.4178 287.706 83.9635 287.755C87.684 287.827 91.4065 287.85 95.129 287.869C102.43 287.907 109.734 287.926 117.037 287.947C131.714 287.989 146.391 288.029 161.068 288.072C165.141 288.085 169.214 288.095 173.287 288.108C175.396 288.114 177.5 288.116 179.606 288.197C180.589 288.235 181.573 288.287 182.556 288.302C183.695 288.321 184.702 287.993 185.79 287.696C186.405 287.524 186.648 286.907 186.517 286.385C187.502 286.62 188.695 286.121 189.031 285.012C189.276 284.206 189.185 283.333 188.82 282.587V282.585C188.114 278.128 187.218 273.691 186.515 269.232C185.744 264.348 185.002 259.453 184.349 254.55C183.859 250.847 183.456 253.472 183.107 249.752C184.626 249.87 186.344 249.407 187.848 249.211C188.928 249.071 190.016 248.959 191.097 248.811C191.017 249.902 191.04 251.014 191.011 252.06C190.954 254.137 190.979 256.206 191.032 258.284C191.133 262.293 191.359 259.96 191.721 263.952C192.086 267.974 192.534 271.982 193.077 275.985C193.356 278.045 193.654 280.104 193.968 282.16C194.114 283.12 194.264 284.077 194.418 285.037C194.602 286.167 194.661 287.239 195.509 288.089C196.153 288.733 197.469 288.678 197.896 287.78C198.437 286.645 198.192 285.673 197.991 284.481C197.828 283.523 197.672 282.566 197.518 281.609C197.188 279.556 196.876 277.502 196.582 275.446C196.016 271.483 195.481 267.514 195.004 263.54C194.522 259.535 194.023 261.875 193.55 257.87C193.311 255.849 193.073 253.833 192.794 251.819C192.652 250.783 192.564 249.68 192.378 248.613C192.437 248.604 192.496 248.594 192.555 248.583C193.84 248.348 194.936 247.623 195.259 246.3C195.568 245.034 195.2 243.578 194.94 242.336C194.718 241.277 194.518 239.926 193.837 239.019C196.237 235.961 197.798 232.113 198.794 228.413C199.878 224.382 200.332 220.175 200.428 216.01C200.54 211.184 200.176 206.386 199.35 201.668C199.33 200.668 199.284 199.669 199.21 198.671C198.483 188.873 195.433 177.276 185.761 172.698C185.723 172.679 185.683 172.662 185.642 172.645C184.884 171.738 183.937 170.922 183.173 170.16C181.818 168.807 180.403 167.513 178.903 166.321C175.933 163.961 172.675 162.075 169.288 160.378C165.864 158.66 162.388 157.047 159.042 155.172C156.126 153.537 153.502 151.567 151.011 149.343C148.212 146.843 146.22 143.472 145.438 139.793C145.398 139.6 145.113 139.653 145.109 139.837C144.904 146.581 149.454 152.541 154.692 156.312C160.954 160.816 168.515 162.948 174.866 167.315C176.444 168.399 177.921 169.623 179.326 170.922C177.173 170.703 174.982 170.842 172.964 171.438C172.17 171.389 171.371 171.375 170.575 171.337C168.754 171.246 166.93 171.161 165.107 171.081C161.391 170.916 157.673 170.766 153.954 170.635C146.659 170.377 139.362 170.183 132.065 170.054C117.401 169.794 102.718 169.743 88.0558 170.168C84.0797 170.282 63.1727 169.49 61.2375 169.713C64.0833 167.249 67.2058 165.237 70.6389 163.582C74.934 161.517 79.3727 160.139 83.9593 158.88C93.4051 156.286 103.214 153.786 110.773 147.198C112.652 145.56 114.321 143.677 115.687 141.591C116.993 139.6 118.445 137.051 118.48 134.623C118.506 132.899 116.106 132.271 115.252 133.748C114.722 134.663 114.46 135.667 114.027 136.627C113.596 137.578 113.085 138.495 112.516 139.372C111.399 141.097 110.013 142.635 108.504 144.024C105.289 146.987 101.393 149.157 97.3621 150.8C88.21 154.526 78.2002 156.098 69.5276 161.01C65.7333 163.159 62.1016 166.125 59.822 169.908C59.4544 169.965 59.0889 170.033 58.7234 170.109C58.9959 169.764 59.2706 169.42 59.5473 169.077C59.729 168.853 59.448 168.558 59.2262 168.756C54.9142 172.594 50.9424 176.739 47.3424 181.257C43.8987 185.582 40.6875 190.113 38.4142 195.177C34.3283 204.274 33.4283 214.678 35.5389 224.405C36.1135 227.055 36.9248 229.65 37.9579 232.159C38.4903 233.455 39.0671 234.731 39.7093 235.976Z" fill="black"/>
<path fill-rule="evenodd" clip-rule="evenodd" d="M110.107 51.5414C142.061 49.9661 163.742 75.2293 164.675 85.3035C165.322 92.2965 164.883 101.623 164.883 107.872C164.883 111.061 166.488 120.757 164.675 125.406C160.638 135.753 156.078 143.858 143.442 143.858C130.806 143.858 111.542 137.293 104.928 128.824C103.72 127.278 88.7128 115.96 88.7128 107.064C88.7128 88.0838 87.3059 52.6655 110.107 51.5414Z" fill="#D08B5B"/>
<path fill-rule="evenodd" clip-rule="evenodd" d="M88.3074 31.0414C90.1285 30.4708 91.2908 31.2923 92.1199 32.5651C92.3027 32.5294 92.4796 32.5317 92.6765 32.5792C92.7252 32.5911 92.8431 32.6357 92.9322 32.6707C93.0012 32.6997 93.0634 32.7348 93.1232 32.772L93.1589 32.7532C93.2955 32.6037 93.4391 32.4674 93.594 32.3575C93.9423 32.1107 94.3011 32.0388 94.6416 32.0895L94.7993 32.0314C96.1473 31.5605 97.6087 31.7791 98.5226 32.9432C98.6995 33.1681 98.8424 33.4185 98.9645 33.6827C99.2386 33.7727 99.4958 33.9029 99.7173 34.0631C99.8729 33.9898 100.037 33.9281 100.213 33.8826C101.208 33.6269 102.253 33.8683 103.063 34.4795C103.458 34.7769 103.748 35.1492 103.968 35.5745C104.219 35.6335 104.467 35.7396 104.699 35.882C104.898 35.7825 105.101 35.689 105.308 35.625C106.068 35.3912 106.882 35.3052 107.672 35.3642C109.375 35.4908 111.021 37.4404 109.884 39.1147L109.848 39.1653C109.704 39.3672 109.578 39.5758 109.462 39.7878C109.869 39.9655 110.262 40.2033 110.624 40.5013C112.398 41.9586 112.558 44.2052 112.226 46.3245L112.212 46.4127H112.216C113.159 46.5024 113.972 47.4892 113.415 48.4173L113.388 48.4607C112.635 49.628 111.989 50.9175 111.269 52.1458C109.276 52.8659 107.355 53.7527 105.546 54.8272C104.419 55.8168 103.346 56.863 102.402 58.0269C101.931 58.6081 101.498 59.2233 101.101 59.8612C101.419 60.0144 101.812 60.0066 102.144 59.698C105.1 56.9524 108.671 55.0255 112.472 53.7341C112.746 53.6409 112.926 53.4655 113.027 53.258C114.715 52.7759 116.432 52.402 118.167 52.1374C118.645 51.6806 119.146 51.244 119.622 50.7892C120.23 50.2088 120.991 50.2173 121.56 50.5818C121.842 50.4527 122.131 50.3388 122.425 50.2363L122.606 50.1741C122.682 50.1492 122.755 50.1202 122.83 50.0974C124.865 49.4736 126.726 49.7052 128.729 50.2178L128.985 50.2847C129.918 50.5329 130.506 50.4932 131.409 50.2648L131.511 50.2386C132.471 49.9875 133.499 49.8015 134.48 50.0659C135.507 50.3427 136.189 50.9581 136.888 51.7016L136.958 51.7764C137.285 52.1265 137.473 52.1647 137.901 52.1561L138.358 52.1425C140.086 52.0951 141.777 52.1681 143.071 53.5076C143.55 54.0029 144.063 54.704 144.371 55.3438L144.416 55.4393C144.43 55.4704 144.443 55.4964 144.454 55.5196C144.64 55.4896 144.929 55.3719 145.066 55.345C146.949 54.979 148.52 55.5431 149.729 57.0303C149.993 57.3558 150.393 57.9949 150.669 58.3462C150.766 58.4286 150.858 58.517 150.945 58.6098C151.398 58.9004 152.042 58.882 152.551 58.9839C153.938 59.2607 155.42 59.7895 156.125 61.1128C156.42 61.665 156.529 62.2693 156.653 62.8729C157.12 63.18 157.485 63.6226 157.769 64.1017C158.114 64.6833 158.26 65.3958 158.658 65.9451C158.946 66.3441 159.387 66.5572 159.806 66.8011L159.966 66.8954C161.209 67.6372 162.182 68.4604 162.591 69.9138L162.627 70.0431C162.693 70.2658 162.926 70.9012 162.723 70.8057C162.898 70.9023 163.195 70.9363 163.354 70.9892C164.216 71.2751 164.965 71.7372 165.425 72.5485C165.774 73.1661 165.837 73.8098 165.938 74.4906L165.98 74.7654C165.991 74.8319 166.004 74.9091 166.017 74.984L166.031 75.0577L166.033 75.0594C166.19 75.127 166.343 75.2003 166.494 75.2794C167.208 75.701 167.697 76.4329 167.697 77.2802C167.697 77.6915 167.568 78.0119 167.382 78.2979C167.533 78.527 167.65 78.7711 167.738 79.0431C167.911 79.5742 167.923 80.155 167.865 80.7045C167.795 81.3639 167.626 81.9644 167.427 82.5942C167.351 82.8373 167.32 83.1769 167.205 83.409C167.417 83.681 167.544 84.0134 167.505 84.3414C167.449 84.8106 167.235 85.3591 166.811 85.6222C166.604 86.6473 166.158 87.6947 165.719 88.5327C165.668 88.63 165.607 88.7166 165.539 88.7885C165.6 92.1342 165.356 95.5033 165.339 98.8445C165.32 102.482 165.396 106.122 165.522 109.754C165.735 115.776 166.496 122.002 164.723 127.874C163.273 132.68 160.368 136.805 156.472 139.933C152.483 143.133 147.674 144.985 142.568 145.274C139.971 145.42 137.329 145.124 134.816 144.45L134.548 144.377C132.116 143.707 129.3 142.684 127.511 140.893C126.567 139.946 127.522 137.94 128.907 138.492C130.279 139.039 131.511 139.849 132.872 140.419C134.089 140.929 135.358 141.32 136.644 141.607C139.222 142.188 141.957 142.315 144.577 141.954C154.039 140.656 161.411 132.779 162.866 123.439C163.269 120.853 163.261 118.224 163.234 115.61L163.204 112.747C163.181 110.351 163.173 107.954 163.26 105.559C163.372 102.478 163.589 99.3983 163.88 96.3297L164.032 94.7329C164.212 92.8646 164.414 90.9821 164.763 89.1393C164.477 89.1543 162.22 85.2832 160.967 83.1201C160.51 82.7565 160.124 82.3049 159.975 81.7205C159.944 81.5985 159.928 81.4755 159.918 81.3523C159.646 80.9239 159.359 80.5065 159.057 80.1016L158.991 80.0719C158.94 80.0487 158.9 80.0293 158.877 80.0162C158.216 79.6406 157.665 79.0716 157.287 78.4122C157.16 78.1899 157.055 77.9578 156.971 77.7205C156.432 77.1906 155.868 76.6851 155.276 76.211C155.218 76.1645 155.158 76.121 155.1 76.0751C154.346 75.7932 153.684 75.3684 153.202 74.7565C153 74.6314 152.797 74.5088 152.593 74.3888C151.978 74.383 151.358 74.2395 150.754 73.9908C149.649 73.536 148.767 72.6371 147.657 72.2205C146.484 71.7803 145.247 72.7808 144 72.6003C143.682 72.5542 143.366 72.4572 143.073 72.3165C142.37 73.0621 141.625 73.7651 140.804 74.3803C139.611 75.2735 138.392 75.6816 137.009 76.0851C136.324 76.7366 135.557 77.3684 134.632 77.4612C132.492 79.1765 130.203 80.6234 127.794 81.9667C127.406 82.1827 127.021 82.2802 126.656 82.2827C125.9 82.7582 125.075 83.1241 124.204 83.3773C123.931 83.4565 123.649 83.4732 123.373 83.4392L122.617 84.0566C122.09 84.486 121.529 84.6912 120.992 84.7046C120.665 84.9554 120.327 85.1928 119.978 85.421C119.605 85.666 119.121 85.7674 118.634 85.7378C117.891 86.4666 116.927 86.5431 116.12 86.2075C116.009 86.2726 115.895 86.3343 115.767 86.3949C115.593 86.4776 115.411 86.5473 115.226 86.6037C114.384 87.513 113.153 87.9898 111.918 87.8651C110.997 88.4311 109.924 88.7255 108.875 88.6593C108.715 89.465 108.582 90.2736 108.47 91.085L108.459 91.6794C108.458 91.7757 108.458 91.8508 108.459 91.9002L108.459 91.9198C108.562 94.5256 108.618 97.1326 108.72 99.7387L108.729 99.9444C108.844 102.221 109.403 106.373 106.065 106.282C104.821 106.248 103.586 105.33 102.618 104.575L102.481 104.468C102.407 104.41 102.331 104.351 102.254 104.291C101.53 104.196 100.817 104.02 100.085 103.993C99.1831 103.961 98.2344 104.054 97.3553 104.259C95.8036 104.621 94.3026 105.329 93.2906 106.612C93.2021 106.724 93.1199 106.842 93.0419 106.96C92.9702 107.203 92.8479 107.427 92.6856 107.622C91.7284 109.78 92.281 112.631 93.3391 114.605C94.5999 116.956 96.595 118.582 99.1036 119.4L99.2295 119.441C100.943 119.977 101.599 121.017 102.531 122.463C103.404 123.82 104.405 125.084 105.48 126.284C107.561 128.607 110.481 130.524 111.691 133.464C111.936 134.056 111.236 134.613 110.694 134.461C108.571 133.863 107.083 132.348 105.539 130.841C104.471 129.797 103.444 128.712 102.481 127.572C102.278 127.665 102.056 127.728 101.824 127.757C100.802 127.882 99.7473 127.83 98.8521 127.277C98.4395 127.315 98.0097 127.171 97.6905 126.878C97.3977 126.609 97.1451 126.317 96.9317 126.006C96.6075 126.035 96.2892 126.044 95.9854 125.993C95.8388 125.979 95.697 125.941 95.5669 125.877C95.3253 125.782 95.0961 125.634 94.8857 125.408C94.4594 124.949 94.296 124.301 94.3747 123.685C94.2904 123.667 94.2067 123.646 94.124 123.618C93.5565 123.425 93.1197 123.043 92.8405 122.522C92.3411 122.241 91.8914 121.861 91.5509 121.456C91.1362 120.964 90.8234 120.409 90.6396 119.796C90.4496 119.708 90.2651 119.605 90.0885 119.485C88.8225 118.626 88.0977 117.014 88.5948 115.524L88.6117 115.477C88.6369 115.41 88.6826 115.295 88.7386 115.166C88.7306 115.061 88.7221 114.956 88.7164 114.851L88.6989 114.533L88.4453 114.425C87.1804 113.921 86.3253 113.24 86.1733 111.814C86.1417 111.519 86.2559 111.218 86.4362 110.966L86.4353 110.887C86.3531 110.844 86.2749 110.801 86.206 110.757C85.5164 110.315 85.0926 109.524 85.1401 108.705C85.1836 107.96 85.5958 107.365 86.0593 106.815L86.1917 106.661C86.2026 106.648 86.2149 106.634 86.2281 106.619L85.9217 106.523C85.723 106.459 85.5409 106.396 85.4099 106.323C84.9031 106.038 84.4734 105.653 84.2084 105.164C84.1699 105.103 84.1306 105.044 84.0952 104.979C83.7531 104.353 83.7084 103.551 83.9291 102.879C83.9552 102.8 83.989 102.726 84.0235 102.651C83.0917 102.322 82.3743 101.642 82.2878 100.387C82.2539 99.8941 82.3616 99.4027 82.5959 98.9819C82.544 98.6985 82.5332 98.4047 82.5668 98.1141C82.2389 97.8036 81.9843 97.4295 81.8704 96.9732C81.6552 96.1111 82.0492 95.2909 82.6349 94.5387C82.4181 93.9439 82.407 93.2729 82.6545 92.6741C82.5592 92.3753 82.505 92.0593 82.502 91.7349C82.4955 91.0165 82.7162 90.4165 83.0727 89.9061C82.5716 89.2919 82.3336 88.4757 82.6296 87.7108C82.8402 87.1672 83.081 86.6699 83.3584 86.2092C83.2127 85.8587 83.128 85.4663 83.128 85.0269C83.128 84.2364 83.4235 83.6102 83.8758 83.0977C83.6795 82.1616 84.0786 81.0216 84.9484 80.6094C85.2762 80.4539 85.7152 80.2916 86.1988 80.1652C86.3803 79.5966 86.5698 79.0304 86.7699 78.4682C87.0851 77.5833 87.4241 76.7107 87.7833 75.8481C87.5765 76.0297 87.3596 76.199 87.1353 76.3524C86.4259 77.2566 85.4854 78.0398 84.695 78.5084C83.1282 79.4375 81.3362 78.8863 80.5627 77.3318C79.8358 77.8758 78.9634 78.1979 78.0326 78.0878C76.9772 77.9629 76.0123 77.2777 75.7488 76.2089C75.7106 76.0542 75.6876 75.887 75.6853 75.7188C75.0801 76.1508 74.4467 76.5483 73.7521 76.776C72.8673 77.0659 71.9641 76.3704 71.8473 75.5038C71.8011 75.1604 71.8652 74.8569 72.0016 74.6005L71.9152 74.5664C71.9009 74.5604 71.8866 74.5542 71.8724 74.5475C71.4084 74.3296 71.0481 73.9301 70.8769 73.4694C69.8721 73.8591 68.7219 73.4024 68.4031 72.2947C68.0236 70.978 68.0007 69.6444 68.2977 68.3617C67.2331 67.586 66.5394 66.282 66.4214 64.9188C66.3352 63.9402 66.5681 63.0369 66.9786 62.2017C65.9717 61.8242 65.6255 60.5011 66.1041 59.5479C65.4685 59.1832 65.054 58.4098 65.0447 57.657C64.7607 57.2258 64.6699 56.6706 64.9054 56.0484C65.2159 55.2286 65.8484 54.5428 66.5725 54.0049C66.2567 53.4537 66.0221 52.8526 65.8764 52.2314C65.2764 52.0554 64.7922 51.5688 64.6935 50.8382C64.57 49.9222 65.1714 49.1457 65.981 48.9407C66.0708 48.6617 66.1804 48.3889 66.316 48.1268C65.9154 47.1757 65.9744 45.9731 66.491 44.9333C66.9484 44.0139 67.6926 43.4517 68.5886 43.0628C68.3609 42.2808 68.6624 41.501 69.4214 40.9197C70.3479 40.2094 71.3641 39.6664 72.4319 39.2828C72.337 38.0099 72.8679 36.7063 74.1225 36.2624C74.4579 36.1439 74.807 36.1001 75.1619 36.1016C75.4195 35.54 75.8493 35.0835 76.4103 34.6794C77.2593 34.0682 78.8457 34.4416 79.3165 35.4001L79.3395 35.4494C79.3635 35.5037 79.3895 35.5534 79.4141 35.606C79.509 35.1406 79.7308 34.701 80.0873 34.3406C80.9784 33.4396 81.9193 33.4227 82.8248 33.808C82.9909 33.395 83.1921 33.0024 83.4366 32.6433C84.3244 31.3405 85.7911 31.1746 86.865 31.8801C87.2955 31.5007 87.776 31.2082 88.3074 31.0414ZM94.6548 109.382C96.4424 108.681 98.6117 108.888 100.378 109.562L100.508 109.613C102.068 110.231 104.603 111.607 104.909 113.366C105.067 114.278 104.203 115.066 103.326 114.586C102.563 114.17 102.135 113.33 101.527 112.722C100.927 112.12 100.254 111.636 99.5206 111.211C97.99 110.325 96.3812 109.981 94.6548 109.725C94.4608 109.698 94.5136 109.437 94.6548 109.382Z" fill="black"/>
<path fill-rule="evenodd" clip-rule="evenodd" d="M149.372 128.003C148.022 128.014 146.504 127.507 145.489 127.11L145.224 127.005C144.346 126.653 143.443 126.249 142.77 125.571C142.555 125.351 142.326 125.101 142.21 124.839C142.141 124.685 142.113 124.526 142.179 124.368C142.422 124.344 142.653 124.313 142.871 124.273C142.975 124.254 143.075 124.235 143.151 124.234C143.433 124.232 143.712 124.268 143.99 124.303C144.03 124.308 144.07 124.313 144.111 124.318C144.327 124.345 144.543 124.374 144.758 124.403C145.384 124.487 146.007 124.571 146.642 124.601C147.101 124.623 147.582 124.597 148.067 124.571C149.325 124.502 150.626 124.409 151.595 125.291C151.849 125.521 151.955 125.812 151.955 126.109C151.955 126.469 151.804 126.835 151.573 127.123C151.05 127.774 150.244 127.996 149.372 128.003ZM156.736 116.649C156.148 117.531 155.17 118.098 153.828 118.036C151.163 117.915 147.982 116.909 145.749 115.454C145.168 115.075 144.791 114.47 144.723 113.821L144.603 112.667L143.953 113.628C143.885 113.728 143.817 113.828 143.749 113.928C143.561 114.203 143.373 114.478 143.195 114.76C142.514 115.842 141.89 116.936 141.323 118.082C140.921 118.894 140.628 119.803 140.334 120.719C139.837 122.266 139.357 123.787 138.295 124.874C138.135 125.039 137.888 125.098 137.662 125.069C137.463 125.043 137.268 124.945 137.173 124.751C135.904 122.171 137.61 119.062 138.994 116.9L139.141 116.674C140.424 114.721 142.519 112.136 144.919 111.785L145.194 112.223L145.593 111.957C146.247 111.521 147.109 111.541 147.864 111.882L148.619 112.223C150.025 112.854 151.411 113.436 152.932 113.755C153.043 113.778 153.154 113.8 153.264 113.82C153.369 113.839 153.474 113.857 153.579 113.873C153.556 113.77 153.532 113.666 153.508 113.564C153.482 113.455 153.456 113.345 153.428 113.237C153.4 113.124 153.369 113.012 153.338 112.901C153.216 112.457 153.079 112.018 152.916 111.587C152.302 109.968 151.321 108.454 150.367 107.01L150.255 106.84C150.118 106.633 149.968 106.418 149.814 106.194C149.07 105.123 148.245 103.96 148.186 102.792C149.174 102.854 150 103.468 150.727 104.002C151.725 104.735 152.65 105.573 153.49 106.484C155.117 108.25 156.578 110.508 157.219 112.842C157.585 114.178 157.424 115.616 156.736 116.649ZM130.694 103.334L130.694 103.287C130.696 101.939 131.481 98.8618 133.421 98.8618C134.632 98.8618 135.368 100.956 135.495 103.115L135.5 103.203C135.556 104.545 135.188 107.479 133.421 107.479C131.635 107.479 130.712 104.7 130.694 103.334ZM159.248 102.912L159.248 102.864C159.245 101.516 158.46 98.4391 156.521 98.4391C155.34 98.4391 154.611 100.43 154.457 102.53L154.446 102.692C154.37 103.989 154.714 107.056 156.521 107.056C158.307 107.056 159.229 104.277 159.248 102.912ZM137.226 94.2133C136.969 94.2434 136.713 94.2829 136.457 94.3236C135.711 94.4424 134.97 94.5851 134.233 94.7514C132.834 95.0674 131.446 95.4663 130.085 95.9172C128.811 96.3393 127.556 96.8162 126.303 97.2932C126.236 97.3186 126.169 97.3441 126.102 97.3695C125.659 97.5379 125.218 97.7266 124.775 97.9159C124.102 98.204 123.425 98.494 122.735 98.7126C124.554 96.1963 127.357 94.3318 130.054 92.9975C131.593 92.2363 133.226 91.6225 134.868 91.1195L135.783 90.8445C137.13 90.447 138.602 90.0799 139.867 90.8724C140.368 91.1859 140.687 91.6732 140.788 92.2C140.886 92.7166 140.774 93.2705 140.417 93.7327C140.106 94.1354 139.719 94.3648 139.307 94.4434C138.852 94.5301 138.37 94.4349 137.932 94.2004C137.58 94.1743 137.477 94.1837 137.373 94.1953L137.226 94.2133ZM157.486 94.4693C156.584 94.2733 155.692 94.1946 154.767 94.2228C154.349 94.2354 153.944 94.3 153.541 94.365C152.914 94.4661 152.29 94.5704 151.615 94.4478C151.262 94.3838 150.962 94.1777 150.731 93.9087C150.46 93.5941 150.28 93.1921 150.223 92.8099C150.164 92.415 150.223 92.0697 150.369 91.7648C150.541 91.4046 150.832 91.101 151.183 90.835C152.246 90.0301 154.07 90.2237 155.324 90.3864C156.564 90.5476 157.796 90.9322 158.892 91.5429C159.973 92.1457 160.913 92.9578 161.646 93.9504C162.265 94.787 162.556 95.7499 162.856 96.7303C161.442 95.5433 159.277 94.8584 157.486 94.4693Z" fill="black"/>
</svg>
