<svg width="259" height="324" viewBox="0 0 259 324" fill="none" xmlns="http://www.w3.org/2000/svg">
<path fill-rule="evenodd" clip-rule="evenodd" d="M245.861 194.94C248.025 193.81 250.138 192.582 252.217 191.304C253.682 190.428 252.385 188.22 250.883 189.018C250.115 189.426 249.35 189.838 248.583 190.244C249.187 189.723 249.747 189.156 250.249 188.538L250.215 188.504C252.151 186.769 249.664 183.494 247.462 184.92C245.52 186.328 243.561 187.765 241.332 188.692C236.715 190.65 231.623 190.974 226.668 191.031C224.855 190.894 223.123 191.209 221.363 191.559C222.053 188.791 223.779 186.7 224.695 184.019C225.371 181.312 221.465 179.468 220.08 182.07C219.741 182.709 219.417 183.355 219.1 184.005C216.108 186.727 211.112 186.488 208.095 189.411C206.376 190.937 205.535 193.008 205.202 195.086C204.977 196.497 205.327 197.912 204.474 199.162C200.351 204.997 193.835 214.22 190.526 220.641C188.183 205.382 181.927 186.508 175.464 172.556C173.327 168.094 170.882 163.733 167.672 159.951C168.036 158.69 166.752 156.451 165.935 157.14C163.422 154.068 158.979 153.273 155.407 151.746C150.584 149.683 146.583 145.395 144.616 140.521C142.089 131.241 135.867 130.062 127.239 130.472C118.982 130.462 112.873 133.995 111.071 142.403C107.411 148.786 98.7691 147.73 92.5517 149.42C87.995 150.461 83.573 152.071 79.3705 154.115C74.6953 149.679 57.9513 168.297 56.4293 173.089C57.3253 173.263 58.2158 173.472 59.0983 173.727C59.8842 173.954 59.5542 175.142 58.7615 174.952C57.7751 174.715 56.7824 174.552 55.785 174.438C55.7545 174.534 55.7279 174.629 55.7081 174.722C55.5961 174.715 55.4843 174.705 55.3724 174.698C55.6206 174.827 55.8595 174.977 56.0924 175.17C56.6552 175.638 55.9225 176.54 55.3244 176.168C54.761 175.746 54.023 175.813 53.3472 175.671C53.307 177.061 48.3479 175.506 47.5776 175.045C44.1541 174.617 40.632 175.076 37.436 173.425C33.1833 172.529 28.8988 171.538 24.694 170.397C23.5808 170.831 22.5346 172.385 23.4188 173.525C23.9161 174.043 23.2768 174.89 22.6506 174.522C20.5504 173.285 18.9262 171.355 17.5491 169.275C16.901 168.621 15.7504 168.761 14.8795 168.49C14.7631 168.699 14.6945 168.932 14.6955 169.172C11.0015 169.78 13.6367 173.816 15.4937 175.074C14.5086 175.715 14.4712 176.972 14.5574 178.021C14.3486 178.395 14.2789 178.858 14.4606 179.277C15.1553 180.879 16.6576 182.227 17.7999 183.525C19.0612 184.957 20.1857 186.398 21.7204 187.56C27.57 192.02 34.6291 194.514 41.8709 195.49C44.4422 195.885 48.1409 196.489 49.733 198.664C49.3424 201.246 48.6251 203.722 47.9744 206.239C47.0645 209.58 47.1264 213.078 47.1143 216.485C46.9871 216.383 46.7429 216.404 46.7066 216.599C46.4949 218.011 46.3375 219.455 45.4795 220.641C44.7274 222.848 44.2269 225.201 43.9457 227.519C42.8193 238.508 42.5503 249.821 45.0902 260.639C46.0703 264.653 47.6643 268.467 49.8361 271.979C50.4836 273.026 51.5248 273.333 52.4596 273.128C55.5885 274.754 59.5301 275.275 62.9026 274.862C74.4 271.606 70.3939 279.446 86.5143 277.045C114.34 273.499 142.46 280.468 170.227 276.377C170.91 281.661 179.863 280.145 182.972 277.911C192.296 270.977 196.926 249.023 201.605 237.885C204.822 229.107 210.208 213.56 217.262 207.669C219.377 206.014 221.933 205.143 224.491 204.44C234.038 201.979 243.622 199.651 253.186 197.259C254.809 196.859 254.517 194.092 252.783 194.269C250.481 194.505 248.171 194.718 245.861 194.94Z" fill="#D08B5B"/>
<path fill-rule="evenodd" clip-rule="evenodd" d="M33.3369 193.294C32.6904 193.214 32.0566 192.984 31.4271 192.802C30.4658 192.521 29.5235 192.193 28.5961 191.819C26.682 191.052 24.825 190.145 23.0841 189.036C20.2721 187.241 17.7876 184.942 15.9137 182.173L15.785 181.98C14.7152 180.35 12.7418 176.73 14.9545 175.492C13.5284 174.3 12.1805 172.159 12.2566 170.507C12.3643 168.169 15.2291 168.201 16.7101 169.192C17.6798 169.841 18.4066 170.75 19.1355 171.644C19.9425 172.637 20.8045 173.584 21.7002 174.495C21.9379 174.736 22.178 174.972 22.4222 175.204L22.6678 175.435C22.6298 175.344 22.596 175.251 22.5664 175.156C22.0721 173.616 22.6615 171.61 24.2017 170.904C25.1442 170.472 26.123 170.736 27.0363 171.103L27.1763 171.16C28.4059 171.669 29.6502 172.119 30.9305 172.481C36.1488 173.954 41.5953 174.199 46.9425 174.934C49.0024 175.22 51.1002 175.579 53.1495 176.107C53.9312 172.787 55.8474 169.604 57.9263 166.986C67.8812 154.459 84.2988 150.319 99.3178 147.639C100.687 147.396 101.821 149.209 102.618 148.78C104.128 147.968 105.457 146.819 106.624 145.569C109.11 142.904 110.874 139.77 112.947 136.801C113.971 135.334 116.329 136.646 115.378 138.221L114.913 138.99C112.995 142.142 110.872 145.391 108.121 147.835C106.659 149.133 105.037 150.158 103.182 150.798C101.777 151.282 99.8059 151.69 98.2679 151.221L98.0833 150.952C98.1444 151.042 98.2059 151.131 98.2678 151.221C102.282 157.039 107.319 161.964 112.626 166.611C117.982 171.3 123.761 175.498 129.575 179.604L130.059 179.945C139.53 173.035 147.531 164.02 153.144 153.721C151.968 153.58 150.804 152.825 149.798 152.263C148.588 151.583 147.449 150.771 146.562 149.689C144.628 147.332 144.88 144.295 144.531 141.435C144.51 141.258 144.745 141.213 144.852 141.302C145.9 142.173 146.268 143.6 146.705 144.832C147.187 146.187 147.732 147.303 148.837 148.256C149.866 149.144 151.121 149.796 152.34 150.378C152.968 150.676 156.089 151.442 156.445 152.077C161.836 150.811 167.088 152.998 171.083 156.689C174.943 160.254 177.776 164.889 180.278 169.465C182.946 174.347 185.133 179.436 187.017 184.667C188.927 189.976 190.391 195.402 191.196 200.99C191.875 205.701 192.292 210.486 192.562 215.25L192.595 215.846C196.583 209.583 200.671 203.386 204.844 197.245C203.895 194.71 204.945 192.124 206.722 190.166C208.691 188 211.414 186.994 214.019 185.823L214.362 185.668C215.617 185.095 216.869 184.464 217.953 183.606C218.997 182.778 219.764 181.636 220.862 180.873C222.459 179.762 225.358 179.998 225.432 182.427C225.47 183.761 224.897 185.223 224.373 186.421C223.78 187.776 222.979 189.004 222.028 190.133C221.984 190.185 221.936 190.227 221.888 190.26L221.851 190.283C223.165 190.5 224.49 190.676 225.84 190.737C228.563 190.862 231.316 190.661 233.982 190.086C236.711 189.499 239.357 188.543 241.812 187.212C243.909 186.075 245.853 184.604 248.236 184.257C248.456 184.223 248.678 184.202 248.906 184.189C249.286 184.168 249.666 184.616 249.516 184.992C249.434 185.2 249.347 185.405 249.252 185.612C248.428 187.427 247.165 189.188 245.588 190.525L245.466 190.627C246.022 190.435 246.569 190.219 247.108 189.976C250.275 188.55 253.148 186.394 256.543 185.527C256.704 185.485 256.866 185.447 257.029 185.411C258.079 185.185 258.633 186.326 258.016 187.108C257.916 187.235 257.817 187.36 257.714 187.484C256.199 189.365 254.528 191.111 252.685 192.679C252.054 193.216 251.403 193.736 250.74 194.233C250.46 194.443 250.179 194.649 249.895 194.852L249.755 194.951C250.087 194.717 250.414 194.478 250.74 194.233C252.819 193.603 254.868 192.857 256.873 192.031C257.669 191.703 258.288 192.51 258.373 193.174C258.656 195.397 256.188 197.006 254.583 198.075C252.973 199.149 251.2 199.965 249.385 200.62C245.896 201.881 242.231 202.454 238.572 202.967L236.795 203.215C229.76 204.199 222.413 205.376 217.366 210.851C214.537 213.92 212.623 217.733 210.871 221.484C209.122 225.232 207.586 229.078 206.128 232.946C204.618 236.949 203.302 241.026 201.903 245.069C200.619 248.781 199.084 252.446 197.565 256.074L197.325 256.647C194.099 264.357 190.245 271.619 184.875 278.056C183.99 279.119 182.559 277.611 183.377 276.558C188.995 269.313 192.903 260.764 196.129 252.236C197.597 248.356 198.827 244.382 200.238 240.48L201.078 238.163C202.199 235.073 203.33 231.987 204.51 228.922C206.004 225.043 207.645 221.212 209.523 217.505L209.723 217.114C211.562 213.538 213.746 210.013 216.753 207.307C222.165 202.433 229.367 201.264 236.33 200.338L238.52 200.049C241.464 199.658 244.416 199.226 247.279 198.439C248.931 197.987 250.545 197.407 252.062 196.608C252.666 196.291 253.256 195.943 253.826 195.562C252.2 196.04 250.55 196.431 248.87 196.737C248.048 196.887 247.235 197 246.423 197.078C244.334 197.285 242.262 197.276 240.121 197.164C239.94 197.154 239.881 196.868 240.075 196.833C241.565 196.567 243.057 196.236 244.543 195.876L244.989 195.767C244.997 195.52 245.095 195.258 245.297 195.009C246.037 194.108 247.442 193.647 248.416 193.011C249.436 192.345 250.425 191.627 251.367 190.857C252.229 190.154 253.057 189.41 253.854 188.632L254.093 188.397C254.013 188.476 253.934 188.554 253.854 188.632C251.703 189.626 249.664 190.9 247.419 191.686C245.633 192.314 243.762 192.736 241.873 192.887L241.756 192.896L241.638 192.903C239.667 193.045 237.683 192.988 235.742 193.415C235.524 193.464 235.457 193.172 235.651 193.089C237.347 192.384 239.112 192.111 240.895 191.781C240.933 191.642 241.03 191.517 241.199 191.437L241.655 191.219C243.014 190.566 244.28 189.907 245.409 188.848C246.407 187.911 247.237 186.817 247.86 185.603C245.365 186.151 243.174 188.042 240.905 189.105C238.433 190.266 235.818 191.098 233.13 191.572L232.824 191.625C227.802 192.463 221.763 192.356 217.264 189.744C217.121 189.659 217.224 189.467 217.372 189.49C218.648 189.699 219.911 189.947 221.175 190.166C220.928 189.94 220.818 189.534 221.103 189.209C222.238 187.908 223.135 186.421 223.709 184.794L223.818 184.476C224.083 183.722 224.529 182.55 224.073 181.869C223.638 181.22 222.614 181.309 222.001 181.583C220.727 182.158 219.88 183.594 218.807 184.46C217.636 185.407 216.305 186.109 214.942 186.736L214.655 186.867C212.298 187.928 209.779 188.82 207.926 190.693C206.929 191.699 206.071 192.956 205.784 194.366C205.653 195.013 205.653 195.678 205.826 196.319C205.964 196.82 206.251 197.129 206.086 197.638C205.871 198.295 205.108 199.081 204.715 199.667C204.259 200.343 203.804 201.021 203.35 201.7C202.444 203.057 201.542 204.418 200.64 205.777C198.835 208.499 197.05 211.234 195.28 213.977C194.704 214.87 194.13 215.765 193.557 216.66L192.7 218.003L192.247 218.712L191.475 219.927C191.502 220.039 191.5 220.157 191.464 220.26C191.333 220.636 191.086 220.892 190.78 221.078L190.725 221.11C186.216 228.239 181.78 235.414 177.299 242.56C177.06 244.741 176.836 246.924 176.642 249.108C176.2 254.049 175.898 259.003 175.801 263.964C175.754 266.365 175.947 268.78 176.05 271.179C176.101 272.324 176.17 273.467 176.261 274.611L176.328 275.421C176.417 276.534 176.467 277.64 176.067 278.701C175.712 279.633 174.63 279.842 173.99 279.132C165.639 278.796 157.281 278.54 148.923 278.382C133.964 278.095 118.997 278.139 104.035 278.428C96.5207 278.574 89.0038 278.779 81.4911 279.033C77.7897 279.155 74.0862 279.329 70.3826 279.38C68.3873 279.407 65.2469 278.68 65.0859 276.434L65.0819 276.366C64.8326 276.433 64.5749 276.488 64.3108 276.528C64.1932 276.546 64.0803 276.541 63.976 276.517L63.9242 276.503C60.9498 277.41 57.1874 276.116 54.3611 275.362L54.1277 275.3C51.4299 274.597 49.2623 273.591 47.4939 271.354C44.3989 267.438 43.3425 262.18 42.7932 257.333C42.2778 252.773 42.2482 248.127 42.8756 243.575C42.5059 239.866 42.8672 236.038 43.2876 232.35C43.4946 230.526 43.7376 228.704 44.0291 226.891C44.1918 225.878 44.4052 224.876 44.6228 223.877C44.7097 223.477 44.782 223.047 44.8921 222.632L44.9418 222.454C44.6038 222.499 44.234 222.425 43.877 222.228C43.0277 221.761 42.7805 220.816 42.7657 219.912C42.7193 217.185 43.0446 214.381 43.3319 211.671C43.6214 208.966 44.0186 206.25 44.5383 203.579L44.6728 202.89C45.0666 200.892 45.5172 198.829 46.3108 196.951C43.3299 196.444 40.3573 195.905 37.4651 194.987C36.0538 194.537 34.6637 193.977 33.3369 193.294ZM188.927 221.668C188.881 221.679 188.836 221.691 188.792 221.704C187.6 222.038 186.396 222.321 185.196 222.626C183.121 223.148 181.093 223.731 179.164 224.638C178.76 229.74 178.161 234.825 177.592 239.913L177.478 240.931C178.353 239.307 179.249 237.697 180.185 236.106C183.035 231.255 185.95 226.443 188.927 221.668ZM45.6686 222.173C45.6749 222.78 45.5482 223.41 45.4805 223.993C45.3707 224.94 45.282 225.891 45.17 226.838C44.9418 228.74 44.7475 230.644 44.6059 232.555C44.5151 233.774 44.4559 234.998 44.4031 236.222C45.601 231.743 47.1876 227.362 48.6961 222.974C48.4439 222.948 48.1862 222.886 47.9203 222.815L47.4727 222.695C47.2087 222.627 46.3526 222.416 45.6686 222.173ZM192.7 218.003L192.709 218.204C192.74 218.916 192.314 219.318 191.796 219.422C192.096 218.948 192.398 218.475 192.7 218.003ZM55.6298 184.247C56.8911 184.358 58.127 184.627 59.3059 185.092L59.4196 185.136C60.2916 185.473 61.5664 185.896 61.8517 186.827C61.9319 187.091 61.7164 187.309 61.4693 187.33C60.5228 187.406 59.4073 186.392 58.5305 186.049C57.5545 185.669 56.5319 185.386 55.4967 185.236C53.1707 184.895 50.7453 185.153 48.5566 186.001C48.4277 186.052 48.3474 185.846 48.4636 185.785C50.6693 184.585 53.1221 184.025 55.6298 184.247ZM28.9024 190.291C28.7566 190.162 28.6108 190.027 28.4671 189.892C27.3344 188.82 26.3314 187.569 25.5887 186.194L25.3932 185.822C24.7884 184.65 24.0456 182.981 25.4671 182.137C26.3164 181.632 27.339 181.759 28.2854 182.065C28.3467 182.084 28.408 182.106 28.4692 182.127C28.8918 182.275 29.2995 182.452 29.6629 182.621C31.2411 183.346 32.6333 184.401 34.0911 185.331C35.6706 186.339 37.2302 186.984 39.0532 187.361L39.2249 187.396C40.9361 187.734 42.7911 187.951 43.9847 189.359C44.2847 189.714 44.0101 190.38 43.4925 190.204C40.1925 189.091 36.7002 188.845 33.6706 187.017C32.4157 186.261 31.2284 185.392 29.946 184.676C29.2657 184.295 28.5633 183.962 27.8149 183.734L27.4059 183.613C27.1664 183.543 26.8805 183.474 26.6883 183.543C26.3223 183.67 26.4391 183.866 26.5523 184.208L26.5636 184.242C27.453 186.994 29.9883 189.298 32.3375 190.822C32.8763 191.172 33.4277 191.494 33.9897 191.792C37.7936 193.82 42.05 194.764 46.2304 195.885C46.2304 195.885 48.6475 196.56 49.4482 196.813C50.3397 196.739 51.3559 197.054 52.0277 197.431C52.6806 197.796 53.2066 198.287 53.6038 198.864C53.6038 198.864 53.9862 199.183 54.0559 199.677C54.2566 200.136 54.3918 200.63 54.4594 201.146C54.4975 201.448 54.4214 201.681 54.2777 201.846C54.7099 208.48 52.9184 215.078 50.8987 221.383L50.6986 222.005L50.57 222.399C48.3918 229.084 45.8925 235.721 44.777 242.691C44.0313 247.347 44.0545 252.166 44.6017 256.843L44.6403 257.166C45.1794 261.588 46.2167 266.549 49.0277 270.108C50.4615 271.924 52.1603 272.731 54.3321 273.316L54.451 273.348C56.4158 273.865 58.4439 274.599 60.47 274.821C62.3503 275.026 63.9263 274.326 65.6186 273.671L65.6207 273.669C69.1848 270.513 70.8031 265.919 71.9989 261.281C75.0981 249.281 74.7136 236.824 72.9559 224.648C72.039 218.287 70.7925 211.98 69.5503 205.675C68.9291 202.524 68.2594 199.379 67.7038 196.217L67.3738 194.357C67.1917 193.323 67.0156 192.288 66.8651 191.249C66.6622 189.852 66.601 188.478 66.5312 187.072C64.8242 184.242 62.346 181.911 59.4749 180.239C57.4193 179.041 55.2432 178.21 52.9974 177.608C46.577 175.877 39.5777 176 33.1171 174.668C30.9468 174.221 28.8866 173.558 26.8275 172.763L26.5467 172.654C25.6024 172.286 24.639 172.081 24.17 173.195C23.8362 173.988 24.0348 174.812 24.5355 175.478C25.7629 177.109 28.2305 177.866 30.0876 178.453C31.2052 178.809 32.346 179.09 33.4995 179.299C34.6531 179.508 35.8108 179.561 36.9178 179.969C37.3446 180.125 37.4291 180.804 36.9178 180.924C35.515 181.252 34.1038 180.971 32.7094 180.698C31.1777 180.396 29.6693 179.967 28.2031 179.424C27.9326 179.324 27.6528 179.219 27.3677 179.107L27.1531 179.022C27.3749 179.183 27.5967 179.341 27.8207 179.5C27.8798 179.542 27.8439 179.654 27.7657 179.626C24.3183 178.34 21.1815 176.018 18.7514 173.272L18.6305 173.134C17.7749 172.153 15.8249 169.186 14.1812 170.012C12.6378 170.787 15.2688 173.775 16.2687 174.996L16.3848 175.14C17.5214 175.169 18.6221 175.877 19.5432 176.448C21.1425 177.439 22.8137 178.293 24.5165 179.092C27.901 180.683 31.4947 181.806 34.8432 183.477C34.8876 183.501 34.8538 183.557 34.8116 183.551C32.6799 183.211 30.5714 182.668 28.5116 181.994L28.4197 181.965L28.3278 181.934C27.0411 181.512 25.7714 181.034 24.5228 180.525C23.1348 179.958 21.7785 179.322 20.4623 178.601C19.2707 177.951 17.9482 176.778 16.5665 176.604C16.4186 176.585 16.2876 176.583 16.1735 176.594C14.5869 176.727 15.8989 179.356 16.3426 180.142C17.0672 181.433 17.9419 182.625 18.9454 183.714C20.9799 185.925 23.4454 187.677 26.1137 189.04C27.0243 189.505 27.9559 189.915 28.9024 190.291Z" fill="black"/>
<path fill-rule="evenodd" clip-rule="evenodd" d="M111.061 50.584L112.882 52.7549C111.873 53.4672 110.922 54.1829 110.026 54.9021L110.025 54.8999C114.172 52.1874 118.765 50.584 123.727 50.584C133.283 50.584 152.694 58.8133 157.082 64.7491C159.259 67.6949 163.306 76.7381 165.405 86.5696C167.092 94.4691 169.6 116.786 167.092 125.172C163.881 135.905 153.319 145.824 142.428 145.824C131.537 145.824 114.628 137.942 102.594 120.668C102.043 119.878 95.7243 118.962 91.2164 115.997L92.3999 129.069L93.2994 136.673L93.1009 137.214C89.8723 145.967 87.3139 150.534 85.4256 150.914C83.4987 151.302 79.5747 148.135 73.6534 141.415L72.8968 138.231C70.975 130.11 70.0141 125.751 70.0141 125.153L70.0155 125.045C70.0438 123.67 70.5161 115.891 70.5258 113.797L70.526 82.4191C76.8941 61.1957 82.9711 50.584 88.7569 50.584H111.061Z" fill="#D08B5B"/>
<path fill-rule="evenodd" clip-rule="evenodd" d="M95.9715 43.3557C97.8439 42.6287 100.013 42.7661 101.79 43.8609C105.28 43.7108 108.75 45.7567 110.569 48.7431C110.607 48.7853 110.647 48.8276 110.683 48.8699L111.068 49.3204C111.434 49.7506 111.819 50.2247 112.124 50.7143C110.629 50.7486 109.384 51.3592 108.515 52.5924C107.895 53.4723 109.316 54.3085 109.95 53.4763L109.972 53.4458C110.494 52.7055 111.281 52.4187 112.158 52.4036C112.41 52.3994 112.601 52.3028 112.736 52.1604C112.789 52.3567 112.838 52.5552 112.882 52.7545C117.297 51.033 122.056 50.5772 126.796 50.9855C126.589 51.3228 126.415 51.6842 126.281 52.064C126.13 52.4945 126.453 52.9889 126.87 53.1039C127.321 53.2281 127.729 52.9631 127.892 52.5534L127.907 52.5133C128.09 51.996 128.387 51.5519 128.786 51.2076C131.018 51.5109 133.234 51.9932 135.395 52.615C137.993 53.363 140.567 54.2758 143.083 55.3209C142.657 55.4885 142.289 55.7717 142.031 56.2445C141.516 57.1882 142.931 58.0335 143.468 57.1313L143.487 57.0979C143.54 57.0012 143.587 56.943 143.621 56.9099L143.633 56.8986L143.707 56.8644L143.846 56.8247L143.899 56.8116C143.946 56.801 143.965 56.8017 144.088 56.7949C144.252 56.7856 144.417 56.7864 144.581 56.7862C144.967 56.786 145.213 56.5702 145.325 56.2942C146.567 56.8562 147.793 57.4479 148.997 58.0678L149.284 58.2164C153.001 60.1637 156.523 62.721 158.567 66.4838C158.702 66.7353 158.744 67.0101 158.71 67.2721C159.146 67.7963 159.568 68.3373 159.973 68.8869C161.208 70.5692 162.113 72.4819 162.969 74.3777C164.691 78.1905 165.851 82.1068 166.755 86.1901C167.63 90.1255 168.336 94.1031 168.992 98.0807C169.719 102.5 170.324 106.957 170.451 111.44C170.674 119.431 169.116 127.469 164.64 134.196C160.648 140.199 154.635 144.965 147.505 146.49C140.253 148.042 132.579 146.529 126.863 141.684C125.942 140.904 126.069 139.33 126.863 138.531C127.764 137.631 129.092 137.755 130.009 138.531C135.391 143.094 143.225 143.798 149.71 141.473C155.706 139.321 160.403 134.359 163.285 128.786C166.801 121.989 167.394 114.181 166.854 106.661C166.559 102.532 165.945 98.4357 165.313 94.3461L164.931 91.8844C164.515 89.218 164.077 86.5552 163.506 83.916L163.373 83.3011C162.675 80.1184 161.858 76.8541 160.595 73.862C159.933 72.2917 159.136 70.7784 158.32 69.2842C158.162 68.9946 158 68.7009 157.833 68.405C157.61 68.4832 157.354 68.4959 157.087 68.4113C154.782 67.6927 152.415 67.2108 150.005 67.0502C148.908 66.9767 147.808 66.9653 146.71 67.0082C144.83 66.8985 142.898 67.0642 141.107 67.642C140.932 67.4913 140.754 67.3438 140.577 67.1963C140.529 67.1925 140.481 67.1874 140.433 67.1779C139.976 67.0878 139.655 66.7624 139.461 66.3513C139.451 66.3295 139.442 66.3078 139.433 66.286C139.204 66.1103 138.973 65.9375 138.74 65.7669C138.172 65.9146 137.674 65.4406 137.54 64.9211C137.413 64.8355 137.284 64.7526 137.157 64.6687C137.057 64.6932 136.957 64.7135 136.86 64.7207C136.442 64.7509 136.037 64.6867 135.667 64.4865C135.197 64.2331 134.897 63.8244 134.696 63.36C133.986 63.4038 133.268 63.1728 132.633 62.7552C132.118 62.4164 131.723 61.9487 131.331 61.4818C126.55 59.344 121.353 58.0818 116.143 57.7584C115.63 57.8573 115.12 57.9751 114.617 58.112C114.498 58.1446 114.329 58.2084 114.134 58.2849C115.296 58.1441 116.472 58.1302 117.665 58.3024C123.327 59.1231 127.736 63.3725 131.531 67.3837C132.434 67.2009 133.346 68.3729 132.511 69.1489L125.997 75.2001C126.157 75.8768 125.383 76.5439 124.704 76.3813C123.567 76.1074 122.428 75.8411 121.288 75.5793C120.099 76.156 118.604 76.0573 117.526 75.2212C117.476 75.1824 117.367 75.1202 117.272 75.0585C117.183 75.1318 117.064 75.2054 117.017 75.2367C116.633 75.4911 116.166 75.5659 115.718 75.4945C115.257 75.4212 114.841 75.1868 114.483 74.8949C114.254 74.709 113.722 73.9332 113.426 73.8761L113.398 73.8728C113.595 73.8785 112.96 74.4701 112.79 74.5925C112.392 74.8772 111.952 75.0268 111.456 74.9723C110.593 74.8771 109.851 74.0885 109.429 73.3604L109.397 73.3045L109.384 73.2698L109.373 73.3073C109.371 73.314 109.368 73.3211 109.365 73.329C109.302 73.5004 109.104 73.6953 108.969 73.8151C108.584 74.156 108.108 74.3059 107.6 74.2169C107.169 74.1418 106.807 73.8811 106.516 73.5657L106.471 73.5154C106.385 73.4181 105.818 72.6544 105.908 72.4713L105.918 72.4559L105.89 72.45C105.545 72.535 105.255 72.4498 105.043 72.2716C103.86 72.0117 102.691 71.7088 101.561 71.3237C101.472 71.5731 101.385 71.8225 101.301 72.074C101.919 72.4566 102.49 73.0018 103.015 73.3907C104.01 74.1262 105.005 74.8617 105.998 75.5993L109.933 78.5088L110.382 78.3877C110.957 78.233 111.451 78.5685 111.662 79.0813L111.679 79.1257C111.763 79.3504 111.864 79.5581 111.982 79.757C112.965 79.7177 113.798 80.323 114.067 81.1912C114.31 81.1858 114.556 81.1951 114.807 81.2227C115.494 81.2984 115.957 81.8099 115.832 82.5122L115.823 82.5604L115.806 82.6386C116.205 82.8081 116.493 83.1355 116.557 83.6304C116.664 83.7913 116.75 83.9663 116.805 84.1611C117.093 85.1723 116.533 86.4222 116.236 87.3908L116.213 87.4667C116.022 88.1032 115.824 88.7368 115.624 89.37L115.125 90.9422C113.743 95.324 112.395 99.9438 113.514 104.537C113.752 105.51 112.513 105.949 111.975 105.188C110.672 103.346 109.264 101.61 107.785 99.9441L107.713 99.9327C106.678 99.7241 106.276 98.991 105.801 98.2436C105.521 98.3263 105.22 98.3457 104.929 98.2895C104.508 98.2081 104.13 97.967 103.832 97.6624C103.58 97.4041 103.349 96.7418 103.051 96.5775C102.677 96.3723 101.927 96.6657 101.482 96.5997C101.119 96.5463 100.781 96.4216 100.453 96.265C99.8492 97.0894 99.4493 98.0587 99.3512 99.1036C99.3131 99.5009 99.195 99.837 99.0242 100.116C99.6525 100.093 100.283 100.137 100.905 100.253C103.207 100.682 104.858 102.107 105.786 104.229C105.825 104.322 105.705 104.398 105.65 104.309C104.274 102.185 101.278 102.077 99.1022 102.825C96.7916 103.62 95.4951 105.66 95.0336 107.987C94.5276 110.538 95.1767 113.287 96.5621 115.46C97.2049 116.47 98.0821 117.392 99.2477 117.764C100.633 118.205 101.913 117.415 103.331 117.823C104.297 118.1 104.723 119.036 104.548 119.972C104.478 120.34 104.35 120.661 104.177 120.94C104.687 121.955 105.159 122.999 105.76 123.958C106.688 125.44 107.809 126.666 109.032 127.902C110.295 129.179 111.581 130.43 112.932 131.614C114.227 132.748 115.711 133.556 117.069 134.596C118.022 135.325 118.494 136.348 118.024 137.519C117.636 138.487 116.329 139.311 115.27 138.873C113.244 138.036 111.471 136.612 109.856 135.145C108.36 133.784 107.057 132.157 106.072 130.39C105.143 128.724 104.459 126.832 103.882 125.01L103.81 124.783C103.538 123.916 103.251 122.942 103.066 121.959C101.955 122.568 100.447 122.656 99.2585 122.492C97.3377 122.227 95.5857 121.257 94.2618 119.843C93.6447 119.185 93.0993 118.435 92.6283 117.621C92.6711 118.117 92.6966 118.596 92.724 119.032C93.8247 120.24 94.2662 121.984 93.8756 123.576C94.7964 124.526 95.0545 125.952 94.5738 127.167C95.5817 128.169 95.5438 129.764 95.108 131.212C96.2996 132.547 96.4124 134.627 95.482 136.134L95.454 136.242C96.3934 137.818 96.1815 139.854 95.0045 141.246C95.8084 142.809 95.684 144.911 93.6751 145.518C92.9429 145.739 92.2332 145.55 91.7022 145.139C92.1871 147.557 92.404 150.011 91.7574 152.44C91.5 153.404 90.5597 154.108 89.571 154.108C88.7446 154.108 88.1437 153.691 87.7286 153.078C87.7771 154.298 87.7033 155.524 87.444 156.76C87.2876 157.507 86.5967 158.089 85.8633 158.269C86.1278 158.568 86.2333 159.001 85.9796 159.451C84.9042 161.36 82.3059 160.568 82.1302 158.74C81.3964 158.191 81.0553 157.289 80.914 156.315C80.7082 154.894 80.6336 153.497 80.4004 152.095L80.3113 152.178L80.2653 152.218L80.2506 152.319C80.1169 153.013 79.7269 153.498 79.2207 153.788C79.3307 154.997 79.1271 156.229 78.3618 157.147C77.852 157.759 76.9837 158 76.2392 157.867C76.1924 157.87 76.1446 157.869 76.0948 157.863C74.4089 157.638 73.4334 156.035 73.8772 154.564C73.1984 153.73 72.9125 152.671 73.1134 151.626C71.7998 150.754 71.8265 148.838 72.2815 147.3C70.9044 146.21 70.3864 144.174 71.0783 142.555C69.8372 141.01 69.6646 138.856 70.5078 137.097C69.1423 135.972 69.1501 133.801 70.5045 132.651C69.7832 131.216 69.3483 129.496 70.0691 128.182C69.5606 127.62 69.2815 126.818 69.3403 126.043C69.4265 124.905 70.1775 124.119 71.1093 123.595L71.1738 123.239C71.3927 123.266 71.6258 123.205 71.8314 123.007C72.0348 122.811 72.2442 122.654 72.4607 122.523C72.7059 122.52 72.9169 122.411 73.0653 122.242C73.4714 122.104 73.908 122.043 74.3922 122.037C75.4381 122.026 75.475 120.458 74.5017 120.356C74.348 120.201 74.1363 120.103 73.9067 120.103L73.7269 120.104C73.3066 120.108 72.8823 120.134 72.4923 120.301C72.2389 120.41 72.0435 120.574 71.9003 120.774C71.8735 121.077 71.7091 121.38 71.353 121.629C70.9417 121.917 70.3792 121.951 69.939 121.69C69.3228 121.325 69.3165 120.755 69.3875 120.135C69.5431 118.78 68.7656 117.504 68.9507 116.117C69.0327 115.504 69.2364 114.975 69.5684 114.547C68.8683 113.496 68.7447 112.14 69.2838 110.987C68.1608 109.776 67.9666 107.908 68.6828 106.451C68.6931 106.415 68.7011 106.379 68.7123 106.344C68.7932 106.097 68.9048 105.873 69.0277 105.66C68.399 104.568 68.4036 103.228 69.0426 102.141C68.0747 101.01 68.044 99.2097 68.9048 97.9911C68.9098 97.89 68.9204 97.789 68.929 97.688C68.5339 96.6598 68.6288 95.4908 69.1299 94.5346C68.9511 94.1214 68.8133 93.6766 68.7251 93.2027C68.4993 91.9811 68.6155 90.7933 68.9528 89.6013C69.0074 89.4132 69.0686 89.2251 69.1339 89.037C69.1449 88.2206 69.1759 87.4077 69.2168 86.5963C69.0565 85.9095 69.0306 85.1547 69.0271 84.454L69.0261 83.9996C69.0182 82.8433 68.9378 81.1502 69.6671 80.1673C69.1988 79.1054 69.3913 77.7676 70.1728 76.926C69.6243 75.9802 69.5092 74.8188 70.0605 73.7695C70.149 73.6006 70.2517 73.4434 70.3643 73.2946C70.3187 72.3336 70.5205 71.3425 71.0313 70.3874C71.3631 69.7657 71.8588 69.2273 72.448 68.7966C72.4381 68.6692 72.432 68.5419 72.4341 68.4166C72.4445 67.8574 72.5682 67.2958 72.7765 66.7719C72.4027 66.1323 72.2294 65.4114 72.448 64.6345C72.6926 63.7553 73.3358 62.9986 74.1388 62.5717C74.2035 61.7428 74.3328 60.9187 74.5175 60.1057C74.0239 59.0039 74.4169 57.5498 75.5324 56.9008C75.3869 56.0203 75.518 55.1072 76.1572 54.4195C76.3995 54.1589 76.6849 53.9613 76.9921 53.8303C76.8441 52.9449 77.0111 52.0239 77.6218 51.3029C78.1206 50.7143 78.8598 50.3567 79.612 50.3041C79.9016 48.7642 81.3692 47.6128 82.9175 47.7045C83.111 47.0265 83.5733 46.4353 84.2905 46.1356C84.4742 46.0589 84.6597 46.0084 84.8446 45.9803C86.1036 44.7071 87.978 43.8442 89.6007 43.4022C91.2284 42.9607 92.8784 42.918 94.2759 43.4313L94.3777 43.4699L94.4916 43.4551C94.9851 43.4001 95.4782 43.3684 95.9715 43.3557ZM83.6026 147.707C83.1679 147.571 82.683 147.868 82.5652 148.297C82.4408 148.751 82.7178 149.201 83.1542 149.337C83.6979 149.507 84.269 149.55 84.8357 149.55C85.2913 149.551 85.679 149.161 85.679 148.705C85.679 148.246 85.293 147.86 84.8357 147.859C84.3749 147.859 84.0346 147.842 83.6026 147.707ZM79.7355 138.729C79.0856 138.73 78.5281 138.885 78.0462 139.342C77.7249 139.646 77.7169 140.234 78.0462 140.538C78.3788 140.843 78.8614 140.861 79.2028 140.57L79.2685 140.511C79.2765 140.504 79.2826 140.498 79.2875 140.493C79.3149 140.475 79.3425 140.457 79.3716 140.442L79.3166 140.478C79.2748 140.508 79.3719 140.459 79.4264 140.436L79.4435 140.429L79.449 140.427L79.4926 140.424C79.5734 140.42 79.6546 140.42 79.7355 140.42C80.1766 140.419 80.599 140.031 80.5788 139.574C80.5581 139.117 80.2082 138.729 79.7355 138.729ZM92.0007 133.365C92.9135 132.804 92.0982 131.369 91.1828 131.886L91.1496 131.905C90.6803 132.194 90.1031 132.155 89.5714 132.155C88.4863 132.156 88.4844 133.847 89.5714 133.846L89.7511 133.845C90.5305 133.839 91.3189 133.785 92.0007 133.365ZM84.817 127.194C84.1273 127.064 83.3548 126.948 82.6291 127.027L82.5087 127.042H82.2854C82.0915 127.042 81.9036 127.12 81.7529 127.243C81.5142 127.343 81.2882 127.476 81.082 127.655C80.2605 128.369 81.4577 129.561 82.2747 128.851C82.32 128.811 82.3727 128.779 82.4312 128.752L82.4762 128.733H83.3783C83.4603 128.733 83.5402 128.716 83.618 128.691C83.9108 128.732 84.1836 128.79 84.3685 128.825C85.4294 129.025 85.8839 127.395 84.817 127.194ZM84.0468 110.967C82.725 110.352 81.261 110.357 80.0385 111.21C79.1643 111.82 79.9763 113.259 80.858 112.691L80.8896 112.67C80.9992 112.593 81.1118 112.529 81.2256 112.471C81.8463 112.651 82.471 112.66 83.071 112.438L83.1491 112.408L83.1957 112.426C84.1739 112.881 85.0316 111.424 84.0468 110.967ZM98.4411 108.317C97.1058 108.167 97.095 106.053 98.4411 106.204C101.283 106.524 103.862 107.79 105.751 109.965C106.629 110.977 105.183 112.457 104.288 111.491L104.26 111.46C102.758 109.73 100.731 108.575 98.4411 108.317ZM83.4814 97.4599C83.1846 97.4274 82.8884 97.4111 82.5968 97.4253C81.8964 97.4591 81.0435 97.9274 81.3508 98.7737C81.5973 99.4517 82.4052 99.4785 82.804 99.1169C82.9699 99.1209 83.1357 99.1319 83.3007 99.1488C83.7411 99.1943 84.1773 99.2784 84.6114 99.3642C85.6716 99.5732 86.1255 97.9439 85.0598 97.7336L84.5885 97.6401C84.4296 97.609 84.2693 97.5785 84.1084 97.5506C84.0121 97.5026 83.9088 97.4703 83.7984 97.462L83.7426 97.4599H83.4814ZM75.1023 84.3425L75.0032 84.329C73.5791 84.1464 71.2931 84.3144 71.1203 86.1318C71.0248 87.1382 72.4752 87.2014 72.7615 86.3408C73.8131 86.1508 74.8733 86.1144 75.9177 86.2298C76.3162 85.824 76.3194 85.044 75.6561 84.8493C75.5625 84.5969 75.3671 84.3807 75.1023 84.3425ZM107.654 81.273C107.325 80.9702 106.785 80.93 106.462 81.273C106.275 81.4704 106.119 81.6898 105.996 81.9312L105.914 82.0942C105.9 82.1212 105.886 82.1481 105.871 82.1747C105.843 82.2239 105.812 82.2708 105.782 82.3186L105.762 82.3386C105.754 82.3468 105.744 82.3566 105.733 82.3687C105.43 82.6901 105.391 83.2496 105.733 83.5643C106.062 83.8672 106.602 83.9073 106.926 83.5643C107.112 83.3669 107.268 83.1477 107.391 82.9061L107.473 82.7433C107.487 82.7163 107.501 82.6894 107.516 82.6629C107.544 82.6134 107.575 82.5665 107.605 82.5187L107.638 82.4852C107.643 82.4802 107.649 82.4747 107.654 82.4687C107.958 82.1474 107.996 81.5877 107.654 81.273ZM90.3614 79.0714C89.1732 78.2273 87.7602 78.188 86.668 79.2035C85.8797 79.9365 87.0379 81.1109 87.8327 80.4241L87.8606 80.3991C87.8895 80.3721 87.9188 80.3484 87.9479 80.3258C88.0904 80.4475 88.2715 80.5247 88.4785 80.5249C88.5326 80.525 88.5866 80.5249 88.6406 80.526L88.7216 80.5289L88.765 80.5325L88.7705 80.5335L88.8084 80.5497C88.8778 80.5811 88.9735 80.6295 88.8422 80.5471C88.8715 80.5625 88.8989 80.5807 88.9267 80.5984L88.9752 80.6426C89.2931 80.944 89.8432 80.9837 90.1588 80.6504C90.7177 80.461 91.0143 79.5349 90.3614 79.0714ZM101.978 76.3017L102 76.2949C103.042 75.9967 102.599 74.3648 101.551 74.6643C100.44 74.9824 99.9095 76.0191 99.6873 77.0809C99.5939 77.5275 99.818 77.9948 100.276 78.121C100.695 78.2361 101.22 77.9794 101.314 77.5305C101.38 77.2148 101.456 76.9469 101.576 76.6984L101.649 76.5565C101.683 76.4919 101.695 76.4811 101.81 76.3805C101.829 76.3636 101.917 76.3226 101.978 76.3017ZM84.3312 67.7861L84.1683 67.7489C83.1533 67.526 81.8061 67.4096 81.1931 68.4183C80.6345 69.3372 82.0438 70.1738 82.6242 69.3051C82.6331 69.3048 82.6432 69.3049 82.6551 69.3059L82.6742 69.3081L82.9343 69.2869C83.2584 69.2846 83.5685 69.3421 83.8828 69.4167C84.9382 69.6672 85.3887 68.0372 84.3312 67.7861ZM120.769 61.2863C121.537 60.5159 120.345 59.3199 119.576 60.0909C118.969 60.7002 118.382 61.3138 117.987 62.0879C117.78 62.4941 117.881 63.0052 118.29 63.2447C118.667 63.4655 119.235 63.3493 119.444 62.9414C119.786 62.2703 120.218 61.8387 120.769 61.2863ZM111.072 59.2641C110.313 59.7147 109.822 60.4569 109.523 61.3161C109.374 61.7472 109.694 62.2407 110.112 62.3559C110.562 62.4798 110.973 62.2157 111.135 61.8055L111.15 61.7654C111.23 61.5357 111.357 61.2643 111.515 61.0595C111.65 60.8847 111.86 60.7097 112.018 60.6516C112.398 60.5117 112.668 60.1663 112.632 59.7631C112.007 59.9797 111.427 59.7191 111.072 59.2641ZM88.3463 55.5866C87.5804 54.8739 86.5529 54.7794 85.6244 55.2108C85.211 55.4027 85.1075 56.0002 85.3219 56.3675C85.5698 56.7925 86.0608 56.8636 86.4755 56.6708C86.369 56.7203 86.5613 56.655 86.6444 56.6311C86.655 56.636 86.7942 56.6297 86.8422 56.6304L86.9 56.634C86.9005 56.6344 86.8863 56.6341 86.8575 56.6332C86.898 56.6423 86.938 56.6533 86.9774 56.6659L87.0277 56.6833C87.0023 56.678 87.1163 56.7525 87.148 56.7772L87.1537 56.782C87.9485 57.5215 89.1441 56.3286 88.3463 55.5866Z" fill="black"/>
<path fill-rule="evenodd" clip-rule="evenodd" d="M153.707 116.647C154.02 116.238 154.78 118.016 154.935 118.234L154.943 118.244C155.62 119.063 156.172 120.318 156.251 121.37C156.253 121.401 156.253 121.432 156.253 121.462C157.338 121.313 158.423 121.162 159.508 120.995C159.928 120.679 160.515 120.777 161.083 121.065C162.35 121.704 161.733 123.737 160.368 123.704C156.677 123.616 152.908 124.09 149.248 124.517C147.365 124.737 145.486 124.97 143.613 125.267C141.864 125.545 140.075 125.938 138.305 126.015C138.208 126.019 138.168 125.875 138.255 125.83C139.816 125.028 141.599 124.542 143.284 124.072C145.108 123.564 146.946 123.087 148.796 122.684C150.456 122.322 152.125 122.052 153.798 121.808C153.785 121.775 153.773 121.742 153.762 121.707C153.55 120.995 153.555 120.178 153.51 119.427L153.484 119.029C153.443 118.343 153.401 117.047 153.707 116.647ZM148.271 107.866C149.866 108.836 152.297 111.098 150.581 113.503C148.56 115.624 145.652 113.192 144.219 112.093C142.889 111.24 141.396 113.432 142.629 114.427C152.986 122.098 157.19 108.119 149.078 106.725C148.184 106.572 147.853 107.566 148.271 107.866ZM122.62 99.3272C125.275 98.9221 127.994 98.8756 130.676 99.0096C132.071 99.0791 133.464 99.1827 134.853 99.3205C135.579 99.3925 136.304 99.4733 137.027 99.5639C137.546 99.629 138.347 99.9262 138.84 99.7909C140.347 99.3782 141.777 100.805 141.362 102.314C140.95 103.811 139.183 104.206 138.047 103.307C137.508 103.117 136.966 102.937 136.421 102.769C136.38 102.94 136.319 103.11 136.232 103.275C136.136 103.458 136.043 103.644 135.954 103.832C135.973 103.802 135.827 104.152 135.823 104.162L135.707 104.467C135.503 104.993 135.275 105.491 134.723 105.764C133.963 106.138 132.772 105.932 132.465 105.038C131.985 104.099 132.303 102.786 132.577 101.812L132.599 101.737C129.286 100.949 125.918 100.358 122.62 99.5565C122.512 99.5303 122.501 99.3454 122.62 99.3272ZM162.02 95.7921C162.192 95.4469 162.583 95.4455 162.816 95.7697C163.333 96.4894 162.175 97.5203 161.692 97.9993L161.643 98.0476C160.557 99.15 159.233 100.039 157.919 100.842C157.644 101.01 157.364 101.171 157.083 101.329C157.135 101.434 157.183 101.541 157.221 101.649C157.42 102.211 157.424 102.882 157.245 103.45C156.872 104.634 155.879 105.579 154.592 105.578C153.913 105.578 153.109 104.935 153.201 104.187C153.233 103.92 153.26 103.637 153.301 103.353C152.395 103.655 151.284 103.301 150.708 102.555C149.907 101.517 150.127 99.8155 151.353 99.1709C152.255 98.6971 153.25 98.5775 154.227 98.327C155.196 98.0789 156.159 97.7938 157.108 97.4753C158.043 97.1612 158.974 96.8247 159.904 96.4923C160.364 96.3276 160.819 96.1759 161.287 96.0364C161.497 95.9743 161.798 95.8109 162.02 95.7921Z" fill="black"/>
</svg>
