<svg width="240" height="324" viewBox="0 0 240 324" fill="none" xmlns="http://www.w3.org/2000/svg">
<path fill-rule="evenodd" clip-rule="evenodd" d="M55.2054 285.569C57.7345 285.726 60.2634 285.849 62.7922 285.944C95.862 287.176 128.905 283.405 161.954 282.58C173.464 282.277 184.914 282.428 196.394 283.352C197.518 283.443 198.805 282.232 198.666 281.079C196.546 262.764 193.892 244.499 192.517 226.109C192.516 225.136 192.641 224.165 192.976 223.249C193.039 223.177 193.365 222.371 193.656 222.321C193.561 222.392 193.991 222.268 193.717 222.289C195.377 222.017 197.005 220.225 195.8 218.51C183.392 199.485 166.454 182.12 161.004 159.523C159.717 153.414 155.066 153.036 150.112 150.516C148.567 149.596 144.787 147.049 144.172 145.278C142.702 138.894 145.29 132.641 137.73 130.058C132.74 128.673 123.919 127.502 118.869 128.962C112.71 131.013 113.171 137.957 109.598 142.734C107.75 145.497 104.6 149.28 101.691 149.703C100.282 149.909 99.2432 147.056 97.8356 147.252C75.8946 152.583 46.0015 188.949 36.5713 209.08C34.4462 215.416 41.2999 213.505 40.8788 219.873C40.3597 231.954 39.2244 247.419 39.8978 259.515C40.5284 266.535 40.0617 273.891 42.243 280.647C41.6559 281.36 42.4995 282.08 43.1878 282.39C44.0551 283.866 52.5886 285.365 55.2054 285.569Z" fill="#D08B5B"/>
<path d="M97.8356 147.252C99.1483 147.069 99.2337 150.93 100.505 151.097C106.405 159.384 115.548 162.134 126.122 162.134C137.347 162.134 146.449 158.757 153.427 152.003L154.067 152.273C157.37 153.677 160.071 155.094 161.004 159.523C166.454 182.12 183.392 199.485 195.8 218.51C197.005 220.225 195.377 222.017 193.717 222.289C193.991 222.268 193.561 222.391 193.656 222.321C193.365 222.371 193.039 223.177 192.976 223.249C192.814 223.692 192.701 224.148 192.628 224.611C192.628 224.611 178.727 227.557 174.99 227.638C137.466 228.451 68.8431 227.291 68.8431 227.291L40.1007 216.415C38.4569 213.946 34.9723 213.848 36.5713 209.08C46.0015 188.949 75.8946 152.583 97.8356 147.252Z" fill="#E86BBB"/>
<path fill-rule="evenodd" clip-rule="evenodd" d="M112.327 135.125C112.898 132.558 116.982 133.659 116.282 136.216C115.199 140.17 112.951 143.907 109.778 146.53C107.327 148.555 103.987 150.361 100.674 150.695C100.984 150.998 101.282 151.321 101.595 151.63C102.301 152.331 103.051 152.982 103.824 153.608C105.413 154.893 107.065 156.049 108.869 157.017C116.075 160.885 124.216 161.777 132.265 160.876C136.084 160.449 139.961 159.724 143.553 158.327C145.218 157.681 146.836 156.831 148.264 155.757L148.638 155.477C149.389 154.909 150.391 154.109 150.86 153.234C149.432 153.555 147.626 152.033 146.635 151.148C145.552 150.176 144.639 148.922 143.965 147.637C142.644 145.116 141.945 141.863 143.052 139.16C143.126 138.98 143.363 139.01 143.384 139.204C143.711 142.356 144.56 145.31 146.821 147.644C147.825 148.677 149.027 149.544 150.339 150.146L150.523 150.231C151.082 150.489 151.671 150.793 151.906 151.346C151.997 151.336 152.088 151.344 152.175 151.368C152.253 151.389 152.325 151.412 152.394 151.437C152.238 151.131 152.156 150.77 152.17 150.342C152.225 148.688 154.497 148.637 154.811 150.11C154.754 149.916 154.678 150.104 154.822 150.163C154.82 150.146 154.816 150.127 154.811 150.11L154.815 150.126L154.824 150.163L154.822 150.163C154.828 150.19 154.832 150.217 154.835 150.245L154.838 150.282L154.836 150.251C154.834 150.229 154.832 150.208 154.829 150.19L154.824 150.163C154.845 150.173 154.875 150.18 154.908 150.18L154.922 150.185C154.975 150.208 155.162 150.295 155.217 150.317C155.595 150.457 156.018 150.501 156.404 150.621C157.243 150.879 157.983 151.306 158.494 152.033C158.861 152.555 159.066 153.154 159.151 153.775C162.863 155.561 166.376 157.881 169.319 160.754C175.887 167.162 180.468 175.182 184.226 183.484C186.139 187.711 187.844 192.027 189.511 196.355L189.774 197.038C191.561 201.69 193.142 206.393 193.53 211.393C193.566 211.841 193.418 212.262 193.163 212.611C193.253 212.987 193.3 213.363 193.287 213.731C193.285 213.788 193.281 213.845 193.277 213.902C193.877 213.891 194.464 214.143 195.022 214.849C195.248 214.777 195.493 214.768 195.734 214.847C197.202 215.316 197.439 216.929 197.715 218.279C198.001 219.674 198.125 221.103 198.127 222.525C198.127 223.034 197.836 223.677 197.341 223.895C196.412 224.304 195.411 224.573 194.449 224.945C193.727 225.224 193.002 225.488 192.271 225.736C192.677 226.443 192.808 227.428 193.027 228.174C193.372 229.339 193.649 230.508 193.881 231.7C195.457 239.805 196.549 247.997 198.024 256.119C198.761 260.188 199.619 264.229 200.494 268.27C200.925 270.256 201.383 272.239 201.875 274.213C202.137 275.265 202.41 276.318 202.691 277.364C202.772 277.67 202.855 277.975 202.939 278.279L203.086 278.812C203.407 278.989 203.682 279.258 203.872 279.625C204.567 280.97 204.168 282.485 202.834 283.242C201.385 284.066 199.655 283.288 198.856 281.95C198.294 281.006 198.11 279.755 197.834 278.704C197.521 277.525 197.223 276.339 196.936 275.153C194.984 267.098 193.677 258.902 192.692 250.675L192.622 250.087C192.121 245.852 191.637 241.606 191.325 237.351C191.17 235.261 191.048 233.171 190.972 231.076C190.934 229.998 190.995 228.914 191.056 227.838C191.084 227.367 191.124 226.894 191.139 226.422L191.143 226.355C191.147 226.308 191.153 226.245 191.157 226.179L191.162 226.099C189.704 226.556 188.225 226.936 186.732 227.257C183.554 227.944 180.303 228.327 177.06 228.132C177.512 233.505 178.101 238.864 178.925 244.188C179.72 249.316 180.637 254.432 181.672 259.518C182.19 262.073 182.749 264.622 183.339 267.162C183.656 268.519 184.017 269.867 184.302 271.231C184.471 272.042 184.524 272.721 184.184 273.48C184.558 274.5 184.891 275.525 185.218 276.491L185.316 276.779C185.895 278.47 186.994 280.198 185.846 281.86C185.253 282.717 184.285 283.208 183.311 283.238C183.294 283.248 183.275 283.261 183.256 283.271C182.732 283.552 182.128 283.607 181.553 283.487C180.681 283.658 179.806 283.823 178.93 283.973C176.764 284.347 174.588 284.656 172.408 284.916C168.256 285.41 164.077 285.681 159.901 285.831C144.609 286.382 129.301 285.414 114.003 285.693C106.209 285.835 98.4154 286.186 90.6344 286.651C86.7513 286.883 82.8661 287.133 78.9809 287.325L77.7783 287.384C74.3038 287.55 70.8268 287.678 67.3549 287.424C67.2873 287.42 67.2344 287.393 67.1985 287.355C66.0006 287.219 64.7966 286.116 64.9168 284.842C65.4344 279.414 65.952 273.987 66.4718 268.557C67.395 258.884 68.3267 249.21 69.2689 239.539L69.4051 238.142C69.7217 234.884 70.024 231.617 70.1774 228.345C69.4042 228.291 68.6332 228.221 67.8619 228.136C59.5051 227.221 51.4939 224.692 43.8017 221.371L43.4901 221.236C42.7971 220.933 42.0387 220.631 41.2612 220.308C41.2741 221.785 41.2253 223.265 41.2189 224.727C41.2084 227.156 41.2274 229.584 41.2337 232.01C41.2485 237.011 41.4387 242.013 41.688 247.006C42.1253 255.823 42.6387 264.628 43.4161 273.424C43.6126 275.637 43.879 277.846 44.0668 280.059C44.179 281.363 43.9105 282.449 42.717 283.134C42.1295 283.472 41.6753 283.331 41.0922 283.058C39.6682 282.39 39.6281 280.811 39.4929 279.438C39.3896 278.402 39.2943 277.366 39.2013 276.329C39.003 274.116 38.8316 271.903 38.6922 269.686C38.141 260.877 37.9802 252.076 38.3605 243.256C38.5371 239.131 38.7919 234.997 39.1302 230.879L39.2098 229.929C39.4887 226.638 39.6682 223.185 40.245 219.873C37.9189 218.841 35.614 217.529 34.545 215.347C33.1593 212.515 34.6823 210.093 36.852 208.426C36.8309 208.145 36.852 207.866 36.9112 207.612C37.5344 204.913 38.5781 202.246 39.5858 199.672C40.602 197.085 41.7239 194.538 42.9577 192.046C47.9098 182.064 54.6746 172.942 62.7387 165.257C66.7443 161.441 71.1281 157.913 75.8077 154.954C78.1274 153.49 80.5063 152.137 82.9697 150.932L83.3338 150.755C85.0487 149.922 86.9721 149.037 88.879 148.574C89.0774 148.426 89.2781 148.286 89.4809 148.153C90.2309 147.654 91.2492 148.015 91.6929 148.728C91.9086 148.561 92.1577 148.413 92.4429 148.28L92.7248 148.151C94.4359 147.38 96.4904 146.659 98.3478 147.166C99.5013 147.481 100.41 148.331 100.818 149.413C101.753 148.918 102.672 148.409 103.57 147.785C105.013 146.788 106.321 145.549 107.496 144.249C109.851 141.635 111.563 138.573 112.327 135.125ZM194.065 217.552C193.904 217.599 193.735 217.615 193.56 217.594C193.877 217.631 193.242 217.819 193.068 217.908L193.055 217.916C192.738 218.097 192.419 218.273 192.096 218.442C191.341 218.839 190.571 219.196 189.787 219.532C188.242 220.19 186.647 220.695 185.01 221.065C183.408 221.426 181.729 221.637 180.087 221.671C178.989 221.692 177.685 221.642 176.549 221.318C176.68 223.311 176.825 225.302 176.988 227.291L179.233 226.776C181.478 226.261 183.72 225.733 185.935 225.091C187.598 224.609 189.237 224.045 190.858 223.436C191.707 223.117 192.55 222.779 193.382 222.415C193.797 222.234 194.185 222.019 194.569 221.801L194.897 221.614C194.821 220.724 194.682 219.852 194.479 218.972C194.373 218.507 194.194 218.03 194.065 217.552ZM40.3506 208.166C40.0654 209.092 39.6281 209.956 38.6309 210.165C38.2781 210.239 37.9825 210.199 37.7373 210.079L37.6784 210.197C36.8586 211.881 36.6178 213.658 38.5042 214.955C39.3558 215.54 40.283 216.047 41.2422 216.501C42.9574 217.318 44.7841 217.974 46.5062 218.642L46.8492 218.776C49.9295 219.985 53.0584 221.086 56.2358 222.007C59.46 222.939 62.7408 223.687 66.0621 224.163C67.4626 224.362 68.8739 224.501 70.2875 224.592C70.3105 222.69 70.2999 220.786 70.2936 218.884C69.7908 218.82 69.2922 218.752 68.8107 218.695C67.3443 218.524 65.8823 218.315 64.4288 218.055C61.3929 217.512 58.3887 216.762 55.4584 215.802C50.0288 214.02 44.9774 211.473 40.3506 208.166ZM99.8795 149.901C98.6457 148.595 96.2859 149.066 94.7966 149.7C94.3464 149.892 93.8922 150.087 93.4612 150.321L93.3777 150.368C92.8758 150.657 92.8783 150.829 93.1234 151.406C93.4422 152.164 93.8858 152.898 94.3084 153.601C96.117 156.622 98.4978 159.251 101.217 161.472C110.846 169.334 124.68 172.107 136.722 169.474C142.502 168.212 148.077 165.663 152.331 161.483L152.719 161.098C154.434 159.38 156.789 156.895 156.624 154.35C156.546 153.126 155.546 153.056 154.526 152.82C154.108 152.722 153.708 152.585 153.362 152.391C153.641 153.593 152.156 155.381 151.389 156.132C149.781 157.706 147.846 158.936 145.799 159.856C141.903 161.608 137.665 162.436 133.446 162.96C128.658 163.556 123.768 163.503 119.016 162.622C114.882 161.855 110.806 160.403 107.249 158.141C105.618 157.106 104.01 155.924 102.649 154.549L102.36 154.256C101.378 153.261 100.235 152.057 99.6471 150.751C99.4232 150.753 99.2013 150.746 98.9795 150.731C98.8232 150.723 98.7389 150.501 98.895 150.419C99.0704 150.326 99.2457 150.233 99.4211 150.142C99.3917 150.044 99.3661 149.95 99.345 149.852C99.3281 149.77 99.4147 149.694 99.4908 149.74C99.5964 149.803 99.6978 149.871 99.7971 149.943C99.8246 149.93 99.852 149.916 99.8795 149.901Z" fill="black"/>
<path fill-rule="evenodd" clip-rule="evenodd" d="M133.465 60.2713C165.196 61.2784 167.11 76.3883 167.11 101.728C167.11 127.068 150.649 143.036 144.588 145.824C138.527 148.612 122.567 160.588 108.164 155.069C93.7613 149.55 97.9322 126.233 97.9322 116.215C97.9322 106.196 101.733 59.2642 133.465 60.2713Z" fill="#D08B5B"/>
<path fill-rule="evenodd" clip-rule="evenodd" d="M102.795 100.486C109.356 73.6655 121.333 60.5802 138.727 61.2296C164.817 62.2036 164.542 88.8625 162.905 86.4318C161.835 84.8437 154.348 79.296 140.443 69.7886L139.584 69.2016L102.795 100.486Z" fill="#9FD8E5"/>
<path fill-rule="evenodd" clip-rule="evenodd" d="M146.338 137.502C140.51 140.763 133.838 140.89 127.57 138.837C123.811 137.61 120.364 135.711 117.139 133.442C114.333 131.465 111.828 129.274 109.347 126.947C107.304 122.43 105.485 117.922 104.633 113.008C103.87 108.597 103.768 104.017 104.654 99.6149C111.202 94.2149 117.71 88.7706 124.21 83.3095C127.52 80.5279 130.838 77.7615 134.196 75.0391C135.902 73.6569 137.591 72.2535 139.29 70.865C139.57 70.6367 139.849 70.4084 140.129 70.1802C143.637 72.7544 147.398 74.9611 150.881 77.5774C152.704 78.9491 154.477 80.4095 156.166 81.9458C157.051 82.7513 157.916 83.5819 158.759 84.4337C159.531 85.2116 160.275 86.3274 161.369 86.6213C161.519 86.6613 161.66 86.6697 161.793 86.6507C163.256 99.4924 164.295 113.359 158.028 125.021C155.293 130.109 151.416 134.657 146.338 137.502ZM108.43 142.221C107.627 141.484 108.823 140.292 109.622 141.025C114.641 145.634 121.202 148.077 127.83 149.208C128.899 149.391 128.443 151.02 127.381 150.838C120.462 149.658 113.661 147.025 108.43 142.221ZM102.408 149.292C101.45 148.777 102.302 147.318 103.259 147.832C107.169 149.935 111.457 151.027 115.808 151.765C116.877 151.946 116.421 153.575 115.359 153.395C110.861 152.632 106.448 151.465 102.408 149.292ZM118.321 78.0617C121.566 75.1427 125.053 72.3653 128.736 70.0217C132.463 67.6503 136.534 66.2322 140.934 66.1983C140.626 66.4456 140.333 66.7204 140.036 66.9759C139.206 67.6884 138.377 68.4048 137.548 69.1192C135.891 70.5501 134.23 71.9786 132.594 73.4329C129.373 76.2988 126.141 79.1499 122.926 82.0221C116.747 87.5426 110.7 93.1833 104.785 98.9872C104.816 98.8456 104.85 98.704 104.884 98.5626C106.842 90.362 112.17 83.5967 118.321 78.0617ZM143.755 66.5555C143.776 66.4921 143.791 66.4306 143.799 66.3717C152.243 67.4749 159.295 73.7032 161.626 81.9038C161.424 82.187 161.312 82.523 161.354 82.88C161.375 83.0599 161.397 83.2416 161.418 83.4213C161.129 83.1341 160.832 82.8654 160.579 82.6097C159.737 81.7558 158.875 80.925 157.99 80.1156C156.179 78.4609 154.298 76.9138 152.316 75.4703C148.87 72.9594 145.138 70.6515 141.029 69.4468C141.299 69.2249 141.569 69.003 141.841 68.7832C142.652 68.1214 143.405 67.5764 143.755 66.5555ZM158.892 57.7866C153.708 52.1076 146.529 47.9483 138.97 46.5026C131.751 45.1204 124.277 46.0313 117.457 48.7176C103.187 54.3395 91.9265 66.7016 86.6539 81.0267C83.5801 89.3729 82.5723 98.5223 83.496 107.357C84.4149 116.151 87.0565 125.233 91.8633 132.715C92.3039 133.399 92.7867 134.057 93.2926 134.693C93.0671 137.275 92.2069 139.807 90.8534 142.01C90.7807 142.128 90.704 142.243 90.6281 142.359C89.2421 143.4 87.8045 144.376 86.4011 145.384C85.1848 146.258 83.9811 147.154 82.8373 148.121C81.7577 149.034 80.504 150.051 79.773 151.284C79.1741 152.293 78.9295 153.666 79.7471 154.629C80.7323 155.789 82.4016 155.38 83.7361 155.38C83.8503 155.38 83.9644 155.382 84.0785 155.384C84.4792 155.636 84.892 155.865 85.2919 156.077C89.3334 158.224 93.3896 160.349 97.45 162.462C105.537 166.674 113.591 171.056 121.844 174.934C125.669 176.732 129.763 178.305 134.047 178.299C138.065 178.292 141.697 176.692 144.834 174.26C148.41 171.489 151.4 167.97 154.3 164.521C155.46 163.14 156.596 161.743 157.711 160.327C159.853 159.611 161.978 159.402 163.888 160.784C165.421 161.894 167.441 160.384 167.477 158.719C167.489 158.127 167.464 157.544 167.401 156.969C167.017 153.418 165.284 150.206 163.332 147.226C162.265 145.596 161.142 143.996 160.011 142.411C159.746 142.037 159.484 141.663 159.231 141.282C163.77 134.583 167.371 127.154 169.585 119.391C171.91 111.222 172.701 102.751 172.182 94.2868C171.385 81.3141 167.835 67.5848 158.892 57.7866Z" fill="black"/>
<path fill-rule="evenodd" clip-rule="evenodd" d="M143.152 128.274C141.732 127.695 140.465 126.728 139.538 125.493C139.216 125.063 139.133 124.61 139.2 124.195C139.276 123.729 139.552 123.306 139.928 123.023C140.305 122.739 140.777 122.598 141.233 122.67C141.63 122.732 142.024 122.949 142.337 123.399L142.402 123.489C142.953 124.235 143.67 124.846 144.488 125.241C145.276 125.621 146.158 125.798 147.07 125.695C148.808 125.499 150.005 124.559 151.278 123.282C151.436 123.121 151.594 122.955 151.752 122.786C151.852 122.633 151.991 122.534 152.146 122.483C152.317 122.425 152.511 122.429 152.689 122.491C152.86 122.55 153.013 122.664 153.116 122.815C153.213 122.958 153.269 123.135 153.251 123.339C153.134 124.661 152.443 125.842 151.461 126.769C150.37 127.799 148.924 128.511 147.563 128.761C146.064 129.036 144.536 128.839 143.152 128.274ZM148.271 107.866C149.866 108.836 152.297 111.098 150.581 113.503C148.56 115.624 145.652 113.193 144.219 112.093C142.889 111.241 141.396 113.433 142.629 114.428C152.986 122.099 157.19 108.12 149.078 106.726C148.184 106.572 147.853 107.566 148.271 107.866ZM129.711 98.9429C129.887 96.7541 133.219 96.257 133.551 98.423C133.847 100.363 133.498 102.145 132.624 103.892C131.79 105.561 129.692 104.783 129.533 103.263C129.32 101.226 129.601 100.304 129.711 98.9429ZM155.076 97.9739C155.541 97.3652 156.211 96.9497 157.015 97.1845C159.526 97.9185 158.786 101.485 157.904 103.22C157.425 104.163 155.876 104.402 155.176 103.572C154.035 102.219 153.489 99.5157 154.939 98.1825C154.979 98.1136 155.022 98.044 155.076 97.9739ZM132.589 89.3654L132.986 89.2959C134.213 89.0836 135.738 88.8796 136.606 89.8665C137.067 90.3898 137.225 91.3624 136.606 91.8633C135.518 92.7446 134.314 92.4031 133.01 92.4777C131.935 92.5394 130.902 92.7174 129.867 93.0135C127.595 93.6629 125.744 94.8486 123.804 96.1505C123.55 96.3213 123.29 95.9956 123.411 95.7574C124.531 93.563 126.701 91.7604 128.875 90.6616C130.036 90.0751 131.305 89.5885 132.589 89.3654ZM152.787 88.3823L153.091 88.4445C156.394 89.1353 160.687 90.5153 162.251 93.7615C162.311 94.2205 162.248 94.3189 162.197 94.3832L162.179 94.4046C162.137 94.4595 162.104 94.5351 161.905 94.5976C161.849 94.5845 161.794 94.5705 161.737 94.5557C161.02 94.3677 160.453 94.1087 159.904 93.84L159.308 93.5465C158.617 93.2076 157.92 92.881 157.181 92.6399C155.605 92.1255 153.983 91.7631 152.337 91.5696C151.98 91.5277 151.636 91.4072 151.365 91.2007C151.107 91.0046 150.911 90.7332 150.821 90.3724C150.705 89.9056 150.738 89.5521 150.989 89.1309C151.177 88.8146 151.447 88.5953 151.756 88.4694C152.071 88.3411 152.43 88.3108 152.787 88.3823Z" fill="black"/>
<path fill-rule="evenodd" clip-rule="evenodd" d="M167.178 109.153C164.613 111.805 160.331 112.566 156.919 111.144C148.156 107.481 152.445 96.0578 159.203 92.99C160.047 92.7795 161.175 92.2801 162.203 92.1668C162.296 92.1211 162.498 92.2532 162.744 92.1283C170.195 92.9606 171.892 104.532 167.178 109.153ZM138.915 109.832C136.039 113.649 130.69 114.827 126.32 113.052C117.687 109.651 120.749 99.5216 126.656 95.5503C139.133 90.8602 144.285 102.794 138.915 109.832ZM120.201 101.374C120.193 101.37 120.185 101.369 120.177 101.365C120.223 101.345 120.268 101.325 120.314 101.304C120.299 101.343 120.283 101.381 120.269 101.42C120.246 101.404 120.226 101.386 120.201 101.374ZM173.118 97.2481C172.413 97.2496 171.396 97.3654 170.813 97.8542C169.375 93.0031 164.067 88.5134 159.451 91.7872C155.817 92.9566 153.119 95.5501 151.586 98.9981C148.822 97.3533 144.476 98.0557 142.079 100.231C140.51 95.0418 136.646 93.2248 132.048 92.9566C127.029 92.1342 122.027 97.0103 120.466 100.922C119.168 100.774 117.229 100.361 116.008 101.162C108.084 99.0834 94.2302 97.9373 92.6193 99.0923C91.4713 99.533 90.8413 102.244 92.4448 102.39C93.8421 102.192 92.2817 100.404 93.6902 100.209C101.195 99.7433 108.481 101.255 115.906 101.89C116.569 102.782 118.711 103.08 119.854 102.722C118.054 109.357 121.939 113.872 127.761 115.224C136.775 117.296 144.617 109.229 142.26 100.838C144.991 99.4791 148.132 99.5374 151.106 100.253C146.136 118.554 175.598 117.733 170.997 98.4813C174.059 100.005 174.724 97.5556 173.118 97.2481Z" fill="black"/>
</svg>
