<svg width="240" height="324" viewBox="0 0 240 324" fill="none" xmlns="http://www.w3.org/2000/svg">
<path fill-rule="evenodd" clip-rule="evenodd" d="M186.455 183.205C183.523 169.306 173.122 158.521 159.135 153.148C156.446 151.627 153.84 145.099 150.226 143.904C149.647 143.712 150.561 145.237 150.226 145.328C149.031 145.653 147.692 145.687 146.373 144.514C144.015 142.417 143.275 136.292 141.841 133.523C134.28 118.922 115.4 124.635 112.871 140.776C111.107 141.926 108.614 142.939 106.695 143.866C104.718 144.82 102.979 147.131 100.942 147.957C99.1242 148.695 96.1292 148.172 94.2976 148.815C85.8735 151.771 78.7386 155.501 73.1448 163.059C71.9662 164.653 70.6375 166.613 69.5649 168.223C64.0352 174.591 60.1943 181.729 56.6569 189.387C46.7598 211.864 44.0679 236.752 41.6526 260.969C41.7076 265.207 38.8969 276.957 43.054 278.988C42.8055 279.246 42.8955 279.763 43.3565 279.759C53.8973 279.652 64.4136 280.596 74.7908 282.431C79.7976 283.316 84.7776 284.53 89.8776 284.73C100.464 284.657 111.013 282.882 121.586 284.561C134.296 284.561 149.743 284.191 163.884 283.647C177.099 283.139 190.385 284.286 203.436 282.038C204.47 281.875 204.974 280.614 204.758 279.711C203.226 274.129 202.475 268.384 201.615 262.671C201.786 259.007 201.48 255.181 200.125 251.768C196.585 228.727 192.045 205.837 186.455 183.205Z" fill="#D08B5B"/>
<path fill-rule="evenodd" clip-rule="evenodd" d="M150.226 145.413C150.561 145.322 149.647 143.796 150.226 143.988C153.84 145.184 156.446 151.711 159.135 153.233C173.122 158.605 183.523 169.39 186.455 183.289C192.045 205.921 196.585 228.812 200.125 251.853C201.48 255.266 201.787 259.091 201.615 262.756L201.75 263.658C202.556 269.073 203.307 274.507 204.758 279.795C204.974 280.699 204.47 281.959 203.437 282.123C190.533 284.345 177.401 283.249 164.334 283.715L161.611 283.817C148.104 284.313 133.619 284.645 121.586 284.645C111.013 282.966 100.465 284.741 89.8777 284.814C84.7777 284.614 79.7977 283.4 74.7908 282.515C64.4136 280.68 53.8973 279.737 43.3565 279.843C42.8956 279.848 42.8056 279.33 43.054 279.072C38.8969 277.041 41.7076 265.291 41.6527 261.054L41.871 258.872C44.2359 235.345 47.0568 211.274 56.6569 189.471L56.9444 188.852C60.4032 181.428 64.1847 174.504 69.5649 168.308L69.894 167.815C70.9018 166.309 72.0841 164.578 73.1449 163.144C78.7386 155.586 85.8736 151.856 94.2977 148.899C96.1292 148.257 99.1242 148.779 100.942 148.042C102.847 147.269 104.492 145.197 106.314 144.152V151.95L132.68 177.934L147.634 154.994L149.155 145.599C149.522 145.576 149.88 145.507 150.226 145.413Z" fill="#8FA7DF"/>
<path fill-rule="evenodd" clip-rule="evenodd" d="M182.19 213.491C181.911 214.845 181.521 216.2 181.001 217.483C180.5 218.722 179.746 219.831 179.226 221.055C179.157 221.22 179.043 221.344 178.905 221.439L178.948 221.772L178.988 222.105C179.247 224.352 179.538 226.592 179.79 228.838L179.913 229.961C180.409 234.651 181.193 239.318 181.802 243.995C182.397 248.575 183.004 253.155 183.652 257.728C184.322 262.444 185.004 267.152 185.801 271.849C186.137 273.832 186.488 275.814 186.854 277.794L187.136 279.309C190.043 280.009 190.838 284.063 187.878 285.559C186.534 286.235 184.808 286.073 183.701 285.01C182.55 283.902 182.503 281.904 182.235 280.404L181.978 279.01C180.053 268.526 178.383 257.922 177.602 247.29C177.401 244.545 177.232 241.797 177.122 239.047C177.018 236.461 177.068 233.874 177.028 231.288L177.014 230.583C176.953 227.824 177.004 225.07 177.076 222.312C177.084 221.976 177.099 221.64 177.116 221.302C177.019 221.188 176.949 221.053 176.919 220.922L176.881 220.748C176.786 220.302 176.894 219.78 177.236 219.461C177.384 217.582 177.578 215.706 177.631 213.829C177.635 213.674 177.857 213.679 177.87 213.829C177.995 215.427 178.244 217.029 178.493 218.629C180.097 217.339 181.282 215.213 181.981 213.434C182.032 213.305 182.22 213.351 182.19 213.491ZM144.251 138.795C144.517 140.012 145.043 141.105 145.749 142.122C146.085 142.608 146.467 143.06 146.925 143.439C147.319 143.762 147.767 143.973 148.185 144.254C148.793 144.159 149.429 144.39 149.856 144.838L149.788 144.183C149.767 143.971 150.118 143.929 150.158 144.134C152.006 153.459 153.692 162.79 155.151 172.183L155.791 176.331L156.393 180.225C157.392 186.713 158.358 193.2 159.086 199.736C160.056 208.458 160.871 217.204 161.467 225.962C162.065 234.782 162.433 243.608 162.695 252.445C162.76 254.672 162.83 256.898 162.897 259.125L163.349 256.462C163.799 253.798 164.241 251.132 164.619 248.456C165.978 238.88 167.064 229.236 167.594 219.578C168.08 210.739 167.917 201.725 165.669 193.114C165.103 190.948 164.41 188.815 163.574 186.738C162.762 184.717 161.655 182.845 160.783 180.854C159.768 178.538 159.464 176.352 159.986 173.858C160.443 171.686 161.243 169.642 161.387 167.406C161.655 163.255 160.305 159.235 158.398 155.602C157.895 154.644 157.364 153.7 156.811 152.763C155.136 149.933 153.247 147.207 151.286 144.593C151.181 144.453 151.404 144.299 151.519 144.413C153.306 146.18 155.26 147.917 156.868 149.847C157.649 150.785 158.412 151.742 159.135 152.725C167.062 154.051 173.873 158.99 178.529 165.512C183.813 172.914 186.485 181.822 188.463 190.595C190.662 200.345 192.517 210.183 194.493 219.981C196.537 230.12 198.572 240.258 200.63 250.395C201.652 255.427 202.675 260.459 203.695 265.493C204.213 268.042 204.756 270.585 205.324 273.125C205.616 274.427 205.929 275.727 206.199 277.033C206.503 278.506 206.22 279.449 205.223 280.531C204.855 280.933 204.274 280.926 203.818 280.713L203.675 280.646L203.537 280.579C202.973 280.301 202.53 280.014 202.179 279.396C201.792 278.718 201.73 277.965 201.598 277.211C201.352 275.822 201.109 274.434 200.864 273.043C200.498 270.963 200.1 268.889 199.695 266.816L197.662 256.455C197.12 253.693 196.577 250.93 196.03 248.169C194.08 238.295 192.128 228.423 190.176 218.55C188.302 209.071 186.644 199.527 184.51 190.102L184.389 189.572L184.266 189.041C182.358 180.917 179.692 173.058 174.855 166.174C171.133 160.879 165.963 156.151 159.874 153.759C160.303 154.376 160.715 155.006 161.108 155.648C163.576 159.681 165.378 164.468 164.955 169.27C164.748 171.616 163.857 173.922 163.941 176.287C164.019 178.388 165.319 180.233 166.217 182.061C168.255 186.203 169.73 190.606 170.681 195.122C172.588 204.191 172.582 213.522 171.925 222.729C171.211 232.736 169.855 242.742 168.31 252.652C167.518 257.735 166.464 262.775 165.656 267.85C165.257 270.352 164.714 272.848 164.239 275.338L164.012 276.528C163.885 277.188 163.754 277.846 163.602 278.497L163.508 278.887V278.956C163.504 279.436 163.373 279.834 163.161 280.151C162.872 281.078 162.513 281.983 162.036 282.852C161.79 283.295 161.435 283.545 161.049 283.636C160.66 284.526 159.779 285.21 158.727 285.206L144.891 285.153C136.854 285.121 128.818 285.069 120.781 285.024C118.753 285.014 116.727 284.976 114.701 284.923C112.802 284.87 110.981 284.642 109.102 284.405C106.981 284.139 105.832 282.636 106.149 280.516C106.219 280.049 106.295 279.584 106.367 279.119C105.944 279.259 105.441 279.193 105.101 278.861L104.782 278.549C104.34 278.112 103.945 277.682 103.664 277.098C103.375 276.498 103.14 275.864 102.885 275.251C102.333 273.933 101.797 272.61 101.275 271.28C100.229 268.621 99.1834 265.952 98.2114 263.266C96.287 257.946 94.5839 252.546 93.1032 247.085C90.4623 237.342 88.5522 227.41 87.348 217.39L87.0601 215.002L86.9764 214.297C86.5197 210.413 86.1354 206.469 86.317 202.593C86.4292 200.167 86.8051 197.722 87.7116 195.456C88.548 193.366 89.8389 191.578 91.0663 189.71L91.2068 189.494L91.348 189.273C92.4215 187.576 93.2757 185.802 93.3184 183.741C93.3618 181.65 92.7528 179.614 92.0718 177.656L91.9021 177.174L91.7882 176.854C90.3395 172.808 88.6909 168.818 89.2346 164.415C90.0377 157.931 93.967 152.704 98.9109 148.674C94.5142 149.545 90.1623 151.265 86.3215 153.446C81.7853 156.025 77.7015 159.427 74.1797 163.268C67.5248 170.525 62.7734 179.233 58.8841 188.224C54.8128 197.633 51.7938 207.493 49.5187 217.481C47.2306 227.526 45.6989 237.733 44.653 247.979C44.1313 253.079 43.7213 258.191 43.3813 263.306C43.2081 265.927 43.0771 268.552 42.8743 271.168C42.6715 273.783 42.5804 276.437 41.9424 278.982C41.6445 280.167 39.6353 280.288 39.4201 278.982C38.9423 276.065 39.0758 273.048 39.2092 270.094L39.2213 269.826C39.3525 266.884 39.5236 263.944 39.7262 261.004C40.1405 254.996 40.6938 248.995 41.4163 243.014C43.9494 222.019 48.6208 201.133 57.7834 181.968C62.0975 172.941 67.6349 164.17 75.3377 157.652C79.0051 154.551 83.1396 152.076 87.5952 150.284C91.5799 148.68 95.6278 147.921 99.8616 147.923C101.985 146.296 104.264 144.878 106.542 143.667C106.679 143.593 106.823 143.77 106.709 143.885C106.65 143.942 106.592 144.001 106.533 144.056C106.791 144.073 107.057 144.193 107.296 144.445C108.133 145.322 108.838 146.419 109.47 147.558C110.431 148.758 111.348 149.999 112.307 151.187C113.843 153.089 115.415 154.963 117.006 156.823C119.678 159.949 122.437 163.016 125.314 165.959L125.795 166.448C127.286 167.96 128.797 169.768 130.561 170.965L130.655 171.027C131.399 171.512 131.927 171.6 132.561 170.876C133.138 170.217 133.619 169.452 134.112 168.725L134.226 168.558C136.747 164.895 139.083 161.097 141.198 157.187C142.162 155.408 143.079 153.602 143.949 151.777L144.209 151.229C144.682 150.223 145.195 149.236 145.586 148.2C145.677 147.957 145.766 147.714 145.852 147.473C144.521 146.6 143.49 144.711 143.117 143.232C142.728 141.695 142.924 140.118 143.617 138.713C143.748 138.449 144.187 138.514 144.251 138.795ZM78.5913 201.234C78.4072 207.076 78.2954 212.924 78.0206 218.762L77.9257 220.755C78.3544 221.232 78.6058 221.784 78.4051 222.541C78.3271 222.83 78.0966 223.092 77.8093 223.19L77.7197 225.042C77.312 233.379 76.8341 241.698 75.9607 250.014C74.8685 260.421 73.6051 270.811 72.344 281.199C72.1644 282.67 71.1417 283.836 69.5509 283.621C67.9412 283.403 67.2884 282.002 67.4997 280.541C68.3299 274.812 69.1283 269.078 69.8278 263.329L70.6243 256.78C71.623 248.593 72.6452 240.407 73.8229 232.246C74.3152 228.835 74.8264 225.426 75.3396 222.016L75.1602 221.784C74.4269 220.831 73.6685 219.899 72.9185 218.96C71.4778 217.151 70.056 215.357 68.7356 213.463C68.6699 213.368 68.8032 213.228 68.898 213.301C70.7487 214.668 72.5004 216.13 74.2623 217.616L75.8046 218.922C76.6919 213.032 77.5708 207.139 78.3544 201.234C78.3736 201.087 78.5954 201.076 78.5913 201.234ZM105.213 145.328C104.099 146.378 102.961 147.406 101.839 148.45L101.428 148.834L101.019 149.22C99.0469 151.091 97.1576 153.038 95.5834 155.274C92.6933 159.381 90.9715 164.387 92.1734 169.401C93.1708 173.554 95.4588 177.318 96.0736 181.575C96.3818 183.707 96.232 185.85 95.429 187.864C94.6093 189.919 93.2994 191.679 92.1227 193.533C89.5663 197.561 89.2177 201.983 89.4715 206.649C89.7377 211.523 90.2973 216.399 90.9884 221.228C92.3868 231.014 94.4952 240.698 97.286 250.181C98.6827 254.93 100.333 259.578 101.974 264.244C102.792 266.567 103.745 268.835 104.727 271.092C105.244 272.28 105.775 273.461 106.314 274.64C106.115 272.975 106.115 271.265 106.018 269.611C105.878 267.239 105.701 264.872 105.538 262.503C105.207 257.695 104.911 252.882 104.647 248.07C103.711 230.908 103.022 213.732 103.073 196.543C103.098 187.947 103.274 179.351 103.643 170.764C103.817 166.72 104.152 162.68 104.456 158.642L104.52 157.777C104.788 154.152 105.109 150.519 105.661 146.926C105.498 146.558 105.356 146.184 105.251 145.802L105.213 145.658L105.24 145.662C105.215 145.55 105.207 145.438 105.213 145.328ZM114.843 130.559C114.866 130.46 115.007 130.468 115.033 130.559C115.66 132.672 115.438 134.997 114.898 137.123C114.606 138.275 114.192 139.393 113.691 140.471L113.516 140.848C113.087 141.766 112.604 142.712 111.768 143.284C111.42 143.523 110.797 143.538 110.448 143.284L110.27 143.149C110.241 143.127 110.212 143.103 110.184 143.079C109.859 142.807 109.698 142.204 109.848 141.807C110.235 140.782 111.112 140.03 111.718 139.116C112.255 138.305 112.73 137.449 113.125 136.559C113.976 134.634 114.359 132.59 114.843 130.559Z" fill="black"/>
<path fill-rule="evenodd" clip-rule="evenodd" d="M130.201 50.4504C139.64 50.4504 150.965 55.0377 151.928 55.1295L151.954 55.1308C152.46 55.1308 154.44 56.6427 157.892 59.6664L154.153 66.9778L154.455 67.2675C155.903 68.6593 157.14 69.9279 158.115 70.9279C166.083 79.0933 167.515 111.153 165.637 122.333C163.759 133.513 160.282 144.454 144.091 144.454C127.9 144.454 109.887 134.694 107.113 131.655C105.263 129.629 103.185 128.658 100.879 128.743C100.784 128.623 100.69 128.503 100.597 128.384L100.258 128.336C97.0666 127.872 94.78 127.249 93.3981 126.465C90.699 124.934 87.7322 116.886 87.7322 115.113C87.7322 113.358 83.3023 100.59 83.2137 99.2387L83.2123 99.2013C83.2123 98.0717 77.425 92.8794 77.425 91.2304C77.425 89.5814 76.2585 89.6814 77.425 83.8707L77.7639 82.1636C79.0053 75.9768 81.435 65.7324 90.699 61.2809C100.879 56.3891 120.667 50.4504 130.201 50.4504Z" fill="#D08B5B"/>
<path fill-rule="evenodd" clip-rule="evenodd" d="M156.624 62.2057C153.798 62.2914 150.546 62.4191 147.131 62.6091C141.939 62.898 136.377 63.3304 131.36 63.9783C126.328 64.6281 121.9 65.4877 118.944 66.6121C116.142 67.6784 113.778 70.2775 111.809 73.7332C109.849 77.1733 108.338 81.3604 107.197 85.4392C106.058 89.5127 105.294 93.448 104.815 96.3669C104.576 97.8256 104.408 99.0289 104.3 99.866C104.246 100.284 104.207 100.611 104.182 100.833C104.172 100.913 104.165 100.98 104.16 101.033C104.158 101.052 104.156 101.069 104.154 101.085L104.147 101.147C104.147 101.151 104.147 101.155 104.146 101.158C104.146 101.16 104.146 101.161 104.146 101.163V101.168L104.103 101.588L103.721 101.769L103.711 101.774C103.704 101.778 103.692 101.782 103.677 101.79C103.646 101.805 103.6 101.827 103.54 101.857C103.419 101.917 103.241 102.007 103.013 102.125C102.556 102.361 101.902 102.711 101.115 103.163C99.5406 104.068 97.4454 105.378 95.3545 106.999C94.3111 107.807 93.691 108.395 93.3379 108.812C93.2495 108.917 93.1816 109.005 93.1309 109.078L93.5118 109.098L93.4922 109.829V109.847L93.4912 109.904C93.4911 109.914 93.4908 109.924 93.4906 109.936C93.4896 109.985 93.4883 110.049 93.4873 110.128C93.4849 110.322 93.4828 110.605 93.4844 110.953C93.4877 111.65 93.5054 112.607 93.5635 113.649C93.6217 114.693 93.7201 115.811 93.8819 116.833C94.0456 117.867 94.2673 118.751 94.5498 119.355C94.767 119.819 95.3056 120.278 96.166 120.694C97.0052 121.099 98.0365 121.409 99.0616 121.64C100.081 121.87 101.065 122.016 101.797 122.104C102.162 122.148 102.463 122.178 102.671 122.196C102.775 122.205 102.855 122.211 102.909 122.216C102.921 122.216 102.932 122.217 102.941 122.218C102.953 122.219 102.962 122.22 102.97 122.22L102.984 122.221H102.988L103.51 122.255L103.659 122.756L104.974 127.168L105.015 127.305L105.002 127.448L104.793 129.799C104.323 129.524 103.84 129.306 103.345 129.145L103.495 127.459L102.367 123.672L102.313 123.666C102.12 123.648 101.885 123.626 101.617 123.594C100.853 123.501 99.8155 123.348 98.7315 123.103C97.6528 122.86 96.498 122.52 95.5137 122.045C94.5511 121.58 93.6285 120.926 93.1905 119.99C92.818 119.194 92.5709 118.144 92.4004 117.067C92.228 115.977 92.1263 114.804 92.0664 113.732C92.0065 112.659 91.9878 111.675 91.9844 110.961C91.9833 110.722 91.9849 110.513 91.9862 110.341L91.9864 110.317C91.7292 110.141 91.4671 109.827 91.4746 109.332C91.4821 108.841 91.7655 108.347 92.1924 107.843C92.6416 107.312 93.3535 106.651 94.4356 105.812C96.5965 104.138 98.754 102.791 100.368 101.863C101.176 101.399 101.85 101.038 102.323 100.793C102.467 100.718 102.593 100.654 102.698 100.601C102.724 100.376 102.762 100.063 102.813 99.6736C102.922 98.8219 103.093 97.6022 103.335 96.1248C103.82 93.1709 104.594 89.1786 105.753 85.0359C106.91 80.8986 108.459 76.58 110.505 72.99C112.542 69.4153 115.129 66.4584 118.411 65.2097C121.541 64.0191 126.117 63.1433 131.168 62.491C136.235 61.8367 141.837 61.401 147.048 61.1111C150.815 60.9015 154.383 60.7675 157.403 60.6819L156.624 62.2057Z" fill="#9DDADB"/>
<path fill-rule="evenodd" clip-rule="evenodd" d="M89.1276 61.0512C94.2047 55.6487 123.029 47.2924 137.611 49.0637L138.049 49.1205C139.213 49.2685 140.36 49.4925 141.492 49.7968C145.15 50.6534 148.929 51.9505 151.952 54.117C154.476 55.8894 162.437 58.7839 160.091 63.4205C160.961 65.073 161.286 67.1147 160.698 68.7423C160.624 69.3045 160.451 69.8223 160.23 70.3591C162.088 73.109 163.56 76.2188 164.751 79.1766C166.833 86.6206 168.129 94.3674 168.319 101.962C168.95 116.392 167.372 133.627 154.836 142.958C147.263 148.871 135.4 149.069 126.89 141.738C126.407 141.165 124.136 139.619 124.894 139.348C125.119 139.587 125.351 139.819 125.587 140.048C125.577 140.022 125.574 139.997 125.579 139.969L125.357 139.768C124.939 139.38 124.397 138.817 125.014 138.927C125.041 138.959 125.071 138.987 125.1 139.018C125.231 139.097 125.33 139.165 125.406 139.225L125.446 139.257L125.434 139.244C125.078 138.864 124.865 138.477 125.397 138.724L125.467 138.758C125.703 139.008 125.943 139.247 126.188 139.479C126.184 139.452 126.188 139.424 126.203 139.395L125.975 139.174C125.752 138.955 125.786 138.954 125.895 138.777C125.422 138.113 126.305 138.508 126.367 138.767C126.92 138.636 127.405 139.676 127.761 139.802C143.361 151.826 166.001 141.157 165.634 107.653L165.629 106.998C165.521 96.2844 164.622 85.2732 160.202 75.5752C159.772 74.6411 159.291 73.7323 158.762 72.853C158.398 72.1936 158.008 71.5511 157.588 70.9255C156.413 70.8304 155.254 70.6148 154.112 70.2809C153.719 70.1816 153.331 70.0717 152.944 69.9427C147.277 70.2526 141.736 70.5897 136.053 70.9092L134.278 71.0201C129.464 71.3303 124.486 71.8273 120.601 74.8123C116.79 77.5298 116.772 82.8886 113.509 85.8722C108.856 89.038 108.823 91.8927 107.927 96.5581C107.993 100.075 110.425 105.185 105.962 106.665C106.715 107.741 105.665 107.224 105.582 106.847C105.574 106.849 105.566 106.851 105.559 106.851C106.23 108.101 105.244 107.314 105.157 106.912C105.104 106.897 105.051 106.859 104.998 106.806C105.675 107.902 104.582 107.135 104.646 106.935C103.34 104.922 100.651 104.61 98.7558 105.143C98.7326 105.215 98.6485 105.221 98.5958 105.183C90.5367 106.934 92.616 123.66 100.875 122.043C101.228 121.97 101.22 122.141 101.29 122.157C101.099 121.655 101.637 121.859 101.631 121.965L101.664 121.963C101.69 121.961 101.68 121.958 101.699 121.965C101.514 120.938 102.552 122.425 102.47 122.487C102.502 122.468 102.538 122.457 102.57 122.453L102.534 122.355C102.362 121.895 102.377 122.086 102.378 121.823C102.248 121.497 102.239 121.64 102.269 121.427C102.724 121.074 102.858 122.146 103.01 122.224C102.75 121.861 102.957 121.564 103.202 121.761C105.062 125.684 107.465 129.369 110.57 132.272C110.91 132.54 111.254 132.805 111.61 133.054C112.93 134.207 114.956 134.949 116.193 135.971C116.193 135.988 116.185 136.009 116.172 136.03L116.2 136.055L116.229 136.083L116.659 136.29C116.786 136.398 116.899 136.518 117 136.651C117.108 136.776 117.203 136.913 117.283 137.059C117.323 137.237 117.235 137.311 117.066 137.235C116.992 137.209 116.918 137.18 116.845 137.152C116.849 137.158 116.851 137.163 116.855 137.167C116.879 137.204 117.043 137.584 116.854 137.522L116.832 137.514C116.728 137.476 116.625 137.433 116.524 137.393C116.644 137.543 116.754 137.706 116.851 137.843C116.954 137.951 117.017 138.078 117.043 138.222C117.038 138.302 116.994 138.336 116.914 138.325C116.792 138.285 116.672 138.243 116.551 138.198L116.586 138.264C116.671 138.432 116.791 138.713 116.577 138.619C116.393 138.562 116.216 138.496 116.039 138.424C116.024 138.454 115.995 138.465 115.936 138.437C115.373 138.236 114.829 137.991 114.308 137.702C113.851 137.368 113.389 137.04 112.93 136.708C112.497 136.448 112.08 136.159 111.682 135.833C109.015 134.107 106.681 131.914 104.83 129.472C101.733 132.16 95.5414 129.592 91.7114 127.487C88.3237 125.606 86.9921 122.128 86.6479 118.378C85.9321 113.33 81.8169 111.602 82.1032 100.525C82.0969 100.527 82.0903 100.527 82.0819 100.527C81.9322 100.483 81.787 100.424 81.6499 100.348C81.5087 100.28 81.3759 100.2 81.2513 100.102L81.0974 99.889C81.0175 99.8446 80.9458 99.7981 80.891 99.7516L80.8625 99.7883C80.7726 99.8972 80.833 99.7334 80.8383 99.7009L80.5709 99.3364C79.937 98.4687 79.2415 97.4952 78.675 96.7166L78.6572 96.7482C78.6444 96.7721 78.6376 96.7894 78.6436 96.7969C77.2954 94.855 76.0275 92.5095 75.6752 90.2387C75.2593 88.4896 75.4218 86.6872 75.7846 85.067C77.3403 79.3933 82.4363 66.5542 89.1276 61.0512ZM125.715 139.516L125.631 139.44L125.705 139.534C125.744 139.582 125.784 139.625 125.849 139.669C125.845 139.655 125.845 139.64 125.846 139.623C125.803 139.59 125.759 139.554 125.715 139.516ZM137.547 51.9146C127.658 51.0622 117.931 53.2463 108.494 55.8901L107.843 56.0776C102.477 57.6126 96.8036 58.9938 92.269 62.2792C85.9336 67.1438 82.6621 74.8826 79.8071 82.0278C77.3142 87.3365 78.5886 93.3225 82.3454 97.0294C82.7363 93.3458 83.4027 89.7699 84.4442 86.2228C84.6615 85.6687 84.4971 85.4871 84.9655 85.4149C85.673 94.9738 82.1884 102.036 89.0843 113.365C92.0765 118.711 88.6127 122.622 97.0625 125.435L97.2911 125.522C99.0515 126.188 100.974 126.714 102.698 126.342L102.544 126.09C102.386 125.83 102.338 125.704 102.567 125.593C102.561 125.581 102.553 125.568 102.544 125.553C102.359 125.202 102.18 124.847 102.009 124.488C101.939 124.511 101.87 124.528 101.798 124.547C101.845 124.634 101.851 124.721 101.72 124.75C101.256 124.91 100.779 124.974 100.29 124.944L100.185 124.936C99.6337 124.902 99.286 124.801 98.9751 124.708C98.872 124.691 98.7687 124.674 98.6673 124.653C97.6669 124.431 96.6079 123.865 95.9226 123.304C88.1099 118.856 88.9174 103.713 98.5473 102.281C98.7448 92.747 103.268 76.6616 110.776 67.5763C117.562 59.2193 136.088 55.5971 148.976 56.8743C149.164 56.9367 149.352 56.9997 149.54 57.0633C151.528 57.2404 153.423 58.1285 155.413 58.541C153.985 57.4676 152.364 56.7526 150.694 56.145C147.368 54.1052 143.555 53.0015 139.87 52.2231C139.107 52.035 138.334 51.9315 137.547 51.9146ZM98.1065 109.941C98.6243 109.659 98.5651 109.931 98.6842 109.852C102.409 109.547 106.425 112.816 108.506 115.542C108.342 115.713 107.897 115.205 107.819 115.125C107.809 115.136 107.796 115.144 107.783 115.148L107.841 115.23C108.685 116.444 107.012 115.016 106.856 114.722C106.828 114.736 106.801 114.745 106.769 114.738C106.902 114.869 107.307 115.209 107.376 115.451L107.484 115.54C108.496 116.409 108.412 117.063 107.263 115.829C107.29 115.886 107.3 115.939 107.281 115.981L107.321 116.008C107.886 116.404 108.351 117.507 107.17 116.374C107.293 117.202 105.999 115.602 105.958 115.613C103.719 113.852 100.423 112.139 97.6153 111.908L97.5187 111.897C97.0034 111.831 96.7598 111.678 96.9407 111.34C96.3061 111.189 96.4547 110.875 96.7552 110.886C96.3076 110.59 96.7105 110.308 96.9702 110.418C96.7916 109.923 97.5078 110.253 97.5732 110.184C97.9448 109.609 98.045 110.089 98.1065 109.941ZM90.2998 79.221C92.0886 78.5641 97.3725 80.5305 96.9498 83.1348C96.6981 83.7327 95.8687 84.0753 95.2858 83.7378L94.5249 83.2255C93.2009 82.3366 92.0068 81.5571 90.5853 80.7818C89.8116 80.397 89.4785 79.5799 90.2998 79.221ZM100.477 75.3509L99.7864 74.9002C96.0582 72.4541 90.7878 68.7477 100.135 72.5824C101.2 73.0404 102.615 73.3114 103.197 74.3284C104.11 76.2029 101.707 76.3288 100.477 75.3509ZM100.896 64.3757C100.597 63.2376 104.319 64.5731 105.403 64.9252L105.568 64.9877C106.622 65.3815 107.831 65.7468 108.461 66.6587C109.2 67.9188 107.705 68.1798 106.779 67.6106C104.88 66.3666 102.798 65.428 100.896 64.3757ZM110.362 59.074C108.267 56.7802 113.874 58.9776 114.714 59.5876L114.738 59.6056C115.365 60.0479 115.238 61.0007 114.649 61.2805C112.974 61.3124 111.741 59.9124 110.362 59.074ZM119.897 56.5608C116.566 54.1609 120.954 55.3024 122.478 56.2429C123.516 57.1613 122.446 58.7115 119.897 56.5608Z" fill="black"/>
<path fill-rule="evenodd" clip-rule="evenodd" d="M138.835 118.841C140.016 116.896 142.535 121.66 142.803 122.479C143.04 123.205 143.197 123.948 143.276 124.7C144.192 124.906 145.144 124.906 146.083 124.726C147.478 124.458 148.331 123.708 149.544 123.064C150.381 122.618 151.437 123.14 151.873 123.879C152.385 124.748 152.059 125.65 151.385 126.298C150.107 127.527 147.592 127.809 145.924 127.483C144.968 127.296 144.092 126.937 143.319 126.416C143.314 126.514 143.31 126.611 143.303 126.708L143.288 126.876C143.16 128.239 142.785 129.953 141.727 130.84C139.992 132.294 137.85 129.497 139.536 128.044L139.589 128C140.637 127.153 140.865 124.88 140.809 123.628C140.772 122.811 140.623 121.983 140.365 121.205L140.312 121.05C140.235 120.83 139.388 118.745 139.082 119.01L139.068 119.025C138.941 119.176 138.738 119 138.835 118.841ZM148.271 107.866C149.866 108.837 152.297 111.099 150.581 113.504C148.56 115.624 145.652 113.193 144.219 112.093C142.889 111.241 141.396 113.433 142.629 114.428C152.986 122.099 157.19 108.12 149.078 106.726C148.184 106.572 147.853 107.566 148.271 107.866ZM131.235 98.8995C132.794 98.6228 134.391 99.0106 135.682 99.9232L135.779 99.9936C137.022 100.903 138.413 102.5 137.7 104.067C137.413 104.697 136.556 104.796 136.012 104.51C135.106 104.035 134.942 102.866 134.134 102.219C133.471 101.689 132.579 101.367 131.726 101.445C129.72 101.627 128.487 103.605 127.864 105.31C127.785 105.528 127.464 105.613 127.339 105.379C125.871 102.633 128.47 99.3902 131.235 98.8995ZM156.209 97.8632C159.196 97.617 162.692 100.715 161.905 103.868C161.528 105.382 159.284 105.338 158.885 103.868C158.666 103.059 158.688 102.344 158.106 101.672C157.625 101.118 156.943 100.795 156.209 100.845C155.4 100.899 154.654 101.304 154.087 101.872C153.576 102.385 153.269 103.136 152.739 103.59C152.609 103.702 152.434 103.709 152.305 103.59C151.392 102.749 151.94 100.996 152.519 100.117C153.347 98.8597 154.696 97.9881 156.209 97.8632ZM125.547 93.306C127.463 91.6093 130.945 89.9707 133.528 90.8058C135.014 91.2857 135.661 93.6801 134.003 94.4391C132.083 95.3179 129.869 94.9603 127.915 95.8712C127.094 96.254 126.322 96.7322 125.75 97.4337C125.3 97.9866 124.842 98.7141 124.191 99.0328C124.02 99.1167 123.788 99.1188 123.651 98.9633C122.224 97.3481 124.301 94.4095 125.547 93.306ZM152.916 90.7215C154.1 90.3891 155.414 90.3958 156.617 90.6047C157.819 90.8135 159.04 91.3121 160.022 92.0393L160.136 92.1245C161.208 92.9324 162.487 94.108 162.418 95.5393C162.361 96.7345 161.104 97.5429 160.019 96.9164C159.134 96.4056 158.718 95.3822 157.969 94.7008C157.351 94.1384 156.625 93.695 155.851 93.3843C154.99 93.0392 154.129 92.8775 153.205 92.8621C152.495 92.8503 151.779 93.0836 151.082 93.1582C151.139 93.2761 150.588 93.2212 150.272 93.1166C150.038 93.0168 150.036 92.7207 150.118 92.5286C150.52 91.5769 151.984 90.9828 152.916 90.7215Z" fill="black"/>
</svg>
