<svg width="240" height="324" viewBox="0 0 240 324" fill="none" xmlns="http://www.w3.org/2000/svg">
<path fill-rule="evenodd" clip-rule="evenodd" d="M127.586 126.849C133.74 127.153 143.324 129.792 143.803 131.479C144.551 134.113 142.943 143.989 145.632 149.309C146.778 151.576 151.131 151.373 152.817 152.112C158.46 154.583 175.165 159.269 178.61 165.17C179.99 167.534 188.47 196.867 192.976 211.832C193.484 213.519 194.058 215.079 194.682 216.525L194.911 215.402C196.748 206.357 197.667 200.881 197.667 198.975C197.667 195.997 195.292 183.43 197.667 180.234C200.018 177.07 205.684 174.483 208.234 174.432L208.31 174.431C209.984 174.431 211.436 173.908 212.667 172.861L214.472 171.953C223.653 167.344 229.018 164.816 230.565 164.368C233.033 163.654 237.234 165.175 235.134 167.459C233.733 168.981 230.214 171.674 224.577 175.538L222.451 177.227L222.708 177.361C225.455 178.808 227.07 180.026 227.554 181.015C228.052 182.034 227.813 183.24 226.836 184.631L226.985 184.776C228.219 185.988 228.837 186.802 228.837 187.216V189.238C230.065 191.038 230.373 192.539 229.758 193.742C229.144 194.944 228.17 195.986 226.836 196.867C225.854 199.453 224.683 201.293 223.326 202.389C221.968 203.484 219.621 204.395 216.285 205.123L213.267 212.343L210.821 222.487L209.588 233.806L209.946 234.065C211.605 235.273 212.667 236.169 212.667 237.095C212.667 238.537 205.975 272.454 195.563 273.972C193.311 274.301 181.633 272.69 177.799 269.57L177.855 269.907C178.757 275.358 178.566 278.189 177.283 278.4C161.504 280.988 116.69 281.787 42.8422 280.799C42.4029 241.589 44.3896 215.475 48.8024 202.459C60.0883 169.168 72.5315 157.798 76.8848 156.824C80.698 155.971 93.9209 150.706 97.6173 149.309C100.03 148.397 100.547 145.662 103.297 145.662L103.519 145.663C106.178 145.69 108.536 146.165 109.861 144.797C113.337 141.207 112.366 136.237 113.808 131.479C114.603 128.857 120.033 126.476 127.586 126.849Z" fill="#D08B5B"/>
<path d="M103.297 145.662L103.519 145.663C104.176 145.67 104.815 145.704 105.424 145.73L104.14 150.107L104.113 150.567C103.279 165.656 110.665 172.879 126.271 172.236C141.877 171.594 149.639 166.656 149.558 157.422L149.553 157.141L149.554 151.395L149.799 151.442C150.984 151.664 152.125 151.809 152.817 152.112C158.46 154.583 175.165 159.269 178.61 165.17C179.99 167.534 188.47 196.867 192.976 211.832C193.141 212.379 193.312 212.912 193.49 213.433L193.49 216.39L193.441 216.57C191.862 222.479 193.965 227.31 199.749 231.064C203.85 233.724 208.061 235.451 212.382 236.245C212.568 236.532 212.667 236.812 212.667 237.095C212.667 238.537 205.975 272.454 195.563 273.973C193.311 274.301 181.633 272.691 177.799 269.57L177.855 269.907L177.908 270.231C178.749 275.471 178.541 278.194 177.283 278.4C161.504 280.988 116.69 281.787 42.8422 280.799C42.4029 241.589 44.3896 215.475 48.8024 202.459C60.0883 169.168 72.5315 157.798 76.8848 156.824C80.698 155.971 93.921 150.706 97.6173 149.309C100.03 148.397 100.547 145.662 103.297 145.662Z" fill="#BA98DE"/>
<path fill-rule="evenodd" clip-rule="evenodd" d="M110.677 136.25C111.038 135.534 111.997 135.626 112.63 135.951C114.528 137.339 112.542 140.03 112.017 141.723C110.666 145.009 108.321 148.219 105.083 149.755C105.351 153.02 105.655 156.279 105.768 159.555C109.907 164.692 116.887 166.567 123.083 168.008C132.814 170.701 143.797 165.185 147.081 155.562C143.343 153.438 142.133 147.874 143.249 143.993C143.346 143.721 143.768 143.6 143.918 143.904C144.942 146.011 144.805 148.58 145.969 150.661C157.138 151.73 171.553 155.946 178.87 164.982C182.113 169.503 183.398 175.383 184.995 180.622C188.403 191.424 191.118 202.444 194.46 213.257L194.854 211.211C195.934 205.575 196.915 199.863 196.185 194.132L196.172 193.857C195.934 189.297 194.507 180.822 198.043 177.743C201.241 175.299 205.874 173.334 209.887 174.461C217.028 171.282 223.192 165.928 230.798 163.843C233.139 163.361 236.506 163.932 235.953 167.109C234.42 172.665 227.998 174.822 223.608 177.687C226.422 178.449 229.853 181.873 227.654 184.858C227.635 184.911 227.618 184.951 227.601 184.982C229.384 185.773 229.634 187.76 229.196 189.463C229.152 189.913 229.034 189.526 229.298 189.934C231.31 191.832 230.421 197.123 227.39 197.302C227.588 199.809 225.979 202.243 223.94 203.611C221.743 205.084 218.565 205.147 216.746 207.164C212.475 214.698 211.002 223.592 210.536 232.22C213.352 233.274 215.878 236.427 213.32 239.102C213.269 239.108 213.219 239.114 213.168 239.118C211.685 243.077 211.112 247.297 210.328 251.431C209.121 258.486 205.977 264.963 201.962 270.84C197.319 278.619 184.833 277.386 178.543 272.365C178.568 273.682 178.785 274.992 178.363 276.264C177.741 277.638 176.223 277.045 176.073 275.692C172.748 277.563 171.965 271.388 175.661 272.367C175.377 267.903 175.212 263.433 175.078 258.961C170.894 260.316 170.713 253.371 174.994 254.76L174.989 252.84C174.957 238.117 175.12 223.343 177.062 208.736C177.242 207.643 177.546 206.587 177.723 205.5C177.742 205.388 177.918 205.42 177.918 205.528C178.219 225.978 176.883 246.472 178.277 266.929C179.437 267.283 179.9 268.615 180.759 269.391C182.667 271.153 185.264 272.011 187.805 272.31C194.918 273.308 197.989 271.134 201.157 264.949C199.728 265.904 197.798 264.217 198.668 262.706L198.696 262.66C199.6 261.058 202.154 262.018 201.831 263.812C205.016 258.71 206.682 252.957 207.914 247.119L208.08 246.422C208.678 243.944 209.455 241.104 210.892 238.862C202.128 236.628 193.556 229.82 192.184 220.48C189.959 227.473 186.945 234.309 184.072 241.111C183.184 243.476 182.815 246.018 181.543 248.212C181.247 248.719 180.497 248.588 180.33 248.053C179.186 242.937 182.652 238.071 184.452 233.466C185.921 230.863 190.139 218.978 192.755 218.949C189.816 206.063 185.896 193.274 182.163 180.549C178.554 163.366 171.198 160.053 155.616 154.643C158.426 168.972 171.259 182.842 164.43 197.871L164.264 198.26C163.566 199.918 162.986 201.587 163.473 203.406C163.946 205.171 165.024 206.703 165.886 208.29C170.705 217.256 167.388 227.727 165.525 237.063C163.171 248.013 160.846 258.972 158.413 269.905C157.934 272.086 157.623 274.333 156.899 276.446C156.525 277.537 154.659 277.433 154.78 276.161C155.01 273.693 155.703 271.285 156.21 268.861C159.239 253.166 163.338 237.656 165.944 221.893C167.621 210.224 161.021 208.431 161.267 200.891C162.164 197.035 164.539 193.594 164.403 189.484C164.93 176.905 155.771 166.528 154.641 154.294L152.644 153.582C151.646 153.224 150.65 152.864 149.656 152.495C154.886 189.085 153.298 226.475 150.683 263.245C150.149 264.942 150.657 282.29 148.418 281.238C148.305 281.9 147.953 282.551 147.189 282.548C140.244 282.612 133.298 282.721 126.353 282.804C123.013 282.496 118.422 283.772 115.581 281.844C112.3 280.908 111.923 266.525 111.046 263.357L110.704 261.054C105.13 223.41 100.142 184.99 104.149 146.974C98.5743 147.188 97.4238 153.207 97.0103 157.589C95.9766 167.261 89.7298 175.59 89.4302 185.373C89.4049 187.747 89.8528 190.046 90.8011 192.225C93.3173 197.565 97.669 203.737 94.4166 209.7C90.57 214.342 90.903 215.564 92.3145 221.301C96.2857 240.266 102.881 258.498 109.154 276.783C107.791 283.89 99.5922 257.506 98.8209 255.516C95.1915 257.342 93.209 251.283 97.3718 250.852C94.698 241.899 92.2373 232.878 90.1887 223.759L90.1344 223.502C89.2295 219.288 87.4495 214.354 90.4553 210.617C98.2059 202.776 85.3348 194.012 86.9584 184.513C85.5564 185.553 83.4342 184.459 83.4661 182.713C83.4026 180.746 86.043 179.739 87.3135 181.239C88.6199 173.533 93.1648 166.805 94.5401 159.121L94.6023 158.76C95.0683 156.045 95.1997 153.187 96.5331 150.712C94.718 151.891 92.7852 152.845 90.7971 153.686C94.3517 156.656 87.4684 159.367 88.038 154.778C68.5447 160.42 64.1388 168.288 56.9816 186.356C58.3185 185.057 60.6087 186.738 59.8084 188.396C59.17 190.141 56.3848 189.631 56.3859 187.77L56.0597 188.548C51.7197 198.93 47.7695 209.563 45.7845 220.673C49.6785 220.123 48.6871 226.349 45.1589 224.594C43.743 234.474 43.7206 244.495 43.8936 254.455C47.1782 252.732 47.2771 258.587 43.9253 256.918C44.0478 265.08 44.2274 273.242 44.3626 281.405C44.3901 283.142 41.7112 283.134 41.669 281.405C41.3561 268.863 40.7859 256.298 41.0569 243.753C40.8019 221.978 47.0592 200.991 56.3825 181.486C64.6319 159.027 76.0268 156.472 96.9915 149.942C98.9267 147.069 103.061 144.351 106.435 146.155C108.322 143.108 109.28 139.497 110.677 136.25ZM74.7577 214.525C74.8359 214.248 75.231 214.318 75.2436 214.591C75.419 218.114 75.2626 221.66 75.0218 225.198C74.8758 227.358 74.6965 229.516 74.5443 231.661C74.1408 237.321 73.8155 242.988 73.5683 248.658C73.6549 248.622 73.7436 248.59 73.8366 248.565C74.2634 248.449 74.6903 248.449 75.1169 248.565C75.4974 248.671 75.8302 248.857 76.1167 249.126L76.1774 249.184C76.4119 249.402 76.5788 249.66 76.676 249.958C76.8145 250.223 76.8845 250.507 76.8844 250.81L76.8829 250.886C76.881 251.321 76.7732 251.725 76.5535 252.101C76.3401 252.462 76.0528 252.75 75.6915 252.965C75.3155 253.183 74.9117 253.291 74.4767 253.293C74.4303 253.297 74.3836 253.301 74.3373 253.304C74.0138 253.316 73.7119 253.249 73.4329 253.103L73.3908 253.09C73.2852 255.967 73.1986 258.845 73.1352 261.724C73.0781 264.232 73.0021 266.741 72.9514 269.25L72.9278 270.505L72.8819 273.278C72.8669 274.419 72.8742 275.511 72.4866 276.587L72.4401 276.711C72.1612 277.429 71.9438 278.429 71.1976 278.828C70.6021 279.147 69.7993 279.029 69.457 278.408C69.1697 277.888 69.4188 277.139 69.8436 276.789C69.8352 276.766 69.8225 276.744 69.8119 276.721C69.7465 276.531 69.6469 276.351 69.588 276.159C69.4019 275.55 69.4528 274.901 69.4507 274.269C69.4507 273.154 69.4885 272.038 69.5183 270.924C69.5838 268.552 69.6598 266.183 69.7526 263.814C70.0666 255.866 70.6579 247.918 71.3351 239.993L71.5649 237.318C71.8711 233.761 72.188 230.2 72.6366 226.661C72.6575 226.492 72.6788 226.323 72.7021 226.153C72.4612 226.033 72.2373 225.866 72.0596 225.68C71.3479 224.932 70.9161 223.815 70.5113 222.852L70.4183 222.632C69.9788 221.605 69.5732 220.565 69.3641 219.462L69.344 219.361C69.2486 218.891 69.0603 218.058 69.5584 217.831C69.8183 217.712 69.9829 217.797 70.0676 218.057C70.0784 218.09 70.0695 218.129 70.0507 218.158C70.2556 218.473 70.5767 218.767 70.7796 219.058L71.4737 220.051L71.8169 220.55C72.2521 221.191 72.7169 221.804 73.1965 222.408C73.5744 219.754 74.0373 217.11 74.7577 214.525ZM103.224 273.68C104.092 272.999 105.506 273.369 105.506 274.625C105.506 275.886 104.09 276.25 103.224 275.569L103.181 275.537L103.139 275.504C102.668 275.135 102.652 274.175 103.104 273.775L103.139 273.745C103.167 273.722 103.194 273.701 103.224 273.68ZM65.4724 271.228C65.8654 271.228 66.2309 271.327 66.571 271.526C66.7189 271.638 66.8647 271.752 67.0126 271.867C67.283 272.137 67.4689 272.458 67.5724 272.828L67.6508 273.407C67.6612 273.707 67.5999 273.986 67.4626 274.246C67.3739 274.517 67.2239 274.751 67.0126 274.948C66.814 275.161 66.5816 275.312 66.3114 275.398C66.073 275.524 65.8188 275.588 65.547 275.588L65.4724 275.586C65.0776 275.586 64.7119 275.487 64.3717 275.288C64.2239 275.176 64.0781 275.062 63.9302 274.948C63.6619 274.677 63.4739 274.356 63.3705 273.986C63.345 273.794 63.3198 273.599 63.2922 273.407C63.2818 273.107 63.345 272.828 63.4802 272.568C63.5689 272.297 63.7189 272.063 63.9302 271.867C64.129 271.653 64.3612 271.503 64.6316 271.416C64.8698 271.29 65.1258 271.227 65.3978 271.226L65.4724 271.228ZM164.295 267.208L164.849 267.282C165.379 267.403 165.805 267.794 166.091 268.24C166.243 268.479 166.325 268.736 166.338 269.013C166.399 269.288 166.386 269.565 166.3 269.842C166.236 270.112 166.112 270.349 165.928 270.55C165.865 270.649 165.791 270.74 165.706 270.82C165.533 271.11 165.271 271.3 165.001 271.494C164.773 271.64 164.525 271.719 164.259 271.731C164.084 271.778 163.906 271.778 163.729 271.731C163.465 271.719 163.217 271.64 162.989 271.494C162.854 271.391 162.719 271.285 162.586 271.182C162.468 271.044 162.358 270.903 162.254 270.755C162.185 270.592 162.117 270.431 162.049 270.271C161.925 269.884 161.986 269.542 162.054 269.155C162.064 269.089 162.081 269.03 162.104 268.967L162.15 268.844C162.272 268.523 162.336 268.414 162.552 268.134L162.634 268.024C162.675 267.969 162.717 267.916 162.766 267.868C162.901 267.728 163.093 267.612 163.245 267.492C163.57 267.303 163.921 267.21 164.295 267.208ZM92.6372 265.856C92.9436 265.858 93.2311 265.934 93.4971 266.088L93.8436 266.357C94.0548 266.57 94.2006 266.819 94.283 267.109C94.302 267.261 94.3234 267.413 94.3443 267.563C94.3527 267.798 94.3043 268.018 94.1964 268.223C94.129 268.434 94.0105 268.616 93.8436 268.772C93.6896 268.937 93.5055 269.055 93.2943 269.125C93.1099 269.221 92.9115 269.272 92.7008 269.272L92.6372 269.271C92.3288 269.271 92.0415 269.193 91.7753 269.038L91.4288 268.772C91.2175 268.559 91.0717 268.307 90.9893 268.018C90.9703 267.866 90.9492 267.715 90.9281 267.563C90.9196 267.329 90.9682 267.109 91.076 266.906C91.1457 266.695 91.2619 266.511 91.4288 266.357C91.583 266.19 91.7668 266.071 91.9781 266.004C92.1625 265.907 92.3572 265.857 92.5668 265.855L92.6372 265.856ZM78.6239 265.156C79.0653 265.152 79.5134 265.277 79.8746 265.532C80.2253 265.781 80.4913 266.05 80.6627 266.454C80.7091 266.564 80.7554 266.671 80.7958 266.781C80.9775 267.265 81.0113 267.751 80.7599 268.225C80.5169 268.683 79.993 268.884 79.5237 269.021C79.1268 269.14 78.6768 269.159 78.2817 269.017C78.0852 268.948 77.893 268.874 77.7155 268.766C77.3838 268.561 77.2042 268.318 76.9824 268.018C76.8092 267.722 76.7225 267.4 76.7225 267.058C76.7225 266.713 76.8092 266.395 76.9824 266.097C77.3223 265.515 77.9521 265.16 78.6239 265.156ZM56.2295 265.564C56.7874 265.564 57.2774 265.822 57.6135 266.257C57.9534 266.699 58.0781 267.248 57.9281 267.796C57.7696 268.375 57.2903 268.882 56.6964 269.028C56.2572 269.136 55.8978 269.132 55.4605 269.057C55.0908 268.994 54.8079 268.774 54.5246 268.546C54.2013 268.282 54.102 267.8 54.1548 267.411C54.2055 267.022 54.3853 266.769 54.6579 266.538L54.6598 266.532L54.5584 266.61C54.5966 266.576 54.6344 266.54 54.6727 266.504C54.6851 266.483 54.6957 266.46 54.7062 266.437C54.8626 266.171 55.0739 265.961 55.3379 265.805C55.6147 265.644 55.9105 265.564 56.2295 265.564ZM186.284 259.162C186.59 259.08 186.898 259.08 187.205 259.162C187.431 259.215 187.627 259.319 187.794 259.473C187.964 259.583 188.102 259.724 188.206 259.899L188.24 259.959C188.481 260.369 188.519 260.838 188.415 261.295C188.287 261.859 187.767 262.373 187.205 262.506L187.186 262.509L187.167 262.514C186.939 262.586 186.708 262.597 186.48 262.544C186.25 262.533 186.036 262.466 185.84 262.339C185.591 262.178 185.382 261.971 185.221 261.722C185.094 261.523 185.027 261.31 185.016 261.079C184.976 260.927 184.976 260.775 185.016 260.623C185.027 260.392 185.094 260.179 185.221 259.98L185.491 259.631L185.519 259.608C185.735 259.392 185.99 259.244 186.284 259.162ZM165.013 247.978C167.783 247.978 167.779 252.276 165.013 252.276C162.244 252.276 162.248 247.978 165.013 247.978ZM63.6089 247.434C63.9007 247.369 64.1922 247.382 64.4817 247.472C64.657 247.546 64.8303 247.62 65.0035 247.692L65.4472 248.035C65.5296 248.104 65.5697 248.18 65.6458 248.28L65.7409 248.404C65.8783 248.588 65.8815 248.627 66.0324 249.019C66.1338 249.396 66.1338 249.772 66.0324 250.148C65.9836 250.33 65.9099 250.501 65.8148 250.66C65.7279 250.812 65.6239 250.945 65.5068 251.068L65.4472 251.129C65.2486 251.342 65.0141 251.492 64.7437 251.581C64.5725 251.681 64.3887 251.729 64.1922 251.729C63.9007 251.794 63.6089 251.782 63.3197 251.691C63.1444 251.617 62.9711 251.543 62.7977 251.471L62.3542 251.129L62.012 250.685L61.9028 250.425L61.7922 250.163L61.7141 249.582C61.7035 249.279 61.7648 249 61.9019 248.738C61.9547 248.554 62.0479 248.392 62.1829 248.256C62.2803 248.092 62.4111 247.961 62.5761 247.863C62.7111 247.728 62.8739 247.635 63.0577 247.582C63.2289 247.483 63.4127 247.434 63.6089 247.434ZM200.599 244.363C200.83 244.355 201.045 244.403 201.244 244.509C201.313 244.533 201.381 244.562 201.446 244.596C201.702 244.746 201.905 244.949 202.055 245.203C202.177 245.397 202.245 245.606 202.256 245.832C202.301 246.036 202.297 246.241 202.242 246.445L202.224 246.507C202.177 246.674 202.108 246.828 202.015 246.969C202.006 246.986 201.996 247.003 201.983 247.018C201.842 247.242 201.653 247.426 201.421 247.563C201.163 247.711 200.887 247.787 200.587 247.79C199.989 247.79 199.473 247.466 199.158 246.969C199.114 246.9 199.089 246.811 199.057 246.739C199.03 246.671 198.985 246.585 198.962 246.507C198.882 246.206 198.882 245.906 198.962 245.606C199.015 245.386 199.114 245.194 199.264 245.031C199.384 244.848 199.543 244.702 199.739 244.596C199.983 244.454 200.245 244.378 200.523 244.365L200.599 244.363ZM83.6583 242.261C83.9508 242.181 84.2417 242.174 84.5323 242.242L84.605 242.261C84.8372 242.315 85.0381 242.421 85.2111 242.578C85.4034 242.704 85.5578 242.871 85.6696 243.078C85.8303 243.355 85.9106 243.655 85.9125 243.976C85.9106 244.298 85.8303 244.598 85.6696 244.875C85.5111 245.143 85.2977 245.355 85.0296 245.513L84.7972 245.625C84.6029 245.748 84.3958 245.813 84.1717 245.824C84.0219 245.864 83.8717 245.864 83.724 245.824C83.5717 245.824 83.4301 245.786 83.2994 245.71C83.1557 245.67 83.0329 245.598 82.9273 245.492C82.7435 245.374 82.6001 245.217 82.4944 245.021L82.3231 244.617L82.2641 244.169L82.3231 243.723L82.4163 243.503C82.5005 243.201 82.6529 242.939 82.8745 242.717C83.0963 242.497 83.3583 242.345 83.6583 242.261ZM188.43 238.695C188.739 238.598 189.045 238.585 189.351 238.653C189.558 238.653 189.753 238.706 189.932 238.811C190.129 238.866 190.298 238.963 190.442 239.107C190.693 239.27 190.889 239.485 191.035 239.754L191.267 240.306C191.407 240.663 191.356 241.189 191.272 241.548C191.202 241.844 191.067 242.102 190.866 242.322C190.765 242.493 190.63 242.628 190.458 242.73C190.263 242.908 190.037 243.035 189.781 243.11L189.711 243.129L189.685 243.135C189.681 243.137 189.677 243.137 189.673 243.137C189.67 243.14 189.666 243.14 189.664 243.14C189.563 243.165 189.459 243.18 189.351 243.184C189.045 243.252 188.739 243.239 188.43 243.142C188.249 243.066 188.065 242.987 187.881 242.909C187.725 242.791 187.57 242.67 187.414 242.55C187.294 242.394 187.173 242.237 187.053 242.083C186.884 241.819 186.793 241.531 186.78 241.225C186.725 241.02 186.725 240.817 186.78 240.612C186.78 240.403 186.833 240.21 186.936 240.031C187.03 239.743 187.188 239.496 187.414 239.287C187.57 239.166 187.725 239.046 187.881 238.927C188.065 238.849 188.249 238.771 188.43 238.695ZM53.6838 231.129C54.0026 231.042 54.3218 231.042 54.6409 231.129L55.0695 231.308C55.2808 231.422 55.4479 231.577 55.5747 231.773C55.7352 231.946 55.8428 232.152 55.8977 232.386C56.0225 232.707 56.0078 233.217 55.9085 233.544C55.7965 233.916 55.6233 234.212 55.3549 234.491C54.9092 234.952 54.2245 235.085 53.6183 234.946C53.4512 234.908 53.2928 234.834 53.1491 234.743C52.6909 234.46 52.3824 233.965 52.3845 233.418C52.3845 233.358 52.3887 233.299 52.3972 233.24C52.3676 233.12 52.3568 232.995 52.3613 232.864L52.4247 232.386L52.4287 232.374C52.5134 232.071 52.6655 231.809 52.8871 231.587C53.0921 231.384 53.3311 231.237 53.6042 231.149L53.6733 231.129H53.6838ZM213.104 183.67C212.527 178.937 210.357 173.844 203.739 176.624L203.247 176.808C201.609 177.428 199.701 178.243 198.704 179.675C198.018 180.662 198.25 182.575 198.155 183.727C197.723 187.472 197.955 191.212 198.405 194.941C198.985 203.683 197.148 212.739 193.49 220.684C197.151 226.609 202.05 232.136 208.733 234.605C209.016 227.868 210.334 221.255 211.737 214.681L211.793 214.395C212.354 211.431 212.635 208.388 214.581 205.923C218.539 201.623 223.984 204.057 226.589 197.15C226.042 196.873 226.344 195.926 227.004 196.108C229.289 196.514 229.66 192.276 228.096 191.255C226.466 190.261 228.107 188.428 227.413 187.104C227.027 186.534 226.192 186.515 225.814 185.857C224.811 183.437 229.829 181.887 223.928 179.159C222.72 178.729 221.37 178.996 220.152 178.991C218.36 179.158 216.936 180.421 215.297 180.819C217.081 185.441 212.579 189.891 208.515 186.2C206.304 188.291 203.831 193.057 209.206 190.835C211.837 189.078 214.102 186.808 217.156 185.726L217.221 185.706C218.355 185.334 223.316 182.923 223.07 185.01C221.212 186.804 218.147 186.783 215.995 188.24C213.011 189.62 211.103 192.965 207.531 192.918C206.707 197.92 212.381 194.877 214.494 193.498L215.08 193.18C218.06 191.569 221.086 190.077 224.561 190.057C225.52 190.051 225.516 191.53 224.561 191.543C220.032 191.571 216.345 194.403 212.551 196.509C212.177 199.429 216.451 198.151 218.073 197.72C219.774 197.481 222.505 195.641 223.993 196.613C224.575 198.109 222.014 197.998 221.122 198.452C225.193 200.408 221.626 201.64 220.534 198.634L220.215 198.743C217.488 199.659 210.877 201.546 211.664 196.926C210.666 197.368 209.449 197.632 208.346 197.387C205.597 201.455 201.211 199.881 207.586 197.108C206.149 196.439 205.669 193.858 207.049 192.898C202.031 192.591 205.757 187.324 207.834 185.569C207.638 185.37 207.448 185.168 207.271 184.963C206.073 185.534 204.814 185.881 203.468 186.003C202.18 186.119 201.892 183.926 203.164 183.746C204.527 183.554 205.782 183.19 206.982 182.505C208.8 181.72 209.421 185.095 211.241 185.215C212.234 185.411 212.905 184.541 213.104 183.67ZM170.855 227.227C171.294 227.227 171.685 227.411 172.004 227.703C172.323 227.994 172.46 228.432 172.479 228.85C172.488 229.074 172.441 229.284 172.34 229.478C172.275 229.679 172.163 229.852 172.004 230C171.708 230.294 171.271 230.476 170.855 230.476C170.416 230.476 170.025 230.292 169.706 230C169.387 229.706 169.249 229.271 169.23 228.85C169.222 228.628 169.268 228.419 169.37 228.225C169.429 228.044 169.525 227.884 169.659 227.747L169.706 227.703C170.001 227.407 170.439 227.227 170.855 227.227ZM184.17 217.204L184.241 217.205C184.613 217.207 184.957 217.3 185.278 217.486C185.417 217.594 185.557 217.699 185.694 217.807C185.95 218.065 186.125 218.367 186.223 218.716C186.322 219.08 186.322 219.445 186.223 219.809C186.189 220.018 186.111 220.221 185.988 220.396C185.806 220.698 185.566 220.942 185.261 221.121C184.946 221.305 184.606 221.396 184.241 221.398C183.875 221.396 183.535 221.305 183.22 221.121C182.916 220.942 182.675 220.698 182.496 220.396C182.371 220.221 182.293 220.018 182.259 219.809C182.16 219.445 182.16 219.08 182.259 218.716C182.349 218.392 182.507 218.108 182.734 217.863L182.787 217.807C182.973 217.607 183.193 217.465 183.448 217.382C183.673 217.264 183.914 217.205 184.17 217.204ZM82.5512 217.317C82.7077 217.274 82.862 217.274 83.0183 217.317C83.2507 217.327 83.4681 217.397 83.669 217.524C83.7873 217.617 83.9056 217.708 84.0239 217.799L84.1271 217.923C84.3476 218.191 84.3531 218.237 84.5223 218.646C84.5922 218.875 84.6028 219.103 84.5521 219.331C84.5521 219.485 84.512 219.629 84.4357 219.762C84.3937 219.908 84.3218 220.035 84.2141 220.141C84.1378 220.269 84.0366 220.373 83.9075 220.449C83.743 220.599 83.5486 220.703 83.3246 220.756L82.8702 220.817C82.8113 220.808 82.75 220.8 82.6908 220.794C82.6195 220.791 82.5503 220.783 82.4825 220.77L82.4139 220.755L82.3514 220.739C82.2687 220.715 82.1881 220.682 82.1099 220.642C81.962 220.599 81.8331 220.525 81.723 220.415C81.5331 220.293 81.381 220.128 81.2711 219.923L81.2415 219.855C81.2014 219.783 81.1676 219.709 81.142 219.629C81.0704 219.502 81.0345 219.367 81.0324 219.221C80.9904 219.027 80.9932 218.835 81.0434 218.643L81.062 218.579L81.2246 218.192C81.3091 218.061 81.3979 217.928 81.5118 217.82C81.5804 217.759 81.7481 217.628 81.8426 217.562L81.9005 217.524C82.1014 217.397 82.319 217.327 82.5512 217.317ZM59.8126 213.574C60.6681 214.43 60.2901 216.002 59.0924 216.307L58.9549 216.34C57.7972 216.634 56.7535 215.588 57.0472 214.43L57.081 214.295C57.3852 213.096 58.957 212.718 59.8126 213.574ZM202.089 204.52C202.08 204.401 202.232 204.359 202.308 204.429C203.327 205.342 203.975 206.437 205.211 207.145C206.454 207.855 207.734 207.798 209.029 208.256C209.468 208.413 209.47 209 209.029 209.154C206.578 210.011 202.275 207.109 202.089 204.52ZM86.9372 204.334C87.21 204.249 87.4846 204.236 87.7571 204.298C87.9431 204.298 88.1161 204.344 88.2745 204.437C88.4499 204.486 88.6001 204.575 88.7288 204.701C88.8832 204.792 89.0057 204.917 89.0985 205.071C89.2804 205.27 89.4029 205.502 89.4661 205.769L89.5379 206.316L89.4661 206.864C89.3964 207.026 89.3266 207.191 89.259 207.354L89.0703 207.61C88.9173 207.814 88.8928 207.816 88.5217 208.091C88.2853 208.241 88.0297 208.324 87.7571 208.335C87.5752 208.385 87.3936 208.385 87.21 208.335C87.0262 208.335 86.8527 208.288 86.6924 208.195C86.5189 208.146 86.367 208.058 86.2379 207.931C86.0142 207.785 85.8388 207.593 85.7097 207.354C85.64 207.191 85.5705 207.026 85.5029 206.864L85.4288 206.316L85.5029 205.769L85.5069 205.752C85.6041 205.409 85.7776 205.111 86.0266 204.86L86.4367 204.543C86.5971 204.439 86.764 204.387 86.9372 204.334ZM185.559 204.744C186.144 204.583 186.787 204.752 187.215 205.181C187.644 205.61 187.813 206.25 187.653 206.836C187.494 207.407 187.036 207.869 186.463 208.024C186.292 208.07 186.119 208.096 185.944 208.087C185.65 208.085 185.375 208.011 185.12 207.863L184.79 207.607C184.629 207.46 184.518 207.284 184.452 207.081C184.348 206.887 184.302 206.678 184.31 206.451L184.308 206.411C184.302 206.331 184.312 206.25 184.338 206.172C184.338 206.09 184.351 206.01 184.372 205.931C184.526 205.361 184.991 204.9 185.559 204.744ZM59.3986 199.02C59.5866 199.014 59.7619 199.052 59.9246 199.139C60.0957 199.194 60.2415 199.287 60.3641 199.422C60.4993 199.544 60.5922 199.692 60.6472 199.861C60.7338 200.024 60.7718 200.2 60.7655 200.388C60.7655 200.635 60.7021 200.865 60.5795 201.077C60.5077 201.17 60.4359 201.263 60.3641 201.354C60.195 201.525 59.9943 201.641 59.7619 201.707L59.6267 201.753C59.4281 201.825 59.2338 201.829 59.0267 201.802C58.8091 201.772 58.6082 201.713 58.431 201.578C58.2575 201.476 58.1204 201.339 58.019 201.165L57.9028 200.891C57.8774 200.798 57.8669 200.658 57.8605 200.561C57.8605 200.546 57.8605 200.534 57.8584 200.519C57.8584 200.436 57.8838 200.236 57.9047 200.153C57.9514 199.98 58.0462 199.815 58.1542 199.675C58.2472 199.53 58.3739 199.416 58.5303 199.331L58.5442 199.32L58.5598 199.31C58.6082 199.276 58.6591 199.242 58.7098 199.206C58.9211 199.084 59.1514 199.02 59.3986 199.02ZM168.495 197.52C168.833 197.52 169.148 197.606 169.439 197.775C169.45 197.779 169.46 197.784 169.469 197.788C169.748 197.953 169.97 198.175 170.135 198.454C170.304 198.743 170.388 199.056 170.388 199.39C170.388 199.726 170.304 200.037 170.135 200.326C169.97 200.606 169.748 200.827 169.469 200.992C169.46 200.999 169.45 201.003 169.439 201.007C169.148 201.176 168.833 201.261 168.495 201.263C168.159 201.261 167.844 201.176 167.553 201.007C166.982 200.673 166.625 200.05 166.625 199.39C166.625 198.731 166.982 198.107 167.553 197.775C167.844 197.606 168.159 197.52 168.495 197.52ZM80.7594 195.076L80.817 195.075C81.0409 195.066 81.2498 195.112 81.4421 195.216C81.6428 195.281 81.8182 195.394 81.9663 195.552L82.2747 195.81L82.3642 195.882C82.379 195.895 82.3935 195.907 82.4076 195.92C82.6148 196.129 82.7564 196.374 82.8367 196.657C82.862 196.82 82.8829 196.981 82.9001 197.143C82.9463 197.566 82.6972 198 82.4226 198.3C82.2747 198.458 82.0991 198.57 81.8965 198.638C81.7022 198.739 81.4909 198.786 81.2667 198.777C80.8083 198.737 80.3733 198.64 80.0437 198.285C80.0055 198.242 79.9696 198.198 79.9317 198.154L79.6677 197.849C79.467 197.647 79.3273 197.408 79.2515 197.133C79.2301 196.987 79.2113 196.843 79.1923 196.7C79.1731 196.266 79.3843 195.861 79.6677 195.552C79.9292 195.266 80.3728 195.092 80.7594 195.076ZM70.0952 190.625C72.2921 190.625 72.2879 194.035 70.0952 194.035C67.8999 194.035 67.9041 190.625 70.0952 190.625ZM180.563 185.846L180.632 185.847C180.996 185.849 181.336 185.94 181.651 186.124L182.06 186.439C182.31 186.692 182.483 186.988 182.58 187.331C182.603 187.51 182.627 187.69 182.652 187.867C182.663 188.146 182.603 188.406 182.477 188.647C182.397 188.897 182.257 189.114 182.06 189.298C181.877 189.495 181.661 189.634 181.41 189.715C181.169 189.841 180.909 189.901 180.632 189.89C180.267 189.888 179.927 189.797 179.612 189.613C179.475 189.507 179.339 189.402 179.202 189.298C178.972 189.064 178.807 188.794 178.708 188.485L178.685 188.406L178.611 187.867C178.6 187.591 178.659 187.331 178.786 187.09C178.866 186.838 179.006 186.623 179.202 186.439C179.386 186.242 179.604 186.102 179.853 186.022C180.073 185.906 180.31 185.846 180.563 185.846ZM170.667 179.464C170.863 179.458 171.045 179.498 171.216 179.587C171.391 179.644 171.544 179.743 171.672 179.88C171.945 180.098 172.112 180.533 172.112 180.886C172.112 181.239 171.945 181.675 171.672 181.892C171.495 182.068 171.286 182.19 171.045 182.258L170.667 182.309C170.299 182.326 169.925 182.134 169.663 181.892C169.61 181.844 169.56 181.795 169.507 181.749C169.268 181.529 169.165 181.201 169.15 180.886C169.144 180.72 169.18 180.563 169.256 180.417C169.304 180.265 169.389 180.136 169.507 180.024C169.56 179.978 169.61 179.929 169.663 179.88C169.949 179.616 170.282 179.483 170.667 179.464ZM233.367 168.096C234.755 166.404 233.947 165.2 231.861 165.618C228.267 166.105 224.885 168.377 221.72 170.006C218.265 171.831 214.705 173.337 211.181 175.052C212.635 175.944 213.717 177.343 214.543 178.938C216.192 177.685 218.299 177.086 220.357 177.008C224.09 173.432 230.272 172.613 233.367 168.096ZM69.3558 173.711C69.7322 173.713 70.0849 173.802 70.4154 173.978L70.4859 174.018L70.938 174.368C71.1577 174.571 71.3119 174.812 71.4028 175.089C71.5422 175.355 71.6056 175.645 71.595 175.954C71.6056 176.262 71.5422 176.55 71.4028 176.816C71.3119 177.095 71.1577 177.334 70.938 177.537C70.8134 177.699 70.6528 177.826 70.4605 177.919C70.2807 177.993 70.1035 178.069 69.9239 178.145C69.7232 178.209 69.4908 178.217 69.2732 178.228C68.8781 178.226 68.5107 178.126 68.1681 177.928L67.7246 177.585C67.5112 177.386 67.3589 177.152 67.2702 176.879C67.1445 176.639 67.0808 176.383 67.0808 176.109L67.0824 176.034C67.0824 176.017 67.0824 175.998 67.0847 175.979C67.1098 175.78 67.1375 175.582 67.1646 175.383C67.2345 175.091 67.3676 174.835 67.5662 174.62C67.6169 174.518 67.6845 174.436 67.7713 174.368C68.05 174.089 68.3793 173.899 68.7598 173.791C68.9584 173.766 69.157 173.738 69.3558 173.711ZM167.447 168.112C167.732 168.112 167.996 168.184 168.242 168.326C168.349 168.409 168.455 168.491 168.56 168.573C168.757 168.77 168.892 169.002 168.966 169.269L169.023 169.687C169.029 169.905 168.985 170.105 168.886 170.294C168.823 170.488 168.715 170.657 168.56 170.801C168.419 170.955 168.25 171.063 168.054 171.126C167.867 171.226 167.665 171.27 167.447 171.262C167.164 171.262 166.898 171.19 166.653 171.046C166.547 170.966 166.439 170.883 166.334 170.801C166.155 170.621 166.027 170.41 165.95 170.171L165.93 170.105L165.873 169.687C165.865 169.469 165.909 169.269 166.008 169.08C166.072 168.884 166.182 168.715 166.334 168.573C166.477 168.419 166.647 168.311 166.841 168.248C167.01 168.158 167.191 168.113 167.383 168.111L167.447 168.112ZM81.7044 165.822L81.7781 165.823C82.1985 165.826 82.5894 165.931 82.9527 166.143C83.1091 166.263 83.2656 166.384 83.4218 166.506C83.7112 166.796 83.9098 167.138 84.022 167.533L84.1042 168.15C84.1168 168.472 84.0492 168.77 83.9035 169.047C83.8107 169.336 83.6499 169.585 83.4218 169.797C83.2128 170.023 82.9633 170.184 82.6739 170.277C82.3971 170.422 82.0992 170.49 81.7781 170.477C81.3577 170.477 80.9668 170.372 80.6035 170.16C80.4473 170.04 80.291 169.918 80.1325 169.797C79.845 169.505 79.6464 169.163 79.5344 168.77L79.452 168.15C79.4394 167.831 79.507 167.531 79.6527 167.254C79.7457 166.967 79.9063 166.715 80.1325 166.506C80.3438 166.278 80.5929 166.117 80.8823 166.024C81.1378 165.89 81.4113 165.823 81.7044 165.822ZM159.932 160.011C160.125 159.961 160.317 159.961 160.509 160.011C160.796 160.024 161.065 160.111 161.314 160.269L161.751 160.607C161.758 160.614 161.764 160.62 161.77 160.629C162.035 160.895 162.218 161.21 162.32 161.571L162.396 162.14C162.406 162.434 162.345 162.708 162.212 162.962C162.133 163.206 162.002 163.418 161.821 163.601L161.751 163.67C161.555 163.881 161.324 164.031 161.056 164.118C160.887 164.217 160.703 164.266 160.509 164.266C160.222 164.331 159.932 164.319 159.645 164.228C159.474 164.154 159.301 164.082 159.128 164.01L159.072 163.978C158.42 163.621 158.016 162.873 158.016 162.14C158.016 161.406 158.42 160.656 159.072 160.299C159.092 160.29 159.108 160.28 159.128 160.269C159.377 160.111 159.645 160.024 159.932 160.011Z" fill="black"/>
<path fill-rule="evenodd" clip-rule="evenodd" d="M162.678 78.6399C155.261 59.0779 141.891 44.7554 119.352 53.7513C118.705 53.31 117.862 53.1916 117.053 53.7084C104.775 61.4373 95.9336 73.8285 92.1019 87.8011C89.77 88.2456 87.5041 89.0208 85.4802 90.2921C81.0816 93.055 78.1223 97.4515 75.3483 101.734C74.514 103.021 75.2865 105.152 76.8542 105.444C77.5351 105.572 78.21 105.647 78.881 105.667C78.7176 106.262 78.5026 106.836 78.2287 107.363C77.2372 109.27 79.1104 111.295 80.8659 110.774C81.0607 110.877 81.2648 110.962 81.4762 111.026C81.5003 112.106 82.0541 113.553 83.1502 113.771C84.9227 114.152 87.2785 112.792 86.8602 110.805C87.3957 110.899 87.9293 110.911 88.4494 110.845C88.5076 111.88 88.4894 112.96 88.6319 113.915C89.0979 118.414 93.582 121.437 97.8584 120.068C98.1206 121.47 98.4286 123.44 99.8059 124.2C101.416 128.729 104.197 133.897 108.751 135.96C108.345 137.002 108.565 138.268 109.786 138.965C118.123 143.73 128.128 145.342 137.553 143.571C141.319 143.346 144.989 142.492 148.511 140.675C151.08 139.349 153.442 137.666 155.747 135.93C158.053 134.194 160.519 132.504 162.36 130.25C164.359 127.802 165.29 124.921 165.894 121.856C168.662 107.941 167.706 94.2775 162.678 81.0221C156.454 64.6139 168.9 95.0489 162.678 78.6399Z" fill="#D08B5B"/>
<path fill-rule="evenodd" clip-rule="evenodd" d="M85.4583 89.492C92.3815 85.398 101.211 86.4576 105.37 92.7993C106.088 93.8941 106.584 95.0984 106.934 96.4926L106.991 96.7243L107.047 96.9682C107.228 97.7742 107.347 98.5327 107.508 99.8224L107.687 101.286L107.738 101.684C107.911 103.009 108.063 103.846 108.3 104.698L108.347 104.864L108.621 105.808L107.588 106.191C105.609 106.907 105.195 106.971 104.053 106.373C103.162 105.906 102.696 105.277 102.077 104.002L101.987 103.815L101.789 103.4L101.682 103.181C101.279 102.373 100.956 101.511 100.499 101.199C99.8789 100.774 97.9243 100.605 96.5649 100.772L96.4941 100.781L96.4355 100.793L96.3348 100.816C94.0489 101.358 91.9654 103.208 90.5912 105.162C89.4847 106.737 88.8488 108.719 88.7709 110.78L88.7665 110.917L88.7394 111.969L86.5235 111.922L86.5452 111.512L86.512 111.585C85.814 113.061 84.06 114.043 82.5925 113.066L82.5402 113.031L82.4869 112.992C81.2481 112.078 81.0989 110.228 82.1157 109.104L82.1627 109.053L82.2084 109.007L82.1991 109.002L82.1885 108.999L82.182 108.998C81.8356 109.062 81.5314 109.24 81.1197 109.619L81.0138 109.718L80.8012 109.949L80.5813 110.184L80.4867 110.282C80.4263 110.343 80.3709 110.396 80.3188 110.444C80.2485 110.508 80.1835 110.562 80.1126 110.611C80.0471 110.657 79.9795 110.697 79.8977 110.732C79.6958 110.82 79.48 110.862 79.2038 110.793C78.825 110.7 78.6115 110.471 78.4823 110.2C78.4321 110.095 78.4034 109.999 78.3831 109.897C78.3618 109.79 78.3513 109.681 78.3458 109.556C78.3423 109.474 78.341 109.384 78.3417 109.286L78.3442 109.133L78.3494 108.966L78.355 108.833L78.3801 108.34C78.4698 106.722 78.8941 105.133 79.6205 103.633L79.6941 103.483L79.7216 103.428L79.6456 103.53C79.1503 104.185 78.6719 104.639 78.0749 104.938L77.9927 104.978L77.9124 105.015C77.084 105.379 76.2497 105.238 75.7457 104.562C75.397 104.094 75.2942 103.478 75.3656 102.83C75.5043 101.573 76.0001 100.422 76.971 98.743L77.1071 98.5094L77.64 97.6033C79.6936 94.1385 82.3334 91.3395 85.4583 89.492Z" fill="#E8E1E1"/>
<path fill-rule="evenodd" clip-rule="evenodd" d="M126.821 49.9393C130.617 49.6706 134.482 50.3121 138.097 51.4595C143.862 53.2889 149.156 56.5175 153.506 60.7207C157.989 65.0523 161.305 70.3929 163.321 76.2915C165.752 83.4051 166.116 91.0006 166.8 98.4264C167.146 102.178 167.716 105.873 168.308 109.588L168.402 110.175C168.98 113.795 169.306 117.456 168.506 121.071C167.178 127.078 163.195 132.177 158.467 135.944C148.755 143.685 133.637 148.403 122.329 141.281C120.579 140.179 122.237 137.361 123.945 138.509C125.147 139.318 126.42 140.026 127.786 140.516C133.491 142.56 139.757 141.832 145.395 139.93C150.952 138.057 156.284 134.891 160.384 130.666C164.691 126.229 167.077 120.748 166.732 114.512C166.527 110.801 165.684 107.159 165.216 103.479C164.801 100.219 164.552 96.9414 164.266 93.6685L164.161 92.4912C163.553 85.823 162.681 78.9718 159.654 72.9189C157.109 67.8267 153.381 63.2964 148.899 59.7977C144.207 56.1348 138.602 53.573 132.721 52.6175C125.806 51.4939 119.186 53.5371 113.417 57.3405C108.301 60.7137 103.903 65.2214 100.53 70.336C98.8943 72.816 97.501 75.4645 96.2979 78.1805C95.1641 80.7395 94.3823 83.4216 93.4705 86.0592C94.2208 86.0368 94.9836 86.0658 95.7582 86.1516C99.7309 86.5929 103.432 88.6569 105.789 91.9115C108.668 95.8885 107.89 100.77 109.015 105.293C109.102 105.644 108.954 105.988 108.654 106.182C106.948 107.287 104.666 107.324 103.015 106.08C101.583 105 100.91 103.048 101.49 101.342C101.566 101.119 101.889 101.159 101.898 101.397C102.007 104.3 104.694 106.535 107.327 105.154C106.197 101.254 106.792 96.8983 104.482 93.3755C100.392 87.1407 91.9298 86.8831 85.9861 90.3978C82.8581 92.2473 80.3821 95.0282 78.5384 98.1388L78.0073 99.0418C77.3006 100.248 76.5522 101.613 76.4055 102.942C76.321 103.709 76.6033 104.429 77.4807 104.043C78.1906 103.73 78.7402 103.001 79.1618 102.375C79.8809 101.306 81.5334 102.229 80.9394 103.368L80.9192 103.405C80.0548 104.94 79.5226 106.632 79.4248 108.395L79.4 108.883C79.3837 109.239 79.372 109.744 79.4471 109.763C79.5371 109.785 80.1626 109.061 80.2667 108.961C80.7685 108.478 81.2852 108.083 81.9837 107.954C82.9018 107.786 83.8282 108.924 83.0312 109.671L82.9979 109.701C82.2866 110.321 82.3183 111.557 83.104 112.137C84.2129 112.955 85.5782 111.62 85.7391 110.52L85.7445 110.479C85.8868 109.291 87.5327 109.249 87.6221 110.479C87.8163 113.149 84.6461 115.386 82.2341 114.039C81.2804 113.507 80.6741 112.533 80.4841 111.488C80.1797 111.65 79.8512 111.761 79.504 111.792C78.3736 111.893 77.5699 111.096 77.3871 110.026C77.1742 108.78 77.3005 107.446 77.6279 106.153C77.014 106.301 76.3682 106.244 75.7191 105.869C73.7553 104.733 74.3192 102.206 75.0607 100.5C78.2262 93.2179 84.7844 86.6104 92.9095 86.0859C92.954 84.8011 93.1277 83.5864 93.4119 82.2999C96.191 69.7164 105.194 58.0642 116.915 52.6181C120.047 51.1628 123.368 50.1838 126.821 49.9393ZM96.0846 100.206L96.196 100.181C97.4622 99.9072 100.795 99.5859 100.393 101.722C100.374 101.823 100.228 101.81 100.202 101.722C99.809 100.379 97.1366 101.453 96.3563 101.776C95.2807 102.222 94.2197 102.879 93.3414 103.643C91.4185 105.316 90.1295 107.674 89.9334 110.235C89.7391 112.775 90.4742 115.519 92.302 117.356C93.198 118.257 94.3417 118.868 95.6265 118.913C96.7807 118.954 98.056 118.053 99.1211 118.58C99.331 118.684 99.4974 118.97 99.4784 119.205C99.4426 119.65 99.244 119.996 98.9484 120.265C100.732 123.522 102.191 126.97 104.465 129.933C105.607 131.419 106.9 132.795 108.365 133.966C109.061 134.523 109.818 135.012 110.598 135.442C111.513 135.946 112.304 136.261 112.957 137.115C113.513 137.843 112.957 139.251 112.039 139.377C109.878 139.672 107.779 137.921 106.192 136.609C104.608 135.298 103.238 133.681 102.106 131.966C99.9325 128.671 98.4456 124.785 97.8511 120.853C97.1608 121.073 96.3837 121.14 95.7991 121.141C94.2437 121.144 92.7584 120.583 91.5361 119.636C87.0612 116.166 86.5639 109.042 89.7218 104.549C91.2329 102.4 93.5292 100.811 96.0846 100.206ZM96.1126 108.468C97.1503 108.377 98.1871 108.541 99.1624 108.896L99.5644 109.042C100.414 109.353 101.318 109.719 101.931 110.358C102.868 111.333 101.935 113.024 100.6 112.65C99.1242 112.236 97.9246 110.99 96.4491 110.468C95.1302 110.001 93.6363 110.067 92.4658 110.871C92.3113 110.977 92.1081 110.768 92.209 110.613C93.1044 109.247 94.518 108.609 96.1126 108.468Z" fill="black"/>
<path fill-rule="evenodd" clip-rule="evenodd" d="M138.835 118.841C140.016 116.896 142.535 121.66 142.803 122.479C143.04 123.205 143.197 123.948 143.276 124.7C144.192 124.906 145.144 124.906 146.083 124.726C147.478 124.458 148.331 123.708 149.544 123.064C150.381 122.618 151.437 123.14 151.873 123.879C152.385 124.748 152.059 125.65 151.385 126.298C150.107 127.527 147.592 127.809 145.924 127.483C144.968 127.296 144.092 126.937 143.319 126.416C143.314 126.514 143.31 126.611 143.303 126.708L143.288 126.876C143.16 128.239 142.785 129.953 141.727 130.84C139.992 132.294 137.85 129.497 139.536 128.044L139.589 128C140.637 127.153 140.865 124.88 140.809 123.628C140.772 122.811 140.623 121.983 140.365 121.205L140.312 121.05C140.235 120.83 139.388 118.745 139.082 119.01L139.068 119.025C138.941 119.176 138.738 119 138.835 118.841ZM148.271 107.866C149.866 108.837 152.297 111.099 150.581 113.504C148.56 115.624 145.652 113.193 144.219 112.093C142.889 111.241 141.396 113.433 142.629 114.428C152.986 122.099 157.19 108.12 149.078 106.726C148.184 106.572 147.853 107.566 148.271 107.866ZM131.235 98.8995C132.794 98.6228 134.391 99.0106 135.682 99.9232L135.779 99.9936C137.022 100.903 138.413 102.5 137.7 104.067C137.413 104.697 136.556 104.796 136.012 104.51C135.106 104.035 134.942 102.866 134.134 102.219C133.471 101.689 132.579 101.367 131.726 101.445C129.72 101.627 128.487 103.605 127.864 105.31C127.785 105.528 127.464 105.613 127.339 105.379C125.871 102.633 128.47 99.3902 131.235 98.8995ZM156.209 97.8632C159.196 97.617 162.692 100.715 161.905 103.868C161.528 105.382 159.284 105.338 158.885 103.868C158.666 103.059 158.688 102.344 158.106 101.672C157.625 101.118 156.943 100.795 156.209 100.845C155.4 100.899 154.654 101.304 154.087 101.872C153.576 102.385 153.269 103.136 152.739 103.59C152.609 103.702 152.434 103.709 152.305 103.59C151.392 102.749 151.94 100.996 152.519 100.117C153.347 98.8597 154.696 97.9881 156.209 97.8632ZM125.547 93.306C127.463 91.6093 130.945 89.9707 133.528 90.8058C135.014 91.2857 135.661 93.6801 134.003 94.4391C132.083 95.3179 129.869 94.9603 127.915 95.8712C127.094 96.254 126.322 96.7322 125.75 97.4337C125.3 97.9866 124.842 98.7141 124.191 99.0328C124.02 99.1167 123.788 99.1188 123.651 98.9633C122.224 97.3481 124.301 94.4095 125.547 93.306ZM152.916 90.7215C154.1 90.3891 155.414 90.3958 156.617 90.6047C157.819 90.8135 159.04 91.3121 160.022 92.0393L160.136 92.1245C161.208 92.9324 162.487 94.108 162.418 95.5393C162.361 96.7345 161.104 97.5429 160.019 96.9164C159.134 96.4056 158.718 95.3822 157.969 94.7008C157.351 94.1384 156.625 93.695 155.851 93.3843C154.99 93.0392 154.129 92.8775 153.205 92.8621C152.495 92.8503 151.779 93.0836 151.082 93.1582C151.139 93.2761 150.588 93.2212 150.272 93.1166C150.038 93.0168 150.036 92.7207 150.118 92.5286C150.52 91.5769 151.984 90.9828 152.916 90.7215Z" fill="black"/>
<path fill-rule="evenodd" clip-rule="evenodd" d="M157 133.092C156.262 132.851 155.538 132.57 154.81 132.299C151.09 130.43 146.596 130.091 142.695 131.665C140.78 132.438 138.994 133.826 137.073 134.736C136.617 134.907 136.156 135.061 135.691 135.191C135.406 135.092 135.121 134.986 134.838 134.88C132.8 134.112 130.883 133.164 129.021 132.121C128.823 131.842 128.617 131.57 128.395 131.309C129.742 131.117 131.061 130.8 132.254 130.472C135.917 129.468 139.369 127.832 143.02 126.784C146.419 125.805 150.108 125.27 153.522 126.486C155.143 127.063 156.569 128.073 158.145 128.753C158.96 129.104 159.938 129.449 160.891 129.499C160.276 130.973 159.499 132.348 158.436 133.494C157.95 133.39 157.469 133.245 157 133.092ZM164.927 121.554C164.6 121.825 163.254 122.7 162.818 123.222C162.705 123.179 162.593 123.135 162.481 123.09C162.289 122.854 162.006 122.751 161.718 122.757C159.705 121.82 157.912 120.497 156.313 118.837C155.176 117.66 154.012 116.427 152.493 115.745C150.704 114.937 148.944 115.309 147.064 115.432C145.063 115.565 143.088 114.997 141.089 115.269C139.627 115.47 138.258 116.089 137.075 116.962C134.66 118.744 132.995 121.246 130.955 123.404C128.639 125.851 125.791 127.415 122.624 128.214C122.586 128.189 122.546 128.164 122.506 128.14C120.171 126.027 118.063 123.641 116.198 121.098C114.376 118.615 109.574 107.437 108.414 106.456C107.933 106.048 107.405 105.873 106.9 105.887C105.985 105.908 105.14 106.545 104.762 107.546C104.119 109.25 104.44 111.452 104.491 113.234C104.555 115.415 104.698 117.594 104.926 119.765C105.152 121.91 105.452 124.049 105.826 126.173C106.014 127.246 106.224 128.318 106.454 129.385C106.526 129.721 106.617 130.021 106.726 130.3C106.838 130.827 106.959 131.351 107.088 131.871C107.929 135.276 109.255 138.685 111.788 141.198C114.425 143.816 118.008 145.556 121.336 147.111C124.505 148.593 127.826 149.909 131.233 150.941C134.193 152.283 137.362 153.344 140.544 153.902C144.047 154.517 147.729 154.555 151.112 153.338C152.774 152.739 154.346 151.905 155.772 150.865C157.794 149.814 159.613 148.371 161.102 146.46C163.77 143.036 165.043 138.881 165.601 134.596C165.743 133.499 166.279 129.296 166.322 128.642C166.458 126.528 166.594 124.415 166.73 122.302C166.794 121.304 165.571 121.02 164.927 121.554Z" fill="black"/>
</svg>
