<svg width="240" height="324" viewBox="0 0 240 324" fill="none" xmlns="http://www.w3.org/2000/svg">
<path fill-rule="evenodd" clip-rule="evenodd" d="M41.0848 260.271C40.4523 266.071 39.0195 272.461 41.7508 277.934C40.0306 278.011 41.426 278.509 42.3544 278.68C42.8844 279.091 43.5968 279.253 44.2667 279.196C47.7451 279.932 51.3358 280.198 54.8675 280.614C98.9629 284.278 143.354 283.305 187.532 281.726C188.968 281.664 189.932 280.62 190.042 279.214C191.662 258.518 192.467 237.758 192.426 216.999C191.707 209.704 197.219 212.55 194.278 202.937C191.915 192.798 188.416 182.928 183.955 173.524C180.872 167.405 177.966 160.965 173.266 155.891C171.781 155.685 170.516 154.209 169.261 153.385C167.99 153.138 167.048 152.058 165.759 151.726C163.304 151.087 157.81 149.728 155.719 151.362C155.636 151.34 155.553 151.32 155.47 151.297C155.061 151.751 154.499 151.41 154.194 151.002C153.149 150.191 148.582 150.108 148.064 148.862C145.362 146.411 144.64 141.251 144.64 138.232C143.629 137.097 143.559 137.308 142.188 136.707C140.844 135.011 139.219 133.533 137.406 132.368C127.204 125.667 112.399 132.728 110.011 144.376C106.235 147.367 102.349 150.405 97.7244 151.963C95.4677 150.802 92.8967 150.431 90.5016 150.429C88.7162 150.364 86.249 149.331 85.0887 151.211C65.5682 157.604 53.7871 176.196 45.4099 193.813C44.2357 196.321 42.831 198.947 43.1903 201.805C43.4373 205.228 47.1501 207.265 46.4485 210.892C45.4287 220.869 44.2687 230.835 43.207 240.809C42.4995 247.296 41.7922 253.784 41.0848 260.271Z" fill="#D08B5B"/>
<path fill-rule="evenodd" clip-rule="evenodd" d="M85.0887 151.211C86.249 149.331 88.7162 150.364 90.5016 150.429C92.8967 150.431 95.4677 150.802 97.7244 151.963C97.8166 151.932 97.9085 151.9 98.0001 151.868L98.134 152.165L88.3087 153.55L93.2634 162.54C104.93 173.459 117.9 178.312 132.171 177.098C146.3 175.897 156.01 168.349 161.301 154.455L161.46 154.032L154.74 152.165L154.739 151.452C154.985 151.555 155.25 151.541 155.47 151.297C155.553 151.32 155.636 151.34 155.719 151.362C157.81 149.728 163.304 151.087 165.759 151.726C167.048 152.058 167.99 153.137 169.261 153.385C170.516 154.209 171.781 155.685 173.266 155.891C177.966 160.965 180.872 167.404 183.955 173.524C188.416 182.928 191.915 192.798 194.278 202.937C196.16 209.09 194.58 210.139 193.387 212.009L193.289 212.024C191.671 212.275 190.165 212.63 188.771 213.088C185.793 214.066 182.861 215.302 179.975 216.796L179.642 216.97L183.294 281.876L181.014 281.954C143.775 283.226 106.403 283.927 69.2019 281.647L72.6816 219.879L43.7315 203.806C43.4469 203.181 43.2422 202.524 43.1903 201.805C42.831 198.947 44.2357 196.321 45.4099 193.813C53.7871 176.196 65.5682 157.604 85.0887 151.211Z" fill="#78E185"/>
<path fill-rule="evenodd" clip-rule="evenodd" d="M183.891 212.676C182.629 213.133 180.86 213.578 179.957 214.611C179.853 213.649 179.748 212.687 179.642 211.724C182.287 211.661 184.937 211.638 187.584 211.564C186.335 211.87 185.1 212.238 183.891 212.676ZM178.08 273.217C177.17 273.225 176.257 273.288 175.348 273.324C173.596 273.392 171.844 273.459 170.092 273.525C166.518 273.659 162.944 273.788 159.37 273.912C152.291 274.158 145.212 274.386 138.132 274.594C123.973 275.011 109.806 275.263 95.6489 275.74C91.7213 275.872 87.7938 275.974 83.8697 276.188C81.8363 276.299 79.7933 276.394 77.7696 276.63C76.0623 276.829 74.3794 277.164 72.6816 277.414C72.7955 275.201 72.9022 272.987 73.0131 270.774C73.1181 268.681 73.2161 266.587 73.3135 264.493C79.9408 264.84 86.5758 264.98 93.212 265.039C100.232 265.102 107.249 265.276 114.269 265.289C128.166 265.317 142.065 265.142 155.962 265.003C159.892 264.963 163.823 264.923 167.754 264.884C169.719 264.864 171.685 264.844 173.65 264.825C174.631 264.815 175.618 264.836 176.598 264.795C177.644 264.752 178.279 264.454 179.039 263.75C179.444 263.374 179.46 262.609 179.039 262.237C178.429 261.698 177.864 261.285 177.019 261.225C176.19 261.166 175.324 261.247 174.492 261.258C172.667 261.282 170.842 261.306 169.017 261.33C165.508 261.377 161.998 261.423 158.489 261.469C151.47 261.561 144.45 261.656 137.432 261.763C130.553 261.868 123.673 261.946 116.796 262.119C109.773 262.296 102.759 262.615 95.7387 262.841C88.2658 263.081 80.7966 263.368 73.3406 263.928C73.5197 260.047 73.6847 256.165 73.84 252.282C88.6446 253.088 103.459 253.662 118.289 253.687C133.738 253.713 149.187 253.449 164.631 253.046C166.807 252.989 168.983 252.931 171.159 252.863C172.282 252.828 173.405 252.795 174.528 252.755C175.354 252.725 176.203 252.689 176.949 252.294C178.422 251.515 178.676 249.239 176.928 248.616C175.973 248.276 174.96 248.609 174.727 249.47C174.656 249.477 174.588 249.483 174.528 249.485C173.686 249.517 172.844 249.541 172.001 249.567C170.176 249.625 168.351 249.684 166.526 249.742C163.157 249.847 159.787 249.945 156.417 250.034C149.537 250.216 142.656 250.365 135.774 250.48C122.15 250.707 108.526 250.916 94.9032 251.228C87.8878 251.389 80.8746 251.597 73.8601 251.775C74.0276 247.554 74.1858 243.334 74.3284 239.113C74.3451 238.618 74.3633 238.123 74.3813 237.629C75.3865 237.85 76.4158 237.972 77.4398 238.117C79.2168 238.369 80.9992 238.555 82.7838 238.743C86.1463 239.098 89.5199 239.316 92.8949 239.502C99.7756 239.882 106.658 240.149 113.546 240.359C127.172 240.774 140.814 240.865 154.444 240.818C161.846 240.793 169.293 240.89 176.691 240.568C177.147 240.692 177.617 240.679 178.071 240.531C178.445 247.129 178.839 253.726 179.226 260.324C179.487 264.775 179.718 269.241 180.039 273.694C179.412 273.385 178.835 273.21 178.08 273.217ZM49.8132 206.181C48.5151 205.546 47.0836 204.966 45.9377 204.066C44.6851 203.082 44.3775 201.927 44.7624 200.383C44.7911 200.267 44.8249 200.152 44.8549 200.037C54.0854 200.06 63.2925 199.654 72.5189 199.434C81.8929 199.212 91.2634 199.025 100.64 198.972C119.339 198.867 138.037 199.289 156.727 199.814C163.458 200.003 170.189 200.189 176.921 200.373C176.767 202.015 176.826 203.697 176.792 205.327C176.761 206.759 176.769 208.193 176.79 209.627C173.269 209.618 169.748 209.542 166.226 209.502C157.508 209.404 148.794 209.655 140.077 209.854C122.644 210.253 105.207 210.567 87.7773 211.092C83.0434 211.235 78.2792 211.31 73.5235 211.512C73.36 210.739 73.1785 209.969 72.9738 209.204C72.6484 207.99 72.2813 206.741 71.3084 205.897C71.2617 205.856 71.197 205.874 71.1761 205.932C70.8066 206.956 70.9 207.999 71.0082 209.073C71.0937 209.921 71.1516 210.771 71.1945 211.622C68.2374 211.778 65.2864 211.996 62.3508 212.324C61.5115 211.909 60.6717 211.495 59.8306 211.083C56.492 209.448 53.1523 207.815 49.8132 206.181ZM156.975 236.685C150.088 236.74 143.2 236.746 136.313 236.702C122.681 236.615 109.053 236.279 95.4231 236.008C91.6298 235.933 87.8415 235.859 84.0476 235.858C82.0835 235.858 80.1127 235.871 78.1507 235.957C76.9158 236.01 75.6639 236.018 74.4347 236.167C74.583 232.194 74.7375 228.218 74.7326 224.244C87.7353 226.214 100.878 226.755 114.009 227.142C127.312 227.535 140.619 227.739 153.928 227.758C157.71 227.764 161.492 227.755 165.274 227.733C167.095 227.722 168.916 227.708 170.737 227.691C171.716 227.682 172.701 227.702 173.679 227.661C174.713 227.617 175.338 227.372 176.06 226.636C176.43 226.259 176.448 225.61 176.06 225.235C174.771 223.991 173.254 224.261 171.578 224.281C169.897 224.302 168.216 224.32 166.535 224.336C163.173 224.366 159.811 224.386 156.449 224.394C149.865 224.411 143.281 224.386 136.698 224.318C123.392 224.182 110.09 223.886 96.787 223.575C89.4328 223.402 82.0801 223.45 74.7318 223.807C74.729 223.147 74.7229 222.487 74.71 221.827C74.6616 219.328 74.4182 216.829 74.0375 214.357C77.6388 214.345 81.2399 214.268 84.8249 214.222C93.5424 214.11 102.258 213.935 110.975 213.76C119.621 213.586 128.267 213.413 136.914 213.239C145.554 213.066 154.222 213.053 162.852 212.587C167.51 212.335 172.169 211.992 176.83 211.813C176.84 212.241 176.849 212.669 176.858 213.097C176.97 218.348 177.175 223.593 177.44 228.839C177.567 231.359 177.701 233.88 177.839 236.4C177.772 236.393 177.704 236.389 177.634 236.388C170.752 236.343 163.858 236.629 156.975 236.685ZM47.9952 191.081C48.7837 189.052 49.6401 187.036 50.5659 185.048C54.4963 186.158 58.6889 186.73 62.7453 187.111C67.0636 187.517 71.3904 187.745 75.7264 187.834C84.2747 188.008 92.823 187.603 101.362 187.25C118.926 186.524 136.488 185.994 154.069 185.96C158.979 185.951 163.888 185.974 168.797 186.029C171.252 186.057 173.706 186.09 176.16 186.132C177.423 186.154 178.685 186.178 179.947 186.204C180.506 186.215 181.072 186.256 181.63 186.239C182.377 186.217 182.922 185.992 183.615 185.722C184.411 185.412 184.881 184.081 183.888 183.64C182.895 183.199 182.099 182.94 180.999 182.917C179.807 182.891 178.615 182.867 177.423 182.845C175.249 182.806 173.075 182.772 170.901 182.745C166.483 182.69 162.064 182.667 157.646 182.667C148.949 182.668 140.252 182.771 131.558 182.976C114.103 183.387 96.6871 184.604 79.2385 185.126C74.4292 185.27 69.6108 185.298 64.8013 185.154C60.1429 185.014 55.4944 184.622 50.8416 184.457C52.4487 181.068 54.2671 177.767 56.3189 174.629C64.0752 174.901 71.8148 174.7 79.5727 174.463C83.6437 174.339 87.7146 174.214 91.7851 174.074C93.8204 174.004 95.8558 173.934 97.8911 173.865C98.8737 173.831 99.8563 173.797 100.839 173.764C101.897 173.727 103.011 173.796 104.039 173.517C104.226 173.467 104.373 173.359 104.485 173.222C107.221 174.63 110.115 175.741 113.091 176.564C119.552 178.351 126.5 179.021 133.181 178.471C138.543 178.03 143.887 176.702 148.601 174.103C159.247 175.083 170.043 174.623 180.712 174.553C181.731 174.546 182.155 173.612 181.985 172.842C185.409 180.223 187.677 188.226 189.8 196.01C191.119 200.848 192.292 205.716 193.409 210.601C193.363 210.605 193.317 210.609 193.27 210.614C193.4 210.078 193.109 209.448 192.376 209.431C188.058 209.332 183.727 209.58 179.407 209.62C179.286 208.539 179.164 207.458 179.036 206.377C178.861 204.905 178.653 203.437 178.475 201.966C178.41 201.432 178.35 200.917 178.277 200.41C181.697 200.503 185.117 200.597 188.537 200.687C190.756 200.746 190.752 197.307 188.537 197.24C169.743 196.664 150.949 196.082 132.149 195.763C113.338 195.444 94.4616 195.247 75.6647 196.211C65.4214 196.737 55.2034 197.44 45.0875 199.173C45.8732 196.43 46.9693 193.722 47.9952 191.081ZM63.9922 164.953C64.3325 165.208 64.4415 165.369 64.9503 165.459C65.5019 165.555 66.0692 165.586 66.6261 165.641C67.8176 165.757 69.0121 165.801 70.2077 165.857C72.595 165.971 74.9821 166.091 77.3711 166.164C82.1134 166.308 86.9574 166.512 91.6976 166.301C92.8573 166.249 93.3848 165.293 93.2794 164.421C94.1684 165.522 95.1404 166.556 96.1756 167.499C97.84 169.014 99.6366 170.357 101.531 171.542C100.302 171.587 99.0508 171.741 97.8911 171.791C95.9259 171.875 93.9607 171.96 91.9955 172.044C87.8542 172.222 83.7134 172.413 79.5727 172.607C71.9094 172.965 64.2723 173.411 56.6382 174.142C58.8184 170.865 61.2607 167.773 63.9922 164.953ZM188.718 180.875C185.48 171.983 181.306 162.748 173.794 156.641C169.932 153.502 165.63 151.331 160.759 150.302C160.609 150.27 160.55 150.483 160.695 150.531C169.12 153.296 175.355 160.613 179.573 168.111C180.337 169.47 181.045 170.861 181.715 172.273C181.497 172.008 181.163 171.831 180.712 171.838C170.749 172.006 160.67 171.837 150.729 172.81C150.983 172.641 151.237 172.473 151.486 172.295C154.201 170.359 156.644 167.99 158.664 165.307C159.881 165.616 161.161 165.691 162.403 165.809C164.059 165.967 165.727 166.039 167.389 166.128C169.048 166.217 170.714 166.225 172.375 166.266C173.517 166.293 175.748 166.483 175.75 164.736C175.751 162.987 173.517 163.172 172.375 163.195C170.714 163.228 169.049 163.232 167.389 163.31C165.798 163.385 164.197 163.445 162.61 163.588C161.642 163.674 160.647 163.731 159.674 163.885C161.257 161.522 162.518 158.947 163.359 156.232C163.444 155.959 163.472 155.703 163.458 155.467C163.815 155.09 164.043 154.574 164.043 154.101C164.043 152.976 163.166 152.317 162.142 152.2C158.09 151.736 153.624 151.076 150.358 148.41C148.884 147.207 147.698 145.785 146.582 144.254C145.329 142.534 144.858 140.367 144.854 138.261C144.853 138.143 144.658 138.107 144.64 138.232C144.026 142.501 144.911 147.375 147.974 150.573C150.981 153.714 155.066 154.89 159.211 155.577C157.502 160.461 154.681 164.751 150.72 168.124C146.307 171.883 140.72 173.893 135.024 174.652C128.879 175.471 122.439 175.073 116.396 173.736C110.575 172.449 104.88 170.146 100.142 166.472C97.7521 164.618 95.5532 162.433 93.6373 160.094C92.0559 158.164 90.8434 156.011 89.4861 153.943C94.5504 155.332 100.673 153.435 104.915 150.754C107.414 149.176 109.603 147.205 111.401 144.861C112.288 143.705 113.077 142.484 113.728 141.179C114.066 140.5 114.371 139.802 114.651 139.097C114.824 138.662 114.993 138.215 114.993 137.736C114.992 137.383 114.903 137.055 114.727 136.751C114.364 136.365 114.292 136.254 114.51 136.415C114.154 135.685 113.123 135.5 112.464 135.878C112.218 136.02 111.641 136.294 111.356 136.751C111.164 137.059 111.061 137.429 110.938 137.768C110.744 138.303 110.548 138.832 110.305 139.347C109.738 140.544 109.059 141.687 108.285 142.761C106.869 144.724 105.05 146.499 103.067 147.884C100.987 149.339 98.744 150.528 96.3117 151.27C93.7427 152.054 91.1999 152.288 88.5493 152.575C88.521 152.536 88.4935 152.497 88.4652 152.457C88.4141 152.387 88.3036 152.41 88.2992 152.502C88.297 152.547 88.2981 152.591 88.2968 152.635C87.9189 152.813 87.8876 153.346 88.3087 153.55C88.4648 156.003 89.5228 158.418 90.6757 160.541C91.1559 161.425 91.6984 162.282 92.2862 163.109C92.1123 163.043 91.9169 163.001 91.6976 162.992C86.9557 162.81 82.113 163.045 77.3711 163.218C75.052 163.303 72.7355 163.433 70.4183 163.557C69.224 163.621 68.0268 163.662 66.8367 163.786C66.2415 163.848 65.6428 163.896 65.0508 163.985C65.008 163.992 64.968 163.999 64.9304 164.005C66.3949 162.563 67.9387 161.196 69.5684 159.92C74.9147 155.737 81.055 152.328 87.6064 150.474C87.6685 150.456 87.6594 150.35 87.5908 150.357C74.5602 151.69 63.7059 159.905 56.113 170.219C51.8999 175.942 48.7044 182.277 45.9548 188.811C44.5689 192.104 43.2575 195.455 42.1594 198.856C41.6012 200.585 41.3496 202.418 42.149 204.114C42.7621 205.415 43.8935 206.382 45.0793 207.15C45.1581 207.202 45.2392 207.249 45.3189 207.299C44.1066 211.524 43.2945 215.859 42.5154 220.181C41.669 224.877 40.9306 229.591 40.2964 234.32C39.0288 243.772 38.0578 253.243 37.6338 262.773C37.5165 265.409 37.4382 268.046 37.4039 270.685C37.3868 272.004 37.3944 273.324 37.4124 274.643C37.4329 276.12 37.233 277.787 37.9845 279.105C38.9887 280.866 40.9389 280.259 41.7966 279.055C41.8091 279.071 41.822 279.088 41.8346 279.105C41.9124 278.952 41.9775 278.799 42.033 278.646C42.1254 278.443 42.1856 278.231 42.2075 278.014C42.3692 277.197 42.3083 276.366 42.3018 275.477C42.2923 274.227 42.2994 272.977 42.303 271.726C42.31 269.366 42.3368 267.006 42.404 264.646C42.5386 259.927 42.8014 255.213 43.1608 250.506C43.8749 241.155 44.9282 231.848 45.8297 222.516C46.2886 217.765 46.8421 213.001 46.9376 208.225C48.0504 208.811 49.1986 209.342 50.3092 209.908C52.3699 210.957 54.4304 212.006 56.4909 213.056C58.4893 214.073 60.4906 215.085 62.4928 216.095C64.5117 217.114 66.517 218.461 68.7884 218.712C70.0025 218.846 70.442 217.209 69.7266 216.445C68.7924 215.447 67.5518 214.827 66.3047 214.247C67.9617 214.307 69.6208 214.34 71.2807 214.352C71.3035 216.442 71.2298 218.536 71.125 220.62C70.8673 225.734 70.5089 230.838 70.1696 235.947C69.4644 246.566 68.7818 257.19 68.2492 267.819C68.1189 270.423 67.9883 273.026 67.8577 275.629C67.7944 276.894 67.7063 278.162 67.6704 279.428C67.6302 280.849 67.6651 282.631 68.9798 283.508C69.9085 284.128 70.908 283.836 71.6052 282.984C72.5375 281.844 72.5361 280.193 72.6111 278.795C72.6284 278.472 72.6438 278.149 72.6605 277.826C74.0844 278.01 75.498 278.265 76.9281 278.405C78.6749 278.575 80.4326 278.675 82.187 278.72C85.7644 278.813 89.3361 278.846 92.9145 278.846C99.9962 278.846 107.077 278.725 114.158 278.61C128.32 278.382 142.48 277.985 156.636 277.545C160.561 277.423 164.486 277.295 168.41 277.162C170.442 277.093 172.475 277.022 174.507 276.95C176.43 276.881 178.532 277.13 180.225 276.131C180.274 276.739 180.324 277.348 180.377 277.955C180.479 279.106 181.288 280.095 182.516 280.095C183.671 280.095 184.663 279.116 184.656 277.955C184.224 267.455 183.291 256.953 182.552 246.47C181.873 236.842 181.237 227.2 180.266 217.594C180.542 217.772 180.878 217.883 181.275 217.884C182.543 217.89 183.809 217.103 184.996 216.684C186.193 216.263 187.41 215.897 188.643 215.598C189.373 215.421 190.106 215.272 190.842 215.145C190.753 216.648 190.776 218.165 190.748 219.662C190.705 221.964 190.634 224.265 190.578 226.566C190.468 231.101 190.428 235.635 190.342 240.17C190.167 249.312 189.88 258.449 189.392 267.579C189.257 270.088 189.107 272.596 188.939 275.103C188.851 276.426 188.758 277.749 188.66 279.071C188.564 280.371 188.34 281.752 188.829 282.998C188.845 282.989 188.86 282.981 188.876 282.972C189.217 284.044 190.717 284.559 191.425 283.338C192.53 281.435 192.275 278.707 192.402 276.565C192.538 274.268 192.66 271.969 192.768 269.67C192.985 265.071 193.135 260.47 193.222 255.866C193.396 246.658 193.366 237.436 192.804 228.24C192.65 225.726 192.434 223.217 192.213 220.708C192.047 218.827 191.955 216.895 191.662 215.014C193.096 214.802 194.542 214.679 196.001 214.643C197.413 214.608 198.324 213.334 198.025 211.985C195.68 201.421 192.419 191.036 188.718 180.875Z" fill="black"/>
<path fill-rule="evenodd" clip-rule="evenodd" d="M176.386 92.0542C174.457 81.5081 169.7 71.4734 162.394 63.6219C161.551 62.6896 160.793 61.2191 159.507 60.984C158.216 58.3462 155.754 56.4814 153.787 54.3512C149.492 50.0585 145.383 45.2615 139.844 42.5507C114.151 31.9574 89.4266 62.1627 84.1799 84.8789C78.9686 103.147 84.6603 128.348 107.244 129.088C110.439 133.324 114.848 136.256 119.376 138.875C125.561 142.845 132.307 144.456 139.462 142.247C146.588 144.114 153.974 138.124 158.256 132.87C161.641 128.801 163.961 123.835 167.057 119.623C170.712 119.531 173.87 116.429 174.36 112.792C177.774 106.503 177.618 98.9666 176.386 92.0542Z" fill="#D08B5B"/>
<path fill-rule="evenodd" clip-rule="evenodd" d="M84.1799 84.8789C89.4266 62.1627 114.151 31.9574 139.844 42.5507C145.383 45.2615 149.492 50.0585 153.787 54.3512C155.754 56.4814 158.216 58.3462 159.507 60.984C160.793 61.2191 161.551 62.6896 162.394 63.6219C169.7 71.4734 174.457 81.5081 176.386 92.0542C177.618 98.9666 177.774 106.503 174.36 112.792C173.87 116.429 170.712 119.531 167.057 119.623C166.387 120.534 165.753 121.481 165.138 122.446L164.992 122.496L164.974 121.427C164.666 104.105 163.671 93.648 161.989 90.0573C160.29 86.4299 152.978 79.7881 140.053 70.132L139.66 69.8385L136.625 67.3266L134.271 69.9916C125.413 80.0087 118.479 87.7384 113.469 93.1808C108.078 99.0372 103.517 107.947 99.7863 119.909L99.6735 120.273L106.266 129.04C84.4965 127.614 79.0446 102.881 84.1799 84.8789Z" fill="#9DDADB"/>
<path fill-rule="evenodd" clip-rule="evenodd" d="M120.422 38.9614C125.097 37.8664 129.999 38.0934 134.63 39.2968C143.808 41.6823 151.36 47.8857 157.622 54.8021C163.729 61.5484 168.766 69.2822 172.445 77.6134L172.631 78.0372C175.233 83.976 177.494 90.1489 177.591 96.6882C177.675 102.316 177.108 108.179 175.294 113.533C173.678 118.301 170.706 123.107 165.593 124.25C162.645 131.763 156.877 138.269 149.611 141.75C145.104 143.91 140.155 144.874 135.173 144.394C130.089 143.906 125.341 141.457 121.368 138.334C121.259 138.249 121.399 138.083 121.512 138.147C126.295 140.911 131.952 141.899 137.431 141.717C146.435 141.419 154.689 136.547 159.432 128.889C160.612 126.983 161.664 124.973 162.503 122.881C162.454 122.709 162.425 122.535 162.425 122.365C162.425 121.644 162.766 121.094 163.275 120.738C163.511 119.999 163.72 119.251 163.894 118.495C164.289 116.783 164.51 115.046 164.643 113.295C164.751 111.872 164.691 110.363 164.834 108.904C164.782 107.735 164.71 106.567 164.604 105.402C164.264 101.647 163.576 97.9007 162.252 94.3614C160.91 90.7765 158.791 87.6151 156.117 84.894C150.382 79.0578 143.242 74.7965 137.666 68.8011L137.374 68.4839L137.354 68.4776C136.662 69.1887 135.97 69.8999 135.277 70.6097L132.109 73.849C125.643 80.4677 119.23 87.1506 113.605 94.5157C110.366 98.7569 107.456 103.203 104.949 107.917C103.761 110.15 102.685 112.438 101.712 114.773L101.329 115.702C100.873 116.814 100.381 118.059 100.107 119.315C100.921 120.125 101.516 121.314 102.174 122.232C102.921 123.274 103.782 124.266 104.668 125.191C105.564 126.128 106.548 127.026 107.592 127.796L107.717 127.886C108.915 128.739 110.29 129.327 110.47 130.95C110.548 131.654 109.92 132.221 109.338 132.44C107.746 133.04 106.096 131.317 105.035 130.326C104.373 129.708 103.765 129.042 103.2 128.339C102.651 128.418 102.098 128.457 101.551 128.392C100.704 128.291 99.8642 128.143 99.0384 127.925C92.1892 126.122 87.1196 120.422 84.3844 114.074C80.7123 105.551 80.7976 95.7263 82.3242 86.7135C85.1136 70.243 94.1414 54.8613 107.773 45.1233C111.591 42.3961 115.825 40.038 120.422 38.9614ZM127.801 41.1648C118.995 40.6996 110.966 45.2521 104.524 50.919C92.7953 61.2371 85.5709 76.3444 84.1175 91.8582C83.3452 100.101 83.9231 108.985 88.2104 116.268C89.8737 119.093 92.0161 121.555 94.5449 123.631C96.9278 125.588 99.6441 126.715 102.548 127.483C102.416 127.3 102.285 127.116 102.158 126.929C101.483 125.938 100.946 124.884 100.497 123.78C100.457 123.82 100.383 123.828 100.339 123.767C98.5056 121.246 99.0793 118.238 99.9529 115.465C100.869 112.557 102.03 109.728 103.355 106.983C108.185 96.98 115.368 88.2659 122.825 80.1342C126.633 75.9813 130.568 71.9488 134.488 67.9025C136.446 65.882 138.398 63.8555 140.326 61.8059C141.285 60.7855 142.239 59.7598 143.184 58.7258C144.118 57.7035 144.959 56.6208 146.122 55.8551C147.049 55.2449 147.975 56.4111 147.542 57.2785C146.875 58.6126 145.729 59.6703 144.714 60.7551L144.61 60.8675C143.621 61.9377 142.622 62.9993 141.618 64.0553C140.463 65.2697 139.299 66.4758 138.132 67.6789C139.128 67.5632 140.135 67.4967 141.125 67.346C142.469 67.1414 143.795 66.84 145.115 66.5122C146.505 66.1671 147.877 65.7264 149.202 65.1786C150.446 64.6642 151.623 63.8399 152.992 63.7592C154.151 63.6907 154.513 65.1293 153.871 65.8864C152.986 66.9296 151.395 67.3402 150.101 67.7276L149.918 67.7828C148.487 68.2208 147.022 68.5494 145.542 68.769C143.594 69.0581 141.343 69.1904 139.259 68.8945C143.42 71.3407 147.25 74.3723 151.069 77.3288L151.742 77.8497C155.473 80.7274 159.115 83.8296 161.775 87.7669C164.258 91.4425 165.757 95.7217 166.599 100.058C167.014 102.197 167.288 104.358 167.471 106.529C168.156 108.454 168.046 110.742 167.874 112.859L167.812 113.589L167.817 113.804C167.843 115.127 168.373 118.075 167.124 119.075C167.102 119.181 167.082 119.288 167.06 119.395C167.216 119.299 167.369 119.2 167.522 119.098C167.584 119.056 167.645 119.009 167.706 118.964L167.879 118.822C167.886 118.816 167.891 118.811 167.896 118.807C168.284 118.466 168.654 118.11 168.999 117.724C169.636 117.012 170.242 116.107 170.816 115.065C172.077 112.774 172.882 110.283 173.505 107.708C174.644 103.001 175.114 97.944 174.595 93.1159C174.522 92.4419 174.373 91.5969 174.142 90.73C173.594 88.6714 172.964 86.6347 172.258 84.6253C170.845 80.6057 169.114 76.7061 167.095 72.9558C162.996 65.3388 157.721 58.2966 151.401 52.387C145.001 46.4022 136.7 41.6348 127.801 41.1648ZM115.382 65.5017C115.7 65.3073 116.026 65.6849 115.869 65.9897C115.106 67.4647 113.824 68.71 112.759 69.9739C111.656 71.2825 110.561 72.5984 109.469 73.9162C107.246 76.5993 105.075 79.3316 102.99 82.1248L102.44 82.8637C100.607 85.3303 98.7965 87.8359 97.1943 90.4567C96.356 91.8277 95.6173 93.2456 94.9465 94.7059C94.3079 96.0959 94.0134 97.7738 93.246 99.0795C93.1977 99.162 93.048 99.1552 93.0295 99.051C92.779 97.6451 93.3978 95.9518 93.8399 94.6353C94.3654 93.0696 95.1134 91.5783 95.9141 90.138C97.5843 87.1334 99.5854 84.3172 101.596 81.5349C103.638 78.7098 105.757 75.9424 107.981 73.2587C109.026 71.9981 110.094 70.7627 111.194 69.5517L111.608 69.0987C112.76 67.8458 113.921 66.3957 115.382 65.5017ZM110.043 61.1338C110.565 60.746 111.011 61.5386 110.678 61.9587C108.688 64.4683 106.424 66.7232 104.246 69.0637C102.155 71.3114 100.156 73.6432 98.2693 76.0668C94.4233 81.0088 91.3446 86.4316 88.7372 92.115C88.6881 92.2222 88.5333 92.1423 88.5565 92.0387C89.9376 85.8912 93.1665 80.3078 96.843 75.2631L96.9829 75.0717C100.702 69.9987 104.976 64.899 110.043 61.1338Z" fill="black"/>
<path fill-rule="evenodd" clip-rule="evenodd" d="M152.447 123.814C151.75 124.726 150.487 125.424 149.073 125.758C147.726 126.076 146.237 126.063 144.953 125.574L144.842 125.53C143.882 125.131 142.959 124.325 142.609 123.484C142.47 123.149 142.423 122.809 142.518 122.492C142.604 122.207 142.805 121.944 143.14 121.719C143.245 121.648 143.386 121.643 143.52 121.666C143.686 121.696 143.851 121.774 143.95 121.879C144.499 122.464 145.297 123.034 146.241 123.024C146.969 123.017 147.564 122.729 148.141 122.404L148.546 122.172C148.937 121.949 149.334 121.739 149.783 121.643C150.586 121.471 151.56 121.785 152.154 122.302C152.413 122.528 152.601 122.793 152.652 123.078C152.695 123.318 152.634 123.569 152.447 123.814ZM148.271 107.866C149.866 108.836 152.297 111.099 150.581 113.504C148.56 115.624 145.652 113.193 144.219 112.093C142.889 111.241 141.396 113.433 142.629 114.428C152.986 122.099 157.19 108.12 149.078 106.726C148.184 106.572 147.853 107.566 148.271 107.866ZM130.272 92.9565L130.731 92.8308L131.198 92.7046L131.514 92.621C133.685 92.0526 136.079 91.5524 138.232 91.7966C139.017 91.8858 139.654 92.3277 139.765 93.1505C139.859 93.8448 139.41 94.7405 138.647 94.8639C136.119 95.2731 133.53 95.1404 130.991 95.5622C129.726 95.7721 128.471 96.0327 127.211 96.2675C126.252 96.4463 125.262 96.5091 124.296 96.6536L124.518 96.6845C124.596 96.695 124.577 96.8259 124.5 96.8206C124.181 96.7888 123.862 96.7838 123.543 96.8062L123.406 96.8174C123.197 96.8468 123.074 96.5978 123.26 96.4714C124.438 95.6723 125.437 94.8062 126.755 94.2172C127.895 93.7078 129.069 93.2879 130.272 92.9565ZM150.034 91.7309C151.703 90.0431 155.253 90.6917 157.238 91.4637C158.371 91.9046 159.449 92.462 160.346 93.2957L160.434 93.3778L160.569 93.5074C161.174 94.1007 161.85 94.9172 161.754 95.7725C161.739 95.903 161.668 96.052 161.521 96.0782C160.726 96.2191 159.945 95.7994 159.21 95.5468L158.724 95.3799C157.994 95.131 157.259 94.8932 156.506 94.7215C155.569 94.5085 154.614 94.3852 153.653 94.3975C152.681 94.4102 151.638 94.6845 150.712 94.2986C149.68 93.8685 149.145 92.6308 150.034 91.7309ZM133.546 105.343C133.12 105.778 132.557 106.024 131.838 105.878C131.275 105.764 130.204 105.198 129.349 104.327C128.764 103.731 128.274 102.986 128.141 102.123C128.11 101.923 128.004 101.794 127.864 101.713C127.754 101.65 127.609 101.617 127.451 101.633C127.316 101.647 127.173 101.696 127.063 101.76C126.853 101.883 126.768 102.057 126.75 102.188C126.582 103.444 127.067 104.69 127.823 105.741C128.843 107.159 130.342 108.199 131.222 108.442C132.73 108.859 134.318 108.527 135.489 107.478C136.425 106.639 136.905 105.545 137.35 104.421L137.436 104.203C137.536 103.948 137.635 103.695 137.741 103.445C137.952 102.943 137.884 102.509 137.68 102.171C137.453 101.796 137.034 101.532 136.569 101.451C136.138 101.376 135.677 101.458 135.313 101.721C135.006 101.944 134.758 102.296 134.67 102.817C134.527 103.663 134.195 104.635 133.609 105.276L133.546 105.343ZM159.389 100.442C159.038 100.259 158.763 100.204 158.373 100.321C158.158 100.386 157.945 100.51 157.778 100.676C157.613 100.842 157.494 101.047 157.448 101.275C157.334 101.838 157.026 102.365 156.587 102.708C156.213 103.001 155.74 103.157 155.215 103.069C154.648 102.975 154.109 102.611 153.737 102.183C153.634 102.064 153.549 101.931 153.467 101.796L153.418 101.715C153.235 101.413 153.057 101.132 152.804 100.91C152.709 100.825 152.564 100.767 152.425 100.767C152.368 100.767 152.31 100.776 152.255 100.793C151.692 101.359 151.583 101.788 151.602 102.214C151.621 102.661 151.797 103.113 152.081 103.535C152.748 104.524 154.015 105.335 154.869 105.519C156.04 105.771 157.202 105.469 158.134 104.815C159.093 104.142 159.804 103.097 160.026 101.92C160.079 101.636 160.056 101.33 159.948 101.064C159.843 100.805 159.659 100.583 159.389 100.442Z" fill="black"/>
<path fill-rule="evenodd" clip-rule="evenodd" d="M159.889 92.1487C164.848 92.1487 167.678 93.2155 168.715 93.2986L168.746 93.3008C169.177 93.3284 169.564 93.3645 169.97 93.5215C171.463 94.0967 171.706 95.6629 170.835 96.6499C170.774 98.6923 171.042 101.079 170.582 103.128C170.013 111.766 165.953 113.224 163.644 113.756C162.486 114.023 161.112 114.129 159.881 113.847C157.781 113.769 155.705 113.111 153.929 111.966C151.455 110.37 149.618 107.917 149.021 105.005C148.739 103.617 148.607 102.173 148.761 100.762L148.783 100.568C147.979 100.183 147.048 100.11 146.087 100.076C145.628 100.06 145.176 100.045 144.737 100.065C144.307 100.113 143.883 100.177 143.457 100.264C142.992 100.404 142.554 100.635 142.148 101.002L142.12 101.537C142.044 102.874 141.869 104.215 141.598 105.527C141.198 107.463 140.556 109.311 139.188 110.684C138.725 111.376 138.152 111.993 137.456 112.528C134.929 114.474 131.496 115.189 128.345 114.92C121.949 114.374 118.252 109.294 117.4 107.123L117.349 106.991C116.733 105.377 116.243 103.283 114.298 102.936L113.884 102.862C112.996 102.695 112.177 102.463 111.657 101.597C111.429 101.218 111.312 100.795 111.283 100.364C110.979 100.388 110.676 100.41 110.374 100.432C107.964 100.941 93.5071 101.374 92.3532 101.374C92.3532 101.374 90.1351 102.308 89.1986 101.584C88.5495 101.081 88.3359 100.41 88.6933 99.6505C89.2324 98.5074 91.7198 97.8198 92.8243 97.6021C92.8243 97.6021 110.648 97.7502 111.931 97.5069C112.724 96.6881 114.144 96.8002 115.33 96.6707C116.313 95.9702 117.686 95.5009 118.772 95.1869C118.993 95.103 119.212 95.022 119.425 94.9456C121.414 94.2367 123.482 93.8613 125.582 93.6597C127.747 93.4538 129.919 93.547 132.071 93.842C132.978 93.9651 133.877 94.1243 134.769 94.3324C136.366 94.5431 137.955 94.8902 139.553 95.3019L139.873 95.3851C141.556 95.8265 143.285 96.2083 145.028 95.909C146.446 95.667 147.81 95.121 149.118 94.5305L149.288 94.4532C152.163 93.1398 156.654 92.1487 159.889 92.1487ZM134.596 96.9511C133.535 96.7176 133.082 98.3541 134.146 98.5881C134.9 98.7539 135.539 99.1341 135.97 99.7783L136.016 99.8483C136.595 100.77 138.059 99.9192 137.476 98.9914C136.82 97.9472 135.8 97.2159 134.596 96.9511ZM165.67 95.9364C165.296 95.6728 164.73 95.8685 164.513 96.241C164.274 96.6511 164.431 97.1077 164.781 97.376L164.817 97.4022C165.138 97.6288 165.451 98.0349 165.49 98.451L165.494 98.503C165.536 99.592 167.228 99.5975 167.185 98.503C167.144 97.4324 166.524 96.5379 165.67 95.9364Z" fill="black"/>
</svg>
