<svg width="240" height="324" viewBox="0 0 240 324" fill="none" xmlns="http://www.w3.org/2000/svg">
<path fill-rule="evenodd" clip-rule="evenodd" d="M47.4644 285.957C75.0654 290.151 103.167 290.362 130.998 288.839C142.012 288.014 153.06 287.865 164.065 288.92C170.568 289.404 199.081 291.584 201.41 285.757C199.944 254.73 196.975 223.438 187.865 193.598C184.119 183.002 180.901 174.208 173.589 165.44C171.284 163.046 166.314 158.025 163.467 156.387C161 154.969 159.968 155.475 158.552 153.079C157.144 150.433 156.106 146.012 154.107 144.145C152.072 142.243 149.056 142.924 145.317 143.536C146.004 134.251 141.72 131.887 135.818 130.121C125.444 126.16 115.198 128.15 112.587 140.784C107.746 140.784 105.026 142.868 102.086 144.871C100.884 145.689 101.72 147.775 100.285 148.419C97.6287 149.365 92.9353 149.133 90.378 150.297C78.7491 155.591 68.3916 163.269 61.5895 174.481C46.3402 198.42 35.8651 248.847 37.6778 277.22C36.8836 278.466 37.9818 280.253 38.261 281.593C38.6133 282.758 39.7544 283.533 40.9453 283.401C42.6071 285.189 45.1774 285.587 47.4644 285.957Z" fill="#D08B5B"/>
<path fill-rule="evenodd" clip-rule="evenodd" d="M104.887 142.681C106.588 140.906 109.254 139.846 111.779 139.906L111.898 139.91L112.755 139.948L112.182 142.759L112.153 142.893L112.036 143.381L111.881 144.02L111.826 144.255L111.767 144.515C111.758 144.557 111.749 144.599 111.74 144.64L111.715 144.763L111.47 145.958L111.516 146.064L111.503 146.335C111.465 147.317 111.676 147.856 112.142 148.029L112.179 148.042L112.445 148.127L112.661 148.598C113.16 149.673 113.625 150.613 114.103 151.498C115.496 154.079 117.158 156.66 119.074 159.253C120.895 161.717 122.791 164.069 124.763 166.302C125.65 167.306 126.586 168.314 127.583 169.341L128.441 170.22L128.714 170.496L128.898 170.679L129.126 170.904L129.456 171.218L129.696 171.454L129.773 171.527C129.871 171.618 129.946 171.679 130.014 171.723L130.039 171.739L130.115 171.783L134.093 175.969L135.498 176.742L136.165 177.112L136.3 176.842L136.328 176.756L137.806 173.508L138.709 171.518C140.562 167.425 142.004 164.169 143.322 161.069L143.486 160.682L143.972 159.529L144.23 158.913C145.408 156.088 146.279 153.908 147.058 151.79L147.169 151.488L147.333 151.035L147.576 150.352L147.621 150.236C147.832 149.694 147.312 147.724 146.8 146.645L146.771 146.585L146.638 146.318L146.494 146.036C146.156 145.375 145.91 144.641 145.704 143.753C145.671 143.609 145.639 143.465 145.61 143.319L145.567 143.099L145.54 142.954L145.502 142.752L145.448 142.463L146.593 142.271L147.222 142.169L147.496 142.126C147.851 142.071 148.167 142.026 148.465 141.988L148.576 141.974L148.775 141.951L148.782 141.99L149.191 142.03L149.494 142.062C150.989 142.22 152.143 142.394 152.961 142.587L153.042 142.607L153.188 142.644L153.255 142.661C154 142.862 154.574 143.295 155.028 143.934C155.34 144.373 155.542 144.793 155.862 145.589L155.977 145.876L156.358 146.818C156.402 146.932 156.471 147.116 156.564 147.368L156.887 148.248L158.507 152.723L160.165 153.595C160.935 153.998 161.499 154.289 161.777 154.427L161.876 154.475L161.947 154.507L162.518 154.734L162.457 154.912L162.526 154.951C169.35 158.879 174.613 164.92 178.71 172.941L178.834 173.184L178.961 173.437C182.226 179.97 184.566 187.26 186.85 196.994L186.992 197.599L187.103 198.08L187.698 200.678C189.936 210.485 191.474 217.798 192.746 224.974L192.829 225.442L193.041 226.661C194.639 235.949 195.977 245.153 197.048 254.267L197.226 255.8C197.672 259.717 198.076 263.764 198.514 268.625L198.573 269.278L198.765 271.462C198.971 273.815 199.158 276.163 199.328 278.506L199.411 279.677L199.583 282.223L199.684 283.674L199.696 283.87L199.737 284.627L199.748 284.804C199.763 285.031 199.781 285.223 199.803 285.4L199.82 285.531L199.839 285.658C199.896 286.004 200.007 286.315 200.192 286.661L200.24 286.749L200.557 287.316L199.982 287.619C196.985 289.199 191.083 289.894 182.986 289.93L182.74 289.931H182.234C178.3 289.929 174.13 289.777 169.78 289.518L168.796 289.457L167.975 289.405C167.621 289.382 167.276 289.359 166.919 289.334L166.372 289.295L164.084 289.128C153.794 288.142 143.002 288.158 131.112 289.049C100.111 290.745 73.3534 290.029 48.2038 286.274L47.4422 286.16L46.881 286.068L46.5462 286.012C43.8786 285.557 42.2035 284.973 40.8965 283.747L40.828 283.682L40.771 283.626L40.7463 283.627C39.4302 283.621 38.2254 282.76 37.7784 281.49L37.7552 281.421L37.7257 281.327L37.7053 281.232C37.6845 281.141 37.6585 281.043 37.6269 280.935L37.6021 280.852L37.3943 280.171L38.0943 280.043C38.1546 280.032 38.2173 279.99 38.2781 279.902L38.3364 279.818L38.4374 279.678L38.6812 279.344C38.9409 278.98 39.0686 278.751 39.1319 278.521C39.188 278.318 39.2089 278.057 39.2029 277.695L39.1982 277.517L39.1706 276.875C39.1688 276.824 39.1676 276.778 39.1668 276.735L39.1659 276.67L39.1654 275.766L39.1677 274.772C39.1693 274.338 39.1717 273.915 39.1751 273.5L39.1807 272.882L39.1864 272.385C39.2201 269.631 39.3008 266.88 39.4287 264.134C39.6786 258.771 40.1073 253.417 40.7138 248.083C41.9661 237.07 43.8842 226.389 46.4935 216.068L46.7556 215.037C49.577 204.007 52.2972 195.503 55.7546 187.639C60.152 177.637 65.5138 169.405 72.2647 162.824C75.9764 159.206 80.0869 156.152 84.4552 153.81C86.4642 152.732 88.5993 151.776 90.889 150.916L91.2172 150.794L91.7468 150.601L92.1532 150.451L93.4625 149.961C93.7377 149.858 94.0373 149.742 94.3914 149.603L94.6107 149.517L96.9554 148.581L97.3447 148.428L97.7777 148.259L98.0959 148.137C98.6162 147.939 99.0873 147.765 99.5247 147.613L99.7832 147.523L100.018 147.444L101.018 147.098L100.999 148.009C100.986 148.614 101.142 149.072 101.488 149.4L101.5 149.411L101.512 149.42L101.522 149.427L101.583 149.426L101.819 149.425C101.844 149.411 101.867 149.395 101.888 149.377C102.225 149.091 102.381 148.708 102.533 147.829L102.573 147.584L102.644 147.126L102.672 146.952C102.773 146.342 102.861 146.005 103.032 145.62C103.28 145.063 103.608 144.52 103.993 144.021L104.083 143.907L104.443 143.474L104.498 143.406C104.624 143.244 104.689 143.13 104.716 143.025L104.723 142.997L104.759 142.815L104.887 142.681Z" fill="#FFCF77"/>
<path fill-rule="evenodd" clip-rule="evenodd" d="M161.709 155.686C161.54 155.591 161.689 155.349 161.859 155.429C170.045 159.27 176.324 166.01 180.743 173.797C185.318 181.861 187.926 191.016 190.174 199.963L190.255 200.287C192.652 209.859 194.691 219.53 196.526 229.224C198.384 239.042 199.876 248.92 201.076 258.839C201.67 263.744 202.199 268.657 202.612 273.58C202.818 276.04 203.005 278.502 203.174 280.965C203.241 281.95 203.304 282.935 203.359 283.921L203.398 284.661C203.431 285.331 203.511 286.004 203.345 286.666C203.202 287.236 202.9 287.753 202.635 288.276C202.109 289.312 200.67 289.141 200.104 288.276L199.939 288.024C199.564 287.444 199.252 286.905 199.134 286.183C199.02 285.483 199.016 284.751 198.965 284.044C198.871 282.745 198.791 281.444 198.7 280.144C198.508 277.407 198.293 274.672 198.055 271.94C197.583 266.545 197.078 261.155 196.457 255.774C195.353 246.213 193.969 236.677 192.337 227.191C190.742 217.925 188.727 208.753 186.624 199.593L186.406 198.645C182.723 182.652 177.048 164.233 161.709 155.686ZM74.5219 218.313C74.5821 218.153 74.8411 218.117 74.8848 218.313C75.4362 220.797 75.4907 223.355 75.575 225.898C75.6581 228.406 75.6547 230.926 75.6181 233.435C75.4833 242.659 75.2302 251.876 75.0114 261.098C74.9019 265.711 74.7993 270.325 74.7205 274.939C74.6907 276.669 74.6656 278.4 74.6448 280.13L74.6194 282.412C74.6067 283.422 74.5802 284.418 74.4572 285.426C74.3761 286.089 74.2033 286.722 73.8374 287.29C73.5777 287.693 73.2076 287.898 72.8468 288.172L72.7793 288.225C72.3192 288.588 71.8345 288.591 71.3788 288.225L71.2465 288.12C70.8112 287.779 70.435 287.513 70.1571 286.975C69.7705 286.226 69.7086 285.412 69.6428 284.587C69.5431 283.336 69.6093 282.067 69.6221 280.812C69.6479 278.295 69.6828 275.778 69.7269 273.261C69.889 264.031 70.2093 254.799 70.793 245.586C71.068 241.246 71.4409 236.892 71.941 232.57L72.0363 231.76C72.188 230.488 72.3264 229.194 72.4823 227.896C70.1548 226.258 68.1088 224.271 66.3642 222.016C66.2357 221.851 66.4472 221.618 66.6023 221.778C68.385 223.625 70.429 225.097 72.6919 226.255C73.0626 223.536 73.5724 220.833 74.5219 218.313ZM113.406 136.038C113.438 136.013 113.488 136.002 113.518 136.038C114.019 136.621 113.917 137.513 113.933 138.253L113.935 138.322C113.971 139.403 113.978 140.48 113.974 141.562L113.963 145.005C113.962 145.478 113.923 145.971 113.947 146.448L113.96 146.632C114.223 146.901 114.345 147.29 114.256 147.681C114.24 148.182 113.978 148.601 113.596 148.863L114.415 150.026L115.235 151.188C116.925 153.586 118.633 155.962 120.414 158.294C122.229 160.671 124.166 162.959 126.193 165.159C127.183 166.234 128.19 167.294 129.221 168.33C129.64 168.751 130.069 169.162 130.494 169.577L130.916 169.995C131.165 170.244 131.479 170.491 131.645 170.808C131.742 170.994 131.765 171.454 131.799 171.53C132.112 172.218 131.579 173.314 130.692 172.971L130.732 172.944C130.894 172.832 130.79 172.83 130.422 172.939C130.19 172.939 129.972 172.885 129.768 172.779L129.707 172.746C129.421 172.6 129.165 172.318 128.932 172.092L128.874 172.037C128.342 171.538 127.834 171.009 127.323 170.487C126.258 169.398 125.217 168.286 124.209 167.145C122.197 164.867 120.291 162.496 118.485 160.053C116.646 157.563 114.936 154.947 113.466 152.222C112.908 151.188 112.396 150.135 111.906 149.068C110.951 148.762 110.73 147.746 110.796 146.602C110.444 145.782 110.127 144.945 109.939 144.089C109.914 143.972 110.064 143.861 110.155 143.964C110.46 144.311 110.743 144.68 111.014 145.059C111.178 144.257 111.386 143.519 111.483 143.048L111.906 140.971C109.522 140.847 106.909 141.827 105.265 143.542C105.177 143.989 104.833 144.309 104.498 144.727C104.115 145.204 103.781 145.74 103.532 146.3C102.98 147.542 103.291 149.372 102.219 150.283C102.107 150.378 101.983 150.444 101.854 150.485C102.362 152.98 102.132 155.73 102.12 158.262L102.12 158.485C102.123 161.319 102.028 164.154 101.919 166.986L101.807 169.788C101.663 173.525 101.569 177.264 101.932 180.98C103.59 179.512 105.303 178.11 107.076 176.775C108.242 175.897 109.431 175.05 110.641 174.235L111.625 173.578C112.804 172.787 114.011 171.973 115.302 171.407C116.99 170.667 118.595 170.921 120.225 171.681C121.848 172.437 123.422 173.316 125.014 174.135C126.633 174.969 128.256 175.796 129.877 176.624C130.951 177.173 132.525 177.669 133.313 178.68C133.363 178.456 133.422 178.233 133.49 178.011C133.412 177.672 133.442 177.306 133.632 176.957C136.28 172.091 138.729 167.109 141.161 162.133C142.392 159.615 143.562 157.067 144.796 154.55L145.995 152.099C146.195 151.691 146.396 151.282 146.598 150.875C146.901 150.265 147.216 149.661 147.521 149.053C147.651 148.796 147.813 148.54 147.939 148.281L147.998 148.151C148.001 148.144 148.292 147.23 148.067 147.317L148.048 147.326C147.933 147.391 147.842 147.247 147.916 147.155C148.233 146.763 148.675 147.11 148.856 147.474C149.355 148.473 148.441 150.043 148.089 151L148.07 151.054C146.979 154.144 145.743 157.175 144.478 160.197C142.05 165.989 139.443 171.693 136.841 177.406L136.81 177.504C137.365 177.079 137.957 176.693 138.465 176.317C139.744 175.369 141.061 174.467 142.376 173.568C144.788 171.92 147.264 170.381 149.782 168.902L150.286 168.607C151.544 167.874 152.79 167.28 154.283 167.5C155.67 167.704 156.959 168.45 158.212 169.055L158.341 169.117L162.213 170.958C161.799 169.307 161.351 167.664 160.883 166.027C159.971 162.835 158.968 159.669 157.88 156.531C156.864 153.599 155.765 150.7 154.603 147.823L154.254 146.96C153.78 145.775 153.309 144.484 151.955 144.119C150.602 143.754 149.049 144.295 147.813 143.523C147.7 143.453 147.714 143.268 147.85 143.234L148.614 143.041C150.046 142.685 151.726 142.326 153.081 142.673C154.556 143.051 155.775 144.289 156.491 145.575C157.286 147.007 157.847 148.609 158.451 150.136L158.546 150.376C159.239 152.104 159.905 153.842 160.543 155.591C161.818 159.086 162.978 162.624 164.029 166.194C164.535 167.914 165.015 169.643 165.477 171.376C165.609 171.874 165.828 172.478 166.008 173.109C166.214 173.309 166.408 173.533 166.591 173.789C166.894 174.213 166.677 174.71 166.3 174.964C166.285 175.397 166.189 175.805 165.959 176.155C165.06 177.52 162.683 177.168 162.78 175.333C162.794 175.052 162.904 174.784 163.069 174.558L163.065 174.521L163.046 174.454C162.633 174.256 162.219 174.035 161.782 173.819L157.719 171.811C156.542 171.229 155.238 170.33 153.929 170.109C152.709 169.902 151.422 170.811 150.374 171.36L150.306 171.395C147.772 172.694 145.256 174.037 142.751 175.39C141.528 176.051 140.321 176.74 139.102 177.408C138.084 177.968 136.984 178.77 135.839 179.086C135.35 179.466 134.769 179.415 134.302 179.128C134.516 180.45 134.503 181.806 134.568 183.158C134.656 184.965 134.67 186.777 134.699 188.586L134.71 189.265C134.787 193.265 134.829 197.266 134.844 201.266C134.898 215.513 134.74 229.764 134.704 244.011C134.685 251.169 134.543 258.333 134.357 265.488C134.279 268.52 134.114 271.549 133.936 274.576L133.838 276.227C133.631 279.711 133.508 283.234 132.864 286.671C132.779 287.119 132.021 287.131 131.947 286.671C131.353 282.988 131.32 279.224 131.206 275.498L131.182 274.753C131.045 270.752 130.98 266.754 130.994 262.751C131.045 248.499 131.415 234.255 131.718 220.007C131.87 212.848 131.973 205.686 132.209 198.529C132.328 194.948 132.461 191.37 132.62 187.79C132.691 186.192 132.76 184.596 132.866 183L132.914 182.316C132.947 181.87 132.973 181.429 133.005 180.993C131.564 181.519 130.246 180.544 128.949 179.877C127.454 179.108 125.961 178.337 124.465 177.57L122.969 176.803L119.975 175.275C118.626 174.586 117.587 173.901 116.149 174.709C110.968 177.617 106.207 181.486 101.893 185.545C101.066 186.324 99.3174 186.115 99.1078 184.81C98.2126 179.235 98.7571 173.58 99.2141 167.989L99.3826 165.913C99.5868 163.434 99.8091 160.954 100.105 158.485C100.238 157.38 100.37 156.276 100.516 155.174L100.628 154.347C100.811 153.041 100.93 151.742 101.319 150.488C101.196 150.449 101.078 150.383 100.973 150.283C99.8027 149.173 100.367 147.246 100.901 145.925C101.428 144.621 102.232 143.483 103.238 142.504C103.458 142.29 103.767 142.152 104.078 142.145C106.519 140.528 109.197 139.72 111.984 140.603C112.062 140.229 112.142 139.855 112.226 139.482L112.311 139.11C112.528 138.185 112.608 136.656 113.406 136.038ZM138.421 282.127C139.179 281.919 140.008 282.138 140.563 282.693C141.118 283.249 141.338 284.078 141.129 284.836C141.025 285.209 140.836 285.532 140.563 285.807C140.308 286.061 140.011 286.242 139.671 286.35L139.592 286.374L139.468 286.425C139.088 286.527 138.708 286.527 138.329 286.425C137.966 286.323 137.651 286.14 137.384 285.874C137.118 285.607 136.934 285.291 136.833 284.928C136.73 284.548 136.73 284.169 136.833 283.789L136.884 283.665C136.989 283.292 137.177 282.968 137.45 282.693C137.725 282.421 138.049 282.232 138.421 282.127ZM183.394 206.624C183.518 206.482 183.72 206.665 183.643 206.817C182.463 209.13 181.148 211.427 179.856 213.682C179.959 214.307 180.062 214.927 180.18 215.531C180.684 218.107 181.3 220.636 181.702 223.236C183.147 232.582 183.898 242.029 184.541 251.458C185.187 260.922 185.27 270.389 185.366 279.871C185.375 280.693 184.743 281.648 183.896 281.803C183.509 281.874 183.219 281.86 182.832 281.803C181.95 281.673 181.399 280.664 181.361 279.871C181.109 274.572 180.769 269.279 180.375 263.988C179.677 254.608 179.25 245.203 178.687 235.812L178.488 232.53C178.275 228.974 178.08 225.416 178.016 221.854C177.974 219.495 178.1 217.136 178.023 214.779C177.951 212.603 177.731 210.237 178.21 208.099C178.228 208.019 178.354 207.999 178.391 208.076C178.89 209.126 179.205 210.267 179.449 211.432C180.734 209.806 182.042 208.177 183.394 206.624ZM99.2256 149.149C99.406 149.135 99.3988 149.406 99.2256 149.426C96.7039 149.719 94.2679 150.746 91.8868 151.618L91.6829 151.693C89.2774 152.566 86.9321 153.581 84.6752 154.791C80.2624 157.157 76.2103 160.209 72.6276 163.701C58.3237 177.645 51.8051 197.751 47.0285 216.646C44.3746 227.144 42.4873 237.82 41.2641 248.577C40.6592 253.897 40.2316 259.238 39.9823 264.586C39.8547 267.327 39.7742 270.071 39.7406 272.815C39.7233 274.221 39.7183 275.627 39.7199 277.032C39.7208 277.676 39.8357 278.487 39.6635 279.113C39.5038 279.692 39.0534 280.202 38.7202 280.685C38.3254 281.258 37.6157 281.227 37.2154 280.685L37.0677 280.487C36.6408 279.921 36.223 279.379 36.162 278.638C36.0967 277.845 36.1428 277.026 36.1398 276.229C36.133 274.622 36.1529 273.016 36.185 271.41C36.2469 268.331 36.3682 265.254 36.5484 262.18C36.9143 255.942 37.5166 249.717 38.379 243.528C39.912 232.527 42.2097 221.631 45.2194 210.94C48.0589 200.855 51.4227 190.799 56.2147 181.457C60.664 172.783 66.5009 164.714 74.2028 158.652C77.7844 155.833 81.6834 153.484 85.887 151.715C88.007 150.822 90.2334 150.094 92.4975 149.678C94.7366 149.268 96.9659 149.325 99.2256 149.149ZM138.856 264.3C139.255 264.297 139.701 264.385 140.045 264.607L140.503 264.961C140.627 265.121 140.751 265.281 140.874 265.441C141.161 265.815 141.199 266.42 141.139 266.865C141.125 267.162 141.037 267.439 140.874 267.695L140.525 268.147C140.189 268.421 139.91 268.616 139.504 268.748C139.291 268.817 139.087 268.831 138.883 268.821L138.815 268.816L138.856 268.822L138.784 268.814C138.718 268.808 138.651 268.801 138.584 268.792C138.539 268.786 138.493 268.783 138.448 268.776C138.404 268.773 138.362 268.771 138.318 268.775C137.802 268.824 137.282 268.531 136.916 268.194C136.586 267.891 136.289 267.248 136.335 266.792L136.355 266.601C136.39 266.28 136.418 266.154 136.554 265.831C136.687 265.517 136.872 265.24 137.123 265.005C137.605 264.557 138.194 264.305 138.856 264.3ZM137.257 240.781C137.943 240.033 139.12 239.979 139.97 240.43C140.177 240.541 140.367 240.718 140.549 240.865C141.009 241.237 141.19 241.908 141.215 242.474C141.24 243.033 140.946 243.696 140.549 244.082L140.453 244.176C140.216 244.406 139.877 244.606 139.546 244.667C139.011 244.765 138.563 244.762 138.065 244.552C137.638 244.372 137.269 244.082 137.019 243.688L136.978 243.622C136.961 243.594 136.945 243.566 136.929 243.537L136.907 243.494C136.431 242.578 136.559 241.541 137.257 240.781ZM137.612 217.137C137.921 217.04 138.23 217.026 138.539 217.096C138.749 217.096 138.945 217.149 139.126 217.254C139.323 217.309 139.494 217.409 139.639 217.553C139.813 217.656 139.953 217.796 140.056 217.97C140.262 218.195 140.4 218.459 140.472 218.761L140.555 219.379L140.472 219.998L140.238 220.553C140.173 220.638 140.108 220.722 140.043 220.805C139.939 220.981 139.8 221.12 139.625 221.224C139.511 221.337 139.38 221.422 139.234 221.481C138.717 221.852 138.027 221.973 137.414 221.804C137.05 221.702 136.733 221.517 136.465 221.251C136.199 220.982 136.014 220.666 135.913 220.302L135.871 220.011C135.816 219.621 135.808 219.405 135.918 218.909C135.967 218.691 136.107 218.383 136.181 218.254C136.495 217.701 137.009 217.322 137.612 217.137ZM164.45 200.127C165.338 200.121 166.225 200.122 167.112 200.132L167.778 200.141C168.892 200.159 169.847 200.044 170.723 200.817C171.359 201.379 171.079 202.32 170.475 202.743C169.561 203.384 168.413 203.062 167.362 202.991C166.253 202.917 165.144 202.855 164.034 202.805C161.885 202.709 159.735 202.648 157.583 202.638C155.437 202.629 153.287 202.649 151.14 202.684C148.956 202.719 146.682 202.923 144.51 202.697C144.212 202.666 144.145 202.273 144.439 202.171C146.486 201.463 148.788 201.233 150.933 200.963C153.145 200.683 155.357 200.485 157.583 200.357C159.87 200.226 162.16 200.143 164.45 200.127ZM137.608 193.171L137.681 193.172C138.072 193.173 138.438 193.265 138.779 193.448L138.851 193.488L139.32 193.851C139.607 194.14 139.806 194.481 139.916 194.874L139.999 195.49C140.011 195.809 139.944 196.107 139.799 196.383C139.706 196.671 139.546 196.919 139.32 197.129C139.11 197.355 138.862 197.515 138.574 197.609C138.319 197.743 138.046 197.81 137.755 197.81L137.681 197.808C137.263 197.807 136.873 197.702 136.512 197.492L136.043 197.129C135.756 196.84 135.557 196.499 135.447 196.106L135.364 195.49C135.352 195.171 135.418 194.873 135.564 194.597C135.657 194.31 135.817 194.061 136.043 193.851C136.253 193.625 136.501 193.465 136.789 193.372C137.044 193.238 137.317 193.171 137.608 193.171ZM144.478 138.712C144.978 137.988 145.882 138.632 145.753 139.213C145.787 140.847 145.871 142.432 146.242 144.032C146.412 144.765 146.635 145.498 146.979 146.169L147.123 146.452C147.568 147.331 147.914 148.161 147.314 149.125C147.032 149.58 146.521 149.922 145.968 149.898C143.514 149.792 143.177 146.375 143.028 144.468C142.874 142.503 143.352 140.344 144.478 138.712Z" fill="black"/>
<path fill-rule="evenodd" clip-rule="evenodd" d="M130.201 50.4504C139.64 50.4504 150.965 55.0377 151.928 55.1295L151.954 55.1308C152.46 55.1308 154.44 56.6427 157.892 59.6664L154.153 66.9778L154.455 67.2675C155.903 68.6593 157.14 69.9279 158.115 70.9279C166.083 79.0933 167.515 111.153 165.637 122.333C163.759 133.513 160.282 144.454 144.091 144.454C127.9 144.454 109.887 134.694 107.113 131.655C105.263 129.629 103.185 128.658 100.879 128.743C100.784 128.623 100.69 128.503 100.597 128.384L100.258 128.336C97.0666 127.872 94.78 127.249 93.3981 126.465C90.699 124.934 87.7322 116.886 87.7322 115.113C87.7322 113.358 83.3023 100.59 83.2137 99.2387L83.2123 99.2013C83.2123 98.0717 77.425 92.8794 77.425 91.2304C77.425 89.5814 76.2585 89.6814 77.425 83.8707L77.7639 82.1636C79.0053 75.9768 81.435 65.7324 90.699 61.2809C100.879 56.3891 120.667 50.4504 130.201 50.4504Z" fill="#D08B5B"/>
<path fill-rule="evenodd" clip-rule="evenodd" d="M156.624 62.2057C153.798 62.2914 150.546 62.4191 147.131 62.6091C141.939 62.898 136.377 63.3304 131.36 63.9783C126.328 64.6281 121.9 65.4877 118.944 66.6121C116.142 67.6784 113.778 70.2775 111.809 73.7332C109.849 77.1733 108.338 81.3604 107.197 85.4392C106.058 89.5127 105.294 93.448 104.815 96.3669C104.576 97.8256 104.408 99.0289 104.3 99.866C104.246 100.284 104.207 100.611 104.182 100.833C104.172 100.913 104.165 100.98 104.16 101.033C104.158 101.052 104.156 101.069 104.154 101.085L104.147 101.147C104.147 101.151 104.147 101.155 104.146 101.158C104.146 101.16 104.146 101.161 104.146 101.163V101.168L104.103 101.588L103.721 101.769L103.711 101.774C103.704 101.778 103.692 101.782 103.677 101.79C103.646 101.805 103.6 101.827 103.54 101.857C103.419 101.917 103.241 102.007 103.013 102.125C102.556 102.361 101.902 102.711 101.115 103.163C99.5406 104.068 97.4454 105.378 95.3545 106.999C94.3111 107.807 93.691 108.395 93.3379 108.812C93.2495 108.917 93.1816 109.005 93.1309 109.078L93.5118 109.098L93.4922 109.829V109.847L93.4912 109.904C93.4911 109.914 93.4908 109.924 93.4906 109.936C93.4896 109.985 93.4883 110.049 93.4873 110.128C93.4849 110.322 93.4828 110.605 93.4844 110.953C93.4877 111.65 93.5054 112.607 93.5635 113.649C93.6217 114.693 93.7201 115.811 93.8819 116.833C94.0456 117.867 94.2673 118.751 94.5498 119.355C94.767 119.819 95.3056 120.278 96.166 120.694C97.0052 121.099 98.0365 121.409 99.0616 121.64C100.081 121.87 101.065 122.016 101.797 122.104C102.162 122.148 102.463 122.178 102.671 122.196C102.775 122.205 102.855 122.211 102.909 122.216C102.921 122.216 102.932 122.217 102.941 122.218C102.953 122.219 102.962 122.22 102.97 122.22L102.984 122.221H102.988L103.51 122.255L103.659 122.756L104.974 127.168L105.015 127.305L105.002 127.448L104.793 129.799C104.323 129.524 103.84 129.306 103.345 129.145L103.495 127.459L102.367 123.672L102.313 123.666C102.12 123.648 101.885 123.626 101.617 123.594C100.853 123.501 99.8155 123.348 98.7315 123.103C97.6528 122.86 96.498 122.52 95.5137 122.045C94.5511 121.58 93.6285 120.926 93.1905 119.99C92.818 119.194 92.5709 118.144 92.4004 117.067C92.228 115.977 92.1263 114.804 92.0664 113.732C92.0065 112.659 91.9878 111.675 91.9844 110.961C91.9833 110.722 91.9849 110.513 91.9862 110.341L91.9864 110.317C91.7292 110.141 91.4671 109.827 91.4746 109.332C91.4821 108.841 91.7655 108.347 92.1924 107.843C92.6416 107.312 93.3535 106.651 94.4356 105.812C96.5965 104.138 98.754 102.791 100.368 101.863C101.176 101.399 101.85 101.038 102.323 100.793C102.467 100.718 102.593 100.654 102.698 100.601C102.724 100.376 102.762 100.063 102.813 99.6736C102.922 98.8219 103.093 97.6022 103.335 96.1248C103.82 93.1709 104.594 89.1786 105.753 85.0359C106.91 80.8986 108.459 76.58 110.505 72.99C112.542 69.4153 115.129 66.4584 118.411 65.2097C121.541 64.0191 126.117 63.1433 131.168 62.491C136.235 61.8367 141.837 61.401 147.048 61.1111C150.815 60.9015 154.383 60.7675 157.403 60.6819L156.624 62.2057Z" fill="#9DDADB"/>
<path fill-rule="evenodd" clip-rule="evenodd" d="M89.1276 61.0512C94.2047 55.6487 123.029 47.2924 137.611 49.0637L138.049 49.1205C139.213 49.2685 140.36 49.4925 141.492 49.7968C145.15 50.6534 148.929 51.9505 151.952 54.117C154.476 55.8894 162.437 58.7839 160.091 63.4205C160.961 65.073 161.286 67.1147 160.698 68.7423C160.624 69.3045 160.451 69.8223 160.23 70.3591C162.088 73.109 163.56 76.2188 164.751 79.1766C166.833 86.6206 168.129 94.3674 168.319 101.962C168.95 116.392 167.372 133.627 154.836 142.958C147.263 148.871 135.4 149.069 126.89 141.738C126.407 141.165 124.136 139.619 124.894 139.348C125.119 139.587 125.351 139.819 125.587 140.048C125.577 140.022 125.574 139.997 125.579 139.969L125.357 139.768C124.939 139.38 124.397 138.817 125.014 138.927C125.041 138.959 125.071 138.987 125.1 139.018C125.231 139.097 125.33 139.165 125.406 139.225L125.446 139.257L125.434 139.244C125.078 138.864 124.865 138.477 125.397 138.724L125.467 138.758C125.703 139.008 125.943 139.247 126.188 139.479C126.184 139.452 126.188 139.424 126.203 139.395L125.975 139.174C125.752 138.955 125.786 138.954 125.895 138.777C125.422 138.113 126.305 138.508 126.367 138.767C126.92 138.636 127.405 139.676 127.761 139.802C143.361 151.826 166.001 141.157 165.634 107.653L165.629 106.998C165.521 96.2844 164.622 85.2732 160.202 75.5752C159.772 74.6411 159.291 73.7323 158.762 72.853C158.398 72.1936 158.008 71.5511 157.588 70.9255C156.413 70.8304 155.254 70.6148 154.112 70.2809C153.719 70.1816 153.331 70.0717 152.944 69.9427C147.277 70.2526 141.736 70.5897 136.053 70.9092L134.278 71.0201C129.464 71.3303 124.486 71.8273 120.601 74.8123C116.79 77.5298 116.772 82.8886 113.509 85.8722C108.856 89.038 108.823 91.8927 107.927 96.5581C107.993 100.075 110.425 105.185 105.962 106.665C106.715 107.741 105.665 107.224 105.582 106.847C105.574 106.849 105.566 106.851 105.559 106.851C106.23 108.101 105.244 107.314 105.157 106.912C105.104 106.897 105.051 106.859 104.998 106.806C105.675 107.902 104.582 107.135 104.646 106.935C103.34 104.922 100.651 104.61 98.7558 105.143C98.7326 105.215 98.6485 105.221 98.5958 105.183C90.5367 106.934 92.616 123.66 100.875 122.043C101.228 121.97 101.22 122.141 101.29 122.157C101.099 121.655 101.637 121.859 101.631 121.965L101.664 121.963C101.69 121.961 101.68 121.958 101.699 121.965C101.514 120.938 102.552 122.425 102.47 122.487C102.502 122.468 102.538 122.457 102.57 122.453L102.534 122.355C102.362 121.895 102.377 122.086 102.378 121.823C102.248 121.497 102.239 121.64 102.269 121.427C102.724 121.074 102.858 122.146 103.01 122.224C102.75 121.861 102.957 121.564 103.202 121.761C105.062 125.684 107.465 129.369 110.57 132.272C110.91 132.54 111.254 132.805 111.61 133.054C112.93 134.207 114.956 134.949 116.193 135.971C116.193 135.988 116.185 136.009 116.172 136.03L116.2 136.055L116.229 136.083L116.659 136.29C116.786 136.398 116.899 136.518 117 136.651C117.108 136.776 117.203 136.913 117.283 137.059C117.323 137.237 117.235 137.311 117.066 137.235C116.992 137.209 116.918 137.18 116.845 137.152C116.849 137.158 116.851 137.163 116.855 137.167C116.879 137.204 117.043 137.584 116.854 137.522L116.832 137.514C116.728 137.476 116.625 137.433 116.524 137.393C116.644 137.543 116.754 137.706 116.851 137.843C116.954 137.951 117.017 138.078 117.043 138.222C117.038 138.302 116.994 138.336 116.914 138.325C116.792 138.285 116.672 138.243 116.551 138.198L116.586 138.264C116.671 138.432 116.791 138.713 116.577 138.619C116.393 138.562 116.216 138.496 116.039 138.424C116.024 138.454 115.995 138.465 115.936 138.437C115.373 138.236 114.829 137.991 114.308 137.702C113.851 137.368 113.389 137.04 112.93 136.708C112.497 136.448 112.08 136.159 111.682 135.833C109.015 134.107 106.681 131.914 104.83 129.472C101.733 132.16 95.5414 129.592 91.7114 127.487C88.3237 125.606 86.9921 122.128 86.6479 118.378C85.9321 113.33 81.8169 111.602 82.1032 100.525C82.0969 100.527 82.0903 100.527 82.0819 100.527C81.9322 100.483 81.787 100.424 81.6499 100.348C81.5087 100.28 81.3759 100.2 81.2513 100.102L81.0974 99.889C81.0175 99.8446 80.9458 99.7981 80.891 99.7516L80.8625 99.7883C80.7726 99.8972 80.833 99.7334 80.8383 99.7009L80.5709 99.3364C79.937 98.4687 79.2415 97.4952 78.675 96.7166L78.6572 96.7482C78.6444 96.7721 78.6376 96.7894 78.6436 96.7969C77.2954 94.855 76.0275 92.5095 75.6752 90.2387C75.2593 88.4896 75.4218 86.6872 75.7846 85.067C77.3403 79.3933 82.4363 66.5542 89.1276 61.0512ZM125.715 139.516L125.631 139.44L125.705 139.534C125.744 139.582 125.784 139.625 125.849 139.669C125.845 139.655 125.845 139.64 125.846 139.623C125.803 139.59 125.759 139.554 125.715 139.516ZM137.547 51.9146C127.658 51.0622 117.931 53.2463 108.494 55.8901L107.843 56.0776C102.477 57.6126 96.8036 58.9938 92.269 62.2792C85.9336 67.1438 82.6621 74.8826 79.8071 82.0278C77.3142 87.3365 78.5886 93.3225 82.3454 97.0294C82.7363 93.3458 83.4027 89.7699 84.4442 86.2228C84.6615 85.6687 84.4971 85.4871 84.9655 85.4149C85.673 94.9738 82.1884 102.036 89.0843 113.365C92.0765 118.711 88.6127 122.622 97.0625 125.435L97.2911 125.522C99.0515 126.188 100.974 126.714 102.698 126.342L102.544 126.09C102.386 125.83 102.338 125.704 102.567 125.593C102.561 125.581 102.553 125.568 102.544 125.553C102.359 125.202 102.18 124.847 102.009 124.488C101.939 124.511 101.87 124.528 101.798 124.547C101.845 124.634 101.851 124.721 101.72 124.75C101.256 124.91 100.779 124.974 100.29 124.944L100.185 124.936C99.6337 124.902 99.286 124.801 98.9751 124.708C98.872 124.691 98.7687 124.674 98.6673 124.653C97.6669 124.431 96.6079 123.865 95.9226 123.304C88.1099 118.856 88.9174 103.713 98.5473 102.281C98.7448 92.747 103.268 76.6616 110.776 67.5763C117.562 59.2193 136.088 55.5971 148.976 56.8743C149.164 56.9367 149.352 56.9997 149.54 57.0633C151.528 57.2404 153.423 58.1285 155.413 58.541C153.985 57.4676 152.364 56.7526 150.694 56.145C147.368 54.1052 143.555 53.0015 139.87 52.2231C139.107 52.035 138.334 51.9315 137.547 51.9146ZM98.1065 109.941C98.6243 109.659 98.5651 109.931 98.6842 109.852C102.409 109.547 106.425 112.816 108.506 115.542C108.342 115.713 107.897 115.205 107.819 115.125C107.809 115.136 107.796 115.144 107.783 115.148L107.841 115.23C108.685 116.444 107.012 115.016 106.856 114.722C106.828 114.736 106.801 114.745 106.769 114.738C106.902 114.869 107.307 115.209 107.376 115.451L107.484 115.54C108.496 116.409 108.412 117.063 107.263 115.829C107.29 115.886 107.3 115.939 107.281 115.981L107.321 116.008C107.886 116.404 108.351 117.507 107.17 116.374C107.293 117.202 105.999 115.602 105.958 115.613C103.719 113.852 100.423 112.139 97.6153 111.908L97.5187 111.897C97.0034 111.831 96.7598 111.678 96.9407 111.34C96.3061 111.189 96.4547 110.875 96.7552 110.886C96.3076 110.59 96.7105 110.308 96.9702 110.418C96.7916 109.923 97.5078 110.253 97.5732 110.184C97.9448 109.609 98.045 110.089 98.1065 109.941ZM90.2998 79.221C92.0886 78.5641 97.3725 80.5305 96.9498 83.1348C96.6981 83.7327 95.8687 84.0753 95.2858 83.7378L94.5249 83.2255C93.2009 82.3366 92.0068 81.5571 90.5853 80.7818C89.8116 80.397 89.4785 79.5799 90.2998 79.221ZM100.477 75.3509L99.7864 74.9002C96.0582 72.4541 90.7878 68.7477 100.135 72.5824C101.2 73.0404 102.615 73.3114 103.197 74.3284C104.11 76.2029 101.707 76.3288 100.477 75.3509ZM100.896 64.3757C100.597 63.2376 104.319 64.5731 105.403 64.9252L105.568 64.9877C106.622 65.3815 107.831 65.7468 108.461 66.6587C109.2 67.9188 107.705 68.1798 106.779 67.6106C104.88 66.3666 102.798 65.428 100.896 64.3757ZM110.362 59.074C108.267 56.7802 113.874 58.9776 114.714 59.5876L114.738 59.6056C115.365 60.0479 115.238 61.0007 114.649 61.2805C112.974 61.3124 111.741 59.9124 110.362 59.074ZM119.897 56.5608C116.566 54.1609 120.954 55.3024 122.478 56.2429C123.516 57.1613 122.446 58.7115 119.897 56.5608Z" fill="black"/>
<path fill-rule="evenodd" clip-rule="evenodd" d="M128.915 119.159C131.223 117.769 139.848 118.788 146.623 119.159C152.003 119.454 155.845 118.87 157.075 119.698C159.854 121.569 158.504 130.616 153.716 131.853C148.928 133.09 131.179 134.818 128.118 131.853C125.058 128.888 124.776 121.653 128.915 119.159Z" fill="white"/>
<path fill-rule="evenodd" clip-rule="evenodd" d="M131.904 116.766C135.526 116.326 139.036 117.435 142.577 117.995C144.446 118.29 146.318 118.51 148.209 118.592C148.59 118.608 148.97 118.618 149.351 118.626C149.387 118.291 149.574 117.983 149.981 117.798C150.814 117.421 151.481 117.25 152.395 117.287C153.233 117.32 154.073 117.406 154.897 117.557C156.395 117.831 157.899 118.455 158.994 119.537C161.528 122.042 161.143 126.066 159.184 128.795C155.138 134.433 147.753 134.695 141.428 134.621L140.844 134.614C135.085 134.531 126.846 135.39 124.23 128.835C123.267 126.425 123.401 123.631 124.579 121.319C125.984 118.562 128.942 117.126 131.904 116.766ZM149.893 126.154L149.842 126.156C147.187 126.258 144.532 126.33 141.875 126.377C141.955 127.06 142.036 127.743 142.128 128.424C142.201 128.96 142.279 129.495 142.36 130.03C142.395 130.256 142.521 130.607 142.485 130.832L142.472 130.92C142.609 130.982 142.732 131.081 142.825 131.226C142.857 131.276 142.88 131.326 142.903 131.376C144.966 131.392 147.185 131.352 149.288 130.977L149.292 130.931C149.33 130.663 149.442 130.482 149.59 130.358C149.738 129.501 149.725 128.588 149.782 127.738C149.817 127.21 149.856 126.682 149.893 126.154ZM139.846 126.414C137.932 126.446 136.018 126.471 134.104 126.448L133.236 126.434C133.419 127.419 133.619 128.4 133.784 129.391C133.958 130.424 133.049 131.081 132.262 131.054C132.351 131.069 132.439 131.084 132.527 131.096C134.984 131.444 137.536 131.351 140.03 131.349C139.896 130.565 139.95 129.681 139.93 129.027L139.926 128.926C139.888 128.088 139.861 127.251 139.846 126.414ZM126.846 126.233C126.913 126.745 127.042 127.246 127.235 127.712C128.052 129.683 129.925 130.603 131.907 130.99C131.563 130.871 131.29 130.586 131.221 130.097C131.049 128.882 130.987 127.646 130.983 126.412C129.602 126.399 128.211 126.37 126.846 126.233ZM157.095 125.812C156.112 126.044 154.97 125.938 154.005 125.982C153.101 126.023 152.197 126.058 151.293 126.095C151.336 126.712 151.377 127.329 151.422 127.946C151.481 128.743 151.486 129.586 151.639 130.38C153.458 129.759 155.087 128.763 156.31 127.171C156.615 126.774 156.888 126.308 157.095 125.812ZM131.489 119.999C129.852 120.387 128.303 121.206 127.47 122.704C126.976 123.594 126.759 124.647 126.801 125.686C128.184 125.525 129.591 125.464 130.992 125.413C130.996 125.161 131.002 124.909 131.01 124.657L131.031 124.013C131.07 122.783 131.089 121.24 131.489 119.999ZM139.96 120.149L139.24 120.068C137.239 119.84 135.238 119.601 133.237 119.738C132.947 119.758 132.653 119.79 132.359 119.833C132.712 121.11 132.683 122.61 132.83 123.874C132.887 124.363 132.96 124.847 133.039 125.33L133.387 125.314C135.534 125.198 137.684 125.126 139.833 125.041C139.833 124.637 139.835 124.233 139.842 123.829L139.85 123.425C139.874 122.393 139.807 121.23 139.96 120.149ZM150.01 119.985C147.914 120.324 145.748 120.396 143.689 120.398C142.867 120.4 142.045 120.349 141.223 120.276C141.277 120.714 141.304 121.156 141.345 121.588C141.426 122.46 141.519 123.331 141.619 124.2L141.709 124.961C144.351 124.842 146.992 124.712 149.633 124.578L150.006 124.558L150.111 123.095C150.182 122.12 150.26 121.145 150.37 120.174L150.288 120.144C150.19 120.104 150.098 120.049 150.01 119.985ZM150.921 120.349C151.036 121.728 151.1 123.113 151.185 124.494L152.926 124.401C153.216 124.385 153.506 124.369 153.797 124.352C154.925 124.287 156.375 123.945 157.49 124.264C157.575 123.25 157.285 122.262 156.37 121.58C154.764 120.383 152.718 120.809 150.921 120.349ZM144.972 108.02C147.565 106.534 154.07 105.016 154.482 109.684C154.671 111.832 153.075 113.612 151.211 114.406L151.141 114.435C149.393 115.154 146.294 115.966 144.781 114.407C143.522 113.109 145.192 110.783 146.757 111.846C147.561 112.392 149.253 111.989 150.151 111.729L150.207 111.713C151.175 111.428 152.466 110.517 152.066 109.325C151.711 108.27 150.204 108.077 149.259 108.043C147.85 107.992 146.479 108.319 145.082 108.426C144.861 108.443 144.793 108.122 144.972 108.02ZM155.712 100.514C159.231 100.349 161.42 104.193 160.61 107.342C160.471 107.886 159.863 108.419 159.277 108.358L159.129 108.344C159.054 108.337 158.978 108.328 158.909 108.308C158.352 108.154 157.853 107.575 157.893 106.974L157.904 106.799C157.986 105.311 157.825 103.597 156.058 103.237C154.559 102.931 153.722 104.375 153.704 105.703C153.701 105.939 153.436 106.104 153.227 105.977C152.144 105.317 151.956 104.005 152.37 102.875C152.895 101.443 154.207 100.584 155.712 100.514ZM129.599 101.338C132.159 100.484 134.922 101.849 136.162 104.114C136.597 104.24 137.031 104.576 136.971 105.089C136.884 105.828 136.752 106.294 136.24 106.854C135.439 107.731 133.939 107.282 133.606 106.203L133.592 106.155C133.214 104.76 131.679 103.84 130.281 104.328C128.648 104.898 128.695 106.624 127.55 107.629C127.415 107.747 127.254 107.766 127.092 107.688C125.876 107.1 126.094 105.329 126.528 104.316C127.097 102.987 128.203 101.804 129.599 101.338ZM126.111 93.5592C128.186 91.4411 133.597 89.3914 135.017 93.3029C135.287 94.0479 134.711 95.0524 133.936 95.2069C132.666 95.4597 131.54 94.9083 130.278 95.0072C129.257 95.0877 128.192 95.429 127.376 96.0618C125.115 97.8143 124.618 100.779 123.042 103.009C122.966 103.118 122.817 103.072 122.803 102.944C122.444 99.6966 123.838 95.879 126.111 93.5592ZM153.173 91.4741C154.55 90.9875 156.11 91.0292 157.494 91.4608C158.888 91.8957 160.168 92.7217 161.155 93.8008C161.602 94.2907 162.016 94.8314 162.348 95.4069C162.525 95.7119 162.71 96.3419 162.911 96.717C163.995 97.3436 164.459 98.7713 163.488 99.787L163.444 99.8315L163.314 99.9604C162.792 100.477 162.005 100.701 161.292 100.495C159.698 100.033 159.504 98.7769 158.952 97.4432C158.587 96.5623 157.963 95.7829 157.205 95.2103C155.415 93.8577 152.48 93.4267 150.325 94.0642C150.21 94.0982 150.075 93.9519 150.157 93.8458C150.565 93.3166 150.801 92.8823 151.348 92.4554C151.903 92.0221 152.508 91.7091 153.173 91.4741Z" fill="black"/>
<path fill-rule="evenodd" clip-rule="evenodd" d="M129.449 129.599C131.159 125.59 134.893 122.644 139.191 121.566C142.347 120.778 145.66 120.803 148.877 121.116C150.563 121.279 152.371 121.412 153.96 122.039C155.317 122.574 156.422 123.585 157.253 124.772C158.243 126.179 158.916 127.789 159.389 129.439C159.456 129.674 159.519 129.91 159.578 130.148C159.372 131.393 158.936 132.453 157.783 133.236C156.658 134 155.316 134.313 153.978 134.424C153.846 134.361 153.72 134.296 153.603 134.23C151.518 133.035 150.051 130.213 147.419 130.595C145.07 130.936 143.524 133.893 142.127 135.626C137.644 136.149 133.164 134.801 129.516 132.237C129.33 131.359 129.32 130.473 129.449 129.599ZM162.625 126.558C162.266 125.551 161.815 124.576 161.279 123.657C159.509 120.619 156.791 118.198 153.565 116.814C145.934 113.546 136.06 115.85 129.897 121.211C127.792 123.044 125.663 125.737 125.019 128.634C124.827 128.672 124.646 128.772 124.496 128.913C120.043 126.108 115.458 123.41 111.87 119.523C109.264 116.698 107.452 113.355 106.342 109.682C106.251 109.38 105.764 109.424 105.779 109.759C105.783 109.837 105.787 109.915 105.792 109.993C105.745 109.849 105.526 109.923 105.509 110.063C104.912 114.525 104.165 119.256 104.853 123.742C105.264 126.418 106.479 128.377 108.104 130.493C109.845 132.761 111.815 134.87 113.83 136.893C115.109 138.177 116.444 139.658 118.01 140.6C119.831 141.694 121.896 142.525 123.839 143.369C125.816 144.231 127.823 145.026 129.867 145.716C133.954 147.1 138.178 148.056 142.476 148.475C145.917 148.809 149.85 149.173 153.148 147.878C155.675 146.886 157.715 145.092 159.334 142.934C161.095 140.583 162.488 137.905 163.258 135.082C164.058 132.149 162.794 127.03 162.625 126.558Z" fill="black"/>
<path fill-rule="evenodd" clip-rule="evenodd" d="M170.723 102.353C168.709 115.983 154.648 117.49 152.15 103.959C152.551 103.784 152.839 103.438 152.779 102.767C152.765 99.818 153.68 96.7014 156.339 95.0616C159.087 93.3695 162.303 93.2017 165.482 93.2444C171.55 93.0998 171.423 98.1737 170.723 102.353ZM149.949 96.4256C148.045 96.3453 145.635 96.4125 143.929 97.5733C143.46 96.3098 142.242 94.9608 141.01 94.2394C145.587 94.3734 150.298 93.9228 154.908 93.573C153.805 94.3256 152.778 95.4564 152.111 96.7636C151.491 96.4332 150.604 96.4641 149.949 96.4256ZM141.555 103.798C136.274 121.982 123.093 114.056 121.656 111.726C119.064 107.87 118.576 98.4956 120.834 95.9892C124.066 93.7227 128.642 94.306 132.46 94.2504C139.474 94.3451 144.456 96.4442 141.555 103.798ZM176.958 95.435C175.524 95.2473 173.991 95.2095 172.657 95.8414C172.246 94.0951 170.957 92.6351 169.501 91.9925C169.324 91.7715 169.351 91.6527 168.749 91.6859C165.053 90.5746 160.917 91.1626 157.365 92.3022C151.755 92.7748 145.87 93.1474 140.213 93.7985C134.914 91.4179 118.923 91.0689 117.929 96.9367C116.679 96.7496 114.55 95.7654 113.5 97.1005C105.795 95.7937 97.833 97.6098 90.0945 98.4187C88.1466 98.7775 87.1433 102.645 89.3544 102.592C90.5975 102.254 89.3162 100.184 90.99 100.028C98.4564 99.2123 105.76 98.0549 113.302 97.9194C113.04 99.2224 118.291 99.3072 118.369 98.5463C118.38 98.552 118.392 98.5558 118.403 98.5609C117.106 103.399 118.277 110.361 120.622 113.361C123.908 117.289 132.157 118.416 135.814 115.889C140.532 113.556 145.441 101.847 144.062 97.9566C146.564 97.1632 149.038 97.4014 151.635 97.8055C151.041 99.4855 150.014 103.621 151.491 103.98C151.22 112.191 158.689 117.314 165.576 113.946C171.536 111.147 173.62 102.288 172.891 96.9102C173.633 98.3445 179.862 96.783 176.958 95.435Z" fill="black"/>
</svg>
