<svg width="240" height="324" viewBox="0 0 240 324" fill="none" xmlns="http://www.w3.org/2000/svg">
<path fill-rule="evenodd" clip-rule="evenodd" d="M47.4644 285.957C75.0654 290.151 103.167 290.362 130.998 288.839C142.012 288.014 153.06 287.865 164.065 288.92C170.568 289.404 199.081 291.584 201.41 285.757C199.944 254.73 196.975 223.438 187.865 193.598C184.119 183.002 180.901 174.208 173.589 165.44C171.284 163.046 166.314 158.025 163.467 156.387C161 154.969 159.968 155.475 158.552 153.079C157.144 150.433 156.106 146.012 154.107 144.145C152.072 142.243 149.056 142.924 145.317 143.536C146.004 134.251 141.72 131.887 135.818 130.121C125.444 126.16 115.198 128.15 112.587 140.784C107.746 140.784 105.026 142.868 102.086 144.871C100.884 145.689 101.72 147.775 100.285 148.419C97.6287 149.365 92.9353 149.133 90.378 150.297C78.7491 155.591 68.3916 163.269 61.5895 174.481C46.3402 198.42 35.8651 248.847 37.6778 277.22C36.8836 278.466 37.9818 280.253 38.261 281.593C38.6133 282.758 39.7544 283.533 40.9453 283.401C42.6071 285.189 45.1774 285.587 47.4644 285.957Z" fill="#D08B5B"/>
<path fill-rule="evenodd" clip-rule="evenodd" d="M104.887 142.681C106.588 140.906 109.254 139.846 111.779 139.906L111.898 139.91L112.755 139.948L112.182 142.759L112.153 142.893L112.036 143.381L111.881 144.02L111.826 144.255L111.767 144.515C111.758 144.557 111.749 144.599 111.74 144.64L111.715 144.763L111.47 145.958L111.516 146.064L111.503 146.335C111.465 147.317 111.676 147.856 112.142 148.029L112.179 148.042L112.445 148.127L112.661 148.598C113.16 149.673 113.625 150.613 114.103 151.498C115.496 154.079 117.158 156.66 119.074 159.253C120.895 161.717 122.791 164.069 124.763 166.302C125.65 167.306 126.586 168.314 127.583 169.341L128.441 170.22L128.714 170.496L128.898 170.679L129.126 170.904L129.456 171.218L129.696 171.454L129.773 171.527C129.871 171.618 129.946 171.679 130.014 171.723L130.039 171.739L130.115 171.783L134.093 175.969L135.498 176.742L136.165 177.112L136.3 176.842L136.328 176.756L137.806 173.508L138.709 171.518C140.562 167.425 142.004 164.169 143.322 161.069L143.486 160.682L143.972 159.529L144.23 158.913C145.408 156.088 146.279 153.908 147.058 151.79L147.169 151.488L147.333 151.035L147.576 150.352L147.621 150.236C147.832 149.694 147.312 147.724 146.8 146.645L146.771 146.585L146.638 146.318L146.494 146.036C146.156 145.375 145.91 144.641 145.704 143.753C145.671 143.609 145.639 143.465 145.61 143.319L145.567 143.099L145.54 142.954L145.502 142.752L145.448 142.463L146.593 142.271L147.222 142.169L147.496 142.126C147.851 142.071 148.167 142.026 148.465 141.988L148.576 141.974L148.775 141.951L148.782 141.99L149.191 142.03L149.494 142.062C150.989 142.22 152.143 142.394 152.961 142.587L153.042 142.607L153.188 142.644L153.255 142.661C154 142.862 154.574 143.295 155.028 143.934C155.34 144.373 155.542 144.793 155.862 145.589L155.977 145.876L156.358 146.818C156.402 146.932 156.471 147.116 156.564 147.368L156.887 148.248L158.507 152.723L160.165 153.595C160.935 153.998 161.499 154.289 161.777 154.427L161.876 154.475L161.947 154.507L162.518 154.734L162.457 154.912L162.526 154.951C169.35 158.879 174.613 164.92 178.71 172.941L178.834 173.184L178.961 173.437C182.226 179.97 184.566 187.26 186.85 196.994L186.992 197.599L187.103 198.08L187.698 200.678C189.936 210.485 191.474 217.798 192.746 224.974L192.829 225.442L193.041 226.661C194.639 235.949 195.977 245.153 197.048 254.267L197.226 255.8C197.672 259.717 198.076 263.764 198.514 268.625L198.573 269.278L198.765 271.462C198.971 273.815 199.158 276.163 199.328 278.506L199.411 279.677L199.583 282.223L199.684 283.674L199.696 283.87L199.737 284.627L199.748 284.804C199.763 285.031 199.781 285.223 199.803 285.4L199.82 285.531L199.839 285.658C199.896 286.004 200.007 286.315 200.192 286.661L200.24 286.749L200.557 287.316L199.982 287.619C196.985 289.199 191.083 289.894 182.986 289.93L182.74 289.931H182.234C178.3 289.929 174.13 289.777 169.78 289.518L168.796 289.457L167.975 289.405C167.621 289.382 167.276 289.359 166.919 289.334L166.372 289.295L164.084 289.128C153.794 288.142 143.002 288.158 131.112 289.049C100.111 290.745 73.3534 290.029 48.2038 286.274L47.4422 286.16L46.881 286.068L46.5462 286.012C43.8786 285.557 42.2035 284.973 40.8965 283.747L40.828 283.682L40.771 283.626L40.7463 283.627C39.4302 283.621 38.2254 282.76 37.7784 281.49L37.7552 281.421L37.7257 281.327L37.7053 281.232C37.6845 281.141 37.6585 281.043 37.6269 280.935L37.6021 280.852L37.3943 280.171L38.0943 280.043C38.1546 280.032 38.2173 279.99 38.2781 279.902L38.3364 279.818L38.4374 279.678L38.6812 279.344C38.9409 278.98 39.0686 278.751 39.1319 278.521C39.188 278.318 39.2089 278.057 39.2029 277.695L39.1982 277.517L39.1706 276.875C39.1688 276.824 39.1676 276.778 39.1668 276.735L39.1659 276.67L39.1654 275.766L39.1677 274.772C39.1693 274.338 39.1717 273.915 39.1751 273.5L39.1807 272.882L39.1864 272.385C39.2201 269.631 39.3008 266.88 39.4287 264.134C39.6786 258.771 40.1073 253.417 40.7138 248.083C41.9661 237.07 43.8842 226.389 46.4935 216.068L46.7556 215.037C49.577 204.007 52.2972 195.503 55.7546 187.639C60.152 177.637 65.5138 169.405 72.2647 162.824C75.9764 159.206 80.0869 156.152 84.4552 153.81C86.4642 152.732 88.5993 151.776 90.889 150.916L91.2172 150.794L91.7468 150.601L92.1532 150.451L93.4625 149.961C93.7377 149.858 94.0373 149.742 94.3914 149.603L94.6107 149.517L96.9554 148.581L97.3447 148.428L97.7777 148.259L98.0959 148.137C98.6162 147.939 99.0873 147.765 99.5247 147.613L99.7832 147.523L100.018 147.444L101.018 147.098L100.999 148.009C100.986 148.614 101.142 149.072 101.488 149.4L101.5 149.411L101.512 149.42L101.522 149.427L101.583 149.426L101.819 149.425C101.844 149.411 101.867 149.395 101.888 149.377C102.225 149.091 102.381 148.708 102.533 147.829L102.573 147.584L102.644 147.126L102.672 146.952C102.773 146.342 102.861 146.005 103.032 145.62C103.28 145.063 103.608 144.52 103.993 144.021L104.083 143.907L104.443 143.474L104.498 143.406C104.624 143.244 104.689 143.13 104.716 143.025L104.723 142.997L104.759 142.815L104.887 142.681Z" fill="#FFCF77"/>
<path fill-rule="evenodd" clip-rule="evenodd" d="M161.709 155.686C161.54 155.591 161.689 155.349 161.859 155.429C170.045 159.27 176.324 166.01 180.743 173.797C185.318 181.861 187.926 191.016 190.174 199.963L190.255 200.287C192.652 209.859 194.691 219.53 196.526 229.224C198.384 239.042 199.876 248.92 201.076 258.839C201.67 263.744 202.199 268.657 202.612 273.58C202.818 276.04 203.005 278.502 203.174 280.965C203.241 281.95 203.304 282.935 203.359 283.921L203.398 284.661C203.431 285.331 203.511 286.004 203.345 286.666C203.202 287.236 202.9 287.753 202.635 288.276C202.109 289.312 200.67 289.141 200.104 288.276L199.939 288.024C199.564 287.444 199.252 286.905 199.134 286.183C199.02 285.483 199.016 284.751 198.965 284.044C198.871 282.745 198.791 281.444 198.7 280.144C198.508 277.407 198.293 274.672 198.055 271.94C197.583 266.545 197.078 261.155 196.457 255.774C195.353 246.213 193.969 236.677 192.337 227.191C190.742 217.925 188.727 208.753 186.624 199.593L186.406 198.645C182.723 182.652 177.048 164.233 161.709 155.686ZM74.5219 218.313C74.5821 218.153 74.8411 218.117 74.8848 218.313C75.4362 220.797 75.4907 223.355 75.575 225.898C75.6581 228.406 75.6547 230.926 75.6181 233.435C75.4833 242.659 75.2302 251.876 75.0114 261.098C74.9019 265.711 74.7993 270.325 74.7205 274.939C74.6907 276.669 74.6656 278.4 74.6448 280.13L74.6194 282.412C74.6067 283.422 74.5802 284.418 74.4572 285.426C74.3761 286.089 74.2033 286.722 73.8374 287.29C73.5777 287.693 73.2076 287.898 72.8468 288.172L72.7793 288.225C72.3192 288.588 71.8345 288.591 71.3788 288.225L71.2465 288.12C70.8112 287.779 70.435 287.513 70.1571 286.975C69.7705 286.226 69.7086 285.412 69.6428 284.587C69.5431 283.336 69.6093 282.067 69.6221 280.812C69.6479 278.295 69.6828 275.778 69.7269 273.261C69.889 264.031 70.2093 254.799 70.793 245.586C71.068 241.246 71.4409 236.892 71.941 232.57L72.0363 231.76C72.188 230.488 72.3264 229.194 72.4823 227.896C70.1548 226.258 68.1088 224.271 66.3642 222.016C66.2357 221.851 66.4472 221.618 66.6023 221.778C68.385 223.625 70.429 225.097 72.6919 226.255C73.0626 223.536 73.5724 220.833 74.5219 218.313ZM113.406 136.038C113.438 136.013 113.488 136.002 113.518 136.038C114.019 136.621 113.917 137.513 113.933 138.253L113.935 138.322C113.971 139.403 113.978 140.48 113.974 141.562L113.963 145.005C113.962 145.478 113.923 145.971 113.947 146.448L113.96 146.632C114.223 146.901 114.345 147.29 114.256 147.681C114.24 148.182 113.978 148.601 113.596 148.863L114.415 150.026L115.235 151.188C116.925 153.586 118.633 155.962 120.414 158.294C122.229 160.671 124.166 162.959 126.193 165.159C127.183 166.234 128.19 167.294 129.221 168.33C129.64 168.751 130.069 169.162 130.494 169.577L130.916 169.995C131.165 170.244 131.479 170.491 131.645 170.808C131.742 170.994 131.765 171.454 131.799 171.53C132.112 172.218 131.579 173.314 130.692 172.971L130.732 172.944C130.894 172.832 130.79 172.83 130.422 172.939C130.19 172.939 129.972 172.885 129.768 172.779L129.707 172.746C129.421 172.6 129.165 172.318 128.932 172.092L128.874 172.037C128.342 171.538 127.834 171.009 127.323 170.487C126.258 169.398 125.217 168.286 124.209 167.145C122.197 164.867 120.291 162.496 118.485 160.053C116.646 157.563 114.936 154.947 113.466 152.222C112.908 151.188 112.396 150.135 111.906 149.068C110.951 148.762 110.73 147.746 110.796 146.602C110.444 145.782 110.127 144.945 109.939 144.089C109.914 143.972 110.064 143.861 110.155 143.964C110.46 144.311 110.743 144.68 111.014 145.059C111.178 144.257 111.386 143.519 111.483 143.048L111.906 140.971C109.522 140.847 106.909 141.827 105.265 143.542C105.177 143.989 104.833 144.309 104.498 144.727C104.115 145.204 103.781 145.74 103.532 146.3C102.98 147.542 103.291 149.372 102.219 150.283C102.107 150.378 101.983 150.444 101.854 150.485C102.362 152.98 102.132 155.73 102.12 158.262L102.12 158.485C102.123 161.319 102.028 164.154 101.919 166.986L101.807 169.788C101.663 173.525 101.569 177.264 101.932 180.98C103.59 179.512 105.303 178.11 107.076 176.775C108.242 175.897 109.431 175.05 110.641 174.235L111.625 173.578C112.804 172.787 114.011 171.973 115.302 171.407C116.99 170.667 118.595 170.921 120.225 171.681C121.848 172.437 123.422 173.316 125.014 174.135C126.633 174.969 128.256 175.796 129.877 176.624C130.951 177.173 132.525 177.669 133.313 178.68C133.363 178.456 133.422 178.233 133.49 178.011C133.412 177.672 133.442 177.306 133.632 176.957C136.28 172.091 138.729 167.109 141.161 162.133C142.392 159.615 143.562 157.067 144.796 154.55L145.995 152.099C146.195 151.691 146.396 151.282 146.598 150.875C146.901 150.265 147.216 149.661 147.521 149.053C147.651 148.796 147.813 148.54 147.939 148.281L147.998 148.151C148.001 148.144 148.292 147.23 148.067 147.317L148.048 147.326C147.933 147.391 147.842 147.247 147.916 147.155C148.233 146.763 148.675 147.11 148.856 147.474C149.355 148.473 148.441 150.043 148.089 151L148.07 151.054C146.979 154.144 145.743 157.175 144.478 160.197C142.05 165.989 139.443 171.693 136.841 177.406L136.81 177.504C137.365 177.079 137.957 176.693 138.465 176.317C139.744 175.369 141.061 174.467 142.376 173.568C144.788 171.92 147.264 170.381 149.782 168.902L150.286 168.607C151.544 167.874 152.79 167.28 154.283 167.5C155.67 167.704 156.959 168.45 158.212 169.055L158.341 169.117L162.213 170.958C161.799 169.307 161.351 167.664 160.883 166.027C159.971 162.835 158.968 159.669 157.88 156.531C156.864 153.599 155.765 150.7 154.603 147.823L154.254 146.96C153.78 145.775 153.309 144.484 151.955 144.119C150.602 143.754 149.049 144.295 147.813 143.523C147.7 143.453 147.714 143.268 147.85 143.234L148.614 143.041C150.046 142.685 151.726 142.326 153.081 142.673C154.556 143.051 155.775 144.289 156.491 145.575C157.286 147.007 157.847 148.609 158.451 150.136L158.546 150.376C159.239 152.104 159.905 153.842 160.543 155.591C161.818 159.086 162.978 162.624 164.029 166.194C164.535 167.914 165.015 169.643 165.477 171.376C165.609 171.874 165.828 172.478 166.008 173.109C166.214 173.309 166.408 173.533 166.591 173.789C166.894 174.213 166.677 174.71 166.3 174.964C166.285 175.397 166.189 175.805 165.959 176.155C165.06 177.52 162.683 177.168 162.78 175.333C162.794 175.052 162.904 174.784 163.069 174.558L163.065 174.521L163.046 174.454C162.633 174.256 162.219 174.035 161.782 173.819L157.719 171.811C156.542 171.229 155.238 170.33 153.929 170.109C152.709 169.902 151.422 170.811 150.374 171.36L150.306 171.395C147.772 172.694 145.256 174.037 142.751 175.39C141.528 176.051 140.321 176.74 139.102 177.408C138.084 177.968 136.984 178.77 135.839 179.086C135.35 179.466 134.769 179.415 134.302 179.128C134.516 180.45 134.503 181.806 134.568 183.158C134.656 184.965 134.67 186.777 134.699 188.586L134.71 189.265C134.787 193.265 134.829 197.266 134.844 201.266C134.898 215.513 134.74 229.764 134.704 244.011C134.685 251.169 134.543 258.333 134.357 265.488C134.279 268.52 134.114 271.549 133.936 274.576L133.838 276.227C133.631 279.711 133.508 283.234 132.864 286.671C132.779 287.119 132.021 287.131 131.947 286.671C131.353 282.988 131.32 279.224 131.206 275.498L131.182 274.753C131.045 270.752 130.98 266.754 130.994 262.751C131.045 248.499 131.415 234.255 131.718 220.007C131.87 212.848 131.973 205.686 132.209 198.529C132.328 194.948 132.461 191.37 132.62 187.79C132.691 186.192 132.76 184.596 132.866 183L132.914 182.316C132.947 181.87 132.973 181.429 133.005 180.993C131.564 181.519 130.246 180.544 128.949 179.877C127.454 179.108 125.961 178.337 124.465 177.57L122.969 176.803L119.975 175.275C118.626 174.586 117.587 173.901 116.149 174.709C110.968 177.617 106.207 181.486 101.893 185.545C101.066 186.324 99.3174 186.115 99.1078 184.81C98.2126 179.235 98.7571 173.58 99.2141 167.989L99.3826 165.913C99.5868 163.434 99.8091 160.954 100.105 158.485C100.238 157.38 100.37 156.276 100.516 155.174L100.628 154.347C100.811 153.041 100.93 151.742 101.319 150.488C101.196 150.449 101.078 150.383 100.973 150.283C99.8027 149.173 100.367 147.246 100.901 145.925C101.428 144.621 102.232 143.483 103.238 142.504C103.458 142.29 103.767 142.152 104.078 142.145C106.519 140.528 109.197 139.72 111.984 140.603C112.062 140.229 112.142 139.855 112.226 139.482L112.311 139.11C112.528 138.185 112.608 136.656 113.406 136.038ZM138.421 282.127C139.179 281.919 140.008 282.138 140.563 282.693C141.118 283.249 141.338 284.078 141.129 284.836C141.025 285.209 140.836 285.532 140.563 285.807C140.308 286.061 140.011 286.242 139.671 286.35L139.592 286.374L139.468 286.425C139.088 286.527 138.708 286.527 138.329 286.425C137.966 286.323 137.651 286.14 137.384 285.874C137.118 285.607 136.934 285.291 136.833 284.928C136.73 284.548 136.73 284.169 136.833 283.789L136.884 283.665C136.989 283.292 137.177 282.968 137.45 282.693C137.725 282.421 138.049 282.232 138.421 282.127ZM183.394 206.624C183.518 206.482 183.72 206.665 183.643 206.817C182.463 209.13 181.148 211.427 179.856 213.682C179.959 214.307 180.062 214.927 180.18 215.531C180.684 218.107 181.3 220.636 181.702 223.236C183.147 232.582 183.898 242.029 184.541 251.458C185.187 260.922 185.27 270.389 185.366 279.871C185.375 280.693 184.743 281.648 183.896 281.803C183.509 281.874 183.219 281.86 182.832 281.803C181.95 281.673 181.399 280.664 181.361 279.871C181.109 274.572 180.769 269.279 180.375 263.988C179.677 254.608 179.25 245.203 178.687 235.812L178.488 232.53C178.275 228.974 178.08 225.416 178.016 221.854C177.974 219.495 178.1 217.136 178.023 214.779C177.951 212.603 177.731 210.237 178.21 208.099C178.228 208.019 178.354 207.999 178.391 208.076C178.89 209.126 179.205 210.267 179.449 211.432C180.734 209.806 182.042 208.177 183.394 206.624ZM99.2256 149.149C99.406 149.135 99.3988 149.406 99.2256 149.426C96.7039 149.719 94.2679 150.746 91.8868 151.618L91.6829 151.693C89.2774 152.566 86.9321 153.581 84.6752 154.791C80.2624 157.157 76.2103 160.209 72.6276 163.701C58.3237 177.645 51.8051 197.751 47.0285 216.646C44.3746 227.144 42.4873 237.82 41.2641 248.577C40.6592 253.897 40.2316 259.238 39.9823 264.586C39.8547 267.327 39.7742 270.071 39.7406 272.815C39.7233 274.221 39.7183 275.627 39.7199 277.032C39.7208 277.676 39.8357 278.487 39.6635 279.113C39.5038 279.692 39.0534 280.202 38.7202 280.685C38.3254 281.258 37.6157 281.227 37.2154 280.685L37.0677 280.487C36.6408 279.921 36.223 279.379 36.162 278.638C36.0967 277.845 36.1428 277.026 36.1398 276.229C36.133 274.622 36.1529 273.016 36.185 271.41C36.2469 268.331 36.3682 265.254 36.5484 262.18C36.9143 255.942 37.5166 249.717 38.379 243.528C39.912 232.527 42.2097 221.631 45.2194 210.94C48.0589 200.855 51.4227 190.799 56.2147 181.457C60.664 172.783 66.5009 164.714 74.2028 158.652C77.7844 155.833 81.6834 153.484 85.887 151.715C88.007 150.822 90.2334 150.094 92.4975 149.678C94.7366 149.268 96.9659 149.325 99.2256 149.149ZM138.856 264.3C139.255 264.297 139.701 264.385 140.045 264.607L140.503 264.961C140.627 265.121 140.751 265.281 140.874 265.441C141.161 265.815 141.199 266.42 141.139 266.865C141.125 267.162 141.037 267.439 140.874 267.695L140.525 268.147C140.189 268.421 139.91 268.616 139.504 268.748C139.291 268.817 139.087 268.831 138.883 268.821L138.815 268.816L138.856 268.822L138.784 268.814C138.718 268.808 138.651 268.801 138.584 268.792C138.539 268.786 138.493 268.783 138.448 268.776C138.404 268.773 138.362 268.771 138.318 268.775C137.802 268.824 137.282 268.531 136.916 268.194C136.586 267.891 136.289 267.248 136.335 266.792L136.355 266.601C136.39 266.28 136.418 266.154 136.554 265.831C136.687 265.517 136.872 265.24 137.123 265.005C137.605 264.557 138.194 264.305 138.856 264.3ZM137.257 240.781C137.943 240.033 139.12 239.979 139.97 240.43C140.177 240.541 140.367 240.718 140.549 240.865C141.009 241.237 141.19 241.908 141.215 242.474C141.24 243.033 140.946 243.696 140.549 244.082L140.453 244.176C140.216 244.406 139.877 244.606 139.546 244.667C139.011 244.765 138.563 244.762 138.065 244.552C137.638 244.372 137.269 244.082 137.019 243.688L136.978 243.622C136.961 243.594 136.945 243.566 136.929 243.537L136.907 243.494C136.431 242.578 136.559 241.541 137.257 240.781ZM137.612 217.137C137.921 217.04 138.23 217.026 138.539 217.096C138.749 217.096 138.945 217.149 139.126 217.254C139.323 217.309 139.494 217.409 139.639 217.553C139.813 217.656 139.953 217.796 140.056 217.97C140.262 218.195 140.4 218.459 140.472 218.761L140.555 219.379L140.472 219.998L140.238 220.553C140.173 220.638 140.108 220.722 140.043 220.805C139.939 220.981 139.8 221.12 139.625 221.224C139.511 221.337 139.38 221.422 139.234 221.481C138.717 221.852 138.027 221.973 137.414 221.804C137.05 221.702 136.733 221.517 136.465 221.251C136.199 220.982 136.014 220.666 135.913 220.302L135.871 220.011C135.816 219.621 135.808 219.405 135.918 218.909C135.967 218.691 136.107 218.383 136.181 218.254C136.495 217.701 137.009 217.322 137.612 217.137ZM164.45 200.127C165.338 200.121 166.225 200.122 167.112 200.132L167.778 200.141C168.892 200.159 169.847 200.044 170.723 200.817C171.359 201.379 171.079 202.32 170.475 202.743C169.561 203.384 168.413 203.062 167.362 202.991C166.253 202.917 165.144 202.855 164.034 202.805C161.885 202.709 159.735 202.648 157.583 202.638C155.437 202.629 153.287 202.649 151.14 202.684C148.956 202.719 146.682 202.923 144.51 202.697C144.212 202.666 144.145 202.273 144.439 202.171C146.486 201.463 148.788 201.233 150.933 200.963C153.145 200.683 155.357 200.485 157.583 200.357C159.87 200.226 162.16 200.143 164.45 200.127ZM137.608 193.171L137.681 193.172C138.072 193.173 138.438 193.265 138.779 193.448L138.851 193.488L139.32 193.851C139.607 194.14 139.806 194.481 139.916 194.874L139.999 195.49C140.011 195.809 139.944 196.107 139.799 196.383C139.706 196.671 139.546 196.919 139.32 197.129C139.11 197.355 138.862 197.515 138.574 197.609C138.319 197.743 138.046 197.81 137.755 197.81L137.681 197.808C137.263 197.807 136.873 197.702 136.512 197.492L136.043 197.129C135.756 196.84 135.557 196.499 135.447 196.106L135.364 195.49C135.352 195.171 135.418 194.873 135.564 194.597C135.657 194.31 135.817 194.061 136.043 193.851C136.253 193.625 136.501 193.465 136.789 193.372C137.044 193.238 137.317 193.171 137.608 193.171ZM144.478 138.712C144.978 137.988 145.882 138.632 145.753 139.213C145.787 140.847 145.871 142.432 146.242 144.032C146.412 144.765 146.635 145.498 146.979 146.169L147.123 146.452C147.568 147.331 147.914 148.161 147.314 149.125C147.032 149.58 146.521 149.922 145.968 149.898C143.514 149.792 143.177 146.375 143.028 144.468C142.874 142.503 143.352 140.344 144.478 138.712Z" fill="black"/>
<path fill-rule="evenodd" clip-rule="evenodd" d="M141.333 68.7232C117.069 67.8355 93.8845 84.1833 86.0784 107.29C85.5112 109.103 87.2763 110.796 89.0574 110.489C87.2359 119.684 91.2169 132.061 101.587 133.365C103.711 133.634 105.846 133.479 107.973 133.675C109.869 133.849 120.19 139.669 124.055 141.033C132.192 143.883 152.667 143.361 160.812 141.033C161.109 141.709 167.434 115.704 168.875 107.641C169.4 104.147 164.6 101.561 164.954 97.9607C165.409 93.3364 170.804 87.6982 169.151 83.2958C164.794 72.0908 152.149 68.9643 141.333 68.7232Z" fill="#D08B5B"/>
<path fill-rule="evenodd" clip-rule="evenodd" d="M129.283 48.3543C130.373 48.4452 131.469 48.5995 132.546 48.8024C135.82 48.2655 139.208 48.8616 142.383 49.8951C149.819 52.315 156.976 56.5167 162.58 62.0012C165.464 64.8248 167.823 68.0775 169.275 71.8607C170.013 73.7798 170.429 75.8277 170.549 77.8799L170.562 78.1286C170.596 78.8095 170.611 79.626 170.53 80.4348C170.79 82.0674 171.021 83.7134 171.038 85.3647C171.047 86.1296 170.997 86.8932 170.904 87.6517L170.936 87.7238C170.802 88.6294 170.641 89.5313 170.458 90.4284L170.412 90.4878C170.387 90.6702 170.358 90.8522 170.331 91.0342C170.232 91.4953 170.128 91.9555 170.017 92.4139C169.779 93.4066 169.515 94.3927 169.23 95.373C169.18 95.5448 169.228 95.6803 169.321 95.7693C169.114 96.5153 168.887 97.2559 168.636 97.9884C168.759 98.6295 168.884 99.2703 169.016 99.909C169.706 103.231 170.29 106.575 171.074 109.878C172.663 116.582 175.079 123.179 175.743 130.071C176.26 135.416 175.402 141.26 172.088 145.626C169.231 149.388 164.935 151.609 160.294 152.201C158.075 152.487 155.798 152.356 153.626 151.793L153.39 151.731C152.302 151.437 150.918 150.978 149.907 150.238C148.811 149.851 147.776 149.137 147.152 148.439C146.3 147.486 145.37 145.857 145.602 144.502C144.335 144.605 143.06 144.635 141.805 144.631C138.715 144.624 135.597 144.379 132.624 143.479C129.972 142.676 126.881 141.334 125.313 138.912C125.239 138.797 125.361 138.633 125.49 138.677C126.757 139.123 127.942 139.725 129.249 140.066C130.535 140.399 131.821 140.714 133.147 140.852C135.74 141.12 138.371 141.084 140.972 140.955L141.865 140.908C144.649 140.759 147.525 140.546 150.129 139.501C151.15 139.092 152.095 138.52 152.957 137.84L153.093 137.732C153.554 137.356 154.031 137.039 154.516 136.739C154.585 136.65 154.655 136.561 154.725 136.47C155.827 135.052 157.012 133.685 158.005 132.186C159.978 129.213 160.739 126.123 160.843 122.576C160.951 118.833 160.963 115.084 161.008 111.34L161.024 110.092C161.081 105.81 161.089 101.513 161.418 97.2417C161.57 95.2573 161.785 93.2821 162.117 91.3212L162.19 90.9012L162.725 87.8768C162.854 87.1483 162.929 86.3976 163.094 85.6722C162.909 85.3679 162.695 85.0749 162.447 84.796C162.218 84.5387 161.986 84.2891 161.754 84.0412L161.587 83.8933C161.205 83.5516 160.876 83.2254 160.569 82.7552L160.495 82.6389C160.164 82.2393 159.853 81.8212 159.577 81.3619L159.526 81.2728C159.458 81.1863 159.389 81.0997 159.318 81.0143C159.098 80.7482 158.866 80.4969 158.627 80.2562C157.788 81.8814 156.6 83.2892 154.92 84.1693C154.312 84.4876 153.571 84.215 153.371 83.5378C152.868 81.8284 152.105 80.2388 151.094 78.7993C149.407 81.6141 146.732 83.8157 143.579 84.89C142.791 85.1584 142.097 84.3299 142.282 83.59C142.851 81.3157 142.964 79.0029 142.63 76.7165C141.44 77.5691 140.213 78.372 138.953 79.1163C136.148 81.2897 133.176 83.2455 129.908 84.6499C129.153 84.9746 128.016 84.4291 128.359 83.4566C128.648 82.6379 128.886 81.8054 129.038 80.9505L129.072 80.7528C129.073 80.7469 129.073 80.741 129.074 80.7349C121.504 91.2034 103.147 101.291 101.738 101.389L101.699 101.389C102.579 102.232 103.29 103.273 103.754 104.469C104.242 105.726 102.252 106.273 101.738 105.071L101.721 105.031C100.93 102.992 98.9716 101.531 96.8413 101.186C95.5536 101.42 94.3365 102.042 93.5061 102.986C91.8722 104.844 91.8575 107.084 92.9727 109.198L93.1363 109.506C93.7401 110.635 94.3761 111.766 94.7162 113.006C95.1315 114.528 94.8174 116.071 95.0894 117.591L95.1041 117.671C95.2331 118.347 95.5115 119.115 96.3142 118.931C96.3762 118.916 96.4361 118.897 96.4958 118.876C96.665 119.012 96.8687 119.123 97.1225 119.198C97.744 119.379 98.4307 119.291 99.0492 119.144C99.6467 119.003 100.227 118.781 100.785 118.521C100.847 118.674 100.885 118.834 100.889 118.988C100.908 119.774 100.583 120.421 100.084 120.947C100.881 121.957 101.562 123.069 102.329 124.1C103.432 125.58 104.559 127.027 105.759 128.429C107.007 129.889 108.367 131.269 109.777 132.573C110.766 133.486 112.4 134.463 113.02 135.788C113.732 136.01 114.337 136.557 114.559 137.457C114.961 139.089 115.079 142.912 114.763 144.572C114.449 146.216 113.252 147.241 111.928 148.107C111.561 148.348 111.146 148.323 110.808 148.143C110.511 148.433 110.176 148.699 109.792 148.936C108.375 149.813 106.729 150.132 105.097 150.316C102.894 151.022 100.518 151.208 98.1695 150.768C97.4021 150.859 96.6347 150.942 95.8652 151.009C87.9931 151.696 79.9903 151.111 72.3122 149.232C68.7893 148.369 65.4628 146.802 62.3635 144.789C57.0217 141.319 54.7608 131.58 57.8603 122.27L58.1057 121.536C59.5024 117.376 61.0086 113.239 63.0276 109.358L63.2686 108.897C65.1244 105.358 67.1658 101.822 69.8772 98.8691C71.2349 97.3918 72.8118 96.0497 74.5933 95.1113C75.2696 94.7554 76.0591 94.5086 76.8307 94.2285L76.8465 94.035L76.8632 93.8415C76.914 93.2214 76.9787 92.6024 77.0622 91.9848C77.3738 89.6752 77.8136 87.3996 78.4382 85.1527C79.0637 82.9029 79.8328 80.6909 80.7581 78.547C82.3017 74.9701 84.2405 71.5771 86.4783 68.3933C86.6381 68.0644 86.8003 67.7368 86.9664 67.4118C88.8532 63.7153 91.2967 60.1899 94.4485 57.4614C98.0662 54.3292 102.424 52.3848 106.971 51.0194C111.687 49.6055 116.608 48.6375 121.522 48.312C124.109 48.1408 126.7 48.1387 129.283 48.3543ZM94.7921 107.74C97.1596 106.186 100.385 107.251 101.585 109.775C102.451 111.603 99.5862 112.632 99.1329 110.811C98.6818 108.984 96.7443 107.676 94.8828 107.955C94.7542 107.976 94.6741 107.816 94.7921 107.74Z" fill="black"/>
<path fill-rule="evenodd" clip-rule="evenodd" d="M150.685 125.112L150.831 125.078C151.999 124.803 153.122 124.428 154.209 125.152C155.245 125.841 155.389 127.116 154.582 128.046C153.752 129.002 152.65 128.949 151.487 128.962L151.414 128.963C150.449 128.976 149.467 128.962 148.505 128.876C147.608 128.796 146.706 128.668 145.819 128.501L145.295 128.398C144.76 128.29 144.232 128.149 143.956 127.63C143.475 126.726 147.052 126.017 147.487 125.893C148.541 125.592 149.616 125.354 150.685 125.112ZM152.669 114.213C152.099 114.804 151.346 115.208 150.5 115.46C148.375 116.092 145.664 115.755 143.928 115.111C143.568 114.977 143.232 114.705 143.038 114.365C142.862 114.053 142.802 113.688 142.936 113.315C142.975 113.209 143.021 113.104 143.068 113.002C143.195 112.723 143.455 112.506 143.76 112.382C144.076 112.253 144.436 112.227 144.725 112.318C144.763 112.33 144.803 112.343 144.844 112.356C145.944 112.702 147.747 113.277 149.242 113.165C150.138 113.099 150.927 112.782 151.335 111.961C151.55 111.528 151.49 111.1 151.299 110.708C151.012 110.117 150.436 109.603 149.951 109.249C149.267 108.749 148.538 108.55 147.783 108.339C147.499 108.26 147.211 108.179 146.921 108.083C146.825 108.051 146.741 107.989 146.678 107.909C146.616 107.829 146.575 107.731 146.563 107.634C146.549 107.532 146.566 107.431 146.613 107.344C146.656 107.264 146.726 107.193 146.83 107.146C148.306 106.485 150.214 106.922 151.655 107.963C152.375 108.483 152.976 109.151 153.346 109.898C153.69 110.59 153.836 111.351 153.701 112.126C153.55 112.994 153.183 113.679 152.669 114.213ZM128.479 99.4519C128.894 99.2691 129.235 100.125 129.32 100.358L129.497 100.842C129.785 101.623 130.115 102.416 130.721 102.996C131.228 103.481 132.04 103.892 132.628 103.324C133.185 102.786 132.914 102.18 132.996 101.519C133.144 100.325 134.772 99.1307 135.751 100.377C137.963 103.194 134.541 107.11 131.389 106.423C129.787 106.074 128.496 104.788 127.966 103.259L127.939 103.178C127.622 102.21 127.301 99.9721 128.479 99.4519ZM157.018 101.413L157.003 101.378C155.95 98.9808 159.707 97.9507 160.026 100.103L160.046 100.248C160.356 102.637 159.703 105.85 156.778 106.088C153.494 106.356 152.127 102.691 152.42 100.001C152.473 99.52 153.057 99.4534 153.237 99.8909L153.276 99.9864C153.806 101.338 154.309 103.937 156.177 103.935C157.425 103.933 157.366 102.247 157.018 101.413ZM159.401 94.4748C161.288 94.4078 161.286 97.3629 159.401 97.4072C153.104 97.5554 146.803 97.7524 140.505 97.7862L139.36 97.7932C133.445 97.8328 127.508 97.9137 121.61 97.417C121.106 97.3747 121.2 96.6675 121.621 96.696C127.805 95.8156 134.064 95.5581 140.295 95.2236C146.658 94.8818 153.033 94.7009 159.401 94.4748Z" fill="black"/>
</svg>
