<svg width="240" height="324" viewBox="0 0 240 324" fill="none" xmlns="http://www.w3.org/2000/svg">
<path fill-rule="evenodd" clip-rule="evenodd" d="M51.5017 284.886C64.438 285.248 76.6582 285.648 89.5696 284.886C110.231 283.608 170.864 285.912 184.192 284.886C185.198 284.809 188.657 285.912 188.729 284.886C189.315 277.741 189.695 205.451 187.954 200.477C186.213 195.503 177.621 171.592 166.674 160.443C163.621 157.431 158.976 156.264 156.41 152.783C154.197 148.987 154.369 146.759 152.184 144.762C151.236 143.896 149 143.544 147.338 142.341C145.668 140.68 147.249 137.024 146.564 134.711C145.15 128.936 139.943 125.231 134.252 124.357C126.341 122.464 117.991 124.254 114.202 130.47C112.791 132.784 113.542 135.596 111.807 139.304C111.931 142.106 108.661 142.783 106.707 143.893L102.825 147.817C90.8676 154.548 76.8007 158.182 66.3233 167.225C57.4155 176.265 48.5553 186.714 44.6029 198.945C43.7847 202.278 43.5176 205.722 43.1786 209.128C42.2105 219.08 39.515 228.739 37.1952 238.433C34.5502 250.647 32.0845 263.612 35.6495 275.942C36.6773 278.551 49.1619 284.764 51.5017 284.886Z" fill="#D08B5B"/>
<path fill-rule="evenodd" clip-rule="evenodd" d="M111.754 139.278L112.764 139.386V147.168L125.975 160.916L128.389 163.677C126.95 168.811 128.399 171.378 132.737 171.378C139.243 171.378 134.213 169.486 135.436 166.926L135.488 166.822C136.375 165.069 139.41 161.352 144.594 155.67L150.54 145.727V143.912L150.741 143.994C151.303 144.228 151.787 144.467 152.116 144.767C154.301 146.765 154.129 148.992 156.342 152.788C158.908 156.269 163.553 157.436 166.606 160.448C177.553 171.598 186.145 195.508 187.886 200.482C189.627 205.456 189.247 277.746 188.661 284.891C188.589 285.917 185.13 284.814 184.124 284.891C170.796 285.917 110.163 283.613 89.5017 284.891C76.5902 285.653 64.37 285.253 51.4337 284.891C49.0939 284.769 36.6093 278.556 35.5815 275.947C32.0165 263.617 34.4822 250.652 37.1273 238.438L37.3566 237.485C39.5835 228.269 42.0878 219.076 43.0616 209.622L43.1106 209.133C43.4496 205.727 43.7167 202.283 44.5349 198.95C48.4873 186.719 57.3475 176.27 66.2553 167.23C76.628 158.278 90.5187 154.626 102.398 148.023L102.757 147.822L106.639 143.898L106.758 143.832C108.723 142.76 111.86 142.055 111.739 139.309L111.754 139.278Z" fill="#FDEA6B"/>
<path fill-rule="evenodd" clip-rule="evenodd" d="M113.516 131.465C113.62 131.127 114.066 131.222 114.1 131.544C114.435 134.731 114.013 138.062 113.607 141.228C113.413 142.756 113.301 144.345 113.005 145.852C112.967 146.013 112.931 146.175 112.897 146.336C112.994 146.509 113.282 146.704 113.419 146.837L114.015 147.417L115.211 148.574C117.55 150.84 119.888 153.108 122.227 155.373L125.66 158.702C126.837 159.843 128.174 160.936 129.207 162.208C129.767 162.899 129.894 163.747 129.342 164.487C129.07 164.852 128.58 165.119 128.083 165.174C128.277 165.444 128.427 165.751 128.523 166.091C128.717 166.784 128.016 167.636 127.27 167.346C126.423 167.021 125.723 166.437 124.861 166.158C123.991 165.875 123.045 165.82 122.142 165.972C121.728 166.042 121.323 166.146 120.927 166.277C125.155 168.224 129.729 169.342 134.394 169.502C135.344 169.534 136.293 169.521 137.237 169.458C138.826 169.354 140.404 169.113 141.955 168.724C143.174 168.418 144.381 168.033 145.551 167.568C146.126 167.34 146.694 167.089 147.243 166.803L147.291 166.775C147.416 166.697 149.711 165.395 149.751 165.199C149.791 165.003 149.791 164.935 149.716 164.765C149.642 164.594 149.434 164.477 149.434 164.477C148.725 164.174 147.99 163.892 147.216 163.886C145.432 163.876 143.487 165.195 142.012 166.093C140.392 167.08 138.902 168.234 137.343 169.304C137.307 169.329 137.267 169.339 137.229 169.339C137.064 169.339 136.912 169.136 137.018 168.978C138.135 167.332 139.643 165.961 141.221 164.765L141.857 164.288C143.302 163.21 144.992 162.016 146.749 161.756C148.901 161.439 151.15 162.781 153.07 163.567L156.471 164.96C157.077 165.207 157.737 165.419 158.347 165.7L156.922 161.238C156.21 159.007 155.499 156.776 154.796 154.543L154.66 154.105C153.959 151.839 153.316 149.481 152.149 147.41C151.87 146.913 151.551 146.446 151.236 145.974C150.908 145.486 150.786 144.948 150.374 144.512C149.559 143.647 148.39 143.14 147.275 142.809C147.002 142.728 147.083 142.369 147.338 142.342C148.483 142.221 149.574 142.488 150.609 142.971L151.039 143.176C152.017 143.639 152.971 144.07 153.697 144.901C155.353 146.799 156.213 149.188 157.004 151.547L157.215 152.18C157.511 152.083 159.52 152.696 159.771 152.841C167.303 156.026 173.104 161.957 177.347 168.906C181.995 176.521 184.525 185.222 186.615 193.833C187.26 196.49 187.876 199.156 188.469 201.827C185.829 202.843 183.024 203.375 180.553 204.806C179.612 205.351 180.462 206.813 181.406 206.266C183.72 204.926 186.356 204.43 188.834 203.489C190.177 209.674 191.371 215.892 192.372 222.137C195.446 241.302 197.387 260.78 197.265 280.207C197.263 280.637 197.136 281.116 196.901 281.528C197.039 281.461 197.147 281.38 197.208 281.283C197.987 280.059 199.942 281.194 199.158 282.425L199.043 282.603C198.455 283.51 197.906 284.203 196.872 284.715C195.83 285.231 194.702 285.318 193.553 285.348C189.647 285.45 185.738 285.517 181.827 285.566C181.291 281.381 181.073 277.157 180.334 272.997C180.144 271.928 178.515 272.381 178.705 273.447C179.418 277.464 179.646 281.542 180.144 285.586C171.784 285.676 163.42 285.677 155.066 285.7C143.746 285.734 132.426 285.71 121.106 285.704L116.254 285.702C103.177 285.702 90.0993 285.66 77.0221 285.573L73.912 285.551C72.6748 278.255 71.8327 270.897 71.8171 263.483C71.8147 262.395 70.1246 262.393 70.1269 263.483C70.1426 270.889 70.9754 278.248 72.2011 285.542C69.1048 285.528 66.0099 285.54 62.9134 285.65L61.3373 285.706C58.184 285.814 55.0242 285.88 51.8768 285.629C48.3824 285.348 44.8481 284.705 41.715 283.059C40.304 282.316 39.0615 281.366 37.9997 280.25C39.079 279.621 40.1738 279.019 41.2194 278.334C42.1259 277.741 41.2802 276.277 40.3663 276.875C39.2396 277.612 38.0552 278.255 36.8952 278.937C36.0552 277.815 35.3658 276.571 34.8423 275.228C34.0162 273.108 33.6972 270.828 33.4204 268.583C33.0932 265.939 32.9578 263.274 32.9578 260.611C32.9578 255.01 33.5472 249.426 34.3692 243.893C35.1553 238.592 36.1945 233.334 37.2928 228.093L37.443 227.378C38.5268 222.225 39.5599 217.058 40.8021 211.941C41.9508 207.21 43.2782 202.5 44.8602 197.882C46.2683 198.753 47.7418 199.515 49.128 200.422C50.0409 201.02 50.8887 199.557 49.9811 198.963C48.5022 197.994 46.9249 197.19 45.4325 196.244C47.2014 191.299 49.2778 186.469 51.7671 181.843C56.7528 172.579 63.4714 164.292 72.0763 158.176C76.3838 155.115 81.1099 152.611 86.0728 150.789C91.1326 148.929 96.3761 147.91 101.738 147.492C101.891 147.48 101.977 147.622 101.971 147.753L101.969 147.777L102.18 147.811C102.258 147.281 102.419 146.767 102.725 146.296C103.422 145.222 104.744 144.533 105.801 143.874L106.051 143.718C107.308 142.939 108.634 142.171 110.096 141.898C110.147 141.889 110.178 141.942 110.144 141.982C109.18 143.088 107.948 143.933 106.818 144.868L106.559 145.084C105.622 145.855 104.316 146.73 104.282 148.018C104.242 149.536 104.552 151.115 104.664 152.628C104.776 154.137 104.854 155.644 104.894 157.157C105.04 162.578 104.865 168.002 104.385 173.402L106.506 171.981C109.807 169.771 113.119 167.566 116.499 165.497C118.545 164.244 120.843 163.172 123.294 163.221C123.98 163.233 124.756 163.333 125.5 163.544C124.699 162.785 123.932 161.978 123.148 161.215C121.857 159.957 120.566 158.7 119.276 157.445L115.554 153.818L111.83 150.191C110.677 149.064 109.325 148.027 109.447 146.252C109.547 144.835 110.267 143.426 110.759 142.06C110.829 141.864 110.892 141.669 110.951 141.477C111.945 138.176 112.508 134.754 113.516 131.465ZM161.62 273.111C160.85 272.341 159.655 273.536 160.425 274.307L160.832 274.712C161.513 275.391 162.187 276.091 162.658 276.93L162.727 277.057C163.234 278.02 164.693 277.167 164.186 276.204C163.559 275.014 162.561 274.053 161.62 273.111ZM128.634 272.894C126.183 272.426 123.821 272.426 121.37 272.894C120.303 273.098 120.755 274.728 121.82 274.524C123.963 274.115 126.041 274.115 128.185 274.524C129.248 274.727 129.703 273.098 128.634 272.894ZM95.5346 255.85C94.4799 255.583 94.0299 257.213 95.0854 257.481L95.6051 257.611C97.3716 258.048 99.054 258.373 100.889 257.968C101.937 257.736 101.513 256.145 100.481 256.329L100.44 256.337C98.7416 256.713 97.1774 256.267 95.5346 255.85ZM154.319 244.868C153.538 244.109 152.342 245.303 153.124 246.063C154.099 247.012 155.249 247.734 156.642 247.772C157.713 247.802 157.729 246.161 156.69 246.084L156.642 246.081C155.708 246.055 154.964 245.496 154.319 244.868ZM54.8487 240.352C55.8218 239.866 54.9668 238.407 53.9958 238.893L48.1547 241.814C47.1816 242.301 48.0366 243.76 49.0076 243.274L54.8487 240.352ZM170.271 240.725C169.183 240.694 169.184 242.385 170.271 242.416C171.293 242.444 172.341 242.832 173.252 243.274C174.226 243.747 175.084 242.29 174.105 241.814C172.914 241.236 171.607 240.762 170.271 240.725ZM115.694 232.561C116.588 231.953 115.744 230.487 114.841 231.101C113.609 231.939 112.492 232.928 111.28 233.791L110.947 234.023C110.052 234.631 110.897 236.097 111.8 235.483C113.144 234.569 114.35 233.475 115.694 232.561ZM178.546 220.273C177.458 220.272 177.457 221.963 178.546 221.964L178.752 221.963C179.65 221.958 180.596 221.933 181.431 222.292L181.527 222.335C182.505 222.796 183.364 221.339 182.38 220.875C181.156 220.299 179.876 220.273 178.546 220.273ZM84.6839 219.065L84.8259 219.012C85.8421 218.647 85.4039 217.012 84.3765 217.381C82.8283 217.938 81.6239 218.989 80.2809 219.901C79.3859 220.509 80.2306 221.975 81.1338 221.361C82.2909 220.575 83.3676 219.58 84.6839 219.065ZM148.079 214.666L148.306 214.544C149.274 214.046 148.42 212.587 147.454 213.084C146.687 213.479 146 214.004 145.247 214.423L145.02 214.545C144.052 215.043 144.906 216.502 145.873 216.005C146.64 215.61 147.326 215.085 148.079 214.666ZM122.367 198.289L122.193 198.121C121.415 197.359 120.219 198.554 120.997 199.317C122.942 201.221 125.242 202.667 127.561 204.064L127.983 204.318C128.918 204.879 129.769 203.418 128.836 202.858L128.217 202.486C126.155 201.242 124.117 199.957 122.367 198.289ZM75.5958 196.711C76.2512 195.859 74.8259 195.026 74.1598 195.828L74.1364 195.857C73.4541 196.743 72.6447 197.545 71.7986 198.277L71.6396 198.414C71.1359 198.842 70.2192 199.761 69.5117 199.821C68.4359 199.913 68.4262 201.604 69.5117 201.512C70.6065 201.419 71.5485 200.648 72.3756 199.987C73.5795 199.026 74.6563 197.93 75.5958 196.711ZM165.514 190.551C166.299 189.813 165.139 188.638 164.347 189.331L164.319 189.356C162.851 190.735 160.74 191.105 158.851 191.573C157.796 191.835 158.243 193.465 159.3 193.203L160.161 192.991C162.092 192.509 164.029 191.947 165.514 190.551ZM132.042 179.886C130.987 179.618 130.537 181.248 131.592 181.517C133.385 181.972 135.083 182.561 136.745 183.379C137.717 183.858 138.575 182.4 137.598 181.919C135.81 181.039 133.972 180.377 132.042 179.886ZM149.307 144.244C149.282 144.168 149.362 144.081 149.44 144.108C151.337 144.816 150.329 147.301 149.739 148.788L149.632 149.06C148.709 151.444 147.419 153.765 146.011 155.9C144.539 158.134 142.904 160.272 141.133 162.28C140.365 163.152 139.569 163.999 138.745 164.82L138.435 165.127C137.603 165.945 136.53 167.382 135.239 167.224C133.849 167.057 133.073 165.571 134.087 164.442C134.804 163.644 135.797 163.007 136.597 162.28C137.392 161.562 138.161 160.82 138.911 160.057C140.445 158.491 141.898 156.836 143.227 155.092C144.512 153.406 145.742 151.673 146.86 149.872L147.083 149.511C147.934 148.109 149.899 146.049 149.307 144.244ZM82.1073 161.954C81.2068 161.339 80.3605 162.803 81.2542 163.414C82.8974 164.538 84.3431 165.899 86.1218 166.823C87.0741 167.318 87.921 165.9 87.0086 165.381L86.9749 165.363C85.1975 164.439 83.7497 163.077 82.1073 161.954Z" fill="black"/>
<path fill-rule="evenodd" clip-rule="evenodd" d="M139.183 145.72C134.504 145.747 130.527 144.416 127.493 142.214C123.706 140.86 119.138 138.772 116.364 136.581C115.282 136.857 113.987 135.705 113.159 135.097C108.009 131.242 103.967 125.599 102.77 119.947C100.921 122.287 98.2897 122.384 95.7693 121.222C90.4861 118.218 90.6836 111.893 92.5857 107.168C88.587 98.1733 85.8158 74.429 91.9197 64.8461C93.1682 63.4123 95.0004 62.5547 96.3196 61.0843C97.4934 59.8001 98.6099 58.4866 99.9756 57.4704C104.143 54.2909 111.32 52.598 115.814 51.8018C134.573 47.7359 148.987 55.0439 165.979 61.2084C165.001 63.66 163.648 65.8959 162.098 67.9807C166.317 69.5592 164.379 73.1085 161.106 74.9077L159.158 73.9583C162.195 84.8526 169.185 111.944 166.169 120.644C163.764 134.217 153.209 145.818 139.183 145.72Z" fill="#D08B5B"/>
<path fill-rule="evenodd" clip-rule="evenodd" d="M102.362 93.4795C101.99 94.2716 101.681 95.1241 101.681 95.8486C101.681 96.9965 101.916 99.3089 102.142 101.287C102.254 102.266 102.367 103.179 102.452 103.855C102.073 103.746 101.621 103.619 101.129 103.493C99.7759 103.147 98.0442 102.779 96.7399 102.779C95.2648 102.779 94.0476 103.591 93.2526 104.305C92.8454 104.67 92.5226 105.035 92.3014 105.307C92.2768 105.337 92.2543 105.367 92.2328 105.395C92.2196 105.413 92.2067 105.43 92.194 105.446H91.7948C91.9852 105.98 92.1799 106.481 92.3778 106.946H92.9723L93.194 106.612L93.1959 106.609L93.2067 106.594C93.2092 106.59 93.2121 106.586 93.2154 106.581C93.2255 106.566 93.2391 106.546 93.2565 106.522C93.3025 106.459 93.3733 106.366 93.4655 106.253C93.6508 106.025 93.9204 105.722 94.2555 105.421C94.945 104.802 95.8128 104.279 96.7399 104.279C97.8379 104.279 99.4083 104.601 100.756 104.946C101.419 105.116 102.01 105.286 102.434 105.413C102.646 105.477 102.816 105.53 102.932 105.566C102.972 105.579 103.006 105.59 103.033 105.599C103.045 105.603 103.056 105.606 103.065 105.609C103.071 105.611 103.076 105.613 103.08 105.614C103.088 105.617 103.095 105.619 103.099 105.62C103.103 105.621 103.105 105.622 103.107 105.622L103.109 105.623L104.244 105.997L104.087 104.812V104.808L104.085 104.793C104.084 104.788 104.083 104.782 104.082 104.774C104.081 104.763 104.079 104.75 104.077 104.735C104.074 104.717 104.071 104.695 104.068 104.67C104.062 104.627 104.055 104.575 104.047 104.515C104.023 104.323 103.988 104.047 103.945 103.709C103.86 103.033 103.746 102.108 103.632 101.116C103.403 99.1115 103.181 96.8929 103.181 95.8486C103.181 95.4772 103.361 94.8813 103.72 94.1172C104.067 93.3799 104.535 92.5781 105.014 91.8281C105.492 91.0806 105.971 90.3977 106.331 89.9014C106.51 89.654 106.659 89.4534 106.763 89.3154C106.802 89.2643 106.835 89.2218 106.86 89.1886C106.869 89.177 106.877 89.1665 106.884 89.1572C106.898 89.1396 106.908 89.1261 106.915 89.1172C106.917 89.1146 106.918 89.112 106.92 89.11C106.921 89.1085 106.922 89.1073 106.922 89.1064C106.923 89.1059 106.923 89.1055 106.924 89.1051C106.924 89.1049 106.924 89.1047 106.924 89.1045L107.357 88.5488L106.83 88.082L106.828 88.0801L106.817 88.0703C106.807 88.0609 106.79 88.0463 106.768 88.0264C106.725 87.9865 106.66 87.926 106.578 87.8467C106.413 87.6879 106.179 87.4538 105.904 87.1582C105.353 86.5649 104.65 85.7327 104.03 84.7686C102.755 82.786 101.994 80.5194 103.085 78.585C104.343 76.3516 106.578 73.6649 109.439 71.542C112.3 69.4196 115.733 67.8994 119.399 67.8994C123.141 67.8994 128.496 69.3709 133.357 70.8877C134.546 71.2586 135.728 71.6396 136.839 71.9976C137.945 72.354 138.98 72.6876 139.88 72.9658C140.801 73.2503 141.627 73.4917 142.314 73.6621C142.983 73.8278 143.585 73.9433 144.032 73.9434C144.915 73.9434 145.974 73.5301 147.006 73.0283C147.962 72.5639 149.01 71.9644 150.041 71.3743C150.155 71.3089 150.269 71.2436 150.382 71.1787C151.537 70.5189 152.66 69.889 153.667 69.4404C154.704 68.9783 155.484 68.7726 155.993 68.8232C156.391 68.863 156.814 69.1486 157.245 69.7783C157.668 70.3974 158.016 71.2336 158.291 72.1104C158.563 72.979 158.752 73.8458 158.872 74.499C158.932 74.8243 158.974 75.094 159.002 75.2812C159.015 75.3746 159.025 75.4474 159.032 75.4961C159.034 75.514 159.036 75.5288 159.037 75.5401L159.039 75.5508C159.039 75.5541 159.039 75.5571 159.039 75.5594C159.039 75.561 159.04 75.5624 159.04 75.5635C159.04 75.5646 159.041 75.5659 159.041 75.5664L159.119 76.2295H159.687C159.475 75.4493 159.274 74.7219 159.088 74.0552L160.431 74.7094C160.408 74.5664 160.38 74.4045 160.347 74.2275C160.22 73.5377 160.019 72.6071 159.722 71.6611C159.428 70.7236 159.027 69.7272 158.483 68.9316C157.946 68.1466 157.183 67.4349 156.141 67.3311C155.209 67.2382 154.112 67.6 153.056 68.0703C151.97 68.5541 150.785 69.2218 149.638 69.877C149.525 69.9418 149.412 70.0066 149.299 70.0711C148.259 70.6664 147.258 71.2391 146.351 71.6797C145.317 72.1821 144.537 72.4434 144.032 72.4434C143.785 72.4433 143.339 72.3707 142.674 72.2061C142.029 72.046 141.236 71.8152 140.323 71.5332C139.397 71.2472 138.392 70.9229 137.311 70.5744C136.217 70.2216 135.046 69.8439 133.803 69.4561C128.98 67.9509 123.407 66.3994 119.399 66.3994C115.316 66.3994 111.576 68.0884 108.546 70.3369C105.516 72.5849 103.14 75.4315 101.778 77.8486C100.247 80.5647 101.438 83.512 102.768 85.5801C103.451 86.6412 104.215 87.5437 104.805 88.1787C105.003 88.3912 105.182 88.5739 105.334 88.7246C105.318 88.7459 105.302 88.7676 105.285 88.7899C105.232 88.8615 105.175 88.9384 105.116 89.0205C104.744 89.5326 104.248 90.2408 103.75 91.0205C103.253 91.7976 102.747 92.6604 102.362 93.4795ZM160.472 74.7295L161.037 75.0045C161.196 74.9169 161.352 74.825 161.505 74.7295H160.472Z" fill="#ECDCBF"/>
<path fill-rule="evenodd" clip-rule="evenodd" d="M141.894 146.888C135.818 147.513 128.6 146.073 124.55 141.125C124.428 140.977 124.375 140.81 124.372 140.648C124.369 140.468 124.429 140.294 124.533 140.158C124.643 140.016 124.798 139.917 124.977 139.885C125.128 139.858 125.299 139.875 125.476 139.975L125.848 140.182C128.615 141.714 131.488 143.02 134.623 143.579C137.85 144.155 141.137 144.091 144.336 143.36C150.164 142.029 154.88 138.633 158.351 134.156C162.225 129.16 164.551 122.818 165.144 116.475C165.862 108.789 164.195 101.149 162.471 93.7064C160.659 85.8862 158.679 78.1059 156.378 70.4159C156.309 70.1844 156.29 69.9677 156.31 69.7682C155.631 69.5017 154.909 69.5757 154.19 69.819C152.877 70.2635 151.569 71.2659 150.478 72.0934C150.082 72.3931 149.715 72.6716 149.384 72.8983C148.031 73.8265 146.552 74.4943 144.898 74.5993C143.178 74.7083 141.492 74.1724 139.93 73.5017C139.136 73.1609 138.355 72.8075 137.577 72.4554C135.363 71.4529 133.174 70.4604 130.782 69.8153C127.578 68.9507 124.269 68.5248 120.95 68.5553C115.027 68.6096 109.086 70.1381 105.456 75.1602C103.985 77.1945 103.026 79.5327 103.774 82.0435C104.181 83.4093 104.948 84.6492 105.786 85.7896L106.074 86.178C106.533 86.8039 106.932 87.4274 107.053 88.0912C107.154 88.6472 107.075 89.2355 106.679 89.8803C106.43 90.2861 106.112 90.6501 105.793 91.0129C105.563 91.2746 105.332 91.5358 105.134 91.817C104.734 92.384 104.38 92.9947 104.102 93.6316C103.558 94.8783 103.327 96.2194 103.278 97.572C103.22 99.2038 103.449 100.8 103.676 102.399C103.837 103.532 103.997 104.667 104.062 105.815C104.074 106.016 104.013 106.165 103.927 106.276C103.822 106.411 103.669 106.496 103.495 106.52C103.443 106.527 103.388 106.528 103.333 106.523C103.36 106.633 103.384 106.744 103.404 106.856C103.294 106.714 103.177 106.577 103.054 106.444C103.046 106.44 103.038 106.436 103.031 106.431C102.903 106.361 102.795 106.254 102.727 106.117C102.553 105.954 102.367 105.799 102.173 105.654C101.163 104.898 99.9823 104.45 98.7984 104.435C97.6571 104.421 96.5131 104.81 95.6334 105.633C93.8849 107.269 93.3728 109.938 93.3545 112.23C93.336 114.57 93.8761 117.378 95.911 118.83C96.7272 119.413 97.7241 119.763 98.7284 119.773C99.5609 119.782 100.358 119.486 101.142 119.205C101.384 119.118 101.624 119.032 101.865 118.954C102.137 118.865 102.386 118.87 102.603 118.935C102.847 119.009 103.054 119.16 103.209 119.362C103.364 119.563 103.465 119.815 103.496 120.079C103.526 120.335 103.491 120.6 103.384 120.839C103.357 120.899 103.328 120.958 103.298 121.015L103.746 121.752C105.459 124.57 107.203 127.336 109.49 129.758C110.802 131.148 112.193 132.46 113.719 133.608L113.939 133.772C114.071 133.869 114.217 133.988 114.373 134.116C114.818 134.481 115.351 134.971 115.849 134.99C115.997 134.996 116.126 134.977 116.244 134.962C116.527 134.924 116.765 134.913 116.999 135.009C117.187 135.086 117.382 135.229 117.582 135.526C117.718 135.727 117.788 135.979 117.788 136.234C117.788 136.491 117.717 136.747 117.592 136.95C117.333 137.37 117.019 137.63 116.679 137.778C116.299 137.943 115.88 137.968 115.444 137.887C114.371 137.686 113.182 136.794 112.426 136.213L112.28 136.1C110.604 134.819 109.016 133.401 107.62 131.815C105.242 129.115 103.106 125.933 102.01 122.456C101.236 122.965 100.281 123.207 99.2827 123.245C97.8278 123.3 96.288 122.925 95.1533 122.385C92.6525 121.197 91.1336 118.948 90.4218 116.362C89.5952 113.359 89.8638 109.907 90.9103 107.209C90.9407 107.131 90.9723 107.053 91.0049 106.974C87.7831 98.7906 86.7925 89.7041 87.0685 80.9715C87.1975 76.8839 87.4752 72.5953 88.4371 68.6088C88.8683 66.822 89.6174 65.1204 90.8135 63.7137C91.4954 62.9115 92.3321 62.287 93.1727 61.6643C93.9007 61.1249 94.6315 60.5866 95.2464 59.9132L95.5372 59.5934C95.6002 59.5238 95.6631 59.4544 95.7259 59.385C96.7878 58.2117 97.8216 57.0731 99.1103 56.1108C100.605 54.9951 102.254 54.1218 103.968 53.3965C107.659 51.8346 111.633 50.8981 115.563 50.1736C124.067 48.6064 132.796 48.5291 141.196 50.732C145.101 51.7561 148.891 53.1579 152.674 54.558C153.026 54.688 153.377 54.8179 153.728 54.9476C156.669 56.0329 159.61 57.1136 162.552 58.1943C163.919 58.6966 165.287 59.1988 166.654 59.7016C166.95 59.8107 167.241 60.0457 167.406 60.3377C167.567 60.6227 167.616 60.9549 167.485 61.2858C166.646 63.4165 165.588 65.4154 164.3 67.2821C164.747 67.5874 165.128 67.9934 165.417 68.4686C165.781 69.0696 165.997 69.7811 166.012 70.5359C166.061 73.0639 163.766 74.7776 161.862 76.017C161.685 76.1327 161.509 76.2009 161.339 76.2323C163.184 83.3035 164.95 90.3986 166.45 97.5499L166.554 98.0457C168.099 105.53 169.097 113.168 167.635 120.752C166.376 127.282 163.452 133.585 158.882 138.45C154.404 143.217 148.395 146.219 141.894 146.888ZM101.886 103.834C101.091 101.303 100.669 98.5489 100.974 95.9832C101.165 94.3705 101.649 92.8179 102.436 91.3964C102.888 90.5822 103.437 89.8286 104.037 89.1187L104.244 88.8803C104.349 88.7585 104.453 88.6466 104.485 88.5063C104.504 88.4248 104.485 88.3356 104.436 88.2291C104.326 87.9931 104.123 87.7657 103.932 87.5438C103.811 87.4027 103.693 87.2642 103.593 87.1295C101.85 84.7633 100.549 81.9462 100.972 78.9456C101.384 76.0181 103.298 73.2892 105.336 71.2327C109.822 66.7042 116.778 65.6636 122.871 65.9134C126.418 66.0587 129.959 66.6854 133.337 67.7801C135.003 68.3201 136.632 68.9776 138.214 69.7313L138.565 69.9C138.754 69.9918 138.943 70.0847 139.132 70.1776C140.369 70.7858 141.611 71.4 142.954 71.7306C145.576 72.3762 147.355 71.0165 149.225 69.6451C149.866 69.1752 150.517 68.6987 151.208 68.2806L151.351 68.1962C152.598 67.4712 154.09 66.9832 155.524 67.0051C156.769 67.0241 157.97 67.4227 158.948 68.3646C159.149 68.5581 159.265 68.7693 159.319 68.9794C159.427 69.1315 159.515 69.3129 159.571 69.5271C159.922 70.8451 160.271 72.1639 160.618 73.4832L160.903 73.2996C161.745 72.7513 162.66 72.1247 163.073 71.2075C163.233 70.8544 163.21 70.2663 163.009 69.8338C162.939 69.6827 162.847 69.5484 162.719 69.4645C162.625 69.4035 162.513 69.3749 162.383 69.3854C162.065 69.4264 161.774 69.3799 161.527 69.2752C161.242 69.1545 161.015 68.9558 160.867 68.7165C160.716 68.4713 160.647 68.1832 160.684 67.8843C160.716 67.6273 160.826 67.359 161.045 67.1068C162.481 65.447 163.691 63.6159 164.61 61.6285L158.529 59.3729C156.36 58.569 154.192 57.7662 152.022 56.9664L150.834 56.5289C146.889 55.0781 142.92 53.6604 138.817 52.7263C130.663 50.8703 122.16 51.3065 114.029 53.0536L113.538 53.16C110.125 53.906 106.667 54.8084 103.535 56.3772C101.998 57.1471 100.537 58.0834 99.2818 59.2663C98.7276 59.7887 98.2265 60.3606 97.7253 60.9318C97.0229 61.7323 96.3196 62.5306 95.4845 63.2048L94.7092 63.8272C93.556 64.7588 92.5158 65.6664 91.865 67.1112C91.1846 68.6217 90.8598 70.2904 90.5948 71.9162C89.9265 76.0118 89.6628 80.1731 89.6879 84.3216C89.7305 91.2873 90.7861 98.1112 92.1197 104.911C93.1897 103.376 94.6927 102.186 96.6218 101.932C97.8795 101.767 99.1264 102.002 100.208 102.559C100.833 102.881 101.402 103.311 101.886 103.834ZM99.8653 112.105C98.4565 111.558 96.9774 111.379 95.4871 111.64C95.3309 111.668 95.182 111.635 95.0568 111.562C94.9299 111.488 94.8299 111.371 94.7756 111.242C94.7129 111.093 94.7097 110.932 94.7651 110.788C94.8131 110.664 94.9047 110.543 95.0731 110.462C96.6869 109.69 98.4807 109.349 100.261 109.592L100.437 109.617C101.347 109.752 102.627 110.037 103.587 110.598C104.341 111.038 104.893 111.645 105.03 112.438C105.102 112.852 105 113.283 104.762 113.596C104.532 113.898 104.181 114.1 103.726 114.087C102.924 114.064 102.45 113.724 101.878 113.284C101.809 113.231 101.738 113.176 101.664 113.121C101.112 112.707 100.509 112.355 99.8653 112.105Z" fill="black"/>
<path fill-rule="evenodd" clip-rule="evenodd" d="M143.152 128.274C141.732 127.694 140.465 126.727 139.538 125.492C139.216 125.063 139.133 124.61 139.2 124.195C139.276 123.729 139.552 123.306 139.928 123.023C140.305 122.738 140.777 122.598 141.233 122.67C141.63 122.732 142.024 122.949 142.337 123.399L142.402 123.489C142.953 124.235 143.67 124.846 144.488 125.24C145.276 125.62 146.158 125.798 147.07 125.695C148.808 125.498 150.005 124.558 151.278 123.282C151.436 123.121 151.594 122.954 151.752 122.786C151.852 122.632 151.991 122.534 152.146 122.482C152.317 122.425 152.511 122.428 152.689 122.49C152.86 122.55 153.013 122.663 153.116 122.814C153.213 122.958 153.269 123.135 153.251 123.338C153.134 124.661 152.443 125.842 151.461 126.769C150.37 127.798 148.924 128.511 147.563 128.76C146.064 129.036 144.536 128.839 143.152 128.274ZM148.271 107.866C149.866 108.836 152.297 111.098 150.581 113.503C148.56 115.624 145.652 113.192 144.218 112.093C142.889 111.241 141.396 113.432 142.629 114.428C152.986 122.099 157.19 108.12 149.077 106.725C148.184 106.572 147.853 107.566 148.271 107.866ZM129.711 98.9426C129.887 96.7538 133.219 96.2568 133.551 98.4227C133.847 100.363 133.498 102.145 132.624 103.892C131.79 105.561 129.692 104.782 129.533 103.263C129.32 101.226 129.601 100.304 129.711 98.9426ZM155.076 97.9736C155.541 97.3649 156.211 96.9494 157.015 97.1842C159.526 97.9182 158.786 101.484 157.904 103.22C157.425 104.163 155.876 104.402 155.176 103.572C154.035 102.218 153.489 99.5154 154.939 98.1822C154.979 98.1133 155.022 98.0438 155.076 97.9736ZM132.589 89.3651L132.986 89.2957C134.213 89.0834 135.738 88.8794 136.606 89.8662C137.067 90.3895 137.225 91.3622 136.606 91.8631C135.518 92.7444 134.314 92.4028 133.01 92.4775C131.935 92.5392 130.902 92.7171 129.867 93.0132C127.595 93.6627 125.744 94.8484 123.804 96.1503C123.549 96.3211 123.29 95.9954 123.411 95.7572C124.531 93.5627 126.701 91.7601 128.875 90.6613C130.036 90.0748 131.305 89.5883 132.589 89.3651ZM152.787 88.3821L153.091 88.4442C156.394 89.1351 160.687 90.515 162.251 93.7613C162.311 94.2203 162.248 94.3187 162.196 94.3829L162.179 94.4043C162.137 94.4592 162.104 94.5349 161.905 94.5974C161.849 94.5842 161.794 94.5703 161.737 94.5555C161.02 94.3675 160.453 94.1085 159.904 93.8398L159.308 93.5462C158.617 93.2073 157.92 92.8807 157.181 92.6396C155.605 92.1252 153.983 91.7628 152.337 91.5693C151.98 91.5274 151.636 91.4069 151.365 91.2004C151.107 91.0044 150.911 90.733 150.821 90.3722C150.705 89.9053 150.738 89.5518 150.989 89.1306C151.177 88.8143 151.447 88.5951 151.756 88.4692C152.071 88.3408 152.43 88.3106 152.787 88.3821Z" fill="black"/>
<path fill-rule="evenodd" clip-rule="evenodd" d="M102.133 106.046C103.626 106.046 104.237 109.524 104.237 109.524C108.035 116.075 111.691 122.608 118.213 127.115C125.454 130.017 132.575 134.961 140.826 135.503C144.545 135.112 145.636 131.707 150.229 132.905C153.159 133.617 156.45 135.022 159.159 132.993C161.449 131.495 163.061 129.227 165.036 127.392C165.137 127.061 165.793 130.554 165.594 131.734L165.441 132.405C164.218 137.809 162.981 144.169 157.508 147.14C155.841 148.019 153.501 148.867 151.651 148.372C141.874 149.932 131.269 148.79 122.704 143.911C119.688 143.128 117.445 140.722 115.07 138.905C109.262 133.816 102.606 127.369 101.986 119.637C101.366 111.906 101.642 106.046 102.133 106.046ZM131.673 121.312C135.001 115.966 141.613 116.835 146.757 119.27C149.599 117.34 153.348 117.695 156.432 119.055L156.431 119.057C159.272 120.611 161.423 123.164 163.4 125.605C163.881 126.253 164.072 127.125 163.396 127.445C160.208 130.073 153.586 128.53 150.581 126.576C148.413 126.402 148.888 123.322 146.386 125.477C144.716 127.048 142.618 128.021 140.339 128.599C135.244 130.348 130.553 130.058 126.116 127.33C125.545 127.275 123.207 125.952 124.038 125.481C124.941 125.725 129.948 122.85 131.673 121.312Z" fill="#E8E1E1"/>
<path fill-rule="evenodd" clip-rule="evenodd" d="M101.355 111.794C101.389 111.512 101.825 111.499 101.835 111.794C102.037 117.979 104.05 124.76 107.456 130.056C115.639 143.424 132.342 150.12 148.418 147.819C160.167 147.66 161.422 141 164.342 131.701C165.858 130.456 166.602 130.902 166.132 132.361C162.512 143.583 161.272 150.019 146.949 149.896C123.952 153.18 99.0113 134.369 101.355 111.794ZM133.845 116.781C137.598 115.106 142.062 115.342 145.196 117.659L145.417 117.71C145.966 117.832 146.493 117.926 147.11 117.863C155.403 113.495 160.94 121.112 165.191 126.815C165.512 126.826 165.774 127.078 165.687 127.373L165.823 127.519C165.287 128.956 164.319 130.343 162.996 131.215C158.657 136.994 155.417 135.187 149.764 132.808C143.952 131.937 143.716 138.792 135.607 135.652L135.301 135.552C132.634 134.671 129.571 133.334 127.631 131.402C127.568 131.338 127.63 131.216 127.727 131.248C132.227 132.605 138.013 137.036 142.593 134.051C143.751 133.274 144.791 132.33 146.086 131.745C153.475 129.271 156.072 139.04 162.538 128.898C157.273 129.816 151.338 128.903 147.403 125.317C141.519 132.406 130.068 131.27 122.788 126.867C121.792 127.01 120.318 126.025 121.235 125.087C122.239 124.29 123.825 124.602 125.059 124.17C128.995 122.769 129.924 118.304 133.845 116.781ZM146.999 119.746C142.841 116.786 136.621 116.288 132.641 119.779C130.156 122.276 128.544 125.86 124.537 126.52C131.418 130.482 141.305 130.549 146.603 124.245C146.769 123.7 147.632 123.935 147.736 124.408C151.53 127.056 156.382 128.464 161.107 127.652C161.869 127.527 162.621 127.349 163.355 127.12L162.657 126.161C158.949 121.085 154.178 115.175 147.105 119.349C146.945 119.43 146.878 119.223 146.858 119.117L146.771 119.18C146.834 119.312 147.355 119.744 146.999 119.746ZM164.028 128.559C164.063 128.591 164.091 128.625 164.115 128.66C164.232 128.599 164.353 128.538 164.477 128.479L164.443 128.454C164.31 128.492 164.171 128.527 164.028 128.559ZM101.89 104.118L101.889 103.915C101.889 101.874 102.437 104.448 102.683 104.954C103.742 106.861 104.627 108.748 105.749 110.607C110.246 118.701 110.943 122.21 120.005 126.821C120.679 127.398 119.971 128.433 119.135 128.22C117.884 127.902 116.704 127.104 115.614 126.461C109.443 123.277 107.142 116.782 104.373 111.129C103.56 108.888 101.684 106.496 101.89 104.118Z" fill="black"/>
<path fill-rule="evenodd" clip-rule="evenodd" d="M170.723 102.353C168.709 115.983 154.648 117.49 152.15 103.959C152.551 103.784 152.839 103.438 152.779 102.767C152.765 99.8178 153.68 96.7012 156.339 95.0613C159.087 93.3693 162.302 93.2014 165.482 93.2441C171.55 93.0996 171.423 98.1735 170.723 102.353ZM149.949 96.4254C148.044 96.3451 145.635 96.4123 143.929 97.573C143.46 96.3096 142.242 94.9605 141.01 94.2392C145.587 94.3732 150.298 93.9226 154.908 93.5728C153.805 94.3254 152.778 95.4561 152.111 96.7633C151.491 96.433 150.604 96.4638 149.949 96.4254ZM141.555 103.798C136.274 121.982 123.093 114.056 121.656 111.726C119.064 107.87 118.576 98.4953 120.834 95.9889C124.066 93.7224 128.641 94.3057 132.459 94.2502C139.474 94.3448 144.455 96.444 141.555 103.798ZM176.958 95.4348C175.524 95.2471 173.99 95.2093 172.657 95.8412C172.246 94.0948 170.956 92.6348 169.501 91.9923C169.324 91.7712 169.351 91.6525 168.749 91.6856C165.053 90.5744 160.917 91.1623 157.365 92.3019C151.755 92.7745 145.87 93.1471 140.213 93.7983C134.914 91.4176 118.923 91.0687 117.929 96.9364C116.679 96.7494 114.55 95.7651 113.5 97.1002C105.795 95.7934 97.8329 97.6096 90.0944 98.4184C88.1465 98.7773 87.1432 102.645 89.3543 102.592C90.5974 102.254 89.3161 100.184 90.99 100.028C98.4564 99.212 105.759 98.0547 113.302 97.9192C113.04 99.2222 118.291 99.3069 118.369 98.5461C118.38 98.5518 118.392 98.5556 118.403 98.5606C117.106 103.398 118.277 110.361 120.622 113.361C123.908 117.289 132.157 118.416 135.814 115.888C140.532 113.556 145.441 101.847 144.062 97.9564C146.564 97.163 149.038 97.4012 151.635 97.8053C151.04 99.4853 150.014 103.621 151.491 103.98C151.22 112.191 158.689 117.314 165.575 113.946C171.536 111.147 173.62 102.287 172.891 96.91C173.633 98.3442 179.862 96.7828 176.958 95.4348Z" fill="black"/>
</svg>
