<svg width="240" height="324" viewBox="0 0 240 324" fill="none" xmlns="http://www.w3.org/2000/svg">
<path fill-rule="evenodd" clip-rule="evenodd" d="M116.796 128.018C121.428 124.786 136.467 127.221 142.666 128.018C145.924 128.437 147.847 132.664 149.557 139.092C158.484 136.903 170.198 134.829 178.613 140.763C181.212 143.027 181.698 146.885 178.7 149.037C177.723 149.696 175.841 150.256 175.543 150.827C174.337 153.897 172.992 157.954 173.206 161.219C177.038 195.5 184.72 229.875 190.124 263.937L190.267 265.226C190.901 271.021 191.413 277.859 187.478 282.473C184.832 284.716 181.068 284.407 177.834 285.054C147.351 289.139 116.572 285.234 85.9647 286.48C80.7491 286.774 75.5057 287.154 70.2777 287.192L70.2754 287.132C70.839 287.128 71.4028 287.12 71.9671 287.108C71.3891 270.078 70.1964 253.072 69.8115 236.035C69.69 230.665 69.6545 225.293 69.7605 219.922C69.7821 218.834 68.092 218.834 68.0704 219.922C68.0351 221.705 68.0195 223.486 68.0121 225.268C66.7462 224.275 65.3385 223.487 63.9877 222.601C63.0754 222.003 62.2278 223.466 63.1346 224.061C64.7368 225.112 66.4422 225.995 67.8313 227.338C67.8875 227.392 67.9462 227.434 68.006 227.469C68.037 244.586 69.2085 261.691 69.9524 278.786C70.0624 281.316 70.1623 283.846 70.2501 286.376L70.2775 287.192C64.6181 287.235 58.9768 286.877 53.4083 285.579C52.4675 286.891 50.2763 287.151 49.1623 285.458C48.6049 284.819 48.4928 283.732 47.6301 283.488C47.3982 283.307 47.7563 283.178 47.9202 283.264C40.3021 261.426 47.2541 220.73 53.3963 198.358C56.0834 186.823 62.5423 176.144 63.2147 164.203C63.2855 158.575 59.2511 151.795 64.3661 147.273C63.6117 143.14 67.518 139.695 71.462 139.423C76.3163 121.888 97.8028 142.338 109.437 142.545C111.032 139.891 114.58 129.564 116.796 128.018ZM182.202 242.809C182.201 241.721 180.511 241.719 180.512 242.809C180.523 254.38 181.517 268.232 182.946 279.708C183.078 280.773 184.77 280.786 184.636 279.708C183.207 268.232 182.213 254.38 182.202 242.809ZM102.928 257.661C103.888 257.147 103.035 255.687 102.075 256.201C95.0315 259.974 88.4491 264.484 82.1182 269.348C81.2675 270.002 82.1083 271.471 82.9713 270.808C89.3022 265.944 95.8844 261.434 102.928 257.661ZM164.053 255.501C163.387 254.701 161.96 255.532 162.617 256.384C164.147 258.366 166.047 259.927 168.275 261.069C169.229 261.559 170.077 260.141 169.162 259.628L169.128 259.609C167.227 258.635 165.513 257.343 164.181 255.663L164.053 255.501ZM79.4655 206.026C79.7015 204.965 78.0724 204.513 77.8358 205.576C77.3383 207.811 77.6999 210.188 78.2173 212.402L78.252 212.55L78.3226 212.843C78.4155 213.224 78.7713 213.436 79.1374 213.464C85.3546 213.924 91.5036 211.81 97.4641 210.251L97.9052 210.137L98.3457 210.025C99.3997 209.759 98.9533 208.128 97.8963 208.394L97.4257 208.514C91.6953 209.991 85.7938 212.074 79.8141 211.812L79.7513 211.536C79.3592 209.785 79.082 207.912 79.4363 206.163L79.4655 206.026ZM174.901 201.905C174.909 200.817 173.219 200.816 173.21 201.905L173.208 202.119C173.188 203.834 173.047 206.271 171.367 207.18C169.872 207.989 167.887 207.382 166.304 206.763L165.983 206.636L165.518 206.447C164.513 206.035 164.074 207.67 165.069 208.077L165.318 208.178C167.471 209.038 170.236 209.858 172.361 208.557C174.439 207.286 174.839 204.592 174.894 202.329L174.898 202.155L174.901 201.905Z" fill="#D08B5B"/>
<path fill-rule="evenodd" clip-rule="evenodd" d="M170.207 136.698L170.38 136.73L175.163 137.62L170.312 137.986C170.087 138.003 169.862 138.024 169.635 138.049C169.17 138.1 168.712 138.164 168.263 138.242L167.971 138.294L168.096 138.288C169.868 138.205 171.641 138.35 173.39 138.717C175.114 139.079 176.644 139.571 178.013 140.241L178.176 140.322L178.387 140.43L178.489 140.479L178.57 140.516C178.945 140.689 179.097 140.779 179.256 140.994C179.57 141.42 179.436 141.901 179.031 142.267C178.727 142.541 178.335 142.676 177.821 142.754C177.745 142.766 177.667 142.776 177.583 142.785L177.128 142.83C176.28 142.918 175.72 143.378 175.636 144.09C175.553 144.788 175.962 145.495 176.548 145.669L176.591 145.681L176.646 145.694C176.722 145.711 176.789 145.729 176.854 145.753L176.903 145.772L177.009 145.815L177.014 145.816L177.017 145.818L177.118 145.86L177.144 145.911L177.16 145.923C177.22 145.972 177.245 146.006 177.285 146.081L177.319 146.148L177.347 146.244L177.355 146.276L177.359 146.301L177.36 146.309L177.388 146.486L177.395 146.546L177.398 146.585L177.398 149.296L176.703 147.905L176.679 147.925C176.342 148.196 175.911 148.419 175.362 148.636L175.25 148.679L174.961 148.786L174.389 148.99L174.257 149.039L174.14 149.084C174.047 149.121 173.968 149.155 173.895 149.188C173.786 149.238 173.69 149.295 173.606 149.358L173.558 149.396L173.282 149.624L172.604 149.387C172.525 149.359 172.452 149.333 172.383 149.308L171.725 149.063L171.162 148.856C170.431 148.588 169.774 148.356 169.135 148.14L168.359 147.882L167.794 147.697C167.597 147.634 167.39 147.567 167.161 147.494L163.963 146.484L163.348 146.286C163.002 146.174 162.691 146.072 162.369 145.965L161.772 145.764L161.193 145.565C159.31 144.91 157.508 144.21 154.3 142.913L154.996 143.31L155.513 143.602C156.132 143.951 156.811 144.33 157.57 144.75L161.022 146.658L161.714 147.044L163.26 147.914L164.077 148.37C165.54 149.182 166.579 149.732 167.686 150.272C168.541 150.69 169.421 151.091 170.337 151.482L170.682 151.628L171.211 151.848L171.628 152.03L171.911 152.154L172.097 152.233C173.096 152.651 173.682 152.76 174.333 152.59L174.379 152.577L174.423 152.561L175.691 152.075L175.25 153.359C175.199 153.506 175.15 153.654 175.1 153.803L175.011 154.076L174.939 154.219C174.514 155.063 174.095 155.933 173.673 156.845L173.446 157.336L173.316 157.433C173.268 157.469 173.224 157.521 173.188 157.591C173.02 157.919 172.857 158.246 172.7 158.573L172.534 158.92L172.364 159.288C171.617 160.895 170.94 162.545 170.061 164.846L168.904 167.914L168.731 168.372C167.309 172.123 165.969 175.883 164.713 179.651C162.227 187.084 160.029 194.628 158.124 202.26C154.3 217.591 151.748 233.152 150.498 248.815C150.261 251.767 150.091 254.705 149.987 257.633L149.962 258.393L149.881 259.066C149.818 259.596 149.758 260.111 149.703 260.615L149.67 260.916C149.263 264.644 149.068 267.578 149.088 270.387C149.099 271.78 149.141 273.079 149.22 274.33L149.239 274.617L149.553 279.217L148.009 274.873C147.9 274.566 147.794 274.254 147.675 273.889L147.525 273.425L147.453 273.192C147.388 272.978 147.326 272.756 147.248 272.467L146.975 271.434L146.907 271.186C146.836 270.93 146.777 270.733 146.709 270.523L146.628 270.277L146.568 270.106C146.458 269.799 146.329 269.472 146.125 268.977L145.811 268.215L145.748 268.06V267.936L145.759 267.526C145.78 266.548 145.775 265.518 145.746 264.362L145.72 263.457L145.692 262.681C145.689 262.601 145.686 262.518 145.683 262.433L145.538 258.943L145.258 251.192L145.214 249.883C145.183 248.909 145.157 248.028 145.135 247.169L145.116 246.384L145.11 246.117C144.94 238.427 145.004 230.516 145.287 222.287L145.315 221.49L145.344 220.705C145.821 207.923 146.645 197.043 148.599 175.625L148.924 172.081L149.411 166.836L149.523 165.605C149.749 163.098 149.911 161.143 150.048 159.228L150.108 158.375C150.338 154.991 150.478 151.478 150.545 147.619L150.556 146.925L150.252 147.985L149.988 144.459C149.908 143.392 149.773 142.405 149.575 141.486L149.531 141.29L149.445 140.916L149.378 140.667C149.265 140.247 149.976 138.316 149.976 138.316L150.378 138.22L150.865 138.105C158.617 136.295 164.655 135.701 170.207 136.698ZM93.7915 133.56L94.0252 133.625L94.1731 133.667C95.3589 134.008 96.6181 134.49 98.0706 135.135L98.4865 135.321C98.6721 135.405 99.7452 135.83 100.172 136.011L100.245 136.043C101.82 136.735 102.759 137.462 102.966 138.531L102.979 138.604C103.438 139.045 103.971 139.468 104.577 139.875L104.73 139.976L104.875 140.07C105.527 140.485 106.144 140.85 106.724 141.167L106.882 141.251L106.991 141.309L108.036 141.668L109.329 142.117L109.588 142.205C110.936 142.664 111.73 142.905 112.682 143.139L113.216 143.27C115.242 143.761 117.036 144.144 118.765 144.445C120.526 144.749 122.333 145.015 124.202 145.249L124.834 145.326C125.456 145.399 126.066 145.455 127.016 145.529L128.554 145.648L129.593 145.733L129.04 146.617C127.591 148.933 126.473 151.514 125.222 155.164L125.082 155.574C123.948 158.928 123.15 161.95 121.775 167.749C119.695 176.549 117.981 185.432 116.641 194.364C115.717 200.52 114.969 206.661 114.398 212.783L114.317 213.657L113.055 213.655C112.889 211.775 112.683 209.838 112.434 207.802C111.654 201.459 110.53 195.231 109.062 189.155L108.923 188.585L108.863 188.34L108.988 188.121C109.063 187.989 109.093 187.84 109.072 187.711C108.918 186.753 108.636 185.879 108.099 184.56L107.551 183.235L107.428 182.931L107.419 182.899C106.838 180.86 106.219 178.844 105.561 176.852L105.34 176.189L105.331 176.159C104.376 172.744 103.438 169.925 102.335 167.284C101.472 165.221 100.49 163.198 99.3966 161.223L99.1902 160.853L99.1713 160.817C97.7859 157.935 96.3119 155.211 94.7468 152.658L94.4957 152.251L94.4726 152.184C94.4191 152.03 94.3385 151.893 94.2318 151.777L94.1906 151.734L94.138 151.682L94.0231 151.502L93.107 151.273C90.5289 150.628 87.8457 150.571 84.8506 151.018L84.6505 151.049L84.4494 151.081C82.2504 151.438 80.3612 151.925 76.9294 152.969L73.5535 154.003L73.0732 154.146L72.6193 154.28C70.974 154.759 69.5329 155.121 68.1337 155.393L67.9431 155.429L67.4254 155.527L67.1692 155.573C65.6276 155.848 64.5482 155.922 63.5276 155.727L63.4349 155.708L63.3215 155.683L63.2201 155.658C62.0287 155.34 61.5884 154.477 62.1368 153.273C62.5904 152.277 63.5743 151.571 65.0205 150.951L65.2302 150.864L65.2823 150.842L65.3373 150.83C65.6816 150.756 66.0112 150.625 66.3251 150.434C66.9578 150.05 67.2224 149.257 66.9357 148.601C66.6401 147.929 65.8312 147.487 65.2681 147.714L64.8431 147.883L64.3782 148.066L64.0916 147.656C64.0756 147.634 64.0605 147.61 64.0458 147.584L64.024 147.543L64.01 147.515L63.975 147.484L63.9401 147.449C63.8527 147.354 63.8059 147.251 63.7824 147.145C63.7736 147.106 63.7689 147.069 63.7668 147.033L63.7654 146.997C63.7642 146.922 63.7697 146.861 63.7929 146.651C63.8953 145.739 64.4922 145.002 65.5259 144.155L65.6927 144.02L65.7425 143.981C67.7205 142.413 70.2292 141.606 72.3608 142.101C72.4651 142.124 72.5674 142.151 72.6717 142.182L72.7769 142.214L72.9013 142.255C73.5568 142.482 74.069 142.203 74.3076 141.579C74.5479 140.951 74.3864 140.257 73.8777 139.883L73.832 139.85L73.6766 139.747L73.4953 139.622L73.2947 139.481L73.2026 139.414L73.0698 139.315C72.0488 138.543 71.4881 137.822 71.6521 136.969L71.6635 136.915L71.6781 136.851L71.7054 136.791L71.7915 136.607L71.8807 136.424L71.9058 136.374L71.9393 136.328C72.2906 135.855 72.8791 135.496 73.7221 135.147L73.8205 135.107C74.1725 134.965 75.1561 134.62 75.3031 134.563L75.3141 134.559C78.2268 133.377 81.391 132.695 84.5734 132.556C87.6974 132.42 90.8273 132.758 93.7915 133.56Z" fill="white"/>
<path d="M148.345 166.131L148.307 166.419L148.271 166.706C147.236 174.949 146.363 185.322 145.603 193.592C144.086 210.079 143.156 226.634 143.285 243.196C143.319 247.478 143.474 251.748 143.671 256.024L143.714 256.94C143.936 261.6 144.276 266.525 145.573 271.02C145.717 271.517 146.036 271.802 146.403 271.906C146.419 272.43 146.449 272.955 146.484 273.476L146.511 273.865C146.661 275.968 147.09 280.336 148.007 282.243C148.901 284.103 150.39 285.578 152.289 286.39C152.821 286.617 153.363 286.779 153.912 286.893C142.379 287.129 127.231 286.756 115.677 286.478C116.878 286.289 117.559 285.339 117.717 284.128C118.034 281.697 117.439 279.185 116.091 277.141C115.951 276.929 115.786 276.741 115.603 276.581L115.635 275.236C115.657 274.227 115.668 273.218 115.611 272.21C115.489 269.987 115.305 267.763 115.144 265.542C114.819 261.093 114.567 256.636 114.468 252.176C114.265 243.257 114.413 234.33 114.918 225.423C115.93 207.63 118.286 187.837 122.141 170.432C122.422 169.164 122.705 167.896 122.999 166.63C125.997 168.188 131.334 168.747 134.61 168.769C138.717 168.794 144.635 167.849 148.345 166.131Z" fill="#E86BBB"/>
<path fill-rule="evenodd" clip-rule="evenodd" d="M182.916 279.768C181.487 268.293 180.494 254.441 180.482 242.87C180.481 241.78 182.172 241.782 182.173 242.87C182.184 254.441 183.178 268.293 184.606 279.768C184.741 280.847 183.049 280.834 182.916 279.768ZM172.332 208.618C170.124 209.969 167.225 209.032 165.04 208.138C164.045 207.73 164.483 206.095 165.489 206.507C167.152 207.188 169.582 208.19 171.337 207.241C173.089 206.293 173.168 203.686 173.181 201.966C173.189 200.877 174.879 200.878 174.871 201.966C174.853 204.307 174.541 207.267 172.332 208.618ZM168.245 261.13C166.018 259.988 164.117 258.426 162.588 256.444C161.923 255.583 163.392 254.742 164.047 255.591C165.393 257.335 167.147 258.67 169.098 259.67C170.068 260.167 169.211 261.626 168.245 261.13ZM157.539 202.121C153.717 217.442 151.152 233.037 149.895 248.778C149.64 251.974 149.46 255.165 149.359 258.359C149.257 259.191 149.16 260.026 149.069 260.861C148.725 264.019 148.461 267.227 148.484 270.406C148.495 271.832 148.539 273.253 148.636 274.675C148.467 274.199 148.311 273.722 148.159 273.246C147.848 272.272 147.643 271.262 147.326 270.294C147.064 269.493 146.726 268.726 146.412 267.95V267.948C146.507 264.771 146.291 261.565 146.181 258.403C146.04 254.307 145.864 250.215 145.773 246.117C145.592 237.921 145.683 229.719 145.978 221.527C146.572 205.02 148.072 188.592 149.585 172.153C150.005 167.582 150.457 163.012 150.77 158.432C151.085 153.804 151.212 149.167 151.247 144.526C151.25 144.192 150.742 144.103 150.65 144.426C150.567 143.325 150.421 142.226 150.178 141.163C153.823 143.488 157.666 145.498 161.433 147.611C163.416 148.725 165.392 149.858 167.437 150.855C168.561 151.405 169.695 151.91 170.853 152.388C172.053 152.882 173.2 153.563 174.521 153.218C174.635 153.189 174.742 153.146 174.846 153.092C174.696 153.377 174.546 153.66 174.402 153.948C173.904 154.939 173.428 155.934 172.968 156.938C172.845 157.029 172.738 157.154 172.653 157.316C172.429 157.754 172.212 158.196 172 158.643C171.958 158.604 171.916 158.563 171.873 158.523C171.696 158.356 171.451 158.608 171.607 158.79C171.679 158.872 171.749 158.952 171.819 159.035C170.441 162 169.321 165.117 168.168 168.161C166.75 171.902 165.407 175.67 164.141 179.464C161.646 186.927 159.445 194.487 157.539 202.121ZM102.899 257.722C95.855 261.495 89.2727 266.005 82.9419 270.869C82.0788 271.532 81.238 270.063 82.0888 269.409C88.4196 264.545 95.0021 260.035 102.046 256.261C103.006 255.748 103.858 257.208 102.899 257.722ZM79.108 213.524C78.7419 213.497 78.3861 213.285 78.2931 212.904C77.7225 210.567 77.2757 208.021 77.8064 205.637C78.043 204.574 79.6721 205.026 79.4361 206.086C79.0176 207.966 79.3501 209.998 79.7847 211.872C85.9281 212.142 91.9892 209.936 97.8669 208.455C98.9238 208.189 99.3702 209.82 98.3162 210.086C92.0813 211.656 85.6321 214.008 79.108 213.524ZM201.411 275.865C201.417 275.85 201.423 275.833 201.428 275.818C201.789 274.724 201.797 273.451 201.838 272.304C201.907 270.262 201.833 268.216 201.65 266.181C201.261 261.897 200.424 257.682 199.425 253.504C197.445 245.228 194.648 237.175 193.129 228.787C190.148 212.32 190.856 195.176 185.006 179.293C182.574 172.69 179.101 166.343 174.381 161.097C174.726 160.049 175.062 158.999 175.389 157.944C175.962 156.11 176.547 154.216 176.9 152.326C176.908 152.276 176.919 152.223 176.925 152.17C178.934 151.303 180.762 149.67 181.074 147.497C181.209 146.559 181.053 145.519 180.647 144.612C181.476 143.847 182.008 142.854 181.881 141.522C181.645 139.016 178.719 138.371 176.682 137.881C174.366 137.325 171.964 137.171 169.596 137.433C168.4 137.564 167.217 137.783 166.062 138.113C165.058 138.398 163.966 138.692 163.161 139.381C163.066 139.462 163.144 139.618 163.258 139.618C164.887 139.612 166.509 139.013 168.155 138.935C169.879 138.855 171.599 138.997 173.289 139.352C174.941 139.698 176.589 140.205 178.091 140.99C178.514 141.212 179.133 141.362 178.636 141.81C178.273 142.137 177.559 142.165 177.092 142.213C176.059 142.321 175.167 142.926 175.036 144.029C174.92 145.003 175.501 146.106 176.536 146.326C176.593 146.339 176.646 146.354 176.692 146.373C176.72 146.426 176.762 146.47 176.758 146.398C176.758 146.398 176.76 146.396 176.76 146.398C176.785 146.552 176.794 146.613 176.794 146.624C176.788 146.612 176.777 146.559 176.769 146.516C176.775 146.554 176.788 146.616 176.804 146.707C176.781 146.607 176.8 146.851 176.781 146.888C176.232 147.903 174.607 148.188 173.661 148.626C173.477 148.71 173.319 148.81 173.183 148.921C172.959 148.843 172.731 148.765 172.501 148.679C171.366 148.254 170.234 147.842 169.085 147.459C166.866 146.717 164.621 146.056 162.402 145.312C158.202 143.904 154.142 142.127 150.02 140.516C149.889 140.03 149.737 139.555 149.557 139.092C149.521 138.995 149.348 138.963 149.329 139.092C149.266 139.502 149.215 139.914 149.173 140.328C149.156 140.366 149.152 140.408 149.16 140.449C148.921 142.858 148.985 145.324 148.862 147.732C148.71 150.733 148.285 153.713 148.165 156.716V156.771C147.721 159.335 147.32 161.907 146.957 164.488C146.549 164.361 146.082 164.386 145.604 164.642C142.228 166.445 138.434 167.449 134.616 167.673C132.694 167.784 130.79 167.721 128.878 167.499C127.621 167.356 126.383 167.093 125.143 166.844C125.796 164.107 126.497 161.383 127.29 158.686C127.942 156.469 128.669 154.262 129.567 152.13C130.473 149.976 131.602 147.92 132.652 145.832C133.135 144.866 132.565 143.388 131.308 143.49C130.936 143.519 130.564 143.543 130.19 143.56C126.552 143.733 122.769 143.327 119.177 142.966C115.089 142.551 110.946 142.122 106.894 141.448C106.594 141.4 106.471 141.808 106.767 141.907C108.69 142.554 110.589 143.285 112.56 143.769C114.588 144.27 116.629 144.726 118.687 145.083C120.658 145.424 122.638 145.709 124.623 145.95C125.919 146.109 127.228 146.189 128.532 146.294C126.776 149.101 125.566 152.267 124.512 155.384C123.157 159.388 122.162 163.507 121.188 167.618C119.105 176.429 117.388 185.329 116.044 194.284C115.081 200.705 114.301 207.151 113.716 213.614C113.542 211.65 113.331 209.693 113.092 207.738C112.294 201.247 111.128 194.799 109.569 188.448C109.708 188.203 109.773 187.909 109.727 187.624C109.446 185.878 108.707 184.359 108.058 182.74C107.414 180.478 106.719 178.232 105.971 176.002C105.121 172.965 104.169 169.974 102.95 167.053C102.018 164.828 100.955 162.659 99.7721 160.556C98.3587 157.617 96.8059 154.74 95.1009 151.99C95.0122 151.735 94.8686 151.496 94.6636 151.295C94.3531 150.805 94.0383 150.321 93.7171 149.841C93.508 149.528 92.908 149.718 93.0664 150.116C93.1404 150.302 93.2143 150.488 93.2904 150.672C86.346 148.934 79.5369 151.591 72.9221 153.552C71.2531 154.049 69.5671 154.497 67.8559 154.82C66.5101 155.074 64.9425 155.383 63.601 155.103C62.7031 154.918 62.3059 154.51 62.7432 153.55C63.1953 152.557 64.4291 151.904 65.5002 151.464C65.9038 151.377 66.3009 151.223 66.6833 150.991C67.5749 150.45 67.9657 149.321 67.5453 148.359C67.1629 147.491 66.0474 146.743 65.0608 147.14C64.9193 147.197 64.7798 147.252 64.6404 147.307C64.6256 147.286 64.6087 147.256 64.5939 147.214C64.4524 146.827 64.3911 147.29 64.4524 146.736C64.5538 145.832 65.5108 145.009 66.1657 144.492C67.7946 143.2 70.1481 142.245 72.2502 142.733C72.4087 142.769 72.5671 142.814 72.7235 142.869C74.889 143.619 75.9432 140.499 74.2129 139.337C74.1073 139.267 73.9742 139.178 73.8284 139.075C73.108 138.574 72.0538 137.731 72.3411 136.97C72.696 136.025 74.7897 135.482 75.5819 135.161C78.4467 133.998 81.5418 133.339 84.6305 133.203C87.7383 133.068 90.8862 133.411 93.884 134.249C95.3545 134.66 96.865 135.283 98.2552 135.913C99.5038 136.477 102.221 137.223 102.394 138.804C102.432 139.153 102.928 139.271 103.036 138.891C103.888 135.856 100.583 133.897 98.4031 132.643C96.9728 131.819 95.3502 131.306 93.7805 130.8C92.2763 130.314 90.7404 129.957 89.1728 129.741C85.8073 129.281 82.4016 129.34 79.0636 129.987C76.0235 130.577 72.6411 131.582 70.184 133.54C68.6756 134.74 67.9932 136.651 68.5995 138.515C68.6207 138.576 68.6418 138.639 68.6629 138.701C65.9481 139.187 63.3791 140.742 61.6615 142.911C60.2502 144.692 59.5108 147.172 60.7742 149.245C60.7214 149.283 60.6686 149.323 60.6179 149.365C59.4136 150.329 58.5179 151.729 58.2517 153.258C57.7298 156.277 59.5531 158.388 62.1031 159.195C61.4714 159.813 60.865 160.468 60.2714 161.123C58.9425 162.592 57.6728 164.191 56.5531 165.823C54.284 169.129 52.3446 172.728 50.6481 176.355C47.1601 183.803 44.9608 191.819 43.7946 199.948C43.2073 204.044 42.8143 208.161 42.6643 212.295C42.4911 217.008 42.6664 221.723 42.5756 226.439C42.4869 230.97 41.9862 235.391 40.9742 239.809C40.0045 244.033 38.7115 248.174 37.5411 252.344C36.2207 257.04 34.7671 261.715 34.07 266.557C33.7171 269.021 33.4636 271.492 33.6601 273.984C33.8587 276.522 34.7798 278.693 35.6291 281.054C35.8446 281.656 36.5017 281.899 37.0277 281.77C37.146 282.901 37.5728 284.004 38.2087 284.959C39.5587 286.984 41.6376 288.275 44.0186 288.745C46.7017 289.271 49.4671 289.146 52.184 289.049C55.1312 288.943 58.0805 288.848 61.0277 288.726C64.1133 288.598 67.1986 288.467 70.2842 288.335C70.1821 285.172 70.0605 282.009 69.9229 278.847C69.179 261.752 68.0076 244.647 67.9765 227.53C67.9167 227.495 67.858 227.453 67.8018 227.398C66.4127 226.055 64.7074 225.173 63.1051 224.122C62.1983 223.527 63.0459 222.064 63.9582 222.662C65.309 223.548 66.7167 224.336 67.9826 225.329C67.99 223.547 68.0057 221.765 68.0409 219.983C68.0625 218.895 69.7526 218.895 69.7311 219.983C69.625 225.354 69.6605 230.726 69.782 236.096C70.1752 253.498 71.4111 270.868 71.9739 288.263C80.2556 287.909 88.5377 287.553 96.8207 287.25C103.558 287.005 110.295 286.76 117.033 286.515C118.446 286.464 119.24 285.454 119.414 284.133C119.731 281.702 119.135 279.189 117.787 277.146C117.647 276.934 117.483 276.746 117.299 276.586C117.331 275.129 117.39 273.671 117.307 272.215C117.185 269.991 117.001 267.768 116.84 265.547C116.515 261.098 116.264 256.64 116.164 252.181C115.962 243.262 116.109 234.335 116.614 225.428C117.626 207.635 119.982 189.955 123.838 172.551C124.119 171.282 124.402 170.014 124.695 168.748C127.693 170.306 131.34 170.866 134.616 170.887C138.723 170.913 142.74 169.968 146.45 168.25C146.424 168.442 146.399 168.632 146.376 168.824C145.34 177.067 144.468 185.326 143.707 193.597C142.19 210.084 141.261 226.639 141.39 243.201C141.426 247.789 141.601 252.363 141.819 256.945C142.04 261.605 142.381 266.53 143.678 271.025C143.821 271.521 144.14 271.807 144.508 271.911C144.527 272.566 144.569 273.223 144.616 273.87C144.766 275.973 145.195 280.341 146.112 282.247C147.005 284.108 148.495 285.583 150.394 286.395C152.807 287.424 155.416 287.128 157.964 286.963C169.042 286.24 180.113 285.272 191.185 284.422C192.728 284.304 194.27 284.188 195.81 284.067C197.181 283.962 198.599 283.869 199.816 283.156C201.2 282.347 202.279 278.372 201.802 276.727C201.715 276.427 201.584 276.131 201.411 275.865Z" fill="black"/>
<path fill-rule="evenodd" clip-rule="evenodd" d="M162.678 78.6399C155.261 59.0779 141.891 44.7554 119.352 53.7513C118.705 53.31 117.862 53.1916 117.053 53.7084C104.775 61.4373 95.9335 73.8285 92.1018 87.8011C89.7699 88.2456 87.504 89.0208 85.4801 90.2921C81.0815 93.055 78.1222 97.4515 75.3482 101.734C74.514 103.021 75.2865 105.152 76.8541 105.444C77.5351 105.572 78.2099 105.647 78.881 105.667C78.7176 106.262 78.5026 106.836 78.2287 107.363C77.2372 109.27 79.1104 111.295 80.8659 110.774C81.0607 110.877 81.2647 110.962 81.4762 111.026C81.5002 112.106 82.0541 113.553 83.1501 113.771C84.9227 114.152 87.2784 112.792 86.8602 110.805C87.3957 110.899 87.9292 110.911 88.4493 110.845C88.5075 111.88 88.4894 112.96 88.6319 113.915C89.0978 118.414 93.582 121.437 97.8583 120.068C98.1206 121.47 98.4286 123.44 99.8059 124.2C101.416 128.729 104.197 133.897 108.751 135.96C108.345 137.002 108.565 138.268 109.786 138.965C118.123 143.73 128.128 145.342 137.553 143.571C141.319 143.346 144.989 142.492 148.511 140.675C151.08 139.349 153.442 137.666 155.747 135.93C158.053 134.194 160.519 132.504 162.36 130.25C164.359 127.802 165.29 124.921 165.894 121.856C168.662 107.941 167.706 94.2775 162.678 81.0221C156.454 64.6139 168.9 95.0489 162.678 78.6399Z" fill="#D08B5B"/>
<path fill-rule="evenodd" clip-rule="evenodd" d="M85.4583 89.492C92.3815 85.398 101.211 86.4576 105.37 92.7993C106.088 93.8941 106.584 95.0984 106.934 96.4926L106.991 96.7243L107.047 96.9682C107.228 97.7742 107.347 98.5327 107.508 99.8224L107.687 101.286L107.738 101.684C107.911 103.009 108.063 103.846 108.3 104.698L108.347 104.864L108.621 105.808L107.588 106.191C105.609 106.907 105.195 106.971 104.053 106.373C103.161 105.906 102.696 105.277 102.077 104.002L101.987 103.815L101.789 103.4L101.682 103.181C101.279 102.373 100.956 101.511 100.499 101.199C99.8789 100.774 97.9242 100.605 96.5649 100.772L96.494 100.781L96.4354 100.793L96.3348 100.816C94.0489 101.358 91.9654 103.208 90.5912 105.162C89.4846 106.737 88.8488 108.719 88.7708 110.78L88.7665 110.917L88.7394 111.969L86.5235 111.922L86.5452 111.512L86.512 111.585C85.8139 113.061 84.0599 114.043 82.5924 113.066L82.5402 113.031L82.4869 112.992C81.248 112.078 81.0988 110.228 82.1157 109.104L82.1627 109.053L82.2084 109.007L82.199 109.002L82.1885 108.999L82.182 108.998C81.8356 109.062 81.5313 109.24 81.1197 109.619L81.0138 109.718L80.8012 109.949L80.5812 110.184L80.4867 110.282C80.4263 110.343 80.3708 110.396 80.3188 110.444C80.2485 110.508 80.1834 110.562 80.1126 110.611C80.0471 110.657 79.9795 110.697 79.8977 110.732C79.6958 110.82 79.48 110.862 79.2038 110.793C78.825 110.7 78.6115 110.471 78.4823 110.2C78.4321 110.095 78.4034 109.999 78.383 109.897C78.3618 109.79 78.3513 109.681 78.3458 109.556C78.3422 109.474 78.341 109.384 78.3417 109.286L78.3442 109.133L78.3494 108.966L78.355 108.833L78.3801 108.34C78.4698 106.722 78.8941 105.133 79.6205 103.633L79.6941 103.483L79.7215 103.428L79.6456 103.53C79.1502 104.185 78.6718 104.639 78.0748 104.938L77.9927 104.978L77.9124 105.015C77.084 105.379 76.2497 105.238 75.7457 104.562C75.397 104.094 75.2941 103.478 75.3656 102.83C75.5043 101.573 76.0001 100.422 76.971 98.743L77.107 98.5094L77.64 97.6033C79.6936 94.1385 82.3334 91.3395 85.4583 89.492Z" fill="#E8E1E1"/>
<path fill-rule="evenodd" clip-rule="evenodd" d="M126.821 49.9393C130.617 49.6706 134.482 50.3121 138.097 51.4595C143.862 53.2889 149.156 56.5175 153.506 60.7207C157.989 65.0523 161.305 70.3929 163.321 76.2915C165.752 83.4051 166.116 91.0006 166.8 98.4264C167.146 102.178 167.716 105.873 168.308 109.588L168.402 110.175C168.98 113.795 169.306 117.456 168.506 121.071C167.178 127.078 163.195 132.177 158.467 135.944C148.755 143.685 133.637 148.403 122.329 141.281C120.579 140.179 122.237 137.361 123.945 138.509C125.147 139.318 126.42 140.026 127.786 140.516C133.491 142.56 139.757 141.832 145.395 139.93C150.952 138.057 156.284 134.891 160.384 130.666C164.691 126.229 167.077 120.748 166.732 114.512C166.527 110.801 165.684 107.159 165.216 103.479C164.801 100.219 164.552 96.9414 164.266 93.6685L164.161 92.4912C163.553 85.823 162.681 78.9718 159.654 72.9189C157.109 67.8267 153.381 63.2964 148.899 59.7977C144.207 56.1348 138.602 53.573 132.721 52.6175C125.806 51.4939 119.186 53.5371 113.417 57.3405C108.301 60.7137 103.903 65.2214 100.53 70.336C98.8943 72.816 97.501 75.4645 96.2979 78.1805C95.1641 80.7395 94.3823 83.4216 93.4705 86.0592C94.2208 86.0368 94.9836 86.0658 95.7582 86.1516C99.7309 86.5929 103.432 88.6569 105.789 91.9115C108.668 95.8885 107.89 100.77 109.015 105.293C109.102 105.644 108.954 105.988 108.654 106.182C106.948 107.287 104.666 107.324 103.015 106.08C101.583 105 100.91 103.048 101.49 101.342C101.566 101.119 101.889 101.159 101.898 101.397C102.007 104.3 104.694 106.535 107.327 105.154C106.197 101.254 106.792 96.8983 104.482 93.3755C100.392 87.1407 91.9298 86.8831 85.9861 90.3978C82.8581 92.2473 80.3821 95.0282 78.5384 98.1388L78.0073 99.0418C77.3006 100.248 76.5522 101.613 76.4055 102.942C76.321 103.709 76.6033 104.429 77.4807 104.043C78.1906 103.73 78.7402 103.001 79.1618 102.375C79.8809 101.306 81.5334 102.229 80.9394 103.368L80.9192 103.405C80.0548 104.94 79.5226 106.632 79.4248 108.395L79.4 108.883C79.3837 109.239 79.372 109.744 79.4471 109.763C79.5371 109.785 80.1626 109.061 80.2667 108.961C80.7685 108.478 81.2852 108.083 81.9837 107.954C82.9018 107.786 83.8282 108.924 83.0312 109.671L82.9979 109.701C82.2866 110.321 82.3183 111.557 83.104 112.137C84.2129 112.955 85.5782 111.62 85.7391 110.52L85.7445 110.479C85.8868 109.291 87.5327 109.249 87.6221 110.479C87.8163 113.149 84.6461 115.386 82.2341 114.039C81.2804 113.507 80.6741 112.533 80.4841 111.488C80.1797 111.65 79.8512 111.761 79.504 111.792C78.3736 111.893 77.5699 111.096 77.3871 110.026C77.1742 108.78 77.3005 107.446 77.6279 106.153C77.014 106.301 76.3682 106.244 75.7191 105.869C73.7553 104.733 74.3192 102.206 75.0607 100.5C78.2262 93.2179 84.7844 86.6104 92.9095 86.0859C92.954 84.8011 93.1277 83.5864 93.4119 82.2999C96.191 69.7164 105.194 58.0642 116.915 52.6181C120.047 51.1628 123.368 50.1838 126.821 49.9393ZM96.0846 100.206L96.196 100.181C97.4622 99.9072 100.795 99.5859 100.393 101.722C100.374 101.823 100.228 101.81 100.202 101.722C99.809 100.379 97.1366 101.453 96.3563 101.776C95.2807 102.222 94.2197 102.879 93.3414 103.643C91.4185 105.316 90.1295 107.674 89.9334 110.235C89.7391 112.775 90.4742 115.519 92.302 117.356C93.198 118.257 94.3417 118.868 95.6265 118.913C96.7807 118.954 98.056 118.053 99.1211 118.58C99.331 118.684 99.4974 118.97 99.4784 119.205C99.4426 119.65 99.244 119.996 98.9484 120.265C100.732 123.522 102.191 126.97 104.465 129.933C105.607 131.419 106.9 132.795 108.365 133.966C109.061 134.523 109.818 135.012 110.598 135.442C111.513 135.946 112.304 136.261 112.957 137.115C113.513 137.843 112.957 139.251 112.039 139.377C109.878 139.672 107.779 137.921 106.192 136.609C104.608 135.298 103.238 133.681 102.106 131.966C99.9325 128.671 98.4456 124.785 97.8511 120.853C97.1608 121.073 96.3837 121.14 95.7991 121.141C94.2437 121.144 92.7584 120.583 91.5361 119.636C87.0612 116.166 86.5639 109.042 89.7218 104.549C91.2329 102.4 93.5292 100.811 96.0846 100.206ZM96.1126 108.468C97.1503 108.377 98.1871 108.541 99.1624 108.896L99.5644 109.042C100.414 109.353 101.318 109.719 101.931 110.358C102.868 111.333 101.935 113.024 100.6 112.65C99.1242 112.236 97.9246 110.99 96.4491 110.468C95.1302 110.001 93.6363 110.067 92.4658 110.871C92.3113 110.977 92.1081 110.768 92.209 110.613C93.1044 109.247 94.518 108.609 96.1126 108.468Z" fill="black"/>
<path fill-rule="evenodd" clip-rule="evenodd" d="M138.834 118.841C140.016 116.896 142.535 121.66 142.803 122.479C143.04 123.205 143.197 123.948 143.276 124.7C144.192 124.906 145.144 124.906 146.083 124.726C147.478 124.458 148.331 123.708 149.544 123.064C150.381 122.618 151.437 123.14 151.873 123.879C152.385 124.748 152.059 125.65 151.385 126.298C150.107 127.527 147.592 127.809 145.924 127.483C144.968 127.296 144.092 126.937 143.319 126.416C143.314 126.514 143.31 126.611 143.303 126.708L143.288 126.876C143.16 128.239 142.785 129.953 141.727 130.84C139.992 132.294 137.85 129.497 139.536 128.044L139.589 128C140.637 127.153 140.865 124.88 140.809 123.628C140.772 122.811 140.623 121.983 140.365 121.205L140.312 121.05C140.235 120.83 139.388 118.745 139.082 119.01L139.068 119.025C138.941 119.176 138.738 119 138.834 118.841ZM148.271 107.866C149.866 108.837 152.297 111.099 150.581 113.504C148.56 115.624 145.652 113.193 144.218 112.093C142.889 111.241 141.396 113.433 142.629 114.428C152.986 122.099 157.19 108.12 149.078 106.726C148.184 106.572 147.853 107.566 148.271 107.866ZM131.235 98.8995C132.794 98.6228 134.391 99.0106 135.681 99.9232L135.779 99.9936C137.022 100.903 138.413 102.5 137.7 104.067C137.413 104.697 136.556 104.796 136.012 104.51C135.106 104.035 134.942 102.866 134.134 102.219C133.471 101.689 132.579 101.367 131.725 101.445C129.72 101.627 128.487 103.605 127.864 105.31C127.785 105.528 127.464 105.613 127.339 105.379C125.871 102.633 128.47 99.3902 131.235 98.8995ZM156.209 97.8632C159.196 97.617 162.692 100.715 161.905 103.868C161.528 105.382 159.284 105.338 158.885 103.868C158.666 103.059 158.688 102.344 158.106 101.672C157.625 101.118 156.943 100.795 156.209 100.845C155.4 100.899 154.654 101.304 154.087 101.872C153.576 102.385 153.269 103.136 152.739 103.59C152.609 103.702 152.434 103.709 152.305 103.59C151.392 102.749 151.94 100.996 152.519 100.117C153.347 98.8597 154.695 97.9881 156.209 97.8632ZM125.547 93.306C127.463 91.6093 130.945 89.9707 133.528 90.8058C135.014 91.2857 135.661 93.6801 134.003 94.4391C132.083 95.3179 129.869 94.9603 127.915 95.8712C127.094 96.254 126.322 96.7322 125.75 97.4337C125.3 97.9866 124.842 98.7141 124.191 99.0328C124.02 99.1167 123.788 99.1188 123.651 98.9633C122.224 97.3481 124.301 94.4095 125.547 93.306ZM152.916 90.7215C154.1 90.3891 155.414 90.3958 156.617 90.6047C157.819 90.8135 159.04 91.3121 160.022 92.0393L160.136 92.1245C161.208 92.9324 162.487 94.108 162.418 95.5393C162.361 96.7345 161.104 97.5429 160.019 96.9164C159.134 96.4056 158.718 95.3822 157.969 94.7008C157.351 94.1384 156.625 93.695 155.851 93.3843C154.99 93.0392 154.129 92.8775 153.205 92.8621C152.495 92.8503 151.779 93.0836 151.082 93.1582C151.139 93.2761 150.588 93.2212 150.272 93.1166C150.038 93.0168 150.036 92.7207 150.118 92.5286C150.52 91.5769 151.984 90.9828 152.916 90.7215Z" fill="black"/>
<path fill-rule="evenodd" clip-rule="evenodd" d="M166.773 116.395C166.491 115.554 165.042 115.627 165.131 116.618C165.233 117.75 164.846 119.012 163.762 119.561C162.627 120.137 161.351 119.619 160.658 118.632C160.056 117.775 159.641 116.841 158.884 116.093C158.18 115.397 157.323 114.861 156.386 114.542C155.656 114.294 154.9 114.228 154.165 114.31C152.336 113.896 150.216 114.837 149.076 116.264C149.002 116.356 148.934 116.45 148.868 116.546C148.755 116.392 148.637 116.239 148.511 116.089C148.188 115.702 147.787 115.619 147.425 115.724C145.363 114.19 142.473 113.987 140.131 115.371C138.255 116.481 136.702 118.116 134.395 118.243C132.567 118.344 130.576 117.301 130.448 115.291C130.38 114.242 128.951 113.368 128.149 114.339C126.464 116.382 126.127 119.095 127.059 121.564C128.043 124.17 130.048 126.006 132.587 127.085C135.328 128.251 138.541 128.656 141.506 128.564C144.463 128.472 147.151 127.335 148.933 124.915C149.146 124.627 149.333 124.333 149.497 124.036C151.227 126.24 153.939 127.167 156.702 127.233C159.592 127.303 163.008 126.795 165.052 124.55C167.021 122.386 167.701 119.167 166.773 116.395Z" fill="black"/>
<path fill-rule="evenodd" clip-rule="evenodd" d="M163.095 111.465C159.925 112.993 155.501 110.74 153.369 108.379C152.593 107.52 151.995 105.061 152.293 103.502C153.102 99.2791 156.14 96.7446 159.347 95.8791C163.793 94.679 168.267 97.7191 167.745 101.307C167.251 104.707 166.502 109.638 163.095 111.465ZM141.514 103.353C141.26 107.955 137.566 111.983 133.15 113.177C126.036 115.163 122.52 110.16 120.928 104.77C120.769 104.235 120.397 102.6 121.395 101.198C125.321 95.6827 134.873 96.6228 139.644 98.1369C141.041 99.4729 141.612 101.401 141.514 103.353ZM166.54 95.4154C166.538 95.4181 166.536 95.4205 166.534 95.4232C166.517 95.4133 166.501 95.4031 166.485 95.3934C166.503 95.401 166.522 95.4076 166.54 95.4154ZM172.493 95.9474C172.079 91.2617 157.383 93.0559 155.665 93.4399C150.975 94.8196 146.925 98.5732 141.682 96.9232C136.25 90.8652 117.957 92.6025 114.122 95.6884C113.396 95.4035 112.513 95.5564 111.578 95.8252C106.775 95.6517 84.8487 97.308 89.3335 103.44C90.0142 103.913 90.6943 103.432 90.7131 102.459C114.093 94.0162 111.826 101.924 114.599 101.001C115.022 101.123 115.464 101.2 115.851 101.281C117.997 101.972 118.725 101.758 119.008 104.168C120.95 122.778 145.722 116.355 143.691 101.09C145.702 100.98 147.462 100.109 149.589 100.959C151.066 115.339 162.633 115.919 166.114 110.934C168.739 107.475 167.698 102.253 171.307 99.5316C172.731 100.724 172.823 96.6995 172.493 95.9474Z" fill="black"/>
</svg>
